G04 #@! TF.GenerationSoftware,KiCad,Pcbnew,(5.1.6)-1*
G04 #@! TF.CreationDate,2021-01-14T09:04:40+01:00*
G04 #@! TF.ProjectId,surface_mount_v4,73757266-6163-4655-9f6d-6f756e745f76,rev?*
G04 #@! TF.SameCoordinates,Original*
G04 #@! TF.FileFunction,Legend,Top*
G04 #@! TF.FilePolarity,Positive*
%FSLAX46Y46*%
G04 Gerber Fmt 4.6, Leading zero omitted, Abs format (unit mm)*
G04 Created by KiCad (PCBNEW (5.1.6)-1) date 2021-01-14 09:04:40*
%MOMM*%
%LPD*%
G01*
G04 APERTURE LIST*
%ADD10C,0.200000*%
%ADD11C,0.300000*%
%ADD12C,0.120000*%
%ADD13C,0.400000*%
%ADD14C,0.250000*%
%ADD15C,0.150000*%
%ADD16C,0.100000*%
%ADD17C,0.254000*%
G04 APERTURE END LIST*
D10*
X149250000Y-137210000D02*
G75*
G03*
X149250000Y-137210000I-200000J0D01*
G01*
D11*
X134350000Y-139810000D02*
G75*
G03*
X134350000Y-139810000I-200000J0D01*
G01*
D10*
X141650000Y-143210000D02*
G75*
G03*
X141650000Y-143210000I-200000J0D01*
G01*
D12*
X141197214Y-141710000D02*
G75*
G03*
X141197214Y-141710000I-447214J0D01*
G01*
X149397214Y-137410000D02*
G75*
G03*
X149397214Y-137410000I-447214J0D01*
G01*
D13*
X132250000Y-132810000D02*
G75*
G03*
X132250000Y-132810000I-200000J0D01*
G01*
D14*
X165704761Y-158210000D02*
X165752380Y-158067142D01*
X165752380Y-157829047D01*
X165704761Y-157733809D01*
X165657142Y-157686190D01*
X165561904Y-157638571D01*
X165466666Y-157638571D01*
X165371428Y-157686190D01*
X165323809Y-157733809D01*
X165276190Y-157829047D01*
X165228571Y-158019523D01*
X165180952Y-158114761D01*
X165133333Y-158162380D01*
X165038095Y-158210000D01*
X164942857Y-158210000D01*
X164847619Y-158162380D01*
X164800000Y-158114761D01*
X164752380Y-158019523D01*
X164752380Y-157781428D01*
X164800000Y-157638571D01*
X164752380Y-157305238D02*
X165752380Y-157067142D01*
X165038095Y-156876666D01*
X165752380Y-156686190D01*
X164752380Y-156448095D01*
X165752380Y-156067142D02*
X164752380Y-156067142D01*
X164752380Y-155733809D02*
X164752380Y-155162380D01*
X165752380Y-155448095D02*
X164752380Y-155448095D01*
X165657142Y-154257619D02*
X165704761Y-154305238D01*
X165752380Y-154448095D01*
X165752380Y-154543333D01*
X165704761Y-154686190D01*
X165609523Y-154781428D01*
X165514285Y-154829047D01*
X165323809Y-154876666D01*
X165180952Y-154876666D01*
X164990476Y-154829047D01*
X164895238Y-154781428D01*
X164800000Y-154686190D01*
X164752380Y-154543333D01*
X164752380Y-154448095D01*
X164800000Y-154305238D01*
X164847619Y-154257619D01*
X165752380Y-153829047D02*
X164752380Y-153829047D01*
X165228571Y-153829047D02*
X165228571Y-153257619D01*
X165752380Y-153257619D02*
X164752380Y-153257619D01*
D15*
X132083333Y-121014761D02*
X132226190Y-121062380D01*
X132464285Y-121062380D01*
X132559523Y-121014761D01*
X132607142Y-120967142D01*
X132654761Y-120871904D01*
X132654761Y-120776666D01*
X132607142Y-120681428D01*
X132559523Y-120633809D01*
X132464285Y-120586190D01*
X132273809Y-120538571D01*
X132178571Y-120490952D01*
X132130952Y-120443333D01*
X132083333Y-120348095D01*
X132083333Y-120252857D01*
X132130952Y-120157619D01*
X132178571Y-120110000D01*
X132273809Y-120062380D01*
X132511904Y-120062380D01*
X132654761Y-120110000D01*
X133464285Y-121014761D02*
X133369047Y-121062380D01*
X133178571Y-121062380D01*
X133083333Y-121014761D01*
X133035714Y-120919523D01*
X133035714Y-120538571D01*
X133083333Y-120443333D01*
X133178571Y-120395714D01*
X133369047Y-120395714D01*
X133464285Y-120443333D01*
X133511904Y-120538571D01*
X133511904Y-120633809D01*
X133035714Y-120729047D01*
X133940476Y-121062380D02*
X133940476Y-120395714D01*
X133940476Y-120586190D02*
X133988095Y-120490952D01*
X134035714Y-120443333D01*
X134130952Y-120395714D01*
X134226190Y-120395714D01*
X134464285Y-120395714D02*
X134702380Y-121062380D01*
X134940476Y-120395714D01*
X135464285Y-121062380D02*
X135369047Y-121014761D01*
X135321428Y-120967142D01*
X135273809Y-120871904D01*
X135273809Y-120586190D01*
X135321428Y-120490952D01*
X135369047Y-120443333D01*
X135464285Y-120395714D01*
X135607142Y-120395714D01*
X135702380Y-120443333D01*
X135750000Y-120490952D01*
X135797619Y-120586190D01*
X135797619Y-120871904D01*
X135750000Y-120967142D01*
X135702380Y-121014761D01*
X135607142Y-121062380D01*
X135464285Y-121062380D01*
X137178571Y-120586190D02*
X137178571Y-121062380D01*
X136845238Y-120062380D02*
X137178571Y-120586190D01*
X137511904Y-120062380D01*
X143935714Y-126014761D02*
X144078571Y-126062380D01*
X144316666Y-126062380D01*
X144411904Y-126014761D01*
X144459523Y-125967142D01*
X144507142Y-125871904D01*
X144507142Y-125776666D01*
X144459523Y-125681428D01*
X144411904Y-125633809D01*
X144316666Y-125586190D01*
X144126190Y-125538571D01*
X144030952Y-125490952D01*
X143983333Y-125443333D01*
X143935714Y-125348095D01*
X143935714Y-125252857D01*
X143983333Y-125157619D01*
X144030952Y-125110000D01*
X144126190Y-125062380D01*
X144364285Y-125062380D01*
X144507142Y-125110000D01*
X145316666Y-126014761D02*
X145221428Y-126062380D01*
X145030952Y-126062380D01*
X144935714Y-126014761D01*
X144888095Y-125919523D01*
X144888095Y-125538571D01*
X144935714Y-125443333D01*
X145030952Y-125395714D01*
X145221428Y-125395714D01*
X145316666Y-125443333D01*
X145364285Y-125538571D01*
X145364285Y-125633809D01*
X144888095Y-125729047D01*
X145792857Y-126062380D02*
X145792857Y-125395714D01*
X145792857Y-125586190D02*
X145840476Y-125490952D01*
X145888095Y-125443333D01*
X145983333Y-125395714D01*
X146078571Y-125395714D01*
X146316666Y-125395714D02*
X146554761Y-126062380D01*
X146792857Y-125395714D01*
X147316666Y-126062380D02*
X147221428Y-126014761D01*
X147173809Y-125967142D01*
X147126190Y-125871904D01*
X147126190Y-125586190D01*
X147173809Y-125490952D01*
X147221428Y-125443333D01*
X147316666Y-125395714D01*
X147459523Y-125395714D01*
X147554761Y-125443333D01*
X147602380Y-125490952D01*
X147650000Y-125586190D01*
X147650000Y-125871904D01*
X147602380Y-125967142D01*
X147554761Y-126014761D01*
X147459523Y-126062380D01*
X147316666Y-126062380D01*
X148745238Y-125062380D02*
X149411904Y-126062380D01*
X149411904Y-125062380D02*
X148745238Y-126062380D01*
X119954761Y-123838571D02*
X120002380Y-123695714D01*
X120002380Y-123457619D01*
X119954761Y-123362380D01*
X119907142Y-123314761D01*
X119811904Y-123267142D01*
X119716666Y-123267142D01*
X119621428Y-123314761D01*
X119573809Y-123362380D01*
X119526190Y-123457619D01*
X119478571Y-123648095D01*
X119430952Y-123743333D01*
X119383333Y-123790952D01*
X119288095Y-123838571D01*
X119192857Y-123838571D01*
X119097619Y-123790952D01*
X119050000Y-123743333D01*
X119002380Y-123648095D01*
X119002380Y-123410000D01*
X119050000Y-123267142D01*
X119478571Y-122838571D02*
X119478571Y-122505238D01*
X120002380Y-122362380D02*
X120002380Y-122838571D01*
X119002380Y-122838571D01*
X119002380Y-122362380D01*
X120002380Y-121362380D02*
X119526190Y-121695714D01*
X120002380Y-121933809D02*
X119002380Y-121933809D01*
X119002380Y-121552857D01*
X119050000Y-121457619D01*
X119097619Y-121410000D01*
X119192857Y-121362380D01*
X119335714Y-121362380D01*
X119430952Y-121410000D01*
X119478571Y-121457619D01*
X119526190Y-121552857D01*
X119526190Y-121933809D01*
X119002380Y-121076666D02*
X120002380Y-120743333D01*
X119002380Y-120410000D01*
X119002380Y-119886190D02*
X119002380Y-119695714D01*
X119050000Y-119600476D01*
X119145238Y-119505238D01*
X119335714Y-119457619D01*
X119669047Y-119457619D01*
X119859523Y-119505238D01*
X119954761Y-119600476D01*
X120002380Y-119695714D01*
X120002380Y-119886190D01*
X119954761Y-119981428D01*
X119859523Y-120076666D01*
X119669047Y-120124285D01*
X119335714Y-120124285D01*
X119145238Y-120076666D01*
X119050000Y-119981428D01*
X119002380Y-119886190D01*
X119002380Y-117600476D02*
X119002380Y-116933809D01*
X120002380Y-117600476D01*
X120002380Y-116933809D01*
X149954761Y-105462380D02*
X150526190Y-105462380D01*
X150240476Y-106462380D02*
X150240476Y-105462380D01*
X151288095Y-105795714D02*
X151288095Y-106462380D01*
X150859523Y-105795714D02*
X150859523Y-106319523D01*
X150907142Y-106414761D01*
X151002380Y-106462380D01*
X151145238Y-106462380D01*
X151240476Y-106414761D01*
X151288095Y-106367142D01*
X151764285Y-106462380D02*
X151764285Y-105795714D01*
X151764285Y-105986190D02*
X151811904Y-105890952D01*
X151859523Y-105843333D01*
X151954761Y-105795714D01*
X152050000Y-105795714D01*
X152383333Y-106462380D02*
X152383333Y-105462380D01*
X152383333Y-105843333D02*
X152478571Y-105795714D01*
X152669047Y-105795714D01*
X152764285Y-105843333D01*
X152811904Y-105890952D01*
X152859523Y-105986190D01*
X152859523Y-106271904D01*
X152811904Y-106367142D01*
X152764285Y-106414761D01*
X152669047Y-106462380D01*
X152478571Y-106462380D01*
X152383333Y-106414761D01*
X153288095Y-106462380D02*
X153288095Y-105795714D01*
X153288095Y-105462380D02*
X153240476Y-105510000D01*
X153288095Y-105557619D01*
X153335714Y-105510000D01*
X153288095Y-105462380D01*
X153288095Y-105557619D01*
X154192857Y-106462380D02*
X154192857Y-105462380D01*
X154192857Y-106414761D02*
X154097619Y-106462380D01*
X153907142Y-106462380D01*
X153811904Y-106414761D01*
X153764285Y-106367142D01*
X153716666Y-106271904D01*
X153716666Y-105986190D01*
X153764285Y-105890952D01*
X153811904Y-105843333D01*
X153907142Y-105795714D01*
X154097619Y-105795714D01*
X154192857Y-105843333D01*
X154669047Y-106462380D02*
X154669047Y-105795714D01*
X154669047Y-105462380D02*
X154621428Y-105510000D01*
X154669047Y-105557619D01*
X154716666Y-105510000D01*
X154669047Y-105462380D01*
X154669047Y-105557619D01*
X155002380Y-105795714D02*
X155383333Y-105795714D01*
X155145238Y-105462380D02*
X155145238Y-106319523D01*
X155192857Y-106414761D01*
X155288095Y-106462380D01*
X155383333Y-106462380D01*
X155621428Y-105795714D02*
X155859523Y-106462380D01*
X156097619Y-105795714D02*
X155859523Y-106462380D01*
X155764285Y-106700476D01*
X155716666Y-106748095D01*
X155621428Y-106795714D01*
X142064285Y-112381428D02*
X142826190Y-112381428D01*
X142445238Y-112762380D02*
X142445238Y-112000476D01*
X143778571Y-111762380D02*
X143302380Y-111762380D01*
X143254761Y-112238571D01*
X143302380Y-112190952D01*
X143397619Y-112143333D01*
X143635714Y-112143333D01*
X143730952Y-112190952D01*
X143778571Y-112238571D01*
X143826190Y-112333809D01*
X143826190Y-112571904D01*
X143778571Y-112667142D01*
X143730952Y-112714761D01*
X143635714Y-112762380D01*
X143397619Y-112762380D01*
X143302380Y-112714761D01*
X143254761Y-112667142D01*
X144111904Y-111762380D02*
X144445238Y-112762380D01*
X144778571Y-111762380D01*
X139364285Y-148362380D02*
X139364285Y-147362380D01*
X139840476Y-147695714D02*
X139840476Y-148362380D01*
X139840476Y-147790952D02*
X139888095Y-147743333D01*
X139983333Y-147695714D01*
X140126190Y-147695714D01*
X140221428Y-147743333D01*
X140269047Y-147838571D01*
X140269047Y-148362380D01*
X141173809Y-148314761D02*
X141078571Y-148362380D01*
X140888095Y-148362380D01*
X140792857Y-148314761D01*
X140745238Y-148267142D01*
X140697619Y-148171904D01*
X140697619Y-147886190D01*
X140745238Y-147790952D01*
X140792857Y-147743333D01*
X140888095Y-147695714D01*
X141078571Y-147695714D01*
X141173809Y-147743333D01*
X142030952Y-147695714D02*
X142030952Y-148362380D01*
X141602380Y-147695714D02*
X141602380Y-148219523D01*
X141650000Y-148314761D01*
X141745238Y-148362380D01*
X141888095Y-148362380D01*
X141983333Y-148314761D01*
X142030952Y-148267142D01*
X142507142Y-148362380D02*
X142507142Y-147362380D01*
X142507142Y-147743333D02*
X142602380Y-147695714D01*
X142792857Y-147695714D01*
X142888095Y-147743333D01*
X142935714Y-147790952D01*
X142983333Y-147886190D01*
X142983333Y-148171904D01*
X142935714Y-148267142D01*
X142888095Y-148314761D01*
X142792857Y-148362380D01*
X142602380Y-148362380D01*
X142507142Y-148314761D01*
X143840476Y-148362380D02*
X143840476Y-147838571D01*
X143792857Y-147743333D01*
X143697619Y-147695714D01*
X143507142Y-147695714D01*
X143411904Y-147743333D01*
X143840476Y-148314761D02*
X143745238Y-148362380D01*
X143507142Y-148362380D01*
X143411904Y-148314761D01*
X143364285Y-148219523D01*
X143364285Y-148124285D01*
X143411904Y-148029047D01*
X143507142Y-147981428D01*
X143745238Y-147981428D01*
X143840476Y-147933809D01*
X144173809Y-147695714D02*
X144554761Y-147695714D01*
X144316666Y-147362380D02*
X144316666Y-148219523D01*
X144364285Y-148314761D01*
X144459523Y-148362380D01*
X144554761Y-148362380D01*
X145030952Y-148362380D02*
X144935714Y-148314761D01*
X144888095Y-148267142D01*
X144840476Y-148171904D01*
X144840476Y-147886190D01*
X144888095Y-147790952D01*
X144935714Y-147743333D01*
X145030952Y-147695714D01*
X145173809Y-147695714D01*
X145269047Y-147743333D01*
X145316666Y-147790952D01*
X145364285Y-147886190D01*
X145364285Y-148171904D01*
X145316666Y-148267142D01*
X145269047Y-148314761D01*
X145173809Y-148362380D01*
X145030952Y-148362380D01*
X145792857Y-148362380D02*
X145792857Y-147695714D01*
X145792857Y-147886190D02*
X145840476Y-147790952D01*
X145888095Y-147743333D01*
X145983333Y-147695714D01*
X146078571Y-147695714D01*
X158950000Y-118724285D02*
X158902380Y-118819523D01*
X158902380Y-118962380D01*
X158950000Y-119105238D01*
X159045238Y-119200476D01*
X159140476Y-119248095D01*
X159330952Y-119295714D01*
X159473809Y-119295714D01*
X159664285Y-119248095D01*
X159759523Y-119200476D01*
X159854761Y-119105238D01*
X159902380Y-118962380D01*
X159902380Y-118867142D01*
X159854761Y-118724285D01*
X159807142Y-118676666D01*
X159473809Y-118676666D01*
X159473809Y-118867142D01*
X159902380Y-118248095D02*
X158902380Y-118248095D01*
X158902380Y-117867142D01*
X158950000Y-117771904D01*
X158997619Y-117724285D01*
X159092857Y-117676666D01*
X159235714Y-117676666D01*
X159330952Y-117724285D01*
X159378571Y-117771904D01*
X159426190Y-117867142D01*
X159426190Y-118248095D01*
X159854761Y-117295714D02*
X159902380Y-117152857D01*
X159902380Y-116914761D01*
X159854761Y-116819523D01*
X159807142Y-116771904D01*
X159711904Y-116724285D01*
X159616666Y-116724285D01*
X159521428Y-116771904D01*
X159473809Y-116819523D01*
X159426190Y-116914761D01*
X159378571Y-117105238D01*
X159330952Y-117200476D01*
X159283333Y-117248095D01*
X159188095Y-117295714D01*
X159092857Y-117295714D01*
X158997619Y-117248095D01*
X158950000Y-117200476D01*
X158902380Y-117105238D01*
X158902380Y-116867142D01*
X158950000Y-116724285D01*
X116302380Y-112957619D02*
X115302380Y-112957619D01*
X115302380Y-112719523D01*
X115350000Y-112576666D01*
X115445238Y-112481428D01*
X115540476Y-112433809D01*
X115730952Y-112386190D01*
X115873809Y-112386190D01*
X116064285Y-112433809D01*
X116159523Y-112481428D01*
X116254761Y-112576666D01*
X116302380Y-112719523D01*
X116302380Y-112957619D01*
X116254761Y-111576666D02*
X116302380Y-111671904D01*
X116302380Y-111862380D01*
X116254761Y-111957619D01*
X116159523Y-112005238D01*
X115778571Y-112005238D01*
X115683333Y-111957619D01*
X115635714Y-111862380D01*
X115635714Y-111671904D01*
X115683333Y-111576666D01*
X115778571Y-111529047D01*
X115873809Y-111529047D01*
X115969047Y-112005238D01*
X116254761Y-111148095D02*
X116302380Y-111052857D01*
X116302380Y-110862380D01*
X116254761Y-110767142D01*
X116159523Y-110719523D01*
X116111904Y-110719523D01*
X116016666Y-110767142D01*
X115969047Y-110862380D01*
X115969047Y-111005238D01*
X115921428Y-111100476D01*
X115826190Y-111148095D01*
X115778571Y-111148095D01*
X115683333Y-111100476D01*
X115635714Y-111005238D01*
X115635714Y-110862380D01*
X115683333Y-110767142D01*
X116302380Y-110290952D02*
X115635714Y-110290952D01*
X115302380Y-110290952D02*
X115350000Y-110338571D01*
X115397619Y-110290952D01*
X115350000Y-110243333D01*
X115302380Y-110290952D01*
X115397619Y-110290952D01*
X115635714Y-109386190D02*
X116445238Y-109386190D01*
X116540476Y-109433809D01*
X116588095Y-109481428D01*
X116635714Y-109576666D01*
X116635714Y-109719523D01*
X116588095Y-109814761D01*
X116254761Y-109386190D02*
X116302380Y-109481428D01*
X116302380Y-109671904D01*
X116254761Y-109767142D01*
X116207142Y-109814761D01*
X116111904Y-109862380D01*
X115826190Y-109862380D01*
X115730952Y-109814761D01*
X115683333Y-109767142D01*
X115635714Y-109671904D01*
X115635714Y-109481428D01*
X115683333Y-109386190D01*
X115635714Y-108910000D02*
X116302380Y-108910000D01*
X115730952Y-108910000D02*
X115683333Y-108862380D01*
X115635714Y-108767142D01*
X115635714Y-108624285D01*
X115683333Y-108529047D01*
X115778571Y-108481428D01*
X116302380Y-108481428D01*
X116254761Y-107624285D02*
X116302380Y-107719523D01*
X116302380Y-107910000D01*
X116254761Y-108005238D01*
X116159523Y-108052857D01*
X115778571Y-108052857D01*
X115683333Y-108005238D01*
X115635714Y-107910000D01*
X115635714Y-107719523D01*
X115683333Y-107624285D01*
X115778571Y-107576666D01*
X115873809Y-107576666D01*
X115969047Y-108052857D01*
X116302380Y-106719523D02*
X115302380Y-106719523D01*
X116254761Y-106719523D02*
X116302380Y-106814761D01*
X116302380Y-107005238D01*
X116254761Y-107100476D01*
X116207142Y-107148095D01*
X116111904Y-107195714D01*
X115826190Y-107195714D01*
X115730952Y-107148095D01*
X115683333Y-107100476D01*
X115635714Y-107005238D01*
X115635714Y-106814761D01*
X115683333Y-106719523D01*
X116302380Y-105481428D02*
X115302380Y-105481428D01*
X115683333Y-105481428D02*
X115635714Y-105386190D01*
X115635714Y-105195714D01*
X115683333Y-105100476D01*
X115730952Y-105052857D01*
X115826190Y-105005238D01*
X116111904Y-105005238D01*
X116207142Y-105052857D01*
X116254761Y-105100476D01*
X116302380Y-105195714D01*
X116302380Y-105386190D01*
X116254761Y-105481428D01*
X115635714Y-104671904D02*
X116302380Y-104433809D01*
X115635714Y-104195714D02*
X116302380Y-104433809D01*
X116540476Y-104529047D01*
X116588095Y-104576666D01*
X116635714Y-104671904D01*
X116254761Y-103100476D02*
X116302380Y-102957619D01*
X116302380Y-102719523D01*
X116254761Y-102624285D01*
X116207142Y-102576666D01*
X116111904Y-102529047D01*
X116016666Y-102529047D01*
X115921428Y-102576666D01*
X115873809Y-102624285D01*
X115826190Y-102719523D01*
X115778571Y-102910000D01*
X115730952Y-103005238D01*
X115683333Y-103052857D01*
X115588095Y-103100476D01*
X115492857Y-103100476D01*
X115397619Y-103052857D01*
X115350000Y-103005238D01*
X115302380Y-102910000D01*
X115302380Y-102671904D01*
X115350000Y-102529047D01*
X116302380Y-101671904D02*
X115778571Y-101671904D01*
X115683333Y-101719523D01*
X115635714Y-101814761D01*
X115635714Y-102005238D01*
X115683333Y-102100476D01*
X116254761Y-101671904D02*
X116302380Y-101767142D01*
X116302380Y-102005238D01*
X116254761Y-102100476D01*
X116159523Y-102148095D01*
X116064285Y-102148095D01*
X115969047Y-102100476D01*
X115921428Y-102005238D01*
X115921428Y-101767142D01*
X115873809Y-101671904D01*
X116302380Y-101195714D02*
X115635714Y-101195714D01*
X115730952Y-101195714D02*
X115683333Y-101148095D01*
X115635714Y-101052857D01*
X115635714Y-100910000D01*
X115683333Y-100814761D01*
X115778571Y-100767142D01*
X116302380Y-100767142D01*
X115778571Y-100767142D02*
X115683333Y-100719523D01*
X115635714Y-100624285D01*
X115635714Y-100481428D01*
X115683333Y-100386190D01*
X115778571Y-100338571D01*
X116302380Y-100338571D01*
X116302380Y-99862380D02*
X115635714Y-99862380D01*
X115730952Y-99862380D02*
X115683333Y-99814761D01*
X115635714Y-99719523D01*
X115635714Y-99576666D01*
X115683333Y-99481428D01*
X115778571Y-99433809D01*
X116302380Y-99433809D01*
X115778571Y-99433809D02*
X115683333Y-99386190D01*
X115635714Y-99290952D01*
X115635714Y-99148095D01*
X115683333Y-99052857D01*
X115778571Y-99005238D01*
X116302380Y-99005238D01*
X115635714Y-98624285D02*
X116302380Y-98386190D01*
X115635714Y-98148095D02*
X116302380Y-98386190D01*
X116540476Y-98481428D01*
X116588095Y-98529047D01*
X116635714Y-98624285D01*
X116302380Y-97005238D02*
X115302380Y-97005238D01*
X116016666Y-96671904D01*
X115302380Y-96338571D01*
X116302380Y-96338571D01*
X116207142Y-95862380D02*
X116254761Y-95814761D01*
X116302380Y-95862380D01*
X116254761Y-95910000D01*
X116207142Y-95862380D01*
X116302380Y-95862380D01*
X115054761Y-110410000D02*
X115102380Y-110314761D01*
X115102380Y-110124285D01*
X115054761Y-110029047D01*
X114959523Y-109981428D01*
X114911904Y-109981428D01*
X114816666Y-110029047D01*
X114769047Y-110124285D01*
X114769047Y-110267142D01*
X114721428Y-110362380D01*
X114626190Y-110410000D01*
X114578571Y-110410000D01*
X114483333Y-110362380D01*
X114435714Y-110267142D01*
X114435714Y-110124285D01*
X114483333Y-110029047D01*
X114435714Y-109124285D02*
X115102380Y-109124285D01*
X114435714Y-109552857D02*
X114959523Y-109552857D01*
X115054761Y-109505238D01*
X115102380Y-109410000D01*
X115102380Y-109267142D01*
X115054761Y-109171904D01*
X115007142Y-109124285D01*
X115102380Y-108648095D02*
X114435714Y-108648095D01*
X114626190Y-108648095D02*
X114530952Y-108600476D01*
X114483333Y-108552857D01*
X114435714Y-108457619D01*
X114435714Y-108362380D01*
X114435714Y-108171904D02*
X114435714Y-107790952D01*
X115102380Y-108029047D02*
X114245238Y-108029047D01*
X114150000Y-107981428D01*
X114102380Y-107886190D01*
X114102380Y-107790952D01*
X115102380Y-107029047D02*
X114578571Y-107029047D01*
X114483333Y-107076666D01*
X114435714Y-107171904D01*
X114435714Y-107362380D01*
X114483333Y-107457619D01*
X115054761Y-107029047D02*
X115102380Y-107124285D01*
X115102380Y-107362380D01*
X115054761Y-107457619D01*
X114959523Y-107505238D01*
X114864285Y-107505238D01*
X114769047Y-107457619D01*
X114721428Y-107362380D01*
X114721428Y-107124285D01*
X114673809Y-107029047D01*
X115054761Y-106124285D02*
X115102380Y-106219523D01*
X115102380Y-106410000D01*
X115054761Y-106505238D01*
X115007142Y-106552857D01*
X114911904Y-106600476D01*
X114626190Y-106600476D01*
X114530952Y-106552857D01*
X114483333Y-106505238D01*
X114435714Y-106410000D01*
X114435714Y-106219523D01*
X114483333Y-106124285D01*
X115054761Y-105314761D02*
X115102380Y-105410000D01*
X115102380Y-105600476D01*
X115054761Y-105695714D01*
X114959523Y-105743333D01*
X114578571Y-105743333D01*
X114483333Y-105695714D01*
X114435714Y-105600476D01*
X114435714Y-105410000D01*
X114483333Y-105314761D01*
X114578571Y-105267142D01*
X114673809Y-105267142D01*
X114769047Y-105743333D01*
X115102380Y-104076666D02*
X114435714Y-104076666D01*
X114530952Y-104076666D02*
X114483333Y-104029047D01*
X114435714Y-103933809D01*
X114435714Y-103790952D01*
X114483333Y-103695714D01*
X114578571Y-103648095D01*
X115102380Y-103648095D01*
X114578571Y-103648095D02*
X114483333Y-103600476D01*
X114435714Y-103505238D01*
X114435714Y-103362380D01*
X114483333Y-103267142D01*
X114578571Y-103219523D01*
X115102380Y-103219523D01*
X115102380Y-102600476D02*
X115054761Y-102695714D01*
X115007142Y-102743333D01*
X114911904Y-102790952D01*
X114626190Y-102790952D01*
X114530952Y-102743333D01*
X114483333Y-102695714D01*
X114435714Y-102600476D01*
X114435714Y-102457619D01*
X114483333Y-102362380D01*
X114530952Y-102314761D01*
X114626190Y-102267142D01*
X114911904Y-102267142D01*
X115007142Y-102314761D01*
X115054761Y-102362380D01*
X115102380Y-102457619D01*
X115102380Y-102600476D01*
X114435714Y-101410000D02*
X115102380Y-101410000D01*
X114435714Y-101838571D02*
X114959523Y-101838571D01*
X115054761Y-101790952D01*
X115102380Y-101695714D01*
X115102380Y-101552857D01*
X115054761Y-101457619D01*
X115007142Y-101410000D01*
X114435714Y-100933809D02*
X115102380Y-100933809D01*
X114530952Y-100933809D02*
X114483333Y-100886190D01*
X114435714Y-100790952D01*
X114435714Y-100648095D01*
X114483333Y-100552857D01*
X114578571Y-100505238D01*
X115102380Y-100505238D01*
X114435714Y-100171904D02*
X114435714Y-99790952D01*
X114102380Y-100029047D02*
X114959523Y-100029047D01*
X115054761Y-99981428D01*
X115102380Y-99886190D01*
X115102380Y-99790952D01*
X114435714Y-98790952D02*
X115102380Y-98552857D01*
X114435714Y-98314761D01*
X114435714Y-97505238D02*
X115102380Y-97505238D01*
X114054761Y-97743333D02*
X114769047Y-97981428D01*
X114769047Y-97362380D01*
X112802380Y-110214761D02*
X113802380Y-109976666D01*
X113088095Y-109786190D01*
X113802380Y-109595714D01*
X112802380Y-109357619D01*
X113802380Y-108548095D02*
X113278571Y-108548095D01*
X113183333Y-108595714D01*
X113135714Y-108690952D01*
X113135714Y-108881428D01*
X113183333Y-108976666D01*
X113754761Y-108548095D02*
X113802380Y-108643333D01*
X113802380Y-108881428D01*
X113754761Y-108976666D01*
X113659523Y-109024285D01*
X113564285Y-109024285D01*
X113469047Y-108976666D01*
X113421428Y-108881428D01*
X113421428Y-108643333D01*
X113373809Y-108548095D01*
X113135714Y-108214761D02*
X113135714Y-107833809D01*
X112802380Y-108071904D02*
X113659523Y-108071904D01*
X113754761Y-108024285D01*
X113802380Y-107929047D01*
X113802380Y-107833809D01*
X113754761Y-107119523D02*
X113802380Y-107214761D01*
X113802380Y-107405238D01*
X113754761Y-107500476D01*
X113659523Y-107548095D01*
X113278571Y-107548095D01*
X113183333Y-107500476D01*
X113135714Y-107405238D01*
X113135714Y-107214761D01*
X113183333Y-107119523D01*
X113278571Y-107071904D01*
X113373809Y-107071904D01*
X113469047Y-107548095D01*
X113802380Y-106643333D02*
X113135714Y-106643333D01*
X113326190Y-106643333D02*
X113230952Y-106595714D01*
X113183333Y-106548095D01*
X113135714Y-106452857D01*
X113135714Y-106357619D01*
X113754761Y-106071904D02*
X113802380Y-105929047D01*
X113802380Y-105690952D01*
X113754761Y-105595714D01*
X113707142Y-105548095D01*
X113611904Y-105500476D01*
X113516666Y-105500476D01*
X113421428Y-105548095D01*
X113373809Y-105595714D01*
X113326190Y-105690952D01*
X113278571Y-105881428D01*
X113230952Y-105976666D01*
X113183333Y-106024285D01*
X113088095Y-106071904D01*
X112992857Y-106071904D01*
X112897619Y-106024285D01*
X112850000Y-105976666D01*
X112802380Y-105881428D01*
X112802380Y-105643333D01*
X112850000Y-105500476D01*
X113754761Y-104643333D02*
X113802380Y-104738571D01*
X113802380Y-104929047D01*
X113754761Y-105024285D01*
X113707142Y-105071904D01*
X113611904Y-105119523D01*
X113326190Y-105119523D01*
X113230952Y-105071904D01*
X113183333Y-105024285D01*
X113135714Y-104929047D01*
X113135714Y-104738571D01*
X113183333Y-104643333D01*
X113802380Y-104071904D02*
X113754761Y-104167142D01*
X113707142Y-104214761D01*
X113611904Y-104262380D01*
X113326190Y-104262380D01*
X113230952Y-104214761D01*
X113183333Y-104167142D01*
X113135714Y-104071904D01*
X113135714Y-103929047D01*
X113183333Y-103833809D01*
X113230952Y-103786190D01*
X113326190Y-103738571D01*
X113611904Y-103738571D01*
X113707142Y-103786190D01*
X113754761Y-103833809D01*
X113802380Y-103929047D01*
X113802380Y-104071904D01*
X113135714Y-103310000D02*
X114135714Y-103310000D01*
X113183333Y-103310000D02*
X113135714Y-103214761D01*
X113135714Y-103024285D01*
X113183333Y-102929047D01*
X113230952Y-102881428D01*
X113326190Y-102833809D01*
X113611904Y-102833809D01*
X113707142Y-102881428D01*
X113754761Y-102929047D01*
X113802380Y-103024285D01*
X113802380Y-103214761D01*
X113754761Y-103310000D01*
X113754761Y-102024285D02*
X113802380Y-102119523D01*
X113802380Y-102310000D01*
X113754761Y-102405238D01*
X113659523Y-102452857D01*
X113278571Y-102452857D01*
X113183333Y-102405238D01*
X113135714Y-102310000D01*
X113135714Y-102119523D01*
X113183333Y-102024285D01*
X113278571Y-101976666D01*
X113373809Y-101976666D01*
X113469047Y-102452857D01*
X113802380Y-100786190D02*
X112802380Y-100786190D01*
X112802380Y-100405238D01*
X112850000Y-100310000D01*
X112897619Y-100262380D01*
X112992857Y-100214761D01*
X113135714Y-100214761D01*
X113230952Y-100262380D01*
X113278571Y-100310000D01*
X113326190Y-100405238D01*
X113326190Y-100786190D01*
X113707142Y-99214761D02*
X113754761Y-99262380D01*
X113802380Y-99405238D01*
X113802380Y-99500476D01*
X113754761Y-99643333D01*
X113659523Y-99738571D01*
X113564285Y-99786190D01*
X113373809Y-99833809D01*
X113230952Y-99833809D01*
X113040476Y-99786190D01*
X112945238Y-99738571D01*
X112850000Y-99643333D01*
X112802380Y-99500476D01*
X112802380Y-99405238D01*
X112850000Y-99262380D01*
X112897619Y-99214761D01*
X113278571Y-98452857D02*
X113326190Y-98310000D01*
X113373809Y-98262380D01*
X113469047Y-98214761D01*
X113611904Y-98214761D01*
X113707142Y-98262380D01*
X113754761Y-98310000D01*
X113802380Y-98405238D01*
X113802380Y-98786190D01*
X112802380Y-98786190D01*
X112802380Y-98452857D01*
X112850000Y-98357619D01*
X112897619Y-98310000D01*
X112992857Y-98262380D01*
X113088095Y-98262380D01*
X113183333Y-98310000D01*
X113230952Y-98357619D01*
X113278571Y-98452857D01*
X113278571Y-98786190D01*
X120154761Y-136424285D02*
X120202380Y-136281428D01*
X120202380Y-136043333D01*
X120154761Y-135948095D01*
X120107142Y-135900476D01*
X120011904Y-135852857D01*
X119916666Y-135852857D01*
X119821428Y-135900476D01*
X119773809Y-135948095D01*
X119726190Y-136043333D01*
X119678571Y-136233809D01*
X119630952Y-136329047D01*
X119583333Y-136376666D01*
X119488095Y-136424285D01*
X119392857Y-136424285D01*
X119297619Y-136376666D01*
X119250000Y-136329047D01*
X119202380Y-136233809D01*
X119202380Y-135995714D01*
X119250000Y-135852857D01*
X120107142Y-134852857D02*
X120154761Y-134900476D01*
X120202380Y-135043333D01*
X120202380Y-135138571D01*
X120154761Y-135281428D01*
X120059523Y-135376666D01*
X119964285Y-135424285D01*
X119773809Y-135471904D01*
X119630952Y-135471904D01*
X119440476Y-135424285D01*
X119345238Y-135376666D01*
X119250000Y-135281428D01*
X119202380Y-135138571D01*
X119202380Y-135043333D01*
X119250000Y-134900476D01*
X119297619Y-134852857D01*
X120202380Y-133852857D02*
X119726190Y-134186190D01*
X120202380Y-134424285D02*
X119202380Y-134424285D01*
X119202380Y-134043333D01*
X119250000Y-133948095D01*
X119297619Y-133900476D01*
X119392857Y-133852857D01*
X119535714Y-133852857D01*
X119630952Y-133900476D01*
X119678571Y-133948095D01*
X119726190Y-134043333D01*
X119726190Y-134424285D01*
X119678571Y-133424285D02*
X119678571Y-133090952D01*
X120202380Y-132948095D02*
X120202380Y-133424285D01*
X119202380Y-133424285D01*
X119202380Y-132948095D01*
X119678571Y-132519523D02*
X119678571Y-132186190D01*
X120202380Y-132043333D02*
X120202380Y-132519523D01*
X119202380Y-132519523D01*
X119202380Y-132043333D01*
X120202380Y-131614761D02*
X119202380Y-131614761D01*
X120202380Y-131043333D01*
X119202380Y-131043333D01*
X127711904Y-107138571D02*
X127854761Y-107186190D01*
X127902380Y-107233809D01*
X127950000Y-107329047D01*
X127950000Y-107471904D01*
X127902380Y-107567142D01*
X127854761Y-107614761D01*
X127759523Y-107662380D01*
X127378571Y-107662380D01*
X127378571Y-106662380D01*
X127711904Y-106662380D01*
X127807142Y-106710000D01*
X127854761Y-106757619D01*
X127902380Y-106852857D01*
X127902380Y-106948095D01*
X127854761Y-107043333D01*
X127807142Y-107090952D01*
X127711904Y-107138571D01*
X127378571Y-107138571D01*
X128378571Y-106662380D02*
X128378571Y-107471904D01*
X128426190Y-107567142D01*
X128473809Y-107614761D01*
X128569047Y-107662380D01*
X128759523Y-107662380D01*
X128854761Y-107614761D01*
X128902380Y-107567142D01*
X128950000Y-107471904D01*
X128950000Y-106662380D01*
X129283333Y-106662380D02*
X129854761Y-106662380D01*
X129569047Y-107662380D02*
X129569047Y-106662380D01*
X130045238Y-106662380D02*
X130616666Y-106662380D01*
X130330952Y-107662380D02*
X130330952Y-106662380D01*
X131140476Y-106662380D02*
X131330952Y-106662380D01*
X131426190Y-106710000D01*
X131521428Y-106805238D01*
X131569047Y-106995714D01*
X131569047Y-107329047D01*
X131521428Y-107519523D01*
X131426190Y-107614761D01*
X131330952Y-107662380D01*
X131140476Y-107662380D01*
X131045238Y-107614761D01*
X130950000Y-107519523D01*
X130902380Y-107329047D01*
X130902380Y-106995714D01*
X130950000Y-106805238D01*
X131045238Y-106710000D01*
X131140476Y-106662380D01*
X131997619Y-107662380D02*
X131997619Y-106662380D01*
X132569047Y-107662380D01*
X132569047Y-106662380D01*
X132997619Y-107614761D02*
X133140476Y-107662380D01*
X133378571Y-107662380D01*
X133473809Y-107614761D01*
X133521428Y-107567142D01*
X133569047Y-107471904D01*
X133569047Y-107376666D01*
X133521428Y-107281428D01*
X133473809Y-107233809D01*
X133378571Y-107186190D01*
X133188095Y-107138571D01*
X133092857Y-107090952D01*
X133045238Y-107043333D01*
X132997619Y-106948095D01*
X132997619Y-106852857D01*
X133045238Y-106757619D01*
X133092857Y-106710000D01*
X133188095Y-106662380D01*
X133426190Y-106662380D01*
X133569047Y-106710000D01*
D14*
X167452380Y-149919523D02*
X166452380Y-149919523D01*
X166452380Y-149538571D01*
X166500000Y-149443333D01*
X166547619Y-149395714D01*
X166642857Y-149348095D01*
X166785714Y-149348095D01*
X166880952Y-149395714D01*
X166928571Y-149443333D01*
X166976190Y-149538571D01*
X166976190Y-149919523D01*
X166452380Y-148729047D02*
X166452380Y-148538571D01*
X166500000Y-148443333D01*
X166595238Y-148348095D01*
X166785714Y-148300476D01*
X167119047Y-148300476D01*
X167309523Y-148348095D01*
X167404761Y-148443333D01*
X167452380Y-148538571D01*
X167452380Y-148729047D01*
X167404761Y-148824285D01*
X167309523Y-148919523D01*
X167119047Y-148967142D01*
X166785714Y-148967142D01*
X166595238Y-148919523D01*
X166500000Y-148824285D01*
X166452380Y-148729047D01*
X166452380Y-147967142D02*
X167452380Y-147729047D01*
X166738095Y-147538571D01*
X167452380Y-147348095D01*
X166452380Y-147110000D01*
X166928571Y-146729047D02*
X166928571Y-146395714D01*
X167452380Y-146252857D02*
X167452380Y-146729047D01*
X166452380Y-146729047D01*
X166452380Y-146252857D01*
X167452380Y-145252857D02*
X166976190Y-145586190D01*
X167452380Y-145824285D02*
X166452380Y-145824285D01*
X166452380Y-145443333D01*
X166500000Y-145348095D01*
X166547619Y-145300476D01*
X166642857Y-145252857D01*
X166785714Y-145252857D01*
X166880952Y-145300476D01*
X166928571Y-145348095D01*
X166976190Y-145443333D01*
X166976190Y-145824285D01*
D15*
X157802380Y-138529047D02*
X156802380Y-138529047D01*
X156802380Y-138290952D01*
X156850000Y-138148095D01*
X156945238Y-138052857D01*
X157040476Y-138005238D01*
X157230952Y-137957619D01*
X157373809Y-137957619D01*
X157564285Y-138005238D01*
X157659523Y-138052857D01*
X157754761Y-138148095D01*
X157802380Y-138290952D01*
X157802380Y-138529047D01*
X157278571Y-137529047D02*
X157278571Y-137195714D01*
X157802380Y-137052857D02*
X157802380Y-137529047D01*
X156802380Y-137529047D01*
X156802380Y-137052857D01*
X157278571Y-136290952D02*
X157278571Y-136624285D01*
X157802380Y-136624285D02*
X156802380Y-136624285D01*
X156802380Y-136148095D01*
X156802380Y-135576666D02*
X156802380Y-135386190D01*
X156850000Y-135290952D01*
X156945238Y-135195714D01*
X157135714Y-135148095D01*
X157469047Y-135148095D01*
X157659523Y-135195714D01*
X157754761Y-135290952D01*
X157802380Y-135386190D01*
X157802380Y-135576666D01*
X157754761Y-135671904D01*
X157659523Y-135767142D01*
X157469047Y-135814761D01*
X157135714Y-135814761D01*
X156945238Y-135767142D01*
X156850000Y-135671904D01*
X156802380Y-135576666D01*
X156850000Y-134195714D02*
X156802380Y-134290952D01*
X156802380Y-134433809D01*
X156850000Y-134576666D01*
X156945238Y-134671904D01*
X157040476Y-134719523D01*
X157230952Y-134767142D01*
X157373809Y-134767142D01*
X157564285Y-134719523D01*
X157659523Y-134671904D01*
X157754761Y-134576666D01*
X157802380Y-134433809D01*
X157802380Y-134338571D01*
X157754761Y-134195714D01*
X157707142Y-134148095D01*
X157373809Y-134148095D01*
X157373809Y-134338571D01*
X156850000Y-133195714D02*
X156802380Y-133290952D01*
X156802380Y-133433809D01*
X156850000Y-133576666D01*
X156945238Y-133671904D01*
X157040476Y-133719523D01*
X157230952Y-133767142D01*
X157373809Y-133767142D01*
X157564285Y-133719523D01*
X157659523Y-133671904D01*
X157754761Y-133576666D01*
X157802380Y-133433809D01*
X157802380Y-133338571D01*
X157754761Y-133195714D01*
X157707142Y-133148095D01*
X157373809Y-133148095D01*
X157373809Y-133338571D01*
X157278571Y-132719523D02*
X157278571Y-132386190D01*
X157802380Y-132243333D02*
X157802380Y-132719523D01*
X156802380Y-132719523D01*
X156802380Y-132243333D01*
X157802380Y-131243333D02*
X157326190Y-131576666D01*
X157802380Y-131814761D02*
X156802380Y-131814761D01*
X156802380Y-131433809D01*
X156850000Y-131338571D01*
X156897619Y-131290952D01*
X156992857Y-131243333D01*
X157135714Y-131243333D01*
X157230952Y-131290952D01*
X157278571Y-131338571D01*
X157326190Y-131433809D01*
X157326190Y-131814761D01*
D10*
X134050000Y-139610000D02*
G75*
G02*
X134250000Y-139610000I100000J0D01*
G01*
X134250000Y-139610000D02*
G75*
G02*
X134050000Y-139610000I-100000J0D01*
G01*
X134050000Y-139610000D02*
X134050000Y-139610000D01*
X134250000Y-139610000D02*
X134250000Y-139610000D01*
X117400000Y-156235000D02*
X117400000Y-155785000D01*
X117400000Y-155785000D02*
X120300000Y-155785000D01*
X120300000Y-155785000D02*
X120300000Y-156235000D01*
X120300000Y-156235000D02*
X117400000Y-156235000D01*
X117350000Y-157635000D02*
X117350000Y-156585000D01*
X140850000Y-142560000D02*
X144050000Y-142560000D01*
X144050000Y-142560000D02*
X144050000Y-147460000D01*
X144050000Y-147460000D02*
X140850000Y-147460000D01*
X140850000Y-147460000D02*
X140850000Y-142560000D01*
X138975000Y-142405000D02*
X140500000Y-142405000D01*
X148350000Y-136750000D02*
X151550000Y-136750000D01*
X151550000Y-136750000D02*
X151550000Y-141650000D01*
X151550000Y-141650000D02*
X148350000Y-141650000D01*
X148350000Y-141650000D02*
X148350000Y-136750000D01*
X146475000Y-136595000D02*
X148000000Y-136595000D01*
D12*
X147410000Y-116670000D02*
X147410000Y-110700000D01*
X147410000Y-110700000D02*
X139790000Y-110700000D01*
X139790000Y-110700000D02*
X139790000Y-116670000D01*
X139790000Y-116670000D02*
X147410000Y-116670000D01*
X144100000Y-116660000D02*
X144100000Y-115910000D01*
X144100000Y-115910000D02*
X143100000Y-115910000D01*
X143100000Y-115910000D02*
X143100000Y-116660000D01*
X143100000Y-116660000D02*
X144100000Y-116660000D01*
X147400000Y-116660000D02*
X147400000Y-115910000D01*
X147400000Y-115910000D02*
X145600000Y-115910000D01*
X145600000Y-115910000D02*
X145600000Y-116660000D01*
X145600000Y-116660000D02*
X147400000Y-116660000D01*
X141600000Y-116660000D02*
X141600000Y-115910000D01*
X141600000Y-115910000D02*
X139800000Y-115910000D01*
X139800000Y-115910000D02*
X139800000Y-116660000D01*
X139800000Y-116660000D02*
X141600000Y-116660000D01*
X147400000Y-114410000D02*
X146650000Y-114410000D01*
X146650000Y-114410000D02*
X146650000Y-111460000D01*
X146650000Y-111460000D02*
X143600000Y-111460000D01*
X139800000Y-114410000D02*
X140550000Y-114410000D01*
X140550000Y-114410000D02*
X140550000Y-111460000D01*
X140550000Y-111460000D02*
X143600000Y-111460000D01*
X146450000Y-116960000D02*
X147700000Y-116960000D01*
X147700000Y-116960000D02*
X147700000Y-115710000D01*
X137112779Y-112620000D02*
X136787221Y-112620000D01*
X137112779Y-111600000D02*
X136787221Y-111600000D01*
X152760000Y-122447221D02*
X152760000Y-122772779D01*
X151740000Y-122447221D02*
X151740000Y-122772779D01*
X127140000Y-135472779D02*
X127140000Y-135147221D01*
X128160000Y-135472779D02*
X128160000Y-135147221D01*
X137487221Y-123700000D02*
X137812779Y-123700000D01*
X137487221Y-124720000D02*
X137812779Y-124720000D01*
X154540000Y-133972779D02*
X154540000Y-133647221D01*
X155560000Y-133972779D02*
X155560000Y-133647221D01*
X137487221Y-122000000D02*
X137812779Y-122000000D01*
X137487221Y-123020000D02*
X137812779Y-123020000D01*
X123240000Y-145962779D02*
X123240000Y-145637221D01*
X124260000Y-145962779D02*
X124260000Y-145637221D01*
X126460000Y-145647221D02*
X126460000Y-145972779D01*
X125440000Y-145647221D02*
X125440000Y-145972779D01*
X134254439Y-124520000D02*
X133928881Y-124520000D01*
X134254439Y-123500000D02*
X133928881Y-123500000D01*
X123011252Y-157620000D02*
X122488748Y-157620000D01*
X123011252Y-156200000D02*
X122488748Y-156200000D01*
D16*
X127675000Y-108110000D02*
X127675000Y-119160000D01*
X127675000Y-119160000D02*
X122875000Y-119160000D01*
X122875000Y-119160000D02*
X122875000Y-108110000D01*
X122875000Y-108110000D02*
X127675000Y-108110000D01*
D10*
X122350000Y-110460000D02*
X122350000Y-110460000D01*
X122350000Y-110660000D02*
X122350000Y-110660000D01*
X122350000Y-110460000D02*
G75*
G02*
X122350000Y-110660000I0J-100000D01*
G01*
X122350000Y-110660000D02*
G75*
G02*
X122350000Y-110460000I0J100000D01*
G01*
D12*
X149710000Y-135870000D02*
X149710000Y-129900000D01*
X149710000Y-129900000D02*
X142090000Y-129900000D01*
X142090000Y-129900000D02*
X142090000Y-135870000D01*
X142090000Y-135870000D02*
X149710000Y-135870000D01*
X146400000Y-135860000D02*
X146400000Y-135110000D01*
X146400000Y-135110000D02*
X145400000Y-135110000D01*
X145400000Y-135110000D02*
X145400000Y-135860000D01*
X145400000Y-135860000D02*
X146400000Y-135860000D01*
X149700000Y-135860000D02*
X149700000Y-135110000D01*
X149700000Y-135110000D02*
X147900000Y-135110000D01*
X147900000Y-135110000D02*
X147900000Y-135860000D01*
X147900000Y-135860000D02*
X149700000Y-135860000D01*
X143900000Y-135860000D02*
X143900000Y-135110000D01*
X143900000Y-135110000D02*
X142100000Y-135110000D01*
X142100000Y-135110000D02*
X142100000Y-135860000D01*
X142100000Y-135860000D02*
X143900000Y-135860000D01*
X149700000Y-133610000D02*
X148950000Y-133610000D01*
X148950000Y-133610000D02*
X148950000Y-130660000D01*
X148950000Y-130660000D02*
X145900000Y-130660000D01*
X142100000Y-133610000D02*
X142850000Y-133610000D01*
X142850000Y-133610000D02*
X142850000Y-130660000D01*
X142850000Y-130660000D02*
X145900000Y-130660000D01*
X148750000Y-136160000D02*
X150000000Y-136160000D01*
X150000000Y-136160000D02*
X150000000Y-134910000D01*
X158135000Y-100800000D02*
X158135000Y-99950000D01*
X158135000Y-99950000D02*
X155810000Y-99950000D01*
X155810000Y-99950000D02*
X155810000Y-97560000D01*
X147965000Y-100800000D02*
X147965000Y-99950000D01*
X147965000Y-99950000D02*
X150290000Y-99950000D01*
X158135000Y-104320000D02*
X158135000Y-105170000D01*
X158135000Y-105170000D02*
X147965000Y-105170000D01*
X147965000Y-105170000D02*
X147965000Y-104320000D01*
X114240000Y-115425000D02*
X113390000Y-115425000D01*
X113390000Y-115425000D02*
X113390000Y-117750000D01*
X113390000Y-117750000D02*
X111000000Y-117750000D01*
X114240000Y-125595000D02*
X113390000Y-125595000D01*
X113390000Y-125595000D02*
X113390000Y-123270000D01*
X117760000Y-115425000D02*
X118610000Y-115425000D01*
X118610000Y-115425000D02*
X118610000Y-125595000D01*
X118610000Y-125595000D02*
X117760000Y-125595000D01*
X140910000Y-100470000D02*
X140910000Y-104720000D01*
X140910000Y-104720000D02*
X139890000Y-104720000D01*
X139890000Y-104720000D02*
X139890000Y-103120000D01*
X139890000Y-103120000D02*
X138610000Y-103120000D01*
X138610000Y-103120000D02*
X138610000Y-106010000D01*
X120790000Y-100470000D02*
X120790000Y-104720000D01*
X120790000Y-104720000D02*
X121810000Y-104720000D01*
X121810000Y-104720000D02*
X121810000Y-103120000D01*
X121810000Y-103120000D02*
X123090000Y-103120000D01*
X139190000Y-96900000D02*
X122510000Y-96900000D01*
X137602064Y-116410000D02*
X136397936Y-116410000D01*
X137602064Y-114590000D02*
X136397936Y-114590000D01*
X153547936Y-144800000D02*
X154752064Y-144800000D01*
X153547936Y-146620000D02*
X154752064Y-146620000D01*
X133910000Y-113647936D02*
X133910000Y-114852064D01*
X132090000Y-113647936D02*
X132090000Y-114852064D01*
X154690000Y-121802064D02*
X154690000Y-120597936D01*
X156510000Y-121802064D02*
X156510000Y-120597936D01*
X150740000Y-134412064D02*
X150740000Y-133207936D01*
X152560000Y-134412064D02*
X152560000Y-133207936D01*
X148847936Y-144800000D02*
X150052064Y-144800000D01*
X148847936Y-146620000D02*
X150052064Y-146620000D01*
X118140000Y-112612064D02*
X118140000Y-111407936D01*
X119960000Y-112612064D02*
X119960000Y-111407936D01*
X124740000Y-136012064D02*
X124740000Y-134807936D01*
X126560000Y-136012064D02*
X126560000Y-134807936D01*
X127220000Y-155040000D02*
X127220000Y-152380000D01*
X124620000Y-155040000D02*
X127220000Y-155040000D01*
X124620000Y-152380000D02*
X127220000Y-152380000D01*
X124620000Y-155040000D02*
X124620000Y-152380000D01*
X123350000Y-155040000D02*
X122020000Y-155040000D01*
X122020000Y-155040000D02*
X122020000Y-153710000D01*
X131040000Y-117280000D02*
X131040000Y-119940000D01*
X136180000Y-117280000D02*
X131040000Y-117280000D01*
X136180000Y-119940000D02*
X131040000Y-119940000D01*
X136180000Y-117280000D02*
X136180000Y-119940000D01*
X137450000Y-117280000D02*
X138780000Y-117280000D01*
X138780000Y-117280000D02*
X138780000Y-118610000D01*
X150860000Y-128940000D02*
X150860000Y-126280000D01*
X145720000Y-128940000D02*
X150860000Y-128940000D01*
X145720000Y-126280000D02*
X150860000Y-126280000D01*
X145720000Y-128940000D02*
X145720000Y-126280000D01*
X144450000Y-128940000D02*
X143120000Y-128940000D01*
X143120000Y-128940000D02*
X143120000Y-127610000D01*
X119119640Y-147790000D02*
X119119640Y-146860000D01*
X119119640Y-144630000D02*
X119119640Y-145560000D01*
X119119640Y-144630000D02*
X116959640Y-144630000D01*
X119119640Y-147790000D02*
X117659640Y-147790000D01*
X128880000Y-152380000D02*
X128880000Y-155040000D01*
X131480000Y-152380000D02*
X128880000Y-152380000D01*
X131480000Y-155040000D02*
X128880000Y-155040000D01*
X131480000Y-152380000D02*
X131480000Y-155040000D01*
X132750000Y-152380000D02*
X134080000Y-152380000D01*
X134080000Y-152380000D02*
X134080000Y-153710000D01*
X114240000Y-127425000D02*
X113390000Y-127425000D01*
X113390000Y-127425000D02*
X113390000Y-129750000D01*
X113390000Y-129750000D02*
X111000000Y-129750000D01*
X114240000Y-139595000D02*
X113390000Y-139595000D01*
X113390000Y-139595000D02*
X113390000Y-137270000D01*
X117760000Y-127425000D02*
X118610000Y-127425000D01*
X118610000Y-127425000D02*
X118610000Y-139595000D01*
X118610000Y-139595000D02*
X117760000Y-139595000D01*
X164860000Y-124095000D02*
X165710000Y-124095000D01*
X165710000Y-124095000D02*
X165710000Y-121770000D01*
X165710000Y-121770000D02*
X168100000Y-121770000D01*
X164860000Y-111925000D02*
X165710000Y-111925000D01*
X165710000Y-111925000D02*
X165710000Y-114250000D01*
X161340000Y-124095000D02*
X160490000Y-124095000D01*
X160490000Y-124095000D02*
X160490000Y-111925000D01*
X160490000Y-111925000D02*
X161340000Y-111925000D01*
X164390000Y-143870000D02*
X160140000Y-143870000D01*
X160140000Y-143870000D02*
X160140000Y-142850000D01*
X160140000Y-142850000D02*
X161740000Y-142850000D01*
X161740000Y-142850000D02*
X161740000Y-141570000D01*
X161740000Y-141570000D02*
X158850000Y-141570000D01*
X164390000Y-127750000D02*
X160140000Y-127750000D01*
X160140000Y-127750000D02*
X160140000Y-128770000D01*
X160140000Y-128770000D02*
X161740000Y-128770000D01*
X161740000Y-128770000D02*
X161740000Y-130050000D01*
X167960000Y-142150000D02*
X167960000Y-129470000D01*
X131540000Y-137638733D02*
X131540000Y-137981267D01*
X132560000Y-137638733D02*
X132560000Y-137981267D01*
X139940000Y-138238733D02*
X139940000Y-138581267D01*
X140960000Y-138238733D02*
X140960000Y-138581267D01*
X130580000Y-138460000D02*
X127920000Y-138460000D01*
X130580000Y-146140000D02*
X130580000Y-138460000D01*
X127920000Y-146140000D02*
X127920000Y-138460000D01*
X130580000Y-146140000D02*
X127920000Y-146140000D01*
X130580000Y-147410000D02*
X130580000Y-148740000D01*
X130580000Y-148740000D02*
X129250000Y-148740000D01*
X149460000Y-125140000D02*
X149460000Y-119940000D01*
X144320000Y-125140000D02*
X149460000Y-125140000D01*
X141720000Y-119940000D02*
X149460000Y-119940000D01*
X144320000Y-125140000D02*
X144320000Y-122540000D01*
X144320000Y-122540000D02*
X141720000Y-122540000D01*
X141720000Y-122540000D02*
X141720000Y-119940000D01*
X143050000Y-125140000D02*
X141720000Y-125140000D01*
X141720000Y-125140000D02*
X141720000Y-123810000D01*
X135990000Y-154350000D02*
X135990000Y-150100000D01*
X135990000Y-150100000D02*
X137010000Y-150100000D01*
X137010000Y-150100000D02*
X137010000Y-151700000D01*
X137010000Y-151700000D02*
X138290000Y-151700000D01*
X138290000Y-151700000D02*
X138290000Y-148810000D01*
X150110000Y-154350000D02*
X150110000Y-150100000D01*
X150110000Y-150100000D02*
X149090000Y-150100000D01*
X149090000Y-150100000D02*
X149090000Y-151700000D01*
X149090000Y-151700000D02*
X147810000Y-151700000D01*
X137710000Y-157920000D02*
X148390000Y-157920000D01*
X119119640Y-151532620D02*
X119119640Y-150602620D01*
X119119640Y-148372620D02*
X119119640Y-149302620D01*
X119119640Y-148372620D02*
X116959640Y-148372620D01*
X119119640Y-151532620D02*
X117659640Y-151532620D01*
X119119640Y-144114340D02*
X119119640Y-143184340D01*
X119119640Y-140954340D02*
X119119640Y-141884340D01*
X119119640Y-140954340D02*
X116959640Y-140954340D01*
X119119640Y-144114340D02*
X117659640Y-144114340D01*
D15*
X131443500Y-134077260D02*
X131443500Y-135502260D01*
X131218500Y-126827260D02*
X131218500Y-127152260D01*
X138468500Y-126827260D02*
X138468500Y-127152260D01*
X138468500Y-134077260D02*
X138468500Y-133752260D01*
X131218500Y-134077260D02*
X131218500Y-133752260D01*
X138468500Y-134077260D02*
X138143500Y-134077260D01*
X138468500Y-126827260D02*
X138143500Y-126827260D01*
X131218500Y-126827260D02*
X131543500Y-126827260D01*
X131218500Y-134077260D02*
X131443500Y-134077260D01*
D17*
X135645238Y-138579761D02*
X135645238Y-139184523D01*
X135221904Y-137914523D02*
X135645238Y-138579761D01*
X136068571Y-137914523D01*
X137157142Y-139184523D02*
X136431428Y-139184523D01*
X136794285Y-139184523D02*
X136794285Y-137914523D01*
X136673333Y-138095952D01*
X136552380Y-138216904D01*
X136431428Y-138277380D01*
X119545476Y-156130952D02*
X119485000Y-156251904D01*
X119364047Y-156372857D01*
X119182619Y-156554285D01*
X119122142Y-156675238D01*
X119122142Y-156796190D01*
X119424523Y-156735714D02*
X119364047Y-156856666D01*
X119243095Y-156977619D01*
X119001190Y-157038095D01*
X118577857Y-157038095D01*
X118335952Y-156977619D01*
X118215000Y-156856666D01*
X118154523Y-156735714D01*
X118154523Y-156493809D01*
X118215000Y-156372857D01*
X118335952Y-156251904D01*
X118577857Y-156191428D01*
X119001190Y-156191428D01*
X119243095Y-156251904D01*
X119364047Y-156372857D01*
X119424523Y-156493809D01*
X119424523Y-156735714D01*
X118577857Y-155102857D02*
X119424523Y-155102857D01*
X118094047Y-155405238D02*
X119001190Y-155707619D01*
X119001190Y-154921428D01*
X142329047Y-145705476D02*
X142208095Y-145645000D01*
X142087142Y-145524047D01*
X141905714Y-145342619D01*
X141784761Y-145282142D01*
X141663809Y-145282142D01*
X141724285Y-145584523D02*
X141603333Y-145524047D01*
X141482380Y-145403095D01*
X141421904Y-145161190D01*
X141421904Y-144737857D01*
X141482380Y-144495952D01*
X141603333Y-144375000D01*
X141724285Y-144314523D01*
X141966190Y-144314523D01*
X142087142Y-144375000D01*
X142208095Y-144495952D01*
X142268571Y-144737857D01*
X142268571Y-145161190D01*
X142208095Y-145403095D01*
X142087142Y-145524047D01*
X141966190Y-145584523D01*
X141724285Y-145584523D01*
X142752380Y-144435476D02*
X142812857Y-144375000D01*
X142933809Y-144314523D01*
X143236190Y-144314523D01*
X143357142Y-144375000D01*
X143417619Y-144435476D01*
X143478095Y-144556428D01*
X143478095Y-144677380D01*
X143417619Y-144858809D01*
X142691904Y-145584523D01*
X143478095Y-145584523D01*
X149829047Y-139895476D02*
X149708095Y-139835000D01*
X149587142Y-139714047D01*
X149405714Y-139532619D01*
X149284761Y-139472142D01*
X149163809Y-139472142D01*
X149224285Y-139774523D02*
X149103333Y-139714047D01*
X148982380Y-139593095D01*
X148921904Y-139351190D01*
X148921904Y-138927857D01*
X148982380Y-138685952D01*
X149103333Y-138565000D01*
X149224285Y-138504523D01*
X149466190Y-138504523D01*
X149587142Y-138565000D01*
X149708095Y-138685952D01*
X149768571Y-138927857D01*
X149768571Y-139351190D01*
X149708095Y-139593095D01*
X149587142Y-139714047D01*
X149466190Y-139774523D01*
X149224285Y-139774523D01*
X150978095Y-139774523D02*
X150252380Y-139774523D01*
X150615238Y-139774523D02*
X150615238Y-138504523D01*
X150494285Y-138685952D01*
X150373333Y-138806904D01*
X150252380Y-138867380D01*
D15*
X142790476Y-117212380D02*
X142790476Y-117926666D01*
X142742857Y-118069523D01*
X142647619Y-118164761D01*
X142504761Y-118212380D01*
X142409523Y-118212380D01*
X143790476Y-118212380D02*
X143219047Y-118212380D01*
X143504761Y-118212380D02*
X143504761Y-117212380D01*
X143409523Y-117355238D01*
X143314285Y-117450476D01*
X143219047Y-117498095D01*
X144695238Y-117212380D02*
X144219047Y-117212380D01*
X144171428Y-117688571D01*
X144219047Y-117640952D01*
X144314285Y-117593333D01*
X144552380Y-117593333D01*
X144647619Y-117640952D01*
X144695238Y-117688571D01*
X144742857Y-117783809D01*
X144742857Y-118021904D01*
X144695238Y-118117142D01*
X144647619Y-118164761D01*
X144552380Y-118212380D01*
X144314285Y-118212380D01*
X144219047Y-118164761D01*
X144171428Y-118117142D01*
X136307142Y-113897142D02*
X136259523Y-113944761D01*
X136116666Y-113992380D01*
X136021428Y-113992380D01*
X135878571Y-113944761D01*
X135783333Y-113849523D01*
X135735714Y-113754285D01*
X135688095Y-113563809D01*
X135688095Y-113420952D01*
X135735714Y-113230476D01*
X135783333Y-113135238D01*
X135878571Y-113040000D01*
X136021428Y-112992380D01*
X136116666Y-112992380D01*
X136259523Y-113040000D01*
X136307142Y-113087619D01*
X137259523Y-113992380D02*
X136688095Y-113992380D01*
X136973809Y-113992380D02*
X136973809Y-112992380D01*
X136878571Y-113135238D01*
X136783333Y-113230476D01*
X136688095Y-113278095D01*
X137735714Y-113992380D02*
X137926190Y-113992380D01*
X138021428Y-113944761D01*
X138069047Y-113897142D01*
X138164285Y-113754285D01*
X138211904Y-113563809D01*
X138211904Y-113182857D01*
X138164285Y-113087619D01*
X138116666Y-113040000D01*
X138021428Y-112992380D01*
X137830952Y-112992380D01*
X137735714Y-113040000D01*
X137688095Y-113087619D01*
X137640476Y-113182857D01*
X137640476Y-113420952D01*
X137688095Y-113516190D01*
X137735714Y-113563809D01*
X137830952Y-113611428D01*
X138021428Y-113611428D01*
X138116666Y-113563809D01*
X138164285Y-113516190D01*
X138211904Y-113420952D01*
X152507142Y-126452857D02*
X152554761Y-126500476D01*
X152602380Y-126643333D01*
X152602380Y-126738571D01*
X152554761Y-126881428D01*
X152459523Y-126976666D01*
X152364285Y-127024285D01*
X152173809Y-127071904D01*
X152030952Y-127071904D01*
X151840476Y-127024285D01*
X151745238Y-126976666D01*
X151650000Y-126881428D01*
X151602380Y-126738571D01*
X151602380Y-126643333D01*
X151650000Y-126500476D01*
X151697619Y-126452857D01*
X152602380Y-125500476D02*
X152602380Y-126071904D01*
X152602380Y-125786190D02*
X151602380Y-125786190D01*
X151745238Y-125881428D01*
X151840476Y-125976666D01*
X151888095Y-126071904D01*
X152030952Y-124929047D02*
X151983333Y-125024285D01*
X151935714Y-125071904D01*
X151840476Y-125119523D01*
X151792857Y-125119523D01*
X151697619Y-125071904D01*
X151650000Y-125024285D01*
X151602380Y-124929047D01*
X151602380Y-124738571D01*
X151650000Y-124643333D01*
X151697619Y-124595714D01*
X151792857Y-124548095D01*
X151840476Y-124548095D01*
X151935714Y-124595714D01*
X151983333Y-124643333D01*
X152030952Y-124738571D01*
X152030952Y-124929047D01*
X152078571Y-125024285D01*
X152126190Y-125071904D01*
X152221428Y-125119523D01*
X152411904Y-125119523D01*
X152507142Y-125071904D01*
X152554761Y-125024285D01*
X152602380Y-124929047D01*
X152602380Y-124738571D01*
X152554761Y-124643333D01*
X152507142Y-124595714D01*
X152411904Y-124548095D01*
X152221428Y-124548095D01*
X152126190Y-124595714D01*
X152078571Y-124643333D01*
X152030952Y-124738571D01*
X128007142Y-132952857D02*
X128054761Y-133000476D01*
X128102380Y-133143333D01*
X128102380Y-133238571D01*
X128054761Y-133381428D01*
X127959523Y-133476666D01*
X127864285Y-133524285D01*
X127673809Y-133571904D01*
X127530952Y-133571904D01*
X127340476Y-133524285D01*
X127245238Y-133476666D01*
X127150000Y-133381428D01*
X127102380Y-133238571D01*
X127102380Y-133143333D01*
X127150000Y-133000476D01*
X127197619Y-132952857D01*
X128102380Y-132000476D02*
X128102380Y-132571904D01*
X128102380Y-132286190D02*
X127102380Y-132286190D01*
X127245238Y-132381428D01*
X127340476Y-132476666D01*
X127388095Y-132571904D01*
X127102380Y-131143333D02*
X127102380Y-131333809D01*
X127150000Y-131429047D01*
X127197619Y-131476666D01*
X127340476Y-131571904D01*
X127530952Y-131619523D01*
X127911904Y-131619523D01*
X128007142Y-131571904D01*
X128054761Y-131524285D01*
X128102380Y-131429047D01*
X128102380Y-131238571D01*
X128054761Y-131143333D01*
X128007142Y-131095714D01*
X127911904Y-131048095D01*
X127673809Y-131048095D01*
X127578571Y-131095714D01*
X127530952Y-131143333D01*
X127483333Y-131238571D01*
X127483333Y-131429047D01*
X127530952Y-131524285D01*
X127578571Y-131571904D01*
X127673809Y-131619523D01*
X139607142Y-124667142D02*
X139559523Y-124714761D01*
X139416666Y-124762380D01*
X139321428Y-124762380D01*
X139178571Y-124714761D01*
X139083333Y-124619523D01*
X139035714Y-124524285D01*
X138988095Y-124333809D01*
X138988095Y-124190952D01*
X139035714Y-124000476D01*
X139083333Y-123905238D01*
X139178571Y-123810000D01*
X139321428Y-123762380D01*
X139416666Y-123762380D01*
X139559523Y-123810000D01*
X139607142Y-123857619D01*
X140559523Y-124762380D02*
X139988095Y-124762380D01*
X140273809Y-124762380D02*
X140273809Y-123762380D01*
X140178571Y-123905238D01*
X140083333Y-124000476D01*
X139988095Y-124048095D01*
X141416666Y-124095714D02*
X141416666Y-124762380D01*
X141178571Y-123714761D02*
X140940476Y-124429047D01*
X141559523Y-124429047D01*
X155407142Y-131352857D02*
X155454761Y-131400476D01*
X155502380Y-131543333D01*
X155502380Y-131638571D01*
X155454761Y-131781428D01*
X155359523Y-131876666D01*
X155264285Y-131924285D01*
X155073809Y-131971904D01*
X154930952Y-131971904D01*
X154740476Y-131924285D01*
X154645238Y-131876666D01*
X154550000Y-131781428D01*
X154502380Y-131638571D01*
X154502380Y-131543333D01*
X154550000Y-131400476D01*
X154597619Y-131352857D01*
X155502380Y-130400476D02*
X155502380Y-130971904D01*
X155502380Y-130686190D02*
X154502380Y-130686190D01*
X154645238Y-130781428D01*
X154740476Y-130876666D01*
X154788095Y-130971904D01*
X154502380Y-130067142D02*
X154502380Y-129448095D01*
X154883333Y-129781428D01*
X154883333Y-129638571D01*
X154930952Y-129543333D01*
X154978571Y-129495714D01*
X155073809Y-129448095D01*
X155311904Y-129448095D01*
X155407142Y-129495714D01*
X155454761Y-129543333D01*
X155502380Y-129638571D01*
X155502380Y-129924285D01*
X155454761Y-130019523D01*
X155407142Y-130067142D01*
X133907142Y-122967142D02*
X133859523Y-123014761D01*
X133716666Y-123062380D01*
X133621428Y-123062380D01*
X133478571Y-123014761D01*
X133383333Y-122919523D01*
X133335714Y-122824285D01*
X133288095Y-122633809D01*
X133288095Y-122490952D01*
X133335714Y-122300476D01*
X133383333Y-122205238D01*
X133478571Y-122110000D01*
X133621428Y-122062380D01*
X133716666Y-122062380D01*
X133859523Y-122110000D01*
X133907142Y-122157619D01*
X134859523Y-123062380D02*
X134288095Y-123062380D01*
X134573809Y-123062380D02*
X134573809Y-122062380D01*
X134478571Y-122205238D01*
X134383333Y-122300476D01*
X134288095Y-122348095D01*
X135240476Y-122157619D02*
X135288095Y-122110000D01*
X135383333Y-122062380D01*
X135621428Y-122062380D01*
X135716666Y-122110000D01*
X135764285Y-122157619D01*
X135811904Y-122252857D01*
X135811904Y-122348095D01*
X135764285Y-122490952D01*
X135192857Y-123062380D01*
X135811904Y-123062380D01*
X122607142Y-146442857D02*
X122654761Y-146490476D01*
X122702380Y-146633333D01*
X122702380Y-146728571D01*
X122654761Y-146871428D01*
X122559523Y-146966666D01*
X122464285Y-147014285D01*
X122273809Y-147061904D01*
X122130952Y-147061904D01*
X121940476Y-147014285D01*
X121845238Y-146966666D01*
X121750000Y-146871428D01*
X121702380Y-146728571D01*
X121702380Y-146633333D01*
X121750000Y-146490476D01*
X121797619Y-146442857D01*
X122702380Y-145490476D02*
X122702380Y-146061904D01*
X122702380Y-145776190D02*
X121702380Y-145776190D01*
X121845238Y-145871428D01*
X121940476Y-145966666D01*
X121988095Y-146061904D01*
X122702380Y-144538095D02*
X122702380Y-145109523D01*
X122702380Y-144823809D02*
X121702380Y-144823809D01*
X121845238Y-144919047D01*
X121940476Y-145014285D01*
X121988095Y-145109523D01*
X127707142Y-146452857D02*
X127754761Y-146500476D01*
X127802380Y-146643333D01*
X127802380Y-146738571D01*
X127754761Y-146881428D01*
X127659523Y-146976666D01*
X127564285Y-147024285D01*
X127373809Y-147071904D01*
X127230952Y-147071904D01*
X127040476Y-147024285D01*
X126945238Y-146976666D01*
X126850000Y-146881428D01*
X126802380Y-146738571D01*
X126802380Y-146643333D01*
X126850000Y-146500476D01*
X126897619Y-146452857D01*
X127802380Y-145500476D02*
X127802380Y-146071904D01*
X127802380Y-145786190D02*
X126802380Y-145786190D01*
X126945238Y-145881428D01*
X127040476Y-145976666D01*
X127088095Y-146071904D01*
X126802380Y-144881428D02*
X126802380Y-144786190D01*
X126850000Y-144690952D01*
X126897619Y-144643333D01*
X126992857Y-144595714D01*
X127183333Y-144548095D01*
X127421428Y-144548095D01*
X127611904Y-144595714D01*
X127707142Y-144643333D01*
X127754761Y-144690952D01*
X127802380Y-144786190D01*
X127802380Y-144881428D01*
X127754761Y-144976666D01*
X127707142Y-145024285D01*
X127611904Y-145071904D01*
X127421428Y-145119523D01*
X127183333Y-145119523D01*
X126992857Y-145071904D01*
X126897619Y-145024285D01*
X126850000Y-144976666D01*
X126802380Y-144881428D01*
X131383333Y-124467142D02*
X131335714Y-124514761D01*
X131192857Y-124562380D01*
X131097619Y-124562380D01*
X130954761Y-124514761D01*
X130859523Y-124419523D01*
X130811904Y-124324285D01*
X130764285Y-124133809D01*
X130764285Y-123990952D01*
X130811904Y-123800476D01*
X130859523Y-123705238D01*
X130954761Y-123610000D01*
X131097619Y-123562380D01*
X131192857Y-123562380D01*
X131335714Y-123610000D01*
X131383333Y-123657619D01*
X131859523Y-124562380D02*
X132050000Y-124562380D01*
X132145238Y-124514761D01*
X132192857Y-124467142D01*
X132288095Y-124324285D01*
X132335714Y-124133809D01*
X132335714Y-123752857D01*
X132288095Y-123657619D01*
X132240476Y-123610000D01*
X132145238Y-123562380D01*
X131954761Y-123562380D01*
X131859523Y-123610000D01*
X131811904Y-123657619D01*
X131764285Y-123752857D01*
X131764285Y-123990952D01*
X131811904Y-124086190D01*
X131859523Y-124133809D01*
X131954761Y-124181428D01*
X132145238Y-124181428D01*
X132240476Y-124133809D01*
X132288095Y-124086190D01*
X132335714Y-123990952D01*
X125902380Y-156976666D02*
X125426190Y-157310000D01*
X125902380Y-157548095D02*
X124902380Y-157548095D01*
X124902380Y-157167142D01*
X124950000Y-157071904D01*
X124997619Y-157024285D01*
X125092857Y-156976666D01*
X125235714Y-156976666D01*
X125330952Y-157024285D01*
X125378571Y-157071904D01*
X125426190Y-157167142D01*
X125426190Y-157548095D01*
X124902380Y-156119523D02*
X124902380Y-156310000D01*
X124950000Y-156405238D01*
X124997619Y-156452857D01*
X125140476Y-156548095D01*
X125330952Y-156595714D01*
X125711904Y-156595714D01*
X125807142Y-156548095D01*
X125854761Y-156500476D01*
X125902380Y-156405238D01*
X125902380Y-156214761D01*
X125854761Y-156119523D01*
X125807142Y-156071904D01*
X125711904Y-156024285D01*
X125473809Y-156024285D01*
X125378571Y-156071904D01*
X125330952Y-156119523D01*
X125283333Y-156214761D01*
X125283333Y-156405238D01*
X125330952Y-156500476D01*
X125378571Y-156548095D01*
X125473809Y-156595714D01*
D17*
X124821904Y-108414523D02*
X124821904Y-109321666D01*
X124761428Y-109503095D01*
X124640476Y-109624047D01*
X124459047Y-109684523D01*
X124338095Y-109684523D01*
X125366190Y-108535476D02*
X125426666Y-108475000D01*
X125547619Y-108414523D01*
X125850000Y-108414523D01*
X125970952Y-108475000D01*
X126031428Y-108535476D01*
X126091904Y-108656428D01*
X126091904Y-108777380D01*
X126031428Y-108958809D01*
X125305714Y-109684523D01*
X126091904Y-109684523D01*
X126878095Y-108414523D02*
X126999047Y-108414523D01*
X127120000Y-108475000D01*
X127180476Y-108535476D01*
X127240952Y-108656428D01*
X127301428Y-108898333D01*
X127301428Y-109200714D01*
X127240952Y-109442619D01*
X127180476Y-109563571D01*
X127120000Y-109624047D01*
X126999047Y-109684523D01*
X126878095Y-109684523D01*
X126757142Y-109624047D01*
X126696666Y-109563571D01*
X126636190Y-109442619D01*
X126575714Y-109200714D01*
X126575714Y-108898333D01*
X126636190Y-108656428D01*
X126696666Y-108535476D01*
X126757142Y-108475000D01*
X126878095Y-108414523D01*
D15*
X143240476Y-136662380D02*
X143240476Y-137376666D01*
X143192857Y-137519523D01*
X143097619Y-137614761D01*
X142954761Y-137662380D01*
X142859523Y-137662380D01*
X144240476Y-137662380D02*
X143669047Y-137662380D01*
X143954761Y-137662380D02*
X143954761Y-136662380D01*
X143859523Y-136805238D01*
X143764285Y-136900476D01*
X143669047Y-136948095D01*
X145097619Y-136662380D02*
X144907142Y-136662380D01*
X144811904Y-136710000D01*
X144764285Y-136757619D01*
X144669047Y-136900476D01*
X144621428Y-137090952D01*
X144621428Y-137471904D01*
X144669047Y-137567142D01*
X144716666Y-137614761D01*
X144811904Y-137662380D01*
X145002380Y-137662380D01*
X145097619Y-137614761D01*
X145145238Y-137567142D01*
X145192857Y-137471904D01*
X145192857Y-137233809D01*
X145145238Y-137138571D01*
X145097619Y-137090952D01*
X145002380Y-137043333D01*
X144811904Y-137043333D01*
X144716666Y-137090952D01*
X144669047Y-137138571D01*
X144621428Y-137233809D01*
X160661904Y-148612380D02*
X160661904Y-149421904D01*
X160709523Y-149517142D01*
X160757142Y-149564761D01*
X160852380Y-149612380D01*
X161042857Y-149612380D01*
X161138095Y-149564761D01*
X161185714Y-149517142D01*
X161233333Y-149421904D01*
X161233333Y-148612380D01*
X161661904Y-149564761D02*
X161804761Y-149612380D01*
X162042857Y-149612380D01*
X162138095Y-149564761D01*
X162185714Y-149517142D01*
X162233333Y-149421904D01*
X162233333Y-149326666D01*
X162185714Y-149231428D01*
X162138095Y-149183809D01*
X162042857Y-149136190D01*
X161852380Y-149088571D01*
X161757142Y-149040952D01*
X161709523Y-148993333D01*
X161661904Y-148898095D01*
X161661904Y-148802857D01*
X161709523Y-148707619D01*
X161757142Y-148660000D01*
X161852380Y-148612380D01*
X162090476Y-148612380D01*
X162233333Y-148660000D01*
X162995238Y-149088571D02*
X163138095Y-149136190D01*
X163185714Y-149183809D01*
X163233333Y-149279047D01*
X163233333Y-149421904D01*
X163185714Y-149517142D01*
X163138095Y-149564761D01*
X163042857Y-149612380D01*
X162661904Y-149612380D01*
X162661904Y-148612380D01*
X162995238Y-148612380D01*
X163090476Y-148660000D01*
X163138095Y-148707619D01*
X163185714Y-148802857D01*
X163185714Y-148898095D01*
X163138095Y-148993333D01*
X163090476Y-149040952D01*
X162995238Y-149088571D01*
X162661904Y-149088571D01*
X164185714Y-149612380D02*
X163614285Y-149612380D01*
X163900000Y-149612380D02*
X163900000Y-148612380D01*
X163804761Y-148755238D01*
X163709523Y-148850476D01*
X163614285Y-148898095D01*
X163457142Y-147662380D02*
X163123809Y-147186190D01*
X162885714Y-147662380D02*
X162885714Y-146662380D01*
X163266666Y-146662380D01*
X163361904Y-146710000D01*
X163409523Y-146757619D01*
X163457142Y-146852857D01*
X163457142Y-146995714D01*
X163409523Y-147090952D01*
X163361904Y-147138571D01*
X163266666Y-147186190D01*
X162885714Y-147186190D01*
X164409523Y-147662380D02*
X163838095Y-147662380D01*
X164123809Y-147662380D02*
X164123809Y-146662380D01*
X164028571Y-146805238D01*
X163933333Y-146900476D01*
X163838095Y-146948095D01*
X164980952Y-147090952D02*
X164885714Y-147043333D01*
X164838095Y-146995714D01*
X164790476Y-146900476D01*
X164790476Y-146852857D01*
X164838095Y-146757619D01*
X164885714Y-146710000D01*
X164980952Y-146662380D01*
X165171428Y-146662380D01*
X165266666Y-146710000D01*
X165314285Y-146757619D01*
X165361904Y-146852857D01*
X165361904Y-146900476D01*
X165314285Y-146995714D01*
X165266666Y-147043333D01*
X165171428Y-147090952D01*
X164980952Y-147090952D01*
X164885714Y-147138571D01*
X164838095Y-147186190D01*
X164790476Y-147281428D01*
X164790476Y-147471904D01*
X164838095Y-147567142D01*
X164885714Y-147614761D01*
X164980952Y-147662380D01*
X165171428Y-147662380D01*
X165266666Y-147614761D01*
X165314285Y-147567142D01*
X165361904Y-147471904D01*
X165361904Y-147281428D01*
X165314285Y-147186190D01*
X165266666Y-147138571D01*
X165171428Y-147090952D01*
X159257142Y-147862380D02*
X158923809Y-147386190D01*
X158685714Y-147862380D02*
X158685714Y-146862380D01*
X159066666Y-146862380D01*
X159161904Y-146910000D01*
X159209523Y-146957619D01*
X159257142Y-147052857D01*
X159257142Y-147195714D01*
X159209523Y-147290952D01*
X159161904Y-147338571D01*
X159066666Y-147386190D01*
X158685714Y-147386190D01*
X160209523Y-147862380D02*
X159638095Y-147862380D01*
X159923809Y-147862380D02*
X159923809Y-146862380D01*
X159828571Y-147005238D01*
X159733333Y-147100476D01*
X159638095Y-147148095D01*
X160542857Y-146862380D02*
X161209523Y-146862380D01*
X160780952Y-147862380D01*
X156916666Y-98062380D02*
X156916666Y-98776666D01*
X156869047Y-98919523D01*
X156773809Y-99014761D01*
X156630952Y-99062380D01*
X156535714Y-99062380D01*
X157297619Y-98062380D02*
X157964285Y-98062380D01*
X157535714Y-99062380D01*
X113507142Y-156462380D02*
X113173809Y-155986190D01*
X112935714Y-156462380D02*
X112935714Y-155462380D01*
X113316666Y-155462380D01*
X113411904Y-155510000D01*
X113459523Y-155557619D01*
X113507142Y-155652857D01*
X113507142Y-155795714D01*
X113459523Y-155890952D01*
X113411904Y-155938571D01*
X113316666Y-155986190D01*
X112935714Y-155986190D01*
X114459523Y-156462380D02*
X113888095Y-156462380D01*
X114173809Y-156462380D02*
X114173809Y-155462380D01*
X114078571Y-155605238D01*
X113983333Y-155700476D01*
X113888095Y-155748095D01*
X115078571Y-155462380D02*
X115173809Y-155462380D01*
X115269047Y-155510000D01*
X115316666Y-155557619D01*
X115364285Y-155652857D01*
X115411904Y-155843333D01*
X115411904Y-156081428D01*
X115364285Y-156271904D01*
X115316666Y-156367142D01*
X115269047Y-156414761D01*
X115173809Y-156462380D01*
X115078571Y-156462380D01*
X114983333Y-156414761D01*
X114935714Y-156367142D01*
X114888095Y-156271904D01*
X114840476Y-156081428D01*
X114840476Y-155843333D01*
X114888095Y-155652857D01*
X114935714Y-155557619D01*
X114983333Y-155510000D01*
X115078571Y-155462380D01*
X113402380Y-116743333D02*
X114116666Y-116743333D01*
X114259523Y-116790952D01*
X114354761Y-116886190D01*
X114402380Y-117029047D01*
X114402380Y-117124285D01*
X113402380Y-116362380D02*
X113402380Y-115743333D01*
X113783333Y-116076666D01*
X113783333Y-115933809D01*
X113830952Y-115838571D01*
X113878571Y-115790952D01*
X113973809Y-115743333D01*
X114211904Y-115743333D01*
X114307142Y-115790952D01*
X114354761Y-115838571D01*
X114402380Y-115933809D01*
X114402380Y-116219523D01*
X114354761Y-116314761D01*
X114307142Y-116362380D01*
X158002380Y-142052857D02*
X157526190Y-142386190D01*
X158002380Y-142624285D02*
X157002380Y-142624285D01*
X157002380Y-142243333D01*
X157050000Y-142148095D01*
X157097619Y-142100476D01*
X157192857Y-142052857D01*
X157335714Y-142052857D01*
X157430952Y-142100476D01*
X157478571Y-142148095D01*
X157526190Y-142243333D01*
X157526190Y-142624285D01*
X158002380Y-141100476D02*
X158002380Y-141671904D01*
X158002380Y-141386190D02*
X157002380Y-141386190D01*
X157145238Y-141481428D01*
X157240476Y-141576666D01*
X157288095Y-141671904D01*
X157002380Y-140243333D02*
X157002380Y-140433809D01*
X157050000Y-140529047D01*
X157097619Y-140576666D01*
X157240476Y-140671904D01*
X157430952Y-140719523D01*
X157811904Y-140719523D01*
X157907142Y-140671904D01*
X157954761Y-140624285D01*
X158002380Y-140529047D01*
X158002380Y-140338571D01*
X157954761Y-140243333D01*
X157907142Y-140195714D01*
X157811904Y-140148095D01*
X157573809Y-140148095D01*
X157478571Y-140195714D01*
X157430952Y-140243333D01*
X157383333Y-140338571D01*
X157383333Y-140529047D01*
X157430952Y-140624285D01*
X157478571Y-140671904D01*
X157573809Y-140719523D01*
X134007142Y-147662380D02*
X133673809Y-147186190D01*
X133435714Y-147662380D02*
X133435714Y-146662380D01*
X133816666Y-146662380D01*
X133911904Y-146710000D01*
X133959523Y-146757619D01*
X134007142Y-146852857D01*
X134007142Y-146995714D01*
X133959523Y-147090952D01*
X133911904Y-147138571D01*
X133816666Y-147186190D01*
X133435714Y-147186190D01*
X134959523Y-147662380D02*
X134388095Y-147662380D01*
X134673809Y-147662380D02*
X134673809Y-146662380D01*
X134578571Y-146805238D01*
X134483333Y-146900476D01*
X134388095Y-146948095D01*
X135864285Y-146662380D02*
X135388095Y-146662380D01*
X135340476Y-147138571D01*
X135388095Y-147090952D01*
X135483333Y-147043333D01*
X135721428Y-147043333D01*
X135816666Y-147090952D01*
X135864285Y-147138571D01*
X135911904Y-147233809D01*
X135911904Y-147471904D01*
X135864285Y-147567142D01*
X135816666Y-147614761D01*
X135721428Y-147662380D01*
X135483333Y-147662380D01*
X135388095Y-147614761D01*
X135340476Y-147567142D01*
X139216666Y-101762380D02*
X139216666Y-102476666D01*
X139169047Y-102619523D01*
X139073809Y-102714761D01*
X138930952Y-102762380D01*
X138835714Y-102762380D01*
X139835714Y-102190952D02*
X139740476Y-102143333D01*
X139692857Y-102095714D01*
X139645238Y-102000476D01*
X139645238Y-101952857D01*
X139692857Y-101857619D01*
X139740476Y-101810000D01*
X139835714Y-101762380D01*
X140026190Y-101762380D01*
X140121428Y-101810000D01*
X140169047Y-101857619D01*
X140216666Y-101952857D01*
X140216666Y-102000476D01*
X140169047Y-102095714D01*
X140121428Y-102143333D01*
X140026190Y-102190952D01*
X139835714Y-102190952D01*
X139740476Y-102238571D01*
X139692857Y-102286190D01*
X139645238Y-102381428D01*
X139645238Y-102571904D01*
X139692857Y-102667142D01*
X139740476Y-102714761D01*
X139835714Y-102762380D01*
X140026190Y-102762380D01*
X140121428Y-102714761D01*
X140169047Y-102667142D01*
X140216666Y-102571904D01*
X140216666Y-102381428D01*
X140169047Y-102286190D01*
X140121428Y-102238571D01*
X140026190Y-102190952D01*
X136357142Y-117677142D02*
X136309523Y-117724761D01*
X136166666Y-117772380D01*
X136071428Y-117772380D01*
X135928571Y-117724761D01*
X135833333Y-117629523D01*
X135785714Y-117534285D01*
X135738095Y-117343809D01*
X135738095Y-117200952D01*
X135785714Y-117010476D01*
X135833333Y-116915238D01*
X135928571Y-116820000D01*
X136071428Y-116772380D01*
X136166666Y-116772380D01*
X136309523Y-116820000D01*
X136357142Y-116867619D01*
X136738095Y-116867619D02*
X136785714Y-116820000D01*
X136880952Y-116772380D01*
X137119047Y-116772380D01*
X137214285Y-116820000D01*
X137261904Y-116867619D01*
X137309523Y-116962857D01*
X137309523Y-117058095D01*
X137261904Y-117200952D01*
X136690476Y-117772380D01*
X137309523Y-117772380D01*
X138261904Y-117772380D02*
X137690476Y-117772380D01*
X137976190Y-117772380D02*
X137976190Y-116772380D01*
X137880952Y-116915238D01*
X137785714Y-117010476D01*
X137690476Y-117058095D01*
X153507142Y-144247142D02*
X153459523Y-144294761D01*
X153316666Y-144342380D01*
X153221428Y-144342380D01*
X153078571Y-144294761D01*
X152983333Y-144199523D01*
X152935714Y-144104285D01*
X152888095Y-143913809D01*
X152888095Y-143770952D01*
X152935714Y-143580476D01*
X152983333Y-143485238D01*
X153078571Y-143390000D01*
X153221428Y-143342380D01*
X153316666Y-143342380D01*
X153459523Y-143390000D01*
X153507142Y-143437619D01*
X153888095Y-143437619D02*
X153935714Y-143390000D01*
X154030952Y-143342380D01*
X154269047Y-143342380D01*
X154364285Y-143390000D01*
X154411904Y-143437619D01*
X154459523Y-143532857D01*
X154459523Y-143628095D01*
X154411904Y-143770952D01*
X153840476Y-144342380D01*
X154459523Y-144342380D01*
X155078571Y-143342380D02*
X155173809Y-143342380D01*
X155269047Y-143390000D01*
X155316666Y-143437619D01*
X155364285Y-143532857D01*
X155411904Y-143723333D01*
X155411904Y-143961428D01*
X155364285Y-144151904D01*
X155316666Y-144247142D01*
X155269047Y-144294761D01*
X155173809Y-144342380D01*
X155078571Y-144342380D01*
X154983333Y-144294761D01*
X154935714Y-144247142D01*
X154888095Y-144151904D01*
X154840476Y-143961428D01*
X154840476Y-143723333D01*
X154888095Y-143532857D01*
X154935714Y-143437619D01*
X154983333Y-143390000D01*
X155078571Y-143342380D01*
X135177142Y-114416666D02*
X135224761Y-114464285D01*
X135272380Y-114607142D01*
X135272380Y-114702380D01*
X135224761Y-114845238D01*
X135129523Y-114940476D01*
X135034285Y-114988095D01*
X134843809Y-115035714D01*
X134700952Y-115035714D01*
X134510476Y-114988095D01*
X134415238Y-114940476D01*
X134320000Y-114845238D01*
X134272380Y-114702380D01*
X134272380Y-114607142D01*
X134320000Y-114464285D01*
X134367619Y-114416666D01*
X134700952Y-113845238D02*
X134653333Y-113940476D01*
X134605714Y-113988095D01*
X134510476Y-114035714D01*
X134462857Y-114035714D01*
X134367619Y-113988095D01*
X134320000Y-113940476D01*
X134272380Y-113845238D01*
X134272380Y-113654761D01*
X134320000Y-113559523D01*
X134367619Y-113511904D01*
X134462857Y-113464285D01*
X134510476Y-113464285D01*
X134605714Y-113511904D01*
X134653333Y-113559523D01*
X134700952Y-113654761D01*
X134700952Y-113845238D01*
X134748571Y-113940476D01*
X134796190Y-113988095D01*
X134891428Y-114035714D01*
X135081904Y-114035714D01*
X135177142Y-113988095D01*
X135224761Y-113940476D01*
X135272380Y-113845238D01*
X135272380Y-113654761D01*
X135224761Y-113559523D01*
X135177142Y-113511904D01*
X135081904Y-113464285D01*
X134891428Y-113464285D01*
X134796190Y-113511904D01*
X134748571Y-113559523D01*
X134700952Y-113654761D01*
X156107142Y-117876666D02*
X156154761Y-117924285D01*
X156202380Y-118067142D01*
X156202380Y-118162380D01*
X156154761Y-118305238D01*
X156059523Y-118400476D01*
X155964285Y-118448095D01*
X155773809Y-118495714D01*
X155630952Y-118495714D01*
X155440476Y-118448095D01*
X155345238Y-118400476D01*
X155250000Y-118305238D01*
X155202380Y-118162380D01*
X155202380Y-118067142D01*
X155250000Y-117924285D01*
X155297619Y-117876666D01*
X155202380Y-117543333D02*
X155202380Y-116876666D01*
X156202380Y-117305238D01*
X152007142Y-130776666D02*
X152054761Y-130824285D01*
X152102380Y-130967142D01*
X152102380Y-131062380D01*
X152054761Y-131205238D01*
X151959523Y-131300476D01*
X151864285Y-131348095D01*
X151673809Y-131395714D01*
X151530952Y-131395714D01*
X151340476Y-131348095D01*
X151245238Y-131300476D01*
X151150000Y-131205238D01*
X151102380Y-131062380D01*
X151102380Y-130967142D01*
X151150000Y-130824285D01*
X151197619Y-130776666D01*
X151435714Y-129919523D02*
X152102380Y-129919523D01*
X151054761Y-130157619D02*
X151769047Y-130395714D01*
X151769047Y-129776666D01*
X149283333Y-144247142D02*
X149235714Y-144294761D01*
X149092857Y-144342380D01*
X148997619Y-144342380D01*
X148854761Y-144294761D01*
X148759523Y-144199523D01*
X148711904Y-144104285D01*
X148664285Y-143913809D01*
X148664285Y-143770952D01*
X148711904Y-143580476D01*
X148759523Y-143485238D01*
X148854761Y-143390000D01*
X148997619Y-143342380D01*
X149092857Y-143342380D01*
X149235714Y-143390000D01*
X149283333Y-143437619D01*
X149616666Y-143342380D02*
X150235714Y-143342380D01*
X149902380Y-143723333D01*
X150045238Y-143723333D01*
X150140476Y-143770952D01*
X150188095Y-143818571D01*
X150235714Y-143913809D01*
X150235714Y-144151904D01*
X150188095Y-144247142D01*
X150140476Y-144294761D01*
X150045238Y-144342380D01*
X149759523Y-144342380D01*
X149664285Y-144294761D01*
X149616666Y-144247142D01*
X117587142Y-112176666D02*
X117634761Y-112224285D01*
X117682380Y-112367142D01*
X117682380Y-112462380D01*
X117634761Y-112605238D01*
X117539523Y-112700476D01*
X117444285Y-112748095D01*
X117253809Y-112795714D01*
X117110952Y-112795714D01*
X116920476Y-112748095D01*
X116825238Y-112700476D01*
X116730000Y-112605238D01*
X116682380Y-112462380D01*
X116682380Y-112367142D01*
X116730000Y-112224285D01*
X116777619Y-112176666D01*
X116777619Y-111795714D02*
X116730000Y-111748095D01*
X116682380Y-111652857D01*
X116682380Y-111414761D01*
X116730000Y-111319523D01*
X116777619Y-111271904D01*
X116872857Y-111224285D01*
X116968095Y-111224285D01*
X117110952Y-111271904D01*
X117682380Y-111843333D01*
X117682380Y-111224285D01*
X126057142Y-138986666D02*
X126104761Y-139034285D01*
X126152380Y-139177142D01*
X126152380Y-139272380D01*
X126104761Y-139415238D01*
X126009523Y-139510476D01*
X125914285Y-139558095D01*
X125723809Y-139605714D01*
X125580952Y-139605714D01*
X125390476Y-139558095D01*
X125295238Y-139510476D01*
X125200000Y-139415238D01*
X125152380Y-139272380D01*
X125152380Y-139177142D01*
X125200000Y-139034285D01*
X125247619Y-138986666D01*
X126152380Y-138034285D02*
X126152380Y-138605714D01*
X126152380Y-138320000D02*
X125152380Y-138320000D01*
X125295238Y-138415238D01*
X125390476Y-138510476D01*
X125438095Y-138605714D01*
X122702380Y-119052857D02*
X122226190Y-119386190D01*
X122702380Y-119624285D02*
X121702380Y-119624285D01*
X121702380Y-119243333D01*
X121750000Y-119148095D01*
X121797619Y-119100476D01*
X121892857Y-119052857D01*
X122035714Y-119052857D01*
X122130952Y-119100476D01*
X122178571Y-119148095D01*
X122226190Y-119243333D01*
X122226190Y-119624285D01*
X122702380Y-118100476D02*
X122702380Y-118671904D01*
X122702380Y-118386190D02*
X121702380Y-118386190D01*
X121845238Y-118481428D01*
X121940476Y-118576666D01*
X121988095Y-118671904D01*
X122035714Y-117243333D02*
X122702380Y-117243333D01*
X121654761Y-117481428D02*
X122369047Y-117719523D01*
X122369047Y-117100476D01*
X120007142Y-115162380D02*
X119673809Y-114686190D01*
X119435714Y-115162380D02*
X119435714Y-114162380D01*
X119816666Y-114162380D01*
X119911904Y-114210000D01*
X119959523Y-114257619D01*
X120007142Y-114352857D01*
X120007142Y-114495714D01*
X119959523Y-114590952D01*
X119911904Y-114638571D01*
X119816666Y-114686190D01*
X119435714Y-114686190D01*
X120959523Y-115162380D02*
X120388095Y-115162380D01*
X120673809Y-115162380D02*
X120673809Y-114162380D01*
X120578571Y-114305238D01*
X120483333Y-114400476D01*
X120388095Y-114448095D01*
X121292857Y-114162380D02*
X121911904Y-114162380D01*
X121578571Y-114543333D01*
X121721428Y-114543333D01*
X121816666Y-114590952D01*
X121864285Y-114638571D01*
X121911904Y-114733809D01*
X121911904Y-114971904D01*
X121864285Y-115067142D01*
X121816666Y-115114761D01*
X121721428Y-115162380D01*
X121435714Y-115162380D01*
X121340476Y-115114761D01*
X121292857Y-115067142D01*
X129707142Y-109662380D02*
X129373809Y-109186190D01*
X129135714Y-109662380D02*
X129135714Y-108662380D01*
X129516666Y-108662380D01*
X129611904Y-108710000D01*
X129659523Y-108757619D01*
X129707142Y-108852857D01*
X129707142Y-108995714D01*
X129659523Y-109090952D01*
X129611904Y-109138571D01*
X129516666Y-109186190D01*
X129135714Y-109186190D01*
X130659523Y-109662380D02*
X130088095Y-109662380D01*
X130373809Y-109662380D02*
X130373809Y-108662380D01*
X130278571Y-108805238D01*
X130183333Y-108900476D01*
X130088095Y-108948095D01*
X131040476Y-108757619D02*
X131088095Y-108710000D01*
X131183333Y-108662380D01*
X131421428Y-108662380D01*
X131516666Y-108710000D01*
X131564285Y-108757619D01*
X131611904Y-108852857D01*
X131611904Y-108948095D01*
X131564285Y-109090952D01*
X130992857Y-109662380D01*
X131611904Y-109662380D01*
X129607142Y-114062380D02*
X129273809Y-113586190D01*
X129035714Y-114062380D02*
X129035714Y-113062380D01*
X129416666Y-113062380D01*
X129511904Y-113110000D01*
X129559523Y-113157619D01*
X129607142Y-113252857D01*
X129607142Y-113395714D01*
X129559523Y-113490952D01*
X129511904Y-113538571D01*
X129416666Y-113586190D01*
X129035714Y-113586190D01*
X130559523Y-114062380D02*
X129988095Y-114062380D01*
X130273809Y-114062380D02*
X130273809Y-113062380D01*
X130178571Y-113205238D01*
X130083333Y-113300476D01*
X129988095Y-113348095D01*
X131511904Y-114062380D02*
X130940476Y-114062380D01*
X131226190Y-114062380D02*
X131226190Y-113062380D01*
X131130952Y-113205238D01*
X131035714Y-113300476D01*
X130940476Y-113348095D01*
X123502380Y-141176666D02*
X123026190Y-141510000D01*
X123502380Y-141748095D02*
X122502380Y-141748095D01*
X122502380Y-141367142D01*
X122550000Y-141271904D01*
X122597619Y-141224285D01*
X122692857Y-141176666D01*
X122835714Y-141176666D01*
X122930952Y-141224285D01*
X122978571Y-141271904D01*
X123026190Y-141367142D01*
X123026190Y-141748095D01*
X123502380Y-140700476D02*
X123502380Y-140510000D01*
X123454761Y-140414761D01*
X123407142Y-140367142D01*
X123264285Y-140271904D01*
X123073809Y-140224285D01*
X122692857Y-140224285D01*
X122597619Y-140271904D01*
X122550000Y-140319523D01*
X122502380Y-140414761D01*
X122502380Y-140605238D01*
X122550000Y-140700476D01*
X122597619Y-140748095D01*
X122692857Y-140795714D01*
X122930952Y-140795714D01*
X123026190Y-140748095D01*
X123073809Y-140700476D01*
X123121428Y-140605238D01*
X123121428Y-140414761D01*
X123073809Y-140319523D01*
X123026190Y-140271904D01*
X122930952Y-140224285D01*
X115102380Y-146576666D02*
X114626190Y-146910000D01*
X115102380Y-147148095D02*
X114102380Y-147148095D01*
X114102380Y-146767142D01*
X114150000Y-146671904D01*
X114197619Y-146624285D01*
X114292857Y-146576666D01*
X114435714Y-146576666D01*
X114530952Y-146624285D01*
X114578571Y-146671904D01*
X114626190Y-146767142D01*
X114626190Y-147148095D01*
X114530952Y-146005238D02*
X114483333Y-146100476D01*
X114435714Y-146148095D01*
X114340476Y-146195714D01*
X114292857Y-146195714D01*
X114197619Y-146148095D01*
X114150000Y-146100476D01*
X114102380Y-146005238D01*
X114102380Y-145814761D01*
X114150000Y-145719523D01*
X114197619Y-145671904D01*
X114292857Y-145624285D01*
X114340476Y-145624285D01*
X114435714Y-145671904D01*
X114483333Y-145719523D01*
X114530952Y-145814761D01*
X114530952Y-146005238D01*
X114578571Y-146100476D01*
X114626190Y-146148095D01*
X114721428Y-146195714D01*
X114911904Y-146195714D01*
X115007142Y-146148095D01*
X115054761Y-146100476D01*
X115102380Y-146005238D01*
X115102380Y-145814761D01*
X115054761Y-145719523D01*
X115007142Y-145671904D01*
X114911904Y-145624285D01*
X114721428Y-145624285D01*
X114626190Y-145671904D01*
X114578571Y-145719523D01*
X114530952Y-145814761D01*
X120893333Y-149752380D02*
X120560000Y-149276190D01*
X120321904Y-149752380D02*
X120321904Y-148752380D01*
X120702857Y-148752380D01*
X120798095Y-148800000D01*
X120845714Y-148847619D01*
X120893333Y-148942857D01*
X120893333Y-149085714D01*
X120845714Y-149180952D01*
X120798095Y-149228571D01*
X120702857Y-149276190D01*
X120321904Y-149276190D01*
X121226666Y-148752380D02*
X121893333Y-148752380D01*
X121464761Y-149752380D01*
X115202380Y-150176666D02*
X114726190Y-150510000D01*
X115202380Y-150748095D02*
X114202380Y-150748095D01*
X114202380Y-150367142D01*
X114250000Y-150271904D01*
X114297619Y-150224285D01*
X114392857Y-150176666D01*
X114535714Y-150176666D01*
X114630952Y-150224285D01*
X114678571Y-150271904D01*
X114726190Y-150367142D01*
X114726190Y-150748095D01*
X114202380Y-149271904D02*
X114202380Y-149748095D01*
X114678571Y-149795714D01*
X114630952Y-149748095D01*
X114583333Y-149652857D01*
X114583333Y-149414761D01*
X114630952Y-149319523D01*
X114678571Y-149271904D01*
X114773809Y-149224285D01*
X115011904Y-149224285D01*
X115107142Y-149271904D01*
X115154761Y-149319523D01*
X115202380Y-149414761D01*
X115202380Y-149652857D01*
X115154761Y-149748095D01*
X115107142Y-149795714D01*
X121502380Y-141176666D02*
X121026190Y-141510000D01*
X121502380Y-141748095D02*
X120502380Y-141748095D01*
X120502380Y-141367142D01*
X120550000Y-141271904D01*
X120597619Y-141224285D01*
X120692857Y-141176666D01*
X120835714Y-141176666D01*
X120930952Y-141224285D01*
X120978571Y-141271904D01*
X121026190Y-141367142D01*
X121026190Y-141748095D01*
X120835714Y-140319523D02*
X121502380Y-140319523D01*
X120454761Y-140557619D02*
X121169047Y-140795714D01*
X121169047Y-140176666D01*
X115202380Y-142876666D02*
X114726190Y-143210000D01*
X115202380Y-143448095D02*
X114202380Y-143448095D01*
X114202380Y-143067142D01*
X114250000Y-142971904D01*
X114297619Y-142924285D01*
X114392857Y-142876666D01*
X114535714Y-142876666D01*
X114630952Y-142924285D01*
X114678571Y-142971904D01*
X114726190Y-143067142D01*
X114726190Y-143448095D01*
X114202380Y-142543333D02*
X114202380Y-141924285D01*
X114583333Y-142257619D01*
X114583333Y-142114761D01*
X114630952Y-142019523D01*
X114678571Y-141971904D01*
X114773809Y-141924285D01*
X115011904Y-141924285D01*
X115107142Y-141971904D01*
X115154761Y-142019523D01*
X115202380Y-142114761D01*
X115202380Y-142400476D01*
X115154761Y-142495714D01*
X115107142Y-142543333D01*
X134683333Y-146362380D02*
X134350000Y-145886190D01*
X134111904Y-146362380D02*
X134111904Y-145362380D01*
X134492857Y-145362380D01*
X134588095Y-145410000D01*
X134635714Y-145457619D01*
X134683333Y-145552857D01*
X134683333Y-145695714D01*
X134635714Y-145790952D01*
X134588095Y-145838571D01*
X134492857Y-145886190D01*
X134111904Y-145886190D01*
X135064285Y-145457619D02*
X135111904Y-145410000D01*
X135207142Y-145362380D01*
X135445238Y-145362380D01*
X135540476Y-145410000D01*
X135588095Y-145457619D01*
X135635714Y-145552857D01*
X135635714Y-145648095D01*
X135588095Y-145790952D01*
X135016666Y-146362380D01*
X135635714Y-146362380D01*
X147072380Y-140776666D02*
X146596190Y-141110000D01*
X147072380Y-141348095D02*
X146072380Y-141348095D01*
X146072380Y-140967142D01*
X146120000Y-140871904D01*
X146167619Y-140824285D01*
X146262857Y-140776666D01*
X146405714Y-140776666D01*
X146500952Y-140824285D01*
X146548571Y-140871904D01*
X146596190Y-140967142D01*
X146596190Y-141348095D01*
X147072380Y-139824285D02*
X147072380Y-140395714D01*
X147072380Y-140110000D02*
X146072380Y-140110000D01*
X146215238Y-140205238D01*
X146310476Y-140300476D01*
X146358095Y-140395714D01*
X120472380Y-154043333D02*
X121186666Y-154043333D01*
X121329523Y-154090952D01*
X121424761Y-154186190D01*
X121472380Y-154329047D01*
X121472380Y-154424285D01*
X120567619Y-153614761D02*
X120520000Y-153567142D01*
X120472380Y-153471904D01*
X120472380Y-153233809D01*
X120520000Y-153138571D01*
X120567619Y-153090952D01*
X120662857Y-153043333D01*
X120758095Y-153043333D01*
X120900952Y-153090952D01*
X121472380Y-153662380D01*
X121472380Y-153043333D01*
X139232380Y-118943333D02*
X139946666Y-118943333D01*
X140089523Y-118990952D01*
X140184761Y-119086190D01*
X140232380Y-119229047D01*
X140232380Y-119324285D01*
X139232380Y-118038571D02*
X139232380Y-118229047D01*
X139280000Y-118324285D01*
X139327619Y-118371904D01*
X139470476Y-118467142D01*
X139660952Y-118514761D01*
X140041904Y-118514761D01*
X140137142Y-118467142D01*
X140184761Y-118419523D01*
X140232380Y-118324285D01*
X140232380Y-118133809D01*
X140184761Y-118038571D01*
X140137142Y-117990952D01*
X140041904Y-117943333D01*
X139803809Y-117943333D01*
X139708571Y-117990952D01*
X139660952Y-118038571D01*
X139613333Y-118133809D01*
X139613333Y-118324285D01*
X139660952Y-118419523D01*
X139708571Y-118467142D01*
X139803809Y-118514761D01*
X141572380Y-127943333D02*
X142286666Y-127943333D01*
X142429523Y-127990952D01*
X142524761Y-128086190D01*
X142572380Y-128229047D01*
X142572380Y-128324285D01*
X141905714Y-127038571D02*
X142572380Y-127038571D01*
X141524761Y-127276666D02*
X142239047Y-127514761D01*
X142239047Y-126895714D01*
X118854761Y-145857619D02*
X118759523Y-145810000D01*
X118664285Y-145714761D01*
X118521428Y-145571904D01*
X118426190Y-145524285D01*
X118330952Y-145524285D01*
X118378571Y-145762380D02*
X118283333Y-145714761D01*
X118188095Y-145619523D01*
X118140476Y-145429047D01*
X118140476Y-145095714D01*
X118188095Y-144905238D01*
X118283333Y-144810000D01*
X118378571Y-144762380D01*
X118569047Y-144762380D01*
X118664285Y-144810000D01*
X118759523Y-144905238D01*
X118807142Y-145095714D01*
X118807142Y-145429047D01*
X118759523Y-145619523D01*
X118664285Y-145714761D01*
X118569047Y-145762380D01*
X118378571Y-145762380D01*
X119664285Y-144762380D02*
X119473809Y-144762380D01*
X119378571Y-144810000D01*
X119330952Y-144857619D01*
X119235714Y-145000476D01*
X119188095Y-145190952D01*
X119188095Y-145571904D01*
X119235714Y-145667142D01*
X119283333Y-145714761D01*
X119378571Y-145762380D01*
X119569047Y-145762380D01*
X119664285Y-145714761D01*
X119711904Y-145667142D01*
X119759523Y-145571904D01*
X119759523Y-145333809D01*
X119711904Y-145238571D01*
X119664285Y-145190952D01*
X119569047Y-145143333D01*
X119378571Y-145143333D01*
X119283333Y-145190952D01*
X119235714Y-145238571D01*
X119188095Y-145333809D01*
X134532380Y-154519523D02*
X135246666Y-154519523D01*
X135389523Y-154567142D01*
X135484761Y-154662380D01*
X135532380Y-154805238D01*
X135532380Y-154900476D01*
X135532380Y-153519523D02*
X135532380Y-154090952D01*
X135532380Y-153805238D02*
X134532380Y-153805238D01*
X134675238Y-153900476D01*
X134770476Y-153995714D01*
X134818095Y-154090952D01*
X134532380Y-153186190D02*
X134532380Y-152519523D01*
X135532380Y-152948095D01*
X113802380Y-134519523D02*
X114516666Y-134519523D01*
X114659523Y-134567142D01*
X114754761Y-134662380D01*
X114802380Y-134805238D01*
X114802380Y-134900476D01*
X114802380Y-133519523D02*
X114802380Y-134090952D01*
X114802380Y-133805238D02*
X113802380Y-133805238D01*
X113945238Y-133900476D01*
X114040476Y-133995714D01*
X114088095Y-134090952D01*
X113802380Y-132900476D02*
X113802380Y-132805238D01*
X113850000Y-132710000D01*
X113897619Y-132662380D01*
X113992857Y-132614761D01*
X114183333Y-132567142D01*
X114421428Y-132567142D01*
X114611904Y-132614761D01*
X114707142Y-132662380D01*
X114754761Y-132710000D01*
X114802380Y-132805238D01*
X114802380Y-132900476D01*
X114754761Y-132995714D01*
X114707142Y-133043333D01*
X114611904Y-133090952D01*
X114421428Y-133138571D01*
X114183333Y-133138571D01*
X113992857Y-133090952D01*
X113897619Y-133043333D01*
X113850000Y-132995714D01*
X113802380Y-132900476D01*
X160802380Y-118399523D02*
X161516666Y-118399523D01*
X161659523Y-118447142D01*
X161754761Y-118542380D01*
X161802380Y-118685238D01*
X161802380Y-118780476D01*
X161802380Y-117399523D02*
X161802380Y-117970952D01*
X161802380Y-117685238D02*
X160802380Y-117685238D01*
X160945238Y-117780476D01*
X161040476Y-117875714D01*
X161088095Y-117970952D01*
X161802380Y-116447142D02*
X161802380Y-117018571D01*
X161802380Y-116732857D02*
X160802380Y-116732857D01*
X160945238Y-116828095D01*
X161040476Y-116923333D01*
X161088095Y-117018571D01*
X162202380Y-129143333D02*
X162916666Y-129143333D01*
X163059523Y-129190952D01*
X163154761Y-129286190D01*
X163202380Y-129429047D01*
X163202380Y-129524285D01*
X162202380Y-128190952D02*
X162202380Y-128667142D01*
X162678571Y-128714761D01*
X162630952Y-128667142D01*
X162583333Y-128571904D01*
X162583333Y-128333809D01*
X162630952Y-128238571D01*
X162678571Y-128190952D01*
X162773809Y-128143333D01*
X163011904Y-128143333D01*
X163107142Y-128190952D01*
X163154761Y-128238571D01*
X163202380Y-128333809D01*
X163202380Y-128571904D01*
X163154761Y-128667142D01*
X163107142Y-128714761D01*
X133837142Y-138452857D02*
X133884761Y-138500476D01*
X133932380Y-138643333D01*
X133932380Y-138738571D01*
X133884761Y-138881428D01*
X133789523Y-138976666D01*
X133694285Y-139024285D01*
X133503809Y-139071904D01*
X133360952Y-139071904D01*
X133170476Y-139024285D01*
X133075238Y-138976666D01*
X132980000Y-138881428D01*
X132932380Y-138738571D01*
X132932380Y-138643333D01*
X132980000Y-138500476D01*
X133027619Y-138452857D01*
X133932380Y-137500476D02*
X133932380Y-138071904D01*
X133932380Y-137786190D02*
X132932380Y-137786190D01*
X133075238Y-137881428D01*
X133170476Y-137976666D01*
X133218095Y-138071904D01*
X132932380Y-137167142D02*
X132932380Y-136500476D01*
X133932380Y-136929047D01*
X140107142Y-136567142D02*
X140059523Y-136614761D01*
X139916666Y-136662380D01*
X139821428Y-136662380D01*
X139678571Y-136614761D01*
X139583333Y-136519523D01*
X139535714Y-136424285D01*
X139488095Y-136233809D01*
X139488095Y-136090952D01*
X139535714Y-135900476D01*
X139583333Y-135805238D01*
X139678571Y-135710000D01*
X139821428Y-135662380D01*
X139916666Y-135662380D01*
X140059523Y-135710000D01*
X140107142Y-135757619D01*
X141059523Y-136662380D02*
X140488095Y-136662380D01*
X140773809Y-136662380D02*
X140773809Y-135662380D01*
X140678571Y-135805238D01*
X140583333Y-135900476D01*
X140488095Y-135948095D01*
X141964285Y-135662380D02*
X141488095Y-135662380D01*
X141440476Y-136138571D01*
X141488095Y-136090952D01*
X141583333Y-136043333D01*
X141821428Y-136043333D01*
X141916666Y-136090952D01*
X141964285Y-136138571D01*
X142011904Y-136233809D01*
X142011904Y-136471904D01*
X141964285Y-136567142D01*
X141916666Y-136614761D01*
X141821428Y-136662380D01*
X141583333Y-136662380D01*
X141488095Y-136614761D01*
X141440476Y-136567142D01*
X130802380Y-147743333D02*
X131516666Y-147743333D01*
X131659523Y-147790952D01*
X131754761Y-147886190D01*
X131802380Y-148029047D01*
X131802380Y-148124285D01*
X131802380Y-147219523D02*
X131802380Y-147029047D01*
X131754761Y-146933809D01*
X131707142Y-146886190D01*
X131564285Y-146790952D01*
X131373809Y-146743333D01*
X130992857Y-146743333D01*
X130897619Y-146790952D01*
X130850000Y-146838571D01*
X130802380Y-146933809D01*
X130802380Y-147124285D01*
X130850000Y-147219523D01*
X130897619Y-147267142D01*
X130992857Y-147314761D01*
X131230952Y-147314761D01*
X131326190Y-147267142D01*
X131373809Y-147219523D01*
X131421428Y-147124285D01*
X131421428Y-146933809D01*
X131373809Y-146838571D01*
X131326190Y-146790952D01*
X131230952Y-146743333D01*
X140172380Y-122919523D02*
X140886666Y-122919523D01*
X141029523Y-122967142D01*
X141124761Y-123062380D01*
X141172380Y-123205238D01*
X141172380Y-123300476D01*
X141172380Y-121919523D02*
X141172380Y-122490952D01*
X141172380Y-122205238D02*
X140172380Y-122205238D01*
X140315238Y-122300476D01*
X140410476Y-122395714D01*
X140458095Y-122490952D01*
X140267619Y-121538571D02*
X140220000Y-121490952D01*
X140172380Y-121395714D01*
X140172380Y-121157619D01*
X140220000Y-121062380D01*
X140267619Y-121014761D01*
X140362857Y-120967142D01*
X140458095Y-120967142D01*
X140600952Y-121014761D01*
X141172380Y-121586190D01*
X141172380Y-120967142D01*
D14*
X141940476Y-155162380D02*
X141940476Y-155876666D01*
X141892857Y-156019523D01*
X141797619Y-156114761D01*
X141654761Y-156162380D01*
X141559523Y-156162380D01*
X142940476Y-156162380D02*
X142369047Y-156162380D01*
X142654761Y-156162380D02*
X142654761Y-155162380D01*
X142559523Y-155305238D01*
X142464285Y-155400476D01*
X142369047Y-155448095D01*
X143273809Y-155162380D02*
X143892857Y-155162380D01*
X143559523Y-155543333D01*
X143702380Y-155543333D01*
X143797619Y-155590952D01*
X143845238Y-155638571D01*
X143892857Y-155733809D01*
X143892857Y-155971904D01*
X143845238Y-156067142D01*
X143797619Y-156114761D01*
X143702380Y-156162380D01*
X143416666Y-156162380D01*
X143321428Y-156114761D01*
X143273809Y-156067142D01*
D15*
X118954761Y-149557619D02*
X118859523Y-149510000D01*
X118764285Y-149414761D01*
X118621428Y-149271904D01*
X118526190Y-149224285D01*
X118430952Y-149224285D01*
X118478571Y-149462380D02*
X118383333Y-149414761D01*
X118288095Y-149319523D01*
X118240476Y-149129047D01*
X118240476Y-148795714D01*
X118288095Y-148605238D01*
X118383333Y-148510000D01*
X118478571Y-148462380D01*
X118669047Y-148462380D01*
X118764285Y-148510000D01*
X118859523Y-148605238D01*
X118907142Y-148795714D01*
X118907142Y-149129047D01*
X118859523Y-149319523D01*
X118764285Y-149414761D01*
X118669047Y-149462380D01*
X118478571Y-149462380D01*
X119811904Y-148462380D02*
X119335714Y-148462380D01*
X119288095Y-148938571D01*
X119335714Y-148890952D01*
X119430952Y-148843333D01*
X119669047Y-148843333D01*
X119764285Y-148890952D01*
X119811904Y-148938571D01*
X119859523Y-149033809D01*
X119859523Y-149271904D01*
X119811904Y-149367142D01*
X119764285Y-149414761D01*
X119669047Y-149462380D01*
X119430952Y-149462380D01*
X119335714Y-149414761D01*
X119288095Y-149367142D01*
X118954761Y-141957619D02*
X118859523Y-141910000D01*
X118764285Y-141814761D01*
X118621428Y-141671904D01*
X118526190Y-141624285D01*
X118430952Y-141624285D01*
X118478571Y-141862380D02*
X118383333Y-141814761D01*
X118288095Y-141719523D01*
X118240476Y-141529047D01*
X118240476Y-141195714D01*
X118288095Y-141005238D01*
X118383333Y-140910000D01*
X118478571Y-140862380D01*
X118669047Y-140862380D01*
X118764285Y-140910000D01*
X118859523Y-141005238D01*
X118907142Y-141195714D01*
X118907142Y-141529047D01*
X118859523Y-141719523D01*
X118764285Y-141814761D01*
X118669047Y-141862380D01*
X118478571Y-141862380D01*
X119240476Y-140862380D02*
X119859523Y-140862380D01*
X119526190Y-141243333D01*
X119669047Y-141243333D01*
X119764285Y-141290952D01*
X119811904Y-141338571D01*
X119859523Y-141433809D01*
X119859523Y-141671904D01*
X119811904Y-141767142D01*
X119764285Y-141814761D01*
X119669047Y-141862380D01*
X119383333Y-141862380D01*
X119288095Y-141814761D01*
X119240476Y-141767142D01*
X128202380Y-130571904D02*
X129011904Y-130571904D01*
X129107142Y-130524285D01*
X129154761Y-130476666D01*
X129202380Y-130381428D01*
X129202380Y-130190952D01*
X129154761Y-130095714D01*
X129107142Y-130048095D01*
X129011904Y-130000476D01*
X128202380Y-130000476D01*
X129202380Y-129000476D02*
X129202380Y-129571904D01*
X129202380Y-129286190D02*
X128202380Y-129286190D01*
X128345238Y-129381428D01*
X128440476Y-129476666D01*
X128488095Y-129571904D01*
M02*
