G04 #@! TF.GenerationSoftware,KiCad,Pcbnew,(5.1.6)-1*
G04 #@! TF.CreationDate,2021-01-14T09:04:40+01:00*
G04 #@! TF.ProjectId,surface_mount_v4,73757266-6163-4655-9f6d-6f756e745f76,rev?*
G04 #@! TF.SameCoordinates,Original*
G04 #@! TF.FileFunction,Paste,Bot*
G04 #@! TF.FilePolarity,Positive*
%FSLAX46Y46*%
G04 Gerber Fmt 4.6, Leading zero omitted, Abs format (unit mm)*
G04 Created by KiCad (PCBNEW (5.1.6)-1) date 2021-01-14 09:04:40*
%MOMM*%
%LPD*%
G01*
G04 APERTURE LIST*
%ADD10R,3.000000X1.000000*%
G04 APERTURE END LIST*
D10*
X113194500Y-102585980D03*
X118234500Y-102585980D03*
X113194500Y-105125980D03*
X118234500Y-105125980D03*
X113194500Y-107665980D03*
X118234500Y-107665980D03*
X113194500Y-110205980D03*
X118234500Y-110205980D03*
X113194500Y-112745980D03*
X118234500Y-112745980D03*
X113194500Y-115285980D03*
X118234500Y-115285980D03*
X113194500Y-117825980D03*
X118234500Y-117825980D03*
X113194500Y-120365980D03*
X118234500Y-120365980D03*
X113194500Y-122905980D03*
X118234500Y-122905980D03*
X113194500Y-125445980D03*
X118234500Y-125445980D03*
X113194500Y-127985980D03*
X118234500Y-127985980D03*
X113194500Y-130525980D03*
X118234500Y-130525980D03*
X113194500Y-133065980D03*
X118234500Y-133065980D03*
X113194500Y-135605980D03*
X118234500Y-135605980D03*
X113194500Y-138145980D03*
X118234500Y-138145980D03*
X113194500Y-140685980D03*
X118234500Y-140685980D03*
X113194500Y-143225980D03*
X118234500Y-143225980D03*
X113194500Y-145765980D03*
X118234500Y-145765980D03*
X113194500Y-148305980D03*
X118234500Y-148305980D03*
X113194500Y-150845980D03*
X118234500Y-150845980D03*
M02*
