M48
; DRILL file {KiCad (5.1.6)-1} date 01/14/21 09:04:49
; FORMAT={-:-/ absolute / inch / decimal}
; #@! TF.CreationDate,2021-01-14T09:04:49+01:00
; #@! TF.GenerationSoftware,Kicad,Pcbnew,(5.1.6)-1
; #@! TF.FileFunction,Plated,1,2,PTH
FMAT,2
INCH
T1C0.0157
T2C0.0236
T3C0.0354
T4C0.0394
%
G90
G05
T1
X4.4469Y-5.4925
X4.4508Y-5.9965
X4.4547Y-5.587
X4.5295Y-5.6894
X4.5571Y-5.5437
X4.6043Y-6.2169
X4.6342Y-3.9886
X4.75Y-5.1146
X4.7579Y-4.9256
X4.7736Y-4.339
X4.7972Y-4.6815
X4.8027Y-4.5885
X4.8445Y-5.5083
X4.8602Y-5.5634
X4.9075Y-5.7681
X4.9232Y-5.0043
X4.9311Y-4.0122
X5.0177Y-5.4217
X5.0256Y-5.2563
X5.0492Y-6.15
X5.1782Y-4.3302
X5.2067Y-5.2481
X5.2127Y-4.3765
X5.2236Y-4.835
X5.2539Y-5.4374
X5.2579Y-5.2484
X5.2697Y-4.3665
X5.3248Y-5.2563
X5.3248Y-5.6343
X5.3406Y-5.3783
X5.3563Y-5.0437
X5.3799Y-5.2287
X5.3799Y-5.7209
X5.3839Y-5.6657
X5.4075Y-4.7681
X5.4075Y-5.1618
X5.4075Y-5.0831
X5.4114Y-5.6116
X5.4433Y-5.6972
X5.4823Y-4.8547
X5.5414Y-4.7878
X5.5453Y-5.087
X5.5453Y-5.2445
X5.5531Y-5.1815
X5.5728Y-5.6264
X5.5965Y-5.5083
X5.8051Y-5.8193
X5.9469Y-4.0988
X6.0138Y-4.8902
X6.187Y-5.7287
X6.1988Y-4.713
X6.2067Y-4.7917
X6.2618Y-4.4886
X6.2657Y-5.0988
X6.2697Y-4.8193
X6.4354Y-5.828
X6.6555Y-4.524
T3
X4.8839Y-4.3508
X4.8839Y-4.4492
X4.8839Y-4.5476
X4.9823Y-4.4
X4.9823Y-4.4984
X4.9823Y-4.5969
T4
X5.687Y-5.024
X5.787Y-5.024
X5.887Y-5.024
X5.1264Y-6.0516
X5.2264Y-6.0516
X5.2114Y-4.6697
X5.3114Y-4.6697
X5.4114Y-4.6697
X5.6319Y-4.7744
X5.6319Y-4.8744
X5.7319Y-4.7744
X5.7319Y-4.8744
X5.8319Y-4.7744
X5.8319Y-4.8744
X5.6949Y-5.2524
X5.7933Y-5.2524
X5.6043Y-4.4965
X5.7028Y-4.4965
X4.8563Y-6.0516
X4.9563Y-6.0516
X5.0886Y-5.5035
X5.0886Y-5.6035
X5.0886Y-5.7035
X5.0886Y-5.8035
T2
G00X6.2236Y-5.948
M15
G01X6.2236Y-5.9913
M16
G05
G00X6.2236Y-6.1224
M15
G01X6.2236Y-6.1461
M16
G05
G00X6.5638Y-5.948
M15
G01X6.5638Y-5.9913
M16
G05
G00X6.5638Y-6.1224
M15
G01X6.5638Y-6.1461
M16
G05
T0
M30
