G04 #@! TF.GenerationSoftware,KiCad,Pcbnew,(5.1.6)-1*
G04 #@! TF.CreationDate,2021-01-14T09:04:40+01:00*
G04 #@! TF.ProjectId,surface_mount_v4,73757266-6163-4655-9f6d-6f756e745f76,rev?*
G04 #@! TF.SameCoordinates,Original*
G04 #@! TF.FileFunction,Legend,Bot*
G04 #@! TF.FilePolarity,Positive*
%FSLAX46Y46*%
G04 Gerber Fmt 4.6, Leading zero omitted, Abs format (unit mm)*
G04 Created by KiCad (PCBNEW (5.1.6)-1) date 2021-01-14 09:04:40*
%MOMM*%
%LPD*%
G01*
G04 APERTURE LIST*
%ADD10C,0.120000*%
%ADD11C,0.150000*%
G04 APERTURE END LIST*
D10*
X113114500Y-152175980D02*
X118314500Y-152175980D01*
X118314500Y-152175980D02*
X118314500Y-151605980D01*
X118314500Y-150085980D02*
X118314500Y-149065980D01*
X118314500Y-147545980D02*
X118314500Y-146525980D01*
X118314500Y-145005980D02*
X118314500Y-143985980D01*
X118314500Y-142465980D02*
X118314500Y-141445980D01*
X118314500Y-139925980D02*
X118314500Y-138905980D01*
X118314500Y-137385980D02*
X118314500Y-136365980D01*
X118314500Y-134845980D02*
X118314500Y-133825980D01*
X118314500Y-132305980D02*
X118314500Y-131285980D01*
X118314500Y-129765980D02*
X118314500Y-128745980D01*
X118314500Y-127225980D02*
X118314500Y-126205980D01*
X118314500Y-124685980D02*
X118314500Y-123665980D01*
X118314500Y-122145980D02*
X118314500Y-121125980D01*
X118314500Y-119605980D02*
X118314500Y-118585980D01*
X118314500Y-117065980D02*
X118314500Y-116045980D01*
X118314500Y-114525980D02*
X118314500Y-113505980D01*
X118314500Y-111985980D02*
X118314500Y-110965980D01*
X118314500Y-109445980D02*
X118314500Y-108425980D01*
X118314500Y-106905980D02*
X118314500Y-105885980D01*
X118314500Y-104365980D02*
X118314500Y-103345980D01*
X118314500Y-101825980D02*
X118314500Y-101255980D01*
X113114500Y-101255980D02*
X118314500Y-101255980D01*
X113114500Y-152175980D02*
X113114500Y-151605980D01*
X113114500Y-150085980D02*
X113114500Y-149065980D01*
X113114500Y-147545980D02*
X113114500Y-146525980D01*
X113114500Y-145005980D02*
X113114500Y-143985980D01*
X113114500Y-142465980D02*
X113114500Y-141445980D01*
X113114500Y-139925980D02*
X113114500Y-138905980D01*
X113114500Y-137385980D02*
X113114500Y-136365980D01*
X113114500Y-134845980D02*
X113114500Y-133825980D01*
X113114500Y-132305980D02*
X113114500Y-131285980D01*
X113114500Y-129765980D02*
X113114500Y-128745980D01*
X113114500Y-127225980D02*
X113114500Y-126205980D01*
X113114500Y-124685980D02*
X113114500Y-123665980D01*
X113114500Y-122145980D02*
X113114500Y-121125980D01*
X113114500Y-119605980D02*
X113114500Y-118585980D01*
X113114500Y-117065980D02*
X113114500Y-116045980D01*
X113114500Y-114525980D02*
X113114500Y-113505980D01*
X113114500Y-111985980D02*
X113114500Y-110965980D01*
X113114500Y-109445980D02*
X113114500Y-108425980D01*
X113114500Y-106905980D02*
X113114500Y-105885980D01*
X113114500Y-104365980D02*
X113114500Y-103345980D01*
X113114500Y-101825980D02*
X113114500Y-101255980D01*
X118314500Y-151605980D02*
X119674500Y-151605980D01*
D11*
X112333333Y-152952380D02*
X112333333Y-153666666D01*
X112380952Y-153809523D01*
X112476190Y-153904761D01*
X112619047Y-153952380D01*
X112714285Y-153952380D01*
X111333333Y-153952380D02*
X111904761Y-153952380D01*
X111619047Y-153952380D02*
X111619047Y-152952380D01*
X111714285Y-153095238D01*
X111809523Y-153190476D01*
X111904761Y-153238095D01*
M02*
