G04 #@! TF.GenerationSoftware,KiCad,Pcbnew,(5.1.6)-1*
G04 #@! TF.CreationDate,2021-01-14T09:04:40+01:00*
G04 #@! TF.ProjectId,surface_mount_v4,73757266-6163-4655-9f6d-6f756e745f76,rev?*
G04 #@! TF.SameCoordinates,Original*
G04 #@! TF.FileFunction,Copper,L2,Bot*
G04 #@! TF.FilePolarity,Positive*
%FSLAX46Y46*%
G04 Gerber Fmt 4.6, Leading zero omitted, Abs format (unit mm)*
G04 Created by KiCad (PCBNEW (5.1.6)-1) date 2021-01-14 09:04:40*
%MOMM*%
%LPD*%
G01*
G04 APERTURE LIST*
G04 #@! TA.AperFunction,ComponentPad*
%ADD10O,1.700000X2.000000*%
G04 #@! TD*
G04 #@! TA.AperFunction,ComponentPad*
%ADD11C,1.400000*%
G04 #@! TD*
G04 #@! TA.AperFunction,ComponentPad*
%ADD12O,1.000000X2.100000*%
G04 #@! TD*
G04 #@! TA.AperFunction,ComponentPad*
%ADD13O,1.000000X1.600000*%
G04 #@! TD*
G04 #@! TA.AperFunction,ComponentPad*
%ADD14O,1.700000X1.700000*%
G04 #@! TD*
G04 #@! TA.AperFunction,ComponentPad*
%ADD15R,1.700000X1.700000*%
G04 #@! TD*
G04 #@! TA.AperFunction,SMDPad,CuDef*
%ADD16R,3.000000X1.000000*%
G04 #@! TD*
G04 #@! TA.AperFunction,ViaPad*
%ADD17C,0.800000*%
G04 #@! TD*
G04 #@! TA.AperFunction,Conductor*
%ADD18C,0.250000*%
G04 #@! TD*
G04 #@! TA.AperFunction,Conductor*
%ADD19C,0.762000*%
G04 #@! TD*
G04 #@! TA.AperFunction,Conductor*
%ADD20C,1.270000*%
G04 #@! TD*
G04 #@! TA.AperFunction,Conductor*
%ADD21C,0.254000*%
G04 #@! TD*
G04 APERTURE END LIST*
D10*
X142350000Y-114210000D03*
G04 #@! TA.AperFunction,ComponentPad*
G36*
G01*
X145700000Y-113460000D02*
X145700000Y-114960000D01*
G75*
G02*
X145450000Y-115210000I-250000J0D01*
G01*
X144250000Y-115210000D01*
G75*
G02*
X144000000Y-114960000I0J250000D01*
G01*
X144000000Y-113460000D01*
G75*
G02*
X144250000Y-113210000I250000J0D01*
G01*
X145450000Y-113210000D01*
G75*
G02*
X145700000Y-113460000I0J-250000D01*
G01*
G37*
G04 #@! TD.AperFunction*
D11*
X126550000Y-116760000D03*
X124050000Y-115510000D03*
X126550000Y-114260000D03*
X124050000Y-113010000D03*
X126550000Y-111760000D03*
X124050000Y-110510000D03*
D10*
X144650000Y-133410000D03*
G04 #@! TA.AperFunction,ComponentPad*
G36*
G01*
X148000000Y-132660000D02*
X148000000Y-134160000D01*
G75*
G02*
X147750000Y-134410000I-250000J0D01*
G01*
X146550000Y-134410000D01*
G75*
G02*
X146300000Y-134160000I0J250000D01*
G01*
X146300000Y-132660000D01*
G75*
G02*
X146550000Y-132410000I250000J0D01*
G01*
X147750000Y-132410000D01*
G75*
G02*
X148000000Y-132660000I0J-250000D01*
G01*
G37*
G04 #@! TD.AperFunction*
D12*
X158080000Y-151630000D03*
X166720000Y-151630000D03*
D13*
X158080000Y-155810000D03*
X166720000Y-155810000D03*
D14*
X125890000Y-153710000D03*
D15*
X123350000Y-153710000D03*
D14*
X132370000Y-118610000D03*
X134910000Y-118610000D03*
D15*
X137450000Y-118610000D03*
D14*
X149530000Y-127610000D03*
X146990000Y-127610000D03*
D15*
X144450000Y-127610000D03*
D16*
X113194500Y-102585980D03*
X118234500Y-102585980D03*
X113194500Y-105125980D03*
X118234500Y-105125980D03*
X113194500Y-107665980D03*
X118234500Y-107665980D03*
X113194500Y-110205980D03*
X118234500Y-110205980D03*
X113194500Y-112745980D03*
X118234500Y-112745980D03*
X113194500Y-115285980D03*
X118234500Y-115285980D03*
X113194500Y-117825980D03*
X118234500Y-117825980D03*
X113194500Y-120365980D03*
X118234500Y-120365980D03*
X113194500Y-122905980D03*
X118234500Y-122905980D03*
X113194500Y-125445980D03*
X118234500Y-125445980D03*
X113194500Y-127985980D03*
X118234500Y-127985980D03*
X113194500Y-130525980D03*
X118234500Y-130525980D03*
X113194500Y-133065980D03*
X118234500Y-133065980D03*
X113194500Y-135605980D03*
X118234500Y-135605980D03*
X113194500Y-138145980D03*
X118234500Y-138145980D03*
X113194500Y-140685980D03*
X118234500Y-140685980D03*
X113194500Y-143225980D03*
X118234500Y-143225980D03*
X113194500Y-145765980D03*
X118234500Y-145765980D03*
X113194500Y-148305980D03*
X118234500Y-148305980D03*
X113194500Y-150845980D03*
X118234500Y-150845980D03*
D14*
X130210000Y-153710000D03*
D15*
X132750000Y-153710000D03*
D14*
X129250000Y-139790000D03*
X129250000Y-142330000D03*
X129250000Y-144870000D03*
D15*
X129250000Y-147410000D03*
D14*
X148130000Y-121270000D03*
X148130000Y-123810000D03*
X145590000Y-121270000D03*
X145590000Y-123810000D03*
X143050000Y-121270000D03*
D15*
X143050000Y-123810000D03*
D17*
X151050000Y-104110000D03*
X127650000Y-133510000D03*
X124650000Y-146510000D03*
X139250000Y-123310000D03*
X117708520Y-101310000D03*
X121250000Y-110210000D03*
X120850000Y-125110000D03*
X132679160Y-122810000D03*
X133850000Y-110910000D03*
X125250000Y-101910000D03*
X133550000Y-133310000D03*
X135250000Y-133510000D03*
X135650000Y-136610000D03*
X159150000Y-129510000D03*
X116950000Y-157910000D03*
X123450000Y-141310000D03*
X138260000Y-144710000D03*
X147450000Y-147810000D03*
X136650000Y-145310000D03*
X152750000Y-124210000D03*
X157150000Y-145510000D03*
X159050000Y-114010000D03*
X120650000Y-129910000D03*
X137350000Y-121110000D03*
X128250000Y-156210000D03*
X131527347Y-109987347D03*
X132402653Y-111162653D03*
X133450000Y-138110000D03*
X135250000Y-143110000D03*
X121987347Y-116547347D03*
X121850000Y-118910000D03*
X127450000Y-137710000D03*
X157650000Y-121710000D03*
X157450000Y-119710000D03*
X123050000Y-139910000D03*
X136650000Y-132810000D03*
X137450000Y-142535000D03*
X115050000Y-144510000D03*
X115750000Y-140810000D03*
X140850000Y-129210000D03*
X137350226Y-129110226D03*
X113150000Y-141910000D03*
X141550000Y-142910000D03*
X142150000Y-139910000D03*
X132250000Y-133302258D03*
X140850000Y-133210000D03*
X112950000Y-139510000D03*
X136050000Y-128110000D03*
X159250000Y-122410000D03*
X113050000Y-152310000D03*
X169050000Y-114910000D03*
X137350000Y-131110000D03*
X125050000Y-127110000D03*
X140751204Y-121611204D03*
X163460000Y-148030000D03*
X136750000Y-143910000D03*
X141050000Y-131610000D03*
D18*
X116250000Y-97410000D02*
X116250000Y-97710000D01*
X118234500Y-101835980D02*
X117708520Y-101310000D01*
X118234500Y-102585980D02*
X118234500Y-101835980D01*
X137350000Y-121050000D02*
X137350000Y-121110000D01*
X134910000Y-118610000D02*
X137350000Y-121050000D01*
X131527347Y-109987347D02*
X131527347Y-110287347D01*
X131527347Y-110287347D02*
X132402653Y-111162653D01*
X133450000Y-138110000D02*
X133450000Y-140435000D01*
X133450000Y-141310000D02*
X135250000Y-143110000D01*
X133450000Y-140435000D02*
X133450000Y-141310000D01*
X128815685Y-156210000D02*
X128250000Y-156210000D01*
X131350000Y-156210000D02*
X128815685Y-156210000D01*
X132750000Y-154810000D02*
X131350000Y-156210000D01*
X132750000Y-153710000D02*
X132750000Y-154810000D01*
D19*
X132750000Y-153710000D02*
X132750000Y-152610000D01*
X132750000Y-152610000D02*
X129250000Y-149110000D01*
X129250000Y-149110000D02*
X129250000Y-147410000D01*
D18*
X121987347Y-116547347D02*
X121987347Y-118772653D01*
X121987347Y-118772653D02*
X121850000Y-118910000D01*
X127450000Y-146710000D02*
X127450000Y-137710000D01*
X129250000Y-147410000D02*
X128150000Y-147410000D01*
X128150000Y-147410000D02*
X127450000Y-146710000D01*
X157650000Y-121144315D02*
X157450000Y-120944315D01*
X157650000Y-121710000D02*
X157650000Y-121144315D01*
X157450000Y-120944315D02*
X157450000Y-119710000D01*
X146140001Y-126760001D02*
X146990000Y-127610000D01*
X144414999Y-125034999D02*
X146140001Y-126760001D01*
X144414999Y-122634999D02*
X144414999Y-125034999D01*
X143050000Y-121270000D02*
X144414999Y-122634999D01*
X137450000Y-142410000D02*
X137450000Y-142535000D01*
X137450000Y-134110000D02*
X137450000Y-134010000D01*
X137450000Y-134110000D02*
X137450000Y-142410000D01*
X137450000Y-134010000D02*
X137150000Y-133710000D01*
X136650000Y-133375685D02*
X136650000Y-132810000D01*
X136784315Y-133510000D02*
X136650000Y-133375685D01*
X136950000Y-133510000D02*
X136784315Y-133510000D01*
X136950000Y-133510000D02*
X136850000Y-133410000D01*
X137150000Y-133710000D02*
X136950000Y-133510000D01*
X113194500Y-143225980D02*
X114365980Y-143225980D01*
X115050000Y-143910000D02*
X115050000Y-144510000D01*
X114365980Y-143225980D02*
X115050000Y-143910000D01*
X118234500Y-151595980D02*
X118234500Y-150845980D01*
X120348520Y-153710000D02*
X118234500Y-151595980D01*
X123350000Y-153710000D02*
X120348520Y-153710000D01*
X115750000Y-140810000D02*
X115750000Y-132010480D01*
X115750000Y-132010480D02*
X117234500Y-130525980D01*
X117234500Y-130525980D02*
X118234500Y-130525980D01*
X137450000Y-129210000D02*
X137350226Y-129110226D01*
X140850000Y-129210000D02*
X137450000Y-129210000D01*
X113194500Y-141865500D02*
X113150000Y-141910000D01*
X113194500Y-140685980D02*
X113194500Y-141865500D01*
X142150000Y-142310000D02*
X141550000Y-142910000D01*
X142150000Y-139910000D02*
X142150000Y-142310000D01*
X140450001Y-132810001D02*
X140850000Y-133210000D01*
X139699990Y-132059990D02*
X140450001Y-132810001D01*
X133492268Y-132059990D02*
X139699990Y-132059990D01*
X132250000Y-133302258D02*
X133492268Y-132059990D01*
X114194500Y-133065980D02*
X113194500Y-133065980D01*
X115019501Y-133890981D02*
X114194500Y-133065980D01*
X115019501Y-138905981D02*
X115019501Y-133890981D01*
X114415482Y-139510000D02*
X115019501Y-138905981D01*
X112950000Y-139510000D02*
X114415482Y-139510000D01*
D20*
X113194500Y-150845980D02*
X113194500Y-152165500D01*
X113194500Y-152165500D02*
X113050000Y-152310000D01*
D18*
X167447991Y-100134989D02*
X169075001Y-101761999D01*
X169075001Y-101761999D02*
X169075001Y-113884999D01*
X114588601Y-100134989D02*
X167447991Y-100134989D01*
X114199991Y-100523599D02*
X114588601Y-100134989D01*
X115019501Y-101715911D02*
X114199991Y-100896401D01*
X115019501Y-103345981D02*
X115019501Y-101715911D01*
X112194500Y-148305980D02*
X111369499Y-147480979D01*
X113194500Y-148305980D02*
X112194500Y-148305980D01*
X111369499Y-147480979D02*
X111369499Y-104365979D01*
X114199991Y-100896401D02*
X114199991Y-100523599D01*
X112324497Y-103410981D02*
X114954501Y-103410981D01*
X111369499Y-104365979D02*
X112324497Y-103410981D01*
X114954501Y-103410981D02*
X115019501Y-103345981D01*
X169050000Y-113910000D02*
X169050000Y-114910000D01*
X169075001Y-113884999D02*
X169050000Y-113910000D01*
X131884315Y-127110000D02*
X125050000Y-127110000D01*
X135632843Y-129392843D02*
X137350000Y-131110000D01*
X134167157Y-129392843D02*
X135632843Y-129392843D01*
X134167157Y-129392843D02*
X131884315Y-127110000D01*
X142950000Y-123810000D02*
X143050000Y-123810000D01*
X140751204Y-121611204D02*
X142950000Y-123810000D01*
X137149999Y-143510001D02*
X136750000Y-143910000D01*
X137548001Y-143510001D02*
X137149999Y-143510001D01*
X138175001Y-142883001D02*
X137548001Y-143510001D01*
X138175001Y-142811997D02*
X138175001Y-142883001D01*
X141575001Y-139411997D02*
X138175001Y-142811997D01*
X141575001Y-132135001D02*
X141575001Y-139411997D01*
X141050000Y-131610000D02*
X141575001Y-132135001D01*
D21*
G36*
X168315001Y-102076801D02*
G01*
X168315002Y-113714846D01*
X168300997Y-113761015D01*
X168290000Y-113872668D01*
X168290000Y-113872678D01*
X168286324Y-113910000D01*
X168290000Y-113947323D01*
X168290000Y-114206289D01*
X168246063Y-114250226D01*
X168132795Y-114419744D01*
X168054774Y-114608102D01*
X168015000Y-114808061D01*
X168015000Y-115011939D01*
X168054774Y-115211898D01*
X168132795Y-115400256D01*
X168246063Y-115569774D01*
X168390226Y-115713937D01*
X168559744Y-115827205D01*
X168748102Y-115905226D01*
X168948061Y-115945000D01*
X169151939Y-115945000D01*
X169340001Y-115907593D01*
X169340000Y-158315000D01*
X116722074Y-158315000D01*
X116717098Y-151982338D01*
X116734500Y-151984052D01*
X117580174Y-151984052D01*
X117599526Y-152020256D01*
X117618036Y-152042810D01*
X117694499Y-152135981D01*
X117723503Y-152159784D01*
X119784721Y-154221003D01*
X119808519Y-154250001D01*
X119924244Y-154344974D01*
X120056273Y-154415546D01*
X120199534Y-154459003D01*
X120311187Y-154470000D01*
X120311195Y-154470000D01*
X120348520Y-154473676D01*
X120385845Y-154470000D01*
X121861928Y-154470000D01*
X121861928Y-154560000D01*
X121874188Y-154684482D01*
X121910498Y-154804180D01*
X121969463Y-154914494D01*
X122048815Y-155011185D01*
X122145506Y-155090537D01*
X122255820Y-155149502D01*
X122375518Y-155185812D01*
X122500000Y-155198072D01*
X124200000Y-155198072D01*
X124324482Y-155185812D01*
X124444180Y-155149502D01*
X124554494Y-155090537D01*
X124651185Y-155011185D01*
X124730537Y-154914494D01*
X124789502Y-154804180D01*
X124813966Y-154723534D01*
X124889731Y-154807588D01*
X125123080Y-154981641D01*
X125385901Y-155106825D01*
X125533110Y-155151476D01*
X125763000Y-155030155D01*
X125763000Y-153837000D01*
X126017000Y-153837000D01*
X126017000Y-155030155D01*
X126246890Y-155151476D01*
X126394099Y-155106825D01*
X126656920Y-154981641D01*
X126890269Y-154807588D01*
X127085178Y-154591355D01*
X127234157Y-154341252D01*
X127331481Y-154066891D01*
X127210814Y-153837000D01*
X126017000Y-153837000D01*
X125763000Y-153837000D01*
X125743000Y-153837000D01*
X125743000Y-153583000D01*
X125763000Y-153583000D01*
X125763000Y-152389845D01*
X126017000Y-152389845D01*
X126017000Y-153583000D01*
X127210814Y-153583000D01*
X127331481Y-153353109D01*
X127234157Y-153078748D01*
X127085178Y-152828645D01*
X126890269Y-152612412D01*
X126656920Y-152438359D01*
X126394099Y-152313175D01*
X126246890Y-152268524D01*
X126017000Y-152389845D01*
X125763000Y-152389845D01*
X125533110Y-152268524D01*
X125385901Y-152313175D01*
X125123080Y-152438359D01*
X124889731Y-152612412D01*
X124813966Y-152696466D01*
X124789502Y-152615820D01*
X124730537Y-152505506D01*
X124651185Y-152408815D01*
X124554494Y-152329463D01*
X124444180Y-152270498D01*
X124324482Y-152234188D01*
X124200000Y-152221928D01*
X122500000Y-152221928D01*
X122375518Y-152234188D01*
X122255820Y-152270498D01*
X122145506Y-152329463D01*
X122048815Y-152408815D01*
X121969463Y-152505506D01*
X121910498Y-152615820D01*
X121874188Y-152735518D01*
X121861928Y-152860000D01*
X121861928Y-152950000D01*
X120663322Y-152950000D01*
X119697373Y-151984052D01*
X119734500Y-151984052D01*
X119858982Y-151971792D01*
X119978680Y-151935482D01*
X120088994Y-151876517D01*
X120185685Y-151797165D01*
X120265037Y-151700474D01*
X120324002Y-151590160D01*
X120360312Y-151470462D01*
X120372572Y-151345980D01*
X120372572Y-150345980D01*
X120360312Y-150221498D01*
X120324002Y-150101800D01*
X120265037Y-149991486D01*
X120185685Y-149894795D01*
X120088994Y-149815443D01*
X119978680Y-149756478D01*
X119858982Y-149720168D01*
X119734500Y-149707908D01*
X116734500Y-149707908D01*
X116715312Y-149709798D01*
X116715102Y-149442142D01*
X116734500Y-149444052D01*
X119734500Y-149444052D01*
X119858982Y-149431792D01*
X119978680Y-149395482D01*
X120088994Y-149336517D01*
X120185685Y-149257165D01*
X120265037Y-149160474D01*
X120324002Y-149050160D01*
X120360312Y-148930462D01*
X120372572Y-148805980D01*
X120372572Y-147805980D01*
X120360312Y-147681498D01*
X120324002Y-147561800D01*
X120265037Y-147451486D01*
X120185685Y-147354795D01*
X120088994Y-147275443D01*
X119978680Y-147216478D01*
X119858982Y-147180168D01*
X119734500Y-147167908D01*
X116734500Y-147167908D01*
X116713317Y-147169994D01*
X116713106Y-146901945D01*
X116734500Y-146904052D01*
X119734500Y-146904052D01*
X119858982Y-146891792D01*
X119978680Y-146855482D01*
X120088994Y-146796517D01*
X120185685Y-146717165D01*
X120265037Y-146620474D01*
X120324002Y-146510160D01*
X120360312Y-146390462D01*
X120372572Y-146265980D01*
X120372572Y-145265980D01*
X120360312Y-145141498D01*
X120324002Y-145021800D01*
X120265037Y-144911486D01*
X120185685Y-144814795D01*
X120088994Y-144735443D01*
X119978680Y-144676478D01*
X119858982Y-144640168D01*
X119734500Y-144627908D01*
X116734500Y-144627908D01*
X116711321Y-144630191D01*
X116711110Y-144361748D01*
X116734500Y-144364052D01*
X119734500Y-144364052D01*
X119858982Y-144351792D01*
X119978680Y-144315482D01*
X120088994Y-144256517D01*
X120185685Y-144177165D01*
X120265037Y-144080474D01*
X120324002Y-143970160D01*
X120360312Y-143850462D01*
X120372572Y-143725980D01*
X120372572Y-142725980D01*
X120360312Y-142601498D01*
X120324002Y-142481800D01*
X120265037Y-142371486D01*
X120185685Y-142274795D01*
X120088994Y-142195443D01*
X119978680Y-142136478D01*
X119858982Y-142100168D01*
X119734500Y-142087908D01*
X116734500Y-142087908D01*
X116709326Y-142090387D01*
X116709114Y-141821552D01*
X116734500Y-141824052D01*
X119734500Y-141824052D01*
X119858982Y-141811792D01*
X119978680Y-141775482D01*
X120088994Y-141716517D01*
X120185685Y-141637165D01*
X120265037Y-141540474D01*
X120324002Y-141430160D01*
X120360312Y-141310462D01*
X120372572Y-141185980D01*
X120372572Y-140185980D01*
X120360312Y-140061498D01*
X120324002Y-139941800D01*
X120265037Y-139831486D01*
X120245813Y-139808061D01*
X122015000Y-139808061D01*
X122015000Y-140011939D01*
X122054774Y-140211898D01*
X122132795Y-140400256D01*
X122246063Y-140569774D01*
X122390226Y-140713937D01*
X122559744Y-140827205D01*
X122748102Y-140905226D01*
X122948061Y-140945000D01*
X123151939Y-140945000D01*
X123351898Y-140905226D01*
X123540256Y-140827205D01*
X123709774Y-140713937D01*
X123853937Y-140569774D01*
X123967205Y-140400256D01*
X124045226Y-140211898D01*
X124085000Y-140011939D01*
X124085000Y-139808061D01*
X124045226Y-139608102D01*
X123967205Y-139419744D01*
X123853937Y-139250226D01*
X123709774Y-139106063D01*
X123540256Y-138992795D01*
X123351898Y-138914774D01*
X123151939Y-138875000D01*
X122948061Y-138875000D01*
X122748102Y-138914774D01*
X122559744Y-138992795D01*
X122390226Y-139106063D01*
X122246063Y-139250226D01*
X122132795Y-139419744D01*
X122054774Y-139608102D01*
X122015000Y-139808061D01*
X120245813Y-139808061D01*
X120185685Y-139734795D01*
X120088994Y-139655443D01*
X119978680Y-139596478D01*
X119858982Y-139560168D01*
X119734500Y-139547908D01*
X116734500Y-139547908D01*
X116707330Y-139550584D01*
X116707118Y-139281355D01*
X116734500Y-139284052D01*
X119734500Y-139284052D01*
X119858982Y-139271792D01*
X119978680Y-139235482D01*
X120088994Y-139176517D01*
X120185685Y-139097165D01*
X120265037Y-139000474D01*
X120324002Y-138890160D01*
X120360312Y-138770462D01*
X120372572Y-138645980D01*
X120372572Y-137645980D01*
X120368838Y-137608061D01*
X126415000Y-137608061D01*
X126415000Y-137811939D01*
X126454774Y-138011898D01*
X126532795Y-138200256D01*
X126646063Y-138369774D01*
X126690001Y-138413712D01*
X126690000Y-146672678D01*
X126686324Y-146710000D01*
X126690000Y-146747322D01*
X126690000Y-146747332D01*
X126700997Y-146858985D01*
X126714668Y-146904052D01*
X126744454Y-147002246D01*
X126815026Y-147134276D01*
X126852689Y-147180168D01*
X126909999Y-147250001D01*
X126939002Y-147273803D01*
X127586205Y-147921008D01*
X127609999Y-147950001D01*
X127638992Y-147973795D01*
X127638996Y-147973799D01*
X127709685Y-148031811D01*
X127725724Y-148044974D01*
X127761928Y-148064326D01*
X127761928Y-148260000D01*
X127774188Y-148384482D01*
X127810498Y-148504180D01*
X127869463Y-148614494D01*
X127948815Y-148711185D01*
X128045506Y-148790537D01*
X128155820Y-148849502D01*
X128234000Y-148873218D01*
X128234000Y-149060098D01*
X128229085Y-149110000D01*
X128234000Y-149159901D01*
X128248702Y-149309170D01*
X128306798Y-149500686D01*
X128401140Y-149677190D01*
X128528104Y-149831896D01*
X128566872Y-149863712D01*
X131313452Y-152610293D01*
X131310498Y-152615820D01*
X131288487Y-152688380D01*
X131156632Y-152556525D01*
X130913411Y-152394010D01*
X130643158Y-152282068D01*
X130356260Y-152225000D01*
X130063740Y-152225000D01*
X129776842Y-152282068D01*
X129506589Y-152394010D01*
X129263368Y-152556525D01*
X129056525Y-152763368D01*
X128894010Y-153006589D01*
X128782068Y-153276842D01*
X128725000Y-153563740D01*
X128725000Y-153856260D01*
X128782068Y-154143158D01*
X128894010Y-154413411D01*
X129056525Y-154656632D01*
X129263368Y-154863475D01*
X129506589Y-155025990D01*
X129776842Y-155137932D01*
X130063740Y-155195000D01*
X130356260Y-155195000D01*
X130643158Y-155137932D01*
X130913411Y-155025990D01*
X131156632Y-154863475D01*
X131288487Y-154731620D01*
X131310498Y-154804180D01*
X131369463Y-154914494D01*
X131448815Y-155011185D01*
X131462655Y-155022543D01*
X131035199Y-155450000D01*
X128953711Y-155450000D01*
X128909774Y-155406063D01*
X128740256Y-155292795D01*
X128551898Y-155214774D01*
X128351939Y-155175000D01*
X128148061Y-155175000D01*
X127948102Y-155214774D01*
X127759744Y-155292795D01*
X127590226Y-155406063D01*
X127446063Y-155550226D01*
X127332795Y-155719744D01*
X127254774Y-155908102D01*
X127215000Y-156108061D01*
X127215000Y-156311939D01*
X127254774Y-156511898D01*
X127332795Y-156700256D01*
X127446063Y-156869774D01*
X127590226Y-157013937D01*
X127759744Y-157127205D01*
X127948102Y-157205226D01*
X128148061Y-157245000D01*
X128351939Y-157245000D01*
X128551898Y-157205226D01*
X128740256Y-157127205D01*
X128909774Y-157013937D01*
X128953711Y-156970000D01*
X131312678Y-156970000D01*
X131350000Y-156973676D01*
X131387322Y-156970000D01*
X131387333Y-156970000D01*
X131498986Y-156959003D01*
X131642247Y-156915546D01*
X131774276Y-156844974D01*
X131890001Y-156750001D01*
X131913804Y-156720997D01*
X132697801Y-155937000D01*
X156945000Y-155937000D01*
X156945000Y-156237000D01*
X156991585Y-156455987D01*
X157079997Y-156661678D01*
X157206839Y-156846169D01*
X157367236Y-157002369D01*
X157555024Y-157124276D01*
X157778126Y-157204119D01*
X157953000Y-157077954D01*
X157953000Y-155937000D01*
X158207000Y-155937000D01*
X158207000Y-157077954D01*
X158381874Y-157204119D01*
X158604976Y-157124276D01*
X158792764Y-157002369D01*
X158953161Y-156846169D01*
X159080003Y-156661678D01*
X159168415Y-156455987D01*
X159215000Y-156237000D01*
X159215000Y-155937000D01*
X165585000Y-155937000D01*
X165585000Y-156237000D01*
X165631585Y-156455987D01*
X165719997Y-156661678D01*
X165846839Y-156846169D01*
X166007236Y-157002369D01*
X166195024Y-157124276D01*
X166418126Y-157204119D01*
X166593000Y-157077954D01*
X166593000Y-155937000D01*
X166847000Y-155937000D01*
X166847000Y-157077954D01*
X167021874Y-157204119D01*
X167244976Y-157124276D01*
X167432764Y-157002369D01*
X167593161Y-156846169D01*
X167720003Y-156661678D01*
X167808415Y-156455987D01*
X167855000Y-156237000D01*
X167855000Y-155937000D01*
X166847000Y-155937000D01*
X166593000Y-155937000D01*
X165585000Y-155937000D01*
X159215000Y-155937000D01*
X158207000Y-155937000D01*
X157953000Y-155937000D01*
X156945000Y-155937000D01*
X132697801Y-155937000D01*
X133251801Y-155383000D01*
X156945000Y-155383000D01*
X156945000Y-155683000D01*
X157953000Y-155683000D01*
X157953000Y-154542046D01*
X158207000Y-154542046D01*
X158207000Y-155683000D01*
X159215000Y-155683000D01*
X159215000Y-155383000D01*
X165585000Y-155383000D01*
X165585000Y-155683000D01*
X166593000Y-155683000D01*
X166593000Y-154542046D01*
X166847000Y-154542046D01*
X166847000Y-155683000D01*
X167855000Y-155683000D01*
X167855000Y-155383000D01*
X167808415Y-155164013D01*
X167720003Y-154958322D01*
X167593161Y-154773831D01*
X167432764Y-154617631D01*
X167244976Y-154495724D01*
X167021874Y-154415881D01*
X166847000Y-154542046D01*
X166593000Y-154542046D01*
X166418126Y-154415881D01*
X166195024Y-154495724D01*
X166007236Y-154617631D01*
X165846839Y-154773831D01*
X165719997Y-154958322D01*
X165631585Y-155164013D01*
X165585000Y-155383000D01*
X159215000Y-155383000D01*
X159168415Y-155164013D01*
X159080003Y-154958322D01*
X158953161Y-154773831D01*
X158792764Y-154617631D01*
X158604976Y-154495724D01*
X158381874Y-154415881D01*
X158207000Y-154542046D01*
X157953000Y-154542046D01*
X157778126Y-154415881D01*
X157555024Y-154495724D01*
X157367236Y-154617631D01*
X157206839Y-154773831D01*
X157079997Y-154958322D01*
X156991585Y-155164013D01*
X156945000Y-155383000D01*
X133251801Y-155383000D01*
X133261003Y-155373799D01*
X133290001Y-155350001D01*
X133336949Y-155292795D01*
X133384974Y-155234277D01*
X133404326Y-155198072D01*
X133600000Y-155198072D01*
X133724482Y-155185812D01*
X133844180Y-155149502D01*
X133954494Y-155090537D01*
X134051185Y-155011185D01*
X134130537Y-154914494D01*
X134189502Y-154804180D01*
X134225812Y-154684482D01*
X134238072Y-154560000D01*
X134238072Y-152860000D01*
X134225812Y-152735518D01*
X134189502Y-152615820D01*
X134130537Y-152505506D01*
X134051185Y-152408815D01*
X133954494Y-152329463D01*
X133844180Y-152270498D01*
X133724482Y-152234188D01*
X133696890Y-152231471D01*
X133693202Y-152219313D01*
X133598860Y-152042810D01*
X133471896Y-151888104D01*
X133433133Y-151856292D01*
X133333841Y-151757000D01*
X156945000Y-151757000D01*
X156945000Y-152307000D01*
X156991585Y-152525987D01*
X157079997Y-152731678D01*
X157206839Y-152916169D01*
X157367236Y-153072369D01*
X157555024Y-153194276D01*
X157778126Y-153274119D01*
X157953000Y-153147954D01*
X157953000Y-151757000D01*
X156945000Y-151757000D01*
X133333841Y-151757000D01*
X132529841Y-150953000D01*
X156945000Y-150953000D01*
X156945000Y-151503000D01*
X157953000Y-151503000D01*
X157953000Y-150112046D01*
X158207000Y-150112046D01*
X158207000Y-151503000D01*
X158227000Y-151503000D01*
X158227000Y-151757000D01*
X158207000Y-151757000D01*
X158207000Y-153147954D01*
X158381874Y-153274119D01*
X158604976Y-153194276D01*
X158792764Y-153072369D01*
X158937116Y-152931794D01*
X159055269Y-153010741D01*
X159229978Y-153083108D01*
X159415448Y-153120000D01*
X159604552Y-153120000D01*
X159790022Y-153083108D01*
X159964731Y-153010741D01*
X160121964Y-152905681D01*
X160255681Y-152771964D01*
X160360741Y-152614731D01*
X160433108Y-152440022D01*
X160470000Y-152254552D01*
X160470000Y-152065448D01*
X164330000Y-152065448D01*
X164330000Y-152254552D01*
X164366892Y-152440022D01*
X164439259Y-152614731D01*
X164544319Y-152771964D01*
X164678036Y-152905681D01*
X164835269Y-153010741D01*
X165009978Y-153083108D01*
X165195448Y-153120000D01*
X165384552Y-153120000D01*
X165570022Y-153083108D01*
X165744731Y-153010741D01*
X165862884Y-152931794D01*
X166007236Y-153072369D01*
X166195024Y-153194276D01*
X166418126Y-153274119D01*
X166593000Y-153147954D01*
X166593000Y-151757000D01*
X166847000Y-151757000D01*
X166847000Y-153147954D01*
X167021874Y-153274119D01*
X167244976Y-153194276D01*
X167432764Y-153072369D01*
X167593161Y-152916169D01*
X167720003Y-152731678D01*
X167808415Y-152525987D01*
X167855000Y-152307000D01*
X167855000Y-151757000D01*
X166847000Y-151757000D01*
X166593000Y-151757000D01*
X166573000Y-151757000D01*
X166573000Y-151503000D01*
X166593000Y-151503000D01*
X166593000Y-150112046D01*
X166847000Y-150112046D01*
X166847000Y-151503000D01*
X167855000Y-151503000D01*
X167855000Y-150953000D01*
X167808415Y-150734013D01*
X167720003Y-150528322D01*
X167593161Y-150343831D01*
X167432764Y-150187631D01*
X167244976Y-150065724D01*
X167021874Y-149985881D01*
X166847000Y-150112046D01*
X166593000Y-150112046D01*
X166418126Y-149985881D01*
X166195024Y-150065724D01*
X166007236Y-150187631D01*
X165846839Y-150343831D01*
X165719997Y-150528322D01*
X165631585Y-150734013D01*
X165585000Y-150953000D01*
X165585000Y-151243096D01*
X165570022Y-151236892D01*
X165384552Y-151200000D01*
X165195448Y-151200000D01*
X165009978Y-151236892D01*
X164835269Y-151309259D01*
X164678036Y-151414319D01*
X164544319Y-151548036D01*
X164439259Y-151705269D01*
X164366892Y-151879978D01*
X164330000Y-152065448D01*
X160470000Y-152065448D01*
X160433108Y-151879978D01*
X160360741Y-151705269D01*
X160255681Y-151548036D01*
X160121964Y-151414319D01*
X159964731Y-151309259D01*
X159790022Y-151236892D01*
X159604552Y-151200000D01*
X159415448Y-151200000D01*
X159229978Y-151236892D01*
X159215000Y-151243096D01*
X159215000Y-150953000D01*
X159168415Y-150734013D01*
X159080003Y-150528322D01*
X158953161Y-150343831D01*
X158792764Y-150187631D01*
X158604976Y-150065724D01*
X158381874Y-149985881D01*
X158207000Y-150112046D01*
X157953000Y-150112046D01*
X157778126Y-149985881D01*
X157555024Y-150065724D01*
X157367236Y-150187631D01*
X157206839Y-150343831D01*
X157079997Y-150528322D01*
X156991585Y-150734013D01*
X156945000Y-150953000D01*
X132529841Y-150953000D01*
X130397723Y-148820882D01*
X130454494Y-148790537D01*
X130551185Y-148711185D01*
X130630537Y-148614494D01*
X130689502Y-148504180D01*
X130725812Y-148384482D01*
X130738072Y-148260000D01*
X130738072Y-146560000D01*
X130725812Y-146435518D01*
X130689502Y-146315820D01*
X130630537Y-146205506D01*
X130551185Y-146108815D01*
X130454494Y-146029463D01*
X130344180Y-145970498D01*
X130271620Y-145948487D01*
X130403475Y-145816632D01*
X130565990Y-145573411D01*
X130677932Y-145303158D01*
X130735000Y-145016260D01*
X130735000Y-144723740D01*
X130677932Y-144436842D01*
X130565990Y-144166589D01*
X130403475Y-143923368D01*
X130196632Y-143716525D01*
X130022240Y-143600000D01*
X130196632Y-143483475D01*
X130403475Y-143276632D01*
X130565990Y-143033411D01*
X130677932Y-142763158D01*
X130735000Y-142476260D01*
X130735000Y-142183740D01*
X130677932Y-141896842D01*
X130565990Y-141626589D01*
X130403475Y-141383368D01*
X130196632Y-141176525D01*
X130014466Y-141054805D01*
X130131355Y-140985178D01*
X130347588Y-140790269D01*
X130521641Y-140556920D01*
X130646825Y-140294099D01*
X130691476Y-140146890D01*
X130570155Y-139917000D01*
X129377000Y-139917000D01*
X129377000Y-139937000D01*
X129123000Y-139937000D01*
X129123000Y-139917000D01*
X129103000Y-139917000D01*
X129103000Y-139663000D01*
X129123000Y-139663000D01*
X129123000Y-138469186D01*
X129377000Y-138469186D01*
X129377000Y-139663000D01*
X130570155Y-139663000D01*
X130691476Y-139433110D01*
X130646825Y-139285901D01*
X130521641Y-139023080D01*
X130347588Y-138789731D01*
X130131355Y-138594822D01*
X129881252Y-138445843D01*
X129606891Y-138348519D01*
X129377000Y-138469186D01*
X129123000Y-138469186D01*
X128893109Y-138348519D01*
X128618748Y-138445843D01*
X128368645Y-138594822D01*
X128210000Y-138737822D01*
X128210000Y-138413711D01*
X128253937Y-138369774D01*
X128367205Y-138200256D01*
X128445226Y-138011898D01*
X128485000Y-137811939D01*
X128485000Y-137608061D01*
X128445226Y-137408102D01*
X128367205Y-137219744D01*
X128253937Y-137050226D01*
X128109774Y-136906063D01*
X127940256Y-136792795D01*
X127751898Y-136714774D01*
X127551939Y-136675000D01*
X127348061Y-136675000D01*
X127148102Y-136714774D01*
X126959744Y-136792795D01*
X126790226Y-136906063D01*
X126646063Y-137050226D01*
X126532795Y-137219744D01*
X126454774Y-137408102D01*
X126415000Y-137608061D01*
X120368838Y-137608061D01*
X120360312Y-137521498D01*
X120324002Y-137401800D01*
X120265037Y-137291486D01*
X120185685Y-137194795D01*
X120088994Y-137115443D01*
X119978680Y-137056478D01*
X119858982Y-137020168D01*
X119734500Y-137007908D01*
X116734500Y-137007908D01*
X116705334Y-137010780D01*
X116705123Y-136741159D01*
X116734500Y-136744052D01*
X119734500Y-136744052D01*
X119858982Y-136731792D01*
X119978680Y-136695482D01*
X120088994Y-136636517D01*
X120185685Y-136557165D01*
X120265037Y-136460474D01*
X120324002Y-136350160D01*
X120360312Y-136230462D01*
X120372572Y-136105980D01*
X120372572Y-135105980D01*
X120360312Y-134981498D01*
X120324002Y-134861800D01*
X120265037Y-134751486D01*
X120185685Y-134654795D01*
X120088994Y-134575443D01*
X119978680Y-134516478D01*
X119858982Y-134480168D01*
X119734500Y-134467908D01*
X116734500Y-134467908D01*
X116703339Y-134470977D01*
X116703127Y-134200962D01*
X116734500Y-134204052D01*
X119734500Y-134204052D01*
X119858982Y-134191792D01*
X119978680Y-134155482D01*
X120088994Y-134096517D01*
X120185685Y-134017165D01*
X120265037Y-133920474D01*
X120324002Y-133810160D01*
X120360312Y-133690462D01*
X120372572Y-133565980D01*
X120372572Y-132565980D01*
X120360312Y-132441498D01*
X120324002Y-132321800D01*
X120265037Y-132211486D01*
X120185685Y-132114795D01*
X120088994Y-132035443D01*
X119978680Y-131976478D01*
X119858982Y-131940168D01*
X119734500Y-131927908D01*
X116907373Y-131927908D01*
X117171230Y-131664052D01*
X119734500Y-131664052D01*
X119858982Y-131651792D01*
X119978680Y-131615482D01*
X120088994Y-131556517D01*
X120185685Y-131477165D01*
X120265037Y-131380474D01*
X120324002Y-131270160D01*
X120360312Y-131150462D01*
X120372572Y-131025980D01*
X120372572Y-130025980D01*
X120360312Y-129901498D01*
X120324002Y-129781800D01*
X120265037Y-129671486D01*
X120185685Y-129574795D01*
X120088994Y-129495443D01*
X119978680Y-129436478D01*
X119858982Y-129400168D01*
X119734500Y-129387908D01*
X116734500Y-129387908D01*
X116699348Y-129391370D01*
X116699135Y-129120569D01*
X116734500Y-129124052D01*
X119734500Y-129124052D01*
X119858982Y-129111792D01*
X119978680Y-129075482D01*
X120088994Y-129016517D01*
X120185685Y-128937165D01*
X120265037Y-128840474D01*
X120324002Y-128730160D01*
X120360312Y-128610462D01*
X120372572Y-128485980D01*
X120372572Y-127485980D01*
X120360312Y-127361498D01*
X120324002Y-127241800D01*
X120265037Y-127131486D01*
X120185685Y-127034795D01*
X120153110Y-127008061D01*
X124015000Y-127008061D01*
X124015000Y-127211939D01*
X124054774Y-127411898D01*
X124132795Y-127600256D01*
X124246063Y-127769774D01*
X124390226Y-127913937D01*
X124559744Y-128027205D01*
X124748102Y-128105226D01*
X124948061Y-128145000D01*
X125151939Y-128145000D01*
X125351898Y-128105226D01*
X125540256Y-128027205D01*
X125709774Y-127913937D01*
X125753711Y-127870000D01*
X131569514Y-127870000D01*
X133603357Y-129903845D01*
X133627156Y-129932844D01*
X133656154Y-129956642D01*
X133742880Y-130027817D01*
X133831153Y-130075000D01*
X133874910Y-130098389D01*
X134018171Y-130141846D01*
X134129824Y-130152843D01*
X134129833Y-130152843D01*
X134167156Y-130156519D01*
X134204481Y-130152843D01*
X135318042Y-130152843D01*
X136315000Y-131149802D01*
X136315000Y-131211939D01*
X136332514Y-131299990D01*
X133529590Y-131299990D01*
X133492267Y-131296314D01*
X133454944Y-131299990D01*
X133454935Y-131299990D01*
X133343282Y-131310987D01*
X133200021Y-131354444D01*
X133067992Y-131425016D01*
X132952267Y-131519989D01*
X132928469Y-131548987D01*
X132210199Y-132267258D01*
X132148061Y-132267258D01*
X131948102Y-132307032D01*
X131759744Y-132385053D01*
X131590226Y-132498321D01*
X131446063Y-132642484D01*
X131332795Y-132812002D01*
X131254774Y-133000360D01*
X131215000Y-133200319D01*
X131215000Y-133404197D01*
X131254774Y-133604156D01*
X131332795Y-133792514D01*
X131446063Y-133962032D01*
X131590226Y-134106195D01*
X131759744Y-134219463D01*
X131948102Y-134297484D01*
X132148061Y-134337258D01*
X132351939Y-134337258D01*
X132551898Y-134297484D01*
X132740256Y-134219463D01*
X132909774Y-134106195D01*
X133053937Y-133962032D01*
X133167205Y-133792514D01*
X133245226Y-133604156D01*
X133285000Y-133404197D01*
X133285000Y-133342059D01*
X133807070Y-132819990D01*
X135615000Y-132819990D01*
X135615000Y-132911939D01*
X135654774Y-133111898D01*
X135732795Y-133300256D01*
X135846063Y-133469774D01*
X135901014Y-133524725D01*
X135934245Y-133634276D01*
X135944454Y-133667931D01*
X136015026Y-133799961D01*
X136051968Y-133844974D01*
X136109999Y-133915686D01*
X136139003Y-133939489D01*
X136220511Y-134020997D01*
X136244314Y-134050001D01*
X136360039Y-134144974D01*
X136492068Y-134215546D01*
X136619357Y-134254158D01*
X136690000Y-134324801D01*
X136690001Y-141831288D01*
X136646063Y-141875226D01*
X136532795Y-142044744D01*
X136454774Y-142233102D01*
X136415000Y-142433061D01*
X136415000Y-142636939D01*
X136454774Y-142836898D01*
X136484068Y-142907620D01*
X136448102Y-142914774D01*
X136280272Y-142984292D01*
X136245226Y-142808102D01*
X136167205Y-142619744D01*
X136053937Y-142450226D01*
X135909774Y-142306063D01*
X135740256Y-142192795D01*
X135551898Y-142114774D01*
X135351939Y-142075000D01*
X135289802Y-142075000D01*
X134210000Y-140995199D01*
X134210000Y-138813711D01*
X134253937Y-138769774D01*
X134367205Y-138600256D01*
X134445226Y-138411898D01*
X134485000Y-138211939D01*
X134485000Y-138008061D01*
X134445226Y-137808102D01*
X134367205Y-137619744D01*
X134253937Y-137450226D01*
X134109774Y-137306063D01*
X133940256Y-137192795D01*
X133751898Y-137114774D01*
X133551939Y-137075000D01*
X133348061Y-137075000D01*
X133148102Y-137114774D01*
X132959744Y-137192795D01*
X132790226Y-137306063D01*
X132646063Y-137450226D01*
X132532795Y-137619744D01*
X132454774Y-137808102D01*
X132415000Y-138008061D01*
X132415000Y-138211939D01*
X132454774Y-138411898D01*
X132532795Y-138600256D01*
X132646063Y-138769774D01*
X132690000Y-138813711D01*
X132690001Y-140397658D01*
X132690000Y-140397668D01*
X132690000Y-141272678D01*
X132686324Y-141310000D01*
X132690000Y-141347322D01*
X132690000Y-141347333D01*
X132700998Y-141458986D01*
X132713439Y-141500000D01*
X132744454Y-141602246D01*
X132815026Y-141734276D01*
X132886201Y-141821002D01*
X132910000Y-141850001D01*
X132938998Y-141873799D01*
X134215000Y-143149802D01*
X134215000Y-143211939D01*
X134254774Y-143411898D01*
X134332795Y-143600256D01*
X134446063Y-143769774D01*
X134590226Y-143913937D01*
X134759744Y-144027205D01*
X134948102Y-144105226D01*
X135148061Y-144145000D01*
X135351939Y-144145000D01*
X135551898Y-144105226D01*
X135719728Y-144035708D01*
X135754774Y-144211898D01*
X135832795Y-144400256D01*
X135946063Y-144569774D01*
X136090226Y-144713937D01*
X136259744Y-144827205D01*
X136448102Y-144905226D01*
X136648061Y-144945000D01*
X136851939Y-144945000D01*
X137051898Y-144905226D01*
X137240256Y-144827205D01*
X137409774Y-144713937D01*
X137553937Y-144569774D01*
X137667205Y-144400256D01*
X137729842Y-144249038D01*
X137840248Y-144215547D01*
X137972277Y-144144975D01*
X138088002Y-144050002D01*
X138111804Y-144020999D01*
X138686003Y-143446801D01*
X138715002Y-143423002D01*
X138753743Y-143375796D01*
X138809975Y-143307278D01*
X138873653Y-143188146D01*
X141390000Y-140671799D01*
X141390001Y-141886549D01*
X141248102Y-141914774D01*
X141059744Y-141992795D01*
X140890226Y-142106063D01*
X140746063Y-142250226D01*
X140632795Y-142419744D01*
X140554774Y-142608102D01*
X140515000Y-142808061D01*
X140515000Y-143011939D01*
X140554774Y-143211898D01*
X140632795Y-143400256D01*
X140746063Y-143569774D01*
X140890226Y-143713937D01*
X141059744Y-143827205D01*
X141248102Y-143905226D01*
X141448061Y-143945000D01*
X141651939Y-143945000D01*
X141851898Y-143905226D01*
X142040256Y-143827205D01*
X142209774Y-143713937D01*
X142353937Y-143569774D01*
X142467205Y-143400256D01*
X142545226Y-143211898D01*
X142585000Y-143011939D01*
X142585000Y-142949802D01*
X142661002Y-142873800D01*
X142690001Y-142850001D01*
X142751828Y-142774665D01*
X142784974Y-142734277D01*
X142855546Y-142602247D01*
X142880570Y-142519751D01*
X142899003Y-142458986D01*
X142910000Y-142347333D01*
X142910000Y-142347324D01*
X142913676Y-142310001D01*
X142910000Y-142272678D01*
X142910000Y-140613711D01*
X142953937Y-140569774D01*
X143067205Y-140400256D01*
X143145226Y-140211898D01*
X143185000Y-140011939D01*
X143185000Y-139808061D01*
X143145226Y-139608102D01*
X143067205Y-139419744D01*
X142953937Y-139250226D01*
X142809774Y-139106063D01*
X142640256Y-138992795D01*
X142451898Y-138914774D01*
X142335001Y-138891522D01*
X142335001Y-133769742D01*
X143178715Y-133769742D01*
X143247904Y-134052745D01*
X143370975Y-134316812D01*
X143543198Y-134551795D01*
X143757954Y-134748664D01*
X144006991Y-134899854D01*
X144280739Y-134999554D01*
X144293110Y-135001476D01*
X144523000Y-134880155D01*
X144523000Y-133537000D01*
X143322768Y-133537000D01*
X143178715Y-133769742D01*
X142335001Y-133769742D01*
X142335001Y-133050258D01*
X143178715Y-133050258D01*
X143322768Y-133283000D01*
X144523000Y-133283000D01*
X144523000Y-131939845D01*
X144777000Y-131939845D01*
X144777000Y-133283000D01*
X144797000Y-133283000D01*
X144797000Y-133537000D01*
X144777000Y-133537000D01*
X144777000Y-134880155D01*
X145006890Y-135001476D01*
X145019261Y-134999554D01*
X145293009Y-134899854D01*
X145542046Y-134748664D01*
X145756802Y-134551795D01*
X145757086Y-134551407D01*
X145811595Y-134653386D01*
X145922038Y-134787962D01*
X146056614Y-134898405D01*
X146210150Y-134980472D01*
X146376746Y-135031008D01*
X146550000Y-135048072D01*
X147750000Y-135048072D01*
X147923254Y-135031008D01*
X148089850Y-134980472D01*
X148243386Y-134898405D01*
X148377962Y-134787962D01*
X148488405Y-134653386D01*
X148570472Y-134499850D01*
X148621008Y-134333254D01*
X148638072Y-134160000D01*
X148638072Y-132660000D01*
X148621008Y-132486746D01*
X148570472Y-132320150D01*
X148488405Y-132166614D01*
X148377962Y-132032038D01*
X148243386Y-131921595D01*
X148089850Y-131839528D01*
X147923254Y-131788992D01*
X147750000Y-131771928D01*
X146550000Y-131771928D01*
X146376746Y-131788992D01*
X146210150Y-131839528D01*
X146056614Y-131921595D01*
X145922038Y-132032038D01*
X145811595Y-132166614D01*
X145757086Y-132268593D01*
X145756802Y-132268205D01*
X145542046Y-132071336D01*
X145293009Y-131920146D01*
X145019261Y-131820446D01*
X145006890Y-131818524D01*
X144777000Y-131939845D01*
X144523000Y-131939845D01*
X144293110Y-131818524D01*
X144280739Y-131820446D01*
X144006991Y-131920146D01*
X143757954Y-132071336D01*
X143543198Y-132268205D01*
X143370975Y-132503188D01*
X143247904Y-132767255D01*
X143178715Y-133050258D01*
X142335001Y-133050258D01*
X142335001Y-132172334D01*
X142338678Y-132135001D01*
X142324004Y-131986015D01*
X142280547Y-131842754D01*
X142209975Y-131710725D01*
X142138800Y-131623998D01*
X142115002Y-131595000D01*
X142086004Y-131571203D01*
X142085000Y-131570198D01*
X142085000Y-131508061D01*
X142045226Y-131308102D01*
X141967205Y-131119744D01*
X141853937Y-130950226D01*
X141709774Y-130806063D01*
X141540256Y-130692795D01*
X141351898Y-130614774D01*
X141151939Y-130575000D01*
X140948061Y-130575000D01*
X140748102Y-130614774D01*
X140559744Y-130692795D01*
X140390226Y-130806063D01*
X140246063Y-130950226D01*
X140132795Y-131119744D01*
X140054774Y-131308102D01*
X140040432Y-131380205D01*
X139992237Y-131354444D01*
X139848976Y-131310987D01*
X139737323Y-131299990D01*
X139737312Y-131299990D01*
X139699990Y-131296314D01*
X139662668Y-131299990D01*
X138367486Y-131299990D01*
X138385000Y-131211939D01*
X138385000Y-131008061D01*
X138345226Y-130808102D01*
X138267205Y-130619744D01*
X138153937Y-130450226D01*
X138009774Y-130306063D01*
X137840256Y-130192795D01*
X137651898Y-130114774D01*
X137628578Y-130110135D01*
X137652124Y-130105452D01*
X137840482Y-130027431D01*
X137926434Y-129970000D01*
X140146289Y-129970000D01*
X140190226Y-130013937D01*
X140359744Y-130127205D01*
X140548102Y-130205226D01*
X140748061Y-130245000D01*
X140951939Y-130245000D01*
X141151898Y-130205226D01*
X141340256Y-130127205D01*
X141509774Y-130013937D01*
X141653937Y-129869774D01*
X141767205Y-129700256D01*
X141845226Y-129511898D01*
X141885000Y-129311939D01*
X141885000Y-129108061D01*
X141845226Y-128908102D01*
X141767205Y-128719744D01*
X141653937Y-128550226D01*
X141509774Y-128406063D01*
X141340256Y-128292795D01*
X141151898Y-128214774D01*
X140951939Y-128175000D01*
X140748061Y-128175000D01*
X140548102Y-128214774D01*
X140359744Y-128292795D01*
X140190226Y-128406063D01*
X140146289Y-128450000D01*
X138153711Y-128450000D01*
X138010000Y-128306289D01*
X137840482Y-128193021D01*
X137652124Y-128115000D01*
X137452165Y-128075226D01*
X137248287Y-128075226D01*
X137085000Y-128107706D01*
X137085000Y-128008061D01*
X137045226Y-127808102D01*
X136967205Y-127619744D01*
X136853937Y-127450226D01*
X136709774Y-127306063D01*
X136540256Y-127192795D01*
X136351898Y-127114774D01*
X136151939Y-127075000D01*
X135948061Y-127075000D01*
X135748102Y-127114774D01*
X135559744Y-127192795D01*
X135390226Y-127306063D01*
X135246063Y-127450226D01*
X135132795Y-127619744D01*
X135054774Y-127808102D01*
X135015000Y-128008061D01*
X135015000Y-128211939D01*
X135054774Y-128411898D01*
X135132795Y-128600256D01*
X135154569Y-128632843D01*
X134481959Y-128632843D01*
X132448119Y-126599003D01*
X132424316Y-126569999D01*
X132308591Y-126475026D01*
X132176562Y-126404454D01*
X132033301Y-126360997D01*
X131921648Y-126350000D01*
X131921638Y-126350000D01*
X131884315Y-126346324D01*
X131846993Y-126350000D01*
X125753711Y-126350000D01*
X125709774Y-126306063D01*
X125540256Y-126192795D01*
X125351898Y-126114774D01*
X125151939Y-126075000D01*
X124948061Y-126075000D01*
X124748102Y-126114774D01*
X124559744Y-126192795D01*
X124390226Y-126306063D01*
X124246063Y-126450226D01*
X124132795Y-126619744D01*
X124054774Y-126808102D01*
X124015000Y-127008061D01*
X120153110Y-127008061D01*
X120088994Y-126955443D01*
X119978680Y-126896478D01*
X119858982Y-126860168D01*
X119734500Y-126847908D01*
X116734500Y-126847908D01*
X116697352Y-126851567D01*
X116697139Y-126580372D01*
X116734500Y-126584052D01*
X119734500Y-126584052D01*
X119858982Y-126571792D01*
X119978680Y-126535482D01*
X120088994Y-126476517D01*
X120185685Y-126397165D01*
X120265037Y-126300474D01*
X120324002Y-126190160D01*
X120360312Y-126070462D01*
X120372572Y-125945980D01*
X120372572Y-124945980D01*
X120360312Y-124821498D01*
X120324002Y-124701800D01*
X120265037Y-124591486D01*
X120185685Y-124494795D01*
X120088994Y-124415443D01*
X119978680Y-124356478D01*
X119858982Y-124320168D01*
X119734500Y-124307908D01*
X116734500Y-124307908D01*
X116695356Y-124311763D01*
X116695143Y-124040176D01*
X116734500Y-124044052D01*
X119734500Y-124044052D01*
X119858982Y-124031792D01*
X119978680Y-123995482D01*
X120088994Y-123936517D01*
X120185685Y-123857165D01*
X120265037Y-123760474D01*
X120324002Y-123650160D01*
X120360312Y-123530462D01*
X120372572Y-123405980D01*
X120372572Y-122405980D01*
X120360312Y-122281498D01*
X120324002Y-122161800D01*
X120265037Y-122051486D01*
X120185685Y-121954795D01*
X120088994Y-121875443D01*
X119978680Y-121816478D01*
X119858982Y-121780168D01*
X119734500Y-121767908D01*
X116734500Y-121767908D01*
X116693361Y-121771960D01*
X116693147Y-121499979D01*
X116734500Y-121504052D01*
X119734500Y-121504052D01*
X119858982Y-121491792D01*
X119978680Y-121455482D01*
X120088994Y-121396517D01*
X120185685Y-121317165D01*
X120265037Y-121220474D01*
X120324002Y-121110160D01*
X120360312Y-120990462D01*
X120372572Y-120865980D01*
X120372572Y-119865980D01*
X120360312Y-119741498D01*
X120324002Y-119621800D01*
X120265037Y-119511486D01*
X120185685Y-119414795D01*
X120088994Y-119335443D01*
X119978680Y-119276478D01*
X119858982Y-119240168D01*
X119734500Y-119227908D01*
X116734500Y-119227908D01*
X116691365Y-119232156D01*
X116691151Y-118959783D01*
X116734500Y-118964052D01*
X119734500Y-118964052D01*
X119858982Y-118951792D01*
X119978680Y-118915482D01*
X120088994Y-118856517D01*
X120148037Y-118808061D01*
X120815000Y-118808061D01*
X120815000Y-119011939D01*
X120854774Y-119211898D01*
X120932795Y-119400256D01*
X121046063Y-119569774D01*
X121190226Y-119713937D01*
X121359744Y-119827205D01*
X121548102Y-119905226D01*
X121748061Y-119945000D01*
X121951939Y-119945000D01*
X122151898Y-119905226D01*
X122340256Y-119827205D01*
X122509774Y-119713937D01*
X122653937Y-119569774D01*
X122767205Y-119400256D01*
X122845226Y-119211898D01*
X122885000Y-119011939D01*
X122885000Y-118966891D01*
X130928519Y-118966891D01*
X131025843Y-119241252D01*
X131174822Y-119491355D01*
X131369731Y-119707588D01*
X131603080Y-119881641D01*
X131865901Y-120006825D01*
X132013110Y-120051476D01*
X132243000Y-119930155D01*
X132243000Y-118737000D01*
X131049186Y-118737000D01*
X130928519Y-118966891D01*
X122885000Y-118966891D01*
X122885000Y-118808061D01*
X122845226Y-118608102D01*
X122767205Y-118419744D01*
X122747347Y-118390024D01*
X122747347Y-118253109D01*
X130928519Y-118253109D01*
X131049186Y-118483000D01*
X132243000Y-118483000D01*
X132243000Y-117289845D01*
X132497000Y-117289845D01*
X132497000Y-118483000D01*
X132517000Y-118483000D01*
X132517000Y-118737000D01*
X132497000Y-118737000D01*
X132497000Y-119930155D01*
X132726890Y-120051476D01*
X132874099Y-120006825D01*
X133136920Y-119881641D01*
X133370269Y-119707588D01*
X133565178Y-119491355D01*
X133634805Y-119374466D01*
X133756525Y-119556632D01*
X133963368Y-119763475D01*
X134206589Y-119925990D01*
X134476842Y-120037932D01*
X134763740Y-120095000D01*
X135056260Y-120095000D01*
X135276408Y-120051209D01*
X136315000Y-121089802D01*
X136315000Y-121211939D01*
X136354774Y-121411898D01*
X136432795Y-121600256D01*
X136546063Y-121769774D01*
X136690226Y-121913937D01*
X136859744Y-122027205D01*
X137048102Y-122105226D01*
X137248061Y-122145000D01*
X137451939Y-122145000D01*
X137651898Y-122105226D01*
X137840256Y-122027205D01*
X138009774Y-121913937D01*
X138153937Y-121769774D01*
X138267205Y-121600256D01*
X138304894Y-121509265D01*
X139716204Y-121509265D01*
X139716204Y-121713143D01*
X139755978Y-121913102D01*
X139833999Y-122101460D01*
X139947267Y-122270978D01*
X140091430Y-122415141D01*
X140260948Y-122528409D01*
X140449306Y-122606430D01*
X140649265Y-122646204D01*
X140711403Y-122646204D01*
X141561928Y-123496730D01*
X141561928Y-124660000D01*
X141574188Y-124784482D01*
X141610498Y-124904180D01*
X141669463Y-125014494D01*
X141748815Y-125111185D01*
X141845506Y-125190537D01*
X141955820Y-125249502D01*
X142075518Y-125285812D01*
X142200000Y-125298072D01*
X143700604Y-125298072D01*
X143709453Y-125327245D01*
X143780025Y-125459275D01*
X143851200Y-125546001D01*
X143874999Y-125575000D01*
X143903997Y-125598798D01*
X144427127Y-126121928D01*
X143600000Y-126121928D01*
X143475518Y-126134188D01*
X143355820Y-126170498D01*
X143245506Y-126229463D01*
X143148815Y-126308815D01*
X143069463Y-126405506D01*
X143010498Y-126515820D01*
X142974188Y-126635518D01*
X142961928Y-126760000D01*
X142961928Y-128460000D01*
X142974188Y-128584482D01*
X143010498Y-128704180D01*
X143069463Y-128814494D01*
X143148815Y-128911185D01*
X143245506Y-128990537D01*
X143355820Y-129049502D01*
X143475518Y-129085812D01*
X143600000Y-129098072D01*
X145300000Y-129098072D01*
X145424482Y-129085812D01*
X145544180Y-129049502D01*
X145654494Y-128990537D01*
X145751185Y-128911185D01*
X145830537Y-128814494D01*
X145889502Y-128704180D01*
X145911513Y-128631620D01*
X146043368Y-128763475D01*
X146286589Y-128925990D01*
X146556842Y-129037932D01*
X146843740Y-129095000D01*
X147136260Y-129095000D01*
X147423158Y-129037932D01*
X147693411Y-128925990D01*
X147936632Y-128763475D01*
X148143475Y-128556632D01*
X148265195Y-128374466D01*
X148334822Y-128491355D01*
X148529731Y-128707588D01*
X148763080Y-128881641D01*
X149025901Y-129006825D01*
X149173110Y-129051476D01*
X149403000Y-128930155D01*
X149403000Y-127737000D01*
X149657000Y-127737000D01*
X149657000Y-128930155D01*
X149886890Y-129051476D01*
X150034099Y-129006825D01*
X150296920Y-128881641D01*
X150530269Y-128707588D01*
X150725178Y-128491355D01*
X150874157Y-128241252D01*
X150971481Y-127966891D01*
X150850814Y-127737000D01*
X149657000Y-127737000D01*
X149403000Y-127737000D01*
X149383000Y-127737000D01*
X149383000Y-127483000D01*
X149403000Y-127483000D01*
X149403000Y-126289845D01*
X149657000Y-126289845D01*
X149657000Y-127483000D01*
X150850814Y-127483000D01*
X150971481Y-127253109D01*
X150874157Y-126978748D01*
X150725178Y-126728645D01*
X150530269Y-126512412D01*
X150296920Y-126338359D01*
X150034099Y-126213175D01*
X149886890Y-126168524D01*
X149657000Y-126289845D01*
X149403000Y-126289845D01*
X149173110Y-126168524D01*
X149025901Y-126213175D01*
X148763080Y-126338359D01*
X148529731Y-126512412D01*
X148334822Y-126728645D01*
X148265195Y-126845534D01*
X148143475Y-126663368D01*
X147936632Y-126456525D01*
X147693411Y-126294010D01*
X147423158Y-126182068D01*
X147136260Y-126125000D01*
X146843740Y-126125000D01*
X146623592Y-126168790D01*
X145747555Y-125292753D01*
X146023158Y-125237932D01*
X146293411Y-125125990D01*
X146536632Y-124963475D01*
X146743475Y-124756632D01*
X146860000Y-124582240D01*
X146976525Y-124756632D01*
X147183368Y-124963475D01*
X147426589Y-125125990D01*
X147696842Y-125237932D01*
X147983740Y-125295000D01*
X148276260Y-125295000D01*
X148563158Y-125237932D01*
X148833411Y-125125990D01*
X149076632Y-124963475D01*
X149283475Y-124756632D01*
X149445990Y-124513411D01*
X149557932Y-124243158D01*
X149615000Y-123956260D01*
X149615000Y-123663740D01*
X149557932Y-123376842D01*
X149445990Y-123106589D01*
X149283475Y-122863368D01*
X149076632Y-122656525D01*
X148900594Y-122538900D01*
X149130269Y-122367588D01*
X149325178Y-122151355D01*
X149474157Y-121901252D01*
X149571481Y-121626891D01*
X149450814Y-121397000D01*
X148257000Y-121397000D01*
X148257000Y-121417000D01*
X148003000Y-121417000D01*
X148003000Y-121397000D01*
X147983000Y-121397000D01*
X147983000Y-121143000D01*
X148003000Y-121143000D01*
X148003000Y-119949845D01*
X148257000Y-119949845D01*
X148257000Y-121143000D01*
X149450814Y-121143000D01*
X149571481Y-120913109D01*
X149474157Y-120638748D01*
X149325178Y-120388645D01*
X149130269Y-120172412D01*
X148896920Y-119998359D01*
X148634099Y-119873175D01*
X148486890Y-119828524D01*
X148257000Y-119949845D01*
X148003000Y-119949845D01*
X147773110Y-119828524D01*
X147625901Y-119873175D01*
X147363080Y-119998359D01*
X147129731Y-120172412D01*
X146934822Y-120388645D01*
X146865195Y-120505534D01*
X146743475Y-120323368D01*
X146536632Y-120116525D01*
X146293411Y-119954010D01*
X146023158Y-119842068D01*
X145736260Y-119785000D01*
X145443740Y-119785000D01*
X145156842Y-119842068D01*
X144886589Y-119954010D01*
X144643368Y-120116525D01*
X144436525Y-120323368D01*
X144320000Y-120497760D01*
X144203475Y-120323368D01*
X143996632Y-120116525D01*
X143753411Y-119954010D01*
X143483158Y-119842068D01*
X143196260Y-119785000D01*
X142903740Y-119785000D01*
X142616842Y-119842068D01*
X142346589Y-119954010D01*
X142103368Y-120116525D01*
X141896525Y-120323368D01*
X141734010Y-120566589D01*
X141622068Y-120836842D01*
X141589150Y-121002329D01*
X141555141Y-120951430D01*
X141410978Y-120807267D01*
X141241460Y-120693999D01*
X141053102Y-120615978D01*
X140853143Y-120576204D01*
X140649265Y-120576204D01*
X140449306Y-120615978D01*
X140260948Y-120693999D01*
X140091430Y-120807267D01*
X139947267Y-120951430D01*
X139833999Y-121120948D01*
X139755978Y-121309306D01*
X139716204Y-121509265D01*
X138304894Y-121509265D01*
X138345226Y-121411898D01*
X138385000Y-121211939D01*
X138385000Y-121008061D01*
X138345226Y-120808102D01*
X138267205Y-120619744D01*
X138153937Y-120450226D01*
X138009774Y-120306063D01*
X137840256Y-120192795D01*
X137651898Y-120114774D01*
X137567931Y-120098072D01*
X138300000Y-120098072D01*
X138424482Y-120085812D01*
X138544180Y-120049502D01*
X138654494Y-119990537D01*
X138751185Y-119911185D01*
X138830537Y-119814494D01*
X138889502Y-119704180D01*
X138918659Y-119608061D01*
X156415000Y-119608061D01*
X156415000Y-119811939D01*
X156454774Y-120011898D01*
X156532795Y-120200256D01*
X156646063Y-120369774D01*
X156690000Y-120413711D01*
X156690000Y-120906992D01*
X156686324Y-120944315D01*
X156690000Y-120981637D01*
X156690000Y-120981647D01*
X156700997Y-121093300D01*
X156733056Y-121198985D01*
X156737305Y-121212994D01*
X156732795Y-121219744D01*
X156654774Y-121408102D01*
X156615000Y-121608061D01*
X156615000Y-121811939D01*
X156654774Y-122011898D01*
X156732795Y-122200256D01*
X156846063Y-122369774D01*
X156990226Y-122513937D01*
X157159744Y-122627205D01*
X157348102Y-122705226D01*
X157548061Y-122745000D01*
X157751939Y-122745000D01*
X157951898Y-122705226D01*
X158140256Y-122627205D01*
X158226469Y-122569599D01*
X158254774Y-122711898D01*
X158332795Y-122900256D01*
X158446063Y-123069774D01*
X158590226Y-123213937D01*
X158759744Y-123327205D01*
X158948102Y-123405226D01*
X159148061Y-123445000D01*
X159351939Y-123445000D01*
X159551898Y-123405226D01*
X159740256Y-123327205D01*
X159909774Y-123213937D01*
X160053937Y-123069774D01*
X160167205Y-122900256D01*
X160245226Y-122711898D01*
X160285000Y-122511939D01*
X160285000Y-122308061D01*
X160245226Y-122108102D01*
X160167205Y-121919744D01*
X160053937Y-121750226D01*
X159909774Y-121606063D01*
X159740256Y-121492795D01*
X159551898Y-121414774D01*
X159351939Y-121375000D01*
X159148061Y-121375000D01*
X158948102Y-121414774D01*
X158759744Y-121492795D01*
X158673531Y-121550401D01*
X158645226Y-121408102D01*
X158567205Y-121219744D01*
X158453937Y-121050226D01*
X158398987Y-120995276D01*
X158355546Y-120852068D01*
X158284974Y-120720039D01*
X158210000Y-120628683D01*
X158210000Y-120413711D01*
X158253937Y-120369774D01*
X158367205Y-120200256D01*
X158445226Y-120011898D01*
X158485000Y-119811939D01*
X158485000Y-119608061D01*
X158445226Y-119408102D01*
X158367205Y-119219744D01*
X158253937Y-119050226D01*
X158109774Y-118906063D01*
X157940256Y-118792795D01*
X157751898Y-118714774D01*
X157551939Y-118675000D01*
X157348061Y-118675000D01*
X157148102Y-118714774D01*
X156959744Y-118792795D01*
X156790226Y-118906063D01*
X156646063Y-119050226D01*
X156532795Y-119219744D01*
X156454774Y-119408102D01*
X156415000Y-119608061D01*
X138918659Y-119608061D01*
X138925812Y-119584482D01*
X138938072Y-119460000D01*
X138938072Y-117760000D01*
X138925812Y-117635518D01*
X138889502Y-117515820D01*
X138830537Y-117405506D01*
X138751185Y-117308815D01*
X138654494Y-117229463D01*
X138544180Y-117170498D01*
X138424482Y-117134188D01*
X138300000Y-117121928D01*
X136600000Y-117121928D01*
X136475518Y-117134188D01*
X136355820Y-117170498D01*
X136245506Y-117229463D01*
X136148815Y-117308815D01*
X136069463Y-117405506D01*
X136010498Y-117515820D01*
X135988487Y-117588380D01*
X135856632Y-117456525D01*
X135613411Y-117294010D01*
X135343158Y-117182068D01*
X135056260Y-117125000D01*
X134763740Y-117125000D01*
X134476842Y-117182068D01*
X134206589Y-117294010D01*
X133963368Y-117456525D01*
X133756525Y-117663368D01*
X133634805Y-117845534D01*
X133565178Y-117728645D01*
X133370269Y-117512412D01*
X133136920Y-117338359D01*
X132874099Y-117213175D01*
X132726890Y-117168524D01*
X132497000Y-117289845D01*
X132243000Y-117289845D01*
X132013110Y-117168524D01*
X131865901Y-117213175D01*
X131603080Y-117338359D01*
X131369731Y-117512412D01*
X131174822Y-117728645D01*
X131025843Y-117978748D01*
X130928519Y-118253109D01*
X122747347Y-118253109D01*
X122747347Y-117681269D01*
X125808336Y-117681269D01*
X125867797Y-117915037D01*
X126106242Y-118025934D01*
X126361740Y-118088183D01*
X126624473Y-118099390D01*
X126884344Y-118059125D01*
X127131366Y-117968935D01*
X127232203Y-117915037D01*
X127291664Y-117681269D01*
X126550000Y-116939605D01*
X125808336Y-117681269D01*
X122747347Y-117681269D01*
X122747347Y-117251058D01*
X122791284Y-117207121D01*
X122904552Y-117037603D01*
X122982573Y-116849245D01*
X123022347Y-116649286D01*
X123022347Y-116445408D01*
X123002390Y-116345077D01*
X123013038Y-116361013D01*
X123198987Y-116546962D01*
X123417641Y-116693061D01*
X123660595Y-116793696D01*
X123918514Y-116845000D01*
X124181486Y-116845000D01*
X124234408Y-116834473D01*
X125210610Y-116834473D01*
X125250875Y-117094344D01*
X125341065Y-117341366D01*
X125394963Y-117442203D01*
X125628731Y-117501664D01*
X126370395Y-116760000D01*
X126729605Y-116760000D01*
X127471269Y-117501664D01*
X127705037Y-117442203D01*
X127815934Y-117203758D01*
X127878183Y-116948260D01*
X127889390Y-116685527D01*
X127849125Y-116425656D01*
X127758935Y-116178634D01*
X127705037Y-116077797D01*
X127471269Y-116018336D01*
X126729605Y-116760000D01*
X126370395Y-116760000D01*
X125628731Y-116018336D01*
X125394963Y-116077797D01*
X125284066Y-116316242D01*
X125221817Y-116571740D01*
X125210610Y-116834473D01*
X124234408Y-116834473D01*
X124439405Y-116793696D01*
X124682359Y-116693061D01*
X124901013Y-116546962D01*
X125086962Y-116361013D01*
X125233061Y-116142359D01*
X125333696Y-115899405D01*
X125385000Y-115641486D01*
X125385000Y-115378514D01*
X125333696Y-115120595D01*
X125233061Y-114877641D01*
X125086962Y-114658987D01*
X124901013Y-114473038D01*
X124682359Y-114326939D01*
X124520754Y-114260000D01*
X124682359Y-114193061D01*
X124901013Y-114046962D01*
X125086962Y-113861013D01*
X125233061Y-113642359D01*
X125333696Y-113399405D01*
X125385000Y-113141486D01*
X125385000Y-112878514D01*
X125333696Y-112620595D01*
X125233061Y-112377641D01*
X125086962Y-112158987D01*
X124901013Y-111973038D01*
X124682359Y-111826939D01*
X124519882Y-111759639D01*
X124631366Y-111718935D01*
X124732203Y-111665037D01*
X124741492Y-111628514D01*
X125215000Y-111628514D01*
X125215000Y-111891486D01*
X125266304Y-112149405D01*
X125366939Y-112392359D01*
X125513038Y-112611013D01*
X125698987Y-112796962D01*
X125917641Y-112943061D01*
X126079246Y-113010000D01*
X125917641Y-113076939D01*
X125698987Y-113223038D01*
X125513038Y-113408987D01*
X125366939Y-113627641D01*
X125266304Y-113870595D01*
X125215000Y-114128514D01*
X125215000Y-114391486D01*
X125266304Y-114649405D01*
X125366939Y-114892359D01*
X125513038Y-115111013D01*
X125698987Y-115296962D01*
X125917641Y-115443061D01*
X126080118Y-115510361D01*
X125968634Y-115551065D01*
X125867797Y-115604963D01*
X125808336Y-115838731D01*
X126550000Y-116580395D01*
X127291664Y-115838731D01*
X127232203Y-115604963D01*
X127024596Y-115508408D01*
X127182359Y-115443061D01*
X127401013Y-115296962D01*
X127586962Y-115111013D01*
X127733061Y-114892359D01*
X127833696Y-114649405D01*
X127849542Y-114569742D01*
X140878715Y-114569742D01*
X140947904Y-114852745D01*
X141070975Y-115116812D01*
X141243198Y-115351795D01*
X141457954Y-115548664D01*
X141706991Y-115699854D01*
X141980739Y-115799554D01*
X141993110Y-115801476D01*
X142223000Y-115680155D01*
X142223000Y-114337000D01*
X141022768Y-114337000D01*
X140878715Y-114569742D01*
X127849542Y-114569742D01*
X127885000Y-114391486D01*
X127885000Y-114128514D01*
X127833696Y-113870595D01*
X127825273Y-113850258D01*
X140878715Y-113850258D01*
X141022768Y-114083000D01*
X142223000Y-114083000D01*
X142223000Y-112739845D01*
X142477000Y-112739845D01*
X142477000Y-114083000D01*
X142497000Y-114083000D01*
X142497000Y-114337000D01*
X142477000Y-114337000D01*
X142477000Y-115680155D01*
X142706890Y-115801476D01*
X142719261Y-115799554D01*
X142993009Y-115699854D01*
X143242046Y-115548664D01*
X143456802Y-115351795D01*
X143457086Y-115351407D01*
X143511595Y-115453386D01*
X143622038Y-115587962D01*
X143756614Y-115698405D01*
X143910150Y-115780472D01*
X144076746Y-115831008D01*
X144250000Y-115848072D01*
X145450000Y-115848072D01*
X145623254Y-115831008D01*
X145789850Y-115780472D01*
X145943386Y-115698405D01*
X146077962Y-115587962D01*
X146188405Y-115453386D01*
X146270472Y-115299850D01*
X146321008Y-115133254D01*
X146338072Y-114960000D01*
X146338072Y-113460000D01*
X146321008Y-113286746D01*
X146270472Y-113120150D01*
X146188405Y-112966614D01*
X146077962Y-112832038D01*
X145943386Y-112721595D01*
X145789850Y-112639528D01*
X145623254Y-112588992D01*
X145450000Y-112571928D01*
X144250000Y-112571928D01*
X144076746Y-112588992D01*
X143910150Y-112639528D01*
X143756614Y-112721595D01*
X143622038Y-112832038D01*
X143511595Y-112966614D01*
X143457086Y-113068593D01*
X143456802Y-113068205D01*
X143242046Y-112871336D01*
X142993009Y-112720146D01*
X142719261Y-112620446D01*
X142706890Y-112618524D01*
X142477000Y-112739845D01*
X142223000Y-112739845D01*
X141993110Y-112618524D01*
X141980739Y-112620446D01*
X141706991Y-112720146D01*
X141457954Y-112871336D01*
X141243198Y-113068205D01*
X141070975Y-113303188D01*
X140947904Y-113567255D01*
X140878715Y-113850258D01*
X127825273Y-113850258D01*
X127733061Y-113627641D01*
X127586962Y-113408987D01*
X127401013Y-113223038D01*
X127182359Y-113076939D01*
X127020754Y-113010000D01*
X127182359Y-112943061D01*
X127401013Y-112796962D01*
X127586962Y-112611013D01*
X127733061Y-112392359D01*
X127833696Y-112149405D01*
X127885000Y-111891486D01*
X127885000Y-111628514D01*
X127833696Y-111370595D01*
X127733061Y-111127641D01*
X127586962Y-110908987D01*
X127401013Y-110723038D01*
X127182359Y-110576939D01*
X126939405Y-110476304D01*
X126681486Y-110425000D01*
X126418514Y-110425000D01*
X126160595Y-110476304D01*
X125917641Y-110576939D01*
X125698987Y-110723038D01*
X125513038Y-110908987D01*
X125366939Y-111127641D01*
X125266304Y-111370595D01*
X125215000Y-111628514D01*
X124741492Y-111628514D01*
X124791664Y-111431269D01*
X124050000Y-110689605D01*
X123308336Y-111431269D01*
X123367797Y-111665037D01*
X123575404Y-111761592D01*
X123417641Y-111826939D01*
X123198987Y-111973038D01*
X123013038Y-112158987D01*
X122866939Y-112377641D01*
X122766304Y-112620595D01*
X122715000Y-112878514D01*
X122715000Y-113141486D01*
X122766304Y-113399405D01*
X122866939Y-113642359D01*
X123013038Y-113861013D01*
X123198987Y-114046962D01*
X123417641Y-114193061D01*
X123579246Y-114260000D01*
X123417641Y-114326939D01*
X123198987Y-114473038D01*
X123013038Y-114658987D01*
X122866939Y-114877641D01*
X122766304Y-115120595D01*
X122715000Y-115378514D01*
X122715000Y-115641486D01*
X122757163Y-115853452D01*
X122647121Y-115743410D01*
X122477603Y-115630142D01*
X122289245Y-115552121D01*
X122089286Y-115512347D01*
X121885408Y-115512347D01*
X121685449Y-115552121D01*
X121497091Y-115630142D01*
X121327573Y-115743410D01*
X121183410Y-115887573D01*
X121070142Y-116057091D01*
X120992121Y-116245449D01*
X120952347Y-116445408D01*
X120952347Y-116649286D01*
X120992121Y-116849245D01*
X121070142Y-117037603D01*
X121183410Y-117207121D01*
X121227347Y-117251058D01*
X121227348Y-118081259D01*
X121190226Y-118106063D01*
X121046063Y-118250226D01*
X120932795Y-118419744D01*
X120854774Y-118608102D01*
X120815000Y-118808061D01*
X120148037Y-118808061D01*
X120185685Y-118777165D01*
X120265037Y-118680474D01*
X120324002Y-118570160D01*
X120360312Y-118450462D01*
X120372572Y-118325980D01*
X120372572Y-117325980D01*
X120360312Y-117201498D01*
X120324002Y-117081800D01*
X120265037Y-116971486D01*
X120185685Y-116874795D01*
X120088994Y-116795443D01*
X119978680Y-116736478D01*
X119858982Y-116700168D01*
X119734500Y-116687908D01*
X116734500Y-116687908D01*
X116689370Y-116692353D01*
X116689155Y-116419586D01*
X116734500Y-116424052D01*
X119734500Y-116424052D01*
X119858982Y-116411792D01*
X119978680Y-116375482D01*
X120088994Y-116316517D01*
X120185685Y-116237165D01*
X120265037Y-116140474D01*
X120324002Y-116030160D01*
X120360312Y-115910462D01*
X120372572Y-115785980D01*
X120372572Y-114785980D01*
X120360312Y-114661498D01*
X120324002Y-114541800D01*
X120265037Y-114431486D01*
X120185685Y-114334795D01*
X120088994Y-114255443D01*
X119978680Y-114196478D01*
X119858982Y-114160168D01*
X119734500Y-114147908D01*
X116734500Y-114147908D01*
X116687374Y-114152549D01*
X116687159Y-113879390D01*
X116734500Y-113884052D01*
X119734500Y-113884052D01*
X119858982Y-113871792D01*
X119978680Y-113835482D01*
X120088994Y-113776517D01*
X120185685Y-113697165D01*
X120265037Y-113600474D01*
X120324002Y-113490160D01*
X120360312Y-113370462D01*
X120372572Y-113245980D01*
X120372572Y-112245980D01*
X120360312Y-112121498D01*
X120324002Y-112001800D01*
X120265037Y-111891486D01*
X120185685Y-111794795D01*
X120088994Y-111715443D01*
X119978680Y-111656478D01*
X119858982Y-111620168D01*
X119734500Y-111607908D01*
X116734500Y-111607908D01*
X116685378Y-111612746D01*
X116685164Y-111339193D01*
X116734500Y-111344052D01*
X119734500Y-111344052D01*
X119858982Y-111331792D01*
X119978680Y-111295482D01*
X120088994Y-111236517D01*
X120185685Y-111157165D01*
X120265037Y-111060474D01*
X120324002Y-110950160D01*
X120360312Y-110830462D01*
X120372572Y-110705980D01*
X120372572Y-110584473D01*
X122710610Y-110584473D01*
X122750875Y-110844344D01*
X122841065Y-111091366D01*
X122894963Y-111192203D01*
X123128731Y-111251664D01*
X123870395Y-110510000D01*
X124229605Y-110510000D01*
X124971269Y-111251664D01*
X125205037Y-111192203D01*
X125315934Y-110953758D01*
X125378183Y-110698260D01*
X125389390Y-110435527D01*
X125349125Y-110175656D01*
X125258935Y-109928634D01*
X125235831Y-109885408D01*
X130492347Y-109885408D01*
X130492347Y-110089286D01*
X130532121Y-110289245D01*
X130610142Y-110477603D01*
X130723410Y-110647121D01*
X130867573Y-110791284D01*
X131037091Y-110904552D01*
X131092845Y-110927646D01*
X131367653Y-111202454D01*
X131367653Y-111264592D01*
X131407427Y-111464551D01*
X131485448Y-111652909D01*
X131598716Y-111822427D01*
X131742879Y-111966590D01*
X131912397Y-112079858D01*
X132100755Y-112157879D01*
X132300714Y-112197653D01*
X132504592Y-112197653D01*
X132704551Y-112157879D01*
X132892909Y-112079858D01*
X133062427Y-111966590D01*
X133206590Y-111822427D01*
X133319858Y-111652909D01*
X133397879Y-111464551D01*
X133437653Y-111264592D01*
X133437653Y-111060714D01*
X133397879Y-110860755D01*
X133319858Y-110672397D01*
X133206590Y-110502879D01*
X133062427Y-110358716D01*
X132892909Y-110245448D01*
X132704551Y-110167427D01*
X132552808Y-110137244D01*
X132562347Y-110089286D01*
X132562347Y-109885408D01*
X132522573Y-109685449D01*
X132444552Y-109497091D01*
X132331284Y-109327573D01*
X132187121Y-109183410D01*
X132017603Y-109070142D01*
X131829245Y-108992121D01*
X131629286Y-108952347D01*
X131425408Y-108952347D01*
X131225449Y-108992121D01*
X131037091Y-109070142D01*
X130867573Y-109183410D01*
X130723410Y-109327573D01*
X130610142Y-109497091D01*
X130532121Y-109685449D01*
X130492347Y-109885408D01*
X125235831Y-109885408D01*
X125205037Y-109827797D01*
X124971269Y-109768336D01*
X124229605Y-110510000D01*
X123870395Y-110510000D01*
X123128731Y-109768336D01*
X122894963Y-109827797D01*
X122784066Y-110066242D01*
X122721817Y-110321740D01*
X122710610Y-110584473D01*
X120372572Y-110584473D01*
X120372572Y-109705980D01*
X120361025Y-109588731D01*
X123308336Y-109588731D01*
X124050000Y-110330395D01*
X124791664Y-109588731D01*
X124732203Y-109354963D01*
X124493758Y-109244066D01*
X124238260Y-109181817D01*
X123975527Y-109170610D01*
X123715656Y-109210875D01*
X123468634Y-109301065D01*
X123367797Y-109354963D01*
X123308336Y-109588731D01*
X120361025Y-109588731D01*
X120360312Y-109581498D01*
X120324002Y-109461800D01*
X120265037Y-109351486D01*
X120185685Y-109254795D01*
X120088994Y-109175443D01*
X119978680Y-109116478D01*
X119858982Y-109080168D01*
X119734500Y-109067908D01*
X116734500Y-109067908D01*
X116683383Y-109072942D01*
X116683168Y-108798996D01*
X116734500Y-108804052D01*
X119734500Y-108804052D01*
X119858982Y-108791792D01*
X119978680Y-108755482D01*
X120088994Y-108696517D01*
X120185685Y-108617165D01*
X120265037Y-108520474D01*
X120324002Y-108410160D01*
X120360312Y-108290462D01*
X120372572Y-108165980D01*
X120372572Y-107165980D01*
X120360312Y-107041498D01*
X120324002Y-106921800D01*
X120265037Y-106811486D01*
X120185685Y-106714795D01*
X120088994Y-106635443D01*
X119978680Y-106576478D01*
X119858982Y-106540168D01*
X119734500Y-106527908D01*
X116734500Y-106527908D01*
X116681387Y-106533139D01*
X116681172Y-106258800D01*
X116734500Y-106264052D01*
X119734500Y-106264052D01*
X119858982Y-106251792D01*
X119978680Y-106215482D01*
X120088994Y-106156517D01*
X120185685Y-106077165D01*
X120265037Y-105980474D01*
X120324002Y-105870160D01*
X120360312Y-105750462D01*
X120372572Y-105625980D01*
X120372572Y-104625980D01*
X120360312Y-104501498D01*
X120324002Y-104381800D01*
X120265037Y-104271486D01*
X120185685Y-104174795D01*
X120088994Y-104095443D01*
X119978680Y-104036478D01*
X119858982Y-104000168D01*
X119734500Y-103987908D01*
X116734500Y-103987908D01*
X116679392Y-103993336D01*
X116679176Y-103718603D01*
X116734500Y-103724052D01*
X117948750Y-103720980D01*
X118107500Y-103562230D01*
X118107500Y-102712980D01*
X118361500Y-102712980D01*
X118361500Y-103562230D01*
X118520250Y-103720980D01*
X119734500Y-103724052D01*
X119858982Y-103711792D01*
X119978680Y-103675482D01*
X120088994Y-103616517D01*
X120185685Y-103537165D01*
X120265037Y-103440474D01*
X120324002Y-103330160D01*
X120360312Y-103210462D01*
X120372572Y-103085980D01*
X120369500Y-102871730D01*
X120210750Y-102712980D01*
X118361500Y-102712980D01*
X118107500Y-102712980D01*
X118087500Y-102712980D01*
X118087500Y-102458980D01*
X118107500Y-102458980D01*
X118107500Y-101609730D01*
X118361500Y-101609730D01*
X118361500Y-102458980D01*
X120210750Y-102458980D01*
X120369500Y-102300230D01*
X120372572Y-102085980D01*
X120360312Y-101961498D01*
X120324002Y-101841800D01*
X120265037Y-101731486D01*
X120185685Y-101634795D01*
X120088994Y-101555443D01*
X119978680Y-101496478D01*
X119858982Y-101460168D01*
X119734500Y-101447908D01*
X118520250Y-101450980D01*
X118361500Y-101609730D01*
X118107500Y-101609730D01*
X117948750Y-101450980D01*
X116734500Y-101447908D01*
X116677396Y-101453532D01*
X116677100Y-101076625D01*
X167165857Y-100927656D01*
X168315001Y-102076801D01*
G37*
X168315001Y-102076801D02*
X168315002Y-113714846D01*
X168300997Y-113761015D01*
X168290000Y-113872668D01*
X168290000Y-113872678D01*
X168286324Y-113910000D01*
X168290000Y-113947323D01*
X168290000Y-114206289D01*
X168246063Y-114250226D01*
X168132795Y-114419744D01*
X168054774Y-114608102D01*
X168015000Y-114808061D01*
X168015000Y-115011939D01*
X168054774Y-115211898D01*
X168132795Y-115400256D01*
X168246063Y-115569774D01*
X168390226Y-115713937D01*
X168559744Y-115827205D01*
X168748102Y-115905226D01*
X168948061Y-115945000D01*
X169151939Y-115945000D01*
X169340001Y-115907593D01*
X169340000Y-158315000D01*
X116722074Y-158315000D01*
X116717098Y-151982338D01*
X116734500Y-151984052D01*
X117580174Y-151984052D01*
X117599526Y-152020256D01*
X117618036Y-152042810D01*
X117694499Y-152135981D01*
X117723503Y-152159784D01*
X119784721Y-154221003D01*
X119808519Y-154250001D01*
X119924244Y-154344974D01*
X120056273Y-154415546D01*
X120199534Y-154459003D01*
X120311187Y-154470000D01*
X120311195Y-154470000D01*
X120348520Y-154473676D01*
X120385845Y-154470000D01*
X121861928Y-154470000D01*
X121861928Y-154560000D01*
X121874188Y-154684482D01*
X121910498Y-154804180D01*
X121969463Y-154914494D01*
X122048815Y-155011185D01*
X122145506Y-155090537D01*
X122255820Y-155149502D01*
X122375518Y-155185812D01*
X122500000Y-155198072D01*
X124200000Y-155198072D01*
X124324482Y-155185812D01*
X124444180Y-155149502D01*
X124554494Y-155090537D01*
X124651185Y-155011185D01*
X124730537Y-154914494D01*
X124789502Y-154804180D01*
X124813966Y-154723534D01*
X124889731Y-154807588D01*
X125123080Y-154981641D01*
X125385901Y-155106825D01*
X125533110Y-155151476D01*
X125763000Y-155030155D01*
X125763000Y-153837000D01*
X126017000Y-153837000D01*
X126017000Y-155030155D01*
X126246890Y-155151476D01*
X126394099Y-155106825D01*
X126656920Y-154981641D01*
X126890269Y-154807588D01*
X127085178Y-154591355D01*
X127234157Y-154341252D01*
X127331481Y-154066891D01*
X127210814Y-153837000D01*
X126017000Y-153837000D01*
X125763000Y-153837000D01*
X125743000Y-153837000D01*
X125743000Y-153583000D01*
X125763000Y-153583000D01*
X125763000Y-152389845D01*
X126017000Y-152389845D01*
X126017000Y-153583000D01*
X127210814Y-153583000D01*
X127331481Y-153353109D01*
X127234157Y-153078748D01*
X127085178Y-152828645D01*
X126890269Y-152612412D01*
X126656920Y-152438359D01*
X126394099Y-152313175D01*
X126246890Y-152268524D01*
X126017000Y-152389845D01*
X125763000Y-152389845D01*
X125533110Y-152268524D01*
X125385901Y-152313175D01*
X125123080Y-152438359D01*
X124889731Y-152612412D01*
X124813966Y-152696466D01*
X124789502Y-152615820D01*
X124730537Y-152505506D01*
X124651185Y-152408815D01*
X124554494Y-152329463D01*
X124444180Y-152270498D01*
X124324482Y-152234188D01*
X124200000Y-152221928D01*
X122500000Y-152221928D01*
X122375518Y-152234188D01*
X122255820Y-152270498D01*
X122145506Y-152329463D01*
X122048815Y-152408815D01*
X121969463Y-152505506D01*
X121910498Y-152615820D01*
X121874188Y-152735518D01*
X121861928Y-152860000D01*
X121861928Y-152950000D01*
X120663322Y-152950000D01*
X119697373Y-151984052D01*
X119734500Y-151984052D01*
X119858982Y-151971792D01*
X119978680Y-151935482D01*
X120088994Y-151876517D01*
X120185685Y-151797165D01*
X120265037Y-151700474D01*
X120324002Y-151590160D01*
X120360312Y-151470462D01*
X120372572Y-151345980D01*
X120372572Y-150345980D01*
X120360312Y-150221498D01*
X120324002Y-150101800D01*
X120265037Y-149991486D01*
X120185685Y-149894795D01*
X120088994Y-149815443D01*
X119978680Y-149756478D01*
X119858982Y-149720168D01*
X119734500Y-149707908D01*
X116734500Y-149707908D01*
X116715312Y-149709798D01*
X116715102Y-149442142D01*
X116734500Y-149444052D01*
X119734500Y-149444052D01*
X119858982Y-149431792D01*
X119978680Y-149395482D01*
X120088994Y-149336517D01*
X120185685Y-149257165D01*
X120265037Y-149160474D01*
X120324002Y-149050160D01*
X120360312Y-148930462D01*
X120372572Y-148805980D01*
X120372572Y-147805980D01*
X120360312Y-147681498D01*
X120324002Y-147561800D01*
X120265037Y-147451486D01*
X120185685Y-147354795D01*
X120088994Y-147275443D01*
X119978680Y-147216478D01*
X119858982Y-147180168D01*
X119734500Y-147167908D01*
X116734500Y-147167908D01*
X116713317Y-147169994D01*
X116713106Y-146901945D01*
X116734500Y-146904052D01*
X119734500Y-146904052D01*
X119858982Y-146891792D01*
X119978680Y-146855482D01*
X120088994Y-146796517D01*
X120185685Y-146717165D01*
X120265037Y-146620474D01*
X120324002Y-146510160D01*
X120360312Y-146390462D01*
X120372572Y-146265980D01*
X120372572Y-145265980D01*
X120360312Y-145141498D01*
X120324002Y-145021800D01*
X120265037Y-144911486D01*
X120185685Y-144814795D01*
X120088994Y-144735443D01*
X119978680Y-144676478D01*
X119858982Y-144640168D01*
X119734500Y-144627908D01*
X116734500Y-144627908D01*
X116711321Y-144630191D01*
X116711110Y-144361748D01*
X116734500Y-144364052D01*
X119734500Y-144364052D01*
X119858982Y-144351792D01*
X119978680Y-144315482D01*
X120088994Y-144256517D01*
X120185685Y-144177165D01*
X120265037Y-144080474D01*
X120324002Y-143970160D01*
X120360312Y-143850462D01*
X120372572Y-143725980D01*
X120372572Y-142725980D01*
X120360312Y-142601498D01*
X120324002Y-142481800D01*
X120265037Y-142371486D01*
X120185685Y-142274795D01*
X120088994Y-142195443D01*
X119978680Y-142136478D01*
X119858982Y-142100168D01*
X119734500Y-142087908D01*
X116734500Y-142087908D01*
X116709326Y-142090387D01*
X116709114Y-141821552D01*
X116734500Y-141824052D01*
X119734500Y-141824052D01*
X119858982Y-141811792D01*
X119978680Y-141775482D01*
X120088994Y-141716517D01*
X120185685Y-141637165D01*
X120265037Y-141540474D01*
X120324002Y-141430160D01*
X120360312Y-141310462D01*
X120372572Y-141185980D01*
X120372572Y-140185980D01*
X120360312Y-140061498D01*
X120324002Y-139941800D01*
X120265037Y-139831486D01*
X120245813Y-139808061D01*
X122015000Y-139808061D01*
X122015000Y-140011939D01*
X122054774Y-140211898D01*
X122132795Y-140400256D01*
X122246063Y-140569774D01*
X122390226Y-140713937D01*
X122559744Y-140827205D01*
X122748102Y-140905226D01*
X122948061Y-140945000D01*
X123151939Y-140945000D01*
X123351898Y-140905226D01*
X123540256Y-140827205D01*
X123709774Y-140713937D01*
X123853937Y-140569774D01*
X123967205Y-140400256D01*
X124045226Y-140211898D01*
X124085000Y-140011939D01*
X124085000Y-139808061D01*
X124045226Y-139608102D01*
X123967205Y-139419744D01*
X123853937Y-139250226D01*
X123709774Y-139106063D01*
X123540256Y-138992795D01*
X123351898Y-138914774D01*
X123151939Y-138875000D01*
X122948061Y-138875000D01*
X122748102Y-138914774D01*
X122559744Y-138992795D01*
X122390226Y-139106063D01*
X122246063Y-139250226D01*
X122132795Y-139419744D01*
X122054774Y-139608102D01*
X122015000Y-139808061D01*
X120245813Y-139808061D01*
X120185685Y-139734795D01*
X120088994Y-139655443D01*
X119978680Y-139596478D01*
X119858982Y-139560168D01*
X119734500Y-139547908D01*
X116734500Y-139547908D01*
X116707330Y-139550584D01*
X116707118Y-139281355D01*
X116734500Y-139284052D01*
X119734500Y-139284052D01*
X119858982Y-139271792D01*
X119978680Y-139235482D01*
X120088994Y-139176517D01*
X120185685Y-139097165D01*
X120265037Y-139000474D01*
X120324002Y-138890160D01*
X120360312Y-138770462D01*
X120372572Y-138645980D01*
X120372572Y-137645980D01*
X120368838Y-137608061D01*
X126415000Y-137608061D01*
X126415000Y-137811939D01*
X126454774Y-138011898D01*
X126532795Y-138200256D01*
X126646063Y-138369774D01*
X126690001Y-138413712D01*
X126690000Y-146672678D01*
X126686324Y-146710000D01*
X126690000Y-146747322D01*
X126690000Y-146747332D01*
X126700997Y-146858985D01*
X126714668Y-146904052D01*
X126744454Y-147002246D01*
X126815026Y-147134276D01*
X126852689Y-147180168D01*
X126909999Y-147250001D01*
X126939002Y-147273803D01*
X127586205Y-147921008D01*
X127609999Y-147950001D01*
X127638992Y-147973795D01*
X127638996Y-147973799D01*
X127709685Y-148031811D01*
X127725724Y-148044974D01*
X127761928Y-148064326D01*
X127761928Y-148260000D01*
X127774188Y-148384482D01*
X127810498Y-148504180D01*
X127869463Y-148614494D01*
X127948815Y-148711185D01*
X128045506Y-148790537D01*
X128155820Y-148849502D01*
X128234000Y-148873218D01*
X128234000Y-149060098D01*
X128229085Y-149110000D01*
X128234000Y-149159901D01*
X128248702Y-149309170D01*
X128306798Y-149500686D01*
X128401140Y-149677190D01*
X128528104Y-149831896D01*
X128566872Y-149863712D01*
X131313452Y-152610293D01*
X131310498Y-152615820D01*
X131288487Y-152688380D01*
X131156632Y-152556525D01*
X130913411Y-152394010D01*
X130643158Y-152282068D01*
X130356260Y-152225000D01*
X130063740Y-152225000D01*
X129776842Y-152282068D01*
X129506589Y-152394010D01*
X129263368Y-152556525D01*
X129056525Y-152763368D01*
X128894010Y-153006589D01*
X128782068Y-153276842D01*
X128725000Y-153563740D01*
X128725000Y-153856260D01*
X128782068Y-154143158D01*
X128894010Y-154413411D01*
X129056525Y-154656632D01*
X129263368Y-154863475D01*
X129506589Y-155025990D01*
X129776842Y-155137932D01*
X130063740Y-155195000D01*
X130356260Y-155195000D01*
X130643158Y-155137932D01*
X130913411Y-155025990D01*
X131156632Y-154863475D01*
X131288487Y-154731620D01*
X131310498Y-154804180D01*
X131369463Y-154914494D01*
X131448815Y-155011185D01*
X131462655Y-155022543D01*
X131035199Y-155450000D01*
X128953711Y-155450000D01*
X128909774Y-155406063D01*
X128740256Y-155292795D01*
X128551898Y-155214774D01*
X128351939Y-155175000D01*
X128148061Y-155175000D01*
X127948102Y-155214774D01*
X127759744Y-155292795D01*
X127590226Y-155406063D01*
X127446063Y-155550226D01*
X127332795Y-155719744D01*
X127254774Y-155908102D01*
X127215000Y-156108061D01*
X127215000Y-156311939D01*
X127254774Y-156511898D01*
X127332795Y-156700256D01*
X127446063Y-156869774D01*
X127590226Y-157013937D01*
X127759744Y-157127205D01*
X127948102Y-157205226D01*
X128148061Y-157245000D01*
X128351939Y-157245000D01*
X128551898Y-157205226D01*
X128740256Y-157127205D01*
X128909774Y-157013937D01*
X128953711Y-156970000D01*
X131312678Y-156970000D01*
X131350000Y-156973676D01*
X131387322Y-156970000D01*
X131387333Y-156970000D01*
X131498986Y-156959003D01*
X131642247Y-156915546D01*
X131774276Y-156844974D01*
X131890001Y-156750001D01*
X131913804Y-156720997D01*
X132697801Y-155937000D01*
X156945000Y-155937000D01*
X156945000Y-156237000D01*
X156991585Y-156455987D01*
X157079997Y-156661678D01*
X157206839Y-156846169D01*
X157367236Y-157002369D01*
X157555024Y-157124276D01*
X157778126Y-157204119D01*
X157953000Y-157077954D01*
X157953000Y-155937000D01*
X158207000Y-155937000D01*
X158207000Y-157077954D01*
X158381874Y-157204119D01*
X158604976Y-157124276D01*
X158792764Y-157002369D01*
X158953161Y-156846169D01*
X159080003Y-156661678D01*
X159168415Y-156455987D01*
X159215000Y-156237000D01*
X159215000Y-155937000D01*
X165585000Y-155937000D01*
X165585000Y-156237000D01*
X165631585Y-156455987D01*
X165719997Y-156661678D01*
X165846839Y-156846169D01*
X166007236Y-157002369D01*
X166195024Y-157124276D01*
X166418126Y-157204119D01*
X166593000Y-157077954D01*
X166593000Y-155937000D01*
X166847000Y-155937000D01*
X166847000Y-157077954D01*
X167021874Y-157204119D01*
X167244976Y-157124276D01*
X167432764Y-157002369D01*
X167593161Y-156846169D01*
X167720003Y-156661678D01*
X167808415Y-156455987D01*
X167855000Y-156237000D01*
X167855000Y-155937000D01*
X166847000Y-155937000D01*
X166593000Y-155937000D01*
X165585000Y-155937000D01*
X159215000Y-155937000D01*
X158207000Y-155937000D01*
X157953000Y-155937000D01*
X156945000Y-155937000D01*
X132697801Y-155937000D01*
X133251801Y-155383000D01*
X156945000Y-155383000D01*
X156945000Y-155683000D01*
X157953000Y-155683000D01*
X157953000Y-154542046D01*
X158207000Y-154542046D01*
X158207000Y-155683000D01*
X159215000Y-155683000D01*
X159215000Y-155383000D01*
X165585000Y-155383000D01*
X165585000Y-155683000D01*
X166593000Y-155683000D01*
X166593000Y-154542046D01*
X166847000Y-154542046D01*
X166847000Y-155683000D01*
X167855000Y-155683000D01*
X167855000Y-155383000D01*
X167808415Y-155164013D01*
X167720003Y-154958322D01*
X167593161Y-154773831D01*
X167432764Y-154617631D01*
X167244976Y-154495724D01*
X167021874Y-154415881D01*
X166847000Y-154542046D01*
X166593000Y-154542046D01*
X166418126Y-154415881D01*
X166195024Y-154495724D01*
X166007236Y-154617631D01*
X165846839Y-154773831D01*
X165719997Y-154958322D01*
X165631585Y-155164013D01*
X165585000Y-155383000D01*
X159215000Y-155383000D01*
X159168415Y-155164013D01*
X159080003Y-154958322D01*
X158953161Y-154773831D01*
X158792764Y-154617631D01*
X158604976Y-154495724D01*
X158381874Y-154415881D01*
X158207000Y-154542046D01*
X157953000Y-154542046D01*
X157778126Y-154415881D01*
X157555024Y-154495724D01*
X157367236Y-154617631D01*
X157206839Y-154773831D01*
X157079997Y-154958322D01*
X156991585Y-155164013D01*
X156945000Y-155383000D01*
X133251801Y-155383000D01*
X133261003Y-155373799D01*
X133290001Y-155350001D01*
X133336949Y-155292795D01*
X133384974Y-155234277D01*
X133404326Y-155198072D01*
X133600000Y-155198072D01*
X133724482Y-155185812D01*
X133844180Y-155149502D01*
X133954494Y-155090537D01*
X134051185Y-155011185D01*
X134130537Y-154914494D01*
X134189502Y-154804180D01*
X134225812Y-154684482D01*
X134238072Y-154560000D01*
X134238072Y-152860000D01*
X134225812Y-152735518D01*
X134189502Y-152615820D01*
X134130537Y-152505506D01*
X134051185Y-152408815D01*
X133954494Y-152329463D01*
X133844180Y-152270498D01*
X133724482Y-152234188D01*
X133696890Y-152231471D01*
X133693202Y-152219313D01*
X133598860Y-152042810D01*
X133471896Y-151888104D01*
X133433133Y-151856292D01*
X133333841Y-151757000D01*
X156945000Y-151757000D01*
X156945000Y-152307000D01*
X156991585Y-152525987D01*
X157079997Y-152731678D01*
X157206839Y-152916169D01*
X157367236Y-153072369D01*
X157555024Y-153194276D01*
X157778126Y-153274119D01*
X157953000Y-153147954D01*
X157953000Y-151757000D01*
X156945000Y-151757000D01*
X133333841Y-151757000D01*
X132529841Y-150953000D01*
X156945000Y-150953000D01*
X156945000Y-151503000D01*
X157953000Y-151503000D01*
X157953000Y-150112046D01*
X158207000Y-150112046D01*
X158207000Y-151503000D01*
X158227000Y-151503000D01*
X158227000Y-151757000D01*
X158207000Y-151757000D01*
X158207000Y-153147954D01*
X158381874Y-153274119D01*
X158604976Y-153194276D01*
X158792764Y-153072369D01*
X158937116Y-152931794D01*
X159055269Y-153010741D01*
X159229978Y-153083108D01*
X159415448Y-153120000D01*
X159604552Y-153120000D01*
X159790022Y-153083108D01*
X159964731Y-153010741D01*
X160121964Y-152905681D01*
X160255681Y-152771964D01*
X160360741Y-152614731D01*
X160433108Y-152440022D01*
X160470000Y-152254552D01*
X160470000Y-152065448D01*
X164330000Y-152065448D01*
X164330000Y-152254552D01*
X164366892Y-152440022D01*
X164439259Y-152614731D01*
X164544319Y-152771964D01*
X164678036Y-152905681D01*
X164835269Y-153010741D01*
X165009978Y-153083108D01*
X165195448Y-153120000D01*
X165384552Y-153120000D01*
X165570022Y-153083108D01*
X165744731Y-153010741D01*
X165862884Y-152931794D01*
X166007236Y-153072369D01*
X166195024Y-153194276D01*
X166418126Y-153274119D01*
X166593000Y-153147954D01*
X166593000Y-151757000D01*
X166847000Y-151757000D01*
X166847000Y-153147954D01*
X167021874Y-153274119D01*
X167244976Y-153194276D01*
X167432764Y-153072369D01*
X167593161Y-152916169D01*
X167720003Y-152731678D01*
X167808415Y-152525987D01*
X167855000Y-152307000D01*
X167855000Y-151757000D01*
X166847000Y-151757000D01*
X166593000Y-151757000D01*
X166573000Y-151757000D01*
X166573000Y-151503000D01*
X166593000Y-151503000D01*
X166593000Y-150112046D01*
X166847000Y-150112046D01*
X166847000Y-151503000D01*
X167855000Y-151503000D01*
X167855000Y-150953000D01*
X167808415Y-150734013D01*
X167720003Y-150528322D01*
X167593161Y-150343831D01*
X167432764Y-150187631D01*
X167244976Y-150065724D01*
X167021874Y-149985881D01*
X166847000Y-150112046D01*
X166593000Y-150112046D01*
X166418126Y-149985881D01*
X166195024Y-150065724D01*
X166007236Y-150187631D01*
X165846839Y-150343831D01*
X165719997Y-150528322D01*
X165631585Y-150734013D01*
X165585000Y-150953000D01*
X165585000Y-151243096D01*
X165570022Y-151236892D01*
X165384552Y-151200000D01*
X165195448Y-151200000D01*
X165009978Y-151236892D01*
X164835269Y-151309259D01*
X164678036Y-151414319D01*
X164544319Y-151548036D01*
X164439259Y-151705269D01*
X164366892Y-151879978D01*
X164330000Y-152065448D01*
X160470000Y-152065448D01*
X160433108Y-151879978D01*
X160360741Y-151705269D01*
X160255681Y-151548036D01*
X160121964Y-151414319D01*
X159964731Y-151309259D01*
X159790022Y-151236892D01*
X159604552Y-151200000D01*
X159415448Y-151200000D01*
X159229978Y-151236892D01*
X159215000Y-151243096D01*
X159215000Y-150953000D01*
X159168415Y-150734013D01*
X159080003Y-150528322D01*
X158953161Y-150343831D01*
X158792764Y-150187631D01*
X158604976Y-150065724D01*
X158381874Y-149985881D01*
X158207000Y-150112046D01*
X157953000Y-150112046D01*
X157778126Y-149985881D01*
X157555024Y-150065724D01*
X157367236Y-150187631D01*
X157206839Y-150343831D01*
X157079997Y-150528322D01*
X156991585Y-150734013D01*
X156945000Y-150953000D01*
X132529841Y-150953000D01*
X130397723Y-148820882D01*
X130454494Y-148790537D01*
X130551185Y-148711185D01*
X130630537Y-148614494D01*
X130689502Y-148504180D01*
X130725812Y-148384482D01*
X130738072Y-148260000D01*
X130738072Y-146560000D01*
X130725812Y-146435518D01*
X130689502Y-146315820D01*
X130630537Y-146205506D01*
X130551185Y-146108815D01*
X130454494Y-146029463D01*
X130344180Y-145970498D01*
X130271620Y-145948487D01*
X130403475Y-145816632D01*
X130565990Y-145573411D01*
X130677932Y-145303158D01*
X130735000Y-145016260D01*
X130735000Y-144723740D01*
X130677932Y-144436842D01*
X130565990Y-144166589D01*
X130403475Y-143923368D01*
X130196632Y-143716525D01*
X130022240Y-143600000D01*
X130196632Y-143483475D01*
X130403475Y-143276632D01*
X130565990Y-143033411D01*
X130677932Y-142763158D01*
X130735000Y-142476260D01*
X130735000Y-142183740D01*
X130677932Y-141896842D01*
X130565990Y-141626589D01*
X130403475Y-141383368D01*
X130196632Y-141176525D01*
X130014466Y-141054805D01*
X130131355Y-140985178D01*
X130347588Y-140790269D01*
X130521641Y-140556920D01*
X130646825Y-140294099D01*
X130691476Y-140146890D01*
X130570155Y-139917000D01*
X129377000Y-139917000D01*
X129377000Y-139937000D01*
X129123000Y-139937000D01*
X129123000Y-139917000D01*
X129103000Y-139917000D01*
X129103000Y-139663000D01*
X129123000Y-139663000D01*
X129123000Y-138469186D01*
X129377000Y-138469186D01*
X129377000Y-139663000D01*
X130570155Y-139663000D01*
X130691476Y-139433110D01*
X130646825Y-139285901D01*
X130521641Y-139023080D01*
X130347588Y-138789731D01*
X130131355Y-138594822D01*
X129881252Y-138445843D01*
X129606891Y-138348519D01*
X129377000Y-138469186D01*
X129123000Y-138469186D01*
X128893109Y-138348519D01*
X128618748Y-138445843D01*
X128368645Y-138594822D01*
X128210000Y-138737822D01*
X128210000Y-138413711D01*
X128253937Y-138369774D01*
X128367205Y-138200256D01*
X128445226Y-138011898D01*
X128485000Y-137811939D01*
X128485000Y-137608061D01*
X128445226Y-137408102D01*
X128367205Y-137219744D01*
X128253937Y-137050226D01*
X128109774Y-136906063D01*
X127940256Y-136792795D01*
X127751898Y-136714774D01*
X127551939Y-136675000D01*
X127348061Y-136675000D01*
X127148102Y-136714774D01*
X126959744Y-136792795D01*
X126790226Y-136906063D01*
X126646063Y-137050226D01*
X126532795Y-137219744D01*
X126454774Y-137408102D01*
X126415000Y-137608061D01*
X120368838Y-137608061D01*
X120360312Y-137521498D01*
X120324002Y-137401800D01*
X120265037Y-137291486D01*
X120185685Y-137194795D01*
X120088994Y-137115443D01*
X119978680Y-137056478D01*
X119858982Y-137020168D01*
X119734500Y-137007908D01*
X116734500Y-137007908D01*
X116705334Y-137010780D01*
X116705123Y-136741159D01*
X116734500Y-136744052D01*
X119734500Y-136744052D01*
X119858982Y-136731792D01*
X119978680Y-136695482D01*
X120088994Y-136636517D01*
X120185685Y-136557165D01*
X120265037Y-136460474D01*
X120324002Y-136350160D01*
X120360312Y-136230462D01*
X120372572Y-136105980D01*
X120372572Y-135105980D01*
X120360312Y-134981498D01*
X120324002Y-134861800D01*
X120265037Y-134751486D01*
X120185685Y-134654795D01*
X120088994Y-134575443D01*
X119978680Y-134516478D01*
X119858982Y-134480168D01*
X119734500Y-134467908D01*
X116734500Y-134467908D01*
X116703339Y-134470977D01*
X116703127Y-134200962D01*
X116734500Y-134204052D01*
X119734500Y-134204052D01*
X119858982Y-134191792D01*
X119978680Y-134155482D01*
X120088994Y-134096517D01*
X120185685Y-134017165D01*
X120265037Y-133920474D01*
X120324002Y-133810160D01*
X120360312Y-133690462D01*
X120372572Y-133565980D01*
X120372572Y-132565980D01*
X120360312Y-132441498D01*
X120324002Y-132321800D01*
X120265037Y-132211486D01*
X120185685Y-132114795D01*
X120088994Y-132035443D01*
X119978680Y-131976478D01*
X119858982Y-131940168D01*
X119734500Y-131927908D01*
X116907373Y-131927908D01*
X117171230Y-131664052D01*
X119734500Y-131664052D01*
X119858982Y-131651792D01*
X119978680Y-131615482D01*
X120088994Y-131556517D01*
X120185685Y-131477165D01*
X120265037Y-131380474D01*
X120324002Y-131270160D01*
X120360312Y-131150462D01*
X120372572Y-131025980D01*
X120372572Y-130025980D01*
X120360312Y-129901498D01*
X120324002Y-129781800D01*
X120265037Y-129671486D01*
X120185685Y-129574795D01*
X120088994Y-129495443D01*
X119978680Y-129436478D01*
X119858982Y-129400168D01*
X119734500Y-129387908D01*
X116734500Y-129387908D01*
X116699348Y-129391370D01*
X116699135Y-129120569D01*
X116734500Y-129124052D01*
X119734500Y-129124052D01*
X119858982Y-129111792D01*
X119978680Y-129075482D01*
X120088994Y-129016517D01*
X120185685Y-128937165D01*
X120265037Y-128840474D01*
X120324002Y-128730160D01*
X120360312Y-128610462D01*
X120372572Y-128485980D01*
X120372572Y-127485980D01*
X120360312Y-127361498D01*
X120324002Y-127241800D01*
X120265037Y-127131486D01*
X120185685Y-127034795D01*
X120153110Y-127008061D01*
X124015000Y-127008061D01*
X124015000Y-127211939D01*
X124054774Y-127411898D01*
X124132795Y-127600256D01*
X124246063Y-127769774D01*
X124390226Y-127913937D01*
X124559744Y-128027205D01*
X124748102Y-128105226D01*
X124948061Y-128145000D01*
X125151939Y-128145000D01*
X125351898Y-128105226D01*
X125540256Y-128027205D01*
X125709774Y-127913937D01*
X125753711Y-127870000D01*
X131569514Y-127870000D01*
X133603357Y-129903845D01*
X133627156Y-129932844D01*
X133656154Y-129956642D01*
X133742880Y-130027817D01*
X133831153Y-130075000D01*
X133874910Y-130098389D01*
X134018171Y-130141846D01*
X134129824Y-130152843D01*
X134129833Y-130152843D01*
X134167156Y-130156519D01*
X134204481Y-130152843D01*
X135318042Y-130152843D01*
X136315000Y-131149802D01*
X136315000Y-131211939D01*
X136332514Y-131299990D01*
X133529590Y-131299990D01*
X133492267Y-131296314D01*
X133454944Y-131299990D01*
X133454935Y-131299990D01*
X133343282Y-131310987D01*
X133200021Y-131354444D01*
X133067992Y-131425016D01*
X132952267Y-131519989D01*
X132928469Y-131548987D01*
X132210199Y-132267258D01*
X132148061Y-132267258D01*
X131948102Y-132307032D01*
X131759744Y-132385053D01*
X131590226Y-132498321D01*
X131446063Y-132642484D01*
X131332795Y-132812002D01*
X131254774Y-133000360D01*
X131215000Y-133200319D01*
X131215000Y-133404197D01*
X131254774Y-133604156D01*
X131332795Y-133792514D01*
X131446063Y-133962032D01*
X131590226Y-134106195D01*
X131759744Y-134219463D01*
X131948102Y-134297484D01*
X132148061Y-134337258D01*
X132351939Y-134337258D01*
X132551898Y-134297484D01*
X132740256Y-134219463D01*
X132909774Y-134106195D01*
X133053937Y-133962032D01*
X133167205Y-133792514D01*
X133245226Y-133604156D01*
X133285000Y-133404197D01*
X133285000Y-133342059D01*
X133807070Y-132819990D01*
X135615000Y-132819990D01*
X135615000Y-132911939D01*
X135654774Y-133111898D01*
X135732795Y-133300256D01*
X135846063Y-133469774D01*
X135901014Y-133524725D01*
X135934245Y-133634276D01*
X135944454Y-133667931D01*
X136015026Y-133799961D01*
X136051968Y-133844974D01*
X136109999Y-133915686D01*
X136139003Y-133939489D01*
X136220511Y-134020997D01*
X136244314Y-134050001D01*
X136360039Y-134144974D01*
X136492068Y-134215546D01*
X136619357Y-134254158D01*
X136690000Y-134324801D01*
X136690001Y-141831288D01*
X136646063Y-141875226D01*
X136532795Y-142044744D01*
X136454774Y-142233102D01*
X136415000Y-142433061D01*
X136415000Y-142636939D01*
X136454774Y-142836898D01*
X136484068Y-142907620D01*
X136448102Y-142914774D01*
X136280272Y-142984292D01*
X136245226Y-142808102D01*
X136167205Y-142619744D01*
X136053937Y-142450226D01*
X135909774Y-142306063D01*
X135740256Y-142192795D01*
X135551898Y-142114774D01*
X135351939Y-142075000D01*
X135289802Y-142075000D01*
X134210000Y-140995199D01*
X134210000Y-138813711D01*
X134253937Y-138769774D01*
X134367205Y-138600256D01*
X134445226Y-138411898D01*
X134485000Y-138211939D01*
X134485000Y-138008061D01*
X134445226Y-137808102D01*
X134367205Y-137619744D01*
X134253937Y-137450226D01*
X134109774Y-137306063D01*
X133940256Y-137192795D01*
X133751898Y-137114774D01*
X133551939Y-137075000D01*
X133348061Y-137075000D01*
X133148102Y-137114774D01*
X132959744Y-137192795D01*
X132790226Y-137306063D01*
X132646063Y-137450226D01*
X132532795Y-137619744D01*
X132454774Y-137808102D01*
X132415000Y-138008061D01*
X132415000Y-138211939D01*
X132454774Y-138411898D01*
X132532795Y-138600256D01*
X132646063Y-138769774D01*
X132690000Y-138813711D01*
X132690001Y-140397658D01*
X132690000Y-140397668D01*
X132690000Y-141272678D01*
X132686324Y-141310000D01*
X132690000Y-141347322D01*
X132690000Y-141347333D01*
X132700998Y-141458986D01*
X132713439Y-141500000D01*
X132744454Y-141602246D01*
X132815026Y-141734276D01*
X132886201Y-141821002D01*
X132910000Y-141850001D01*
X132938998Y-141873799D01*
X134215000Y-143149802D01*
X134215000Y-143211939D01*
X134254774Y-143411898D01*
X134332795Y-143600256D01*
X134446063Y-143769774D01*
X134590226Y-143913937D01*
X134759744Y-144027205D01*
X134948102Y-144105226D01*
X135148061Y-144145000D01*
X135351939Y-144145000D01*
X135551898Y-144105226D01*
X135719728Y-144035708D01*
X135754774Y-144211898D01*
X135832795Y-144400256D01*
X135946063Y-144569774D01*
X136090226Y-144713937D01*
X136259744Y-144827205D01*
X136448102Y-144905226D01*
X136648061Y-144945000D01*
X136851939Y-144945000D01*
X137051898Y-144905226D01*
X137240256Y-144827205D01*
X137409774Y-144713937D01*
X137553937Y-144569774D01*
X137667205Y-144400256D01*
X137729842Y-144249038D01*
X137840248Y-144215547D01*
X137972277Y-144144975D01*
X138088002Y-144050002D01*
X138111804Y-144020999D01*
X138686003Y-143446801D01*
X138715002Y-143423002D01*
X138753743Y-143375796D01*
X138809975Y-143307278D01*
X138873653Y-143188146D01*
X141390000Y-140671799D01*
X141390001Y-141886549D01*
X141248102Y-141914774D01*
X141059744Y-141992795D01*
X140890226Y-142106063D01*
X140746063Y-142250226D01*
X140632795Y-142419744D01*
X140554774Y-142608102D01*
X140515000Y-142808061D01*
X140515000Y-143011939D01*
X140554774Y-143211898D01*
X140632795Y-143400256D01*
X140746063Y-143569774D01*
X140890226Y-143713937D01*
X141059744Y-143827205D01*
X141248102Y-143905226D01*
X141448061Y-143945000D01*
X141651939Y-143945000D01*
X141851898Y-143905226D01*
X142040256Y-143827205D01*
X142209774Y-143713937D01*
X142353937Y-143569774D01*
X142467205Y-143400256D01*
X142545226Y-143211898D01*
X142585000Y-143011939D01*
X142585000Y-142949802D01*
X142661002Y-142873800D01*
X142690001Y-142850001D01*
X142751828Y-142774665D01*
X142784974Y-142734277D01*
X142855546Y-142602247D01*
X142880570Y-142519751D01*
X142899003Y-142458986D01*
X142910000Y-142347333D01*
X142910000Y-142347324D01*
X142913676Y-142310001D01*
X142910000Y-142272678D01*
X142910000Y-140613711D01*
X142953937Y-140569774D01*
X143067205Y-140400256D01*
X143145226Y-140211898D01*
X143185000Y-140011939D01*
X143185000Y-139808061D01*
X143145226Y-139608102D01*
X143067205Y-139419744D01*
X142953937Y-139250226D01*
X142809774Y-139106063D01*
X142640256Y-138992795D01*
X142451898Y-138914774D01*
X142335001Y-138891522D01*
X142335001Y-133769742D01*
X143178715Y-133769742D01*
X143247904Y-134052745D01*
X143370975Y-134316812D01*
X143543198Y-134551795D01*
X143757954Y-134748664D01*
X144006991Y-134899854D01*
X144280739Y-134999554D01*
X144293110Y-135001476D01*
X144523000Y-134880155D01*
X144523000Y-133537000D01*
X143322768Y-133537000D01*
X143178715Y-133769742D01*
X142335001Y-133769742D01*
X142335001Y-133050258D01*
X143178715Y-133050258D01*
X143322768Y-133283000D01*
X144523000Y-133283000D01*
X144523000Y-131939845D01*
X144777000Y-131939845D01*
X144777000Y-133283000D01*
X144797000Y-133283000D01*
X144797000Y-133537000D01*
X144777000Y-133537000D01*
X144777000Y-134880155D01*
X145006890Y-135001476D01*
X145019261Y-134999554D01*
X145293009Y-134899854D01*
X145542046Y-134748664D01*
X145756802Y-134551795D01*
X145757086Y-134551407D01*
X145811595Y-134653386D01*
X145922038Y-134787962D01*
X146056614Y-134898405D01*
X146210150Y-134980472D01*
X146376746Y-135031008D01*
X146550000Y-135048072D01*
X147750000Y-135048072D01*
X147923254Y-135031008D01*
X148089850Y-134980472D01*
X148243386Y-134898405D01*
X148377962Y-134787962D01*
X148488405Y-134653386D01*
X148570472Y-134499850D01*
X148621008Y-134333254D01*
X148638072Y-134160000D01*
X148638072Y-132660000D01*
X148621008Y-132486746D01*
X148570472Y-132320150D01*
X148488405Y-132166614D01*
X148377962Y-132032038D01*
X148243386Y-131921595D01*
X148089850Y-131839528D01*
X147923254Y-131788992D01*
X147750000Y-131771928D01*
X146550000Y-131771928D01*
X146376746Y-131788992D01*
X146210150Y-131839528D01*
X146056614Y-131921595D01*
X145922038Y-132032038D01*
X145811595Y-132166614D01*
X145757086Y-132268593D01*
X145756802Y-132268205D01*
X145542046Y-132071336D01*
X145293009Y-131920146D01*
X145019261Y-131820446D01*
X145006890Y-131818524D01*
X144777000Y-131939845D01*
X144523000Y-131939845D01*
X144293110Y-131818524D01*
X144280739Y-131820446D01*
X144006991Y-131920146D01*
X143757954Y-132071336D01*
X143543198Y-132268205D01*
X143370975Y-132503188D01*
X143247904Y-132767255D01*
X143178715Y-133050258D01*
X142335001Y-133050258D01*
X142335001Y-132172334D01*
X142338678Y-132135001D01*
X142324004Y-131986015D01*
X142280547Y-131842754D01*
X142209975Y-131710725D01*
X142138800Y-131623998D01*
X142115002Y-131595000D01*
X142086004Y-131571203D01*
X142085000Y-131570198D01*
X142085000Y-131508061D01*
X142045226Y-131308102D01*
X141967205Y-131119744D01*
X141853937Y-130950226D01*
X141709774Y-130806063D01*
X141540256Y-130692795D01*
X141351898Y-130614774D01*
X141151939Y-130575000D01*
X140948061Y-130575000D01*
X140748102Y-130614774D01*
X140559744Y-130692795D01*
X140390226Y-130806063D01*
X140246063Y-130950226D01*
X140132795Y-131119744D01*
X140054774Y-131308102D01*
X140040432Y-131380205D01*
X139992237Y-131354444D01*
X139848976Y-131310987D01*
X139737323Y-131299990D01*
X139737312Y-131299990D01*
X139699990Y-131296314D01*
X139662668Y-131299990D01*
X138367486Y-131299990D01*
X138385000Y-131211939D01*
X138385000Y-131008061D01*
X138345226Y-130808102D01*
X138267205Y-130619744D01*
X138153937Y-130450226D01*
X138009774Y-130306063D01*
X137840256Y-130192795D01*
X137651898Y-130114774D01*
X137628578Y-130110135D01*
X137652124Y-130105452D01*
X137840482Y-130027431D01*
X137926434Y-129970000D01*
X140146289Y-129970000D01*
X140190226Y-130013937D01*
X140359744Y-130127205D01*
X140548102Y-130205226D01*
X140748061Y-130245000D01*
X140951939Y-130245000D01*
X141151898Y-130205226D01*
X141340256Y-130127205D01*
X141509774Y-130013937D01*
X141653937Y-129869774D01*
X141767205Y-129700256D01*
X141845226Y-129511898D01*
X141885000Y-129311939D01*
X141885000Y-129108061D01*
X141845226Y-128908102D01*
X141767205Y-128719744D01*
X141653937Y-128550226D01*
X141509774Y-128406063D01*
X141340256Y-128292795D01*
X141151898Y-128214774D01*
X140951939Y-128175000D01*
X140748061Y-128175000D01*
X140548102Y-128214774D01*
X140359744Y-128292795D01*
X140190226Y-128406063D01*
X140146289Y-128450000D01*
X138153711Y-128450000D01*
X138010000Y-128306289D01*
X137840482Y-128193021D01*
X137652124Y-128115000D01*
X137452165Y-128075226D01*
X137248287Y-128075226D01*
X137085000Y-128107706D01*
X137085000Y-128008061D01*
X137045226Y-127808102D01*
X136967205Y-127619744D01*
X136853937Y-127450226D01*
X136709774Y-127306063D01*
X136540256Y-127192795D01*
X136351898Y-127114774D01*
X136151939Y-127075000D01*
X135948061Y-127075000D01*
X135748102Y-127114774D01*
X135559744Y-127192795D01*
X135390226Y-127306063D01*
X135246063Y-127450226D01*
X135132795Y-127619744D01*
X135054774Y-127808102D01*
X135015000Y-128008061D01*
X135015000Y-128211939D01*
X135054774Y-128411898D01*
X135132795Y-128600256D01*
X135154569Y-128632843D01*
X134481959Y-128632843D01*
X132448119Y-126599003D01*
X132424316Y-126569999D01*
X132308591Y-126475026D01*
X132176562Y-126404454D01*
X132033301Y-126360997D01*
X131921648Y-126350000D01*
X131921638Y-126350000D01*
X131884315Y-126346324D01*
X131846993Y-126350000D01*
X125753711Y-126350000D01*
X125709774Y-126306063D01*
X125540256Y-126192795D01*
X125351898Y-126114774D01*
X125151939Y-126075000D01*
X124948061Y-126075000D01*
X124748102Y-126114774D01*
X124559744Y-126192795D01*
X124390226Y-126306063D01*
X124246063Y-126450226D01*
X124132795Y-126619744D01*
X124054774Y-126808102D01*
X124015000Y-127008061D01*
X120153110Y-127008061D01*
X120088994Y-126955443D01*
X119978680Y-126896478D01*
X119858982Y-126860168D01*
X119734500Y-126847908D01*
X116734500Y-126847908D01*
X116697352Y-126851567D01*
X116697139Y-126580372D01*
X116734500Y-126584052D01*
X119734500Y-126584052D01*
X119858982Y-126571792D01*
X119978680Y-126535482D01*
X120088994Y-126476517D01*
X120185685Y-126397165D01*
X120265037Y-126300474D01*
X120324002Y-126190160D01*
X120360312Y-126070462D01*
X120372572Y-125945980D01*
X120372572Y-124945980D01*
X120360312Y-124821498D01*
X120324002Y-124701800D01*
X120265037Y-124591486D01*
X120185685Y-124494795D01*
X120088994Y-124415443D01*
X119978680Y-124356478D01*
X119858982Y-124320168D01*
X119734500Y-124307908D01*
X116734500Y-124307908D01*
X116695356Y-124311763D01*
X116695143Y-124040176D01*
X116734500Y-124044052D01*
X119734500Y-124044052D01*
X119858982Y-124031792D01*
X119978680Y-123995482D01*
X120088994Y-123936517D01*
X120185685Y-123857165D01*
X120265037Y-123760474D01*
X120324002Y-123650160D01*
X120360312Y-123530462D01*
X120372572Y-123405980D01*
X120372572Y-122405980D01*
X120360312Y-122281498D01*
X120324002Y-122161800D01*
X120265037Y-122051486D01*
X120185685Y-121954795D01*
X120088994Y-121875443D01*
X119978680Y-121816478D01*
X119858982Y-121780168D01*
X119734500Y-121767908D01*
X116734500Y-121767908D01*
X116693361Y-121771960D01*
X116693147Y-121499979D01*
X116734500Y-121504052D01*
X119734500Y-121504052D01*
X119858982Y-121491792D01*
X119978680Y-121455482D01*
X120088994Y-121396517D01*
X120185685Y-121317165D01*
X120265037Y-121220474D01*
X120324002Y-121110160D01*
X120360312Y-120990462D01*
X120372572Y-120865980D01*
X120372572Y-119865980D01*
X120360312Y-119741498D01*
X120324002Y-119621800D01*
X120265037Y-119511486D01*
X120185685Y-119414795D01*
X120088994Y-119335443D01*
X119978680Y-119276478D01*
X119858982Y-119240168D01*
X119734500Y-119227908D01*
X116734500Y-119227908D01*
X116691365Y-119232156D01*
X116691151Y-118959783D01*
X116734500Y-118964052D01*
X119734500Y-118964052D01*
X119858982Y-118951792D01*
X119978680Y-118915482D01*
X120088994Y-118856517D01*
X120148037Y-118808061D01*
X120815000Y-118808061D01*
X120815000Y-119011939D01*
X120854774Y-119211898D01*
X120932795Y-119400256D01*
X121046063Y-119569774D01*
X121190226Y-119713937D01*
X121359744Y-119827205D01*
X121548102Y-119905226D01*
X121748061Y-119945000D01*
X121951939Y-119945000D01*
X122151898Y-119905226D01*
X122340256Y-119827205D01*
X122509774Y-119713937D01*
X122653937Y-119569774D01*
X122767205Y-119400256D01*
X122845226Y-119211898D01*
X122885000Y-119011939D01*
X122885000Y-118966891D01*
X130928519Y-118966891D01*
X131025843Y-119241252D01*
X131174822Y-119491355D01*
X131369731Y-119707588D01*
X131603080Y-119881641D01*
X131865901Y-120006825D01*
X132013110Y-120051476D01*
X132243000Y-119930155D01*
X132243000Y-118737000D01*
X131049186Y-118737000D01*
X130928519Y-118966891D01*
X122885000Y-118966891D01*
X122885000Y-118808061D01*
X122845226Y-118608102D01*
X122767205Y-118419744D01*
X122747347Y-118390024D01*
X122747347Y-118253109D01*
X130928519Y-118253109D01*
X131049186Y-118483000D01*
X132243000Y-118483000D01*
X132243000Y-117289845D01*
X132497000Y-117289845D01*
X132497000Y-118483000D01*
X132517000Y-118483000D01*
X132517000Y-118737000D01*
X132497000Y-118737000D01*
X132497000Y-119930155D01*
X132726890Y-120051476D01*
X132874099Y-120006825D01*
X133136920Y-119881641D01*
X133370269Y-119707588D01*
X133565178Y-119491355D01*
X133634805Y-119374466D01*
X133756525Y-119556632D01*
X133963368Y-119763475D01*
X134206589Y-119925990D01*
X134476842Y-120037932D01*
X134763740Y-120095000D01*
X135056260Y-120095000D01*
X135276408Y-120051209D01*
X136315000Y-121089802D01*
X136315000Y-121211939D01*
X136354774Y-121411898D01*
X136432795Y-121600256D01*
X136546063Y-121769774D01*
X136690226Y-121913937D01*
X136859744Y-122027205D01*
X137048102Y-122105226D01*
X137248061Y-122145000D01*
X137451939Y-122145000D01*
X137651898Y-122105226D01*
X137840256Y-122027205D01*
X138009774Y-121913937D01*
X138153937Y-121769774D01*
X138267205Y-121600256D01*
X138304894Y-121509265D01*
X139716204Y-121509265D01*
X139716204Y-121713143D01*
X139755978Y-121913102D01*
X139833999Y-122101460D01*
X139947267Y-122270978D01*
X140091430Y-122415141D01*
X140260948Y-122528409D01*
X140449306Y-122606430D01*
X140649265Y-122646204D01*
X140711403Y-122646204D01*
X141561928Y-123496730D01*
X141561928Y-124660000D01*
X141574188Y-124784482D01*
X141610498Y-124904180D01*
X141669463Y-125014494D01*
X141748815Y-125111185D01*
X141845506Y-125190537D01*
X141955820Y-125249502D01*
X142075518Y-125285812D01*
X142200000Y-125298072D01*
X143700604Y-125298072D01*
X143709453Y-125327245D01*
X143780025Y-125459275D01*
X143851200Y-125546001D01*
X143874999Y-125575000D01*
X143903997Y-125598798D01*
X144427127Y-126121928D01*
X143600000Y-126121928D01*
X143475518Y-126134188D01*
X143355820Y-126170498D01*
X143245506Y-126229463D01*
X143148815Y-126308815D01*
X143069463Y-126405506D01*
X143010498Y-126515820D01*
X142974188Y-126635518D01*
X142961928Y-126760000D01*
X142961928Y-128460000D01*
X142974188Y-128584482D01*
X143010498Y-128704180D01*
X143069463Y-128814494D01*
X143148815Y-128911185D01*
X143245506Y-128990537D01*
X143355820Y-129049502D01*
X143475518Y-129085812D01*
X143600000Y-129098072D01*
X145300000Y-129098072D01*
X145424482Y-129085812D01*
X145544180Y-129049502D01*
X145654494Y-128990537D01*
X145751185Y-128911185D01*
X145830537Y-128814494D01*
X145889502Y-128704180D01*
X145911513Y-128631620D01*
X146043368Y-128763475D01*
X146286589Y-128925990D01*
X146556842Y-129037932D01*
X146843740Y-129095000D01*
X147136260Y-129095000D01*
X147423158Y-129037932D01*
X147693411Y-128925990D01*
X147936632Y-128763475D01*
X148143475Y-128556632D01*
X148265195Y-128374466D01*
X148334822Y-128491355D01*
X148529731Y-128707588D01*
X148763080Y-128881641D01*
X149025901Y-129006825D01*
X149173110Y-129051476D01*
X149403000Y-128930155D01*
X149403000Y-127737000D01*
X149657000Y-127737000D01*
X149657000Y-128930155D01*
X149886890Y-129051476D01*
X150034099Y-129006825D01*
X150296920Y-128881641D01*
X150530269Y-128707588D01*
X150725178Y-128491355D01*
X150874157Y-128241252D01*
X150971481Y-127966891D01*
X150850814Y-127737000D01*
X149657000Y-127737000D01*
X149403000Y-127737000D01*
X149383000Y-127737000D01*
X149383000Y-127483000D01*
X149403000Y-127483000D01*
X149403000Y-126289845D01*
X149657000Y-126289845D01*
X149657000Y-127483000D01*
X150850814Y-127483000D01*
X150971481Y-127253109D01*
X150874157Y-126978748D01*
X150725178Y-126728645D01*
X150530269Y-126512412D01*
X150296920Y-126338359D01*
X150034099Y-126213175D01*
X149886890Y-126168524D01*
X149657000Y-126289845D01*
X149403000Y-126289845D01*
X149173110Y-126168524D01*
X149025901Y-126213175D01*
X148763080Y-126338359D01*
X148529731Y-126512412D01*
X148334822Y-126728645D01*
X148265195Y-126845534D01*
X148143475Y-126663368D01*
X147936632Y-126456525D01*
X147693411Y-126294010D01*
X147423158Y-126182068D01*
X147136260Y-126125000D01*
X146843740Y-126125000D01*
X146623592Y-126168790D01*
X145747555Y-125292753D01*
X146023158Y-125237932D01*
X146293411Y-125125990D01*
X146536632Y-124963475D01*
X146743475Y-124756632D01*
X146860000Y-124582240D01*
X146976525Y-124756632D01*
X147183368Y-124963475D01*
X147426589Y-125125990D01*
X147696842Y-125237932D01*
X147983740Y-125295000D01*
X148276260Y-125295000D01*
X148563158Y-125237932D01*
X148833411Y-125125990D01*
X149076632Y-124963475D01*
X149283475Y-124756632D01*
X149445990Y-124513411D01*
X149557932Y-124243158D01*
X149615000Y-123956260D01*
X149615000Y-123663740D01*
X149557932Y-123376842D01*
X149445990Y-123106589D01*
X149283475Y-122863368D01*
X149076632Y-122656525D01*
X148900594Y-122538900D01*
X149130269Y-122367588D01*
X149325178Y-122151355D01*
X149474157Y-121901252D01*
X149571481Y-121626891D01*
X149450814Y-121397000D01*
X148257000Y-121397000D01*
X148257000Y-121417000D01*
X148003000Y-121417000D01*
X148003000Y-121397000D01*
X147983000Y-121397000D01*
X147983000Y-121143000D01*
X148003000Y-121143000D01*
X148003000Y-119949845D01*
X148257000Y-119949845D01*
X148257000Y-121143000D01*
X149450814Y-121143000D01*
X149571481Y-120913109D01*
X149474157Y-120638748D01*
X149325178Y-120388645D01*
X149130269Y-120172412D01*
X148896920Y-119998359D01*
X148634099Y-119873175D01*
X148486890Y-119828524D01*
X148257000Y-119949845D01*
X148003000Y-119949845D01*
X147773110Y-119828524D01*
X147625901Y-119873175D01*
X147363080Y-119998359D01*
X147129731Y-120172412D01*
X146934822Y-120388645D01*
X146865195Y-120505534D01*
X146743475Y-120323368D01*
X146536632Y-120116525D01*
X146293411Y-119954010D01*
X146023158Y-119842068D01*
X145736260Y-119785000D01*
X145443740Y-119785000D01*
X145156842Y-119842068D01*
X144886589Y-119954010D01*
X144643368Y-120116525D01*
X144436525Y-120323368D01*
X144320000Y-120497760D01*
X144203475Y-120323368D01*
X143996632Y-120116525D01*
X143753411Y-119954010D01*
X143483158Y-119842068D01*
X143196260Y-119785000D01*
X142903740Y-119785000D01*
X142616842Y-119842068D01*
X142346589Y-119954010D01*
X142103368Y-120116525D01*
X141896525Y-120323368D01*
X141734010Y-120566589D01*
X141622068Y-120836842D01*
X141589150Y-121002329D01*
X141555141Y-120951430D01*
X141410978Y-120807267D01*
X141241460Y-120693999D01*
X141053102Y-120615978D01*
X140853143Y-120576204D01*
X140649265Y-120576204D01*
X140449306Y-120615978D01*
X140260948Y-120693999D01*
X140091430Y-120807267D01*
X139947267Y-120951430D01*
X139833999Y-121120948D01*
X139755978Y-121309306D01*
X139716204Y-121509265D01*
X138304894Y-121509265D01*
X138345226Y-121411898D01*
X138385000Y-121211939D01*
X138385000Y-121008061D01*
X138345226Y-120808102D01*
X138267205Y-120619744D01*
X138153937Y-120450226D01*
X138009774Y-120306063D01*
X137840256Y-120192795D01*
X137651898Y-120114774D01*
X137567931Y-120098072D01*
X138300000Y-120098072D01*
X138424482Y-120085812D01*
X138544180Y-120049502D01*
X138654494Y-119990537D01*
X138751185Y-119911185D01*
X138830537Y-119814494D01*
X138889502Y-119704180D01*
X138918659Y-119608061D01*
X156415000Y-119608061D01*
X156415000Y-119811939D01*
X156454774Y-120011898D01*
X156532795Y-120200256D01*
X156646063Y-120369774D01*
X156690000Y-120413711D01*
X156690000Y-120906992D01*
X156686324Y-120944315D01*
X156690000Y-120981637D01*
X156690000Y-120981647D01*
X156700997Y-121093300D01*
X156733056Y-121198985D01*
X156737305Y-121212994D01*
X156732795Y-121219744D01*
X156654774Y-121408102D01*
X156615000Y-121608061D01*
X156615000Y-121811939D01*
X156654774Y-122011898D01*
X156732795Y-122200256D01*
X156846063Y-122369774D01*
X156990226Y-122513937D01*
X157159744Y-122627205D01*
X157348102Y-122705226D01*
X157548061Y-122745000D01*
X157751939Y-122745000D01*
X157951898Y-122705226D01*
X158140256Y-122627205D01*
X158226469Y-122569599D01*
X158254774Y-122711898D01*
X158332795Y-122900256D01*
X158446063Y-123069774D01*
X158590226Y-123213937D01*
X158759744Y-123327205D01*
X158948102Y-123405226D01*
X159148061Y-123445000D01*
X159351939Y-123445000D01*
X159551898Y-123405226D01*
X159740256Y-123327205D01*
X159909774Y-123213937D01*
X160053937Y-123069774D01*
X160167205Y-122900256D01*
X160245226Y-122711898D01*
X160285000Y-122511939D01*
X160285000Y-122308061D01*
X160245226Y-122108102D01*
X160167205Y-121919744D01*
X160053937Y-121750226D01*
X159909774Y-121606063D01*
X159740256Y-121492795D01*
X159551898Y-121414774D01*
X159351939Y-121375000D01*
X159148061Y-121375000D01*
X158948102Y-121414774D01*
X158759744Y-121492795D01*
X158673531Y-121550401D01*
X158645226Y-121408102D01*
X158567205Y-121219744D01*
X158453937Y-121050226D01*
X158398987Y-120995276D01*
X158355546Y-120852068D01*
X158284974Y-120720039D01*
X158210000Y-120628683D01*
X158210000Y-120413711D01*
X158253937Y-120369774D01*
X158367205Y-120200256D01*
X158445226Y-120011898D01*
X158485000Y-119811939D01*
X158485000Y-119608061D01*
X158445226Y-119408102D01*
X158367205Y-119219744D01*
X158253937Y-119050226D01*
X158109774Y-118906063D01*
X157940256Y-118792795D01*
X157751898Y-118714774D01*
X157551939Y-118675000D01*
X157348061Y-118675000D01*
X157148102Y-118714774D01*
X156959744Y-118792795D01*
X156790226Y-118906063D01*
X156646063Y-119050226D01*
X156532795Y-119219744D01*
X156454774Y-119408102D01*
X156415000Y-119608061D01*
X138918659Y-119608061D01*
X138925812Y-119584482D01*
X138938072Y-119460000D01*
X138938072Y-117760000D01*
X138925812Y-117635518D01*
X138889502Y-117515820D01*
X138830537Y-117405506D01*
X138751185Y-117308815D01*
X138654494Y-117229463D01*
X138544180Y-117170498D01*
X138424482Y-117134188D01*
X138300000Y-117121928D01*
X136600000Y-117121928D01*
X136475518Y-117134188D01*
X136355820Y-117170498D01*
X136245506Y-117229463D01*
X136148815Y-117308815D01*
X136069463Y-117405506D01*
X136010498Y-117515820D01*
X135988487Y-117588380D01*
X135856632Y-117456525D01*
X135613411Y-117294010D01*
X135343158Y-117182068D01*
X135056260Y-117125000D01*
X134763740Y-117125000D01*
X134476842Y-117182068D01*
X134206589Y-117294010D01*
X133963368Y-117456525D01*
X133756525Y-117663368D01*
X133634805Y-117845534D01*
X133565178Y-117728645D01*
X133370269Y-117512412D01*
X133136920Y-117338359D01*
X132874099Y-117213175D01*
X132726890Y-117168524D01*
X132497000Y-117289845D01*
X132243000Y-117289845D01*
X132013110Y-117168524D01*
X131865901Y-117213175D01*
X131603080Y-117338359D01*
X131369731Y-117512412D01*
X131174822Y-117728645D01*
X131025843Y-117978748D01*
X130928519Y-118253109D01*
X122747347Y-118253109D01*
X122747347Y-117681269D01*
X125808336Y-117681269D01*
X125867797Y-117915037D01*
X126106242Y-118025934D01*
X126361740Y-118088183D01*
X126624473Y-118099390D01*
X126884344Y-118059125D01*
X127131366Y-117968935D01*
X127232203Y-117915037D01*
X127291664Y-117681269D01*
X126550000Y-116939605D01*
X125808336Y-117681269D01*
X122747347Y-117681269D01*
X122747347Y-117251058D01*
X122791284Y-117207121D01*
X122904552Y-117037603D01*
X122982573Y-116849245D01*
X123022347Y-116649286D01*
X123022347Y-116445408D01*
X123002390Y-116345077D01*
X123013038Y-116361013D01*
X123198987Y-116546962D01*
X123417641Y-116693061D01*
X123660595Y-116793696D01*
X123918514Y-116845000D01*
X124181486Y-116845000D01*
X124234408Y-116834473D01*
X125210610Y-116834473D01*
X125250875Y-117094344D01*
X125341065Y-117341366D01*
X125394963Y-117442203D01*
X125628731Y-117501664D01*
X126370395Y-116760000D01*
X126729605Y-116760000D01*
X127471269Y-117501664D01*
X127705037Y-117442203D01*
X127815934Y-117203758D01*
X127878183Y-116948260D01*
X127889390Y-116685527D01*
X127849125Y-116425656D01*
X127758935Y-116178634D01*
X127705037Y-116077797D01*
X127471269Y-116018336D01*
X126729605Y-116760000D01*
X126370395Y-116760000D01*
X125628731Y-116018336D01*
X125394963Y-116077797D01*
X125284066Y-116316242D01*
X125221817Y-116571740D01*
X125210610Y-116834473D01*
X124234408Y-116834473D01*
X124439405Y-116793696D01*
X124682359Y-116693061D01*
X124901013Y-116546962D01*
X125086962Y-116361013D01*
X125233061Y-116142359D01*
X125333696Y-115899405D01*
X125385000Y-115641486D01*
X125385000Y-115378514D01*
X125333696Y-115120595D01*
X125233061Y-114877641D01*
X125086962Y-114658987D01*
X124901013Y-114473038D01*
X124682359Y-114326939D01*
X124520754Y-114260000D01*
X124682359Y-114193061D01*
X124901013Y-114046962D01*
X125086962Y-113861013D01*
X125233061Y-113642359D01*
X125333696Y-113399405D01*
X125385000Y-113141486D01*
X125385000Y-112878514D01*
X125333696Y-112620595D01*
X125233061Y-112377641D01*
X125086962Y-112158987D01*
X124901013Y-111973038D01*
X124682359Y-111826939D01*
X124519882Y-111759639D01*
X124631366Y-111718935D01*
X124732203Y-111665037D01*
X124741492Y-111628514D01*
X125215000Y-111628514D01*
X125215000Y-111891486D01*
X125266304Y-112149405D01*
X125366939Y-112392359D01*
X125513038Y-112611013D01*
X125698987Y-112796962D01*
X125917641Y-112943061D01*
X126079246Y-113010000D01*
X125917641Y-113076939D01*
X125698987Y-113223038D01*
X125513038Y-113408987D01*
X125366939Y-113627641D01*
X125266304Y-113870595D01*
X125215000Y-114128514D01*
X125215000Y-114391486D01*
X125266304Y-114649405D01*
X125366939Y-114892359D01*
X125513038Y-115111013D01*
X125698987Y-115296962D01*
X125917641Y-115443061D01*
X126080118Y-115510361D01*
X125968634Y-115551065D01*
X125867797Y-115604963D01*
X125808336Y-115838731D01*
X126550000Y-116580395D01*
X127291664Y-115838731D01*
X127232203Y-115604963D01*
X127024596Y-115508408D01*
X127182359Y-115443061D01*
X127401013Y-115296962D01*
X127586962Y-115111013D01*
X127733061Y-114892359D01*
X127833696Y-114649405D01*
X127849542Y-114569742D01*
X140878715Y-114569742D01*
X140947904Y-114852745D01*
X141070975Y-115116812D01*
X141243198Y-115351795D01*
X141457954Y-115548664D01*
X141706991Y-115699854D01*
X141980739Y-115799554D01*
X141993110Y-115801476D01*
X142223000Y-115680155D01*
X142223000Y-114337000D01*
X141022768Y-114337000D01*
X140878715Y-114569742D01*
X127849542Y-114569742D01*
X127885000Y-114391486D01*
X127885000Y-114128514D01*
X127833696Y-113870595D01*
X127825273Y-113850258D01*
X140878715Y-113850258D01*
X141022768Y-114083000D01*
X142223000Y-114083000D01*
X142223000Y-112739845D01*
X142477000Y-112739845D01*
X142477000Y-114083000D01*
X142497000Y-114083000D01*
X142497000Y-114337000D01*
X142477000Y-114337000D01*
X142477000Y-115680155D01*
X142706890Y-115801476D01*
X142719261Y-115799554D01*
X142993009Y-115699854D01*
X143242046Y-115548664D01*
X143456802Y-115351795D01*
X143457086Y-115351407D01*
X143511595Y-115453386D01*
X143622038Y-115587962D01*
X143756614Y-115698405D01*
X143910150Y-115780472D01*
X144076746Y-115831008D01*
X144250000Y-115848072D01*
X145450000Y-115848072D01*
X145623254Y-115831008D01*
X145789850Y-115780472D01*
X145943386Y-115698405D01*
X146077962Y-115587962D01*
X146188405Y-115453386D01*
X146270472Y-115299850D01*
X146321008Y-115133254D01*
X146338072Y-114960000D01*
X146338072Y-113460000D01*
X146321008Y-113286746D01*
X146270472Y-113120150D01*
X146188405Y-112966614D01*
X146077962Y-112832038D01*
X145943386Y-112721595D01*
X145789850Y-112639528D01*
X145623254Y-112588992D01*
X145450000Y-112571928D01*
X144250000Y-112571928D01*
X144076746Y-112588992D01*
X143910150Y-112639528D01*
X143756614Y-112721595D01*
X143622038Y-112832038D01*
X143511595Y-112966614D01*
X143457086Y-113068593D01*
X143456802Y-113068205D01*
X143242046Y-112871336D01*
X142993009Y-112720146D01*
X142719261Y-112620446D01*
X142706890Y-112618524D01*
X142477000Y-112739845D01*
X142223000Y-112739845D01*
X141993110Y-112618524D01*
X141980739Y-112620446D01*
X141706991Y-112720146D01*
X141457954Y-112871336D01*
X141243198Y-113068205D01*
X141070975Y-113303188D01*
X140947904Y-113567255D01*
X140878715Y-113850258D01*
X127825273Y-113850258D01*
X127733061Y-113627641D01*
X127586962Y-113408987D01*
X127401013Y-113223038D01*
X127182359Y-113076939D01*
X127020754Y-113010000D01*
X127182359Y-112943061D01*
X127401013Y-112796962D01*
X127586962Y-112611013D01*
X127733061Y-112392359D01*
X127833696Y-112149405D01*
X127885000Y-111891486D01*
X127885000Y-111628514D01*
X127833696Y-111370595D01*
X127733061Y-111127641D01*
X127586962Y-110908987D01*
X127401013Y-110723038D01*
X127182359Y-110576939D01*
X126939405Y-110476304D01*
X126681486Y-110425000D01*
X126418514Y-110425000D01*
X126160595Y-110476304D01*
X125917641Y-110576939D01*
X125698987Y-110723038D01*
X125513038Y-110908987D01*
X125366939Y-111127641D01*
X125266304Y-111370595D01*
X125215000Y-111628514D01*
X124741492Y-111628514D01*
X124791664Y-111431269D01*
X124050000Y-110689605D01*
X123308336Y-111431269D01*
X123367797Y-111665037D01*
X123575404Y-111761592D01*
X123417641Y-111826939D01*
X123198987Y-111973038D01*
X123013038Y-112158987D01*
X122866939Y-112377641D01*
X122766304Y-112620595D01*
X122715000Y-112878514D01*
X122715000Y-113141486D01*
X122766304Y-113399405D01*
X122866939Y-113642359D01*
X123013038Y-113861013D01*
X123198987Y-114046962D01*
X123417641Y-114193061D01*
X123579246Y-114260000D01*
X123417641Y-114326939D01*
X123198987Y-114473038D01*
X123013038Y-114658987D01*
X122866939Y-114877641D01*
X122766304Y-115120595D01*
X122715000Y-115378514D01*
X122715000Y-115641486D01*
X122757163Y-115853452D01*
X122647121Y-115743410D01*
X122477603Y-115630142D01*
X122289245Y-115552121D01*
X122089286Y-115512347D01*
X121885408Y-115512347D01*
X121685449Y-115552121D01*
X121497091Y-115630142D01*
X121327573Y-115743410D01*
X121183410Y-115887573D01*
X121070142Y-116057091D01*
X120992121Y-116245449D01*
X120952347Y-116445408D01*
X120952347Y-116649286D01*
X120992121Y-116849245D01*
X121070142Y-117037603D01*
X121183410Y-117207121D01*
X121227347Y-117251058D01*
X121227348Y-118081259D01*
X121190226Y-118106063D01*
X121046063Y-118250226D01*
X120932795Y-118419744D01*
X120854774Y-118608102D01*
X120815000Y-118808061D01*
X120148037Y-118808061D01*
X120185685Y-118777165D01*
X120265037Y-118680474D01*
X120324002Y-118570160D01*
X120360312Y-118450462D01*
X120372572Y-118325980D01*
X120372572Y-117325980D01*
X120360312Y-117201498D01*
X120324002Y-117081800D01*
X120265037Y-116971486D01*
X120185685Y-116874795D01*
X120088994Y-116795443D01*
X119978680Y-116736478D01*
X119858982Y-116700168D01*
X119734500Y-116687908D01*
X116734500Y-116687908D01*
X116689370Y-116692353D01*
X116689155Y-116419586D01*
X116734500Y-116424052D01*
X119734500Y-116424052D01*
X119858982Y-116411792D01*
X119978680Y-116375482D01*
X120088994Y-116316517D01*
X120185685Y-116237165D01*
X120265037Y-116140474D01*
X120324002Y-116030160D01*
X120360312Y-115910462D01*
X120372572Y-115785980D01*
X120372572Y-114785980D01*
X120360312Y-114661498D01*
X120324002Y-114541800D01*
X120265037Y-114431486D01*
X120185685Y-114334795D01*
X120088994Y-114255443D01*
X119978680Y-114196478D01*
X119858982Y-114160168D01*
X119734500Y-114147908D01*
X116734500Y-114147908D01*
X116687374Y-114152549D01*
X116687159Y-113879390D01*
X116734500Y-113884052D01*
X119734500Y-113884052D01*
X119858982Y-113871792D01*
X119978680Y-113835482D01*
X120088994Y-113776517D01*
X120185685Y-113697165D01*
X120265037Y-113600474D01*
X120324002Y-113490160D01*
X120360312Y-113370462D01*
X120372572Y-113245980D01*
X120372572Y-112245980D01*
X120360312Y-112121498D01*
X120324002Y-112001800D01*
X120265037Y-111891486D01*
X120185685Y-111794795D01*
X120088994Y-111715443D01*
X119978680Y-111656478D01*
X119858982Y-111620168D01*
X119734500Y-111607908D01*
X116734500Y-111607908D01*
X116685378Y-111612746D01*
X116685164Y-111339193D01*
X116734500Y-111344052D01*
X119734500Y-111344052D01*
X119858982Y-111331792D01*
X119978680Y-111295482D01*
X120088994Y-111236517D01*
X120185685Y-111157165D01*
X120265037Y-111060474D01*
X120324002Y-110950160D01*
X120360312Y-110830462D01*
X120372572Y-110705980D01*
X120372572Y-110584473D01*
X122710610Y-110584473D01*
X122750875Y-110844344D01*
X122841065Y-111091366D01*
X122894963Y-111192203D01*
X123128731Y-111251664D01*
X123870395Y-110510000D01*
X124229605Y-110510000D01*
X124971269Y-111251664D01*
X125205037Y-111192203D01*
X125315934Y-110953758D01*
X125378183Y-110698260D01*
X125389390Y-110435527D01*
X125349125Y-110175656D01*
X125258935Y-109928634D01*
X125235831Y-109885408D01*
X130492347Y-109885408D01*
X130492347Y-110089286D01*
X130532121Y-110289245D01*
X130610142Y-110477603D01*
X130723410Y-110647121D01*
X130867573Y-110791284D01*
X131037091Y-110904552D01*
X131092845Y-110927646D01*
X131367653Y-111202454D01*
X131367653Y-111264592D01*
X131407427Y-111464551D01*
X131485448Y-111652909D01*
X131598716Y-111822427D01*
X131742879Y-111966590D01*
X131912397Y-112079858D01*
X132100755Y-112157879D01*
X132300714Y-112197653D01*
X132504592Y-112197653D01*
X132704551Y-112157879D01*
X132892909Y-112079858D01*
X133062427Y-111966590D01*
X133206590Y-111822427D01*
X133319858Y-111652909D01*
X133397879Y-111464551D01*
X133437653Y-111264592D01*
X133437653Y-111060714D01*
X133397879Y-110860755D01*
X133319858Y-110672397D01*
X133206590Y-110502879D01*
X133062427Y-110358716D01*
X132892909Y-110245448D01*
X132704551Y-110167427D01*
X132552808Y-110137244D01*
X132562347Y-110089286D01*
X132562347Y-109885408D01*
X132522573Y-109685449D01*
X132444552Y-109497091D01*
X132331284Y-109327573D01*
X132187121Y-109183410D01*
X132017603Y-109070142D01*
X131829245Y-108992121D01*
X131629286Y-108952347D01*
X131425408Y-108952347D01*
X131225449Y-108992121D01*
X131037091Y-109070142D01*
X130867573Y-109183410D01*
X130723410Y-109327573D01*
X130610142Y-109497091D01*
X130532121Y-109685449D01*
X130492347Y-109885408D01*
X125235831Y-109885408D01*
X125205037Y-109827797D01*
X124971269Y-109768336D01*
X124229605Y-110510000D01*
X123870395Y-110510000D01*
X123128731Y-109768336D01*
X122894963Y-109827797D01*
X122784066Y-110066242D01*
X122721817Y-110321740D01*
X122710610Y-110584473D01*
X120372572Y-110584473D01*
X120372572Y-109705980D01*
X120361025Y-109588731D01*
X123308336Y-109588731D01*
X124050000Y-110330395D01*
X124791664Y-109588731D01*
X124732203Y-109354963D01*
X124493758Y-109244066D01*
X124238260Y-109181817D01*
X123975527Y-109170610D01*
X123715656Y-109210875D01*
X123468634Y-109301065D01*
X123367797Y-109354963D01*
X123308336Y-109588731D01*
X120361025Y-109588731D01*
X120360312Y-109581498D01*
X120324002Y-109461800D01*
X120265037Y-109351486D01*
X120185685Y-109254795D01*
X120088994Y-109175443D01*
X119978680Y-109116478D01*
X119858982Y-109080168D01*
X119734500Y-109067908D01*
X116734500Y-109067908D01*
X116683383Y-109072942D01*
X116683168Y-108798996D01*
X116734500Y-108804052D01*
X119734500Y-108804052D01*
X119858982Y-108791792D01*
X119978680Y-108755482D01*
X120088994Y-108696517D01*
X120185685Y-108617165D01*
X120265037Y-108520474D01*
X120324002Y-108410160D01*
X120360312Y-108290462D01*
X120372572Y-108165980D01*
X120372572Y-107165980D01*
X120360312Y-107041498D01*
X120324002Y-106921800D01*
X120265037Y-106811486D01*
X120185685Y-106714795D01*
X120088994Y-106635443D01*
X119978680Y-106576478D01*
X119858982Y-106540168D01*
X119734500Y-106527908D01*
X116734500Y-106527908D01*
X116681387Y-106533139D01*
X116681172Y-106258800D01*
X116734500Y-106264052D01*
X119734500Y-106264052D01*
X119858982Y-106251792D01*
X119978680Y-106215482D01*
X120088994Y-106156517D01*
X120185685Y-106077165D01*
X120265037Y-105980474D01*
X120324002Y-105870160D01*
X120360312Y-105750462D01*
X120372572Y-105625980D01*
X120372572Y-104625980D01*
X120360312Y-104501498D01*
X120324002Y-104381800D01*
X120265037Y-104271486D01*
X120185685Y-104174795D01*
X120088994Y-104095443D01*
X119978680Y-104036478D01*
X119858982Y-104000168D01*
X119734500Y-103987908D01*
X116734500Y-103987908D01*
X116679392Y-103993336D01*
X116679176Y-103718603D01*
X116734500Y-103724052D01*
X117948750Y-103720980D01*
X118107500Y-103562230D01*
X118107500Y-102712980D01*
X118361500Y-102712980D01*
X118361500Y-103562230D01*
X118520250Y-103720980D01*
X119734500Y-103724052D01*
X119858982Y-103711792D01*
X119978680Y-103675482D01*
X120088994Y-103616517D01*
X120185685Y-103537165D01*
X120265037Y-103440474D01*
X120324002Y-103330160D01*
X120360312Y-103210462D01*
X120372572Y-103085980D01*
X120369500Y-102871730D01*
X120210750Y-102712980D01*
X118361500Y-102712980D01*
X118107500Y-102712980D01*
X118087500Y-102712980D01*
X118087500Y-102458980D01*
X118107500Y-102458980D01*
X118107500Y-101609730D01*
X118361500Y-101609730D01*
X118361500Y-102458980D01*
X120210750Y-102458980D01*
X120369500Y-102300230D01*
X120372572Y-102085980D01*
X120360312Y-101961498D01*
X120324002Y-101841800D01*
X120265037Y-101731486D01*
X120185685Y-101634795D01*
X120088994Y-101555443D01*
X119978680Y-101496478D01*
X119858982Y-101460168D01*
X119734500Y-101447908D01*
X118520250Y-101450980D01*
X118361500Y-101609730D01*
X118107500Y-101609730D01*
X117948750Y-101450980D01*
X116734500Y-101447908D01*
X116677396Y-101453532D01*
X116677100Y-101076625D01*
X167165857Y-100927656D01*
X168315001Y-102076801D01*
G36*
X115206366Y-101708736D02*
G01*
X115145685Y-101634795D01*
X115048994Y-101555443D01*
X114938680Y-101496478D01*
X114818982Y-101460168D01*
X114694500Y-101447908D01*
X111694500Y-101447908D01*
X111570018Y-101460168D01*
X111450320Y-101496478D01*
X111340006Y-101555443D01*
X111243315Y-101634795D01*
X111163963Y-101731486D01*
X111104998Y-101841800D01*
X111068688Y-101961498D01*
X111056428Y-102085980D01*
X111056428Y-103085980D01*
X111068688Y-103210462D01*
X111104998Y-103330160D01*
X111163963Y-103440474D01*
X111243315Y-103537165D01*
X111340006Y-103616517D01*
X111450320Y-103675482D01*
X111570018Y-103711792D01*
X111694500Y-103724052D01*
X114694500Y-103724052D01*
X114818982Y-103711792D01*
X114938680Y-103675482D01*
X115048994Y-103616517D01*
X115145685Y-103537165D01*
X115198212Y-103473160D01*
X115194694Y-104234512D01*
X115145685Y-104174795D01*
X115048994Y-104095443D01*
X114938680Y-104036478D01*
X114818982Y-104000168D01*
X114694500Y-103987908D01*
X111694500Y-103987908D01*
X111570018Y-104000168D01*
X111450320Y-104036478D01*
X111340006Y-104095443D01*
X111243315Y-104174795D01*
X111163963Y-104271486D01*
X111104998Y-104381800D01*
X111068688Y-104501498D01*
X111056428Y-104625980D01*
X111056428Y-105625980D01*
X111068688Y-105750462D01*
X111104998Y-105870160D01*
X111163963Y-105980474D01*
X111243315Y-106077165D01*
X111340006Y-106156517D01*
X111450320Y-106215482D01*
X111570018Y-106251792D01*
X111694500Y-106264052D01*
X114694500Y-106264052D01*
X114818982Y-106251792D01*
X114938680Y-106215482D01*
X115048994Y-106156517D01*
X115145685Y-106077165D01*
X115186407Y-106027545D01*
X115183021Y-106760289D01*
X115145685Y-106714795D01*
X115048994Y-106635443D01*
X114938680Y-106576478D01*
X114818982Y-106540168D01*
X114694500Y-106527908D01*
X111694500Y-106527908D01*
X111570018Y-106540168D01*
X111450320Y-106576478D01*
X111340006Y-106635443D01*
X111243315Y-106714795D01*
X111163963Y-106811486D01*
X111104998Y-106921800D01*
X111068688Y-107041498D01*
X111056428Y-107165980D01*
X111056428Y-108165980D01*
X111068688Y-108290462D01*
X111104998Y-108410160D01*
X111163963Y-108520474D01*
X111243315Y-108617165D01*
X111340006Y-108696517D01*
X111450320Y-108755482D01*
X111570018Y-108791792D01*
X111694500Y-108804052D01*
X114694500Y-108804052D01*
X114818982Y-108791792D01*
X114938680Y-108755482D01*
X115048994Y-108696517D01*
X115145685Y-108617165D01*
X115174602Y-108581930D01*
X115171348Y-109286065D01*
X115145685Y-109254795D01*
X115048994Y-109175443D01*
X114938680Y-109116478D01*
X114818982Y-109080168D01*
X114694500Y-109067908D01*
X111694500Y-109067908D01*
X111570018Y-109080168D01*
X111450320Y-109116478D01*
X111340006Y-109175443D01*
X111243315Y-109254795D01*
X111163963Y-109351486D01*
X111104998Y-109461800D01*
X111068688Y-109581498D01*
X111056428Y-109705980D01*
X111056428Y-110705980D01*
X111068688Y-110830462D01*
X111104998Y-110950160D01*
X111163963Y-111060474D01*
X111243315Y-111157165D01*
X111340006Y-111236517D01*
X111450320Y-111295482D01*
X111570018Y-111331792D01*
X111694500Y-111344052D01*
X114694500Y-111344052D01*
X114818982Y-111331792D01*
X114938680Y-111295482D01*
X115048994Y-111236517D01*
X115145685Y-111157165D01*
X115162797Y-111136314D01*
X115159675Y-111811842D01*
X115145685Y-111794795D01*
X115048994Y-111715443D01*
X114938680Y-111656478D01*
X114818982Y-111620168D01*
X114694500Y-111607908D01*
X111694500Y-111607908D01*
X111570018Y-111620168D01*
X111450320Y-111656478D01*
X111340006Y-111715443D01*
X111243315Y-111794795D01*
X111163963Y-111891486D01*
X111104998Y-112001800D01*
X111068688Y-112121498D01*
X111056428Y-112245980D01*
X111056428Y-113245980D01*
X111068688Y-113370462D01*
X111104998Y-113490160D01*
X111163963Y-113600474D01*
X111243315Y-113697165D01*
X111340006Y-113776517D01*
X111450320Y-113835482D01*
X111570018Y-113871792D01*
X111694500Y-113884052D01*
X114694500Y-113884052D01*
X114818982Y-113871792D01*
X114938680Y-113835482D01*
X115048994Y-113776517D01*
X115145685Y-113697165D01*
X115150992Y-113690699D01*
X115148002Y-114337618D01*
X115145685Y-114334795D01*
X115048994Y-114255443D01*
X114938680Y-114196478D01*
X114818982Y-114160168D01*
X114694500Y-114147908D01*
X111694500Y-114147908D01*
X111570018Y-114160168D01*
X111450320Y-114196478D01*
X111340006Y-114255443D01*
X111243315Y-114334795D01*
X111163963Y-114431486D01*
X111104998Y-114541800D01*
X111068688Y-114661498D01*
X111056428Y-114785980D01*
X111056428Y-115785980D01*
X111068688Y-115910462D01*
X111104998Y-116030160D01*
X111163963Y-116140474D01*
X111243315Y-116237165D01*
X111340006Y-116316517D01*
X111450320Y-116375482D01*
X111570018Y-116411792D01*
X111694500Y-116424052D01*
X114694500Y-116424052D01*
X114818982Y-116411792D01*
X114938680Y-116375482D01*
X115048994Y-116316517D01*
X115139198Y-116242488D01*
X115136312Y-116867103D01*
X115048994Y-116795443D01*
X114938680Y-116736478D01*
X114818982Y-116700168D01*
X114694500Y-116687908D01*
X111694500Y-116687908D01*
X111570018Y-116700168D01*
X111450320Y-116736478D01*
X111340006Y-116795443D01*
X111243315Y-116874795D01*
X111163963Y-116971486D01*
X111104998Y-117081800D01*
X111068688Y-117201498D01*
X111056428Y-117325980D01*
X111056428Y-118325980D01*
X111068688Y-118450462D01*
X111104998Y-118570160D01*
X111163963Y-118680474D01*
X111243315Y-118777165D01*
X111340006Y-118856517D01*
X111450320Y-118915482D01*
X111570018Y-118951792D01*
X111694500Y-118964052D01*
X114694500Y-118964052D01*
X114818982Y-118951792D01*
X114938680Y-118915482D01*
X115048994Y-118856517D01*
X115127415Y-118792159D01*
X115124617Y-119397505D01*
X115048994Y-119335443D01*
X114938680Y-119276478D01*
X114818982Y-119240168D01*
X114694500Y-119227908D01*
X111694500Y-119227908D01*
X111570018Y-119240168D01*
X111450320Y-119276478D01*
X111340006Y-119335443D01*
X111243315Y-119414795D01*
X111163963Y-119511486D01*
X111104998Y-119621800D01*
X111068688Y-119741498D01*
X111056428Y-119865980D01*
X111056428Y-120865980D01*
X111068688Y-120990462D01*
X111104998Y-121110160D01*
X111163963Y-121220474D01*
X111243315Y-121317165D01*
X111340006Y-121396517D01*
X111450320Y-121455482D01*
X111570018Y-121491792D01*
X111694500Y-121504052D01*
X114694500Y-121504052D01*
X114818982Y-121491792D01*
X114938680Y-121455482D01*
X115048994Y-121396517D01*
X115115632Y-121341829D01*
X115112923Y-121927908D01*
X115048994Y-121875443D01*
X114938680Y-121816478D01*
X114818982Y-121780168D01*
X114694500Y-121767908D01*
X111694500Y-121767908D01*
X111570018Y-121780168D01*
X111450320Y-121816478D01*
X111340006Y-121875443D01*
X111243315Y-121954795D01*
X111163963Y-122051486D01*
X111104998Y-122161800D01*
X111068688Y-122281498D01*
X111056428Y-122405980D01*
X111056428Y-123405980D01*
X111068688Y-123530462D01*
X111104998Y-123650160D01*
X111163963Y-123760474D01*
X111243315Y-123857165D01*
X111340006Y-123936517D01*
X111450320Y-123995482D01*
X111570018Y-124031792D01*
X111694500Y-124044052D01*
X114694500Y-124044052D01*
X114818982Y-124031792D01*
X114938680Y-123995482D01*
X115048994Y-123936517D01*
X115103848Y-123891499D01*
X115101229Y-124458311D01*
X115048994Y-124415443D01*
X114938680Y-124356478D01*
X114818982Y-124320168D01*
X114694500Y-124307908D01*
X111694500Y-124307908D01*
X111570018Y-124320168D01*
X111450320Y-124356478D01*
X111340006Y-124415443D01*
X111243315Y-124494795D01*
X111163963Y-124591486D01*
X111104998Y-124701800D01*
X111068688Y-124821498D01*
X111056428Y-124945980D01*
X111056428Y-125945980D01*
X111068688Y-126070462D01*
X111104998Y-126190160D01*
X111163963Y-126300474D01*
X111243315Y-126397165D01*
X111340006Y-126476517D01*
X111450320Y-126535482D01*
X111570018Y-126571792D01*
X111694500Y-126584052D01*
X114694500Y-126584052D01*
X114818982Y-126571792D01*
X114938680Y-126535482D01*
X115048994Y-126476517D01*
X115092065Y-126441170D01*
X115089535Y-126988714D01*
X115048994Y-126955443D01*
X114938680Y-126896478D01*
X114818982Y-126860168D01*
X114694500Y-126847908D01*
X111694500Y-126847908D01*
X111570018Y-126860168D01*
X111450320Y-126896478D01*
X111340006Y-126955443D01*
X111243315Y-127034795D01*
X111163963Y-127131486D01*
X111104998Y-127241800D01*
X111068688Y-127361498D01*
X111056428Y-127485980D01*
X111056428Y-128485980D01*
X111068688Y-128610462D01*
X111104998Y-128730160D01*
X111163963Y-128840474D01*
X111243315Y-128937165D01*
X111340006Y-129016517D01*
X111450320Y-129075482D01*
X111570018Y-129111792D01*
X111694500Y-129124052D01*
X114694500Y-129124052D01*
X114818982Y-129111792D01*
X114938680Y-129075482D01*
X115048994Y-129016517D01*
X115080282Y-128990840D01*
X115077840Y-129519116D01*
X115048994Y-129495443D01*
X114938680Y-129436478D01*
X114818982Y-129400168D01*
X114694500Y-129387908D01*
X111694500Y-129387908D01*
X111570018Y-129400168D01*
X111450320Y-129436478D01*
X111340006Y-129495443D01*
X111243315Y-129574795D01*
X111163963Y-129671486D01*
X111104998Y-129781800D01*
X111068688Y-129901498D01*
X111056428Y-130025980D01*
X111056428Y-131025980D01*
X111068688Y-131150462D01*
X111104998Y-131270160D01*
X111163963Y-131380474D01*
X111243315Y-131477165D01*
X111340006Y-131556517D01*
X111450320Y-131615482D01*
X111570018Y-131651792D01*
X111694500Y-131664052D01*
X114694500Y-131664052D01*
X114818982Y-131651792D01*
X114938680Y-131615482D01*
X115048994Y-131556517D01*
X115068498Y-131540510D01*
X115067880Y-131674408D01*
X115044454Y-131718234D01*
X115000998Y-131861495D01*
X114987123Y-132002372D01*
X114938680Y-131976478D01*
X114818982Y-131940168D01*
X114694500Y-131927908D01*
X111694500Y-131927908D01*
X111570018Y-131940168D01*
X111450320Y-131976478D01*
X111340006Y-132035443D01*
X111243315Y-132114795D01*
X111163963Y-132211486D01*
X111104998Y-132321800D01*
X111068688Y-132441498D01*
X111056428Y-132565980D01*
X111056428Y-133565980D01*
X111068688Y-133690462D01*
X111104998Y-133810160D01*
X111163963Y-133920474D01*
X111243315Y-134017165D01*
X111340006Y-134096517D01*
X111450320Y-134155482D01*
X111570018Y-134191792D01*
X111694500Y-134204052D01*
X114257770Y-134204052D01*
X114259502Y-134205784D01*
X114259502Y-134467908D01*
X111694500Y-134467908D01*
X111570018Y-134480168D01*
X111450320Y-134516478D01*
X111340006Y-134575443D01*
X111243315Y-134654795D01*
X111163963Y-134751486D01*
X111104998Y-134861800D01*
X111068688Y-134981498D01*
X111056428Y-135105980D01*
X111056428Y-136105980D01*
X111068688Y-136230462D01*
X111104998Y-136350160D01*
X111163963Y-136460474D01*
X111243315Y-136557165D01*
X111340006Y-136636517D01*
X111450320Y-136695482D01*
X111570018Y-136731792D01*
X111694500Y-136744052D01*
X114259501Y-136744052D01*
X114259501Y-137007908D01*
X111694500Y-137007908D01*
X111570018Y-137020168D01*
X111450320Y-137056478D01*
X111340006Y-137115443D01*
X111243315Y-137194795D01*
X111163963Y-137291486D01*
X111104998Y-137401800D01*
X111068688Y-137521498D01*
X111056428Y-137645980D01*
X111056428Y-138645980D01*
X111068688Y-138770462D01*
X111104998Y-138890160D01*
X111163963Y-139000474D01*
X111243315Y-139097165D01*
X111340006Y-139176517D01*
X111450320Y-139235482D01*
X111570018Y-139271792D01*
X111694500Y-139284052D01*
X111939667Y-139284052D01*
X111915000Y-139408061D01*
X111915000Y-139547908D01*
X111694500Y-139547908D01*
X111570018Y-139560168D01*
X111450320Y-139596478D01*
X111340006Y-139655443D01*
X111243315Y-139734795D01*
X111163963Y-139831486D01*
X111104998Y-139941800D01*
X111068688Y-140061498D01*
X111056428Y-140185980D01*
X111056428Y-141185980D01*
X111068688Y-141310462D01*
X111104998Y-141430160D01*
X111163963Y-141540474D01*
X111243315Y-141637165D01*
X111340006Y-141716517D01*
X111450320Y-141775482D01*
X111570018Y-141811792D01*
X111694500Y-141824052D01*
X112115000Y-141824052D01*
X112115000Y-142011939D01*
X112130111Y-142087908D01*
X111694500Y-142087908D01*
X111570018Y-142100168D01*
X111450320Y-142136478D01*
X111340006Y-142195443D01*
X111243315Y-142274795D01*
X111163963Y-142371486D01*
X111104998Y-142481800D01*
X111068688Y-142601498D01*
X111056428Y-142725980D01*
X111056428Y-143725980D01*
X111068688Y-143850462D01*
X111104998Y-143970160D01*
X111163963Y-144080474D01*
X111243315Y-144177165D01*
X111340006Y-144256517D01*
X111450320Y-144315482D01*
X111570018Y-144351792D01*
X111694500Y-144364052D01*
X114023754Y-144364052D01*
X114015000Y-144408061D01*
X114015000Y-144611939D01*
X114018176Y-144627908D01*
X111694500Y-144627908D01*
X111570018Y-144640168D01*
X111450320Y-144676478D01*
X111340006Y-144735443D01*
X111243315Y-144814795D01*
X111163963Y-144911486D01*
X111104998Y-145021800D01*
X111068688Y-145141498D01*
X111056428Y-145265980D01*
X111056428Y-146265980D01*
X111068688Y-146390462D01*
X111104998Y-146510160D01*
X111163963Y-146620474D01*
X111243315Y-146717165D01*
X111340006Y-146796517D01*
X111450320Y-146855482D01*
X111570018Y-146891792D01*
X111694500Y-146904052D01*
X114694500Y-146904052D01*
X114818982Y-146891792D01*
X114938680Y-146855482D01*
X114997866Y-146823846D01*
X114995910Y-147247069D01*
X114938680Y-147216478D01*
X114818982Y-147180168D01*
X114694500Y-147167908D01*
X113480250Y-147170980D01*
X113321500Y-147329730D01*
X113321500Y-148178980D01*
X113341500Y-148178980D01*
X113341500Y-148432980D01*
X113321500Y-148432980D01*
X113321500Y-149282230D01*
X113480250Y-149440980D01*
X114694500Y-149444052D01*
X114818982Y-149431792D01*
X114938680Y-149395482D01*
X114986098Y-149370136D01*
X114984200Y-149780810D01*
X114938680Y-149756478D01*
X114818982Y-149720168D01*
X114694500Y-149707908D01*
X113480250Y-149710980D01*
X113321500Y-149869730D01*
X113321500Y-150718980D01*
X113341500Y-150718980D01*
X113341500Y-150972980D01*
X113321500Y-150972980D01*
X113321500Y-151822230D01*
X113480250Y-151980980D01*
X114694500Y-151984052D01*
X114818982Y-151971792D01*
X114938680Y-151935482D01*
X114974331Y-151916426D01*
X114944760Y-158315000D01*
X110685000Y-158315000D01*
X110685000Y-151345980D01*
X111056428Y-151345980D01*
X111068688Y-151470462D01*
X111104998Y-151590160D01*
X111163963Y-151700474D01*
X111243315Y-151797165D01*
X111340006Y-151876517D01*
X111450320Y-151935482D01*
X111570018Y-151971792D01*
X111694500Y-151984052D01*
X112908750Y-151980980D01*
X113067500Y-151822230D01*
X113067500Y-150972980D01*
X111218250Y-150972980D01*
X111059500Y-151131730D01*
X111056428Y-151345980D01*
X110685000Y-151345980D01*
X110685000Y-150345980D01*
X111056428Y-150345980D01*
X111059500Y-150560230D01*
X111218250Y-150718980D01*
X113067500Y-150718980D01*
X113067500Y-149869730D01*
X112908750Y-149710980D01*
X111694500Y-149707908D01*
X111570018Y-149720168D01*
X111450320Y-149756478D01*
X111340006Y-149815443D01*
X111243315Y-149894795D01*
X111163963Y-149991486D01*
X111104998Y-150101800D01*
X111068688Y-150221498D01*
X111056428Y-150345980D01*
X110685000Y-150345980D01*
X110685000Y-148805980D01*
X111056428Y-148805980D01*
X111068688Y-148930462D01*
X111104998Y-149050160D01*
X111163963Y-149160474D01*
X111243315Y-149257165D01*
X111340006Y-149336517D01*
X111450320Y-149395482D01*
X111570018Y-149431792D01*
X111694500Y-149444052D01*
X112908750Y-149440980D01*
X113067500Y-149282230D01*
X113067500Y-148432980D01*
X111218250Y-148432980D01*
X111059500Y-148591730D01*
X111056428Y-148805980D01*
X110685000Y-148805980D01*
X110685000Y-147805980D01*
X111056428Y-147805980D01*
X111059500Y-148020230D01*
X111218250Y-148178980D01*
X113067500Y-148178980D01*
X113067500Y-147329730D01*
X112908750Y-147170980D01*
X111694500Y-147167908D01*
X111570018Y-147180168D01*
X111450320Y-147216478D01*
X111340006Y-147275443D01*
X111243315Y-147354795D01*
X111163963Y-147451486D01*
X111104998Y-147561800D01*
X111068688Y-147681498D01*
X111056428Y-147805980D01*
X110685000Y-147805980D01*
X110685000Y-98285417D01*
X115222405Y-98238331D01*
X115206366Y-101708736D01*
G37*
X115206366Y-101708736D02*
X115145685Y-101634795D01*
X115048994Y-101555443D01*
X114938680Y-101496478D01*
X114818982Y-101460168D01*
X114694500Y-101447908D01*
X111694500Y-101447908D01*
X111570018Y-101460168D01*
X111450320Y-101496478D01*
X111340006Y-101555443D01*
X111243315Y-101634795D01*
X111163963Y-101731486D01*
X111104998Y-101841800D01*
X111068688Y-101961498D01*
X111056428Y-102085980D01*
X111056428Y-103085980D01*
X111068688Y-103210462D01*
X111104998Y-103330160D01*
X111163963Y-103440474D01*
X111243315Y-103537165D01*
X111340006Y-103616517D01*
X111450320Y-103675482D01*
X111570018Y-103711792D01*
X111694500Y-103724052D01*
X114694500Y-103724052D01*
X114818982Y-103711792D01*
X114938680Y-103675482D01*
X115048994Y-103616517D01*
X115145685Y-103537165D01*
X115198212Y-103473160D01*
X115194694Y-104234512D01*
X115145685Y-104174795D01*
X115048994Y-104095443D01*
X114938680Y-104036478D01*
X114818982Y-104000168D01*
X114694500Y-103987908D01*
X111694500Y-103987908D01*
X111570018Y-104000168D01*
X111450320Y-104036478D01*
X111340006Y-104095443D01*
X111243315Y-104174795D01*
X111163963Y-104271486D01*
X111104998Y-104381800D01*
X111068688Y-104501498D01*
X111056428Y-104625980D01*
X111056428Y-105625980D01*
X111068688Y-105750462D01*
X111104998Y-105870160D01*
X111163963Y-105980474D01*
X111243315Y-106077165D01*
X111340006Y-106156517D01*
X111450320Y-106215482D01*
X111570018Y-106251792D01*
X111694500Y-106264052D01*
X114694500Y-106264052D01*
X114818982Y-106251792D01*
X114938680Y-106215482D01*
X115048994Y-106156517D01*
X115145685Y-106077165D01*
X115186407Y-106027545D01*
X115183021Y-106760289D01*
X115145685Y-106714795D01*
X115048994Y-106635443D01*
X114938680Y-106576478D01*
X114818982Y-106540168D01*
X114694500Y-106527908D01*
X111694500Y-106527908D01*
X111570018Y-106540168D01*
X111450320Y-106576478D01*
X111340006Y-106635443D01*
X111243315Y-106714795D01*
X111163963Y-106811486D01*
X111104998Y-106921800D01*
X111068688Y-107041498D01*
X111056428Y-107165980D01*
X111056428Y-108165980D01*
X111068688Y-108290462D01*
X111104998Y-108410160D01*
X111163963Y-108520474D01*
X111243315Y-108617165D01*
X111340006Y-108696517D01*
X111450320Y-108755482D01*
X111570018Y-108791792D01*
X111694500Y-108804052D01*
X114694500Y-108804052D01*
X114818982Y-108791792D01*
X114938680Y-108755482D01*
X115048994Y-108696517D01*
X115145685Y-108617165D01*
X115174602Y-108581930D01*
X115171348Y-109286065D01*
X115145685Y-109254795D01*
X115048994Y-109175443D01*
X114938680Y-109116478D01*
X114818982Y-109080168D01*
X114694500Y-109067908D01*
X111694500Y-109067908D01*
X111570018Y-109080168D01*
X111450320Y-109116478D01*
X111340006Y-109175443D01*
X111243315Y-109254795D01*
X111163963Y-109351486D01*
X111104998Y-109461800D01*
X111068688Y-109581498D01*
X111056428Y-109705980D01*
X111056428Y-110705980D01*
X111068688Y-110830462D01*
X111104998Y-110950160D01*
X111163963Y-111060474D01*
X111243315Y-111157165D01*
X111340006Y-111236517D01*
X111450320Y-111295482D01*
X111570018Y-111331792D01*
X111694500Y-111344052D01*
X114694500Y-111344052D01*
X114818982Y-111331792D01*
X114938680Y-111295482D01*
X115048994Y-111236517D01*
X115145685Y-111157165D01*
X115162797Y-111136314D01*
X115159675Y-111811842D01*
X115145685Y-111794795D01*
X115048994Y-111715443D01*
X114938680Y-111656478D01*
X114818982Y-111620168D01*
X114694500Y-111607908D01*
X111694500Y-111607908D01*
X111570018Y-111620168D01*
X111450320Y-111656478D01*
X111340006Y-111715443D01*
X111243315Y-111794795D01*
X111163963Y-111891486D01*
X111104998Y-112001800D01*
X111068688Y-112121498D01*
X111056428Y-112245980D01*
X111056428Y-113245980D01*
X111068688Y-113370462D01*
X111104998Y-113490160D01*
X111163963Y-113600474D01*
X111243315Y-113697165D01*
X111340006Y-113776517D01*
X111450320Y-113835482D01*
X111570018Y-113871792D01*
X111694500Y-113884052D01*
X114694500Y-113884052D01*
X114818982Y-113871792D01*
X114938680Y-113835482D01*
X115048994Y-113776517D01*
X115145685Y-113697165D01*
X115150992Y-113690699D01*
X115148002Y-114337618D01*
X115145685Y-114334795D01*
X115048994Y-114255443D01*
X114938680Y-114196478D01*
X114818982Y-114160168D01*
X114694500Y-114147908D01*
X111694500Y-114147908D01*
X111570018Y-114160168D01*
X111450320Y-114196478D01*
X111340006Y-114255443D01*
X111243315Y-114334795D01*
X111163963Y-114431486D01*
X111104998Y-114541800D01*
X111068688Y-114661498D01*
X111056428Y-114785980D01*
X111056428Y-115785980D01*
X111068688Y-115910462D01*
X111104998Y-116030160D01*
X111163963Y-116140474D01*
X111243315Y-116237165D01*
X111340006Y-116316517D01*
X111450320Y-116375482D01*
X111570018Y-116411792D01*
X111694500Y-116424052D01*
X114694500Y-116424052D01*
X114818982Y-116411792D01*
X114938680Y-116375482D01*
X115048994Y-116316517D01*
X115139198Y-116242488D01*
X115136312Y-116867103D01*
X115048994Y-116795443D01*
X114938680Y-116736478D01*
X114818982Y-116700168D01*
X114694500Y-116687908D01*
X111694500Y-116687908D01*
X111570018Y-116700168D01*
X111450320Y-116736478D01*
X111340006Y-116795443D01*
X111243315Y-116874795D01*
X111163963Y-116971486D01*
X111104998Y-117081800D01*
X111068688Y-117201498D01*
X111056428Y-117325980D01*
X111056428Y-118325980D01*
X111068688Y-118450462D01*
X111104998Y-118570160D01*
X111163963Y-118680474D01*
X111243315Y-118777165D01*
X111340006Y-118856517D01*
X111450320Y-118915482D01*
X111570018Y-118951792D01*
X111694500Y-118964052D01*
X114694500Y-118964052D01*
X114818982Y-118951792D01*
X114938680Y-118915482D01*
X115048994Y-118856517D01*
X115127415Y-118792159D01*
X115124617Y-119397505D01*
X115048994Y-119335443D01*
X114938680Y-119276478D01*
X114818982Y-119240168D01*
X114694500Y-119227908D01*
X111694500Y-119227908D01*
X111570018Y-119240168D01*
X111450320Y-119276478D01*
X111340006Y-119335443D01*
X111243315Y-119414795D01*
X111163963Y-119511486D01*
X111104998Y-119621800D01*
X111068688Y-119741498D01*
X111056428Y-119865980D01*
X111056428Y-120865980D01*
X111068688Y-120990462D01*
X111104998Y-121110160D01*
X111163963Y-121220474D01*
X111243315Y-121317165D01*
X111340006Y-121396517D01*
X111450320Y-121455482D01*
X111570018Y-121491792D01*
X111694500Y-121504052D01*
X114694500Y-121504052D01*
X114818982Y-121491792D01*
X114938680Y-121455482D01*
X115048994Y-121396517D01*
X115115632Y-121341829D01*
X115112923Y-121927908D01*
X115048994Y-121875443D01*
X114938680Y-121816478D01*
X114818982Y-121780168D01*
X114694500Y-121767908D01*
X111694500Y-121767908D01*
X111570018Y-121780168D01*
X111450320Y-121816478D01*
X111340006Y-121875443D01*
X111243315Y-121954795D01*
X111163963Y-122051486D01*
X111104998Y-122161800D01*
X111068688Y-122281498D01*
X111056428Y-122405980D01*
X111056428Y-123405980D01*
X111068688Y-123530462D01*
X111104998Y-123650160D01*
X111163963Y-123760474D01*
X111243315Y-123857165D01*
X111340006Y-123936517D01*
X111450320Y-123995482D01*
X111570018Y-124031792D01*
X111694500Y-124044052D01*
X114694500Y-124044052D01*
X114818982Y-124031792D01*
X114938680Y-123995482D01*
X115048994Y-123936517D01*
X115103848Y-123891499D01*
X115101229Y-124458311D01*
X115048994Y-124415443D01*
X114938680Y-124356478D01*
X114818982Y-124320168D01*
X114694500Y-124307908D01*
X111694500Y-124307908D01*
X111570018Y-124320168D01*
X111450320Y-124356478D01*
X111340006Y-124415443D01*
X111243315Y-124494795D01*
X111163963Y-124591486D01*
X111104998Y-124701800D01*
X111068688Y-124821498D01*
X111056428Y-124945980D01*
X111056428Y-125945980D01*
X111068688Y-126070462D01*
X111104998Y-126190160D01*
X111163963Y-126300474D01*
X111243315Y-126397165D01*
X111340006Y-126476517D01*
X111450320Y-126535482D01*
X111570018Y-126571792D01*
X111694500Y-126584052D01*
X114694500Y-126584052D01*
X114818982Y-126571792D01*
X114938680Y-126535482D01*
X115048994Y-126476517D01*
X115092065Y-126441170D01*
X115089535Y-126988714D01*
X115048994Y-126955443D01*
X114938680Y-126896478D01*
X114818982Y-126860168D01*
X114694500Y-126847908D01*
X111694500Y-126847908D01*
X111570018Y-126860168D01*
X111450320Y-126896478D01*
X111340006Y-126955443D01*
X111243315Y-127034795D01*
X111163963Y-127131486D01*
X111104998Y-127241800D01*
X111068688Y-127361498D01*
X111056428Y-127485980D01*
X111056428Y-128485980D01*
X111068688Y-128610462D01*
X111104998Y-128730160D01*
X111163963Y-128840474D01*
X111243315Y-128937165D01*
X111340006Y-129016517D01*
X111450320Y-129075482D01*
X111570018Y-129111792D01*
X111694500Y-129124052D01*
X114694500Y-129124052D01*
X114818982Y-129111792D01*
X114938680Y-129075482D01*
X115048994Y-129016517D01*
X115080282Y-128990840D01*
X115077840Y-129519116D01*
X115048994Y-129495443D01*
X114938680Y-129436478D01*
X114818982Y-129400168D01*
X114694500Y-129387908D01*
X111694500Y-129387908D01*
X111570018Y-129400168D01*
X111450320Y-129436478D01*
X111340006Y-129495443D01*
X111243315Y-129574795D01*
X111163963Y-129671486D01*
X111104998Y-129781800D01*
X111068688Y-129901498D01*
X111056428Y-130025980D01*
X111056428Y-131025980D01*
X111068688Y-131150462D01*
X111104998Y-131270160D01*
X111163963Y-131380474D01*
X111243315Y-131477165D01*
X111340006Y-131556517D01*
X111450320Y-131615482D01*
X111570018Y-131651792D01*
X111694500Y-131664052D01*
X114694500Y-131664052D01*
X114818982Y-131651792D01*
X114938680Y-131615482D01*
X115048994Y-131556517D01*
X115068498Y-131540510D01*
X115067880Y-131674408D01*
X115044454Y-131718234D01*
X115000998Y-131861495D01*
X114987123Y-132002372D01*
X114938680Y-131976478D01*
X114818982Y-131940168D01*
X114694500Y-131927908D01*
X111694500Y-131927908D01*
X111570018Y-131940168D01*
X111450320Y-131976478D01*
X111340006Y-132035443D01*
X111243315Y-132114795D01*
X111163963Y-132211486D01*
X111104998Y-132321800D01*
X111068688Y-132441498D01*
X111056428Y-132565980D01*
X111056428Y-133565980D01*
X111068688Y-133690462D01*
X111104998Y-133810160D01*
X111163963Y-133920474D01*
X111243315Y-134017165D01*
X111340006Y-134096517D01*
X111450320Y-134155482D01*
X111570018Y-134191792D01*
X111694500Y-134204052D01*
X114257770Y-134204052D01*
X114259502Y-134205784D01*
X114259502Y-134467908D01*
X111694500Y-134467908D01*
X111570018Y-134480168D01*
X111450320Y-134516478D01*
X111340006Y-134575443D01*
X111243315Y-134654795D01*
X111163963Y-134751486D01*
X111104998Y-134861800D01*
X111068688Y-134981498D01*
X111056428Y-135105980D01*
X111056428Y-136105980D01*
X111068688Y-136230462D01*
X111104998Y-136350160D01*
X111163963Y-136460474D01*
X111243315Y-136557165D01*
X111340006Y-136636517D01*
X111450320Y-136695482D01*
X111570018Y-136731792D01*
X111694500Y-136744052D01*
X114259501Y-136744052D01*
X114259501Y-137007908D01*
X111694500Y-137007908D01*
X111570018Y-137020168D01*
X111450320Y-137056478D01*
X111340006Y-137115443D01*
X111243315Y-137194795D01*
X111163963Y-137291486D01*
X111104998Y-137401800D01*
X111068688Y-137521498D01*
X111056428Y-137645980D01*
X111056428Y-138645980D01*
X111068688Y-138770462D01*
X111104998Y-138890160D01*
X111163963Y-139000474D01*
X111243315Y-139097165D01*
X111340006Y-139176517D01*
X111450320Y-139235482D01*
X111570018Y-139271792D01*
X111694500Y-139284052D01*
X111939667Y-139284052D01*
X111915000Y-139408061D01*
X111915000Y-139547908D01*
X111694500Y-139547908D01*
X111570018Y-139560168D01*
X111450320Y-139596478D01*
X111340006Y-139655443D01*
X111243315Y-139734795D01*
X111163963Y-139831486D01*
X111104998Y-139941800D01*
X111068688Y-140061498D01*
X111056428Y-140185980D01*
X111056428Y-141185980D01*
X111068688Y-141310462D01*
X111104998Y-141430160D01*
X111163963Y-141540474D01*
X111243315Y-141637165D01*
X111340006Y-141716517D01*
X111450320Y-141775482D01*
X111570018Y-141811792D01*
X111694500Y-141824052D01*
X112115000Y-141824052D01*
X112115000Y-142011939D01*
X112130111Y-142087908D01*
X111694500Y-142087908D01*
X111570018Y-142100168D01*
X111450320Y-142136478D01*
X111340006Y-142195443D01*
X111243315Y-142274795D01*
X111163963Y-142371486D01*
X111104998Y-142481800D01*
X111068688Y-142601498D01*
X111056428Y-142725980D01*
X111056428Y-143725980D01*
X111068688Y-143850462D01*
X111104998Y-143970160D01*
X111163963Y-144080474D01*
X111243315Y-144177165D01*
X111340006Y-144256517D01*
X111450320Y-144315482D01*
X111570018Y-144351792D01*
X111694500Y-144364052D01*
X114023754Y-144364052D01*
X114015000Y-144408061D01*
X114015000Y-144611939D01*
X114018176Y-144627908D01*
X111694500Y-144627908D01*
X111570018Y-144640168D01*
X111450320Y-144676478D01*
X111340006Y-144735443D01*
X111243315Y-144814795D01*
X111163963Y-144911486D01*
X111104998Y-145021800D01*
X111068688Y-145141498D01*
X111056428Y-145265980D01*
X111056428Y-146265980D01*
X111068688Y-146390462D01*
X111104998Y-146510160D01*
X111163963Y-146620474D01*
X111243315Y-146717165D01*
X111340006Y-146796517D01*
X111450320Y-146855482D01*
X111570018Y-146891792D01*
X111694500Y-146904052D01*
X114694500Y-146904052D01*
X114818982Y-146891792D01*
X114938680Y-146855482D01*
X114997866Y-146823846D01*
X114995910Y-147247069D01*
X114938680Y-147216478D01*
X114818982Y-147180168D01*
X114694500Y-147167908D01*
X113480250Y-147170980D01*
X113321500Y-147329730D01*
X113321500Y-148178980D01*
X113341500Y-148178980D01*
X113341500Y-148432980D01*
X113321500Y-148432980D01*
X113321500Y-149282230D01*
X113480250Y-149440980D01*
X114694500Y-149444052D01*
X114818982Y-149431792D01*
X114938680Y-149395482D01*
X114986098Y-149370136D01*
X114984200Y-149780810D01*
X114938680Y-149756478D01*
X114818982Y-149720168D01*
X114694500Y-149707908D01*
X113480250Y-149710980D01*
X113321500Y-149869730D01*
X113321500Y-150718980D01*
X113341500Y-150718980D01*
X113341500Y-150972980D01*
X113321500Y-150972980D01*
X113321500Y-151822230D01*
X113480250Y-151980980D01*
X114694500Y-151984052D01*
X114818982Y-151971792D01*
X114938680Y-151935482D01*
X114974331Y-151916426D01*
X114944760Y-158315000D01*
X110685000Y-158315000D01*
X110685000Y-151345980D01*
X111056428Y-151345980D01*
X111068688Y-151470462D01*
X111104998Y-151590160D01*
X111163963Y-151700474D01*
X111243315Y-151797165D01*
X111340006Y-151876517D01*
X111450320Y-151935482D01*
X111570018Y-151971792D01*
X111694500Y-151984052D01*
X112908750Y-151980980D01*
X113067500Y-151822230D01*
X113067500Y-150972980D01*
X111218250Y-150972980D01*
X111059500Y-151131730D01*
X111056428Y-151345980D01*
X110685000Y-151345980D01*
X110685000Y-150345980D01*
X111056428Y-150345980D01*
X111059500Y-150560230D01*
X111218250Y-150718980D01*
X113067500Y-150718980D01*
X113067500Y-149869730D01*
X112908750Y-149710980D01*
X111694500Y-149707908D01*
X111570018Y-149720168D01*
X111450320Y-149756478D01*
X111340006Y-149815443D01*
X111243315Y-149894795D01*
X111163963Y-149991486D01*
X111104998Y-150101800D01*
X111068688Y-150221498D01*
X111056428Y-150345980D01*
X110685000Y-150345980D01*
X110685000Y-148805980D01*
X111056428Y-148805980D01*
X111068688Y-148930462D01*
X111104998Y-149050160D01*
X111163963Y-149160474D01*
X111243315Y-149257165D01*
X111340006Y-149336517D01*
X111450320Y-149395482D01*
X111570018Y-149431792D01*
X111694500Y-149444052D01*
X112908750Y-149440980D01*
X113067500Y-149282230D01*
X113067500Y-148432980D01*
X111218250Y-148432980D01*
X111059500Y-148591730D01*
X111056428Y-148805980D01*
X110685000Y-148805980D01*
X110685000Y-147805980D01*
X111056428Y-147805980D01*
X111059500Y-148020230D01*
X111218250Y-148178980D01*
X113067500Y-148178980D01*
X113067500Y-147329730D01*
X112908750Y-147170980D01*
X111694500Y-147167908D01*
X111570018Y-147180168D01*
X111450320Y-147216478D01*
X111340006Y-147275443D01*
X111243315Y-147354795D01*
X111163963Y-147451486D01*
X111104998Y-147561800D01*
X111068688Y-147681498D01*
X111056428Y-147805980D01*
X110685000Y-147805980D01*
X110685000Y-98285417D01*
X115222405Y-98238331D01*
X115206366Y-101708736D01*
M02*
