0
SECTION
2
HEADER
9
$INSUNITS
70
4
9
$ACADVER
1
AC1014
9
$HANDSEED
5
FFFF
0
ENDSEC
0
SECTION
2
TABLES
0
TABLE
2
VPORT
5
8
100
AcDbSymbolTable
0
ENDTAB
0
TABLE
2
LTYPE
5
5
100
AcDbSymbolTable
0
LTYPE
5
14
100
AcDbSymbolTableRecord
100
AcDbLinetypeTableRecord
2
BYBLOCK
70
0
0
LTYPE
5
15
100
AcDbSymbolTableRecord
100
AcDbLinetypeTableRecord
2
BYLAYER
70
0
0
ENDTAB
0
TABLE
2
LAYER
5
2
100
AcDbSymbolTable
70
2
0
LAYER
5
50
100
AcDbSymbolTableRecord
100
AcDbLayerTableRecord
2
0
70
0
6
CONTINUOUS
0
ENDTAB
0
TABLE
2
STYLE
5
3
100
AcDbSymbolTable
70
1
0
STYLE
5
11
100
AcDbSymbolTableRecord
100
AcDbTextStyleTableRecord
2
STANDARD
70
0
0
ENDTAB
0
TABLE
2
VIEW
5
6
100
AcDbSymbolTable
70
0
0
ENDTAB
0
TABLE
2
UCS
5
7
100
AcDbSymbolTable
70
0
0
ENDTAB
0
TABLE
2
APPID
5
9
100
AcDbSymbolTable
70
2
0
APPID
5
12
100
AcDbSymbolTableRecord
100
AcDbRegAppTableRecord
2
ACAD
70
0
0
ENDTAB
0
TABLE
2
DIMSTYLE
5
A
100
AcDbSymbolTable
70
1
0
ENDTAB
0
TABLE
2
BLOCK_RECORD
5
1
100
AcDbSymbolTable
70
1
0
BLOCK_RECORD
5
1F
100
AcDbSymbolTableRecord
100
AcDbBlockTableRecord
2
*MODEL_SPACE
0
BLOCK_RECORD
5
1B
100
AcDbSymbolTableRecord
100
AcDbBlockTableRecord
2
*PAPER_SPACE
0
ENDTAB
0
ENDSEC
0
SECTION
2
BLOCKS
0
BLOCK
5
20
100
AcDbEntity
100
AcDbBlockBegin
2
*MODEL_SPACE
0
ENDBLK
5
21
100
AcDbEntity
100
AcDbBlockEnd
0
BLOCK
5
1C
100
AcDbEntity
100
AcDbBlockBegin
2
*PAPER_SPACE
0
ENDBLK
5
1D
100
AcDbEntity
100
AcDbBlockEnd
0
ENDSEC
0
SECTION
2
ENTITIES
0
SPLINE
5
100
100
AcDbEntity
8
0
100
AcDbSpline
70
0
71
2
72
6
73
3
74
0
42
0.000000001
43
0.0000000001
44
0.0000000001
40
-1
40
-1
40
-1
40
0
40
0
40
0
10
95.473468796209517
20
-731.68272689942671
30
3.5527136788005003e-14
10
95.060473989436417
20
-731.88922538781628
30
0
10
94.769496925584505
20
-732.2365182806102
30
3.5527136788005003e-14
0
SPLINE
5
101
100
AcDbEntity
8
0
100
AcDbSpline
70
0
71
2
72
6
73
3
74
0
42
0.000000001
43
0.0000000001
44
0.0000000001
40
-1
40
-1
40
-1
40
0
40
0
40
0
10
94.769496925584505
20
-732.2365182806102
30
3.5527136788005003e-14
10
94.469134129952323
20
-732.58381119863679
30
0
10
94.309567000355869
20
-733.04373960990733
30
3.5527136788005003e-14
0
SPLINE
5
102
100
AcDbEntity
8
0
100
AcDbSpline
70
0
71
2
72
6
73
3
74
0
42
0.000000001
43
0.0000000001
44
0.0000000001
40
-1
40
-1
40
-1
40
0
40
0
40
0
10
94.309567000355869
20
-733.04373960990733
30
3.5527136788005003e-14
10
94.149999870759444
20
-733.50366812210859
30
0
10
94.149999870759444
20
-734.01991425476865
30
0
0
SPLINE
5
103
100
AcDbEntity
8
0
100
AcDbSpline
70
0
71
2
72
6
73
3
74
0
42
0.000000001
43
0.0000000001
44
0.0000000001
40
-1
40
-1
40
-1
40
0
40
0
40
0
10
94.149999870759444
20
-734.01991425476865
30
0
10
94.149999870759444
20
-734.50800157719971
30
3.5527136788005003e-14
10
94.32833846391658
20
-734.96793008940062
30
0
0
SPLINE
5
104
100
AcDbEntity
8
0
100
AcDbSpline
70
0
71
2
72
6
73
3
74
0
42
0.000000001
43
0.0000000001
44
0.0000000001
40
-1
40
-1
40
-1
40
0
40
0
40
0
10
103.32979138422529
20
-736.34771623158758
30
0
10
103.77094984589327
20
-736.14121761703473
30
0
10
104.09946983686645
20
-735.79392454761216
30
0
0
SPLINE
5
105
100
AcDbEntity
8
0
100
AcDbSpline
70
0
71
2
72
6
73
3
74
0
42
0.000000001
43
0.0000000001
44
0.0000000001
40
-1
40
-1
40
-1
40
0
40
0
40
0
10
104.09946983686645
20
-735.79392454761216
30
0
10
104.4186040960593
20
-735.44663147819028
30
0
10
104.60632842099672
20
-734.98670316785001
30
0
0
SPLINE
5
106
100
AcDbEntity
8
0
100
AcDbSpline
70
0
71
2
72
6
73
3
74
0
42
0.000000001
43
0.0000000001
44
0.0000000001
40
-1
40
-1
40
-1
40
0
40
0
40
0
10
104.60632842099672
20
-734.98670316785001
30
0
10
104.78466701415385
20
-734.52677485750985
30
0
10
104.78466701415385
20
-734.01052852298847
30
-3.5527136788005003e-14
0
SPLINE
5
107
100
AcDbEntity
8
0
100
AcDbSpline
70
0
71
2
72
6
73
3
74
0
42
0.000000001
43
0.0000000001
44
0.0000000001
40
-1
40
-1
40
-1
40
0
40
0
40
0
10
104.78466701415385
20
-734.01052852298847
30
-3.5527136788005003e-14
10
104.78466701415385
20
-733.503668727692
30
0
10
104.60632842099672
20
-733.04374021549052
30
0
0
SPLINE
5
108
100
AcDbEntity
8
0
100
AcDbSpline
70
0
71
2
72
6
73
3
74
0
42
0.000000001
43
0.0000000001
44
0.0000000001
40
-1
40
-1
40
-1
40
0
40
0
40
0
10
104.60632842099672
20
-733.04374021549052
30
0
10
104.42798982783964
20
-732.58381180421998
30
0
10
104.10885556864677
20
-732.23651888619327
30
0
0
SPLINE
5
109
100
AcDbEntity
8
0
100
AcDbSpline
70
0
71
2
72
6
73
3
74
0
42
0.000000001
43
0.0000000001
44
0.0000000001
40
-1
40
-1
40
-1
40
0
40
0
40
0
10
104.10885556864677
20
-732.23651888619327
30
0
10
103.78033557767358
20
-731.88922596816678
30
0
10
103.33918034578255
20
-731.68272749239327
30
0
0
SPLINE
5
110
100
AcDbEntity
8
0
100
AcDbSpline
70
0
71
2
72
6
73
3
74
0
42
0.000000001
43
0.0000000001
44
0.0000000001
40
-1
40
-1
40
-1
40
0
40
0
40
0
10
103.33918034578255
20
-731.68272749239327
30
0
10
102.89802511389152
20
-731.4856153035181
30
3.5527136788005003e-14
10
102.36300610464329
20
-731.4856153035181
30
0
0
SPLINE
5
111
100
AcDbEntity
8
0
100
AcDbSpline
70
0
71
2
72
6
73
3
74
0
42
0.000000001
43
0.0000000001
44
0.0000000001
40
-1
40
-1
40
-1
40
0
40
0
40
0
10
102.36300610464329
20
-731.4856153035181
30
0
10
101.82798386561814
20
-731.4856153161345
30
0
10
101.38682863372708
20
-731.68272750500989
30
0
0
SPLINE
5
112
100
AcDbEntity
8
0
100
AcDbSpline
70
0
71
2
72
6
73
3
74
0
42
0.000000001
43
0.0000000001
44
0.0000000001
40
-1
40
-1
40
-1
40
0
40
0
40
0
10
96.543503584929027
20
-732.04879299683273
30
0
10
96.815715644774144
20
-732.0487937033464
30
3.5527136788005003e-14
10
97.069143321950818
20
-732.14265662279433
30
0
0
SPLINE
5
113
100
AcDbEntity
8
0
100
AcDbSpline
70
0
71
2
72
6
73
3
74
0
42
0.000000001
43
0.0000000001
44
0.0000000001
40
-1
40
-1
40
-1
40
0
40
0
40
0
10
97.069143321950818
20
-732.14265662279433
30
0
10
97.322574228904415
20
-732.23651954224181
30
0
10
97.547844710740065
20
-732.39608657090776
30
0
0
SPLINE
5
114
100
AcDbEntity
8
0
100
AcDbSpline
70
0
71
2
72
6
73
3
74
0
42
0.000000001
43
0.0000000001
44
0.0000000001
40
-1
40
-1
40
-1
40
0
40
0
40
0
10
97.547844710740065
20
-732.39608657090776
30
0
10
97.76372946079546
20
-732.56503983600635
30
0
10
97.942068053952553
20
-732.79031092342552
30
0
0
SPLINE
5
115
100
AcDbEntity
8
0
100
AcDbSpline
70
0
71
2
72
6
73
3
74
0
42
0.000000001
43
0.0000000001
44
0.0000000001
40
-1
40
-1
40
-1
40
0
40
0
40
0
10
97.942068053952553
20
-732.79031092342552
30
0
10
98.111020915329306
20
-733.01558201084447
30
0
10
98.223656156247202
20
-733.27839824585612
30
0
0
LINE
5
116
100
AcDbEntity
8
0
100
AcDbLine
10
98.223656156247202
20
-733.27839824585612
30
0
11
98.223656156247202
21
-734.78020536074143
31
0
0
SPLINE
5
117
100
AcDbEntity
8
0
100
AcDbSpline
70
0
71
2
72
6
73
3
74
0
42
0.000000001
43
0.0000000001
44
0.0000000001
40
-1
40
-1
40
-1
40
0
40
0
40
0
10
98.223656156247202
20
-734.78020536074109
30
0
10
98.186109999348901
20
-735.0242489210259
30
0
10
98.026542869752461
20
-735.24013367108125
30
0
0
SPLINE
5
118
100
AcDbEntity
8
0
100
AcDbSpline
70
0
71
2
72
6
73
3
74
0
42
0.000000001
43
0.0000000001
44
0.0000000001
40
-1
40
-1
40
-1
40
0
40
0
40
0
10
98.026542869752461
20
-735.24013367108125
30
0
10
97.857593238152631
20
-735.46540455663933
30
0
10
97.632319526539987
20
-735.62497168623554
30
0
0
SPLINE
5
119
100
AcDbEntity
8
0
100
AcDbSpline
70
0
71
2
72
6
73
3
74
0
42
0.000000001
43
0.0000000001
44
0.0000000001
40
-1
40
-1
40
-1
40
0
40
0
40
0
10
97.632319526539987
20
-735.62497168623554
30
0
10
97.397663312923996
20
-735.79392495133436
30
0
10
97.134846674190044
20
-735.88778792124742
30
0
0
SPLINE
5
120
100
AcDbEntity
8
0
100
AcDbSpline
70
0
71
2
72
6
73
3
74
0
42
0.000000001
43
0.0000000001
44
0.0000000001
40
-1
40
-1
40
-1
40
0
40
0
40
0
10
97.134846674190044
20
-735.88778792124742
30
0
10
96.8626410738988
20
-735.99103702666287
30
3.5527136788005003e-14
10
96.618599128502453
20
-735.99103702666287
30
0
0
SPLINE
5
121
100
AcDbEntity
8
0
100
AcDbSpline
70
0
71
2
72
6
73
3
74
0
42
0.000000001
43
0.0000000001
44
0.0000000001
40
-1
40
-1
40
-1
40
0
40
0
40
0
10
96.618599128502453
20
-735.99103702666287
30
0
10
96.233761517070349
20
-735.99103702666287
30
0
10
95.905241526097157
20
-735.8314698970662
30
0
0
SPLINE
5
122
100
AcDbEntity
8
0
100
AcDbSpline
70
0
71
2
72
6
73
3
74
0
42
0.000000001
43
0.0000000001
44
0.0000000001
40
-1
40
-1
40
-1
40
0
40
0
40
0
10
95.905241526097157
20
-735.8314698970662
30
0
10
95.567332573566688
20
-735.6719027674701
30
3.5527136788005003e-14
10
95.323290628170341
20
-735.39970039695561
30
0
0
SPLINE
5
123
100
AcDbEntity
8
0
100
AcDbSpline
70
0
71
2
72
6
73
3
74
0
42
0.000000001
43
0.0000000001
44
0.0000000001
40
-1
40
-1
40
-1
40
0
40
0
40
0
10
95.323290628170341
20
-735.39970039695561
30
0
10
95.079248682774008
20
-735.12749802644123
30
0
10
94.938453016738222
20
-734.77081861965542
30
0
0
SPLINE
5
124
100
AcDbEntity
8
0
100
AcDbSpline
70
0
71
2
72
6
73
3
74
0
42
0.000000001
43
0.0000000001
44
0.0000000001
40
-1
40
-1
40
-1
40
0
40
0
40
0
10
94.938453016738222
20
-734.77081861965542
30
0
10
94.797657350702437
20
-734.4141394147307
30
0
10
94.797657350702437
20
-734.01991506221293
30
0
0
SPLINE
5
125
100
AcDbEntity
8
0
100
AcDbSpline
70
0
71
2
72
6
73
3
74
0
42
0.000000001
43
0.0000000001
44
0.0000000001
40
-1
40
-1
40
-1
40
0
40
0
40
0
10
94.797657350702437
20
-734.01991506221293
30
0
10
94.797657350702437
20
-733.64446318256114
30
0
10
94.919678323400646
20
-733.28778397763654
30
0
0
SPLINE
5
126
100
AcDbEntity
8
0
100
AcDbSpline
70
0
71
2
72
6
73
3
74
0
42
0.000000001
43
0.0000000001
44
0.0000000001
40
-1
40
-1
40
-1
40
0
40
0
40
0
10
94.919678323400646
20
-733.28778397763654
30
0
10
95.041699296098798
20
-732.94049100914458
30
0
10
95.276355509714818
20
-732.65890220033634
30
0
0
SPLINE
5
127
100
AcDbEntity
8
0
100
AcDbSpline
70
0
71
2
72
6
73
3
74
0
42
0.000000001
43
0.0000000001
44
0.0000000001
40
-1
40
-1
40
-1
40
0
40
0
40
0
10
95.276355509714818
20
-732.65890220033634
30
0
10
95.501625991550526
20
-732.38669962796098
30
0
10
95.830145982523703
20
-732.21774631239668
30
0
0
SPLINE
5
128
100
AcDbEntity
8
0
100
AcDbSpline
70
0
71
2
72
6
73
3
74
0
42
0.000000001
43
0.0000000001
44
0.0000000001
40
-1
40
-1
40
-1
40
0
40
0
40
0
10
95.830145982523703
20
-732.21774631239668
30
0
10
96.149280241716596
20
-732.04879299683273
30
3.5527136788005003e-14
10
96.543503584929027
20
-732.04879299683273
30
0
0
SPLINE
5
129
100
AcDbEntity
8
0
100
AcDbSpline
70
0
71
2
72
6
73
3
74
0
42
0.000000001
43
0.0000000001
44
0.0000000001
40
-1
40
-1
40
-1
40
0
40
0
40
0
10
91.634471954114801
20
-735.92533246325729
30
0
10
91.315337694921922
20
-736.05674078262405
30
0
10
90.958657278830813
20
-736.05674078262405
30
3.5527136788005003e-14
0
SPLINE
5
130
100
AcDbEntity
8
0
100
AcDbSpline
70
0
71
2
72
6
73
3
74
0
42
0.000000001
43
0.0000000001
44
0.0000000001
40
-1
40
-1
40
-1
40
0
40
0
40
0
10
90.958657278830813
20
-736.05674078262405
30
3.5527136788005003e-14
10
90.60197686273969
20
-736.05674078262405
30
0
10
90.292231565104061
20
-735.92533246325729
30
0
0
SPLINE
5
131
100
AcDbEntity
8
0
100
AcDbSpline
70
0
71
2
72
6
73
3
74
0
42
0.000000001
43
0.0000000001
44
0.0000000001
40
-1
40
-1
40
-1
40
0
40
0
40
0
10
90.292231565104061
20
-735.92533246325729
30
0
10
89.973100535688133
20
-735.79392454761216
30
0
10
89.738441092295176
20
-735.55926712282985
30
0
0
SPLINE
5
132
100
AcDbEntity
8
0
100
AcDbSpline
70
0
71
2
72
6
73
3
74
0
42
0.000000001
43
0.0000000001
44
0.0000000001
40
-1
40
-1
40
-1
40
0
40
0
40
0
10
89.738441092295176
20
-735.55926712282985
30
0
10
89.494399146898829
20
-735.32460969804777
30
0
10
89.344217749082716
20
-734.99608930335239
30
-3.5527136788005003e-14
0
SPLINE
5
133
100
AcDbEntity
8
0
100
AcDbSpline
70
0
71
2
72
6
73
3
74
0
42
0.000000001
43
0.0000000001
44
0.0000000001
40
-1
40
-1
40
-1
40
0
40
0
40
0
10
89.344217749082716
20
-734.99608930335239
30
-3.5527136788005003e-14
10
89.184650619486291
20
-734.6769554478816
30
0
10
89.15649342414531
20
-734.2827310953636
30
0
0
SPLINE
5
134
100
AcDbEntity
8
0
100
AcDbSpline
70
0
71
2
72
6
73
3
74
0
42
0.000000001
43
0.0000000001
44
0.0000000001
40
-1
40
-1
40
-1
40
0
40
0
40
0
10
90.273460101543407
20
-731.57947824819871
30
0
10
89.944940110570201
20
-731.6639548996726
30
0
10
89.672750659163682
20
-731.8235218841811
30
0
0
SPLINE
5
135
100
AcDbEntity
8
0
100
AcDbSpline
70
0
71
2
72
6
73
3
74
0
42
0.000000001
43
0.0000000001
44
0.0000000001
40
-1
40
-1
40
-1
40
0
40
0
40
0
10
89.672750659163682
20
-731.8235218841811
30
0
10
89.400548288649389
20
-731.99247519974551
30
0
10
89.194049270374393
20
-732.20835997503332
30
0
0
SPLINE
5
136
100
AcDbEntity
8
0
100
AcDbSpline
70
0
71
2
72
6
73
3
74
0
42
0.000000001
43
0.0000000001
44
0.0000000001
40
-1
40
-1
40
-1
40
0
40
0
40
0
10
89.194049270374393
20
-732.20835997503332
30
0
10
88.987550252099354
20
-732.43363101198713
30
0
10
88.874915011181514
20
-732.70583358436215
30
0
0
LINE
5
137
100
AcDbEntity
8
0
100
AcDbLine
10
88.874915011181514
20
-732.70583358436215
30
0
11
89.428705483990413
21
-732.85601427566462
31
0
0
SPLINE
5
138
100
AcDbEntity
8
0
100
AcDbSpline
70
0
71
2
72
6
73
3
74
0
42
0.000000001
43
0.0000000001
44
0.0000000001
40
-1
40
-1
40
-1
40
0
40
0
40
0
10
89.428705483990413
20
-732.85601427566462
30
3.5527136788005003e-14
10
89.513183529567243
20
-732.65890199847536
30
3.5527136788005003e-14
10
89.672750659163682
20
-732.48994873337642
30
3.5527136788005003e-14
0
SPLINE
5
139
100
AcDbEntity
8
0
100
AcDbSpline
70
0
71
2
72
6
73
3
74
0
42
0.000000001
43
0.0000000001
44
0.0000000001
40
-1
40
-1
40
-1
40
0
40
0
40
0
10
89.672750659163682
20
-732.48994873337642
30
3.5527136788005003e-14
10
89.832317788760093
20
-732.33038170471036
30
-3.5527136788005003e-14
10
90.029431075254806
20
-732.21774616100095
30
0
0
SPLINE
5
140
100
AcDbEntity
8
0
100
AcDbSpline
70
0
71
2
72
6
73
3
74
0
42
0.000000001
43
0.0000000001
44
0.0000000001
40
-1
40
-1
40
-1
40
0
40
0
40
0
10
90.029431075254806
20
-732.21774616100095
30
0
10
90.226541131972567
20
-732.10511061729153
30
3.5527136788005003e-14
10
90.461200575365481
20
-732.03940655853887
30
0
0
SPLINE
5
141
100
AcDbEntity
8
0
100
AcDbSpline
70
0
71
2
72
6
73
3
74
0
42
0.000000001
43
0.0000000001
44
0.0000000001
40
-1
40
-1
40
-1
40
0
40
0
40
0
10
90.461200575365481
20
-732.03940655853887
30
0
10
90.695856788981516
20
-731.97370249978576
30
-3.5527136788005003e-14
10
90.930516232374501
20
-731.97370249978576
30
0
0
SPLINE
5
142
100
AcDbEntity
8
0
100
AcDbSpline
70
0
71
2
72
6
73
3
74
0
42
0.000000001
43
0.0000000001
44
0.0000000001
40
-1
40
-1
40
-1
40
0
40
0
40
0
10
90.930516232374501
20
-731.97370249978576
30
0
10
91.287196648465596
20
-731.97370249978576
30
-3.5527136788005003e-14
10
91.606330907658503
20
-732.10511061729153
30
3.5527136788005003e-14
0
SPLINE
5
143
100
AcDbEntity
8
0
100
AcDbSpline
70
0
71
2
72
6
73
3
74
0
42
0.000000001
43
0.0000000001
44
0.0000000001
40
-1
40
-1
40
-1
40
0
40
0
40
0
10
91.606330907658503
20
-732.10511061729153
30
3.5527136788005003e-14
10
91.916079435071012
20
-732.24590507216124
30
0
10
92.160121380467373
20
-732.48994873337642
30
3.5527136788005003e-14
0
SPLINE
5
144
100
AcDbEntity
8
0
100
AcDbSpline
70
0
71
2
72
6
73
3
74
0
42
0.000000001
43
0.0000000001
44
0.0000000001
40
-1
40
-1
40
-1
40
0
40
0
40
0
10
92.160121380467373
20
-732.48994873337642
30
3.5527136788005003e-14
10
92.404163325863706
20
-732.73399239459184
30
0
10
92.563730455460146
20
-733.06251268835672
30
-3.5527136788005003e-14
0
LINE
5
145
100
AcDbEntity
8
0
100
AcDbLine
10
92.742069048617211
20
-733.79464357107213
30
-2.4204158501391246e-38
11
88.5557839817656
21
-733.79464357107213
31
1.5332273942853272e-39
0
SPLINE
5
146
100
AcDbEntity
8
0
100
AcDbSpline
70
0
71
2
72
6
73
3
74
0
42
0.000000001
43
0.0000000001
44
0.0000000001
40
-1
40
-1
40
-1
40
0
40
0
40
0
10
92.563730455460146
20
-733.06251268835672
30
-3.5527136788005003e-14
10
92.71391185327623
20
-733.40041921855436
30
0
10
92.742069048617225
20
-733.79464357107213
30
0
0
SPLINE
5
147
100
AcDbEntity
8
0
100
AcDbSpline
70
0
71
2
72
6
73
3
74
0
42
0.000000001
43
0.0000000001
44
0.0000000001
40
-1
40
-1
40
-1
40
0
40
0
40
0
10
94.32833846391658
20
-734.96793008940062
30
0
10
94.49729132529329
20
-735.4278583997409
30
0
10
94.807039852705827
20
-735.77515146916323
30
0
0
SPLINE
5
148
100
AcDbEntity
8
0
100
AcDbSpline
70
0
71
2
72
6
73
3
74
0
42
0.000000001
43
0.0000000001
44
0.0000000001
40
-1
40
-1
40
-1
40
0
40
0
40
0
10
94.807039852705827
20
-735.77515146916323
30
0
10
95.116788380118408
20
-736.13183067408784
30
0
10
95.539172148448785
20
-736.33832928864103
30
0
0
SPLINE
5
149
100
AcDbEntity
8
0
100
AcDbSpline
70
0
71
2
72
6
73
3
74
0
42
0.000000001
43
0.0000000001
44
0.0000000001
40
-1
40
-1
40
-1
40
0
40
0
40
0
10
95.539172148448785
20
-736.33832928864103
30
0
10
95.961555916779133
20
-736.55421403869627
30
0
10
96.468414500909461
20
-736.55421403869627
30
0
0
SPLINE
5
150
100
AcDbEntity
8
0
100
AcDbSpline
70
0
71
2
72
6
73
3
74
0
42
0.000000001
43
0.0000000001
44
0.0000000001
40
-1
40
-1
40
-1
40
0
40
0
40
0
10
96.468414500909461
20
-736.55421403869627
30
0
10
97.031590705498658
20
-736.55421403869627
30
0
10
97.510292094287948
20
-736.26323899345493
30
0
0
LINE
5
151
100
AcDbEntity
8
0
100
AcDbLine
10
98.289353048932512
20
-735.52172177337582
30
0
11
98.289353048932512
21
-736.46973760800779
31
0
0
LINE
5
152
100
AcDbEntity
8
0
100
AcDbLine
10
98.289353048932512
20
-736.46973760800779
30
0
11
98.861918215079001
21
-736.46973760800779
31
1.9206312818697489e-40
0
SPLINE
5
153
100
AcDbEntity
8
0
100
AcDbSpline
70
0
71
2
72
6
73
3
74
0
42
0.000000001
43
0.0000000001
44
0.0000000001
40
-1
40
-1
40
-1
40
0
40
0
40
0
10
97.510292094287948
20
-736.26323899345493
30
0
10
97.988990253300301
20
-735.98165008371609
30
0
10
98.289353048932512
20
-735.52172177337582
30
0
0
LINE
5
154
100
AcDbEntity
8
0
100
AcDbLine
10
98.861918215079001
20
-736.46973760800779
30
1.9206312818697489e-40
11
98.861918215079001
21
-729.58019747351943
31
0
0
LINE
5
155
100
AcDbEntity
8
0
100
AcDbLine
10
98.223649696693229
20
-729.58019747351943
30
-6.8270772596777073e-41
11
98.223649696693229
21
-732.59319804065274
31
0
0
LINE
5
156
100
AcDbEntity
8
0
100
AcDbLine
10
98.861918215079001
20
-729.58019747351943
30
0
11
98.223649696693229
21
-729.58019747351943
31
-6.8270772596777073e-41
0
SPLINE
5
157
100
AcDbEntity
8
0
100
AcDbSpline
70
0
71
2
72
6
73
3
74
0
42
0.000000001
43
0.0000000001
44
0.0000000001
40
-1
40
-1
40
-1
40
0
40
0
40
0
10
98.223649696693229
20
-732.59319804065274
30
0
10
97.932672632841374
20
-732.11449705558562
30
0
10
97.463360205609334
20
-731.79536302348652
30
-3.5527136788005003e-14
0
SPLINE
5
158
100
AcDbEntity
8
0
100
AcDbSpline
70
0
71
2
72
6
73
3
74
0
42
0.000000001
43
0.0000000001
44
0.0000000001
40
-1
40
-1
40
-1
40
0
40
0
40
0
10
97.463360205609334
20
-731.79536302348652
30
-3.5527136788005003e-14
10
96.984658816820101
20
-731.4856153035181
30
0
10
96.365164991771934
20
-731.4856153035181
30
0
0
SPLINE
5
159
100
AcDbEntity
8
0
100
AcDbSpline
70
0
71
2
72
6
73
3
74
0
42
0.000000001
43
0.0000000001
44
0.0000000001
40
-1
40
-1
40
-1
40
0
40
0
40
0
10
96.365164991771934
20
-731.4856153035181
30
0
10
95.87708110097924
20
-731.48561471055132
30
0
10
95.473468796209517
20
-731.68272689942671
30
3.5527136788005003e-14
0
LINE
5
160
100
AcDbEntity
8
0
100
AcDbLine
10
89.15649342414531
20
-734.2827310953636
30
0
11
92.751438631512869
21
-734.28273089350284
31
-7.6999807651178479e-30
0
SPLINE
5
161
100
AcDbEntity
8
0
100
AcDbSpline
70
0
71
2
72
6
73
3
74
0
42
0.000000001
43
0.0000000001
44
0.0000000001
40
-1
40
-1
40
-1
40
0
40
0
40
0
10
92.751438631512869
20
-734.28273089350284
30
3.5527136788005003e-14
10
92.723281436171874
20
-734.6675689086569
30
0
10
92.582485770136145
20
-734.99608930335239
30
0
0
SPLINE
5
162
100
AcDbEntity
8
0
100
AcDbSpline
70
0
71
2
72
6
73
3
74
0
42
0.000000001
43
0.0000000001
44
0.0000000001
40
-1
40
-1
40
-1
40
0
40
0
40
0
10
92.582485770136145
20
-734.99608930335239
30
0
10
92.432307602096969
20
-735.32460969804777
30
0
10
92.197648158703998
20
-735.55926712282985
30
0
0
SPLINE
5
163
100
AcDbEntity
8
0
100
AcDbSpline
70
0
71
2
72
6
73
3
74
0
42
0.000000001
43
0.0000000001
44
0.0000000001
40
-1
40
-1
40
-1
40
0
40
0
40
0
10
92.197648158703998
20
-735.55926712282985
30
0
10
91.953606213307651
20
-735.79392414389019
30
0
10
91.634471954114801
20
-735.92533246325729
30
0
0
SPLINE
5
164
100
AcDbEntity
8
0
100
AcDbSpline
70
0
71
2
72
6
73
3
74
0
42
0.000000001
43
0.0000000001
44
0.0000000001
40
-1
40
-1
40
-1
40
0
40
0
40
0
10
92.713898934168512
20
-732.23651888619327
30
0
10
92.385378943195292
20
-731.88922596816678
30
0
10
91.94422048152731
20
-731.68272749239327
30
0
0
SPLINE
5
165
100
AcDbEntity
8
0
100
AcDbSpline
70
0
71
2
72
6
73
3
74
0
42
0.000000001
43
0.0000000001
44
0.0000000001
40
-1
40
-1
40
-1
40
0
40
0
40
0
10
91.94422048152731
20
-731.68272749239327
30
0
10
91.493679517855952
20
-731.4856153035181
30
0
10
90.958660508607707
20
-731.4856153035181
30
0
0
SPLINE
5
166
100
AcDbEntity
8
0
100
AcDbSpline
70
0
71
2
72
6
73
3
74
0
42
0.000000001
43
0.0000000001
44
0.0000000001
40
-1
40
-1
40
-1
40
0
40
0
40
0
10
90.958660508607707
20
-731.4856153035181
30
0
10
90.601980092516612
20
-731.4856153035181
30
0
10
90.273460101543407
20
-731.57947824819871
30
0
0
LINE
5
167
100
AcDbEntity
8
0
100
AcDbLine
10
88.546385330877499
20
-733.89789287834844
30
-2.7871244948180175e-30
11
88.546385330877499
21
-734.04807346872019
31
0
0
SPLINE
5
168
100
AcDbEntity
8
0
100
AcDbSpline
70
0
71
2
72
6
73
3
74
0
42
0.000000001
43
0.0000000001
44
0.0000000001
40
-1
40
-1
40
-1
40
0
40
0
40
0
10
88.5557839817656
20
-733.79464357107213
30
0
10
88.546385330877499
20
-733.8228023813017
30
-3.5527136788005003e-14
10
88.546385330877499
20
-733.89789287834856
30
0
0
SPLINE
5
169
100
AcDbEntity
8
0
100
AcDbSpline
70
0
71
2
72
6
73
3
74
0
42
0.000000001
43
0.0000000001
44
0.0000000001
40
-1
40
-1
40
-1
40
0
40
0
40
0
10
88.546385330877499
20
-734.04807346872019
30
-3.5527136788005003e-14
10
88.546385330877499
20
-734.55493346587809
30
0
10
88.724723924034592
20
-735.00547543885477
30
0
0
SPLINE
5
170
100
AcDbEntity
8
0
100
AcDbSpline
70
0
71
2
72
6
73
3
74
0
42
0.000000001
43
0.0000000001
44
0.0000000001
40
-1
40
-1
40
-1
40
0
40
0
40
0
10
88.724723924034592
20
-735.00547543885477
30
0
10
88.903062517191699
20
-735.45601761369244
30
0
10
89.22219677638455
20
-735.80331068311477
30
0
0
SPLINE
5
171
100
AcDbEntity
8
0
100
AcDbSpline
70
0
71
2
72
6
73
3
74
0
42
0.000000001
43
0.0000000001
44
0.0000000001
40
-1
40
-1
40
-1
40
0
40
0
40
0
10
89.22219677638455
20
-735.80331068311477
30
0
10
89.541331035577429
20
-736.15060375253722
30
0
10
89.991875229025723
20
-736.34771582786561
30
0
0
SPLINE
5
172
100
AcDbEntity
8
0
100
AcDbSpline
70
0
71
2
72
6
73
3
74
0
42
0.000000001
43
0.0000000001
44
0.0000000001
40
-1
40
-1
40
-1
40
0
40
0
40
0
10
89.991875229025723
20
-736.34771582786561
30
0
10
90.433030460916783
20
-736.55421403869627
30
0
10
90.968049470164999
20
-736.55421403869627
30
0
0
SPLINE
5
173
100
AcDbEntity
8
0
100
AcDbSpline
70
0
71
2
72
6
73
3
74
0
42
0.000000001
43
0.0000000001
44
0.0000000001
40
-1
40
-1
40
-1
40
0
40
0
40
0
10
90.968049470164999
20
-736.55421403869627
30
0
10
91.493682747632903
20
-736.55421403869627
30
0
10
91.944223711304275
20
-736.34771582786561
30
0
0
SPLINE
5
174
100
AcDbEntity
8
0
100
AcDbSpline
70
0
71
2
72
6
73
3
74
0
42
0.000000001
43
0.0000000001
44
0.0000000001
40
-1
40
-1
40
-1
40
0
40
0
40
0
10
91.944223711304275
20
-736.34771582786561
30
0
10
92.394764674975619
20
-736.15060375253722
30
0
10
92.723284665948853
20
-735.80331068311477
30
0
0
SPLINE
5
175
100
AcDbEntity
8
0
100
AcDbSpline
70
0
71
2
72
6
73
3
74
0
42
0.000000001
43
0.0000000001
44
0.0000000001
40
-1
40
-1
40
-1
40
0
40
0
40
0
10
92.723284665948853
20
-735.80331068311477
30
0
10
93.042418925141703
20
-735.46540415291702
30
0
10
93.230146479856046
20
-735.00547543885477
30
0
0
SPLINE
5
176
100
AcDbEntity
8
0
100
AcDbSpline
70
0
71
2
72
6
73
3
74
0
42
0.000000001
43
0.0000000001
44
0.0000000001
40
-1
40
-1
40
-1
40
0
40
0
40
0
10
93.230146479856046
20
-735.00547543885477
30
0
10
93.408485073013154
20
-734.55493366773931
30
0
10
93.408485073013154
20
-734.03868733321804
30
-3.5527136788005003e-14
0
SPLINE
5
177
100
AcDbEntity
8
0
100
AcDbSpline
70
0
71
2
72
6
73
3
74
0
42
0.000000001
43
0.0000000001
44
0.0000000001
40
-1
40
-1
40
-1
40
0
40
0
40
0
10
93.408485073013154
20
-734.03868733321804
30
-3.5527136788005003e-14
10
93.408485073013154
20
-733.51305486319438
30
-3.5527136788005003e-14
10
93.230146479856046
20
-733.05312655285422
30
0
0
SPLINE
5
178
100
AcDbEntity
8
0
100
AcDbSpline
70
0
71
2
72
6
73
3
74
0
42
0.000000001
43
0.0000000001
44
0.0000000001
40
-1
40
-1
40
-1
40
0
40
0
40
0
10
93.230146479856046
20
-733.05312655285422
30
0
10
93.042418925141703
20
-732.59319804065274
30
0
10
92.713898934168512
20
-732.23651888619327
30
0
0
SPLINE
5
179
100
AcDbEntity
8
0
100
AcDbSpline
70
0
71
2
72
6
73
3
74
0
42
0.000000001
43
0.0000000001
44
0.0000000001
40
-1
40
-1
40
-1
40
0
40
0
40
0
10
104.13701599376473
20
-734.00114238748586
30
-3.5527136788005003e-14
10
104.13701922354164
20
-734.4141396165918
30
-3.5527136788005003e-14
10
103.99622355750587
20
-734.77081882151663
30
-3.5527136788005003e-14
0
SPLINE
5
180
100
AcDbEntity
8
0
100
AcDbSpline
70
0
71
2
72
6
73
3
74
0
42
0.000000001
43
0.0000000001
44
0.0000000001
40
-1
40
-1
40
-1
40
0
40
0
40
0
10
109.89081516123973
20
-734.03868733321804
30
0
10
109.89081193146276
20
-733.51305486319438
30
0
10
109.71247333830568
20
-733.05312655285422
30
3.5527136788005003e-14
0
SPLINE
5
181
100
AcDbEntity
8
0
100
AcDbSpline
70
0
71
2
72
6
73
3
74
0
42
0.000000001
43
0.0000000001
44
0.0000000001
40
-1
40
-1
40
-1
40
0
40
0
40
0
10
109.71247656808262
20
-735.01486197807935
30
0
10
109.89081516123973
20
-734.55493366773931
30
3.5527136788005003e-14
10
109.89081516123973
20
-734.03868733321804
30
0
0
SPLINE
5
182
100
AcDbEntity
8
0
100
AcDbSpline
70
0
71
2
72
6
73
3
74
0
42
0.000000001
43
0.0000000001
44
0.0000000001
40
-1
40
-1
40
-1
40
0
40
0
40
0
10
103.61138271629684
20
-735.40908693618053
30
0
10
103.36734077090046
20
-735.68128930669434
30
0
10
103.04820651170759
20
-735.8314698970662
30
0
0
SPLINE
5
183
100
AcDbEntity
8
0
100
AcDbSpline
70
0
71
2
72
6
73
3
74
0
42
0.000000001
43
0.0000000001
44
0.0000000001
40
-1
40
-1
40
-1
40
0
40
0
40
0
10
103.04820651170759
20
-735.8314698970662
30
0
10
102.72907225251474
20
-735.99103702666287
30
0
10
102.36300610464329
20
-735.99103702666287
30
0
0
SPLINE
5
184
100
AcDbEntity
8
0
100
AcDbSpline
70
0
71
2
72
6
73
3
74
0
42
0.000000001
43
0.0000000001
44
0.0000000001
40
-1
40
-1
40
-1
40
0
40
0
40
0
10
103.99622355750587
20
-734.77081882151663
30
-3.5527136788005003e-14
10
103.8554278914701
20
-735.13688416194384
30
0
10
103.61138271629684
20
-735.40908693618053
30
0
0
SPLINE
5
185
100
AcDbEntity
8
0
100
AcDbSpline
70
0
71
2
72
6
73
3
74
0
42
0.000000001
43
0.0000000001
44
0.0000000001
40
-1
40
-1
40
-1
40
0
40
0
40
0
10
102.36300610464329
20
-735.99103702666287
30
0
10
101.99693672699489
20
-735.99103702666287
30
0
10
101.67780569757895
20
-735.8314698970662
30
3.5527136788005003e-14
0
SPLINE
5
186
100
AcDbEntity
8
0
100
AcDbSpline
70
0
71
2
72
6
73
3
74
0
42
0.000000001
43
0.0000000001
44
0.0000000001
40
-1
40
-1
40
-1
40
0
40
0
40
0
10
100.72040292000038
20
-734.78020495701901
30
-3.5527136788005003e-14
10
100.57960725396458
20
-734.42352575209441
30
0
10
100.57960725396458
20
-734.01991506221293
30
0
0
SPLINE
5
187
100
AcDbEntity
8
0
100
AcDbSpline
70
0
71
2
72
6
73
3
74
0
42
0.000000001
43
0.0000000001
44
0.0000000001
40
-1
40
-1
40
-1
40
0
40
0
40
0
10
101.67780569757895
20
-735.8314698970662
30
3.5527136788005003e-14
10
101.3492824768288
20
-735.68128930669434
30
0
10
101.10524053143249
20
-735.40908693618053
30
0
0
SPLINE
5
188
100
AcDbEntity
8
0
100
AcDbSpline
70
0
71
2
72
6
73
3
74
0
42
0.000000001
43
0.0000000001
44
0.0000000001
40
-1
40
-1
40
-1
40
0
40
0
40
0
10
101.10524053143249
20
-735.40908693618053
30
0
10
100.86119858603612
20
-735.14627029744634
30
0
10
100.72040292000038
20
-734.78020495701901
30
-3.5527136788005003e-14
0
SPLINE
5
189
100
AcDbEntity
8
0
100
AcDbSpline
70
0
71
2
72
6
73
3
74
0
42
0.000000001
43
0.0000000001
44
0.0000000001
40
-1
40
-1
40
-1
40
0
40
0
40
0
10
100.57960725396458
20
-734.01991506221293
30
0
10
100.57960725396458
20
-733.60691803496832
30
0
10
100.72040292000038
20
-733.25023883004349
30
-3.5527136788005003e-14
0
SPLINE
5
190
100
AcDbEntity
8
0
100
AcDbSpline
70
0
71
2
72
6
73
3
74
0
42
0.000000001
43
0.0000000001
44
0.0000000001
40
-1
40
-1
40
-1
40
0
40
0
40
0
10
101.10524053143249
20
-732.62135705274341
30
0
10
101.34928570660577
20
-732.35854081773152
30
0
10
101.67780569757895
20
-732.19897378906569
30
0
0
SPLINE
5
191
100
AcDbEntity
8
0
100
AcDbSpline
70
0
71
2
72
6
73
3
74
0
42
0.000000001
43
0.0000000001
44
0.0000000001
40
-1
40
-1
40
-1
40
0
40
0
40
0
10
100.72040292000038
20
-733.25023883004349
30
-3.5527136788005003e-14
10
100.86119858603612
20
-732.89355962511877
30
0
10
101.10524053143249
20
-732.62135705274341
30
0
0
SPLINE
5
192
100
AcDbEntity
8
0
100
AcDbSpline
70
0
71
2
72
6
73
3
74
0
42
0.000000001
43
0.0000000001
44
0.0000000001
40
-1
40
-1
40
-1
40
0
40
0
40
0
10
101.67780569757895
20
-732.19897378906569
30
0
10
101.9969399567718
20
-732.04879309776334
30
0
10
102.36300610464329
20
-732.04879309776334
30
0
0
SPLINE
5
193
100
AcDbEntity
8
0
100
AcDbSpline
70
0
71
2
72
6
73
3
74
0
42
0.000000001
43
0.0000000001
44
0.0000000001
40
-1
40
-1
40
-1
40
0
40
0
40
0
10
102.36300610464329
20
-732.04879309776334
30
0
10
102.72907225251474
20
-732.04879309776334
30
0
10
103.05759224348793
20
-732.19897378906569
30
0
0
SPLINE
5
194
100
AcDbEntity
8
0
100
AcDbSpline
70
0
71
2
72
6
73
3
74
0
42
0.000000001
43
0.0000000001
44
0.0000000001
40
-1
40
-1
40
-1
40
0
40
0
40
0
10
103.05759224348793
20
-732.19897378906569
30
0
10
103.37672650268078
20
-732.34915448036804
30
-3.5527136788005003e-14
10
103.62076844807717
20
-732.61197071537993
30
3.5527136788005003e-14
0
SPLINE
5
195
100
AcDbEntity
8
0
100
AcDbSpline
70
0
71
2
72
6
73
3
74
0
42
0.000000001
43
0.0000000001
44
0.0000000001
40
-1
40
-1
40
-1
40
0
40
0
40
0
10
101.38682863372708
20
-731.68272750500989
30
0
10
100.93628444027878
20
-731.88922599339935
30
3.5527136788005003e-14
10
100.61715018108588
20
-732.23651888619327
30
0
0
SPLINE
5
196
100
AcDbEntity
8
0
100
AcDbSpline
70
0
71
2
72
6
73
3
74
0
42
0.000000001
43
0.0000000001
44
0.0000000001
40
-1
40
-1
40
-1
40
0
40
0
40
0
10
103.99622032772896
20
-733.23146615531641
30
0
10
104.13701599376473
20
-733.58814536024124
30
0
10
104.13701599376473
20
-734.00114238748586
30
-3.5527136788005003e-14
0
SPLINE
5
197
100
AcDbEntity
8
0
100
AcDbSpline
70
0
71
2
72
6
73
3
74
0
42
0.000000001
43
0.0000000001
44
0.0000000001
40
-1
40
-1
40
-1
40
0
40
0
40
0
10
103.62076844807717
20
-732.61197071537993
30
3.5527136788005003e-14
10
103.85542466169315
20
-732.88417328775495
30
0
10
103.99622032772896
20
-733.23146615531641
30
0
0
SPLINE
5
198
100
AcDbEntity
8
0
100
AcDbSpline
70
0
71
2
72
6
73
3
74
0
42
0.000000001
43
0.0000000001
44
0.0000000001
40
-1
40
-1
40
-1
40
0
40
0
40
0
10
100.11967732873593
20
-734.98670316785001
30
-3.5527136788005003e-14
10
100.29801915166999
20
-735.44663147819028
30
3.5527136788005003e-14
10
100.62653914264317
20
-735.79392454761216
30
0
0
SPLINE
5
199
100
AcDbEntity
8
0
100
AcDbSpline
70
0
71
2
72
6
73
3
74
0
42
0.000000001
43
0.0000000001
44
0.0000000001
40
-1
40
-1
40
-1
40
0
40
0
40
0
10
100.11029159695561
20
-733.04374021549052
30
0
10
99.931953003798526
20
-733.503668727692
30
0
10
99.931953003798526
20
-734.01052852298847
30
-3.5527136788005003e-14
0
SPLINE
5
200
100
AcDbEntity
8
0
100
AcDbSpline
70
0
71
2
72
6
73
3
74
0
42
0.000000001
43
0.0000000001
44
0.0000000001
40
-1
40
-1
40
-1
40
0
40
0
40
0
10
100.61715018108588
20
-732.23651888619327
30
0
10
100.28863019011274
20
-732.58381180421998
30
0
10
100.11029159695561
20
-733.04374021549052
30
0
0
SPLINE
5
201
100
AcDbEntity
8
0
100
AcDbSpline
70
0
71
2
72
6
73
3
74
0
42
0.000000001
43
0.0000000001
44
0.0000000001
40
-1
40
-1
40
-1
40
0
40
0
40
0
10
99.931953003798526
20
-734.01052852298847
30
-3.5527136788005003e-14
10
99.931953003798526
20
-734.52677485750985
30
0
10
100.11967732873593
20
-734.98670316785001
30
-3.5527136788005003e-14
0
SPLINE
5
202
100
AcDbEntity
8
0
100
AcDbSpline
70
0
71
2
72
6
73
3
74
0
42
0.000000001
43
0.0000000001
44
0.0000000001
40
-1
40
-1
40
-1
40
0
40
0
40
0
10
101.39621436550742
20
-736.34771623158758
30
0
10
101.83736959739845
20
-736.55421444241824
30
0
10
102.36300287486635
20
-736.55421444241824
30
0
0
SPLINE
5
203
100
AcDbEntity
8
0
100
AcDbSpline
70
0
71
2
72
6
73
3
74
0
42
0.000000001
43
0.0000000001
44
0.0000000001
40
-1
40
-1
40
-1
40
0
40
0
40
0
10
100.62653914264317
20
-735.79392454761216
30
0
10
100.94567340183605
20
-736.14121761703473
30
0
10
101.39621436550742
20
-736.34771623158758
30
0
0
SPLINE
5
204
100
AcDbEntity
8
0
100
AcDbSpline
70
0
71
2
72
6
73
3
74
0
42
0.000000001
43
0.0000000001
44
0.0000000001
40
-1
40
-1
40
-1
40
0
40
0
40
0
10
102.36300287486635
20
-736.55421444241824
30
0
10
102.88863615233424
20
-736.55421444241824
30
3.5527136788005003e-14
10
103.32979138422529
20
-736.34771623158758
30
0
0
SPLINE
5
205
100
AcDbEntity
8
0
100
AcDbSpline
70
0
71
2
72
6
73
3
74
0
42
0.000000001
43
0.0000000001
44
0.0000000001
40
-1
40
-1
40
-1
40
0
40
0
40
0
10
108.4359427610881
20
-736.35710236708985
30
0
10
108.88648372475949
20
-736.1599902917618
30
0
10
109.21500371573266
20
-735.81269722233947
30
0
0
SPLINE
5
206
100
AcDbEntity
8
0
100
AcDbSpline
70
0
71
2
72
6
73
3
74
0
42
0.000000001
43
0.0000000001
44
0.0000000001
40
-1
40
-1
40
-1
40
0
40
0
40
0
10
109.21500371573266
20
-735.81269722233947
30
0
10
109.53413797492551
20
-735.47479028841951
30
0
10
109.71247656808262
20
-735.01486197807935
30
0
0
SPLINE
5
207
100
AcDbEntity
8
0
100
AcDbSpline
70
0
71
2
72
6
73
3
74
0
42
0.000000001
43
0.0000000001
44
0.0000000001
40
-1
40
-1
40
-1
40
0
40
0
40
0
10
114.63089070090028
20
-735.97226354449151
30
0
10
114.73414021003776
20
-736.16937561982002
30
0
10
114.73414021003776
20
-736.46973720428582
30
0
0
SPLINE
5
208
100
AcDbEntity
8
0
100
AcDbSpline
70
0
71
2
72
6
73
3
74
0
42
0.000000001
43
0.0000000001
44
0.0000000001
40
-1
40
-1
40
-1
40
0
40
0
40
0
10
114.29298497814672
20
-735.64374314979614
30
0
10
114.51825545998244
20
-735.78453760466573
30
0
10
114.63089070090028
20
-735.97226354449151
30
0
0
SPLINE
5
209
100
AcDbEntity
8
0
100
AcDbSpline
70
0
71
2
72
6
73
3
74
0
42
0.000000001
43
0.0000000001
44
0.0000000001
40
-1
40
-1
40
-1
40
0
40
0
40
0
10
113.72041981200027
20
-735.39969958951144
30
0
10
114.06771449631107
20
-735.50294869492689
30
-3.5527136788005003e-14
10
114.29298497814672
20
-735.64374314979614
30
0
0
SPLINE
5
210
100
AcDbEntity
8
0
100
AcDbSpline
70
0
71
2
72
6
73
3
74
0
42
0.000000001
43
0.0000000001
44
0.0000000001
40
-1
40
-1
40
-1
40
0
40
0
40
0
10
109.71247333830568
20
-733.05312655285422
30
3.5527136788005003e-14
10
109.52474578359131
20
-732.59319804065274
30
0
10
109.19622579261812
20
-732.23651888619327
30
0
0
SPLINE
5
211
100
AcDbEntity
8
0
100
AcDbSpline
70
0
71
2
72
6
73
3
74
0
42
0.000000001
43
0.0000000001
44
0.0000000001
40
-1
40
-1
40
-1
40
0
40
0
40
0
10
114.33053113504499
20
-737.37082155396126
30
3.5527136788005003e-14
10
113.9269188302753
20
-737.70872808415891
30
0
10
113.04460836649321
20
-737.70872808415891
30
3.5527136788005003e-14
0
SPLINE
5
212
100
AcDbEntity
8
0
100
AcDbSpline
70
0
71
2
72
6
73
3
74
0
42
0.000000001
43
0.0000000001
44
0.0000000001
40
-1
40
-1
40
-1
40
0
40
0
40
0
10
114.73414021003776
20
-736.46973720428582
30
0
10
114.73414021003776
20
-737.04230115926589
30
0
10
114.33053113504499
20
-737.37082155396126
30
3.5527136788005003e-14
0
LINE
5
213
100
AcDbEntity
8
0
100
AcDbLine
10
111.22366658869318
20
-736.99537007803178
30
3.5527136788005003e-14
11
110.90452586994644
21
-737.52100214433324
31
0
0
SPLINE
5
214
100
AcDbEntity
8
0
100
AcDbSpline
70
0
71
2
72
6
73
3
74
0
42
0.000000001
43
0.0000000001
44
0.0000000001
40
-1
40
-1
40
-1
40
0
40
0
40
0
10
111.97457034799677
20
-737.51161600883052
30
0
10
111.5052546909878
20
-737.31450433722443
30
0
10
111.22366658869318
20
-736.99537007803144
30
3.5527136788005003e-14
0
SPLINE
5
215
100
AcDbEntity
8
0
100
AcDbSpline
70
0
71
2
72
6
73
3
74
0
42
0.000000001
43
0.0000000001
44
0.0000000001
40
-1
40
-1
40
-1
40
0
40
0
40
0
10
113.04460836649321
20
-737.70872808415891
30
3.5527136788005003e-14
10
112.4438827752288
20
-737.70872808415891
30
3.5527136788005003e-14
10
111.97457034799677
20
-737.51161600883052
30
0
0
SPLINE
5
216
100
AcDbEntity
8
0
100
AcDbSpline
70
0
71
2
72
6
73
3
74
0
42
0.000000001
43
0.0000000001
44
0.0000000001
40
-1
40
-1
40
-1
40
0
40
0
40
0
10
106.1738425216201
20
-731.82352254022976
30
0
10
105.90164015110581
20
-731.99247585579371
30
0
10
105.70452686461113
20
-732.20836063108186
30
0
0
SPLINE
5
217
100
AcDbEntity
8
0
100
AcDbSpline
70
0
71
2
72
6
73
3
74
0
42
0.000000001
43
0.0000000001
44
0.0000000001
40
-1
40
-1
40
-1
40
0
40
0
40
0
10
106.76517915132723
20
-731.57947824819871
30
-3.5527136788005003e-14
10
106.43665916035404
20
-731.6639548996726
30
0
10
106.1738425216201
20
-731.82352254022976
30
0
0
SPLINE
5
218
100
AcDbEntity
8
0
100
AcDbSpline
70
0
71
2
72
6
73
3
74
0
42
0.000000001
43
0.0000000001
44
0.0000000001
40
-1
40
-1
40
-1
40
0
40
0
40
0
10
107.43160486505396
20
-731.4856153035181
30
0
10
107.08431341052014
20
-731.4856153035181
30
0
10
106.76517915132723
20
-731.57947824819871
30
-3.5527136788005003e-14
0
SPLINE
5
219
100
AcDbEntity
8
0
100
AcDbSpline
70
0
71
2
72
6
73
3
74
0
42
0.000000001
43
0.0000000001
44
0.0000000001
40
-1
40
-1
40
-1
40
0
40
0
40
0
10
109.19622579261812
20
-732.23651888619327
30
0
10
108.86770903142185
20
-731.88922596816678
30
0
10
108.41716483797356
20
-731.68272749239327
30
0
0
SPLINE
5
220
100
AcDbEntity
8
0
100
AcDbSpline
70
0
71
2
72
6
73
3
74
0
42
0.000000001
43
0.0000000001
44
0.0000000001
40
-1
40
-1
40
-1
40
0
40
0
40
0
10
108.41716483797356
20
-731.68272749239327
30
0
10
107.96662387430217
20
-731.4856153035181
30
0
10
107.43160486505396
20
-731.4856153035181
30
0
0
SPLINE
5
221
100
AcDbEntity
8
0
100
AcDbSpline
70
0
71
2
72
6
73
3
74
0
42
0.000000001
43
0.0000000001
44
0.0000000001
40
-1
40
-1
40
-1
40
0
40
0
40
0
10
106.03304685558433
20
-732.88417389333847
30
-3.5527136788005003e-14
10
106.08936447604324
20
-732.71522052730904
30
-3.5527136788005003e-14
10
106.23016014207906
20
-732.56503983600635
30
-3.5527136788005003e-14
0
LINE
5
222
100
AcDbEntity
8
0
100
AcDbLine
10
105.4041640689789
20
-732.69644795351257
30
-3.5527136788005003e-14
11
106.03304685558433
21
-732.88417389333847
31
-3.5527136788005003e-14
0
SPLINE
5
223
100
AcDbEntity
8
0
100
AcDbSpline
70
0
71
2
72
6
73
3
74
0
42
0.000000001
43
0.0000000001
44
0.0000000001
40
-1
40
-1
40
-1
40
0
40
0
40
0
10
106.23016014207906
20
-732.56503983600635
30
-3.5527136788005003e-14
10
106.37095257833785
20
-732.41485909423875
30
0
10
106.56806586483256
20
-732.29283726363133
30
0
0
SPLINE
5
224
100
AcDbEntity
8
0
100
AcDbSpline
70
0
71
2
72
6
73
3
74
0
42
0.000000001
43
0.0000000001
44
0.0000000001
40
-1
40
-1
40
-1
40
0
40
0
40
0
10
105.70452686461113
20
-732.20836063108186
30
0
10
105.50741357811646
20
-732.43363171850081
30
0
10
105.4041640689789
20
-732.69644795351257
30
-3.5527136788005003e-14
0
SPLINE
5
225
100
AcDbEntity
8
0
100
AcDbSpline
70
0
71
2
72
6
73
3
74
0
42
0.000000001
43
0.0000000001
44
0.0000000001
40
-1
40
-1
40
-1
40
0
40
0
40
0
10
106.56806586483256
20
-732.29283726363133
30
0
10
106.76517915132723
20
-732.18020171992168
30
0
10
106.99983536494329
20
-732.1144976611688
30
3.5527136788005003e-14
0
SPLINE
5
226
100
AcDbEntity
8
0
100
AcDbSpline
70
0
71
2
72
6
73
3
74
0
42
0.000000001
43
0.0000000001
44
0.0000000001
40
-1
40
-1
40
-1
40
0
40
0
40
0
10
106.99983536494329
20
-732.1144976611688
30
3.5527136788005003e-14
10
107.2251090765559
20
-732.04879360241591
30
0
10
107.45976529017187
20
-732.04879360241591
30
0
0
SPLINE
5
227
100
AcDbEntity
8
0
100
AcDbSpline
70
0
71
2
72
6
73
3
74
0
42
0.000000001
43
0.0000000001
44
0.0000000001
40
-1
40
-1
40
-1
40
0
40
0
40
0
10
109.10236847481482
20
-733.25962557112916
30
0
10
109.24316414085058
20
-733.62569111341725
30
0
10
109.24316414085058
20
-734.0386879388011
30
0
0
SPLINE
5
228
100
AcDbEntity
8
0
100
AcDbSpline
70
0
71
2
72
6
73
3
74
0
42
0.000000001
43
0.0000000001
44
0.0000000001
40
-1
40
-1
40
-1
40
0
40
0
40
0
10
109.24316414085058
20
-734.0386879388011
30
0
10
109.24316414085058
20
-734.46107130340931
30
0
10
109.11175420659517
20
-734.81775030647316
30
0
0
SPLINE
5
229
100
AcDbEntity
8
0
100
AcDbSpline
70
0
71
2
72
6
73
3
74
0
42
0.000000001
43
0.0000000001
44
0.0000000001
40
-1
40
-1
40
-1
40
0
40
0
40
0
10
108.15435142901656
20
-732.19897429371827
30
0
10
108.47348568820941
20
-732.35854132238433
30
0
10
108.71752763360577
20
-732.6213575573961
30
0
0
SPLINE
5
230
100
AcDbEntity
8
0
100
AcDbSpline
70
0
71
2
72
6
73
3
74
0
42
0.000000001
43
0.0000000001
44
0.0000000001
40
-1
40
-1
40
-1
40
0
40
0
40
0
10
107.45976529017187
20
-732.04879360241591
30
0
10
107.82583143804337
20
-732.04879360241591
30
0
10
108.15435142901656
20
-732.19897429371827
30
0
0
SPLINE
5
231
100
AcDbEntity
8
0
100
AcDbSpline
70
0
71
2
72
6
73
3
74
0
42
0.000000001
43
0.0000000001
44
0.0000000001
40
-1
40
-1
40
-1
40
0
40
0
40
0
10
108.71752763360577
20
-732.6213575573961
30
0
10
108.96157280877907
20
-732.89356002884062
30
0
10
109.10236847481482
20
-733.25962557112916
30
0
0
SPLINE
5
232
100
AcDbEntity
8
0
100
AcDbSpline
70
0
71
2
72
6
73
3
74
0
42
0.000000001
43
0.0000000001
44
0.0000000001
40
-1
40
-1
40
-1
40
0
40
0
40
0
10
108.73630232694337
20
-735.42785961090726
30
0
10
108.492260381547
20
-735.69067584591903
30
0
10
108.17312612235418
20
-735.84085643629112
30
0
0
SPLINE
5
233
100
AcDbEntity
8
0
100
AcDbSpline
70
0
71
2
72
6
73
3
74
0
42
0.000000001
43
0.0000000001
44
0.0000000001
40
-1
40
-1
40
-1
40
0
40
0
40
0
10
109.11175420659517
20
-734.81775030647316
30
0
10
108.97096177033632
20
-735.17442951139788
30
0
10
108.73630232694337
20
-735.42785961090726
30
0
0
SPLINE
5
234
100
AcDbEntity
8
0
100
AcDbSpline
70
0
71
2
72
6
73
3
74
0
42
0.000000001
43
0.0000000001
44
0.0000000001
40
-1
40
-1
40
-1
40
0
40
0
40
0
10
108.17312612235418
20
-735.84085643629112
30
0
10
107.84460613138094
20
-735.99103702666287
30
0
10
107.46915425172917
20
-735.99103702666287
30
0
0
SPLINE
5
235
100
AcDbEntity
8
0
100
AcDbSpline
70
0
71
2
72
6
73
3
74
0
42
0.000000001
43
0.0000000001
44
0.0000000001
40
-1
40
-1
40
-1
40
0
40
0
40
0
10
107.46915425172917
20
-735.99103702666287
30
0
10
107.01861328805778
20
-735.99103702666287
30
0
10
106.65254714018631
20
-735.7751522766074
30
0
0
LINE
5
236
100
AcDbEntity
8
0
100
AcDbLine
10
106.07059624225954
20
-735.19320178240275
30
0
11
105.45110241721136
21
-735.39031385773137
31
0
0
SPLINE
5
237
100
AcDbEntity
8
0
100
AcDbSpline
70
0
71
2
72
6
73
3
74
0
42
0.000000001
43
0.0000000001
44
0.0000000001
40
-1
40
-1
40
-1
40
0
40
0
40
0
10
106.23016337185597
20
-736.23508058694756
30
0
10
106.74641091754351
20
-736.55421444241824
30
0
10
107.44099382661122
20
-736.55421444241824
30
0
0
SPLINE
5
238
100
AcDbEntity
8
0
100
AcDbSpline
70
0
71
2
72
6
73
3
74
0
42
0.000000001
43
0.0000000001
44
0.0000000001
40
-1
40
-1
40
-1
40
0
40
0
40
0
10
106.65254714018631
20
-735.7751522766074
30
0
10
106.27709526053457
20
-735.56865366205443
30
0
10
106.07059624225954
20
-735.19320178240275
30
0
0
SPLINE
5
239
100
AcDbEntity
8
0
100
AcDbSpline
70
0
71
2
72
6
73
3
74
0
42
0.000000001
43
0.0000000001
44
0.0000000001
40
-1
40
-1
40
-1
40
0
40
0
40
0
10
105.45110241721136
20
-735.39031385773103
30
0
10
105.7139158261684
20
-735.92533286697926
30
0
10
106.23016337185597
20
-736.23508058694756
30
0
0
SPLINE
5
240
100
AcDbEntity
8
0
100
AcDbSpline
70
0
71
2
72
6
73
3
74
0
42
0.000000001
43
0.0000000001
44
0.0000000001
40
-1
40
-1
40
-1
40
0
40
0
40
0
10
107.44099382661122
20
-736.55421444241824
30
0
10
107.98540179741673
20
-736.55421444241824
30
0
10
108.4359427610881
20
-736.35710236708985
30
0
0
SPLINE
5
241
100
AcDbEntity
8
0
100
AcDbSpline
70
0
71
2
72
6
73
3
74
0
42
0.000000001
43
0.0000000001
44
0.0000000001
40
-1
40
-1
40
-1
40
0
40
0
40
0
10
129.22658292608565
20
-732.65890220033634
30
3.5527136788005003e-14
10
129.44246767614101
20
-732.34915442990291
30
0
10
129.86485063702713
20
-732.16142854054215
30
0
0
SPLINE
5
242
100
AcDbEntity
8
0
100
AcDbSpline
70
0
71
2
72
6
73
3
74
0
42
0.000000001
43
0.0000000001
44
0.0000000001
40
-1
40
-1
40
-1
40
0
40
0
40
0
10
129.10456114594325
20
-732.83724180279876
30
0
10
129.14210649539729
20
-732.7433788328857
30
-3.5527136788005003e-14
10
129.22658292608565
20
-732.65890220033634
30
3.5527136788005003e-14
0
SPLINE
5
243
100
AcDbEntity
8
0
100
AcDbSpline
70
0
71
2
72
6
73
3
74
0
42
0.000000001
43
0.0000000001
44
0.0000000001
40
-1
40
-1
40
-1
40
0
40
0
40
0
10
129.82730609501738
20
-731.72027265260272
30
0
10
129.31105935677402
20
-731.95493002691956
30
0
10
128.9731528265763
20
-732.39608586439408
30
0
0
SPLINE
5
244
100
AcDbEntity
8
0
100
AcDbSpline
70
0
71
2
72
6
73
3
74
0
42
0.000000001
43
0.0000000001
44
0.0000000001
40
-1
40
-1
40
-1
40
0
40
0
40
0
10
128.95437974812717
20
-732.01124779877443
30
0
10
128.94499320890259
20
-731.79536302348652
30
0
10
128.8135848895356
20
-731.67334119287875
30
0
0
SPLINE
5
245
100
AcDbEntity
8
0
100
AcDbSpline
70
0
71
2
72
6
73
3
74
0
42
0.000000001
43
0.0000000001
44
0.0000000001
40
-1
40
-1
40
-1
40
0
40
0
40
0
10
129.86485063702713
20
-732.16142854054215
30
0
10
130.27784786613302
20
-731.97370262594882
30
0
10
130.77532152592715
20
-731.97370262594882
30
0
0
LINE
5
246
100
AcDbEntity
8
0
100
AcDbLine
10
128.9731528265763
20
-732.39608586439408
30
0
11
128.95437974812717
21
-732.01124779877443
31
0
0
SPLINE
5
247
100
AcDbEntity
8
0
100
AcDbSpline
70
0
71
2
72
6
73
3
74
0
42
0.000000001
43
0.0000000001
44
0.0000000001
40
-1
40
-1
40
-1
40
0
40
0
40
0
10
128.8135848895356
20
-731.67334119287875
30
0
10
128.67279003094407
20
-731.55131936542534
30
3.5527136788005003e-14
10
128.42874647065923
20
-731.55131936542534
30
0
0
SPLINE
5
248
100
AcDbEntity
8
0
100
AcDbSpline
70
0
71
2
72
6
73
3
74
0
42
0.000000001
43
0.0000000001
44
0.0000000001
40
-1
40
-1
40
-1
40
0
40
0
40
0
10
128.94499320890259
20
-736.0379681078972
30
0
10
129.47062567892624
20
-736.55421444241824
30
0
10
130.39048229960659
20
-736.55421444241824
30
0
0
SPLINE
5
249
100
AcDbEntity
8
0
100
AcDbSpline
70
0
71
2
72
6
73
3
74
0
42
0.000000001
43
0.0000000001
44
0.0000000001
40
-1
40
-1
40
-1
40
0
40
0
40
0
10
128.41936073887891
20
-734.61125128819822
30
-3.5527136788005003e-14
10
128.41936073887891
20
-735.52172217709813
30
-3.5527136788005003e-14
10
128.94499320890259
20
-736.0379681078972
30
0
0
LINE
5
250
100
AcDbEntity
8
0
100
AcDbLine
10
128.18470291037443
20
-731.57947824819871
30
0
11
128.18470291037443
21
-732.1426558658153
31
0
0
SPLINE
5
251
100
AcDbEntity
8
0
100
AcDbSpline
70
0
71
2
72
6
73
3
74
0
42
0.000000001
43
0.0000000001
44
0.0000000001
40
-1
40
-1
40
-1
40
0
40
0
40
0
10
128.18470291037443
20
-732.1426558658153
30
0
10
128.41936073887891
20
-732.1426558658153
30
-3.5527136788005003e-14
10
128.41936073887891
20
-732.40547210082684
30
0
0
SPLINE
5
252
100
AcDbEntity
8
0
100
AcDbSpline
70
0
71
2
72
6
73
3
74
0
42
0.000000001
43
0.0000000001
44
0.0000000001
40
-1
40
-1
40
-1
40
0
40
0
40
0
10
128.42874647065923
20
-731.55131936542534
30
0
10
128.34427003997087
20
-731.55131936542534
30
0
10
128.18470291037443
20
-731.57947824819871
30
0
0
LINE
5
253
100
AcDbEntity
8
0
100
AcDbLine
10
128.41936073887891
20
-732.40547210082684
30
0
11
128.41936073887891
21
-734.61125128819822
31
-3.5527136788005003e-14
0
LINE
5
254
100
AcDbEntity
8
0
100
AcDbLine
10
132.23019634841148
20
-735.9159463277548
30
0
11
132.00492505913158
21
-735.49356336686844
31
0
0
SPLINE
5
255
100
AcDbEntity
8
0
100
AcDbSpline
70
0
71
2
72
6
73
3
74
0
42
0.000000001
43
0.0000000001
44
0.0000000001
40
-1
40
-1
40
-1
40
0
40
0
40
0
10
131.20709021859363
20
-735.92533286697926
30
0
10
130.81286606793694
20
-736.07551345735135
30
0
10
130.43741418828515
20
-736.07551345735135
30
-3.5527136788005003e-14
0
SPLINE
5
256
100
AcDbEntity
8
0
100
AcDbSpline
70
0
71
2
72
6
73
3
74
0
42
0.000000001
43
0.0000000001
44
0.0000000001
40
-1
40
-1
40
-1
40
0
40
0
40
0
10
132.00492505913158
20
-735.49356336686844
30
3.5527136788005003e-14
10
131.6013143692503
20
-735.7751522766074
30
0
10
131.20709021859363
20
-735.92533286697926
30
0
0
SPLINE
5
257
100
AcDbEntity
8
0
100
AcDbSpline
70
0
71
2
72
6
73
3
74
0
42
0.000000001
43
0.0000000001
44
0.0000000001
40
-1
40
-1
40
-1
40
0
40
0
40
0
10
130.39048229960659
20
-736.55421444241824
30
0
10
131.28218011005742
20
-736.55421444241824
30
0
10
132.23019634841148
20
-735.9159463277548
30
0
0
SPLINE
5
258
100
AcDbEntity
8
0
100
AcDbSpline
70
0
71
2
72
6
73
3
74
0
42
0.000000001
43
0.0000000001
44
0.0000000001
40
-1
40
-1
40
-1
40
0
40
0
40
0
10
130.43741418828515
20
-736.07551345735135
30
-3.5527136788005003e-14
10
129.78975993811909
20
-736.07551345735135
30
-3.5527136788005003e-14
10
129.42369459769191
20
-735.69067544219695
30
0
0
SPLINE
5
259
100
AcDbEntity
8
0
100
AcDbSpline
70
0
71
2
72
6
73
3
74
0
42
0.000000001
43
0.0000000001
44
0.0000000001
40
-1
40
-1
40
-1
40
0
40
0
40
0
10
130.50311915541289
20
-734.4798433725532
30
0
10
130.9536609265285
20
-734.4798433725532
30
0
10
131.32911280618029
20
-734.36720792977428
30
3.5527136788005003e-14
0
SPLINE
5
260
100
AcDbEntity
8
0
100
AcDbSpline
70
0
71
2
72
6
73
3
74
0
42
0.000000001
43
0.0000000001
44
0.0000000001
40
-1
40
-1
40
-1
40
0
40
0
40
0
10
129.74282885688473
20
-734.41413921286983
30
-3.5527136788005003e-14
10
130.1276672757611
20
-734.4798433725532
30
0
10
130.50311915541289
20
-734.4798433725532
30
0
0
LINE
5
261
100
AcDbEntity
8
0
100
AcDbLine
10
129.05762925726469
20
-734.667569110518
30
-2.7871244948180175e-30
11
129.05762925726464
21
-734.22641327304393
31
0
0
SPLINE
5
262
100
AcDbEntity
8
0
100
AcDbSpline
70
0
71
2
72
6
73
3
74
0
42
0.000000001
43
0.0000000001
44
0.0000000001
40
-1
40
-1
40
-1
40
0
40
0
40
0
10
129.05762925726469
20
-734.22641327304393
30
-3.5527136788005003e-14
10
129.35799124545264
20
-734.34843505318622
30
3.5527136788005003e-14
10
129.74282885688473
20
-734.41413921286983
30
-3.5527136788005003e-14
0
SPLINE
5
263
100
AcDbEntity
8
0
100
AcDbSpline
70
0
71
2
72
6
73
3
74
0
42
0.000000001
43
0.0000000001
44
0.0000000001
40
-1
40
-1
40
-1
40
0
40
0
40
0
10
129.42369459769191
20
-735.69067544219695
30
0
10
129.05762925726469
20
-735.31522356254516
30
-3.5527136788005003e-14
10
129.05762925726469
20
-734.667569110518
30
0
0
SPLINE
5
264
100
AcDbEntity
8
0
100
AcDbSpline
70
0
71
2
72
6
73
3
74
0
42
0.000000001
43
0.0000000001
44
0.0000000001
40
-1
40
-1
40
-1
40
0
40
0
40
0
10
131.32911280618029
20
-734.36720792977428
30
3.5527136788005003e-14
10
131.70456468583208
20
-734.26395862249797
30
0
10
131.97676705634635
20
-734.06684634530848
30
0
0
SPLINE
5
265
100
AcDbEntity
8
0
100
AcDbSpline
70
0
71
2
72
6
73
3
74
0
42
0.000000001
43
0.0000000001
44
0.0000000001
40
-1
40
-1
40
-1
40
0
40
0
40
0
10
131.97676705634635
20
-734.06684634530848
30
0
10
132.24896942686064
20
-733.8697342699802
30
0
10
132.3991500172325
20
-733.59753169760484
30
0
0
SPLINE
5
266
100
AcDbEntity
8
0
100
AcDbSpline
70
0
71
2
72
6
73
3
74
0
42
0.000000001
43
0.0000000001
44
0.0000000001
40
-1
40
-1
40
-1
40
0
40
0
40
0
10
132.54933060760436
20
-733.00619506789769
30
3.5527136788005003e-14
10
132.54933060760436
20
-732.6870610105658
30
0
10
132.42730882746196
20
-732.40547220175756
30
0
0
SPLINE
5
267
100
AcDbEntity
8
0
100
AcDbSpline
70
0
71
2
72
6
73
3
74
0
42
0.000000001
43
0.0000000001
44
0.0000000001
40
-1
40
-1
40
-1
40
0
40
0
40
0
10
132.42730882746196
20
-732.40547220175756
30
0
10
132.30528704731955
20
-732.13326962938231
30
-3.5527136788005003e-14
10
132.0894022972642
20
-731.92677116622508
30
3.5527136788005003e-14
0
SPLINE
5
268
100
AcDbEntity
8
0
100
AcDbSpline
70
0
71
2
72
6
73
3
74
0
42
0.000000001
43
0.0000000001
44
0.0000000001
40
-1
40
-1
40
-1
40
0
40
0
40
0
10
132.0894022972642
20
-731.92677116622508
30
3.5527136788005003e-14
10
131.86413181542855
20
-731.72027266521911
30
0
10
131.5731563664651
20
-731.59825083461124
30
0
0
SPLINE
5
269
100
AcDbEntity
8
0
100
AcDbSpline
70
0
71
2
72
6
73
3
74
0
42
0.000000001
43
0.0000000001
44
0.0000000001
40
-1
40
-1
40
-1
40
0
40
0
40
0
10
132.3991500172325
20
-733.59753169760484
30
0
10
132.54933060760436
20
-733.32532912522947
30
0
10
132.54933060760436
20
-733.00619506789769
30
3.5527136788005003e-14
0
SPLINE
5
270
100
AcDbEntity
8
0
100
AcDbSpline
70
0
71
2
72
6
73
3
74
0
42
0.000000001
43
0.0000000001
44
0.0000000001
40
-1
40
-1
40
-1
40
0
40
0
40
0
10
131.5731563664651
20
-731.59825083461124
30
0
10
131.27279518572135
20
-731.48561530351822
30
3.5527136788005003e-14
10
130.92550211629907
20
-731.48561530351822
30
0
0
SPLINE
5
271
100
AcDbEntity
8
0
100
AcDbSpline
70
0
71
2
72
6
73
3
74
0
42
0.000000001
43
0.0000000001
44
0.0000000001
40
-1
40
-1
40
-1
40
0
40
0
40
0
10
130.92550211629907
20
-731.48561530351822
30
0
10
130.33416548659187
20
-731.48561527828565
30
0
10
129.82730609501738
20
-731.72027265260272
30
0
0
SPLINE
5
272
100
AcDbEntity
8
0
100
AcDbSpline
70
0
71
2
72
6
73
3
74
0
42
0.000000001
43
0.0000000001
44
0.0000000001
40
-1
40
-1
40
-1
40
0
40
0
40
0
10
124.89949815597704
20
-732.33038175517561
30
-3.5527136788005003e-14
10
124.95581577643594
20
-732.29283655711743
30
0
10
125.16231479471101
20
-732.19897363766995
30
0
0
SPLINE
5
273
100
AcDbEntity
8
0
100
AcDbSpline
70
0
71
2
72
6
73
3
74
0
42
0.000000001
43
0.0000000001
44
0.0000000001
40
-1
40
-1
40
-1
40
0
40
0
40
0
10
125.16231479471101
20
-732.19897363766995
30
0
10
125.36881381298599
20
-732.11449700512037
30
3.5527136788005003e-14
10
125.6410161835003
20
-732.11449700512037
30
0
0
SPLINE
5
274
100
AcDbEntity
8
0
100
AcDbSpline
70
0
71
2
72
6
73
3
74
0
42
0.000000001
43
0.0000000001
44
0.0000000001
40
-1
40
-1
40
-1
40
0
40
0
40
0
10
125.6410161835003
20
-732.11449700512037
30
0
10
125.86628666533599
20
-732.11449700512037
30
3.5527136788005003e-14
10
126.04462687338156
20
-732.23651883572813
30
0
0
LINE
5
275
100
AcDbEntity
8
0
100
AcDbLine
10
126.87062133159316
20
-738.12172531326485
30
-1.2025682206034339e-39
11
126.87062133159316
21
-736.46973760800779
31
0
0
LINE
5
276
100
AcDbEntity
8
0
100
AcDbLine
10
126.87062133159316
20
-736.46973760800779
30
0
11
127.54643439198873
21
-736.46973760800779
31
-2.4672816508035328e-42
0
SPLINE
5
277
100
AcDbEntity
8
0
100
AcDbSpline
70
0
71
2
72
6
73
3
74
0
42
0.000000001
43
0.0000000001
44
0.0000000001
40
-1
40
-1
40
-1
40
0
40
0
40
0
10
126.7861449009048
20
-732.04879299683273
30
0
10
126.70166847021645
20
-731.87045339437032
30
0
10
126.56087441906912
20
-731.74843156376255
30
0
0
LINE
5
278
100
AcDbEntity
8
0
100
AcDbLine
10
126.87062133159316
20
-735.96287781271133
30
2.4672816508035328e-42
11
126.87062133159316
21
-732.46178992314685
31
0
0
SPLINE
5
279
100
AcDbEntity
8
0
100
AcDbSpline
70
0
71
2
72
6
73
3
74
0
42
0.000000001
43
0.0000000001
44
0.0000000001
40
-1
40
-1
40
-1
40
0
40
0
40
0
10
126.04462687338156
20
-732.23651883572813
30
0
10
126.21357973475831
20
-732.3679269532339
30
0
10
126.23235281320746
20
-732.64012952560938
30
0
0
SPLINE
5
280
100
AcDbEntity
8
0
100
AcDbSpline
70
0
71
2
72
6
73
3
74
0
42
0.000000001
43
0.0000000001
44
0.0000000001
40
-1
40
-1
40
-1
40
0
40
0
40
0
10
126.87062133159316
20
-732.46178992314685
30
0
10
126.87062133159316
20
-732.22713259929503
30
0
10
126.7861449009048
20
-732.04879299683273
30
0
0
LINE
5
281
100
AcDbEntity
8
0
100
AcDbLine
10
127.54643439198873
20
-735.96287781271133
30
0
11
126.87062133159316
21
-735.96287781271133
31
2.4672816508035328e-42
0
LINE
5
282
100
AcDbEntity
8
0
100
AcDbLine
10
126.23235281320746
20
-732.64012952560938
30
0
11
126.23235281320746
21
-735.96287781271133
31
0
0
LINE
5
283
100
AcDbEntity
8
0
100
AcDbLine
10
126.23235281320746
20
-735.96287781271133
30
0
11
125.10599717425208
21
-735.96287781271133
31
8.5133914576071159e-40
0
LINE
5
284
100
AcDbEntity
8
0
100
AcDbLine
10
126.23235281320746
20
-738.12172531326485
30
0
11
126.87062133159316
21
-738.12172531326485
31
-1.2025682206034339e-39
0
SPLINE
5
285
100
AcDbEntity
8
0
100
AcDbSpline
70
0
71
2
72
6
73
3
74
0
42
0.000000001
43
0.0000000001
44
0.0000000001
40
-1
40
-1
40
-1
40
0
40
0
40
0
10
126.56087441906912
20
-731.74843156376255
30
0
10
126.42008036792178
20
-731.63579602005314
30
0
10
126.23235442809593
20
-731.57947825450651
30
-3.5527136788005003e-14
0
LINE
5
286
100
AcDbEntity
8
0
100
AcDbLine
10
126.23235281320746
20
-736.46973760800779
30
-3.5527136788005003e-14
11
126.23235281320746
21
-738.12172531326485
31
0
0
LINE
5
287
100
AcDbEntity
8
0
100
AcDbLine
10
125.10599717425208
20
-736.46973760800779
30
-3.5527136788005003e-14
11
126.23235281320746
21
-736.46973760800779
31
-3.5527136788005003e-14
0
LINE
5
288
100
AcDbEntity
8
0
100
AcDbLine
10
127.54643439198873
20
-736.46973760800779
30
-2.4672816508035328e-42
11
127.54643439198873
21
-735.96287781271133
31
0
0
LINE
5
289
100
AcDbEntity
8
0
100
AcDbLine
10
125.10599717425208
20
-735.96287781271133
30
8.5133914576071159e-40
11
125.10599717425208
21
-736.46973760800779
31
-3.5527136788005003e-14
0
SPLINE
5
290
100
AcDbEntity
8
0
100
AcDbSpline
70
0
71
2
72
6
73
3
74
0
42
0.000000001
43
0.0000000001
44
0.0000000001
40
-1
40
-1
40
-1
40
0
40
0
40
0
10
126.23235442809593
20
-731.57947825450651
30
-3.5527136788005003e-14
10
126.04462848826999
20
-731.52316048896012
30
0
10
125.83812946999501
20
-731.52316048896012
30
3.5527136788005003e-14
0
SPLINE
5
291
100
AcDbEntity
8
0
100
AcDbSpline
70
0
71
2
72
6
73
3
74
0
42
0.000000001
43
0.0000000001
44
0.0000000001
40
-1
40
-1
40
-1
40
0
40
0
40
0
10
125.46267759034322
20
-731.56070566809376
30
0
10
125.28433738229765
20
-731.59825084722775
30
0
10
125.14354333115035
20
-731.64518231956765
30
0
0
SPLINE
5
292
100
AcDbEntity
8
0
100
AcDbSpline
70
0
71
2
72
6
73
3
74
0
42
0.000000001
43
0.0000000001
44
0.0000000001
40
-1
40
-1
40
-1
40
0
40
0
40
0
10
125.14354333115035
20
-731.64518231956765
30
0
10
125.00274928000307
20
-731.69211379190801
30
0
10
124.89949977086553
20
-731.73904526424803
30
0
0
LINE
5
293
100
AcDbEntity
8
0
100
AcDbLine
10
120.14064792297893
20
-734.2827310953636
30
0
11
123.73559797501188
21
-734.28273089350284
31
-7.6999807651178479e-30
0
SPLINE
5
294
100
AcDbEntity
8
0
100
AcDbSpline
70
0
71
2
72
6
73
3
74
0
42
0.000000001
43
0.0000000001
44
0.0000000001
40
-1
40
-1
40
-1
40
0
40
0
40
0
10
125.83812946999501
20
-731.52316048896012
30
3.5527136788005003e-14
10
125.64101779838879
20
-731.52316048896012
30
0
10
125.46267759034322
20
-731.56070566809376
30
0
0
SPLINE
5
295
100
AcDbEntity
8
0
100
AcDbSpline
70
0
71
2
72
6
73
3
74
0
42
0.000000001
43
0.0000000001
44
0.0000000001
40
-1
40
-1
40
-1
40
0
40
0
40
0
10
124.89949977086553
20
-731.73904526424803
30
0
10
124.78686452994766
20
-731.78597673658817
30
0
10
124.73054690948874
20
-731.81413562251566
30
0
0
LINE
5
296
100
AcDbEntity
8
0
100
AcDbLine
10
124.73054690948874
20
-731.81413562251566
30
0
11
124.89949815597704
21
-732.33038175517561
31
-3.5527136788005003e-14
0
SPLINE
5
297
100
AcDbEntity
8
0
100
AcDbSpline
70
0
71
2
72
6
73
3
74
0
42
0.000000001
43
0.0000000001
44
0.0000000001
40
-1
40
-1
40
-1
40
0
40
0
40
0
10
123.56664511363512
20
-734.99608930335239
30
0
10
123.41646533070751
20
-735.32460969804777
30
0
10
123.181807502203
20
-735.55926712282985
30
0
0
SPLINE
5
298
100
AcDbEntity
8
0
100
AcDbSpline
70
0
71
2
72
6
73
3
74
0
42
0.000000001
43
0.0000000001
44
0.0000000001
40
-1
40
-1
40
-1
40
0
40
0
40
0
10
122.61862968272531
20
-735.92533246325729
30
0
10
122.29949542353245
20
-736.05674078262405
30
0
10
121.9428166223298
20
-736.05674078262405
30
3.5527136788005003e-14
0
SPLINE
5
299
100
AcDbEntity
8
0
100
AcDbSpline
70
0
71
2
72
6
73
3
74
0
42
0.000000001
43
0.0000000001
44
0.0000000001
40
-1
40
-1
40
-1
40
0
40
0
40
0
10
121.9428166223298
20
-736.05674078262405
30
3.5527136788005003e-14
10
121.58613620623869
20
-736.05674078262405
30
0
10
121.2763892937146
20
-735.92533246325729
30
0
0
SPLINE
5
300
100
AcDbEntity
8
0
100
AcDbSpline
70
0
71
2
72
6
73
3
74
0
42
0.000000001
43
0.0000000001
44
0.0000000001
40
-1
40
-1
40
-1
40
0
40
0
40
0
10
123.181807502203
20
-735.55926712282985
30
0
10
122.93776394191818
20
-735.79392414389019
30
0
10
122.61862968272531
20
-735.92533246325729
30
0
0
SPLINE
5
301
100
AcDbEntity
8
0
100
AcDbSpline
70
0
71
2
72
6
73
3
74
0
42
0.000000001
43
0.0000000001
44
0.0000000001
40
-1
40
-1
40
-1
40
0
40
0
40
0
10
123.73559797501188
20
-734.28273089350284
30
0
10
123.70743916478241
20
-734.6675689086569
30
0
10
123.56664511363512
20
-734.99608930335239
30
0
0
SPLINE
5
302
100
AcDbEntity
8
0
100
AcDbSpline
70
0
71
2
72
6
73
3
74
0
42
0.000000001
43
0.0000000001
44
0.0000000001
40
-1
40
-1
40
-1
40
0
40
0
40
0
10
120.65689546866649
20
-731.8235218841811
30
0
10
120.38469148326374
20
-731.99247519974551
30
-3.5527136788005003e-14
10
120.17819407987716
20
-732.20835997503355
30
0
0
SPLINE
5
303
100
AcDbEntity
8
0
100
AcDbSpline
70
0
71
2
72
6
73
3
74
0
42
0.000000001
43
0.0000000001
44
0.0000000001
40
-1
40
-1
40
-1
40
0
40
0
40
0
10
120.72259720601728
20
-735.55926712282985
30
0
10
120.47855364573245
20
-735.32460969804777
30
0
10
120.32837224791635
20
-734.99608930335239
30
-3.5527136788005003e-14
0
SPLINE
5
304
100
AcDbEntity
8
0
100
AcDbSpline
70
0
71
2
72
6
73
3
74
0
42
0.000000001
43
0.0000000001
44
0.0000000001
40
-1
40
-1
40
-1
40
0
40
0
40
0
10
121.25761783015392
20
-731.57947824819871
30
0
10
120.92909622429229
20
-731.6639548996726
30
0
10
120.65689546866649
20
-731.8235218841811
30
0
0
SPLINE
5
305
100
AcDbEntity
8
0
100
AcDbSpline
70
0
71
2
72
6
73
3
74
0
42
0.000000001
43
0.0000000001
44
0.0000000001
40
-1
40
-1
40
-1
40
0
40
0
40
0
10
120.32837224791635
20
-734.99608930335239
30
-3.5527136788005003e-14
10
120.16880673320838
20
-734.6769554478816
30
0
10
120.14064792297893
20
-734.2827310953636
30
0
0
SPLINE
5
306
100
AcDbEntity
8
0
100
AcDbSpline
70
0
71
2
72
6
73
3
74
0
42
0.000000001
43
0.0000000001
44
0.0000000001
40
-1
40
-1
40
-1
40
0
40
0
40
0
10
121.2763892937146
20
-735.92533246325729
30
0
10
120.95725503452178
20
-735.79392454761216
30
0
10
120.72259720601728
20
-735.55926712282985
30
0
0
SPLINE
5
307
100
AcDbEntity
8
0
100
AcDbSpline
70
0
71
2
72
6
73
3
74
0
42
0.000000001
43
0.0000000001
44
0.0000000001
40
-1
40
-1
40
-1
40
0
40
0
40
0
10
121.44534376997984
20
-732.03940655853887
30
0
10
121.67999998359585
20
-731.97370249978576
30
-3.5527136788005003e-14
10
121.91465781210036
20
-731.97370249978576
30
0
0
SPLINE
5
308
100
AcDbEntity
8
0
100
AcDbSpline
70
0
71
2
72
6
73
3
74
0
42
0.000000001
43
0.0000000001
44
0.0000000001
40
-1
40
-1
40
-1
40
0
40
0
40
0
10
121.01357426986915
20
-732.21774616100095
30
0
10
121.21068594147538
20
-732.10511061729153
30
3.5527136788005003e-14
10
121.44534376997984
20
-732.03940655853887
30
0
0
LINE
5
309
100
AcDbEntity
8
0
100
AcDbLine
10
119.85905982068432
20
-732.70583358436215
30
0
11
120.4128519083817
21
-732.85601427566462
31
0
0
SPLINE
5
310
100
AcDbEntity
8
0
100
AcDbSpline
70
0
71
2
72
6
73
3
74
0
42
0.000000001
43
0.0000000001
44
0.0000000001
40
-1
40
-1
40
-1
40
0
40
0
40
0
10
120.17819407987716
20
-732.20835997503355
30
0
10
119.9716934467137
20
-732.43363101198713
30
0
10
119.85905982068432
20
-732.70583358436215
30
0
0
SPLINE
5
311
100
AcDbEntity
8
0
100
AcDbSpline
70
0
71
2
72
6
73
3
74
0
42
0.000000001
43
0.0000000001
44
0.0000000001
40
-1
40
-1
40
-1
40
0
40
0
40
0
10
120.65689546866649
20
-732.48994873337642
30
3.5527136788005003e-14
10
120.81646259826293
20
-732.33038170471036
30
0
10
121.01357426986915
20
-732.21774616100095
30
0
0
SPLINE
5
312
100
AcDbEntity
8
0
100
AcDbSpline
70
0
71
2
72
6
73
3
74
0
42
0.000000001
43
0.0000000001
44
0.0000000001
40
-1
40
-1
40
-1
40
0
40
0
40
0
10
120.4128519083817
20
-732.85601427566462
30
3.5527136788005003e-14
10
120.49732833907007
20
-732.65890199847536
30
3.5527136788005003e-14
10
120.65689546866649
20
-732.48994873337642
30
3.5527136788005003e-14
0
SPLINE
5
313
100
AcDbEntity
8
0
100
AcDbSpline
70
0
71
2
72
6
73
3
74
0
42
0.000000001
43
0.0000000001
44
0.0000000001
40
-1
40
-1
40
-1
40
0
40
0
40
0
10
121.91465781210036
20
-731.97370249978576
30
0
10
122.27133661330299
20
-731.97370249978576
30
-3.5527136788005003e-14
10
122.59047087249586
20
-732.10511061729153
30
3.5527136788005003e-14
0
LINE
5
314
100
AcDbEntity
8
0
100
AcDbLine
10
123.72621385812005
20
-733.79464357107213
30
-2.4204158501391246e-38
11
119.53991425727216
21
-733.79464357107213
31
1.533254777935717e-39
0
SPLINE
5
315
100
AcDbEntity
8
0
100
AcDbSpline
70
0
71
2
72
6
73
3
74
0
42
0.000000001
43
0.0000000001
44
0.0000000001
40
-1
40
-1
40
-1
40
0
40
0
40
0
10
119.53991425727216
20
-733.79464357107213
30
0
10
119.53053821482264
20
-733.8228023813017
30
-3.5527136788005003e-14
10
119.53053821482264
20
-733.89789287834856
30
0
0
SPLINE
5
316
100
AcDbEntity
8
0
100
AcDbSpline
70
0
71
2
72
6
73
3
74
0
42
0.000000001
43
0.0000000001
44
0.0000000001
40
-1
40
-1
40
-1
40
0
40
0
40
0
10
122.59047087249586
20
-732.10511061729153
30
3.5527136788005003e-14
10
122.90021939990842
20
-732.24590507216124
30
0
10
123.14426296019322
20
-732.48994873337642
30
3.5527136788005003e-14
0
SPLINE
5
317
100
AcDbEntity
8
0
100
AcDbSpline
70
0
71
2
72
6
73
3
74
0
42
0.000000001
43
0.0000000001
44
0.0000000001
40
-1
40
-1
40
-1
40
0
40
0
40
0
10
123.14426296019322
20
-732.48994873337642
30
3.5527136788005003e-14
10
123.38830652047804
20
-732.73399239459184
30
0
10
123.54787365007446
20
-733.06251268835672
30
-3.5527136788005003e-14
0
SPLINE
5
318
100
AcDbEntity
8
0
100
AcDbSpline
70
0
71
2
72
6
73
3
74
0
42
0.000000001
43
0.0000000001
44
0.0000000001
40
-1
40
-1
40
-1
40
0
40
0
40
0
10
123.54787365007446
20
-733.06251268835672
30
-3.5527136788005003e-14
10
123.69805504789059
20
-733.40041921855436
30
0
10
123.72621385812005
20
-733.79464357107213
30
0
0
SPLINE
5
319
100
AcDbEntity
8
0
100
AcDbSpline
70
0
71
2
72
6
73
3
74
0
42
0.000000001
43
0.0000000001
44
0.0000000001
40
-1
40
-1
40
-1
40
0
40
0
40
0
10
120.97602972785937
20
-736.34771582786561
30
0
10
121.41718495975039
20
-736.55421403869627
30
0
10
121.95220396899859
20
-736.55421403869627
30
0
0
SPLINE
5
320
100
AcDbEntity
8
0
100
AcDbSpline
70
0
71
2
72
6
73
3
74
0
42
0.000000001
43
0.0000000001
44
0.0000000001
40
-1
40
-1
40
-1
40
0
40
0
40
0
10
120.20635289010664
20
-735.80331068311477
30
0
10
120.52548714929952
20
-736.15060375253722
30
0
10
120.97602972785937
20
-736.34771582786561
30
0
0
SPLINE
5
321
100
AcDbEntity
8
0
100
AcDbSpline
70
0
71
2
72
6
73
3
74
0
42
0.000000001
43
0.0000000001
44
0.0000000001
40
-1
40
-1
40
-1
40
0
40
0
40
0
10
119.53053821482264
20
-734.04807346872019
30
0
10
119.53053821482264
20
-734.55493346587809
30
0
10
119.70887842286821
20
-735.00547543885477
30
-3.5527136788005003e-14
0
SPLINE
5
322
100
AcDbEntity
8
0
100
AcDbSpline
70
0
71
2
72
6
73
3
74
0
42
0.000000001
43
0.0000000001
44
0.0000000001
40
-1
40
-1
40
-1
40
0
40
0
40
0
10
119.70887842286821
20
-735.00547543885477
30
-3.5527136788005003e-14
10
119.88721863091378
20
-735.45601761369244
30
3.5527136788005003e-14
10
120.20635289010664
20
-735.80331068311477
30
0
0
LINE
5
323
100
AcDbEntity
8
0
100
AcDbLine
10
119.53053821482264
20
-733.89789287834856
30
0
11
119.53053821482264
21
-734.04807346872019
31
0
0
SPLINE
5
324
100
AcDbEntity
8
0
100
AcDbSpline
70
0
71
2
72
6
73
3
74
0
42
0.000000001
43
0.0000000001
44
0.0000000001
40
-1
40
-1
40
-1
40
0
40
0
40
0
10
121.95220396899859
20
-736.55421403869627
30
0
10
122.47783563157802
20
-736.55421403869627
30
3.5527136788005003e-14
10
122.92837821013785
20
-736.34771582786561
30
0
0
SPLINE
5
325
100
AcDbEntity
8
0
100
AcDbSpline
70
0
71
2
72
6
73
3
74
0
42
0.000000001
43
0.0000000001
44
0.0000000001
40
-1
40
-1
40
-1
40
0
40
0
40
0
10
124.21430097868964
20
-735.00547543885477
30
0
10
124.3926411867352
20
-734.55493366773931
30
0
10
124.3926411867352
20
-734.03868733321804
30
-3.5527136788005003e-14
0
SPLINE
5
326
100
AcDbEntity
8
0
100
AcDbSpline
70
0
71
2
72
6
73
3
74
0
42
0.000000001
43
0.0000000001
44
0.0000000001
40
-1
40
-1
40
-1
40
0
40
0
40
0
10
122.92837821013785
20
-736.34771582786561
30
0
10
123.37892078869771
20
-736.15060375253722
30
0
10
123.7074407796709
20
-735.80331068311477
30
0
0
SPLINE
5
327
100
AcDbEntity
8
0
100
AcDbSpline
70
0
71
2
72
6
73
3
74
0
42
0.000000001
43
0.0000000001
44
0.0000000001
40
-1
40
-1
40
-1
40
0
40
0
40
0
10
123.7074407796709
20
-735.80331068311477
30
0
10
124.02657503886377
20
-735.46540415291702
30
0
10
124.21430097868964
20
-735.00547543885477
30
0
0
SPLINE
5
328
100
AcDbEntity
8
0
100
AcDbSpline
70
0
71
2
72
6
73
3
74
0
42
0.000000001
43
0.0000000001
44
0.0000000001
40
-1
40
-1
40
-1
40
0
40
0
40
0
10
124.3926411867352
20
-734.03868733321804
30
-3.5527136788005003e-14
10
124.3926411867352
20
-733.51305486319438
30
0
10
124.21430097868964
20
-733.05312655285422
30
0
0
SPLINE
5
329
100
AcDbEntity
8
0
100
AcDbSpline
70
0
71
2
72
6
73
3
74
0
42
0.000000001
43
0.0000000001
44
0.0000000001
40
-1
40
-1
40
-1
40
0
40
0
40
0
10
116.10454425394337
20
-736.48851109017914
30
0
10
116.15147614262197
20
-736.49789641823747
30
0
10
116.22656522664157
20
-736.49789641823747
30
0
0
SPLINE
5
330
100
AcDbEntity
8
0
100
AcDbSpline
70
0
71
2
72
6
73
3
74
0
42
0.000000001
43
0.0000000001
44
0.0000000001
40
-1
40
-1
40
-1
40
0
40
0
40
0
10
122.92837821013785
20
-731.68272749239327
30
0
10
122.47783563157802
20
-731.4856153035181
30
3.5527136788005003e-14
10
121.9428166223298
20
-731.4856153035181
30
0
0
SPLINE
5
331
100
AcDbEntity
8
0
100
AcDbSpline
70
0
71
2
72
6
73
3
74
0
42
0.000000001
43
0.0000000001
44
0.0000000001
40
-1
40
-1
40
-1
40
0
40
0
40
0
10
121.9428166223298
20
-731.4856153035181
30
0
10
121.58613782112717
20
-731.4856153035181
30
0
10
121.25761783015392
20
-731.57947824819871
30
0
0
SPLINE
5
332
100
AcDbEntity
8
0
100
AcDbSpline
70
0
71
2
72
6
73
3
74
0
42
0.000000001
43
0.0000000001
44
0.0000000001
40
-1
40
-1
40
-1
40
0
40
0
40
0
10
124.21430097868964
20
-733.05312655285422
30
0
10
124.02657503886377
20
-732.59319804065274
30
0
10
123.69805504789059
20
-732.23651888619327
30
0
0
SPLINE
5
333
100
AcDbEntity
8
0
100
AcDbSpline
70
0
71
2
72
6
73
3
74
0
42
0.000000001
43
0.0000000001
44
0.0000000001
40
-1
40
-1
40
-1
40
0
40
0
40
0
10
123.69805504789059
20
-732.23651888619327
30
0
10
123.36953344202894
20
-731.88922596816678
30
0
10
122.92837821013785
20
-731.68272749239327
30
0
0
LINE
5
334
100
AcDbEntity
8
0
100
AcDbLine
10
118.54497824190304
20
-736.46973760800779
30
1.3901186947215252e-40
11
118.54497824190304
21
-731.57947824819871
31
0
0
LINE
5
335
100
AcDbEntity
8
0
100
AcDbLine
10
117.94425588041555
20
-736.46973760800779
30
3.5527136788005003e-14
11
118.54497824190304
21
-736.46973760800779
31
1.3901186947215252e-40
0
SPLINE
5
336
100
AcDbEntity
8
0
100
AcDbSpline
70
0
71
2
72
6
73
3
74
0
42
0.000000001
43
0.0000000001
44
0.0000000001
40
-1
40
-1
40
-1
40
0
40
0
40
0
10
117.90671295329425
20
-734.62063782742246
30
0
10
117.70960128168802
20
-735.21197445712983
30
0
10
117.23089989289872
20
-735.54988098732747
30
0
0
LINE
5
337
100
AcDbEntity
8
0
100
AcDbLine
10
116.10454263905488
20
-735.90656019225219
30
-2.7871244948180175e-30
11
116.10454425394337
21
-736.48851109017914
31
0
0
SPLINE
5
338
100
AcDbEntity
8
0
100
AcDbSpline
70
0
71
2
72
6
73
3
74
0
42
0.000000001
43
0.0000000001
44
0.0000000001
40
-1
40
-1
40
-1
40
0
40
0
40
0
10
110.90452586994644
20
-737.52100214433324
30
0
10
111.32690963827682
20
-737.88706788848231
30
0
10
111.85254291574469
20
-738.08417996381093
30
0
0
LINE
5
339
100
AcDbEntity
8
0
100
AcDbLine
10
117.94425588041555
20
-735.29645088781831
30
3.5527136788005003e-14
11
117.94425588041555
21
-736.46973760800779
31
3.5527136788005003e-14
0
SPLINE
5
340
100
AcDbEntity
8
0
100
AcDbSpline
70
0
71
2
72
6
73
3
74
0
42
0.000000001
43
0.0000000001
44
0.0000000001
40
-1
40
-1
40
-1
40
0
40
0
40
0
10
117.2121268144496
20
-736.17876256276656
30
0
10
117.67205512478979
20
-735.859628707296
30
0
10
117.94425588041555
20
-735.29645088781831
30
3.5527136788005003e-14
0
LINE
5
341
100
AcDbEntity
8
0
100
AcDbLine
10
117.90671295329425
20
-731.57947824819871
30
1.2025621353477773e-39
11
117.90671295329425
21
-734.62063782742246
31
0
0
SPLINE
5
342
100
AcDbEntity
8
0
100
AcDbSpline
70
0
71
2
72
6
73
3
74
0
42
0.000000001
43
0.0000000001
44
0.0000000001
40
-1
40
-1
40
-1
40
0
40
0
40
0
10
117.23089989289872
20
-735.54988098732747
30
0
10
116.75219850410946
20
-735.88778751752534
30
-3.5527136788005003e-14
10
116.10454263905488
20
-735.90656019225219
30
0
0
SPLINE
5
343
100
AcDbEntity
8
0
100
AcDbSpline
70
0
71
2
72
6
73
3
74
0
42
0.000000001
43
0.0000000001
44
0.0000000001
40
-1
40
-1
40
-1
40
0
40
0
40
0
10
116.22656522664157
20
-736.49789641823747
30
0
10
116.75219850410946
20
-736.49789641823747
30
0
10
117.2121268144496
20
-736.17876256276656
30
0
0
LINE
5
344
100
AcDbEntity
8
0
100
AcDbLine
10
118.54497824190304
20
-731.57947824819871
30
0
11
117.90671295329425
21
-731.57947824819871
31
1.2025621353477773e-39
0
SPLINE
5
345
100
AcDbEntity
8
0
100
AcDbSpline
70
0
71
2
72
6
73
3
74
0
42
0.000000001
43
0.0000000001
44
0.0000000001
40
-1
40
-1
40
-1
40
0
40
0
40
0
10
113.03521617515898
20
-738.2906781746417
30
3.5527136788005003e-14
10
113.56084945262688
20
-738.2906781746417
30
0
10
113.9926189527376
20
-738.15927025899668
30
0
0
SPLINE
5
346
100
AcDbEntity
8
0
100
AcDbSpline
70
0
71
2
72
6
73
3
74
0
42
0.000000001
43
0.0000000001
44
0.0000000001
40
-1
40
-1
40
-1
40
0
40
0
40
0
10
114.74352271204117
20
-737.79320451484762
30
0
10
115.06265697123405
20
-737.55854709006496
30
3.5527136788005003e-14
10
115.2409971792796
20
-737.19248174963786
30
0
0
SPLINE
5
347
100
AcDbEntity
8
0
100
AcDbSpline
70
0
71
2
72
6
73
3
74
0
42
0.000000001
43
0.0000000001
44
0.0000000001
40
-1
40
-1
40
-1
40
0
40
0
40
0
10
111.85254291574469
20
-738.08417996381093
30
0
10
112.3687904614323
20
-738.2906781746417
30
3.5527136788005003e-14
10
113.03521617515898
20
-738.2906781746417
30
3.5527136788005003e-14
0
SPLINE
5
348
100
AcDbEntity
8
0
100
AcDbSpline
70
0
71
2
72
6
73
3
74
0
42
0.000000001
43
0.0000000001
44
0.0000000001
40
-1
40
-1
40
-1
40
0
40
0
40
0
10
113.9926189527376
20
-738.15927025899668
30
0
10
114.42438845284828
20
-738.03724847885451
30
0
10
114.74352271204117
20
-737.79320451484762
30
0
0
SPLINE
5
349
100
AcDbEntity
8
0
100
AcDbSpline
70
0
71
2
72
6
73
3
74
0
42
0.000000001
43
0.0000000001
44
0.0000000001
40
-1
40
-1
40
-1
40
0
40
0
40
0
10
115.2409971792796
20
-737.19248174963786
30
0
10
115.40995004065635
20
-736.83580254471303
30
0
10
115.40995004065635
20
-736.37587423437253
30
0
0
SPLINE
5
350
100
AcDbEntity
8
0
100
AcDbSpline
70
0
71
2
72
6
73
3
74
0
42
0.000000001
43
0.0000000001
44
0.0000000001
40
-1
40
-1
40
-1
40
0
40
0
40
0
10
113.27926135033226
20
-734.63940949284449
30
0
10
112.78178526820537
20
-734.52677405006534
30
0
10
112.40633661833051
20
-734.41413840542555
30
0
0
SPLINE
5
351
100
AcDbEntity
8
0
100
AcDbSpline
70
0
71
2
72
6
73
3
74
0
42
0.000000001
43
0.0000000001
44
0.0000000001
40
-1
40
-1
40
-1
40
0
40
0
40
0
10
115.2785417212894
20
-735.69067463475267
30
0
10
115.13774767014209
20
-735.41847186051643
30
0
10
114.86554691451629
20
-735.22135978518804
30
0
0
SPLINE
5
352
100
AcDbEntity
8
0
100
AcDbSpline
70
0
71
2
72
6
73
3
74
0
42
0.000000001
43
0.0000000001
44
0.0000000001
40
-1
40
-1
40
-1
40
0
40
0
40
0
10
115.40995004065635
20
-736.37587423437253
30
0
10
115.40995004065635
20
-735.97226354449151
30
0
10
115.2785417212894
20
-735.69067463475267
30
0
0
SPLINE
5
353
100
AcDbEntity
8
0
100
AcDbSpline
70
0
71
2
72
6
73
3
74
0
42
0.000000001
43
0.0000000001
44
0.0000000001
40
-1
40
-1
40
-1
40
0
40
0
40
0
10
114.19911797101265
20
-734.89283939049278
30
0
10
113.80489462780018
20
-734.76143127298644
30
0
10
113.27926135033226
20
-734.63940949284449
30
0
0
SPLINE
5
354
100
AcDbEntity
8
0
100
AcDbSpline
70
0
71
2
72
6
73
3
74
0
42
0.000000001
43
0.0000000001
44
0.0000000001
40
-1
40
-1
40
-1
40
0
40
0
40
0
10
114.86554691451629
20
-735.22135978518804
30
0
10
114.59334131422509
20
-735.02424770985942
30
0
10
114.19911797101265
20
-734.89283939049278
30
0
0
SPLINE
5
355
100
AcDbEntity
8
0
100
AcDbSpline
70
0
71
2
72
6
73
3
74
0
42
0.000000001
43
0.0000000001
44
0.0000000001
40
-1
40
-1
40
-1
40
0
40
0
40
0
10
111.77745383172514
20
-734.14193603491117
30
3.5527136788005003e-14
10
111.5240229247715
20
-733.99175544453942
30
0
10
111.40200195207331
20
-733.77587069448396
30
0
0
SPLINE
5
356
100
AcDbEntity
8
0
100
AcDbSpline
70
0
71
2
72
6
73
3
74
0
42
0.000000001
43
0.0000000001
44
0.0000000001
40
-1
40
-1
40
-1
40
0
40
0
40
0
10
111.27059524759481
20
-733.25962446089329
30
0
10
111.27059524759481
20
-732.67767416854963
30
3.5527136788005003e-14
10
111.72113621126621
20
-732.38669902237791
30
0
0
SPLINE
5
357
100
AcDbEntity
8
0
100
AcDbSpline
70
0
71
2
72
6
73
3
74
0
42
0.000000001
43
0.0000000001
44
0.0000000001
40
-1
40
-1
40
-1
40
0
40
0
40
0
10
111.40200195207331
20
-733.77587069448396
30
0
10
111.27059524759481
20
-733.56937207993133
30
0
10
111.27059524759481
20
-733.25962446089329
30
0
0
SPLINE
5
358
100
AcDbEntity
8
0
100
AcDbSpline
70
0
71
2
72
6
73
3
74
0
42
0.000000001
43
0.0000000001
44
0.0000000001
40
-1
40
-1
40
-1
40
0
40
0
40
0
10
112.40633661833051
20
-734.41413840542555
30
0
10
112.03088473867874
20
-734.30150316450749
30
0
10
111.77745383172514
20
-734.14193603491117
30
3.5527136788005003e-14
0
LINE
5
359
100
AcDbEntity
8
0
100
AcDbLine
10
115.32547199507952
20
-733.02496703611098
30
2.7871244948180175e-30
11
115.6539919860527
21
-732.48994822872362
31
0
0
SPLINE
5
360
100
AcDbEntity
8
0
100
AcDbSpline
70
0
71
2
72
6
73
3
74
0
42
0.000000001
43
0.0000000001
44
0.0000000001
40
-1
40
-1
40
-1
40
0
40
0
40
0
10
113.69225938688231
20
-732.17081422185731
30
0
10
114.03955084141614
20
-732.24590456750866
30
0
10
114.3492993688287
20
-732.3679263981162
30
0
0
SPLINE
5
361
100
AcDbEntity
8
0
100
AcDbSpline
70
0
71
2
72
6
73
3
74
0
42
0.000000001
43
0.0000000001
44
0.0000000001
40
-1
40
-1
40
-1
40
0
40
0
40
0
10
111.72113621126621
20
-732.38669902237791
30
0
10
112.16229144315724
20
-732.1051101631042
30
0
10
112.96012709113941
20
-732.1051101631042
30
0
0
SPLINE
5
362
100
AcDbEntity
8
0
100
AcDbSpline
70
0
71
2
72
6
73
3
74
0
42
0.000000001
43
0.0000000001
44
0.0000000001
40
-1
40
-1
40
-1
40
0
40
0
40
0
10
112.96012709113941
20
-732.1051101631042
30
0
10
113.34496793234848
20
-732.1051101631042
30
0
10
113.69225938688231
20
-732.17081422185731
30
0
0
SPLINE
5
363
100
AcDbEntity
8
0
100
AcDbSpline
70
0
71
2
72
6
73
3
74
0
42
0.000000001
43
0.0000000001
44
0.0000000001
40
-1
40
-1
40
-1
40
0
40
0
40
0
10
114.3492993688287
20
-732.3679263981162
30
0
10
114.649658934684
20
-732.49933456608733
30
0
10
114.90308984163761
20
-732.66828783118615
30
0
0
SPLINE
5
364
100
AcDbEntity
8
0
100
AcDbSpline
70
0
71
2
72
6
73
3
74
0
42
0.000000001
43
0.0000000001
44
0.0000000001
40
-1
40
-1
40
-1
40
0
40
0
40
0
10
114.90308984163761
20
-732.66828783118615
30
0
10
115.14713178703396
20
-732.83724119721558
30
3.5527136788005003e-14
10
115.32547199507952
20
-733.02496703611098
30
0
0
SPLINE
5
365
100
AcDbEntity
8
0
100
AcDbSpline
70
0
71
2
72
6
73
3
74
0
42
0.000000001
43
0.0000000001
44
0.0000000001
40
-1
40
-1
40
-1
40
0
40
0
40
0
10
110.75434770190725
20
-732.52749347724728
30
-3.5527136788005003e-14
10
110.57600910875017
20
-732.86540010837552
30
3.5527136788005003e-14
10
110.57600910875017
20
-733.32532851964629
30
0
0
SPLINE
5
366
100
AcDbEntity
8
0
100
AcDbSpline
70
0
71
2
72
6
73
3
74
0
42
0.000000001
43
0.0000000001
44
0.0000000001
40
-1
40
-1
40
-1
40
0
40
0
40
0
10
115.6539919860527
20
-732.48994822872362
30
0
10
114.52763796198582
20
-731.523159965383
30
3.5527136788005003e-14
10
112.97889855470007
20
-731.523159965383
30
0
0
SPLINE
5
367
100
AcDbEntity
8
0
100
AcDbSpline
70
0
71
2
72
6
73
3
74
0
42
0.000000001
43
0.0000000001
44
0.0000000001
40
-1
40
-1
40
-1
40
0
40
0
40
0
10
112.01211004534115
20
-731.62640920326976
30
0
10
111.5709548134501
20
-731.73904474697918
30
0
10
111.25182055425725
20
-731.96431580916521
30
0
0
SPLINE
5
368
100
AcDbEntity
8
0
100
AcDbSpline
70
0
71
2
72
6
73
3
74
0
42
0.000000001
43
0.0000000001
44
0.0000000001
40
-1
40
-1
40
-1
40
0
40
0
40
0
10
112.97889855470007
20
-731.523159965383
30
0
10
112.45326527723222
20
-731.523159965383
30
3.5527136788005003e-14
10
112.01211004534115
20
-731.62640920326976
30
0
0
SPLINE
5
369
100
AcDbEntity
8
0
100
AcDbSpline
70
0
71
2
72
6
73
3
74
0
42
0.000000001
43
0.0000000001
44
0.0000000001
40
-1
40
-1
40
-1
40
0
40
0
40
0
10
111.25182055425725
20
-731.96431580916521
30
0
10
110.93268629506437
20
-732.18958684611891
30
-3.5527136788005003e-14
10
110.75434770190725
20
-732.52749347724728
30
-3.5527136788005003e-14
0
SPLINE
5
370
100
AcDbEntity
8
0
100
AcDbSpline
70
0
71
2
72
6
73
3
74
0
42
0.000000001
43
0.0000000001
44
0.0000000001
40
-1
40
-1
40
-1
40
0
40
0
40
0
10
111.19550616357523
20
-734.58309207424634
30
0
10
111.49586895920747
20
-734.7989768243018
30
-3.5527136788005003e-14
10
111.92763845931816
20
-734.93977127917094
30
0
0
SPLINE
5
371
100
AcDbEntity
8
0
100
AcDbSpline
70
0
71
2
72
6
73
3
74
0
42
0.000000001
43
0.0000000001
44
0.0000000001
40
-1
40
-1
40
-1
40
0
40
0
40
0
10
111.92763845931816
20
-734.93977127917094
30
0
10
112.35002222764857
20
-735.08056533031879
30
3.5527136788005003e-14
10
112.88504123689677
20
-735.19320097495836
30
0
0
SPLINE
5
372
100
AcDbEntity
8
0
100
AcDbSpline
70
0
71
2
72
6
73
3
74
0
42
0.000000001
43
0.0000000001
44
0.0000000001
40
-1
40
-1
40
-1
40
0
40
0
40
0
10
110.7355762383466
20
-734.07623207708866
30
0
10
110.89514336794304
20
-734.37659366155458
30
-3.5527136788005003e-14
10
111.19550616357523
20
-734.58309207424634
30
0
0
SPLINE
5
373
100
AcDbEntity
8
0
100
AcDbSpline
70
0
71
2
72
6
73
3
74
0
42
0.000000001
43
0.0000000001
44
0.0000000001
40
-1
40
-1
40
-1
40
0
40
0
40
0
10
110.57600910875017
20
-733.32532851964629
30
0
10
110.57600910875017
20
-733.77587069448396
30
0
10
110.7355762383466
20
-734.07623207708866
30
0
0
SPLINE
5
374
100
AcDbEntity
8
0
100
AcDbSpline
70
0
71
2
72
6
73
3
74
0
42
0.000000001
43
0.0000000001
44
0.0000000001
40
-1
40
-1
40
-1
40
0
40
0
40
0
10
112.88504123689677
20
-735.19320097495836
30
0
10
113.36374262568606
20
-735.29645048409623
30
0
10
113.72041981200027
20
-735.39969958951144
30
0
0
SPLINE
5
375
100
AcDbEntity
8
0
100
AcDbSpline
70
4
71
3
72
8
73
4
74
0
42
0.000000001
43
0.0000000001
44
0.0000000001
40
-1
40
-1
40
-1
40
-1
40
0
40
0
40
0
40
0
41
1
41
1
41
1
41
1
10
152.68534247985593
20
-730.59245421824369
30
0
10
155.1366543565411
20
-730.59245421824369
30
0
10
157.3650809416589
20
-731.81207774071152
30
0
10
158.80272066509951
20
-732.83527430428353
30
0
0
SPLINE
5
376
100
AcDbEntity
8
0
100
AcDbSpline
70
4
71
3
72
8
73
4
74
0
42
0.000000001
43
0.0000000001
44
0.0000000001
40
-1
40
-1
40
-1
40
-1
40
0
40
0
40
0
40
0
41
1
41
1
41
1
41
1
10
158.80272066509951
20
-732.83527430428353
30
0
10
159.85152895606382
20
-733.58161095713649
30
0
10
160.64570231455781
20
-734.33620261704982
30
0
10
161.0667072961601
20
-734.7652509291604
30
0
0
SPLINE
5
377
100
AcDbEntity
8
0
100
AcDbSpline
70
4
71
3
72
8
73
4
74
0
42
0.000000001
43
0.0000000001
44
0.0000000001
40
-1
40
-1
40
-1
40
-1
40
0
40
0
40
0
40
0
41
1
41
1
41
1
41
1
10
158.80272066509951
20
-736.69522755403716
30
-3.5527136788005003e-14
10
157.36508053793673
20
-737.71842411760963
30
0
10
155.13665395281896
20
-738.93804764007655
30
0
10
152.68534247985593
20
-738.93804764007655
30
-3.5527136788005003e-14
0
SPLINE
5
378
100
AcDbEntity
8
0
100
AcDbSpline
70
4
71
3
72
8
73
4
74
0
42
0.000000001
43
0.0000000001
44
0.0000000001
40
-1
40
-1
40
-1
40
-1
40
0
40
0
40
0
40
0
41
1
41
1
41
1
41
1
10
143.14002419126729
20
-735.12360275481672
30
0
10
143.1834146295339
20
-735.1739794024603
30
-3.5527136788005003e-14
10
144.22417956475749
20
-736.36693273907485
30
0
10
145.91031691274077
20
-737.57089275177032
30
-3.5527136788005003e-14
0
SPLINE
5
379
100
AcDbEntity
8
0
100
AcDbSpline
70
4
71
3
72
8
73
4
74
0
42
0.000000001
43
0.0000000001
44
0.0000000001
40
-1
40
-1
40
-1
40
-1
40
0
40
0
40
0
40
0
41
1
41
1
41
1
41
1
10
152.68534247985593
20
-729.49771446200759
30
-3.5527136788005003e-14
10
150.5085624503013
20
-729.49771446200759
30
-3.5527136788005003e-14
10
148.16562412386497
20
-730.34903763840703
30
0
10
145.91031529785229
20
-731.95982106066197
30
-3.5527136788005003e-14
0
LINE
5
380
100
AcDbEntity
8
0
100
AcDbLine
10
152.70629749790339
20
-732.16613249413842
30
-3.5527136788005003e-14
11
153.43146750480474
21
-732.89151415235995
31
-3.5527136788004997e-14
0
SPLINE
5
381
100
AcDbEntity
8
0
100
AcDbSpline
70
4
71
3
72
8
73
4
74
0
42
0.000000001
43
0.0000000001
44
0.0000000001
40
-1
40
-1
40
-1
40
-1
40
0
40
0
40
0
40
0
41
1
41
1
41
1
41
1
10
145.91031691274077
20
-737.57089275177032
30
-3.5527136788005003e-14
10
148.16562412386497
20
-739.18146462363552
30
0
10
150.5085624503013
20
-740.03299935042492
30
-3.5527136788005003e-14
10
152.68534247985593
20
-740.03299935042492
30
-3.5527136788005003e-14
0
SPLINE
5
382
100
AcDbEntity
8
0
100
AcDbSpline
70
4
71
3
72
8
73
4
74
0
42
0.000000001
43
0.0000000001
44
0.0000000001
40
-1
40
-1
40
-1
40
-1
40
0
40
0
40
0
40
0
41
1
41
1
41
1
41
1
10
146.56796409275137
20
-736.69522755403716
30
0
10
145.51936694845443
20
-735.94910255250443
30
0
10
144.72498231712999
20
-735.19429924127076
30
0
10
144.30440076433061
20
-734.7652507272993
30
0
0
SPLINE
5
383
100
AcDbEntity
8
0
100
AcDbSpline
70
4
71
3
72
8
73
4
74
0
42
0.000000001
43
0.0000000001
44
0.0000000001
40
-1
40
-1
40
-1
40
-1
40
0
40
0
40
0
40
0
41
1
41
1
41
1
41
1
10
159.46079195519422
20
-737.57089254990933
30
-3.5527136788005003e-14
10
161.14692859666383
20
-736.36693263814436
30
0
10
162.18748188056747
20
-735.17397927629702
30
-3.5527136788005003e-14
10
162.23087353000054
20
-735.1236026034212
30
3.5527136788005003e-14
0
SPLINE
5
384
100
AcDbEntity
8
0
100
AcDbSpline
70
4
71
3
72
8
73
4
74
0
42
0.000000001
43
0.0000000001
44
0.0000000001
40
-1
40
-1
40
-1
40
-1
40
0
40
0
40
0
40
0
41
1
41
1
41
1
41
1
10
161.0667072961601
20
-734.7652509291604
30
0
10
160.64570231455781
20
-735.19451094305612
30
0
10
159.85131730474387
20
-735.94910255250443
30
0
10
158.80272066509951
20
-736.69522755403716
30
-3.5527136788005003e-14
0
SPLINE
5
385
100
AcDbEntity
8
0
100
AcDbSpline
70
4
71
3
72
8
73
4
74
0
42
0.000000001
43
0.0000000001
44
0.0000000001
40
-1
40
-1
40
-1
40
-1
40
0
40
0
40
0
40
0
41
1
41
1
41
1
41
1
10
162.23087353000054
20
-734.40689930536541
30
0
10
162.18748188056747
20
-734.3567344099722
30
0
10
161.14671694534391
20
-733.16378107335754
30
0
10
159.46079195519422
20
-731.95982106066197
30
-3.5527136788005003e-14
0
SPLINE
5
386
100
AcDbEntity
8
0
100
AcDbSpline
70
4
71
3
72
8
73
4
74
0
42
0.000000001
43
0.0000000001
44
0.0000000001
40
-1
40
-1
40
-1
40
-1
40
0
40
0
40
0
40
0
41
1
41
1
41
1
41
1
10
152.68534247985593
20
-740.03299935042492
30
-3.5527136788005003e-14
10
154.86233365607796
20
-740.03299935042492
30
0
10
157.2050604321249
20
-739.18146421991366
30
0
10
159.46079195519422
20
-737.57089254990933
30
-3.5527136788005003e-14
0
SPLINE
5
387
100
AcDbEntity
8
0
100
AcDbSpline
70
4
71
3
72
8
73
4
74
0
42
0.000000001
43
0.0000000001
44
0.0000000001
40
-1
40
-1
40
-1
40
-1
40
0
40
0
40
0
40
0
41
1
41
1
41
1
41
1
10
159.46079195519422
20
-731.95982106066197
30
-3.5527136788005003e-14
10
157.2052723862364
20
-730.34903763840703
30
0
10
154.86233405980013
20
-729.49771446200759
30
0
10
152.68534247985593
20
-729.49771446200759
30
-3.5527136788005003e-14
0
LINE
5
388
100
AcDbEntity
8
0
100
AcDbLine
10
150.77526251549637
20
-733.62938414683197
30
2.3495451945817649e-30
11
152.23830251687025
21
-732.16613249413842
31
0
0
SPLINE
5
389
100
AcDbEntity
8
0
100
AcDbSpline
70
4
71
3
72
8
73
4
74
0
42
0.000000001
43
0.0000000001
44
0.0000000001
40
-1
40
-1
40
-1
40
-1
40
0
40
0
40
0
40
0
41
1
41
1
41
1
41
1
10
152.68534247985593
20
-738.93804764007655
30
-3.5527136788005003e-14
10
150.2342429610045
20
-738.93804764007655
30
0
10
148.00560401805311
20
-737.71842411760963
30
0
10
146.56796409275137
20
-736.69522755403716
30
0
0
SPLINE
5
390
100
AcDbEntity
8
0
100
AcDbSpline
70
4
71
3
72
8
73
4
74
0
42
0.000000001
43
0.0000000001
44
0.0000000001
40
-1
40
-1
40
-1
40
-1
40
0
40
0
40
0
40
0
41
1
41
1
41
1
41
1
10
143.14002419126729
20
-734.40689945676115
30
-3.5527136788005003e-14
10
142.96180025519141
20
-734.61263942699031
30
0
10
142.96180025519141
20
-734.91807442329093
30
0
10
143.14002419126729
20
-735.12360275481672
30
0
0
SPLINE
5
391
100
AcDbEntity
8
0
100
AcDbSpline
70
4
71
3
72
8
73
4
74
0
42
0.000000001
43
0.0000000001
44
0.0000000001
40
0
40
0
40
0
40
0
40
1
40
1
40
1
40
1
41
1
41
1
41
1
41
1
10
150.67831924675977
20
-733.86348746300871
30
-3.5527136788005003e-14
10
150.67831924675977
20
-733.7756458066126
30
0
10
150.71324423781226
20
-733.69140242451647
30
-3.5527136788005003e-14
10
150.77526251549637
20
-733.62938414683197
30
0
0
SPLINE
5
392
100
AcDbEntity
8
0
100
AcDbSpline
70
4
71
3
72
8
73
4
74
0
42
0.000000001
43
0.0000000001
44
0.0000000001
40
-1
40
-1
40
-1
40
-1
40
0
40
0
40
0
40
0
41
1
41
1
41
1
41
1
10
146.56796409275137
20
-732.83527410242243
30
0
10
148.00560401805311
20
-731.81207753885042
30
-3.5527136788005003e-14
10
150.23424215356022
20
-730.59245421824369
30
3.5527136788005003e-14
10
152.68534247985593
20
-730.59245421824369
30
0
0
SPLINE
5
393
100
AcDbEntity
8
0
100
AcDbSpline
70
4
71
3
72
8
73
4
74
0
42
0.000000001
43
0.0000000001
44
0.0000000001
40
-1
40
-1
40
-1
40
-1
40
0
40
0
40
0
40
0
41
1
41
1
41
1
41
1
10
162.23087353000054
20
-735.1236026034212
30
3.5527136788005003e-14
10
162.40909686049318
20
-734.91807428451136
30
3.5527136788005003e-14
10
162.40909686049318
20
-734.61263930082725
30
0
10
162.23087353000054
20
-734.40689930536541
30
0
0
SPLINE
5
394
100
AcDbEntity
8
0
100
AcDbSpline
70
4
71
3
72
8
73
4
74
0
42
0.000000001
43
0.0000000001
44
0.0000000001
40
0
40
0
40
0
40
0
40
1
40
1
40
1
40
1
41
1
41
1
41
1
41
1
10
153.43146750480474
20
-732.89151415235995
30
-3.5527136788005003e-14
10
153.56079584782412
20
-733.02063084405904
30
3.5527136788005003e-14
10
153.56079584782412
20
-733.23018079037365
30
3.5527136788005003e-14
10
153.43146750480474
20
-733.35950913339275
30
0
0
SPLINE
5
395
100
AcDbEntity
8
0
100
AcDbSpline
70
4
71
3
72
8
73
4
74
0
42
0.000000001
43
0.0000000001
44
0.0000000001
40
-1
40
-1
40
-1
40
-1
40
0
40
0
40
0
40
0
41
1
41
1
41
1
41
1
10
144.30440076433061
20
-734.7652507272993
30
0
10
144.72519386751938
20
-734.33599076386929
30
3.5527136788005003e-14
10
145.51957849884383
20
-733.5813991039555
30
3.5527136788005003e-14
10
146.56796409275137
20
-732.83527410242243
30
0
0
SPLINE
5
396
100
AcDbEntity
8
0
100
AcDbSpline
70
4
71
3
72
8
73
4
74
0
42
0.000000001
43
0.0000000001
44
0.0000000001
40
0
40
0
40
0
40
0
40
1
40
1
40
1
40
1
41
1
41
1
41
1
41
1
10
152.23830251687025
20
-732.16613249413842
30
0
10
152.36741918333684
20
-732.03722749160784
30
0
10
152.57739250798926
20
-732.03722749160784
30
0
10
152.70629749790339
20
-732.16613249413842
30
-3.5527136788005003e-14
0
SPLINE
5
397
100
AcDbEntity
8
0
100
AcDbSpline
70
4
71
3
72
8
73
4
74
0
42
0.000000001
43
0.0000000001
44
0.0000000001
40
-1
40
-1
40
-1
40
-1
40
0
40
0
40
0
40
0
41
1
41
1
41
1
41
1
10
145.91031529785229
20
-731.95982106066197
30
-3.5527136788005003e-14
10
144.22417956475749
20
-733.16378097242693
30
0
10
143.1834146295339
20
-734.35673428380915
30
0
10
143.14002419126729
20
-734.40689945676115
30
-3.5527136788005003e-14
0
SPLINE
5
398
100
AcDbEntity
8
0
100
AcDbSpline
70
4
71
3
72
8
73
4
74
0
42
0.000000001
43
0.0000000001
44
0.0000000001
40
0
40
0
40
0
40
0
40
1
40
1
40
1
40
1
41
1
41
1
41
1
41
1
10
152.53146089132122
20
-732.92728579915706
30
0
10
152.4988642161839
20
-732.89468912402003
30
0
10
152.44594755084017
20
-732.89468912402003
30
0
10
152.41313922438289
20
-732.92728579915706
30
0
0
SPLINE
5
399
100
AcDbEntity
8
0
100
AcDbSpline
70
4
71
3
72
8
73
4
74
0
42
0.000000001
43
0.0000000001
44
0.0000000001
40
0
40
0
40
0
40
0
40
1
40
1
40
1
40
1
41
1
41
1
41
1
41
1
10
155.01606754949728
20
-733.77056575183315
30
0
10
155.01606754949728
20
-732.48532567738164
30
3.5527136788005003e-14
10
153.97064588151301
20
-731.43969266086913
30
0
10
152.68540600892246
20
-731.43969266086913
30
0
0
SPLINE
5
400
100
AcDbEntity
8
0
100
AcDbSpline
70
4
71
3
72
8
73
4
74
0
42
0.000000001
43
0.0000000001
44
0.0000000001
40
0
40
0
40
0
40
0
40
1
40
1
40
1
40
1
41
1
41
1
41
1
41
1
10
152.68540600892246
20
-731.43969266086913
30
0
10
151.40016603540124
20
-731.43969266086913
30
-3.5527136788005003e-14
10
150.35474446834758
20
-732.48532608110384
30
3.5527136788005003e-14
10
150.35474446834758
20
-733.77056595369436
30
0
0
LWPOLYLINE
5
401
100
AcDbEntity
8
0
100
AcDbPolyline
90
18
70
1
43
0.0
10
139.27930381435758
20
-731.57947824819871
10
138.70673965751638
20
-731.57947824819871
10
137.2987955125443
20
-734.87406772507074
10
135.90023750307464
20
-731.57947824819871
10
135.31828700886996
20
-731.57947824819871
10
132.49301298714545
20
-738.24374749712933
10
133.206371396995
20
-738.24374749712933
10
135.6186489970579
20
-732.33976809253932
10
136.89518482266303
20
-735.35276850827711
10
135.73128423797579
20
-738.19681601217269
10
136.36016581341482
20
-738.19681601217269
10
137.30818164804674
20
-735.8314698970662
10
138.24681134717622
20
-738.19681601217269
10
138.86630678711282
20
-738.19681601217269
10
137.70240620242555
20
-735.35276850827711
10
138.96955609438922
20
-732.33976809253932
10
141.39121993088517
20
-738.24374749712933
10
142.09519201598761
20
-738.24374749712933
0
SPLINE
5
402
100
AcDbEntity
8
0
100
AcDbSpline
70
4
71
3
72
8
73
4
74
0
42
0.000000001
43
0.0000000001
44
0.0000000001
40
0
40
0
40
0
40
0
40
1
40
1
40
1
40
1
41
1
41
1
41
1
41
1
10
150.35474446834758
20
-733.77056595369436
30
0
10
150.35474436741703
20
-734.40344902089794
30
0
10
150.66293104535396
20
-735.23318245056748
30
0
10
151.27062604106209
20
-736.23627072571821
30
0
0
SPLINE
5
403
100
AcDbEntity
8
0
100
AcDbSpline
70
4
71
3
72
8
73
4
74
0
42
0.000000001
43
0.0000000001
44
0.0000000001
40
0
40
0
40
0
40
0
40
1
40
1
40
1
40
1
41
1
41
1
41
1
41
1
10
152.53745103765203
20
-738.02062074570495
30
0
10
152.57364603755457
20
-738.06507075266825
30
0
10
152.62804436306845
20
-738.09089403044982
30
0
10
152.68540600892246
20
-738.09089403044982
30
0
0
SPLINE
5
404
100
AcDbEntity
8
0
100
AcDbSpline
70
4
71
3
72
8
73
4
74
0
42
0.000000001
43
0.0000000001
44
0.0000000001
40
0
40
0
40
0
40
0
40
1
40
1
40
1
40
1
41
1
41
1
41
1
41
1
10
150.7752626164268
20
-734.09737902693496
30
3.5527136788005003e-14
10
150.71324423781226
20
-734.03536085018118
30
-3.5527136788005003e-14
10
150.67831924675977
20
-733.95111736715444
30
0
10
150.67831924675977
20
-733.86348746300871
30
-3.5527136788005003e-14
0
SPLINE
5
405
100
AcDbEntity
8
0
100
AcDbSpline
70
4
71
3
72
8
73
4
74
0
42
0.000000001
43
0.0000000001
44
0.0000000001
40
0
40
0
40
0
40
0
40
1
40
1
40
1
40
1
41
1
41
1
41
1
41
1
10
151.24325759745994
20
-734.09737902693496
30
0
10
151.11414090576068
20
-734.22649561770356
30
0
10
150.90437930812618
20
-734.22649561770356
30
0
10
150.7752626164268
20
-734.09737902693496
30
3.5527136788005003e-14
0
LINE
5
406
100
AcDbEntity
8
0
100
AcDbLine
10
152.41313922438289
20
-732.92728579915706
30
0
11
151.24325759745994
21
-734.09737902693496
31
0
0
LINE
5
407
100
AcDbEntity
8
0
100
AcDbLine
10
152.96347252377163
20
-733.35950913339275
30
0
11
152.53146089132122
21
-732.92728579915706
31
0
0
SPLINE
5
408
100
AcDbEntity
8
0
100
AcDbSpline
70
4
71
3
72
8
73
4
74
0
42
0.000000001
43
0.0000000001
44
0.0000000001
40
0
40
0
40
0
40
0
40
1
40
1
40
1
40
1
41
1
41
1
41
1
41
1
10
152.83336098019271
20
-738.02062074570495
30
0
10
153.1040825989117
20
-737.6880923996913
30
0
10
153.62880427183904
20
-737.01435739796352
30
0
10
154.10039752717205
20
-736.23584742307844
30
0
0
SPLINE
5
409
100
AcDbEntity
8
0
100
AcDbSpline
70
4
71
3
72
8
73
4
74
0
42
0.000000001
43
0.0000000001
44
0.0000000001
40
0
40
0
40
0
40
0
40
1
40
1
40
1
40
1
41
1
41
1
41
1
41
1
10
152.68540600892246
20
-738.09089403044982
30
0
10
152.74297930609629
20
-738.09089403044982
30
0
10
152.79716598029017
20
-738.06507075266825
30
3.5527136788005003e-14
10
152.83336098019271
20
-738.02062074570495
30
0
0
SPLINE
5
410
100
AcDbEntity
8
0
100
AcDbSpline
70
4
71
3
72
8
73
4
74
0
42
0.000000001
43
0.0000000001
44
0.0000000001
40
0
40
0
40
0
40
0
40
1
40
1
40
1
40
1
41
1
41
1
41
1
41
1
10
154.10039752717205
20
-736.23584742307844
30
0
10
154.70809257334543
20
-735.23254749660737
30
0
10
155.01606754949728
20
-734.40302571825794
30
0
10
155.01606754949728
20
-733.77056575183315
30
0
0
SPLINE
5
411
100
AcDbEntity
8
0
100
AcDbSpline
70
4
71
3
72
8
73
4
74
0
42
0.000000001
43
0.0000000001
44
0.0000000001
40
0
40
0
40
0
40
0
40
1
40
1
40
1
40
1
41
1
41
1
41
1
41
1
10
151.27062604106209
20
-736.23627072571821
30
0
10
151.7422193468604
20
-737.01456904928352
30
0
10
152.26694096932243
20
-737.6883040510113
30
0
10
152.53745103765203
20
-738.02062074570495
30
0
0
SPLINE
5
412
100
AcDbEntity
8
0
100
AcDbSpline
70
4
71
3
72
8
73
4
74
0
42
0.000000001
43
0.0000000001
44
0.0000000001
40
0
40
0
40
0
40
0
40
1
40
1
40
1
40
1
41
1
41
1
41
1
41
1
10
153.43146750480474
20
-733.35950913339275
30
0
10
153.30235081310553
20
-733.4888374764123
30
0
10
153.09258921547104
20
-733.4888374764123
30
0
10
152.96347252377166
20
-733.35950913339275
30
0
0
SPLINE
5
413
100
AcDbEntity
8
0
100
AcDbSpline
70
0
71
2
72
6
73
3
74
0
42
0.000000001
43
0.0000000001
44
0.0000000001
40
-1
40
-1
40
-1
40
0
40
0
40
0
10
131.61070252336339
20
-732.28345062347614
30
0
10
131.76088311373522
20
-732.43363131477849
30
0
10
131.85474608364814
20
-732.63074349103761
30
0
0
SPLINE
5
414
100
AcDbEntity
8
0
100
AcDbSpline
70
0
71
2
72
6
73
3
74
0
42
0.000000001
43
0.0000000001
44
0.0000000001
40
-1
40
-1
40
-1
40
0
40
0
40
0
10
131.93922251433656
20
-733.05312675471544
30
3.5527136788005003e-14
10
131.93922251433656
20
-733.51305526691635
30
0
10
131.51683955345044
20
-733.79464397479433
30
0
0
SPLINE
5
415
100
AcDbEntity
8
0
100
AcDbSpline
70
0
71
2
72
6
73
3
74
0
42
0.000000001
43
0.0000000001
44
0.0000000001
40
-1
40
-1
40
-1
40
0
40
0
40
0
10
130.77532152592715
20
-731.97370262594882
30
0
10
131.01936589365619
20
-731.97370287827528
30
-3.5527136788005003e-14
10
131.23525064371159
20
-732.05817953605731
30
3.5527136788005003e-14
0
SPLINE
5
416
100
AcDbEntity
8
0
100
AcDbSpline
70
0
71
2
72
6
73
3
74
0
42
0.000000001
43
0.0000000001
44
0.0000000001
40
-1
40
-1
40
-1
40
0
40
0
40
0
10
131.85474608364814
20
-732.63074349103761
30
0
10
131.93922251433656
20
-732.82785566729615
30
3.5527136788005003e-14
10
131.93922251433656
20
-733.05312675471544
30
3.5527136788005003e-14
0
SPLINE
5
417
100
AcDbEntity
8
0
100
AcDbSpline
70
0
71
2
72
6
73
3
74
0
42
0.000000001
43
0.0000000001
44
0.0000000001
40
-1
40
-1
40
-1
40
0
40
0
40
0
10
131.23525064371159
20
-732.05817953605731
30
3.5527136788005003e-14
10
131.45113539376692
20
-732.14265621907191
30
0
10
131.61070252336339
20
-732.28345062347614
30
0
0
SPLINE
5
418
100
AcDbEntity
8
0
100
AcDbSpline
70
0
71
2
72
6
73
3
74
0
42
0.000000001
43
0.0000000001
44
0.0000000001
40
-1
40
-1
40
-1
40
0
40
0
40
0
10
129.05762925726469
20
-733.02496774262465
30
0
10
129.05762925726469
20
-732.94049100914458
30
0
10
129.10456114594325
20
-732.83724180279876
30
0
0
SPLINE
5
419
100
AcDbEntity
8
0
100
AcDbSpline
70
0
71
2
72
6
73
3
74
0
42
0.000000001
43
0.0000000001
44
0.0000000001
40
-1
40
-1
40
-1
40
0
40
0
40
0
10
130.41864272472449
20
-734.07623288453294
30
0
10
130.06196311607761
20
-734.07623288453294
30
0
10
129.72405658587985
20
-734.01052872484956
30
-3.5527136788005003e-14
0
SPLINE
5
420
100
AcDbEntity
8
0
100
AcDbSpline
70
0
71
2
72
6
73
3
74
0
42
0.000000001
43
0.0000000001
44
0.0000000001
40
-1
40
-1
40
-1
40
0
40
0
40
0
10
129.72405658587985
20
-734.01052872484956
30
-3.5527136788005003e-14
10
129.37676351645752
20
-733.94482456516585
30
0
10
129.05762925726469
20
-733.82280278502367
30
-3.5527136788005003e-14
0
SPLINE
5
421
100
AcDbEntity
8
0
100
AcDbSpline
70
0
71
2
72
6
73
3
74
0
42
0.000000001
43
0.0000000001
44
0.0000000001
40
-1
40
-1
40
-1
40
0
40
0
40
0
10
131.51683955345044
20
-733.79464397479433
30
0
10
131.09445578512006
20
-734.07623288453294
30
0
10
130.41864272472449
20
-734.07623288453294
30
0
0
LINE
5
422
100
AcDbEntity
8
0
100
AcDbLine
10
129.05762925726469
20
-733.82280278502367
30
-3.5527136788005003e-14
11
129.05762925726469
21
-733.02496774262465
31
0
0
ENDSEC
0
SECTION
2
OBJECTS
0
DICTIONARY
5
C
100
AcDbDictionary
3
ACAD_GROUP
350
D
3
ACAD_MLINESTYLE
350
17
0
DICTIONARY
5
D
100
AcDbDictionary
0
DICTIONARY
5
1A
330
C
100
AcDbDictionary
0
DICTIONARY
5
17
100
AcDbDictionary
0
ENDSEC
0
EOF
