%TF.GenerationSoftware,KiCad,Pcbnew,(5.1.10)-1*%
%TF.CreationDate,2021-11-08T08:46:09+01:00*%
%TF.ProjectId,Pump PCB,50756d70-2050-4434-922e-6b696361645f,rev?*%
%TF.SameCoordinates,Original*%
%TF.FileFunction,Legend,Top*%
%TF.FilePolarity,Positive*%
%FSLAX46Y46*%
G04 Gerber Fmt 4.6, Leading zero omitted, Abs format (unit mm)*
G04 Created by KiCad (PCBNEW (5.1.10)-1) date 2021-11-08 08:46:09*
%MOMM*%
%LPD*%
G01*
G04 APERTURE LIST*
%ADD10C,0.254000*%
%ADD11C,0.200000*%
%ADD12C,0.120000*%
%ADD13C,0.152000*%
%ADD14C,0.150000*%
G04 APERTURE END LIST*
D10*
%TO.C,J1*%
X131864000Y-43698000D02*
X133202000Y-43698000D01*
X127864000Y-43698000D02*
X130200000Y-43698000D01*
X124862000Y-43698000D02*
X126200000Y-43698000D01*
X131864000Y-41138000D02*
X133202000Y-41138000D01*
X127864000Y-41138000D02*
X130200000Y-41138000D01*
X124862000Y-41138000D02*
X126200000Y-41138000D01*
X124862000Y-43698000D02*
X124862000Y-41138000D01*
X133202000Y-41138000D02*
X133202000Y-43698000D01*
D11*
%TO.C,L1*%
X123250000Y-74000000D02*
X134750000Y-74000000D01*
X134750000Y-64000000D02*
X123250000Y-64000000D01*
%TO.C,IC1*%
X121825000Y-66600000D02*
X120675000Y-66600000D01*
X120325000Y-63550000D02*
X120325000Y-66450000D01*
X119675000Y-63550000D02*
X120325000Y-63550000D01*
X119675000Y-66450000D02*
X119675000Y-63550000D01*
X120325000Y-66450000D02*
X119675000Y-66450000D01*
D12*
%TO.C,R4*%
X122837221Y-61740000D02*
X123162779Y-61740000D01*
X122837221Y-62760000D02*
X123162779Y-62760000D01*
%TO.C,D1*%
X139650000Y-59600000D02*
X136350000Y-59600000D01*
X136350000Y-59600000D02*
X136350000Y-65000000D01*
X139650000Y-59600000D02*
X139650000Y-65000000D01*
%TO.C,C13*%
X137837221Y-57490000D02*
X138162779Y-57490000D01*
X137837221Y-58510000D02*
X138162779Y-58510000D01*
%TO.C,C12*%
X137738748Y-55290000D02*
X138261252Y-55290000D01*
X137738748Y-56710000D02*
X138261252Y-56710000D01*
%TO.C,C11*%
X118988748Y-61290000D02*
X119511252Y-61290000D01*
X118988748Y-62710000D02*
X119511252Y-62710000D01*
%TO.C,C10*%
X121510000Y-68837221D02*
X121510000Y-69162779D01*
X120490000Y-68837221D02*
X120490000Y-69162779D01*
%TO.C,C9*%
X116710000Y-64738748D02*
X116710000Y-65261252D01*
X115290000Y-64738748D02*
X115290000Y-65261252D01*
%TO.C,C7*%
X123162779Y-48760000D02*
X122837221Y-48760000D01*
X123162779Y-47740000D02*
X122837221Y-47740000D01*
%TO.C,C5*%
X134412779Y-62510000D02*
X134087221Y-62510000D01*
X134412779Y-61490000D02*
X134087221Y-61490000D01*
%TO.C,C4*%
X143210000Y-62738748D02*
X143210000Y-63261252D01*
X141790000Y-62738748D02*
X141790000Y-63261252D01*
%TO.C,C3*%
X137738748Y-53040000D02*
X138261252Y-53040000D01*
X137738748Y-54460000D02*
X138261252Y-54460000D01*
%TO.C,C2*%
X123011252Y-50960000D02*
X122488748Y-50960000D01*
X123011252Y-49540000D02*
X122488748Y-49540000D01*
%TO.C,C1*%
X120490000Y-72412779D02*
X120490000Y-72087221D01*
X121510000Y-72412779D02*
X121510000Y-72087221D01*
%TO.C,J1*%
D13*
X129475514Y-38744071D02*
X129475514Y-39560500D01*
X129421085Y-39723785D01*
X129312228Y-39832642D01*
X129148942Y-39887071D01*
X129040085Y-39887071D01*
X130618514Y-39887071D02*
X129965371Y-39887071D01*
X130291942Y-39887071D02*
X130291942Y-38744071D01*
X130183085Y-38907357D01*
X130074228Y-39016214D01*
X129965371Y-39070642D01*
%TO.C,L1*%
D10*
X128788333Y-69574523D02*
X128183571Y-69574523D01*
X128183571Y-68304523D01*
X129876904Y-69574523D02*
X129151190Y-69574523D01*
X129514047Y-69574523D02*
X129514047Y-68304523D01*
X129393095Y-68485952D01*
X129272142Y-68606904D01*
X129151190Y-68667380D01*
%TO.C,IC1*%
X118760238Y-65574523D02*
X118760238Y-64304523D01*
X120090714Y-65453571D02*
X120030238Y-65514047D01*
X119848809Y-65574523D01*
X119727857Y-65574523D01*
X119546428Y-65514047D01*
X119425476Y-65393095D01*
X119365000Y-65272142D01*
X119304523Y-65030238D01*
X119304523Y-64848809D01*
X119365000Y-64606904D01*
X119425476Y-64485952D01*
X119546428Y-64365000D01*
X119727857Y-64304523D01*
X119848809Y-64304523D01*
X120030238Y-64365000D01*
X120090714Y-64425476D01*
X121300238Y-65574523D02*
X120574523Y-65574523D01*
X120937380Y-65574523D02*
X120937380Y-64304523D01*
X120816428Y-64485952D01*
X120695476Y-64606904D01*
X120574523Y-64667380D01*
%TO.C,R7*%
D14*
X130897333Y-45256380D02*
X130564000Y-44780190D01*
X130325904Y-45256380D02*
X130325904Y-44256380D01*
X130706857Y-44256380D01*
X130802095Y-44304000D01*
X130849714Y-44351619D01*
X130897333Y-44446857D01*
X130897333Y-44589714D01*
X130849714Y-44684952D01*
X130802095Y-44732571D01*
X130706857Y-44780190D01*
X130325904Y-44780190D01*
X131230666Y-44256380D02*
X131897333Y-44256380D01*
X131468761Y-45256380D01*
%TO.C,R6*%
X129373333Y-40738380D02*
X129040000Y-40262190D01*
X128801904Y-40738380D02*
X128801904Y-39738380D01*
X129182857Y-39738380D01*
X129278095Y-39786000D01*
X129325714Y-39833619D01*
X129373333Y-39928857D01*
X129373333Y-40071714D01*
X129325714Y-40166952D01*
X129278095Y-40214571D01*
X129182857Y-40262190D01*
X128801904Y-40262190D01*
X130230476Y-39738380D02*
X130040000Y-39738380D01*
X129944761Y-39786000D01*
X129897142Y-39833619D01*
X129801904Y-39976476D01*
X129754285Y-40166952D01*
X129754285Y-40547904D01*
X129801904Y-40643142D01*
X129849523Y-40690761D01*
X129944761Y-40738380D01*
X130135238Y-40738380D01*
X130230476Y-40690761D01*
X130278095Y-40643142D01*
X130325714Y-40547904D01*
X130325714Y-40309809D01*
X130278095Y-40214571D01*
X130230476Y-40166952D01*
X130135238Y-40119333D01*
X129944761Y-40119333D01*
X129849523Y-40166952D01*
X129801904Y-40214571D01*
X129754285Y-40309809D01*
%TO.C,H6*%
X113488095Y-52752380D02*
X113488095Y-51752380D01*
X113488095Y-52228571D02*
X114059523Y-52228571D01*
X114059523Y-52752380D02*
X114059523Y-51752380D01*
X114964285Y-51752380D02*
X114773809Y-51752380D01*
X114678571Y-51800000D01*
X114630952Y-51847619D01*
X114535714Y-51990476D01*
X114488095Y-52180952D01*
X114488095Y-52561904D01*
X114535714Y-52657142D01*
X114583333Y-52704761D01*
X114678571Y-52752380D01*
X114869047Y-52752380D01*
X114964285Y-52704761D01*
X115011904Y-52657142D01*
X115059523Y-52561904D01*
X115059523Y-52323809D01*
X115011904Y-52228571D01*
X114964285Y-52180952D01*
X114869047Y-52133333D01*
X114678571Y-52133333D01*
X114583333Y-52180952D01*
X114535714Y-52228571D01*
X114488095Y-52323809D01*
%TO.C,H5*%
X143488095Y-52752380D02*
X143488095Y-51752380D01*
X143488095Y-52228571D02*
X144059523Y-52228571D01*
X144059523Y-52752380D02*
X144059523Y-51752380D01*
X145011904Y-51752380D02*
X144535714Y-51752380D01*
X144488095Y-52228571D01*
X144535714Y-52180952D01*
X144630952Y-52133333D01*
X144869047Y-52133333D01*
X144964285Y-52180952D01*
X145011904Y-52228571D01*
X145059523Y-52323809D01*
X145059523Y-52561904D01*
X145011904Y-52657142D01*
X144964285Y-52704761D01*
X144869047Y-52752380D01*
X144630952Y-52752380D01*
X144535714Y-52704761D01*
X144488095Y-52657142D01*
%TO.C,R5*%
X122083333Y-60032380D02*
X121750000Y-59556190D01*
X121511904Y-60032380D02*
X121511904Y-59032380D01*
X121892857Y-59032380D01*
X121988095Y-59080000D01*
X122035714Y-59127619D01*
X122083333Y-59222857D01*
X122083333Y-59365714D01*
X122035714Y-59460952D01*
X121988095Y-59508571D01*
X121892857Y-59556190D01*
X121511904Y-59556190D01*
X122988095Y-59032380D02*
X122511904Y-59032380D01*
X122464285Y-59508571D01*
X122511904Y-59460952D01*
X122607142Y-59413333D01*
X122845238Y-59413333D01*
X122940476Y-59460952D01*
X122988095Y-59508571D01*
X123035714Y-59603809D01*
X123035714Y-59841904D01*
X122988095Y-59937142D01*
X122940476Y-59984761D01*
X122845238Y-60032380D01*
X122607142Y-60032380D01*
X122511904Y-59984761D01*
X122464285Y-59937142D01*
%TO.C,R4*%
X122833333Y-61272380D02*
X122500000Y-60796190D01*
X122261904Y-61272380D02*
X122261904Y-60272380D01*
X122642857Y-60272380D01*
X122738095Y-60320000D01*
X122785714Y-60367619D01*
X122833333Y-60462857D01*
X122833333Y-60605714D01*
X122785714Y-60700952D01*
X122738095Y-60748571D01*
X122642857Y-60796190D01*
X122261904Y-60796190D01*
X123690476Y-60605714D02*
X123690476Y-61272380D01*
X123452380Y-60224761D02*
X123214285Y-60939047D01*
X123833333Y-60939047D01*
%TO.C,R1*%
X117202380Y-68666666D02*
X116726190Y-69000000D01*
X117202380Y-69238095D02*
X116202380Y-69238095D01*
X116202380Y-68857142D01*
X116250000Y-68761904D01*
X116297619Y-68714285D01*
X116392857Y-68666666D01*
X116535714Y-68666666D01*
X116630952Y-68714285D01*
X116678571Y-68761904D01*
X116726190Y-68857142D01*
X116726190Y-69238095D01*
X117202380Y-67714285D02*
X117202380Y-68285714D01*
X117202380Y-68000000D02*
X116202380Y-68000000D01*
X116345238Y-68095238D01*
X116440476Y-68190476D01*
X116488095Y-68285714D01*
%TO.C,H3*%
X138988095Y-67252380D02*
X138988095Y-66252380D01*
X138988095Y-66728571D02*
X139559523Y-66728571D01*
X139559523Y-67252380D02*
X139559523Y-66252380D01*
X139940476Y-66252380D02*
X140559523Y-66252380D01*
X140226190Y-66633333D01*
X140369047Y-66633333D01*
X140464285Y-66680952D01*
X140511904Y-66728571D01*
X140559523Y-66823809D01*
X140559523Y-67061904D01*
X140511904Y-67157142D01*
X140464285Y-67204761D01*
X140369047Y-67252380D01*
X140083333Y-67252380D01*
X139988095Y-67204761D01*
X139940476Y-67157142D01*
%TO.C,H2*%
X119507095Y-39752380D02*
X119507095Y-38752380D01*
X119507095Y-39228571D02*
X120078523Y-39228571D01*
X120078523Y-39752380D02*
X120078523Y-38752380D01*
X120507095Y-38847619D02*
X120554714Y-38800000D01*
X120649952Y-38752380D01*
X120888047Y-38752380D01*
X120983285Y-38800000D01*
X121030904Y-38847619D01*
X121078523Y-38942857D01*
X121078523Y-39038095D01*
X121030904Y-39180952D01*
X120459476Y-39752380D01*
X121078523Y-39752380D01*
%TO.C,H1*%
X136652095Y-39752380D02*
X136652095Y-38752380D01*
X136652095Y-39228571D02*
X137223523Y-39228571D01*
X137223523Y-39752380D02*
X137223523Y-38752380D01*
X138223523Y-39752380D02*
X137652095Y-39752380D01*
X137937809Y-39752380D02*
X137937809Y-38752380D01*
X137842571Y-38895238D01*
X137747333Y-38990476D01*
X137652095Y-39038095D01*
%TO.C,D1*%
X140952380Y-63738095D02*
X139952380Y-63738095D01*
X139952380Y-63500000D01*
X140000000Y-63357142D01*
X140095238Y-63261904D01*
X140190476Y-63214285D01*
X140380952Y-63166666D01*
X140523809Y-63166666D01*
X140714285Y-63214285D01*
X140809523Y-63261904D01*
X140904761Y-63357142D01*
X140952380Y-63500000D01*
X140952380Y-63738095D01*
X140952380Y-62214285D02*
X140952380Y-62785714D01*
X140952380Y-62500000D02*
X139952380Y-62500000D01*
X140095238Y-62595238D01*
X140190476Y-62690476D01*
X140238095Y-62785714D01*
%TO.C,C13*%
X135857142Y-58642857D02*
X135904761Y-58690476D01*
X135952380Y-58833333D01*
X135952380Y-58928571D01*
X135904761Y-59071428D01*
X135809523Y-59166666D01*
X135714285Y-59214285D01*
X135523809Y-59261904D01*
X135380952Y-59261904D01*
X135190476Y-59214285D01*
X135095238Y-59166666D01*
X135000000Y-59071428D01*
X134952380Y-58928571D01*
X134952380Y-58833333D01*
X135000000Y-58690476D01*
X135047619Y-58642857D01*
X135952380Y-57690476D02*
X135952380Y-58261904D01*
X135952380Y-57976190D02*
X134952380Y-57976190D01*
X135095238Y-58071428D01*
X135190476Y-58166666D01*
X135238095Y-58261904D01*
X134952380Y-57357142D02*
X134952380Y-56738095D01*
X135333333Y-57071428D01*
X135333333Y-56928571D01*
X135380952Y-56833333D01*
X135428571Y-56785714D01*
X135523809Y-56738095D01*
X135761904Y-56738095D01*
X135857142Y-56785714D01*
X135904761Y-56833333D01*
X135952380Y-56928571D01*
X135952380Y-57214285D01*
X135904761Y-57309523D01*
X135857142Y-57357142D01*
%TO.C,C12*%
X135607142Y-56892857D02*
X135654761Y-56940476D01*
X135702380Y-57083333D01*
X135702380Y-57178571D01*
X135654761Y-57321428D01*
X135559523Y-57416666D01*
X135464285Y-57464285D01*
X135273809Y-57511904D01*
X135130952Y-57511904D01*
X134940476Y-57464285D01*
X134845238Y-57416666D01*
X134750000Y-57321428D01*
X134702380Y-57178571D01*
X134702380Y-57083333D01*
X134750000Y-56940476D01*
X134797619Y-56892857D01*
X135702380Y-55940476D02*
X135702380Y-56511904D01*
X135702380Y-56226190D02*
X134702380Y-56226190D01*
X134845238Y-56321428D01*
X134940476Y-56416666D01*
X134988095Y-56511904D01*
X134797619Y-55559523D02*
X134750000Y-55511904D01*
X134702380Y-55416666D01*
X134702380Y-55178571D01*
X134750000Y-55083333D01*
X134797619Y-55035714D01*
X134892857Y-54988095D01*
X134988095Y-54988095D01*
X135130952Y-55035714D01*
X135702380Y-55607142D01*
X135702380Y-54988095D01*
%TO.C,C11*%
X118607142Y-60707142D02*
X118559523Y-60754761D01*
X118416666Y-60802380D01*
X118321428Y-60802380D01*
X118178571Y-60754761D01*
X118083333Y-60659523D01*
X118035714Y-60564285D01*
X117988095Y-60373809D01*
X117988095Y-60230952D01*
X118035714Y-60040476D01*
X118083333Y-59945238D01*
X118178571Y-59850000D01*
X118321428Y-59802380D01*
X118416666Y-59802380D01*
X118559523Y-59850000D01*
X118607142Y-59897619D01*
X119559523Y-60802380D02*
X118988095Y-60802380D01*
X119273809Y-60802380D02*
X119273809Y-59802380D01*
X119178571Y-59945238D01*
X119083333Y-60040476D01*
X118988095Y-60088095D01*
X120511904Y-60802380D02*
X119940476Y-60802380D01*
X120226190Y-60802380D02*
X120226190Y-59802380D01*
X120130952Y-59945238D01*
X120035714Y-60040476D01*
X119940476Y-60088095D01*
%TO.C,C10*%
X119857142Y-69392857D02*
X119904761Y-69440476D01*
X119952380Y-69583333D01*
X119952380Y-69678571D01*
X119904761Y-69821428D01*
X119809523Y-69916666D01*
X119714285Y-69964285D01*
X119523809Y-70011904D01*
X119380952Y-70011904D01*
X119190476Y-69964285D01*
X119095238Y-69916666D01*
X119000000Y-69821428D01*
X118952380Y-69678571D01*
X118952380Y-69583333D01*
X119000000Y-69440476D01*
X119047619Y-69392857D01*
X119952380Y-68440476D02*
X119952380Y-69011904D01*
X119952380Y-68726190D02*
X118952380Y-68726190D01*
X119095238Y-68821428D01*
X119190476Y-68916666D01*
X119238095Y-69011904D01*
X118952380Y-67821428D02*
X118952380Y-67726190D01*
X119000000Y-67630952D01*
X119047619Y-67583333D01*
X119142857Y-67535714D01*
X119333333Y-67488095D01*
X119571428Y-67488095D01*
X119761904Y-67535714D01*
X119857142Y-67583333D01*
X119904761Y-67630952D01*
X119952380Y-67726190D01*
X119952380Y-67821428D01*
X119904761Y-67916666D01*
X119857142Y-67964285D01*
X119761904Y-68011904D01*
X119571428Y-68059523D01*
X119333333Y-68059523D01*
X119142857Y-68011904D01*
X119047619Y-67964285D01*
X119000000Y-67916666D01*
X118952380Y-67821428D01*
%TO.C,C9*%
X118007142Y-65166666D02*
X118054761Y-65214285D01*
X118102380Y-65357142D01*
X118102380Y-65452380D01*
X118054761Y-65595238D01*
X117959523Y-65690476D01*
X117864285Y-65738095D01*
X117673809Y-65785714D01*
X117530952Y-65785714D01*
X117340476Y-65738095D01*
X117245238Y-65690476D01*
X117150000Y-65595238D01*
X117102380Y-65452380D01*
X117102380Y-65357142D01*
X117150000Y-65214285D01*
X117197619Y-65166666D01*
X118102380Y-64690476D02*
X118102380Y-64500000D01*
X118054761Y-64404761D01*
X118007142Y-64357142D01*
X117864285Y-64261904D01*
X117673809Y-64214285D01*
X117292857Y-64214285D01*
X117197619Y-64261904D01*
X117150000Y-64309523D01*
X117102380Y-64404761D01*
X117102380Y-64595238D01*
X117150000Y-64690476D01*
X117197619Y-64738095D01*
X117292857Y-64785714D01*
X117530952Y-64785714D01*
X117626190Y-64738095D01*
X117673809Y-64690476D01*
X117721428Y-64595238D01*
X117721428Y-64404761D01*
X117673809Y-64309523D01*
X117626190Y-64261904D01*
X117530952Y-64214285D01*
%TO.C,C7*%
X121107142Y-48416666D02*
X121154761Y-48464285D01*
X121202380Y-48607142D01*
X121202380Y-48702380D01*
X121154761Y-48845238D01*
X121059523Y-48940476D01*
X120964285Y-48988095D01*
X120773809Y-49035714D01*
X120630952Y-49035714D01*
X120440476Y-48988095D01*
X120345238Y-48940476D01*
X120250000Y-48845238D01*
X120202380Y-48702380D01*
X120202380Y-48607142D01*
X120250000Y-48464285D01*
X120297619Y-48416666D01*
X120202380Y-48083333D02*
X120202380Y-47416666D01*
X121202380Y-47845238D01*
%TO.C,C5*%
X134083333Y-63787142D02*
X134035714Y-63834761D01*
X133892857Y-63882380D01*
X133797619Y-63882380D01*
X133654761Y-63834761D01*
X133559523Y-63739523D01*
X133511904Y-63644285D01*
X133464285Y-63453809D01*
X133464285Y-63310952D01*
X133511904Y-63120476D01*
X133559523Y-63025238D01*
X133654761Y-62930000D01*
X133797619Y-62882380D01*
X133892857Y-62882380D01*
X134035714Y-62930000D01*
X134083333Y-62977619D01*
X134988095Y-62882380D02*
X134511904Y-62882380D01*
X134464285Y-63358571D01*
X134511904Y-63310952D01*
X134607142Y-63263333D01*
X134845238Y-63263333D01*
X134940476Y-63310952D01*
X134988095Y-63358571D01*
X135035714Y-63453809D01*
X135035714Y-63691904D01*
X134988095Y-63787142D01*
X134940476Y-63834761D01*
X134845238Y-63882380D01*
X134607142Y-63882380D01*
X134511904Y-63834761D01*
X134464285Y-63787142D01*
%TO.C,C4*%
X144507142Y-63166666D02*
X144554761Y-63214285D01*
X144602380Y-63357142D01*
X144602380Y-63452380D01*
X144554761Y-63595238D01*
X144459523Y-63690476D01*
X144364285Y-63738095D01*
X144173809Y-63785714D01*
X144030952Y-63785714D01*
X143840476Y-63738095D01*
X143745238Y-63690476D01*
X143650000Y-63595238D01*
X143602380Y-63452380D01*
X143602380Y-63357142D01*
X143650000Y-63214285D01*
X143697619Y-63166666D01*
X143935714Y-62309523D02*
X144602380Y-62309523D01*
X143554761Y-62547619D02*
X144269047Y-62785714D01*
X144269047Y-62166666D01*
%TO.C,C3*%
X135607142Y-53916666D02*
X135654761Y-53964285D01*
X135702380Y-54107142D01*
X135702380Y-54202380D01*
X135654761Y-54345238D01*
X135559523Y-54440476D01*
X135464285Y-54488095D01*
X135273809Y-54535714D01*
X135130952Y-54535714D01*
X134940476Y-54488095D01*
X134845238Y-54440476D01*
X134750000Y-54345238D01*
X134702380Y-54202380D01*
X134702380Y-54107142D01*
X134750000Y-53964285D01*
X134797619Y-53916666D01*
X134702380Y-53583333D02*
X134702380Y-52964285D01*
X135083333Y-53297619D01*
X135083333Y-53154761D01*
X135130952Y-53059523D01*
X135178571Y-53011904D01*
X135273809Y-52964285D01*
X135511904Y-52964285D01*
X135607142Y-53011904D01*
X135654761Y-53059523D01*
X135702380Y-53154761D01*
X135702380Y-53440476D01*
X135654761Y-53535714D01*
X135607142Y-53583333D01*
%TO.C,C2*%
X122583333Y-52257142D02*
X122535714Y-52304761D01*
X122392857Y-52352380D01*
X122297619Y-52352380D01*
X122154761Y-52304761D01*
X122059523Y-52209523D01*
X122011904Y-52114285D01*
X121964285Y-51923809D01*
X121964285Y-51780952D01*
X122011904Y-51590476D01*
X122059523Y-51495238D01*
X122154761Y-51400000D01*
X122297619Y-51352380D01*
X122392857Y-51352380D01*
X122535714Y-51400000D01*
X122583333Y-51447619D01*
X122964285Y-51447619D02*
X123011904Y-51400000D01*
X123107142Y-51352380D01*
X123345238Y-51352380D01*
X123440476Y-51400000D01*
X123488095Y-51447619D01*
X123535714Y-51542857D01*
X123535714Y-51638095D01*
X123488095Y-51780952D01*
X122916666Y-52352380D01*
X123535714Y-52352380D01*
%TO.C,C1*%
X119857142Y-72166666D02*
X119904761Y-72214285D01*
X119952380Y-72357142D01*
X119952380Y-72452380D01*
X119904761Y-72595238D01*
X119809523Y-72690476D01*
X119714285Y-72738095D01*
X119523809Y-72785714D01*
X119380952Y-72785714D01*
X119190476Y-72738095D01*
X119095238Y-72690476D01*
X119000000Y-72595238D01*
X118952380Y-72452380D01*
X118952380Y-72357142D01*
X119000000Y-72214285D01*
X119047619Y-72166666D01*
X119952380Y-71214285D02*
X119952380Y-71785714D01*
X119952380Y-71500000D02*
X118952380Y-71500000D01*
X119095238Y-71595238D01*
X119190476Y-71690476D01*
X119238095Y-71785714D01*
%TD*%
M02*
