%TF.GenerationSoftware,KiCad,Pcbnew,(6.0.10)*%
%TF.CreationDate,2023-09-05T22:10:59+02:00*%
%TF.ProjectId,Pump PCB,50756d70-2050-4434-922e-6b696361645f,rev?*%
%TF.SameCoordinates,Original*%
%TF.FileFunction,Copper,L1,Top*%
%TF.FilePolarity,Positive*%
%FSLAX46Y46*%
G04 Gerber Fmt 4.6, Leading zero omitted, Abs format (unit mm)*
G04 Created by KiCad (PCBNEW (6.0.10)) date 2023-09-05 22:10:59*
%MOMM*%
%LPD*%
G01*
G04 APERTURE LIST*
G04 Aperture macros list*
%AMRoundRect*
0 Rectangle with rounded corners*
0 $1 Rounding radius*
0 $2 $3 $4 $5 $6 $7 $8 $9 X,Y pos of 4 corners*
0 Add a 4 corners polygon primitive as box body*
4,1,4,$2,$3,$4,$5,$6,$7,$8,$9,$2,$3,0*
0 Add four circle primitives for the rounded corners*
1,1,$1+$1,$2,$3*
1,1,$1+$1,$4,$5*
1,1,$1+$1,$6,$7*
1,1,$1+$1,$8,$9*
0 Add four rect primitives between the rounded corners*
20,1,$1+$1,$2,$3,$4,$5,0*
20,1,$1+$1,$4,$5,$6,$7,0*
20,1,$1+$1,$6,$7,$8,$9,0*
20,1,$1+$1,$8,$9,$2,$3,0*%
G04 Aperture macros list end*
%TA.AperFunction,SMDPad,CuDef*%
%ADD10RoundRect,0.249999X0.325001X0.450001X-0.325001X0.450001X-0.325001X-0.450001X0.325001X-0.450001X0*%
%TD*%
%TA.AperFunction,SMDPad,CuDef*%
%ADD11RoundRect,0.249999X-0.325001X-0.450001X0.325001X-0.450001X0.325001X0.450001X-0.325001X0.450001X0*%
%TD*%
%TA.AperFunction,SMDPad,CuDef*%
%ADD12RoundRect,0.218750X0.218750X0.256250X-0.218750X0.256250X-0.218750X-0.256250X0.218750X-0.256250X0*%
%TD*%
%TA.AperFunction,SMDPad,CuDef*%
%ADD13RoundRect,0.218750X-0.256250X0.218750X-0.256250X-0.218750X0.256250X-0.218750X0.256250X0.218750X0*%
%TD*%
%TA.AperFunction,SMDPad,CuDef*%
%ADD14RoundRect,0.218750X-0.218750X-0.256250X0.218750X-0.256250X0.218750X0.256250X-0.218750X0.256250X0*%
%TD*%
%TA.AperFunction,SMDPad,CuDef*%
%ADD15R,1.800000X2.500000*%
%TD*%
%TA.AperFunction,ComponentPad*%
%ADD16C,4.400000*%
%TD*%
%TA.AperFunction,ComponentPad*%
%ADD17O,7.400000X8.000000*%
%TD*%
%TA.AperFunction,SMDPad,CuDef*%
%ADD18R,1.150000X0.600000*%
%TD*%
%TA.AperFunction,SMDPad,CuDef*%
%ADD19R,2.800000X3.050000*%
%TD*%
%TA.AperFunction,SMDPad,CuDef*%
%ADD20RoundRect,0.147500X-0.172500X0.147500X-0.172500X-0.147500X0.172500X-0.147500X0.172500X0.147500X0*%
%TD*%
%TA.AperFunction,SMDPad,CuDef*%
%ADD21RoundRect,0.147500X-0.147500X-0.172500X0.147500X-0.172500X0.147500X0.172500X-0.147500X0.172500X0*%
%TD*%
%TA.AperFunction,SMDPad,CuDef*%
%ADD22RoundRect,0.249999X0.450001X-0.325001X0.450001X0.325001X-0.450001X0.325001X-0.450001X-0.325001X0*%
%TD*%
%TA.AperFunction,SMDPad,CuDef*%
%ADD23RoundRect,0.249999X-0.450001X0.325001X-0.450001X-0.325001X0.450001X-0.325001X0.450001X0.325001X0*%
%TD*%
%TA.AperFunction,SMDPad,CuDef*%
%ADD24RoundRect,0.218750X0.256250X-0.218750X0.256250X0.218750X-0.256250X0.218750X-0.256250X-0.218750X0*%
%TD*%
%TA.AperFunction,SMDPad,CuDef*%
%ADD25RoundRect,0.147500X0.147500X0.172500X-0.147500X0.172500X-0.147500X-0.172500X0.147500X-0.172500X0*%
%TD*%
%TA.AperFunction,ComponentPad*%
%ADD26C,0.700000*%
%TD*%
%TA.AperFunction,ComponentPad*%
%ADD27O,2.000000X1.000000*%
%TD*%
%TA.AperFunction,ViaPad*%
%ADD28C,0.800000*%
%TD*%
%TA.AperFunction,Conductor*%
%ADD29C,0.250000*%
%TD*%
%TA.AperFunction,Conductor*%
%ADD30C,1.500000*%
%TD*%
%TA.AperFunction,Conductor*%
%ADD31C,0.500000*%
%TD*%
%TA.AperFunction,Conductor*%
%ADD32C,1.000000*%
%TD*%
%TA.AperFunction,Conductor*%
%ADD33C,2.000000*%
%TD*%
%TA.AperFunction,Conductor*%
%ADD34C,0.200000*%
%TD*%
G04 APERTURE END LIST*
D10*
%TO.P,C2,2*%
%TO.N,GND*%
X121403000Y-50292000D03*
%TO.P,C2,1*%
%TO.N,5V*%
X123453000Y-50292000D03*
%TD*%
D11*
%TO.P,C3,1*%
%TO.N,12V*%
X136516000Y-50750000D03*
%TO.P,C3,2*%
%TO.N,GND*%
X138566000Y-50750000D03*
%TD*%
%TO.P,C4,1*%
%TO.N,12V*%
X141088000Y-49911000D03*
%TO.P,C4,2*%
%TO.N,GND*%
X143138000Y-49911000D03*
%TD*%
D12*
%TO.P,C7,2*%
%TO.N,GND*%
X121890500Y-48292000D03*
%TO.P,C7,1*%
%TO.N,5V*%
X123465500Y-48292000D03*
%TD*%
D13*
%TO.P,C10,1*%
%TO.N,5V*%
X121000000Y-65212500D03*
%TO.P,C10,2*%
%TO.N,GND*%
X121000000Y-66787500D03*
%TD*%
D11*
%TO.P,C12,1*%
%TO.N,12V*%
X136262000Y-53086000D03*
%TO.P,C12,2*%
%TO.N,GND*%
X138312000Y-53086000D03*
%TD*%
D14*
%TO.P,C13,1*%
%TO.N,12V*%
X136245500Y-54991000D03*
%TO.P,C13,2*%
%TO.N,GND*%
X137820500Y-54991000D03*
%TD*%
D15*
%TO.P,D1,1*%
%TO.N,12V*%
X137541000Y-58000000D03*
%TO.P,D1,2*%
%TO.N,Net-(D1-Pad2)*%
X137541000Y-62000000D03*
%TD*%
D16*
%TO.P,H1,1*%
%TO.N,N/C*%
X138557000Y-42500000D03*
%TD*%
%TO.P,H2,1*%
%TO.N,N/C*%
X120269000Y-42500000D03*
%TD*%
%TO.P,H3,1*%
%TO.N,N/C*%
X139827000Y-67564000D03*
%TD*%
D17*
%TO.P,H5,1*%
%TO.N,12V*%
X143250000Y-57000000D03*
%TD*%
%TO.P,H6,1*%
%TO.N,GND*%
X115250000Y-57000000D03*
%TD*%
D18*
%TO.P,IC1,1*%
%TO.N,Net-(D1-Pad2)*%
X121250000Y-62950000D03*
%TO.P,IC1,2*%
%TO.N,GND*%
X121250000Y-62000000D03*
%TO.P,IC1,3*%
%TO.N,Net-(IC1-Pad3)*%
X121250000Y-61050000D03*
%TO.P,IC1,4*%
%TO.N,5V*%
X118750000Y-61050000D03*
%TO.P,IC1,5*%
X118750000Y-62000000D03*
%TO.P,IC1,6*%
%TO.N,Net-(IC1-Pad6)*%
X118750000Y-62950000D03*
%TD*%
D19*
%TO.P,L1,1*%
%TO.N,5V*%
X124050000Y-66000000D03*
%TO.P,L1,2*%
%TO.N,Net-(D1-Pad2)*%
X133950000Y-66000000D03*
%TD*%
D20*
%TO.P,R1,1*%
%TO.N,Net-(IC1-Pad6)*%
X118000000Y-65030000D03*
%TO.P,R1,2*%
%TO.N,GND*%
X118000000Y-66000000D03*
%TD*%
D14*
%TO.P,R4,1*%
%TO.N,Net-(IC1-Pad3)*%
X122212500Y-59250000D03*
%TO.P,R4,2*%
%TO.N,12V*%
X123787500Y-59250000D03*
%TD*%
D21*
%TO.P,R5,1*%
%TO.N,GND*%
X121765000Y-57750000D03*
%TO.P,R5,2*%
%TO.N,Net-(IC1-Pad3)*%
X122735000Y-57750000D03*
%TD*%
D22*
%TO.P,C11,1*%
%TO.N,5V*%
X120269000Y-59318000D03*
%TO.P,C11,2*%
%TO.N,GND*%
X120269000Y-57268000D03*
%TD*%
D23*
%TO.P,C9,1*%
%TO.N,5V*%
X115951000Y-62983000D03*
%TO.P,C9,2*%
%TO.N,GND*%
X115951000Y-65033000D03*
%TD*%
D12*
%TO.P,C5,1*%
%TO.N,12V*%
X134899500Y-59000000D03*
%TO.P,C5,2*%
%TO.N,GND*%
X133324500Y-59000000D03*
%TD*%
D24*
%TO.P,C1,1*%
%TO.N,5V*%
X121000000Y-70037500D03*
%TO.P,C1,2*%
%TO.N,GND*%
X121000000Y-68462500D03*
%TD*%
D25*
%TO.P,R6,2*%
%TO.N,Net-(J1-Pad12)*%
X129055000Y-46116000D03*
%TO.P,R6,1*%
%TO.N,GND*%
X130025000Y-46116000D03*
%TD*%
D21*
%TO.P,R7,2*%
%TO.N,GND*%
X131549000Y-52974000D03*
%TO.P,R7,1*%
%TO.N,Net-(J1-Pad5)*%
X130579000Y-52974000D03*
%TD*%
D26*
%TO.P,J1,14*%
%TO.N,GND*%
X125782000Y-48718000D03*
%TO.P,J1,13*%
%TO.N,5V*%
X126732000Y-48718000D03*
%TO.P,J1,12*%
%TO.N,Net-(J1-Pad12)*%
X127682000Y-48718000D03*
%TO.P,J1,11*%
%TO.N,Net-(J1-Pad11)*%
X128582000Y-48718000D03*
%TO.P,J1,10*%
%TO.N,Net-(J1-Pad10)*%
X129482000Y-48718000D03*
%TO.P,J1,9*%
%TO.N,5V*%
X131332000Y-48718000D03*
%TO.P,J1,8*%
%TO.N,GND*%
X132282000Y-48718000D03*
%TO.P,J1,7*%
X132282000Y-50118000D03*
%TO.P,J1,6*%
%TO.N,5V*%
X131332000Y-50118000D03*
%TO.P,J1,5*%
%TO.N,Net-(J1-Pad5)*%
X130382000Y-50118000D03*
%TO.P,J1,4*%
%TO.N,Net-(J1-Pad4)*%
X129482000Y-50118000D03*
%TO.P,J1,3*%
%TO.N,Net-(J1-Pad3)*%
X128582000Y-50118000D03*
%TO.P,J1,2*%
%TO.N,5V*%
X126732000Y-50118000D03*
%TO.P,J1,1*%
%TO.N,GND*%
X125782000Y-50118000D03*
D27*
%TO.P,J1,0*%
%TO.N,Net-(J1-Pad0)*%
X131032000Y-47488000D03*
X127032000Y-47488000D03*
X131032000Y-51348000D03*
X127032000Y-51348000D03*
%TD*%
D28*
%TO.N,GND*%
X120142000Y-50165000D03*
X120650000Y-48260000D03*
X139573000Y-52324000D03*
X145796000Y-64643000D03*
X116078000Y-66294000D03*
X132842000Y-52974000D03*
X138176000Y-71247000D03*
X144780000Y-64643000D03*
X144526000Y-49911000D03*
X120142000Y-56134000D03*
X139192000Y-71247000D03*
X139500000Y-49250000D03*
X132250000Y-59250000D03*
X142748000Y-64643000D03*
X120000000Y-67000000D03*
X132842000Y-53721000D03*
X143764000Y-64643000D03*
X122500000Y-61250000D03*
X137160000Y-71247000D03*
X117000000Y-67250000D03*
X121793000Y-56896000D03*
X130048000Y-45339000D03*
%TO.N,Net-(J1-Pad12)*%
X128016000Y-45608000D03*
%TD*%
D29*
%TO.N,GND*%
X120269000Y-50292000D02*
X120142000Y-50165000D01*
X121403000Y-50292000D02*
X120269000Y-50292000D01*
X120682000Y-48292000D02*
X120650000Y-48260000D01*
X121890500Y-48292000D02*
X120682000Y-48292000D01*
X130048000Y-45339000D02*
X130048000Y-46093000D01*
X115951000Y-66167000D02*
X116078000Y-66294000D01*
X115951000Y-65033000D02*
X115951000Y-66167000D01*
X138811000Y-53086000D02*
X139573000Y-52324000D01*
X138312000Y-53086000D02*
X138811000Y-53086000D01*
X138566000Y-50750000D02*
X138566000Y-52832000D01*
%TO.N,12V*%
X137541000Y-58000000D02*
X142250000Y-58000000D01*
%TO.N,GND*%
X137820500Y-53577500D02*
X138312000Y-53086000D01*
X137820500Y-54991000D02*
X137820500Y-53577500D01*
X120212500Y-66787500D02*
X120000000Y-67000000D01*
X121250000Y-62000000D02*
X122075000Y-62000000D01*
X118000000Y-66000000D02*
X118000000Y-66250000D01*
X132500000Y-59000000D02*
X132250000Y-59250000D01*
X122075000Y-62000000D02*
X122500000Y-61575000D01*
X139025000Y-49725000D02*
X139500000Y-49250000D01*
X131549000Y-52974000D02*
X132842000Y-52974000D01*
X121000000Y-66787500D02*
X120212500Y-66787500D01*
X139025000Y-50750000D02*
X139025000Y-49725000D01*
X118000000Y-66250000D02*
X117000000Y-67250000D01*
X120142000Y-57268000D02*
X120142000Y-56134000D01*
X121000000Y-68462500D02*
X121000000Y-66787500D01*
X133462500Y-59000000D02*
X132500000Y-59000000D01*
X121765000Y-56924000D02*
X121793000Y-56896000D01*
X122500000Y-61575000D02*
X122500000Y-61250000D01*
X121765000Y-57750000D02*
X121765000Y-56924000D01*
%TO.N,5V*%
X131332000Y-49404000D02*
X126760000Y-49404000D01*
X126732000Y-50118000D02*
X127468740Y-50118000D01*
X115951000Y-62348000D02*
X117249000Y-61050000D01*
X126760000Y-49404000D02*
X126732000Y-49432000D01*
X116299000Y-62000000D02*
X117626000Y-62000000D01*
X126732000Y-49432000D02*
X126732000Y-48718000D01*
X118750000Y-62000000D02*
X117626000Y-62000000D01*
X118750000Y-61050000D02*
X117249000Y-61050000D01*
X126732000Y-49212974D02*
X126551973Y-49393001D01*
X131332000Y-49404000D02*
X131332000Y-50118000D01*
X131332000Y-48718000D02*
X131332000Y-49404000D01*
X127468740Y-50118000D02*
X128357010Y-51006270D01*
X126732000Y-50118000D02*
X126732000Y-49432000D01*
X124050000Y-65884000D02*
X122047000Y-63881000D01*
X126732000Y-49212974D02*
X126732000Y-48718000D01*
X128357010Y-51006270D02*
X128357010Y-52378990D01*
%TO.N,12V*%
X123787500Y-59250000D02*
X125243500Y-60706000D01*
X135294000Y-60706000D02*
X138000000Y-58000000D01*
X125243500Y-60706000D02*
X135294000Y-60706000D01*
D30*
%TO.N,Net-(D1-Pad2)*%
X124900000Y-62250000D02*
X124920000Y-62230000D01*
D31*
X121250000Y-62950000D02*
X124200000Y-62950000D01*
D30*
X124920000Y-62230000D02*
X130180000Y-62230000D01*
X130180000Y-62230000D02*
X133950000Y-66000000D01*
D32*
X124200000Y-62950000D02*
X124900000Y-62250000D01*
D33*
X137950000Y-62000000D02*
X133950000Y-66000000D01*
D29*
%TO.N,Net-(IC1-Pad6)*%
X118000000Y-65030000D02*
X118000000Y-63700000D01*
X118000000Y-63700000D02*
X118750000Y-62950000D01*
%TO.N,Net-(IC1-Pad3)*%
X122735000Y-57750000D02*
X122735000Y-58727500D01*
X122735000Y-58727500D02*
X122212500Y-59250000D01*
X122212500Y-60087500D02*
X121250000Y-61050000D01*
X122212500Y-59250000D02*
X122212500Y-60087500D01*
%TO.N,Net-(J1-Pad12)*%
X128524000Y-46116000D02*
X128016000Y-45608000D01*
X129055000Y-46116000D02*
X128524000Y-46116000D01*
D34*
%TO.N,Net-(J1-Pad5)*%
X129667000Y-50932002D02*
X130382000Y-50217002D01*
X130579000Y-52974000D02*
X129667000Y-52062000D01*
X129667000Y-52062000D02*
X129667000Y-50932002D01*
%TD*%
%TA.AperFunction,Conductor*%
%TO.N,5V*%
G36*
X131260121Y-39909539D02*
G01*
X131306614Y-39963195D01*
X131318000Y-40015537D01*
X131318000Y-46607500D01*
X131297998Y-46675621D01*
X131244342Y-46722114D01*
X131192000Y-46733500D01*
X130597653Y-46733500D01*
X130529532Y-46713498D01*
X130483039Y-46659842D01*
X130472935Y-46589568D01*
X130495472Y-46534042D01*
X130501779Y-46527735D01*
X130539470Y-46453761D01*
X130555088Y-46423110D01*
X130555089Y-46423107D01*
X130559590Y-46414273D01*
X130574500Y-46320137D01*
X130574499Y-45911864D01*
X130559590Y-45817727D01*
X130562301Y-45817298D01*
X130560708Y-45761449D01*
X130580244Y-45719960D01*
X130621324Y-45662790D01*
X130625755Y-45656624D01*
X130684842Y-45509641D01*
X130707162Y-45352807D01*
X130707307Y-45339000D01*
X130688276Y-45181733D01*
X130632280Y-45033546D01*
X130604059Y-44992484D01*
X130546855Y-44909251D01*
X130546854Y-44909249D01*
X130542553Y-44902992D01*
X130424275Y-44797611D01*
X130416889Y-44793700D01*
X130290988Y-44727039D01*
X130290989Y-44727039D01*
X130284274Y-44723484D01*
X130130633Y-44684892D01*
X130123034Y-44684852D01*
X130123033Y-44684852D01*
X130057181Y-44684507D01*
X129972221Y-44684062D01*
X129964841Y-44685834D01*
X129964839Y-44685834D01*
X129825563Y-44719271D01*
X129825560Y-44719272D01*
X129818184Y-44721043D01*
X129677414Y-44793700D01*
X129558039Y-44897838D01*
X129466950Y-45027444D01*
X129438178Y-45101240D01*
X129412603Y-45166838D01*
X129409406Y-45175037D01*
X129408414Y-45182570D01*
X129408414Y-45182571D01*
X129392491Y-45303524D01*
X129388729Y-45332096D01*
X129394539Y-45384721D01*
X129396893Y-45406044D01*
X129384487Y-45475949D01*
X129336257Y-45528049D01*
X129267517Y-45545803D01*
X129251945Y-45544320D01*
X129239032Y-45542275D01*
X129239028Y-45542275D01*
X129234137Y-45541500D01*
X129055019Y-45541500D01*
X128875864Y-45541501D01*
X128799489Y-45553597D01*
X128729078Y-45544497D01*
X128674764Y-45498775D01*
X128657415Y-45459199D01*
X128657189Y-45458280D01*
X128656276Y-45450733D01*
X128600280Y-45302546D01*
X128510553Y-45171992D01*
X128392275Y-45066611D01*
X128384889Y-45062700D01*
X128346565Y-45042409D01*
X128252274Y-44992484D01*
X128098633Y-44953892D01*
X128091034Y-44953852D01*
X128091033Y-44953852D01*
X128025181Y-44953507D01*
X127940221Y-44953062D01*
X127932841Y-44954834D01*
X127932839Y-44954834D01*
X127793563Y-44988271D01*
X127793560Y-44988272D01*
X127786184Y-44990043D01*
X127645414Y-45062700D01*
X127526039Y-45166838D01*
X127434950Y-45296444D01*
X127377406Y-45444037D01*
X127376414Y-45451570D01*
X127376414Y-45451571D01*
X127364204Y-45544320D01*
X127356729Y-45601096D01*
X127374113Y-45758553D01*
X127376723Y-45765684D01*
X127376723Y-45765686D01*
X127406591Y-45847303D01*
X127428553Y-45907319D01*
X127516908Y-46038805D01*
X127634076Y-46145419D01*
X127773293Y-46221008D01*
X127926522Y-46261207D01*
X128021006Y-46262691D01*
X128084771Y-46263693D01*
X128152569Y-46284762D01*
X128171887Y-46300582D01*
X128217524Y-46346219D01*
X128232661Y-46364961D01*
X128233779Y-46366190D01*
X128239429Y-46374940D01*
X128247607Y-46381387D01*
X128265799Y-46395728D01*
X128270241Y-46399676D01*
X128270303Y-46399603D01*
X128274268Y-46402963D01*
X128277943Y-46406638D01*
X128282165Y-46409655D01*
X128282171Y-46409660D01*
X128293650Y-46417862D01*
X128298399Y-46421428D01*
X128338647Y-46453156D01*
X128347284Y-46456189D01*
X128354734Y-46461513D01*
X128364710Y-46464497D01*
X128364711Y-46464497D01*
X128380046Y-46469083D01*
X128403849Y-46476202D01*
X128409486Y-46478034D01*
X128450367Y-46492390D01*
X128457851Y-46495018D01*
X128463416Y-46495500D01*
X128466124Y-46495500D01*
X128468758Y-46495614D01*
X128468856Y-46495643D01*
X128468849Y-46495807D01*
X128469553Y-46495851D01*
X128475778Y-46497713D01*
X128487695Y-46497245D01*
X128490393Y-46497139D01*
X128495964Y-46498540D01*
X128496519Y-46498610D01*
X128496511Y-46498677D01*
X128559246Y-46514452D01*
X128584433Y-46533947D01*
X128668265Y-46617779D01*
X128726434Y-46647417D01*
X128772890Y-46671088D01*
X128772893Y-46671089D01*
X128781727Y-46675590D01*
X128875863Y-46690500D01*
X129054981Y-46690500D01*
X129234136Y-46690499D01*
X129328273Y-46675590D01*
X129441735Y-46617779D01*
X129450905Y-46608609D01*
X129454167Y-46606828D01*
X129456768Y-46604938D01*
X129457012Y-46605274D01*
X129513217Y-46574583D01*
X129584032Y-46579648D01*
X129629095Y-46608609D01*
X129638265Y-46617779D01*
X129696434Y-46647417D01*
X129742890Y-46671088D01*
X129742893Y-46671089D01*
X129751727Y-46675590D01*
X129845863Y-46690500D01*
X129955748Y-46690500D01*
X130023869Y-46710502D01*
X130070362Y-46764158D01*
X130080466Y-46834432D01*
X130050972Y-46899012D01*
X130044685Y-46905189D01*
X130044732Y-46905234D01*
X129923736Y-47032960D01*
X129835368Y-47185096D01*
X129784370Y-47353480D01*
X129773476Y-47529080D01*
X129774716Y-47536296D01*
X129774716Y-47536298D01*
X129801520Y-47692289D01*
X129803271Y-47702477D01*
X129872156Y-47864368D01*
X129976437Y-48006071D01*
X130110520Y-48119982D01*
X130134485Y-48132219D01*
X130260695Y-48196666D01*
X130260700Y-48196668D01*
X130267212Y-48199993D01*
X130274318Y-48201732D01*
X130274321Y-48201733D01*
X130438108Y-48241811D01*
X130437733Y-48243343D01*
X130495413Y-48270258D01*
X130533306Y-48330297D01*
X130531956Y-48403740D01*
X130490167Y-48532353D01*
X130487437Y-48545193D01*
X130469964Y-48711435D01*
X130469964Y-48724565D01*
X130487437Y-48890807D01*
X130490167Y-48903650D01*
X130541819Y-49062617D01*
X130547165Y-49074625D01*
X130563363Y-49102680D01*
X130573569Y-49112411D01*
X130581590Y-49109200D01*
X131242905Y-48447885D01*
X131305217Y-48413859D01*
X131318000Y-48414773D01*
X131318000Y-49091210D01*
X131004022Y-49405188D01*
X130996408Y-49419132D01*
X130996539Y-49420965D01*
X131000790Y-49427580D01*
X131318000Y-49744790D01*
X131318000Y-50419224D01*
X131287968Y-50417076D01*
X131242905Y-50388115D01*
X131024830Y-50170040D01*
X130990804Y-50107728D01*
X130989003Y-50097392D01*
X130972018Y-49968378D01*
X130972017Y-49968374D01*
X130970940Y-49960194D01*
X130967782Y-49952570D01*
X130967781Y-49952566D01*
X130913191Y-49820773D01*
X130913190Y-49820772D01*
X130910030Y-49813142D01*
X130870308Y-49761375D01*
X130818160Y-49693416D01*
X130813134Y-49686866D01*
X130732104Y-49624689D01*
X130693411Y-49594998D01*
X130693408Y-49594996D01*
X130686858Y-49589970D01*
X130679227Y-49586809D01*
X130547434Y-49532219D01*
X130547430Y-49532218D01*
X130539806Y-49529060D01*
X130382000Y-49508284D01*
X130224194Y-49529060D01*
X130216570Y-49532218D01*
X130216566Y-49532219D01*
X130084773Y-49586809D01*
X130077142Y-49589970D01*
X130008703Y-49642486D01*
X129942484Y-49668086D01*
X129872936Y-49653822D01*
X129855302Y-49642490D01*
X129786858Y-49589970D01*
X129652718Y-49534408D01*
X129597438Y-49489861D01*
X129575017Y-49422498D01*
X129592575Y-49353707D01*
X129644537Y-49305328D01*
X129652711Y-49301595D01*
X129786858Y-49246030D01*
X129794635Y-49240063D01*
X129906584Y-49154160D01*
X129913134Y-49149134D01*
X129964335Y-49082408D01*
X130005002Y-49029411D01*
X130005003Y-49029409D01*
X130010030Y-49022858D01*
X130021358Y-48995509D01*
X130067781Y-48883434D01*
X130067782Y-48883430D01*
X130070940Y-48875806D01*
X130091716Y-48718000D01*
X130070940Y-48560194D01*
X130067782Y-48552570D01*
X130067781Y-48552566D01*
X130013191Y-48420773D01*
X130013190Y-48420772D01*
X130010030Y-48413142D01*
X129913134Y-48286866D01*
X129851157Y-48239309D01*
X129793411Y-48194998D01*
X129793408Y-48194996D01*
X129786858Y-48189970D01*
X129779227Y-48186809D01*
X129647434Y-48132219D01*
X129647430Y-48132218D01*
X129639806Y-48129060D01*
X129482000Y-48108284D01*
X129324194Y-48129060D01*
X129316570Y-48132218D01*
X129316566Y-48132219D01*
X129184773Y-48186809D01*
X129177142Y-48189970D01*
X129108703Y-48242486D01*
X129042484Y-48268086D01*
X128972936Y-48253822D01*
X128955302Y-48242490D01*
X128886858Y-48189970D01*
X128879227Y-48186809D01*
X128747434Y-48132219D01*
X128747430Y-48132218D01*
X128739806Y-48129060D01*
X128582000Y-48108284D01*
X128424194Y-48129060D01*
X128416570Y-48132218D01*
X128416566Y-48132219D01*
X128284773Y-48186809D01*
X128277142Y-48189970D01*
X128208703Y-48242486D01*
X128142484Y-48268086D01*
X128072936Y-48253822D01*
X128055296Y-48242485D01*
X128051157Y-48239309D01*
X128009290Y-48181971D01*
X128005068Y-48111100D01*
X128036388Y-48052694D01*
X128135228Y-47948356D01*
X128140264Y-47943040D01*
X128228632Y-47790904D01*
X128279630Y-47622520D01*
X128290524Y-47446920D01*
X128278511Y-47377004D01*
X128261969Y-47280738D01*
X128261968Y-47280736D01*
X128260729Y-47273523D01*
X128191844Y-47111632D01*
X128087563Y-46969929D01*
X127953480Y-46856018D01*
X127860947Y-46808768D01*
X127803305Y-46779334D01*
X127803300Y-46779332D01*
X127796788Y-46776007D01*
X127789682Y-46774268D01*
X127789679Y-46774267D01*
X127695553Y-46751235D01*
X127625892Y-46734189D01*
X127620290Y-46733841D01*
X127620287Y-46733841D01*
X127616725Y-46733620D01*
X127616716Y-46733620D01*
X127614786Y-46733500D01*
X126487947Y-46733500D01*
X126396050Y-46744214D01*
X126364518Y-46747890D01*
X126364516Y-46747890D01*
X126357246Y-46748738D01*
X126350369Y-46751234D01*
X126350366Y-46751235D01*
X126282121Y-46776007D01*
X126191866Y-46808768D01*
X126185749Y-46812778D01*
X126185746Y-46812780D01*
X126152722Y-46834432D01*
X126044732Y-46905234D01*
X125923736Y-47032960D01*
X125835368Y-47185096D01*
X125784370Y-47353480D01*
X125773476Y-47529080D01*
X125774716Y-47536296D01*
X125774716Y-47536298D01*
X125801520Y-47692289D01*
X125803271Y-47702477D01*
X125872156Y-47864368D01*
X125905286Y-47909387D01*
X125929551Y-47976105D01*
X125913894Y-48045354D01*
X125863283Y-48095144D01*
X125798447Y-48106967D01*
X125798447Y-48109362D01*
X125790188Y-48109362D01*
X125782000Y-48108284D01*
X125624194Y-48129060D01*
X125616570Y-48132218D01*
X125616566Y-48132219D01*
X125484773Y-48186809D01*
X125477142Y-48189970D01*
X125470592Y-48194996D01*
X125470589Y-48194998D01*
X125412843Y-48239309D01*
X125350866Y-48286866D01*
X125253970Y-48413142D01*
X125250810Y-48420772D01*
X125250809Y-48420773D01*
X125196219Y-48552566D01*
X125196218Y-48552570D01*
X125193060Y-48560194D01*
X125172284Y-48718000D01*
X125193060Y-48875806D01*
X125196218Y-48883430D01*
X125196219Y-48883434D01*
X125242642Y-48995509D01*
X125253970Y-49022858D01*
X125258997Y-49029409D01*
X125258998Y-49029411D01*
X125299665Y-49082408D01*
X125350866Y-49149134D01*
X125357416Y-49154160D01*
X125469366Y-49240063D01*
X125477142Y-49246030D01*
X125611282Y-49301592D01*
X125666562Y-49346139D01*
X125688983Y-49413502D01*
X125671425Y-49482293D01*
X125619463Y-49530672D01*
X125611289Y-49534405D01*
X125477142Y-49589970D01*
X125470592Y-49594996D01*
X125470589Y-49594998D01*
X125431896Y-49624689D01*
X125350866Y-49686866D01*
X125345840Y-49693416D01*
X125293693Y-49761375D01*
X125253970Y-49813142D01*
X125250810Y-49820772D01*
X125250809Y-49820773D01*
X125196219Y-49952566D01*
X125196218Y-49952570D01*
X125193060Y-49960194D01*
X125172284Y-50118000D01*
X125193060Y-50275806D01*
X125196218Y-50283430D01*
X125196219Y-50283434D01*
X125206396Y-50308003D01*
X125253970Y-50422858D01*
X125350866Y-50549134D01*
X125357416Y-50554160D01*
X125468416Y-50639334D01*
X125477142Y-50646030D01*
X125484772Y-50649190D01*
X125484773Y-50649191D01*
X125616566Y-50703781D01*
X125616570Y-50703782D01*
X125624194Y-50706940D01*
X125742511Y-50722517D01*
X125773812Y-50726638D01*
X125782000Y-50727716D01*
X125790188Y-50726638D01*
X125798447Y-50726638D01*
X125798447Y-50729346D01*
X125855402Y-50738232D01*
X125908497Y-50785363D01*
X125927683Y-50853718D01*
X125910647Y-50915495D01*
X125835368Y-51045096D01*
X125784370Y-51213480D01*
X125773476Y-51389080D01*
X125774716Y-51396296D01*
X125774716Y-51396298D01*
X125802031Y-51555262D01*
X125803271Y-51562477D01*
X125872156Y-51724368D01*
X125976437Y-51866071D01*
X126110520Y-51979982D01*
X126154034Y-52002201D01*
X126260695Y-52056666D01*
X126260700Y-52056668D01*
X126267212Y-52059993D01*
X126274318Y-52061732D01*
X126274321Y-52061733D01*
X126331552Y-52075737D01*
X126438108Y-52101811D01*
X126443710Y-52102159D01*
X126443713Y-52102159D01*
X126447275Y-52102380D01*
X126447284Y-52102380D01*
X126449214Y-52102500D01*
X127576053Y-52102500D01*
X127670824Y-52091451D01*
X127699482Y-52088110D01*
X127699484Y-52088110D01*
X127706754Y-52087262D01*
X127713631Y-52084766D01*
X127713634Y-52084765D01*
X127865255Y-52029729D01*
X127872134Y-52027232D01*
X127878251Y-52023222D01*
X127878254Y-52023220D01*
X127951431Y-51975242D01*
X128019268Y-51930766D01*
X128140264Y-51803040D01*
X128228632Y-51650904D01*
X128279630Y-51482520D01*
X128290524Y-51306920D01*
X128280079Y-51246130D01*
X128261969Y-51140738D01*
X128261968Y-51140736D01*
X128260729Y-51133523D01*
X128191844Y-50971632D01*
X128087563Y-50829929D01*
X127953480Y-50716018D01*
X127860947Y-50668768D01*
X127803305Y-50639334D01*
X127803300Y-50639332D01*
X127796788Y-50636007D01*
X127789682Y-50634268D01*
X127789679Y-50634267D01*
X127625892Y-50594189D01*
X127626267Y-50592657D01*
X127568587Y-50565742D01*
X127530694Y-50505703D01*
X127532044Y-50432260D01*
X127573833Y-50303647D01*
X127576563Y-50290807D01*
X127594036Y-50124565D01*
X127594036Y-50111435D01*
X127576563Y-49945193D01*
X127573833Y-49932350D01*
X127522181Y-49773383D01*
X127516835Y-49761375D01*
X127500637Y-49733320D01*
X127490431Y-49723589D01*
X127482410Y-49726800D01*
X126821095Y-50388115D01*
X126758783Y-50422141D01*
X126687968Y-50417076D01*
X126642905Y-50388115D01*
X126424830Y-50170040D01*
X126390804Y-50107728D01*
X126389003Y-50097392D01*
X126372018Y-49968378D01*
X126372017Y-49968374D01*
X126370940Y-49960194D01*
X126367782Y-49952570D01*
X126367781Y-49952566D01*
X126313191Y-49820773D01*
X126313190Y-49820772D01*
X126310030Y-49813142D01*
X126270308Y-49761375D01*
X126218160Y-49693416D01*
X126213134Y-49686866D01*
X126132104Y-49624689D01*
X126093411Y-49594998D01*
X126093408Y-49594996D01*
X126086858Y-49589970D01*
X125952718Y-49534408D01*
X125897438Y-49489861D01*
X125875017Y-49422498D01*
X125875876Y-49419132D01*
X126396408Y-49419132D01*
X126396539Y-49420965D01*
X126400790Y-49427580D01*
X126719188Y-49745978D01*
X126733132Y-49753592D01*
X126734965Y-49753461D01*
X126741580Y-49749210D01*
X127059978Y-49430812D01*
X127067592Y-49416868D01*
X127067461Y-49415035D01*
X127063210Y-49408420D01*
X126744812Y-49090022D01*
X126730868Y-49082408D01*
X126729035Y-49082539D01*
X126722420Y-49086790D01*
X126404022Y-49405188D01*
X126396408Y-49419132D01*
X125875876Y-49419132D01*
X125892575Y-49353707D01*
X125944537Y-49305328D01*
X125952711Y-49301595D01*
X126086858Y-49246030D01*
X126094635Y-49240063D01*
X126206584Y-49154160D01*
X126213134Y-49149134D01*
X126264335Y-49082408D01*
X126305002Y-49029411D01*
X126305003Y-49029409D01*
X126310030Y-49022858D01*
X126321358Y-48995509D01*
X126367781Y-48883434D01*
X126367782Y-48883430D01*
X126370940Y-48875806D01*
X126372017Y-48867626D01*
X126372018Y-48867622D01*
X126389003Y-48738608D01*
X126417726Y-48673681D01*
X126424830Y-48665960D01*
X126642905Y-48447885D01*
X126705217Y-48413859D01*
X126776032Y-48418924D01*
X126821095Y-48447885D01*
X127039170Y-48665960D01*
X127073196Y-48728272D01*
X127074997Y-48738608D01*
X127091982Y-48867622D01*
X127091983Y-48867626D01*
X127093060Y-48875806D01*
X127096218Y-48883430D01*
X127096219Y-48883434D01*
X127142642Y-48995509D01*
X127153970Y-49022858D01*
X127158997Y-49029409D01*
X127158998Y-49029411D01*
X127199665Y-49082408D01*
X127250866Y-49149134D01*
X127257416Y-49154160D01*
X127369366Y-49240063D01*
X127377142Y-49246030D01*
X127384772Y-49249190D01*
X127384773Y-49249191D01*
X127516566Y-49303781D01*
X127516570Y-49303782D01*
X127524194Y-49306940D01*
X127682000Y-49327716D01*
X127839806Y-49306940D01*
X127847430Y-49303782D01*
X127847434Y-49303781D01*
X127979227Y-49249191D01*
X127979228Y-49249190D01*
X127986858Y-49246030D01*
X128055297Y-49193514D01*
X128121516Y-49167914D01*
X128191064Y-49182178D01*
X128208698Y-49193510D01*
X128277142Y-49246030D01*
X128411282Y-49301592D01*
X128466562Y-49346139D01*
X128488983Y-49413502D01*
X128471425Y-49482293D01*
X128419463Y-49530672D01*
X128411289Y-49534405D01*
X128277142Y-49589970D01*
X128270592Y-49594996D01*
X128270589Y-49594998D01*
X128231896Y-49624689D01*
X128150866Y-49686866D01*
X128145840Y-49693416D01*
X128093693Y-49761375D01*
X128053970Y-49813142D01*
X128050810Y-49820772D01*
X128050809Y-49820773D01*
X127996219Y-49952566D01*
X127996218Y-49952570D01*
X127993060Y-49960194D01*
X127972284Y-50118000D01*
X127993060Y-50275806D01*
X127996218Y-50283430D01*
X127996219Y-50283434D01*
X128006396Y-50308003D01*
X128053970Y-50422858D01*
X128150866Y-50549134D01*
X128157416Y-50554160D01*
X128268416Y-50639334D01*
X128277142Y-50646030D01*
X128284772Y-50649190D01*
X128284773Y-50649191D01*
X128416566Y-50703781D01*
X128416570Y-50703782D01*
X128424194Y-50706940D01*
X128582000Y-50727716D01*
X128739806Y-50706940D01*
X128747430Y-50703782D01*
X128747434Y-50703781D01*
X128879227Y-50649191D01*
X128879228Y-50649190D01*
X128886858Y-50646030D01*
X128955297Y-50593514D01*
X129021516Y-50567914D01*
X129091064Y-50582178D01*
X129108698Y-50593510D01*
X129177142Y-50646030D01*
X129254255Y-50677971D01*
X129309535Y-50722517D01*
X129331957Y-50789881D01*
X129324919Y-50836129D01*
X129312950Y-50870210D01*
X129312500Y-50875406D01*
X129312500Y-50878111D01*
X129312403Y-50880367D01*
X129312260Y-50880843D01*
X129312214Y-50880841D01*
X129312201Y-50881040D01*
X129310432Y-50886957D01*
X129310841Y-50897361D01*
X129312403Y-50937126D01*
X129312500Y-50942072D01*
X129312500Y-52010743D01*
X129310394Y-52030537D01*
X129310189Y-52034890D01*
X129307997Y-52045070D01*
X129311627Y-52075737D01*
X129311942Y-52081083D01*
X129312072Y-52081072D01*
X129312500Y-52086252D01*
X129312500Y-52091451D01*
X129313353Y-52096575D01*
X129313354Y-52096588D01*
X129315427Y-52109041D01*
X129316264Y-52114916D01*
X129321869Y-52162270D01*
X129325570Y-52169978D01*
X129326975Y-52178417D01*
X129349629Y-52220401D01*
X129352310Y-52225664D01*
X129372955Y-52268658D01*
X129376311Y-52272650D01*
X129378258Y-52274597D01*
X129379748Y-52276222D01*
X129379981Y-52276654D01*
X129379945Y-52276687D01*
X129380084Y-52276845D01*
X129383017Y-52282280D01*
X129390664Y-52289349D01*
X129419881Y-52316357D01*
X129423447Y-52319786D01*
X129720566Y-52616905D01*
X129754592Y-52679217D01*
X129749527Y-52750032D01*
X129706980Y-52806868D01*
X129640460Y-52831679D01*
X129631471Y-52832000D01*
X121793000Y-52832000D01*
X121768151Y-55962957D01*
X121766819Y-56130823D01*
X121746277Y-56198783D01*
X121692254Y-56244848D01*
X121670238Y-56252342D01*
X121646553Y-56258028D01*
X121570563Y-56276271D01*
X121570560Y-56276272D01*
X121563184Y-56278043D01*
X121422414Y-56350700D01*
X121303039Y-56454838D01*
X121241770Y-56542015D01*
X121186235Y-56586246D01*
X121115603Y-56593432D01*
X121063118Y-56570390D01*
X120970947Y-56501311D01*
X120970944Y-56501309D01*
X120963765Y-56495929D01*
X120887188Y-56467222D01*
X120855360Y-56455290D01*
X120798595Y-56412649D01*
X120773895Y-56346087D01*
X120777587Y-56307764D01*
X120778842Y-56304641D01*
X120801162Y-56147807D01*
X120801307Y-56134000D01*
X120782276Y-55976733D01*
X120726280Y-55828546D01*
X120636553Y-55697992D01*
X120518275Y-55592611D01*
X120510889Y-55588700D01*
X120384988Y-55522039D01*
X120384989Y-55522039D01*
X120378274Y-55518484D01*
X120224633Y-55479892D01*
X120217034Y-55479852D01*
X120217033Y-55479852D01*
X120151181Y-55479507D01*
X120066221Y-55479062D01*
X120058841Y-55480834D01*
X120058839Y-55480834D01*
X119919563Y-55514271D01*
X119919560Y-55514272D01*
X119912184Y-55516043D01*
X119771414Y-55588700D01*
X119652039Y-55692838D01*
X119560950Y-55822444D01*
X119503406Y-55970037D01*
X119502414Y-55977570D01*
X119502414Y-55977571D01*
X119486343Y-56099646D01*
X119482729Y-56127096D01*
X119485555Y-56152694D01*
X119499199Y-56276271D01*
X119500113Y-56284553D01*
X119502723Y-56291684D01*
X119502723Y-56291686D01*
X119504712Y-56297120D01*
X119544583Y-56406075D01*
X119549209Y-56476919D01*
X119514799Y-56539019D01*
X119501824Y-56550198D01*
X119458596Y-56582596D01*
X119453215Y-56589776D01*
X119428808Y-56622342D01*
X119371949Y-56664857D01*
X119301130Y-56669883D01*
X119238837Y-56635823D01*
X119204847Y-56573492D01*
X119202143Y-56553152D01*
X119201994Y-56550200D01*
X119195026Y-56412649D01*
X119189473Y-56303032D01*
X119189472Y-56303027D01*
X119189312Y-56299859D01*
X119139867Y-55976733D01*
X119129193Y-55906975D01*
X119129191Y-55906966D01*
X119128709Y-55903815D01*
X119075754Y-55699052D01*
X119029190Y-55519003D01*
X119029187Y-55518995D01*
X119028393Y-55515923D01*
X119015750Y-55481743D01*
X118938309Y-55272395D01*
X118889392Y-55140155D01*
X118769553Y-54895535D01*
X118714529Y-54783216D01*
X118714526Y-54783210D01*
X118713128Y-54780357D01*
X118501408Y-54440213D01*
X118256397Y-54123206D01*
X117980605Y-53832582D01*
X117676856Y-53571316D01*
X117664741Y-53562864D01*
X117350872Y-53343907D01*
X117348259Y-53342084D01*
X116998179Y-53147232D01*
X116995259Y-53145974D01*
X116995254Y-53145972D01*
X116633134Y-52990018D01*
X116633124Y-52990014D01*
X116630200Y-52988755D01*
X116248089Y-52868276D01*
X115966559Y-52809974D01*
X115858885Y-52787676D01*
X115858882Y-52787676D01*
X115855760Y-52787029D01*
X115497755Y-52750032D01*
X115460385Y-52746170D01*
X115460382Y-52746170D01*
X115457229Y-52745844D01*
X115454063Y-52745838D01*
X115454054Y-52745838D01*
X115256154Y-52745493D01*
X115056575Y-52745145D01*
X114756512Y-52775095D01*
X114661088Y-52784620D01*
X114661086Y-52784620D01*
X114657903Y-52784938D01*
X114654763Y-52785577D01*
X114654762Y-52785577D01*
X114268426Y-52864178D01*
X114268419Y-52864180D01*
X114265292Y-52864816D01*
X114262246Y-52865765D01*
X114262245Y-52865765D01*
X114239313Y-52872908D01*
X113882763Y-52983960D01*
X113871521Y-52988755D01*
X113517163Y-53139901D01*
X113517159Y-53139903D01*
X113514233Y-53141151D01*
X113511454Y-53142685D01*
X113511448Y-53142688D01*
X113210978Y-53308557D01*
X113163475Y-53334780D01*
X113160854Y-53336595D01*
X113160849Y-53336598D01*
X112876357Y-53533590D01*
X112834080Y-53562864D01*
X112529421Y-53823068D01*
X112527224Y-53825367D01*
X112527223Y-53825368D01*
X112254821Y-54110420D01*
X112254816Y-54110426D01*
X112252616Y-54112728D01*
X112006500Y-54428877D01*
X111793593Y-54768280D01*
X111616075Y-55127460D01*
X111614961Y-55130441D01*
X111614960Y-55130442D01*
X111610210Y-55143146D01*
X111475763Y-55502742D01*
X111474955Y-55505821D01*
X111474953Y-55505828D01*
X111427202Y-55687846D01*
X111374094Y-55890281D01*
X111312109Y-56286111D01*
X111311938Y-56289277D01*
X111311937Y-56289282D01*
X111295952Y-56584444D01*
X111295500Y-56592785D01*
X111295500Y-57400321D01*
X111295580Y-57401892D01*
X111295580Y-57401909D01*
X111310527Y-57696968D01*
X111310688Y-57700141D01*
X111326955Y-57806448D01*
X111370467Y-58090798D01*
X111371291Y-58096185D01*
X111372090Y-58099274D01*
X111463032Y-58450919D01*
X111471607Y-58484077D01*
X111472710Y-58487060D01*
X111472712Y-58487065D01*
X111491455Y-58537734D01*
X111610608Y-58859845D01*
X111786872Y-59219643D01*
X111998592Y-59559787D01*
X112000549Y-59562319D01*
X112238428Y-59870098D01*
X112243603Y-59876794D01*
X112519395Y-60167418D01*
X112823144Y-60428684D01*
X112825755Y-60430506D01*
X112825757Y-60430507D01*
X112918923Y-60495500D01*
X113151741Y-60657916D01*
X113501821Y-60852768D01*
X113504741Y-60854026D01*
X113504746Y-60854028D01*
X113866866Y-61009982D01*
X113866876Y-61009986D01*
X113869800Y-61011245D01*
X114251911Y-61131724D01*
X114533441Y-61190026D01*
X114641115Y-61212324D01*
X114641118Y-61212324D01*
X114644240Y-61212971D01*
X114949028Y-61244468D01*
X115039615Y-61253830D01*
X115039618Y-61253830D01*
X115042771Y-61254156D01*
X115045937Y-61254162D01*
X115045946Y-61254162D01*
X115243846Y-61254507D01*
X115443425Y-61254855D01*
X115743488Y-61224905D01*
X115838912Y-61215380D01*
X115838914Y-61215380D01*
X115842097Y-61215062D01*
X115845238Y-61214423D01*
X116231574Y-61135822D01*
X116231581Y-61135820D01*
X116234708Y-61135184D01*
X116248906Y-61130762D01*
X116387120Y-61087713D01*
X116617237Y-61016040D01*
X116951102Y-60873635D01*
X116982837Y-60860099D01*
X116982841Y-60860097D01*
X116985767Y-60858849D01*
X116988546Y-60857315D01*
X116988552Y-60857312D01*
X117333737Y-60666759D01*
X117336525Y-60665220D01*
X117471410Y-60571821D01*
X117538799Y-60549487D01*
X117607568Y-60567132D01*
X117655881Y-60619155D01*
X117668400Y-60689016D01*
X117667370Y-60698504D01*
X117667000Y-60705328D01*
X117667000Y-60777885D01*
X117671475Y-60793124D01*
X117672865Y-60794329D01*
X117680548Y-60796000D01*
X118477885Y-60796000D01*
X118493124Y-60791525D01*
X118494329Y-60790135D01*
X118496000Y-60782452D01*
X118496000Y-60777885D01*
X119004000Y-60777885D01*
X119008475Y-60793124D01*
X119009865Y-60794329D01*
X119017548Y-60796000D01*
X119814884Y-60796000D01*
X119830123Y-60791525D01*
X119831328Y-60790135D01*
X119832999Y-60782452D01*
X119832999Y-60705331D01*
X119832629Y-60698510D01*
X119827105Y-60647648D01*
X119823478Y-60632394D01*
X119800549Y-60571229D01*
X119795366Y-60500422D01*
X119829287Y-60438053D01*
X119891542Y-60403924D01*
X119918531Y-60401000D01*
X119996885Y-60401000D01*
X120012124Y-60396525D01*
X120013329Y-60395135D01*
X120015000Y-60387452D01*
X120015000Y-59590115D01*
X120010525Y-59574876D01*
X120009135Y-59573671D01*
X120001452Y-59572000D01*
X119079115Y-59572000D01*
X119063876Y-59576475D01*
X119062671Y-59577865D01*
X119061000Y-59585548D01*
X119061000Y-59690098D01*
X119061337Y-59696613D01*
X119071256Y-59792205D01*
X119074150Y-59805604D01*
X119125588Y-59959785D01*
X119131762Y-59972963D01*
X119179246Y-60049697D01*
X119198084Y-60118149D01*
X119176923Y-60185918D01*
X119122482Y-60231490D01*
X119072102Y-60242000D01*
X119022115Y-60242000D01*
X119006876Y-60246475D01*
X119005671Y-60247865D01*
X119004000Y-60255548D01*
X119004000Y-60777885D01*
X118496000Y-60777885D01*
X118496000Y-60260116D01*
X118491525Y-60244877D01*
X118490135Y-60243672D01*
X118482452Y-60242001D01*
X118203088Y-60242001D01*
X118134967Y-60221999D01*
X118088474Y-60168343D01*
X118078370Y-60098069D01*
X118111994Y-60028950D01*
X118245179Y-59889580D01*
X118245184Y-59889574D01*
X118247384Y-59887272D01*
X118493500Y-59571123D01*
X118706407Y-59231720D01*
X118752895Y-59137658D01*
X118822043Y-58997749D01*
X118870157Y-58945542D01*
X118938858Y-58927635D01*
X119006334Y-58949714D01*
X119051163Y-59004768D01*
X119056057Y-59029050D01*
X119065475Y-59061124D01*
X119066865Y-59062329D01*
X119074548Y-59064000D01*
X120397000Y-59064000D01*
X120465121Y-59084002D01*
X120511614Y-59137658D01*
X120523000Y-59190000D01*
X120523000Y-60382886D01*
X120537249Y-60431415D01*
X120537249Y-60502411D01*
X120505448Y-60556007D01*
X120501832Y-60559623D01*
X120491516Y-60566516D01*
X120435266Y-60650699D01*
X120420500Y-60724933D01*
X120420501Y-61375066D01*
X120422889Y-61387071D01*
X120431085Y-61428278D01*
X120435266Y-61449301D01*
X120442162Y-61459621D01*
X120446911Y-61471087D01*
X120444432Y-61472114D01*
X120460288Y-61522745D01*
X120444133Y-61577765D01*
X120446910Y-61578915D01*
X120442161Y-61590379D01*
X120435266Y-61600699D01*
X120420500Y-61674933D01*
X120420501Y-62325066D01*
X120424400Y-62344669D01*
X120431328Y-62379500D01*
X120435266Y-62399301D01*
X120442162Y-62409621D01*
X120446911Y-62421087D01*
X120444432Y-62422114D01*
X120460288Y-62472745D01*
X120444133Y-62527765D01*
X120446910Y-62528915D01*
X120442161Y-62540379D01*
X120435266Y-62550699D01*
X120420500Y-62624933D01*
X120420501Y-63275066D01*
X120435266Y-63349301D01*
X120442161Y-63359620D01*
X120442162Y-63359622D01*
X120464814Y-63393522D01*
X120491516Y-63433484D01*
X120575699Y-63489734D01*
X120649933Y-63504500D01*
X121249903Y-63504500D01*
X121850066Y-63504499D01*
X121885818Y-63497388D01*
X121912126Y-63492156D01*
X121912128Y-63492155D01*
X121924301Y-63489734D01*
X121945252Y-63475735D01*
X122015254Y-63454500D01*
X123014366Y-63454500D01*
X123082487Y-63474502D01*
X123128980Y-63528158D01*
X123136263Y-63548608D01*
X123165978Y-63662183D01*
X123190000Y-63754000D01*
X123195956Y-63754000D01*
X123209223Y-63776058D01*
X123227193Y-63844743D01*
X123205177Y-63912240D01*
X123150164Y-63957119D01*
X123101249Y-63967001D01*
X122605331Y-63967001D01*
X122598510Y-63967371D01*
X122547648Y-63972895D01*
X122532396Y-63976521D01*
X122411946Y-64021676D01*
X122396351Y-64030214D01*
X122294276Y-64106715D01*
X122281715Y-64119276D01*
X122205214Y-64221351D01*
X122196676Y-64236946D01*
X122151522Y-64357394D01*
X122147895Y-64372649D01*
X122142369Y-64423514D01*
X122142000Y-64430328D01*
X122142000Y-64600909D01*
X122121998Y-64669030D01*
X122068342Y-64715523D01*
X121998068Y-64725627D01*
X121933488Y-64696133D01*
X121908855Y-64667212D01*
X121833525Y-64545480D01*
X121824494Y-64534085D01*
X121714920Y-64424702D01*
X121703509Y-64415690D01*
X121571709Y-64334447D01*
X121558532Y-64328303D01*
X121411157Y-64279421D01*
X121397790Y-64276555D01*
X121307730Y-64267328D01*
X121301315Y-64267000D01*
X121272115Y-64267000D01*
X121256876Y-64271475D01*
X121255671Y-64272865D01*
X121254000Y-64280548D01*
X121254000Y-65340500D01*
X121233998Y-65408621D01*
X121180342Y-65455114D01*
X121128000Y-65466500D01*
X120035115Y-65466500D01*
X120019876Y-65470975D01*
X120018671Y-65472365D01*
X120017158Y-65479321D01*
X120017337Y-65482782D01*
X120026804Y-65574021D01*
X120029697Y-65587417D01*
X120078830Y-65734687D01*
X120085004Y-65747866D01*
X120166470Y-65879514D01*
X120175506Y-65890915D01*
X120285080Y-66000298D01*
X120296491Y-66009310D01*
X120367183Y-66052885D01*
X120414676Y-66105657D01*
X120426100Y-66175729D01*
X120401893Y-66235709D01*
X120394060Y-66246162D01*
X120332072Y-66328872D01*
X120275213Y-66371387D01*
X120200551Y-66375511D01*
X120082633Y-66345892D01*
X120075034Y-66345852D01*
X120075033Y-66345852D01*
X120009181Y-66345507D01*
X119924221Y-66345062D01*
X119916841Y-66346834D01*
X119916839Y-66346834D01*
X119777563Y-66380271D01*
X119777560Y-66380272D01*
X119770184Y-66382043D01*
X119629414Y-66454700D01*
X119510039Y-66558838D01*
X119418950Y-66688444D01*
X119402780Y-66729919D01*
X119365199Y-66826309D01*
X119361406Y-66836037D01*
X119360414Y-66843570D01*
X119360414Y-66843571D01*
X119341953Y-66983802D01*
X119340729Y-66993096D01*
X119347128Y-67051053D01*
X119357017Y-67140623D01*
X119358113Y-67150553D01*
X119360723Y-67157684D01*
X119360723Y-67157686D01*
X119399558Y-67263807D01*
X119412553Y-67299319D01*
X119416789Y-67305622D01*
X119416789Y-67305623D01*
X119485373Y-67407686D01*
X119500908Y-67430805D01*
X119618076Y-67537419D01*
X119757293Y-67613008D01*
X119910522Y-67653207D01*
X119994477Y-67654526D01*
X120061319Y-67655576D01*
X120061322Y-67655576D01*
X120068916Y-67655695D01*
X120223332Y-67620329D01*
X120310505Y-67576486D01*
X120358072Y-67552563D01*
X120358075Y-67552561D01*
X120364855Y-67549151D01*
X120370628Y-67544220D01*
X120370633Y-67544217D01*
X120412670Y-67508314D01*
X120477459Y-67479283D01*
X120547659Y-67489888D01*
X120600982Y-67536763D01*
X120620500Y-67604125D01*
X120620500Y-67697174D01*
X120600498Y-67765295D01*
X120546842Y-67811788D01*
X120538731Y-67815156D01*
X120522549Y-67821222D01*
X120522548Y-67821223D01*
X120514147Y-67824372D01*
X120405670Y-67905670D01*
X120324372Y-68014147D01*
X120321222Y-68022548D01*
X120321221Y-68022551D01*
X120317304Y-68033000D01*
X120276786Y-68141081D01*
X120275933Y-68148934D01*
X120275933Y-68148936D01*
X120270500Y-68198947D01*
X120270501Y-68726052D01*
X120276786Y-68783919D01*
X120324372Y-68910853D01*
X120329754Y-68918035D01*
X120329755Y-68918036D01*
X120401887Y-69014283D01*
X120426734Y-69080790D01*
X120411681Y-69150172D01*
X120367363Y-69196991D01*
X120295486Y-69241470D01*
X120284085Y-69250506D01*
X120174702Y-69360080D01*
X120165690Y-69371491D01*
X120084447Y-69503291D01*
X120078303Y-69516468D01*
X120029421Y-69663843D01*
X120026555Y-69677210D01*
X120017386Y-69766700D01*
X120021475Y-69780624D01*
X120022865Y-69781829D01*
X120030548Y-69783500D01*
X121964885Y-69783500D01*
X121980124Y-69779025D01*
X121981329Y-69777635D01*
X121982842Y-69770679D01*
X121982663Y-69767218D01*
X121973196Y-69675979D01*
X121970303Y-69662583D01*
X121921170Y-69515313D01*
X121914996Y-69502134D01*
X121833530Y-69370486D01*
X121824494Y-69359085D01*
X121714920Y-69249702D01*
X121703509Y-69240690D01*
X121632817Y-69197115D01*
X121585324Y-69144343D01*
X121573900Y-69074271D01*
X121598107Y-69014290D01*
X121670245Y-68918036D01*
X121670246Y-68918035D01*
X121675628Y-68910853D01*
X121723214Y-68783919D01*
X121724067Y-68776066D01*
X121724068Y-68776062D01*
X121729131Y-68729452D01*
X121729131Y-68729448D01*
X121729500Y-68726053D01*
X121729499Y-68198948D01*
X121723214Y-68141081D01*
X121682696Y-68033000D01*
X121678779Y-68022551D01*
X121678778Y-68022548D01*
X121675628Y-68014147D01*
X121594330Y-67905670D01*
X121485853Y-67824372D01*
X121477452Y-67821223D01*
X121477451Y-67821222D01*
X121461269Y-67815156D01*
X121404505Y-67772514D01*
X121379806Y-67705952D01*
X121379500Y-67697174D01*
X121379500Y-67569669D01*
X122142001Y-67569669D01*
X122142371Y-67576490D01*
X122147895Y-67627352D01*
X122151521Y-67642604D01*
X122196676Y-67763054D01*
X122205214Y-67778649D01*
X122281715Y-67880724D01*
X122294276Y-67893285D01*
X122396351Y-67969786D01*
X122411946Y-67978324D01*
X122532394Y-68023478D01*
X122547649Y-68027105D01*
X122598514Y-68032631D01*
X122605328Y-68033000D01*
X123777885Y-68033000D01*
X123793124Y-68028525D01*
X123794329Y-68027135D01*
X123796000Y-68019452D01*
X123796000Y-68014884D01*
X124304000Y-68014884D01*
X124308475Y-68030123D01*
X124309865Y-68031328D01*
X124317548Y-68032999D01*
X125494669Y-68032999D01*
X125501490Y-68032629D01*
X125552352Y-68027105D01*
X125567604Y-68023479D01*
X125688054Y-67978324D01*
X125703649Y-67969786D01*
X125805724Y-67893285D01*
X125818285Y-67880724D01*
X125894786Y-67778649D01*
X125903324Y-67763054D01*
X125948478Y-67642606D01*
X125952105Y-67627351D01*
X125957631Y-67576486D01*
X125958000Y-67569672D01*
X125958000Y-66272115D01*
X125953525Y-66256876D01*
X125952135Y-66255671D01*
X125944452Y-66254000D01*
X124322115Y-66254000D01*
X124306876Y-66258475D01*
X124305671Y-66259865D01*
X124304000Y-66267548D01*
X124304000Y-68014884D01*
X123796000Y-68014884D01*
X123796000Y-66272115D01*
X123791525Y-66256876D01*
X123790135Y-66255671D01*
X123782452Y-66254000D01*
X122160116Y-66254000D01*
X122144877Y-66258475D01*
X122143672Y-66259865D01*
X122142001Y-66267548D01*
X122142001Y-67569669D01*
X121379500Y-67569669D01*
X121379500Y-67552826D01*
X121399502Y-67484705D01*
X121453158Y-67438212D01*
X121461269Y-67434844D01*
X121477451Y-67428778D01*
X121477452Y-67428777D01*
X121485853Y-67425628D01*
X121594330Y-67344330D01*
X121675628Y-67235853D01*
X121688508Y-67201498D01*
X121710436Y-67143003D01*
X121723214Y-67108919D01*
X121729500Y-67051053D01*
X121729499Y-66523948D01*
X121723214Y-66466081D01*
X121690154Y-66377894D01*
X121678779Y-66347551D01*
X121678778Y-66347548D01*
X121675628Y-66339147D01*
X121670245Y-66331964D01*
X121598113Y-66235717D01*
X121573266Y-66169210D01*
X121588319Y-66099828D01*
X121632637Y-66053009D01*
X121704514Y-66008530D01*
X121715915Y-65999494D01*
X121825298Y-65889920D01*
X121834310Y-65878509D01*
X121915551Y-65746711D01*
X121916839Y-65743950D01*
X121918221Y-65742381D01*
X121919393Y-65740479D01*
X121919719Y-65740680D01*
X121963757Y-65690665D01*
X122032034Y-65671204D01*
X122099994Y-65691746D01*
X122136246Y-65734261D01*
X122147865Y-65744329D01*
X122155548Y-65746000D01*
X125939884Y-65746000D01*
X125955123Y-65741525D01*
X125956328Y-65740135D01*
X125957999Y-65732452D01*
X125957999Y-64430331D01*
X125957629Y-64423510D01*
X125952105Y-64372648D01*
X125948479Y-64357396D01*
X125903324Y-64236946D01*
X125894786Y-64221351D01*
X125818285Y-64119276D01*
X125805724Y-64106715D01*
X125703649Y-64030214D01*
X125688054Y-64021676D01*
X125624851Y-63997982D01*
X125568087Y-63955340D01*
X125543387Y-63888779D01*
X125558595Y-63819430D01*
X125608881Y-63769312D01*
X125669081Y-63754000D01*
X129372784Y-63754000D01*
X129440905Y-63774002D01*
X129487398Y-63827658D01*
X129498778Y-63881209D01*
X129477236Y-66122957D01*
X129424079Y-71654784D01*
X129403423Y-71722709D01*
X129349324Y-71768684D01*
X129297121Y-71779569D01*
X116084016Y-71678493D01*
X116016051Y-71657971D01*
X115998155Y-71643805D01*
X115473440Y-71144847D01*
X115469495Y-71140926D01*
X114868836Y-70517007D01*
X114865067Y-70512916D01*
X114681279Y-70304321D01*
X120017158Y-70304321D01*
X120017337Y-70307782D01*
X120026804Y-70399021D01*
X120029697Y-70412417D01*
X120078830Y-70559687D01*
X120085004Y-70572866D01*
X120166470Y-70704514D01*
X120175506Y-70715915D01*
X120285080Y-70825298D01*
X120296491Y-70834310D01*
X120428291Y-70915553D01*
X120441468Y-70921697D01*
X120588843Y-70970579D01*
X120602210Y-70973445D01*
X120692270Y-70982672D01*
X120698685Y-70983000D01*
X120727885Y-70983000D01*
X120743124Y-70978525D01*
X120744329Y-70977135D01*
X120746000Y-70969452D01*
X120746000Y-70964885D01*
X121254000Y-70964885D01*
X121258475Y-70980124D01*
X121259865Y-70981329D01*
X121267548Y-70983000D01*
X121301266Y-70983000D01*
X121307782Y-70982663D01*
X121399021Y-70973196D01*
X121412417Y-70970303D01*
X121559687Y-70921170D01*
X121572866Y-70914996D01*
X121704514Y-70833530D01*
X121715915Y-70824494D01*
X121825298Y-70714920D01*
X121834310Y-70703509D01*
X121915553Y-70571709D01*
X121921697Y-70558532D01*
X121970579Y-70411157D01*
X121973445Y-70397790D01*
X121982614Y-70308300D01*
X121978525Y-70294376D01*
X121977135Y-70293171D01*
X121969452Y-70291500D01*
X121272115Y-70291500D01*
X121256876Y-70295975D01*
X121255671Y-70297365D01*
X121254000Y-70305048D01*
X121254000Y-70964885D01*
X120746000Y-70964885D01*
X120746000Y-70309615D01*
X120741525Y-70294376D01*
X120740135Y-70293171D01*
X120732452Y-70291500D01*
X120035115Y-70291500D01*
X120019876Y-70295975D01*
X120018671Y-70297365D01*
X120017158Y-70304321D01*
X114681279Y-70304321D01*
X114292510Y-69863076D01*
X114288926Y-69858823D01*
X114225934Y-69780624D01*
X113745595Y-69184332D01*
X113742203Y-69179924D01*
X113229198Y-68482150D01*
X113226003Y-68477597D01*
X112744285Y-67757851D01*
X112741294Y-67753162D01*
X112363825Y-67131468D01*
X112291797Y-67012837D01*
X112289020Y-67008027D01*
X112281178Y-66993723D01*
X111872646Y-66248606D01*
X111870080Y-66243671D01*
X111487624Y-65466609D01*
X111485278Y-65461565D01*
X111264698Y-64958500D01*
X111137476Y-64668350D01*
X111135362Y-64663223D01*
X111134210Y-64660244D01*
X110822921Y-63855469D01*
X110821035Y-63850255D01*
X110819179Y-63844743D01*
X110656409Y-63361563D01*
X110654231Y-63355098D01*
X114743000Y-63355098D01*
X114743337Y-63361613D01*
X114753256Y-63457205D01*
X114756150Y-63470604D01*
X114807588Y-63624785D01*
X114813762Y-63637964D01*
X114899063Y-63775810D01*
X114908099Y-63787209D01*
X115022828Y-63901738D01*
X115034239Y-63910750D01*
X115172242Y-63995816D01*
X115185425Y-64001964D01*
X115251009Y-64023717D01*
X115309369Y-64064147D01*
X115336606Y-64129712D01*
X115324073Y-64199593D01*
X115271852Y-64253830D01*
X115264643Y-64257777D01*
X115256235Y-64260929D01*
X115140596Y-64347596D01*
X115135214Y-64354777D01*
X115059311Y-64456053D01*
X115059309Y-64456056D01*
X115053929Y-64463235D01*
X115003202Y-64598551D01*
X114996500Y-64660243D01*
X114996501Y-65405756D01*
X114996870Y-65409150D01*
X114996870Y-65409156D01*
X114999044Y-65429167D01*
X115003202Y-65467449D01*
X115053929Y-65602765D01*
X115059309Y-65609944D01*
X115059311Y-65609947D01*
X115120617Y-65691746D01*
X115140596Y-65718404D01*
X115147777Y-65723786D01*
X115249053Y-65799689D01*
X115249056Y-65799691D01*
X115256235Y-65805071D01*
X115391551Y-65855798D01*
X115394592Y-65856128D01*
X115454374Y-65890279D01*
X115487195Y-65953233D01*
X115480976Y-66023416D01*
X115450421Y-66101786D01*
X115439406Y-66130037D01*
X115438414Y-66137570D01*
X115438414Y-66137571D01*
X115420549Y-66273273D01*
X115418729Y-66287096D01*
X115423341Y-66328872D01*
X115429730Y-66386735D01*
X115436113Y-66444553D01*
X115438723Y-66451684D01*
X115438723Y-66451686D01*
X115477956Y-66558895D01*
X115490553Y-66593319D01*
X115494789Y-66599622D01*
X115494789Y-66599623D01*
X115513254Y-66627101D01*
X115578908Y-66724805D01*
X115584527Y-66729918D01*
X115584528Y-66729919D01*
X115677780Y-66814771D01*
X115696076Y-66831419D01*
X115835293Y-66907008D01*
X115988522Y-66947207D01*
X116072477Y-66948526D01*
X116139319Y-66949576D01*
X116139322Y-66949576D01*
X116146916Y-66949695D01*
X116211396Y-66934927D01*
X116282262Y-66939216D01*
X116339560Y-66981138D01*
X116365098Y-67047382D01*
X116361941Y-67084665D01*
X116361406Y-67086037D01*
X116340729Y-67243096D01*
X116346149Y-67292185D01*
X116356980Y-67390287D01*
X116358113Y-67400553D01*
X116360723Y-67407684D01*
X116360723Y-67407686D01*
X116390805Y-67489888D01*
X116412553Y-67549319D01*
X116500908Y-67680805D01*
X116506527Y-67685918D01*
X116506528Y-67685919D01*
X116608438Y-67778649D01*
X116618076Y-67787419D01*
X116757293Y-67863008D01*
X116910522Y-67903207D01*
X116994477Y-67904526D01*
X117061319Y-67905576D01*
X117061322Y-67905576D01*
X117068916Y-67905695D01*
X117223332Y-67870329D01*
X117304005Y-67829755D01*
X117358072Y-67802563D01*
X117358075Y-67802561D01*
X117364855Y-67799151D01*
X117370626Y-67794222D01*
X117370629Y-67794220D01*
X117479536Y-67701204D01*
X117479536Y-67701203D01*
X117485314Y-67696269D01*
X117577755Y-67567624D01*
X117636842Y-67420641D01*
X117642965Y-67377615D01*
X117658581Y-67267891D01*
X117658581Y-67267888D01*
X117659162Y-67263807D01*
X117659307Y-67250000D01*
X117653437Y-67201496D01*
X117665109Y-67131468D01*
X117689429Y-67097265D01*
X118214466Y-66572228D01*
X118276778Y-66538202D01*
X118283851Y-66536874D01*
X118298273Y-66534590D01*
X118411735Y-66476779D01*
X118501779Y-66386735D01*
X118531417Y-66328566D01*
X118555088Y-66282110D01*
X118555089Y-66282107D01*
X118559590Y-66273273D01*
X118574500Y-66179137D01*
X118574499Y-65820864D01*
X118561768Y-65740479D01*
X118561141Y-65736520D01*
X118559590Y-65726727D01*
X118501779Y-65613265D01*
X118492609Y-65604095D01*
X118490828Y-65600833D01*
X118488938Y-65598232D01*
X118489274Y-65597988D01*
X118458583Y-65541783D01*
X118463648Y-65470968D01*
X118492609Y-65425905D01*
X118501779Y-65416735D01*
X118540622Y-65340500D01*
X118555088Y-65312110D01*
X118555089Y-65312107D01*
X118559590Y-65303273D01*
X118574500Y-65209137D01*
X118574499Y-64941700D01*
X120017386Y-64941700D01*
X120021475Y-64955624D01*
X120022865Y-64956829D01*
X120030548Y-64958500D01*
X120727885Y-64958500D01*
X120743124Y-64954025D01*
X120744329Y-64952635D01*
X120746000Y-64944952D01*
X120746000Y-64285115D01*
X120741525Y-64269876D01*
X120740135Y-64268671D01*
X120732452Y-64267000D01*
X120698734Y-64267000D01*
X120692218Y-64267337D01*
X120600979Y-64276804D01*
X120587583Y-64279697D01*
X120440313Y-64328830D01*
X120427134Y-64335004D01*
X120295486Y-64416470D01*
X120284085Y-64425506D01*
X120174702Y-64535080D01*
X120165690Y-64546491D01*
X120084447Y-64678291D01*
X120078303Y-64691468D01*
X120029421Y-64838843D01*
X120026555Y-64852210D01*
X120017386Y-64941700D01*
X118574499Y-64941700D01*
X118574499Y-64850864D01*
X118559590Y-64756727D01*
X118501779Y-64643265D01*
X118416405Y-64557891D01*
X118382379Y-64495579D01*
X118379500Y-64468796D01*
X118379500Y-63909384D01*
X118399502Y-63841263D01*
X118416405Y-63820289D01*
X118695289Y-63541405D01*
X118757601Y-63507379D01*
X118784384Y-63504500D01*
X119284563Y-63504499D01*
X119350066Y-63504499D01*
X119385818Y-63497388D01*
X119412126Y-63492156D01*
X119412128Y-63492155D01*
X119424301Y-63489734D01*
X119434621Y-63482839D01*
X119434622Y-63482838D01*
X119498168Y-63440377D01*
X119508484Y-63433484D01*
X119564734Y-63349301D01*
X119579500Y-63275067D01*
X119579499Y-62807175D01*
X119599501Y-62739055D01*
X119629934Y-62706349D01*
X119680727Y-62668282D01*
X119693285Y-62655724D01*
X119769786Y-62553649D01*
X119778324Y-62538054D01*
X119823478Y-62417606D01*
X119827105Y-62402351D01*
X119832631Y-62351486D01*
X119833000Y-62344672D01*
X119833000Y-62272115D01*
X119828525Y-62256876D01*
X119827135Y-62255671D01*
X119819452Y-62254000D01*
X117685116Y-62254000D01*
X117669877Y-62258475D01*
X117668672Y-62259865D01*
X117667001Y-62267548D01*
X117667001Y-62344669D01*
X117667371Y-62351490D01*
X117672895Y-62402352D01*
X117676521Y-62417604D01*
X117721676Y-62538054D01*
X117730214Y-62553649D01*
X117806715Y-62655724D01*
X117819272Y-62668281D01*
X117870065Y-62706348D01*
X117912580Y-62763208D01*
X117920500Y-62807175D01*
X117920501Y-63190615D01*
X117900499Y-63258735D01*
X117883596Y-63279710D01*
X117769784Y-63393522D01*
X117751036Y-63408664D01*
X117749811Y-63409779D01*
X117741060Y-63415429D01*
X117734613Y-63423607D01*
X117734611Y-63423609D01*
X117720271Y-63441800D01*
X117716325Y-63446241D01*
X117716398Y-63446303D01*
X117713039Y-63450267D01*
X117709362Y-63453944D01*
X117698108Y-63469692D01*
X117694602Y-63474362D01*
X117662844Y-63514647D01*
X117659812Y-63523281D01*
X117654486Y-63530734D01*
X117649141Y-63548608D01*
X117639799Y-63579844D01*
X117637964Y-63585492D01*
X117620982Y-63633851D01*
X117620500Y-63639416D01*
X117620500Y-63642124D01*
X117620386Y-63644758D01*
X117620357Y-63644856D01*
X117620193Y-63644849D01*
X117620149Y-63645553D01*
X117618287Y-63651778D01*
X117619982Y-63694910D01*
X117620403Y-63705635D01*
X117620500Y-63710582D01*
X117620500Y-64468796D01*
X117600498Y-64536917D01*
X117583595Y-64557891D01*
X117498221Y-64643265D01*
X117480375Y-64678291D01*
X117444912Y-64747890D01*
X117444911Y-64747893D01*
X117440410Y-64756727D01*
X117425500Y-64850863D01*
X117425501Y-65209136D01*
X117440410Y-65303273D01*
X117498221Y-65416735D01*
X117507391Y-65425905D01*
X117509172Y-65429167D01*
X117511062Y-65431768D01*
X117510726Y-65432012D01*
X117541417Y-65488217D01*
X117536352Y-65559032D01*
X117507391Y-65604095D01*
X117498221Y-65613265D01*
X117468700Y-65671204D01*
X117444912Y-65717890D01*
X117444911Y-65717893D01*
X117440410Y-65726727D01*
X117425500Y-65820863D01*
X117425501Y-66179136D01*
X117426276Y-66184027D01*
X117426276Y-66184030D01*
X117430316Y-66209540D01*
X117421216Y-66279951D01*
X117394962Y-66318344D01*
X117154411Y-66558895D01*
X117092099Y-66592921D01*
X117064658Y-66595798D01*
X116924221Y-66595062D01*
X116916841Y-66596834D01*
X116916839Y-66596834D01*
X116868023Y-66608554D01*
X116797115Y-66605007D01*
X116739381Y-66563687D01*
X116713151Y-66497714D01*
X116715941Y-66464797D01*
X116714842Y-66464641D01*
X116736581Y-66311891D01*
X116736581Y-66311888D01*
X116737162Y-66307807D01*
X116737307Y-66294000D01*
X116734760Y-66272948D01*
X116722808Y-66174184D01*
X116718276Y-66136733D01*
X116662280Y-65988546D01*
X116641935Y-65958944D01*
X116619835Y-65891475D01*
X116637720Y-65822768D01*
X116670209Y-65786751D01*
X116723634Y-65746711D01*
X116761404Y-65718404D01*
X116781383Y-65691746D01*
X116842689Y-65609947D01*
X116842691Y-65609944D01*
X116848071Y-65602765D01*
X116893050Y-65482782D01*
X116896026Y-65474844D01*
X116896026Y-65474842D01*
X116898798Y-65467449D01*
X116905500Y-65405757D01*
X116905499Y-64660244D01*
X116898798Y-64598551D01*
X116848071Y-64463235D01*
X116842691Y-64456056D01*
X116842689Y-64456053D01*
X116766786Y-64354777D01*
X116761404Y-64347596D01*
X116743860Y-64334447D01*
X116652950Y-64266314D01*
X116652951Y-64266314D01*
X116645765Y-64260929D01*
X116637356Y-64257777D01*
X116630127Y-64253819D01*
X116579980Y-64203562D01*
X116564965Y-64134171D01*
X116589849Y-64067678D01*
X116650758Y-64023774D01*
X116717785Y-64001412D01*
X116730964Y-63995238D01*
X116868810Y-63909937D01*
X116880209Y-63900901D01*
X116994738Y-63786172D01*
X117003750Y-63774761D01*
X117088816Y-63636758D01*
X117094963Y-63623577D01*
X117146138Y-63469291D01*
X117149005Y-63455915D01*
X117158672Y-63361563D01*
X117159000Y-63355147D01*
X117159000Y-63255115D01*
X117154525Y-63239876D01*
X117153135Y-63238671D01*
X117145452Y-63237000D01*
X114761115Y-63237000D01*
X114745876Y-63241475D01*
X114744671Y-63242865D01*
X114743000Y-63250548D01*
X114743000Y-63355098D01*
X110654231Y-63355098D01*
X110544541Y-63029481D01*
X110542882Y-63024172D01*
X110452529Y-62710885D01*
X114743000Y-62710885D01*
X114747475Y-62726124D01*
X114748865Y-62727329D01*
X114756548Y-62729000D01*
X115678885Y-62729000D01*
X115694124Y-62724525D01*
X115695329Y-62723135D01*
X115697000Y-62715452D01*
X115697000Y-62710885D01*
X116205000Y-62710885D01*
X116209475Y-62726124D01*
X116210865Y-62727329D01*
X116218548Y-62729000D01*
X117140885Y-62729000D01*
X117156124Y-62724525D01*
X117157329Y-62723135D01*
X117159000Y-62715452D01*
X117159000Y-62610902D01*
X117158663Y-62604387D01*
X117148744Y-62508795D01*
X117145850Y-62495396D01*
X117094412Y-62341215D01*
X117088238Y-62328036D01*
X117002937Y-62190190D01*
X116993901Y-62178791D01*
X116879172Y-62064262D01*
X116867761Y-62055250D01*
X116729758Y-61970184D01*
X116716577Y-61964037D01*
X116562291Y-61912862D01*
X116548915Y-61909995D01*
X116454563Y-61900328D01*
X116448146Y-61900000D01*
X116223115Y-61900000D01*
X116207876Y-61904475D01*
X116206671Y-61905865D01*
X116205000Y-61913548D01*
X116205000Y-62710885D01*
X115697000Y-62710885D01*
X115697000Y-61918115D01*
X115692525Y-61902876D01*
X115691135Y-61901671D01*
X115683452Y-61900000D01*
X115453902Y-61900000D01*
X115447387Y-61900337D01*
X115351795Y-61910256D01*
X115338396Y-61913150D01*
X115184215Y-61964588D01*
X115171036Y-61970762D01*
X115033190Y-62056063D01*
X115021791Y-62065099D01*
X114907262Y-62179828D01*
X114898250Y-62191239D01*
X114813184Y-62329242D01*
X114807037Y-62342423D01*
X114755862Y-62496709D01*
X114752995Y-62510085D01*
X114743328Y-62604437D01*
X114743000Y-62610854D01*
X114743000Y-62710885D01*
X110452529Y-62710885D01*
X110302882Y-62192000D01*
X110301459Y-62186623D01*
X110190833Y-61727885D01*
X117667000Y-61727885D01*
X117671475Y-61743124D01*
X117672865Y-61744329D01*
X117680548Y-61746000D01*
X118477885Y-61746000D01*
X118493124Y-61741525D01*
X118494329Y-61740135D01*
X118496000Y-61732452D01*
X118496000Y-61727885D01*
X119004000Y-61727885D01*
X119008475Y-61743124D01*
X119009865Y-61744329D01*
X119017548Y-61746000D01*
X119814884Y-61746000D01*
X119830123Y-61741525D01*
X119831328Y-61740135D01*
X119832999Y-61732452D01*
X119832999Y-61655331D01*
X119832629Y-61648510D01*
X119827105Y-61597648D01*
X119823478Y-61582393D01*
X119818544Y-61569231D01*
X119813360Y-61498424D01*
X119818544Y-61480769D01*
X119823477Y-61467610D01*
X119827105Y-61452351D01*
X119832631Y-61401486D01*
X119833000Y-61394672D01*
X119833000Y-61322115D01*
X119828525Y-61306876D01*
X119827135Y-61305671D01*
X119819452Y-61304000D01*
X119022115Y-61304000D01*
X119006876Y-61308475D01*
X119005671Y-61309865D01*
X119004000Y-61317548D01*
X119004000Y-61727885D01*
X118496000Y-61727885D01*
X118496000Y-61322115D01*
X118491525Y-61306876D01*
X118490135Y-61305671D01*
X118482452Y-61304000D01*
X117685116Y-61304000D01*
X117669877Y-61308475D01*
X117668672Y-61309865D01*
X117667001Y-61317548D01*
X117667001Y-61394669D01*
X117667371Y-61401490D01*
X117672895Y-61452352D01*
X117676522Y-61467607D01*
X117681456Y-61480769D01*
X117686640Y-61551576D01*
X117681456Y-61569231D01*
X117676523Y-61582390D01*
X117672895Y-61597649D01*
X117667369Y-61648514D01*
X117667000Y-61655328D01*
X117667000Y-61727885D01*
X110190833Y-61727885D01*
X110098415Y-61344653D01*
X110097237Y-61339243D01*
X110096136Y-61333590D01*
X110002121Y-60851218D01*
X109931554Y-60489151D01*
X109930611Y-60483669D01*
X109802610Y-59627118D01*
X109801909Y-59621600D01*
X109711832Y-58760198D01*
X109711376Y-58754655D01*
X109659404Y-57890134D01*
X109659193Y-57884576D01*
X109650325Y-57326805D01*
X109645425Y-57018599D01*
X109645459Y-57013052D01*
X109650532Y-56833551D01*
X109660072Y-56495929D01*
X109669924Y-56147303D01*
X109670204Y-56141748D01*
X109732852Y-55277933D01*
X109733377Y-55272395D01*
X109749195Y-55137290D01*
X109834088Y-54412182D01*
X109834853Y-54406695D01*
X109856650Y-54272227D01*
X109924272Y-53855043D01*
X109973431Y-53551762D01*
X109974442Y-53546292D01*
X110150617Y-52698298D01*
X110151869Y-52692879D01*
X110255540Y-52285150D01*
X110365289Y-51853515D01*
X110366773Y-51848174D01*
X110378792Y-51808356D01*
X110617036Y-51019028D01*
X110618759Y-51013744D01*
X110905380Y-50196424D01*
X110907314Y-50191278D01*
X110920622Y-50158096D01*
X119482729Y-50158096D01*
X119483563Y-50165646D01*
X119498799Y-50303647D01*
X119500113Y-50315553D01*
X119502723Y-50322684D01*
X119502723Y-50322686D01*
X119541779Y-50429411D01*
X119554553Y-50464319D01*
X119558789Y-50470622D01*
X119558789Y-50470623D01*
X119613382Y-50551865D01*
X119642908Y-50595805D01*
X119648527Y-50600918D01*
X119648528Y-50600919D01*
X119690746Y-50639334D01*
X119760076Y-50702419D01*
X119899293Y-50778008D01*
X120052522Y-50818207D01*
X120136477Y-50819526D01*
X120203319Y-50820576D01*
X120203322Y-50820576D01*
X120210916Y-50820695D01*
X120365332Y-50785329D01*
X120401776Y-50767000D01*
X120471619Y-50754262D01*
X120537263Y-50781306D01*
X120577865Y-50839546D01*
X120579549Y-50845441D01*
X120580202Y-50851449D01*
X120630929Y-50986765D01*
X120636309Y-50993944D01*
X120636311Y-50993947D01*
X120694782Y-51071964D01*
X120717596Y-51102404D01*
X120724777Y-51107786D01*
X120826053Y-51183689D01*
X120826056Y-51183691D01*
X120833235Y-51189071D01*
X120898347Y-51213480D01*
X120961156Y-51237026D01*
X120961158Y-51237026D01*
X120968551Y-51239798D01*
X120976401Y-51240651D01*
X120976402Y-51240651D01*
X121026837Y-51246130D01*
X121030243Y-51246500D01*
X121402945Y-51246500D01*
X121775756Y-51246499D01*
X121779150Y-51246130D01*
X121779156Y-51246130D01*
X121829591Y-51240652D01*
X121829595Y-51240651D01*
X121837449Y-51239798D01*
X121972765Y-51189071D01*
X121979944Y-51183691D01*
X121979947Y-51183689D01*
X122081223Y-51107786D01*
X122088404Y-51102404D01*
X122112122Y-51070758D01*
X122169686Y-50993950D01*
X122169688Y-50993947D01*
X122175071Y-50986765D01*
X122178223Y-50978356D01*
X122182181Y-50971127D01*
X122232438Y-50920980D01*
X122301829Y-50905965D01*
X122368322Y-50930849D01*
X122412226Y-50991758D01*
X122434588Y-51058785D01*
X122440762Y-51071964D01*
X122526063Y-51209810D01*
X122535099Y-51221209D01*
X122649828Y-51335738D01*
X122661239Y-51344750D01*
X122799242Y-51429816D01*
X122812423Y-51435963D01*
X122966709Y-51487138D01*
X122980085Y-51490005D01*
X123074437Y-51499672D01*
X123080853Y-51500000D01*
X123180885Y-51500000D01*
X123196124Y-51495525D01*
X123197329Y-51494135D01*
X123199000Y-51486452D01*
X123199000Y-51481885D01*
X123707000Y-51481885D01*
X123711475Y-51497124D01*
X123712865Y-51498329D01*
X123720548Y-51500000D01*
X123825098Y-51500000D01*
X123831613Y-51499663D01*
X123927205Y-51489744D01*
X123940604Y-51486850D01*
X124094785Y-51435412D01*
X124107964Y-51429238D01*
X124245810Y-51343937D01*
X124257209Y-51334901D01*
X124371738Y-51220172D01*
X124380750Y-51208761D01*
X124465816Y-51070758D01*
X124471963Y-51057577D01*
X124523138Y-50903291D01*
X124526005Y-50889915D01*
X124535672Y-50795563D01*
X124536000Y-50789147D01*
X124536000Y-50564115D01*
X124531525Y-50548876D01*
X124530135Y-50547671D01*
X124522452Y-50546000D01*
X123725115Y-50546000D01*
X123709876Y-50550475D01*
X123708671Y-50551865D01*
X123707000Y-50559548D01*
X123707000Y-51481885D01*
X123199000Y-51481885D01*
X123199000Y-50019885D01*
X123707000Y-50019885D01*
X123711475Y-50035124D01*
X123712865Y-50036329D01*
X123720548Y-50038000D01*
X124517885Y-50038000D01*
X124533124Y-50033525D01*
X124534329Y-50032135D01*
X124536000Y-50024452D01*
X124536000Y-49794902D01*
X124535663Y-49788387D01*
X124525744Y-49692795D01*
X124522850Y-49679396D01*
X124471412Y-49525215D01*
X124465238Y-49512036D01*
X124379937Y-49374190D01*
X124370901Y-49362791D01*
X124256172Y-49248262D01*
X124244761Y-49239249D01*
X124242044Y-49237575D01*
X124240578Y-49235946D01*
X124239013Y-49234710D01*
X124239224Y-49234442D01*
X124194549Y-49184805D01*
X124183123Y-49114734D01*
X124211394Y-49049609D01*
X124218983Y-49041295D01*
X124253298Y-49006920D01*
X124262310Y-48995509D01*
X124343553Y-48863709D01*
X124349697Y-48850532D01*
X124398579Y-48703157D01*
X124401445Y-48689790D01*
X124410672Y-48599730D01*
X124411000Y-48593315D01*
X124411000Y-48564115D01*
X124406525Y-48548876D01*
X124405135Y-48547671D01*
X124397452Y-48546000D01*
X123737615Y-48546000D01*
X123722376Y-48550475D01*
X123721171Y-48551865D01*
X123719500Y-48559548D01*
X123719500Y-49261372D01*
X123711513Y-49288572D01*
X123715507Y-49289441D01*
X123707000Y-49328548D01*
X123707000Y-50019885D01*
X123199000Y-50019885D01*
X123199000Y-49097628D01*
X123206987Y-49070428D01*
X123202993Y-49069559D01*
X123211500Y-49030452D01*
X123211500Y-48019885D01*
X123719500Y-48019885D01*
X123723975Y-48035124D01*
X123725365Y-48036329D01*
X123733048Y-48038000D01*
X124392885Y-48038000D01*
X124408124Y-48033525D01*
X124409329Y-48032135D01*
X124411000Y-48024452D01*
X124411000Y-47990734D01*
X124410663Y-47984218D01*
X124401196Y-47892979D01*
X124398303Y-47879583D01*
X124349170Y-47732313D01*
X124342996Y-47719134D01*
X124261530Y-47587486D01*
X124252494Y-47576085D01*
X124142920Y-47466702D01*
X124131509Y-47457690D01*
X123999709Y-47376447D01*
X123986532Y-47370303D01*
X123839157Y-47321421D01*
X123825790Y-47318555D01*
X123736300Y-47309386D01*
X123722376Y-47313475D01*
X123721171Y-47314865D01*
X123719500Y-47322548D01*
X123719500Y-48019885D01*
X123211500Y-48019885D01*
X123211500Y-47327115D01*
X123207025Y-47311876D01*
X123205635Y-47310671D01*
X123198679Y-47309158D01*
X123195218Y-47309337D01*
X123103979Y-47318804D01*
X123090583Y-47321697D01*
X122943313Y-47370830D01*
X122930134Y-47377004D01*
X122798486Y-47458470D01*
X122787085Y-47467506D01*
X122677702Y-47577080D01*
X122668690Y-47588491D01*
X122625115Y-47659183D01*
X122572343Y-47706676D01*
X122502271Y-47718100D01*
X122442290Y-47693893D01*
X122346036Y-47621755D01*
X122346035Y-47621754D01*
X122338853Y-47616372D01*
X122330452Y-47613222D01*
X122330449Y-47613221D01*
X122234043Y-47577080D01*
X122211919Y-47568786D01*
X122204066Y-47567933D01*
X122204062Y-47567932D01*
X122157452Y-47562869D01*
X122157448Y-47562869D01*
X122154053Y-47562500D01*
X121890539Y-47562500D01*
X121626948Y-47562501D01*
X121569081Y-47568786D01*
X121519199Y-47587486D01*
X121450551Y-47613221D01*
X121450548Y-47613222D01*
X121442147Y-47616372D01*
X121333670Y-47697670D01*
X121283431Y-47764705D01*
X121226572Y-47807219D01*
X121155754Y-47812245D01*
X121098786Y-47783215D01*
X121031951Y-47723667D01*
X121031945Y-47723663D01*
X121026275Y-47718611D01*
X121018889Y-47714700D01*
X120892988Y-47648039D01*
X120892989Y-47648039D01*
X120886274Y-47644484D01*
X120732633Y-47605892D01*
X120725034Y-47605852D01*
X120725033Y-47605852D01*
X120659181Y-47605507D01*
X120574221Y-47605062D01*
X120566841Y-47606834D01*
X120566839Y-47606834D01*
X120427563Y-47640271D01*
X120427560Y-47640272D01*
X120420184Y-47642043D01*
X120279414Y-47714700D01*
X120160039Y-47818838D01*
X120068950Y-47948444D01*
X120048782Y-48000172D01*
X120021259Y-48070766D01*
X120011406Y-48096037D01*
X120010414Y-48103570D01*
X120010414Y-48103571D01*
X119992126Y-48242485D01*
X119990729Y-48253096D01*
X120008113Y-48410553D01*
X120010723Y-48417684D01*
X120010723Y-48417686D01*
X120059317Y-48550475D01*
X120062553Y-48559319D01*
X120066789Y-48565622D01*
X120066789Y-48565623D01*
X120137936Y-48671500D01*
X120150908Y-48690805D01*
X120156527Y-48695918D01*
X120156528Y-48695919D01*
X120192084Y-48728272D01*
X120268076Y-48797419D01*
X120407293Y-48873008D01*
X120560522Y-48913207D01*
X120644477Y-48914526D01*
X120711319Y-48915576D01*
X120711322Y-48915576D01*
X120718916Y-48915695D01*
X120873332Y-48880329D01*
X120943742Y-48844917D01*
X121008072Y-48812563D01*
X121008075Y-48812561D01*
X121014855Y-48809151D01*
X121020628Y-48804220D01*
X121020633Y-48804217D01*
X121071859Y-48760466D01*
X121136648Y-48731435D01*
X121206848Y-48742040D01*
X121254515Y-48780712D01*
X121333670Y-48886330D01*
X121442147Y-48967628D01*
X121450548Y-48970778D01*
X121450551Y-48970779D01*
X121519199Y-48996514D01*
X121569081Y-49015214D01*
X121576934Y-49016067D01*
X121576938Y-49016068D01*
X121623548Y-49021131D01*
X121623552Y-49021131D01*
X121626947Y-49021500D01*
X121890461Y-49021500D01*
X122154052Y-49021499D01*
X122211919Y-49015214D01*
X122266755Y-48994657D01*
X122330449Y-48970779D01*
X122330452Y-48970778D01*
X122338853Y-48967628D01*
X122346036Y-48962245D01*
X122442283Y-48890113D01*
X122508790Y-48865266D01*
X122578172Y-48880319D01*
X122624991Y-48924637D01*
X122669470Y-48996514D01*
X122678506Y-49007916D01*
X122702348Y-49031716D01*
X122736426Y-49093999D01*
X122731423Y-49164819D01*
X122688925Y-49221691D01*
X122679632Y-49228032D01*
X122660190Y-49240063D01*
X122648791Y-49249099D01*
X122534262Y-49363828D01*
X122525250Y-49375239D01*
X122440184Y-49513242D01*
X122434036Y-49526425D01*
X122412283Y-49592009D01*
X122371853Y-49650369D01*
X122306288Y-49677606D01*
X122236407Y-49665073D01*
X122182170Y-49612852D01*
X122178223Y-49605643D01*
X122175071Y-49597235D01*
X122088404Y-49481596D01*
X122081223Y-49476214D01*
X121979947Y-49400311D01*
X121979944Y-49400309D01*
X121972765Y-49394929D01*
X121862804Y-49353707D01*
X121844844Y-49346974D01*
X121844842Y-49346974D01*
X121837449Y-49344202D01*
X121829599Y-49343349D01*
X121829598Y-49343349D01*
X121779154Y-49337869D01*
X121779153Y-49337869D01*
X121775757Y-49337500D01*
X121403055Y-49337500D01*
X121030244Y-49337501D01*
X121026850Y-49337870D01*
X121026844Y-49337870D01*
X120976409Y-49343348D01*
X120976405Y-49343349D01*
X120968551Y-49344202D01*
X120833235Y-49394929D01*
X120826056Y-49400309D01*
X120826053Y-49400311D01*
X120724777Y-49476214D01*
X120717596Y-49481596D01*
X120680816Y-49530672D01*
X120649369Y-49572631D01*
X120592510Y-49615146D01*
X120521691Y-49620172D01*
X120489584Y-49608420D01*
X120468460Y-49597235D01*
X120378274Y-49549484D01*
X120224633Y-49510892D01*
X120217034Y-49510852D01*
X120217033Y-49510852D01*
X120151181Y-49510507D01*
X120066221Y-49510062D01*
X120058841Y-49511834D01*
X120058839Y-49511834D01*
X119919563Y-49545271D01*
X119919560Y-49545272D01*
X119912184Y-49547043D01*
X119771414Y-49619700D01*
X119652039Y-49723838D01*
X119560950Y-49853444D01*
X119503406Y-50001037D01*
X119502414Y-50008570D01*
X119502414Y-50008571D01*
X119486930Y-50126188D01*
X119482729Y-50158096D01*
X110920622Y-50158096D01*
X111229728Y-49387400D01*
X111231908Y-49382294D01*
X111367841Y-49082408D01*
X111589482Y-48593437D01*
X111591882Y-48588440D01*
X111603465Y-48565623D01*
X111983899Y-47816178D01*
X111986525Y-47811276D01*
X112093070Y-47622520D01*
X112412269Y-47057021D01*
X112415106Y-47052247D01*
X112466489Y-46969929D01*
X112873703Y-46317549D01*
X112876729Y-46312931D01*
X113356971Y-45614221D01*
X113367316Y-45599170D01*
X113370567Y-45594656D01*
X113595659Y-45296288D01*
X113892186Y-44903231D01*
X113895622Y-44898879D01*
X113945103Y-44838984D01*
X114447230Y-44231168D01*
X114450867Y-44226959D01*
X115031393Y-43584258D01*
X115035211Y-43580214D01*
X115643543Y-42963752D01*
X115647536Y-42959880D01*
X116282496Y-42370853D01*
X116286657Y-42367161D01*
X116816503Y-41917479D01*
X116946985Y-41806739D01*
X116951300Y-41803238D01*
X117635696Y-41272521D01*
X117640165Y-41269210D01*
X117948245Y-41051380D01*
X118031265Y-40992680D01*
X118098435Y-40969684D01*
X118167373Y-40986654D01*
X118216194Y-41038200D01*
X118229397Y-41107958D01*
X118210393Y-41163075D01*
X118140937Y-41272521D01*
X118113853Y-41315198D01*
X117982351Y-41594652D01*
X117886912Y-41888384D01*
X117829040Y-42191761D01*
X117809647Y-42500000D01*
X117829040Y-42808239D01*
X117886912Y-43111616D01*
X117982351Y-43405348D01*
X118113853Y-43684802D01*
X118279342Y-43945571D01*
X118476209Y-44183543D01*
X118701349Y-44394964D01*
X118704551Y-44397291D01*
X118704553Y-44397292D01*
X118948004Y-44574169D01*
X118948009Y-44574172D01*
X118951213Y-44576500D01*
X119097582Y-44656967D01*
X119215210Y-44721634D01*
X119221858Y-44725289D01*
X119509018Y-44838984D01*
X119808163Y-44915791D01*
X120114576Y-44954500D01*
X120423424Y-44954500D01*
X120729837Y-44915791D01*
X121028982Y-44838984D01*
X121316142Y-44725289D01*
X121322791Y-44721634D01*
X121440418Y-44656967D01*
X121586787Y-44576500D01*
X121589991Y-44574172D01*
X121589996Y-44574169D01*
X121833447Y-44397292D01*
X121833449Y-44397291D01*
X121836651Y-44394964D01*
X122061791Y-44183543D01*
X122258658Y-43945571D01*
X122424147Y-43684802D01*
X122555649Y-43405348D01*
X122651088Y-43111616D01*
X122708960Y-42808239D01*
X122728353Y-42500000D01*
X122708960Y-42191761D01*
X122651088Y-41888384D01*
X122555649Y-41594652D01*
X122424147Y-41315198D01*
X122397064Y-41272521D01*
X122323335Y-41156343D01*
X122258658Y-41054429D01*
X122061791Y-40816457D01*
X121836651Y-40605036D01*
X121833447Y-40602708D01*
X121589996Y-40425831D01*
X121589991Y-40425828D01*
X121586787Y-40423500D01*
X121396718Y-40319008D01*
X121319604Y-40276614D01*
X121319601Y-40276612D01*
X121316142Y-40274711D01*
X121028982Y-40161016D01*
X120937700Y-40137579D01*
X120876694Y-40101264D01*
X120845005Y-40037732D01*
X120852695Y-39967153D01*
X120897322Y-39911936D01*
X120969035Y-39889537D01*
X131192000Y-39889537D01*
X131260121Y-39909539D01*
G37*
%TD.AperFunction*%
%TD*%
%TA.AperFunction,Conductor*%
%TO.N,GND*%
G36*
X138496014Y-63759535D02*
G01*
X138559700Y-63770918D01*
X138598708Y-63801170D01*
X138611791Y-63816268D01*
X138615184Y-63819208D01*
X138715440Y-63906081D01*
X138715443Y-63906083D01*
X138722251Y-63911982D01*
X138855200Y-63972698D01*
X138878954Y-63979673D01*
X138918998Y-63991431D01*
X138919002Y-63991432D01*
X138923321Y-63992700D01*
X138927770Y-63993340D01*
X138927776Y-63993341D01*
X139063543Y-64012861D01*
X139063548Y-64012861D01*
X139067990Y-64013500D01*
X147441791Y-64013500D01*
X147509912Y-64033502D01*
X147556405Y-64087158D01*
X147566509Y-64157432D01*
X147558774Y-64186307D01*
X147322198Y-64777493D01*
X147320011Y-64782625D01*
X147252560Y-64931599D01*
X146964553Y-65567693D01*
X146962127Y-65572748D01*
X146572101Y-66341211D01*
X146569477Y-66346109D01*
X146200974Y-66998511D01*
X146145635Y-67096484D01*
X146142769Y-67101303D01*
X145739940Y-67745729D01*
X145686000Y-67832019D01*
X145682928Y-67836699D01*
X145652358Y-67881081D01*
X145194066Y-68546423D01*
X145190783Y-68550968D01*
X144670867Y-69238192D01*
X144667386Y-69242587D01*
X144187209Y-69821807D01*
X144117389Y-69906028D01*
X144113727Y-69910251D01*
X143780969Y-70277116D01*
X143534770Y-70548551D01*
X143530912Y-70552619D01*
X142924103Y-71164560D01*
X142920081Y-71168439D01*
X142607380Y-71456904D01*
X142460701Y-71592214D01*
X142397069Y-71623702D01*
X142374303Y-71625598D01*
X139757470Y-71605580D01*
X130065039Y-71531436D01*
X129997074Y-71510914D01*
X129950993Y-71456904D01*
X129940010Y-71404229D01*
X129947501Y-70624670D01*
X130009790Y-64142550D01*
X130030446Y-64074625D01*
X130084545Y-64028650D01*
X130154913Y-64019222D01*
X130219208Y-64049334D01*
X130224877Y-64054664D01*
X131189839Y-65019627D01*
X132004595Y-65834383D01*
X132038621Y-65896695D01*
X132041500Y-65923478D01*
X132041500Y-67573134D01*
X132048255Y-67635316D01*
X132099385Y-67771705D01*
X132186739Y-67888261D01*
X132303295Y-67975615D01*
X132439684Y-68026745D01*
X132501866Y-68033500D01*
X135398134Y-68033500D01*
X135460316Y-68026745D01*
X135596705Y-67975615D01*
X135713261Y-67888261D01*
X135800615Y-67771705D01*
X135851745Y-67635316D01*
X135858500Y-67573134D01*
X135858500Y-67535585D01*
X137113698Y-67535585D01*
X137117830Y-67618586D01*
X137125811Y-67778891D01*
X137129936Y-67861759D01*
X137130577Y-67865490D01*
X137130578Y-67865498D01*
X137183982Y-68176291D01*
X137185241Y-68183619D01*
X137186329Y-68187258D01*
X137186330Y-68187261D01*
X137190827Y-68202296D01*
X137278814Y-68496504D01*
X137280327Y-68499975D01*
X137280329Y-68499981D01*
X137302552Y-68550968D01*
X137409297Y-68795881D01*
X137411220Y-68799152D01*
X137411222Y-68799156D01*
X137453584Y-68871215D01*
X137574802Y-69077414D01*
X137577103Y-69080429D01*
X137770631Y-69334012D01*
X137770636Y-69334017D01*
X137772931Y-69337025D01*
X138000814Y-69570953D01*
X138073635Y-69629607D01*
X138252196Y-69773431D01*
X138252201Y-69773435D01*
X138255149Y-69775809D01*
X138532253Y-69948627D01*
X138828112Y-70086903D01*
X139138440Y-70188634D01*
X139458742Y-70252346D01*
X139462514Y-70252633D01*
X139462522Y-70252634D01*
X139780602Y-70276829D01*
X139780607Y-70276829D01*
X139784379Y-70277116D01*
X140110633Y-70262586D01*
X140170425Y-70252634D01*
X140429037Y-70209590D01*
X140429042Y-70209589D01*
X140432778Y-70208967D01*
X140746149Y-70117034D01*
X140749616Y-70115544D01*
X140749620Y-70115543D01*
X141042721Y-69989616D01*
X141042723Y-69989615D01*
X141046205Y-69988119D01*
X141328601Y-69824091D01*
X141589245Y-69627324D01*
X141824363Y-69400670D01*
X142030549Y-69147410D01*
X142204815Y-68871215D01*
X142344638Y-68576084D01*
X142345840Y-68572482D01*
X142446790Y-68269897D01*
X142446792Y-68269891D01*
X142447992Y-68266293D01*
X142513381Y-67946329D01*
X142517667Y-67893642D01*
X142531798Y-67719899D01*
X142539856Y-67620826D01*
X142540320Y-67576531D01*
X142540428Y-67566221D01*
X142540428Y-67566214D01*
X142540451Y-67564000D01*
X142538510Y-67531796D01*
X142521026Y-67241793D01*
X142521026Y-67241789D01*
X142520798Y-67238015D01*
X142515650Y-67209824D01*
X142462805Y-66920473D01*
X142462804Y-66920469D01*
X142462125Y-66916751D01*
X142454722Y-66892907D01*
X142366404Y-66608477D01*
X142365282Y-66604863D01*
X142231670Y-66306869D01*
X142063226Y-66027084D01*
X142060899Y-66024100D01*
X142060894Y-66024093D01*
X141864726Y-65772558D01*
X141864724Y-65772556D01*
X141862390Y-65769563D01*
X141632070Y-65538034D01*
X141375603Y-65335852D01*
X141096705Y-65165945D01*
X141093261Y-65164379D01*
X141093257Y-65164377D01*
X140982667Y-65114095D01*
X140799414Y-65030775D01*
X140488037Y-64932300D01*
X140270492Y-64891390D01*
X140170809Y-64872645D01*
X140170807Y-64872645D01*
X140167086Y-64871945D01*
X139841208Y-64850586D01*
X139837428Y-64850794D01*
X139837427Y-64850794D01*
X139739897Y-64856162D01*
X139515124Y-64868532D01*
X139511397Y-64869193D01*
X139511393Y-64869193D01*
X139354341Y-64897027D01*
X139193557Y-64925522D01*
X139189941Y-64926624D01*
X139189933Y-64926626D01*
X138884789Y-65019627D01*
X138881167Y-65020731D01*
X138582477Y-65152781D01*
X138557041Y-65167914D01*
X138305074Y-65317817D01*
X138305068Y-65317821D01*
X138301814Y-65319757D01*
X138043244Y-65519243D01*
X138040534Y-65521911D01*
X137843530Y-65715845D01*
X137810513Y-65748347D01*
X137808149Y-65751314D01*
X137808146Y-65751317D01*
X137645470Y-65955463D01*
X137606991Y-66003751D01*
X137435626Y-66281757D01*
X137434037Y-66285204D01*
X137310351Y-66553502D01*
X137298902Y-66578336D01*
X137297741Y-66581940D01*
X137297741Y-66581941D01*
X137289784Y-66606651D01*
X137198797Y-66889192D01*
X137198079Y-66892903D01*
X137198078Y-66892907D01*
X137137482Y-67206105D01*
X137137481Y-67206114D01*
X137136763Y-67209824D01*
X137136496Y-67213600D01*
X137136495Y-67213605D01*
X137123953Y-67390746D01*
X137113698Y-67535585D01*
X135858500Y-67535585D01*
X135858500Y-66277031D01*
X135878502Y-66208910D01*
X135895405Y-66187936D01*
X138287937Y-63795405D01*
X138350249Y-63761379D01*
X138377032Y-63758500D01*
X138489134Y-63758500D01*
X138492531Y-63758131D01*
X138495928Y-63757947D01*
X138496014Y-63759535D01*
G37*
%TD.AperFunction*%
%TA.AperFunction,Conductor*%
G36*
X121052420Y-68150621D02*
G01*
X121089325Y-68176290D01*
X121096086Y-68183074D01*
X121101660Y-68187261D01*
X121149250Y-68223012D01*
X121149254Y-68223014D01*
X121152850Y-68225716D01*
X121156797Y-68227880D01*
X121158298Y-68228848D01*
X121204701Y-68282582D01*
X121215999Y-68334731D01*
X121216000Y-68590500D01*
X121195998Y-68658620D01*
X121142343Y-68705113D01*
X121090000Y-68716500D01*
X120910001Y-68716500D01*
X120841880Y-68696498D01*
X120795387Y-68642842D01*
X120784001Y-68590500D01*
X120784000Y-68332363D01*
X120804002Y-68264243D01*
X120841879Y-68226365D01*
X120850247Y-68220987D01*
X120883112Y-68199866D01*
X120917567Y-68170010D01*
X120982146Y-68140518D01*
X121052420Y-68150621D01*
G37*
%TD.AperFunction*%
%TA.AperFunction,Conductor*%
G36*
X121158120Y-66553502D02*
G01*
X121204613Y-66607158D01*
X121215999Y-66659500D01*
X121216000Y-66917637D01*
X121195998Y-66985757D01*
X121158121Y-67023635D01*
X121116888Y-67050134D01*
X121063232Y-67096627D01*
X121060364Y-67099937D01*
X120998076Y-67133950D01*
X120927261Y-67128885D01*
X120894250Y-67109133D01*
X120893656Y-67109915D01*
X120890071Y-67107191D01*
X120886691Y-67104220D01*
X120870556Y-67093687D01*
X120803125Y-67049669D01*
X120757016Y-66995683D01*
X120746000Y-66944160D01*
X120746000Y-66674772D01*
X120766002Y-66606651D01*
X120771175Y-66599206D01*
X120782621Y-66583934D01*
X120839480Y-66541419D01*
X120883446Y-66533500D01*
X121089999Y-66533500D01*
X121158120Y-66553502D01*
G37*
%TD.AperFunction*%
%TA.AperFunction,Conductor*%
G36*
X123043988Y-60026118D02*
G01*
X123089078Y-60055040D01*
X123114947Y-60080864D01*
X123259308Y-60169849D01*
X123266256Y-60172154D01*
X123266257Y-60172154D01*
X123413738Y-60221072D01*
X123413740Y-60221072D01*
X123420269Y-60223238D01*
X123520428Y-60233500D01*
X123822905Y-60233500D01*
X123891026Y-60253502D01*
X123912001Y-60270405D01*
X124494114Y-60852519D01*
X124528139Y-60914831D01*
X124523074Y-60985647D01*
X124480527Y-61042482D01*
X124459261Y-61055340D01*
X124404332Y-61081539D01*
X124399524Y-61083710D01*
X124322891Y-61116397D01*
X124307890Y-61126251D01*
X124292975Y-61134654D01*
X124276782Y-61142378D01*
X124272234Y-61145646D01*
X124272229Y-61145649D01*
X124209114Y-61191002D01*
X124204777Y-61193982D01*
X124135125Y-61239735D01*
X124114344Y-61258251D01*
X124104048Y-61266500D01*
X124094346Y-61273471D01*
X124090441Y-61277501D01*
X124019968Y-61350223D01*
X124018579Y-61351633D01*
X123969802Y-61400410D01*
X123963128Y-61408392D01*
X123956960Y-61415242D01*
X123938008Y-61434799D01*
X123929245Y-61447840D01*
X123921332Y-61458378D01*
X123892984Y-61492283D01*
X123862406Y-61528854D01*
X123751101Y-61723993D01*
X123749232Y-61729270D01*
X123749230Y-61729275D01*
X123700351Y-61867306D01*
X123676111Y-61935759D01*
X123675204Y-61941298D01*
X123660756Y-62029526D01*
X123625507Y-62098259D01*
X123569171Y-62154595D01*
X123506859Y-62188621D01*
X123480076Y-62191500D01*
X123409265Y-62191500D01*
X123341144Y-62171498D01*
X123294651Y-62117842D01*
X123287368Y-62097392D01*
X123259507Y-61990901D01*
X123258737Y-61987958D01*
X123224509Y-61894931D01*
X123211191Y-61867306D01*
X123204807Y-61854064D01*
X123204805Y-61854061D01*
X123203481Y-61851314D01*
X123201898Y-61848708D01*
X123201893Y-61848699D01*
X123155931Y-61773042D01*
X123152008Y-61766584D01*
X123048660Y-61663235D01*
X122991824Y-61620688D01*
X122863545Y-61550643D01*
X122854743Y-61548728D01*
X122854740Y-61548727D01*
X122725128Y-61520531D01*
X122725125Y-61520531D01*
X122720728Y-61519574D01*
X122649913Y-61514509D01*
X122645426Y-61514830D01*
X122513108Y-61524295D01*
X122504120Y-61524938D01*
X122495677Y-61528087D01*
X122486871Y-61530003D01*
X122486122Y-61526560D01*
X122432164Y-61530394D01*
X122369868Y-61496341D01*
X122335871Y-61434013D01*
X122333213Y-61400772D01*
X122333500Y-61398134D01*
X122333500Y-60914594D01*
X122353502Y-60846473D01*
X122370405Y-60825499D01*
X122604747Y-60591157D01*
X122613037Y-60583613D01*
X122619518Y-60579500D01*
X122666159Y-60529832D01*
X122668913Y-60526991D01*
X122688635Y-60507269D01*
X122691112Y-60504076D01*
X122698817Y-60495055D01*
X122723659Y-60468600D01*
X122729086Y-60462821D01*
X122732907Y-60455871D01*
X122738846Y-60445068D01*
X122749702Y-60428541D01*
X122757257Y-60418802D01*
X122757258Y-60418800D01*
X122762114Y-60412540D01*
X122779674Y-60371960D01*
X122784891Y-60361312D01*
X122802375Y-60329509D01*
X122802376Y-60329507D01*
X122806195Y-60322560D01*
X122811233Y-60302937D01*
X122817637Y-60284234D01*
X122822533Y-60272920D01*
X122822533Y-60272919D01*
X122825681Y-60265645D01*
X122826920Y-60257822D01*
X122826923Y-60257812D01*
X122832599Y-60221976D01*
X122835005Y-60210356D01*
X122844028Y-60175212D01*
X122844028Y-60175209D01*
X122846000Y-60167530D01*
X122846000Y-60159600D01*
X122846415Y-60156315D01*
X122874797Y-60091238D01*
X122886158Y-60080176D01*
X122886054Y-60080072D01*
X122895558Y-60070551D01*
X122910887Y-60055195D01*
X122973168Y-60021116D01*
X123043988Y-60026118D01*
G37*
%TD.AperFunction*%
%TA.AperFunction,Conductor*%
G36*
X136875799Y-40163539D02*
G01*
X136922292Y-40217195D01*
X136932396Y-40287469D01*
X136902902Y-40352049D01*
X136884644Y-40369298D01*
X136773244Y-40455243D01*
X136540513Y-40684347D01*
X136336991Y-40939751D01*
X136165626Y-41217757D01*
X136028902Y-41514336D01*
X135928797Y-41825192D01*
X135928079Y-41828903D01*
X135928078Y-41828907D01*
X135867482Y-42142105D01*
X135867481Y-42142114D01*
X135866763Y-42145824D01*
X135866496Y-42149600D01*
X135866495Y-42149605D01*
X135851993Y-42354424D01*
X135843698Y-42471585D01*
X135859936Y-42797759D01*
X135860577Y-42801490D01*
X135860578Y-42801498D01*
X135875109Y-42886060D01*
X135915241Y-43119619D01*
X136008814Y-43432504D01*
X136139297Y-43731881D01*
X136141220Y-43735152D01*
X136141222Y-43735156D01*
X136183584Y-43807215D01*
X136304802Y-44013414D01*
X136307103Y-44016429D01*
X136500631Y-44270012D01*
X136500636Y-44270017D01*
X136502931Y-44273025D01*
X136730814Y-44506953D01*
X136803635Y-44565607D01*
X136982196Y-44709431D01*
X136982201Y-44709435D01*
X136985149Y-44711809D01*
X137262253Y-44884627D01*
X137558112Y-45022903D01*
X137561721Y-45024086D01*
X137822979Y-45109731D01*
X137868440Y-45124634D01*
X138188742Y-45188346D01*
X138192514Y-45188633D01*
X138192522Y-45188634D01*
X138510602Y-45212829D01*
X138510607Y-45212829D01*
X138514379Y-45213116D01*
X138840633Y-45198586D01*
X138900425Y-45188634D01*
X139159037Y-45145590D01*
X139159042Y-45145589D01*
X139162778Y-45144967D01*
X139476149Y-45053034D01*
X139479616Y-45051544D01*
X139479620Y-45051543D01*
X139772721Y-44925616D01*
X139772723Y-44925615D01*
X139776205Y-44924119D01*
X140058601Y-44760091D01*
X140319245Y-44563324D01*
X140554363Y-44336670D01*
X140760549Y-44083410D01*
X140934815Y-43807215D01*
X141074638Y-43512084D01*
X141101188Y-43432504D01*
X141176790Y-43205897D01*
X141176792Y-43205891D01*
X141177992Y-43202293D01*
X141243381Y-42882329D01*
X141249956Y-42801498D01*
X141269674Y-42559061D01*
X141269856Y-42556826D01*
X141270451Y-42500000D01*
X141268510Y-42467796D01*
X141251026Y-42177793D01*
X141251026Y-42177789D01*
X141250798Y-42174015D01*
X141245650Y-42145824D01*
X141204006Y-41917803D01*
X141211444Y-41847197D01*
X141255874Y-41791821D01*
X141323189Y-41769256D01*
X141392018Y-41786667D01*
X141405291Y-41795691D01*
X141562358Y-41917803D01*
X141691181Y-42017957D01*
X141695530Y-42021496D01*
X142351667Y-42580174D01*
X142355833Y-42583883D01*
X142986476Y-43171209D01*
X142990493Y-43175121D01*
X143317938Y-43508482D01*
X143540589Y-43735156D01*
X143594371Y-43789910D01*
X143598201Y-43793987D01*
X144174165Y-44435072D01*
X144177796Y-44439300D01*
X144680470Y-45051543D01*
X144724623Y-45105320D01*
X144728079Y-45109725D01*
X145244779Y-45799473D01*
X145248008Y-45803991D01*
X145502085Y-46176629D01*
X145733478Y-46515999D01*
X145736533Y-46520700D01*
X145905711Y-46794220D01*
X145924533Y-46862676D01*
X145903358Y-46930441D01*
X145848907Y-46976001D01*
X145798552Y-46986500D01*
X134654000Y-46986500D01*
X134650654Y-46986860D01*
X134650649Y-46986860D01*
X134548215Y-46997872D01*
X134548208Y-46997873D01*
X134544851Y-46998234D01*
X134541551Y-46998952D01*
X134541550Y-46998952D01*
X134495790Y-47008906D01*
X134495785Y-47008907D01*
X134492509Y-47009620D01*
X134388343Y-47044290D01*
X134265388Y-47123308D01*
X134211732Y-47169801D01*
X134208792Y-47173194D01*
X134121919Y-47273450D01*
X134121917Y-47273453D01*
X134116018Y-47280261D01*
X134055302Y-47413210D01*
X134035300Y-47481331D01*
X134034660Y-47485780D01*
X134034659Y-47485786D01*
X134015139Y-47621553D01*
X134014500Y-47626000D01*
X134014500Y-51496409D01*
X134014492Y-51497820D01*
X133999817Y-52808134D01*
X133991202Y-53577346D01*
X133989231Y-53753332D01*
X133986558Y-53991893D01*
X133986541Y-54001574D01*
X133986577Y-54006279D01*
X133986740Y-54015859D01*
X134019260Y-55251640D01*
X134020685Y-55305775D01*
X134071389Y-57232500D01*
X134084781Y-57741392D01*
X134090181Y-57946607D01*
X134090368Y-57948652D01*
X134094412Y-57992912D01*
X134080692Y-58062570D01*
X134031489Y-58113752D01*
X133962426Y-58130209D01*
X133902819Y-58111637D01*
X133858709Y-58084447D01*
X133845532Y-58078303D01*
X133698157Y-58029421D01*
X133684790Y-58026555D01*
X133595300Y-58017386D01*
X133581376Y-58021475D01*
X133580171Y-58022865D01*
X133578500Y-58030548D01*
X133578500Y-59128000D01*
X133558498Y-59196121D01*
X133504842Y-59242614D01*
X133452500Y-59254000D01*
X132397115Y-59254000D01*
X132381876Y-59258475D01*
X132380671Y-59259865D01*
X132379000Y-59267548D01*
X132379000Y-59301266D01*
X132379337Y-59307782D01*
X132388804Y-59399021D01*
X132391697Y-59412417D01*
X132440830Y-59559687D01*
X132447004Y-59572866D01*
X132528470Y-59704514D01*
X132537506Y-59715915D01*
X132647080Y-59825298D01*
X132658493Y-59834312D01*
X132666490Y-59839241D01*
X132713983Y-59892013D01*
X132725405Y-59962085D01*
X132697131Y-60027208D01*
X132638137Y-60066708D01*
X132600373Y-60072500D01*
X131099888Y-60072500D01*
X131031767Y-60052498D01*
X130985274Y-59998842D01*
X130975170Y-59928568D01*
X131004664Y-59863988D01*
X131020589Y-59848584D01*
X131128867Y-59760902D01*
X131388902Y-59500867D01*
X131620332Y-59215075D01*
X131714717Y-59069734D01*
X131818822Y-58909426D01*
X131818824Y-58909423D01*
X131820620Y-58906657D01*
X131852537Y-58844018D01*
X131911710Y-58727885D01*
X132379000Y-58727885D01*
X132383475Y-58743124D01*
X132384865Y-58744329D01*
X132392548Y-58746000D01*
X133052385Y-58746000D01*
X133067624Y-58741525D01*
X133068829Y-58740135D01*
X133070500Y-58732452D01*
X133070500Y-58035115D01*
X133066025Y-58019876D01*
X133064635Y-58018671D01*
X133057679Y-58017158D01*
X133054218Y-58017337D01*
X132962979Y-58026804D01*
X132949583Y-58029697D01*
X132802313Y-58078830D01*
X132789134Y-58085004D01*
X132657486Y-58166470D01*
X132646085Y-58175506D01*
X132536702Y-58285080D01*
X132527690Y-58296491D01*
X132446447Y-58428291D01*
X132440303Y-58441468D01*
X132391421Y-58588843D01*
X132388555Y-58602210D01*
X132379328Y-58692270D01*
X132379000Y-58698685D01*
X132379000Y-58727885D01*
X131911710Y-58727885D01*
X131986075Y-58581934D01*
X131987573Y-58578994D01*
X132068098Y-58369218D01*
X132118175Y-58238764D01*
X132118176Y-58238762D01*
X132119361Y-58235674D01*
X132214541Y-57880459D01*
X132254085Y-57630789D01*
X132271555Y-57520489D01*
X132271556Y-57520481D01*
X132272069Y-57517241D01*
X132291315Y-57150000D01*
X132272069Y-56782759D01*
X132271396Y-56778505D01*
X132240927Y-56586134D01*
X132214541Y-56419541D01*
X132119361Y-56064326D01*
X132110044Y-56040053D01*
X131988757Y-55724091D01*
X131987573Y-55721006D01*
X131855093Y-55461000D01*
X131822119Y-55396284D01*
X131822115Y-55396277D01*
X131820620Y-55393343D01*
X131780564Y-55331661D01*
X131622134Y-55087700D01*
X131620332Y-55084925D01*
X131388902Y-54799133D01*
X131128867Y-54539098D01*
X130843075Y-54307668D01*
X130534658Y-54107380D01*
X130531724Y-54105885D01*
X130531717Y-54105881D01*
X130422406Y-54050185D01*
X130403921Y-54040766D01*
X130352307Y-53992019D01*
X130335241Y-53923104D01*
X130358142Y-53855902D01*
X130413739Y-53811750D01*
X130461125Y-53802500D01*
X130782000Y-53802499D01*
X130792746Y-53802499D01*
X130829937Y-53799573D01*
X130968252Y-53759389D01*
X130981487Y-53755544D01*
X130981489Y-53755543D01*
X130989100Y-53753332D01*
X130995925Y-53749296D01*
X130995929Y-53749294D01*
X131000355Y-53746677D01*
X131069171Y-53729219D01*
X131128628Y-53746677D01*
X131132276Y-53748834D01*
X131146713Y-53755082D01*
X131277605Y-53793109D01*
X131291705Y-53793069D01*
X131295000Y-53785799D01*
X131295000Y-53780048D01*
X131803000Y-53780048D01*
X131806973Y-53793579D01*
X131814871Y-53794714D01*
X131951287Y-53755082D01*
X131965724Y-53748834D01*
X132094627Y-53672601D01*
X132107065Y-53662952D01*
X132212952Y-53557065D01*
X132222601Y-53544627D01*
X132298834Y-53415724D01*
X132305082Y-53401287D01*
X132347279Y-53256043D01*
X132349229Y-53245365D01*
X132346205Y-53230969D01*
X132334742Y-53228000D01*
X131821115Y-53228000D01*
X131805876Y-53232475D01*
X131804671Y-53233865D01*
X131803000Y-53241548D01*
X131803000Y-53780048D01*
X131295000Y-53780048D01*
X131295000Y-53508386D01*
X131312547Y-53444247D01*
X131329294Y-53415929D01*
X131329296Y-53415925D01*
X131333332Y-53409100D01*
X131345903Y-53365832D01*
X131359929Y-53317553D01*
X131379573Y-53249937D01*
X131380077Y-53243532D01*
X131380078Y-53243527D01*
X131382307Y-53215203D01*
X131382307Y-53215195D01*
X131382500Y-53212747D01*
X131382499Y-53013534D01*
X131402501Y-52945414D01*
X131451296Y-52901267D01*
X131478619Y-52887346D01*
X131478622Y-52887344D01*
X131482324Y-52885458D01*
X131593704Y-52808714D01*
X131642500Y-52764568D01*
X131645192Y-52761393D01*
X131648090Y-52758401D01*
X131649672Y-52759934D01*
X131701450Y-52725617D01*
X131738650Y-52720000D01*
X132332681Y-52720000D01*
X132347476Y-52715656D01*
X132349508Y-52704160D01*
X132347279Y-52691957D01*
X132305082Y-52546713D01*
X132298834Y-52532276D01*
X132222601Y-52403373D01*
X132212952Y-52390935D01*
X132148046Y-52326029D01*
X132114020Y-52263717D01*
X132119085Y-52192902D01*
X132157505Y-52139291D01*
X132241286Y-52070960D01*
X132246062Y-52067065D01*
X132311621Y-51987818D01*
X132368201Y-51919425D01*
X132368203Y-51919421D01*
X132372130Y-51914675D01*
X132466198Y-51740701D01*
X132524682Y-51551768D01*
X132530427Y-51497106D01*
X132544711Y-51361204D01*
X132544711Y-51361202D01*
X132545355Y-51355075D01*
X132527430Y-51158112D01*
X132525690Y-51152199D01*
X132503880Y-51078092D01*
X132503836Y-51007095D01*
X132542182Y-50947345D01*
X132573505Y-50927411D01*
X132666763Y-50885890D01*
X132677507Y-50876758D01*
X132675910Y-50871120D01*
X132211169Y-50406379D01*
X132177143Y-50344067D01*
X132177033Y-50297545D01*
X132176365Y-50297475D01*
X132176406Y-50297085D01*
X132177540Y-50286303D01*
X132194539Y-50124565D01*
X132195110Y-50119132D01*
X132646408Y-50119132D01*
X132646539Y-50120965D01*
X132650790Y-50127580D01*
X133028767Y-50505557D01*
X133041147Y-50512317D01*
X133048062Y-50507141D01*
X133066835Y-50474625D01*
X133072181Y-50462617D01*
X133123833Y-50303650D01*
X133126563Y-50290807D01*
X133144036Y-50124565D01*
X133144036Y-50111435D01*
X133126563Y-49945193D01*
X133123833Y-49932350D01*
X133072181Y-49773383D01*
X133066835Y-49761375D01*
X133050637Y-49733320D01*
X133040431Y-49723589D01*
X133032410Y-49726800D01*
X132654022Y-50105188D01*
X132646408Y-50119132D01*
X132195110Y-50119132D01*
X132195229Y-50118000D01*
X132188861Y-50057417D01*
X132177055Y-49945086D01*
X132177054Y-49945082D01*
X132176365Y-49938525D01*
X132177515Y-49938404D01*
X132182419Y-49874123D01*
X132211169Y-49829621D01*
X132609978Y-49430812D01*
X132617592Y-49416868D01*
X132617461Y-49415035D01*
X132613210Y-49408420D01*
X132211169Y-49006379D01*
X132177143Y-48944067D01*
X132177033Y-48897545D01*
X132176365Y-48897475D01*
X132177018Y-48891258D01*
X132179305Y-48869510D01*
X132194539Y-48724565D01*
X132195110Y-48719132D01*
X132646408Y-48719132D01*
X132646539Y-48720965D01*
X132650790Y-48727580D01*
X133028767Y-49105557D01*
X133041147Y-49112317D01*
X133048062Y-49107141D01*
X133066835Y-49074625D01*
X133072181Y-49062617D01*
X133123833Y-48903650D01*
X133126563Y-48890807D01*
X133144036Y-48724565D01*
X133144036Y-48711435D01*
X133126563Y-48545193D01*
X133123833Y-48532350D01*
X133072181Y-48373383D01*
X133066835Y-48361375D01*
X133050637Y-48333320D01*
X133040431Y-48323589D01*
X133032410Y-48326800D01*
X132654022Y-48705188D01*
X132646408Y-48719132D01*
X132195110Y-48719132D01*
X132195229Y-48718000D01*
X132190405Y-48672107D01*
X132177055Y-48545086D01*
X132177054Y-48545082D01*
X132176365Y-48538525D01*
X132177515Y-48538404D01*
X132182419Y-48474123D01*
X132211169Y-48429621D01*
X132670500Y-47970290D01*
X132677260Y-47957910D01*
X132673749Y-47953220D01*
X132573805Y-47908722D01*
X132519709Y-47862741D01*
X132499060Y-47794814D01*
X132504689Y-47756356D01*
X132522860Y-47697653D01*
X132524682Y-47691768D01*
X132531122Y-47630496D01*
X132544711Y-47501204D01*
X132544711Y-47501202D01*
X132545355Y-47495075D01*
X132527430Y-47298112D01*
X132522177Y-47280261D01*
X132488801Y-47166861D01*
X132471590Y-47108381D01*
X132440311Y-47048549D01*
X132419585Y-47008906D01*
X132379960Y-46933110D01*
X132256032Y-46778975D01*
X132104526Y-46651846D01*
X132099128Y-46648879D01*
X132099123Y-46648875D01*
X131936608Y-46559533D01*
X131936609Y-46559533D01*
X131931213Y-46556567D01*
X131925346Y-46554706D01*
X131925344Y-46554705D01*
X131919401Y-46552820D01*
X131860517Y-46513156D01*
X131832425Y-46447954D01*
X131831500Y-46432718D01*
X131831500Y-40269537D01*
X131851502Y-40201416D01*
X131905158Y-40154923D01*
X131957500Y-40143537D01*
X136807678Y-40143537D01*
X136875799Y-40163539D01*
G37*
%TD.AperFunction*%
%TA.AperFunction,Conductor*%
G36*
X129756714Y-53347020D02*
G01*
X129813550Y-53389567D01*
X129824459Y-53408381D01*
X129824668Y-53409100D01*
X129828700Y-53415918D01*
X129828701Y-53415920D01*
X129861078Y-53470667D01*
X129909038Y-53551763D01*
X129944033Y-53586758D01*
X129978059Y-53649070D01*
X129972994Y-53719885D01*
X129930447Y-53776721D01*
X129863927Y-53801532D01*
X129822327Y-53797560D01*
X129756971Y-53780048D01*
X129508459Y-53713459D01*
X129315442Y-53682888D01*
X129148489Y-53656445D01*
X129148481Y-53656444D01*
X129145241Y-53655931D01*
X128778000Y-53636685D01*
X128410759Y-53655931D01*
X128407519Y-53656444D01*
X128407511Y-53656445D01*
X128240558Y-53682888D01*
X128047541Y-53713459D01*
X127692326Y-53808639D01*
X127689238Y-53809824D01*
X127689236Y-53809825D01*
X127650926Y-53824531D01*
X127349006Y-53940427D01*
X127346066Y-53941925D01*
X127024284Y-54105881D01*
X127024277Y-54105885D01*
X127021343Y-54107380D01*
X127018577Y-54109176D01*
X127018574Y-54109178D01*
X126883892Y-54196641D01*
X126712925Y-54307668D01*
X126427133Y-54539098D01*
X126167098Y-54799133D01*
X125935668Y-55084925D01*
X125933866Y-55087700D01*
X125775437Y-55331661D01*
X125735380Y-55393343D01*
X125733885Y-55396277D01*
X125733881Y-55396284D01*
X125700907Y-55461000D01*
X125568427Y-55721006D01*
X125567243Y-55724091D01*
X125445957Y-56040053D01*
X125436639Y-56064326D01*
X125341459Y-56419541D01*
X125315073Y-56586134D01*
X125284605Y-56778505D01*
X125283931Y-56782759D01*
X125264685Y-57150000D01*
X125283931Y-57517241D01*
X125284444Y-57520481D01*
X125284445Y-57520489D01*
X125301915Y-57630789D01*
X125341459Y-57880459D01*
X125436639Y-58235674D01*
X125437824Y-58238762D01*
X125437825Y-58238764D01*
X125487902Y-58369218D01*
X125568427Y-58578994D01*
X125569925Y-58581934D01*
X125703464Y-58844018D01*
X125735380Y-58906657D01*
X125737176Y-58909423D01*
X125737178Y-58909426D01*
X125841283Y-59069734D01*
X125935668Y-59215075D01*
X126167098Y-59500867D01*
X126427133Y-59760902D01*
X126535408Y-59848581D01*
X126575758Y-59906994D01*
X126578124Y-59977951D01*
X126541751Y-60038923D01*
X126478188Y-60070551D01*
X126456112Y-60072500D01*
X125558095Y-60072500D01*
X125489974Y-60052498D01*
X125468999Y-60035595D01*
X124770404Y-59336999D01*
X124736379Y-59274687D01*
X124733500Y-59247904D01*
X124733500Y-58945428D01*
X124722978Y-58844018D01*
X124669308Y-58683151D01*
X124580071Y-58538945D01*
X124460053Y-58419136D01*
X124315692Y-58330151D01*
X124308743Y-58327846D01*
X124161262Y-58278928D01*
X124161260Y-58278928D01*
X124154731Y-58276762D01*
X124054572Y-58266500D01*
X123633499Y-58266500D01*
X123565378Y-58246498D01*
X123518885Y-58192842D01*
X123508781Y-58122568D01*
X123512502Y-58105347D01*
X123533779Y-58032114D01*
X123533780Y-58032109D01*
X123535573Y-58025937D01*
X123536077Y-58019532D01*
X123536078Y-58019527D01*
X123538307Y-57991203D01*
X123538307Y-57991195D01*
X123538500Y-57988747D01*
X123538499Y-57511254D01*
X123535573Y-57474063D01*
X123489332Y-57314900D01*
X123404962Y-57172237D01*
X123287763Y-57055038D01*
X123247430Y-57031185D01*
X123151923Y-56974703D01*
X123145100Y-56970668D01*
X123137489Y-56968457D01*
X123137487Y-56968456D01*
X123077192Y-56950939D01*
X122985937Y-56924427D01*
X122979532Y-56923923D01*
X122979527Y-56923922D01*
X122951203Y-56921693D01*
X122951195Y-56921693D01*
X122948747Y-56921500D01*
X122735130Y-56921500D01*
X122521254Y-56921501D01*
X122484063Y-56924427D01*
X122392808Y-56950939D01*
X122332513Y-56968456D01*
X122332511Y-56968457D01*
X122324900Y-56970668D01*
X122318075Y-56974704D01*
X122318071Y-56974706D01*
X122313645Y-56977323D01*
X122244829Y-56994781D01*
X122185372Y-56977323D01*
X122181724Y-56975166D01*
X122167287Y-56968918D01*
X122022043Y-56926721D01*
X122009430Y-56924417D01*
X121994869Y-56923271D01*
X121928528Y-56897985D01*
X121886389Y-56840846D01*
X121881831Y-56769996D01*
X121916302Y-56707929D01*
X121937470Y-56691132D01*
X122025432Y-56635584D01*
X122079455Y-56589519D01*
X122176044Y-56479821D01*
X122237813Y-56347358D01*
X122240084Y-56339846D01*
X122257053Y-56283706D01*
X122257053Y-56283704D01*
X122258355Y-56279398D01*
X122280303Y-56134898D01*
X122280833Y-56068182D01*
X122301449Y-53470500D01*
X122321991Y-53402540D01*
X122376014Y-53356475D01*
X122427445Y-53345500D01*
X129631471Y-53345500D01*
X129649797Y-53345173D01*
X129650267Y-53345156D01*
X129650314Y-53345155D01*
X129654815Y-53344994D01*
X129658786Y-53344852D01*
X129659285Y-53344825D01*
X129659291Y-53344825D01*
X129672041Y-53344142D01*
X129672044Y-53344142D01*
X129677095Y-53343871D01*
X129685898Y-53341956D01*
X129756714Y-53347020D01*
G37*
%TD.AperFunction*%
%TA.AperFunction,Conductor*%
G36*
X120840614Y-57031185D02*
G01*
X120853579Y-57038754D01*
X120853590Y-57038760D01*
X120856698Y-57040574D01*
X120859995Y-57042022D01*
X120860004Y-57042026D01*
X120880455Y-57051004D01*
X120909183Y-57063616D01*
X120912634Y-57064680D01*
X120912638Y-57064681D01*
X121013786Y-57095853D01*
X121013787Y-57095853D01*
X121021545Y-57098244D01*
X121123530Y-57102470D01*
X121163086Y-57104109D01*
X121163087Y-57104109D01*
X121167577Y-57104295D01*
X121202893Y-57100702D01*
X121233738Y-57097564D01*
X121233740Y-57097564D01*
X121238209Y-57097109D01*
X121360538Y-57066630D01*
X121431473Y-57069569D01*
X121489559Y-57110393D01*
X121516353Y-57176139D01*
X121517000Y-57188892D01*
X121517000Y-57380460D01*
X121496998Y-57448581D01*
X121443342Y-57495074D01*
X121373068Y-57505178D01*
X121347034Y-57498540D01*
X121285385Y-57475586D01*
X121281163Y-57474014D01*
X121211780Y-57458961D01*
X121207299Y-57458643D01*
X121207292Y-57458642D01*
X121074977Y-57449253D01*
X121065986Y-57448615D01*
X121057180Y-57450536D01*
X121057177Y-57450536D01*
X120927582Y-57478804D01*
X120927580Y-57478805D01*
X120923186Y-57479763D01*
X120918979Y-57481335D01*
X120918975Y-57481336D01*
X120860887Y-57503039D01*
X120856680Y-57504611D01*
X120852742Y-57506764D01*
X120848636Y-57508642D01*
X120848251Y-57507801D01*
X120792678Y-57522000D01*
X120141000Y-57522000D01*
X120072879Y-57501998D01*
X120026386Y-57448342D01*
X120015000Y-57396000D01*
X120015000Y-57140000D01*
X120035002Y-57071879D01*
X120088658Y-57025386D01*
X120141000Y-57014000D01*
X120777090Y-57014000D01*
X120840614Y-57031185D01*
G37*
%TD.AperFunction*%
%TA.AperFunction,Conductor*%
G36*
X138508121Y-51858002D02*
G01*
X138554614Y-51911658D01*
X138566000Y-51964000D01*
X138566000Y-53214000D01*
X138545998Y-53282121D01*
X138492342Y-53328614D01*
X138440000Y-53340000D01*
X138184000Y-53340000D01*
X138115879Y-53319998D01*
X138069386Y-53266342D01*
X138058000Y-53214000D01*
X138058000Y-52334475D01*
X138078002Y-52266354D01*
X138094827Y-52245457D01*
X138098855Y-52241422D01*
X138104567Y-52235700D01*
X138107252Y-52232107D01*
X138107257Y-52232101D01*
X138137171Y-52192066D01*
X138147064Y-52178827D01*
X138168608Y-52139291D01*
X138212684Y-52058403D01*
X138216997Y-52050488D01*
X138241511Y-51937324D01*
X138275480Y-51874983D01*
X138337763Y-51840903D01*
X138364654Y-51838000D01*
X138440000Y-51838000D01*
X138508121Y-51858002D01*
G37*
%TD.AperFunction*%
%TA.AperFunction,Conductor*%
G36*
X139429334Y-51845939D02*
G01*
X139430194Y-51844586D01*
X139433992Y-51847001D01*
X139437606Y-51849680D01*
X139500080Y-51883409D01*
X139637266Y-51933835D01*
X139682788Y-51943511D01*
X139707827Y-51951648D01*
X139759483Y-51974646D01*
X139782298Y-51987818D01*
X139828052Y-52021061D01*
X139847626Y-52038686D01*
X139885460Y-52080705D01*
X139900944Y-52102016D01*
X139929217Y-52150987D01*
X139939930Y-52175049D01*
X139957403Y-52228824D01*
X139962880Y-52254590D01*
X139968791Y-52310829D01*
X139968791Y-52337171D01*
X139962880Y-52393410D01*
X139957403Y-52419176D01*
X139939930Y-52472951D01*
X139929217Y-52497013D01*
X139900944Y-52545984D01*
X139885460Y-52567295D01*
X139847626Y-52609314D01*
X139828052Y-52626940D01*
X139782299Y-52660182D01*
X139759488Y-52673352D01*
X139707831Y-52696351D01*
X139682781Y-52704490D01*
X139668782Y-52707465D01*
X139624782Y-52716817D01*
X139605330Y-52719389D01*
X139559403Y-52721850D01*
X139559389Y-52721851D01*
X139557712Y-52721941D01*
X139556042Y-52722121D01*
X139556036Y-52722121D01*
X139550105Y-52722759D01*
X139534467Y-52724440D01*
X139464600Y-52711834D01*
X139412638Y-52663456D01*
X139395000Y-52599162D01*
X139395000Y-52588902D01*
X139394663Y-52582387D01*
X139384744Y-52486795D01*
X139381850Y-52473396D01*
X139330412Y-52319215D01*
X139324238Y-52306036D01*
X139238937Y-52168190D01*
X139229901Y-52156790D01*
X139170499Y-52097492D01*
X139136419Y-52035210D01*
X139141422Y-51964390D01*
X139183919Y-51907517D01*
X139206066Y-51894218D01*
X139220951Y-51887245D01*
X139293975Y-51842057D01*
X139362428Y-51823220D01*
X139429334Y-51845939D01*
G37*
%TD.AperFunction*%
%TA.AperFunction,Conductor*%
G36*
X144580466Y-49518753D02*
G01*
X144635784Y-49530511D01*
X144660831Y-49538649D01*
X144704328Y-49558015D01*
X144712486Y-49561647D01*
X144735297Y-49574817D01*
X144781052Y-49608060D01*
X144800626Y-49625686D01*
X144838460Y-49667705D01*
X144853944Y-49689016D01*
X144882217Y-49737987D01*
X144892930Y-49762049D01*
X144899738Y-49783000D01*
X144910403Y-49815824D01*
X144915880Y-49841590D01*
X144921791Y-49897829D01*
X144921791Y-49924171D01*
X144915880Y-49980410D01*
X144910404Y-50006173D01*
X144899663Y-50039230D01*
X144892930Y-50059951D01*
X144882217Y-50084013D01*
X144858805Y-50124565D01*
X144853944Y-50132984D01*
X144838460Y-50154295D01*
X144800626Y-50196314D01*
X144781053Y-50213939D01*
X144740228Y-50243601D01*
X144735299Y-50247182D01*
X144712488Y-50260352D01*
X144660831Y-50283351D01*
X144635784Y-50291489D01*
X144581956Y-50302930D01*
X144580466Y-50303247D01*
X144554270Y-50306000D01*
X144497731Y-50306000D01*
X144471534Y-50303247D01*
X144391820Y-50286303D01*
X144375389Y-50281626D01*
X144368304Y-50279079D01*
X144368295Y-50279076D01*
X144366103Y-50278288D01*
X144330440Y-50268362D01*
X144328177Y-50267909D01*
X144328162Y-50267905D01*
X144315436Y-50265355D01*
X144252573Y-50232360D01*
X144219295Y-50177309D01*
X144216525Y-50167876D01*
X144215135Y-50166671D01*
X144207452Y-50165000D01*
X143010000Y-50165000D01*
X142941879Y-50144998D01*
X142895386Y-50091342D01*
X142884000Y-50039000D01*
X142884000Y-49783000D01*
X142904002Y-49714879D01*
X142957658Y-49668386D01*
X143010000Y-49657000D01*
X144202885Y-49657000D01*
X144218124Y-49652525D01*
X144219330Y-49651133D01*
X144219783Y-49649052D01*
X144253808Y-49586740D01*
X144308558Y-49554607D01*
X144337255Y-49546478D01*
X144350514Y-49544669D01*
X144350475Y-49544485D01*
X144471534Y-49518753D01*
X144497731Y-49516000D01*
X144554270Y-49516000D01*
X144580466Y-49518753D01*
G37*
%TD.AperFunction*%
%TA.AperFunction,Conductor*%
G36*
X139554466Y-48857753D02*
G01*
X139609784Y-48869511D01*
X139634831Y-48877649D01*
X139686486Y-48900647D01*
X139709299Y-48913819D01*
X139755054Y-48947063D01*
X139774626Y-48964685D01*
X139841721Y-49039202D01*
X139849264Y-49048423D01*
X139876333Y-49084906D01*
X139878809Y-49087548D01*
X139878812Y-49087551D01*
X139897176Y-49107141D01*
X139915534Y-49126726D01*
X139975523Y-49177560D01*
X140014561Y-49236859D01*
X140017256Y-49299947D01*
X140015203Y-49306138D01*
X140004500Y-49410599D01*
X140004500Y-49454631D01*
X139984498Y-49522752D01*
X139930842Y-49569245D01*
X139877301Y-49580625D01*
X139829885Y-49580173D01*
X139825434Y-49580770D01*
X139825430Y-49580770D01*
X139803090Y-49583765D01*
X139759518Y-49589607D01*
X139755187Y-49590834D01*
X139755182Y-49590835D01*
X139623227Y-49628218D01*
X139623225Y-49628219D01*
X139618900Y-49629444D01*
X139615466Y-49630973D01*
X139606671Y-49633750D01*
X139598975Y-49635832D01*
X139597304Y-49636284D01*
X139571158Y-49644917D01*
X139518843Y-49665429D01*
X139483072Y-49688418D01*
X139481428Y-49689474D01*
X139413307Y-49709475D01*
X139347192Y-49690735D01*
X139219758Y-49612184D01*
X139206577Y-49606037D01*
X139142010Y-49584621D01*
X139083651Y-49544190D01*
X139056414Y-49478626D01*
X139062032Y-49425521D01*
X139062259Y-49424833D01*
X139063972Y-49420670D01*
X139065847Y-49413252D01*
X139098679Y-49283323D01*
X139099780Y-49278966D01*
X139110120Y-49180590D01*
X139115597Y-49154824D01*
X139133070Y-49101049D01*
X139143783Y-49076987D01*
X139145147Y-49074625D01*
X139172057Y-49028014D01*
X139187540Y-49006705D01*
X139225374Y-48964686D01*
X139244948Y-48947060D01*
X139290703Y-48913817D01*
X139313514Y-48900647D01*
X139365169Y-48877649D01*
X139390216Y-48869511D01*
X139445534Y-48857753D01*
X139471730Y-48855000D01*
X139528270Y-48855000D01*
X139554466Y-48857753D01*
G37*
%TD.AperFunction*%
%TD*%
%TA.AperFunction,Conductor*%
%TO.N,12V*%
G36*
X146240982Y-47520002D02*
G01*
X146285079Y-47568701D01*
X147507566Y-49962917D01*
X147512550Y-49973959D01*
X147674614Y-50384582D01*
X147676542Y-50389803D01*
X147927516Y-51119172D01*
X147956943Y-51204690D01*
X147958646Y-51210022D01*
X148174547Y-51941782D01*
X148202517Y-52036583D01*
X148203980Y-52041985D01*
X148226750Y-52134072D01*
X148410826Y-52878535D01*
X148412051Y-52884007D01*
X148581479Y-53728951D01*
X148582459Y-53734471D01*
X148714130Y-54586125D01*
X148714863Y-54591684D01*
X148725577Y-54689685D01*
X148802899Y-55396982D01*
X148808513Y-55448339D01*
X148808997Y-55453909D01*
X148863883Y-56305214D01*
X148864443Y-56313899D01*
X148864679Y-56319492D01*
X148873125Y-56744329D01*
X148881809Y-57181080D01*
X148881796Y-57186687D01*
X148860578Y-58048197D01*
X148860315Y-58053798D01*
X148800791Y-58913501D01*
X148800279Y-58919085D01*
X148702569Y-59775269D01*
X148701810Y-59780824D01*
X148566101Y-60631844D01*
X148565095Y-60637360D01*
X148391663Y-61481476D01*
X148390413Y-61486942D01*
X148179592Y-62322540D01*
X148178102Y-62327934D01*
X147936163Y-63133842D01*
X147930323Y-63153295D01*
X147928592Y-63158628D01*
X147838816Y-63415562D01*
X147797463Y-63473272D01*
X147731475Y-63499464D01*
X147719868Y-63500000D01*
X139067990Y-63500000D01*
X138999869Y-63479998D01*
X138953376Y-63426342D01*
X138943901Y-63360442D01*
X138942745Y-63360316D01*
X138949131Y-63301531D01*
X138949500Y-63298134D01*
X138949500Y-63186032D01*
X138969502Y-63117911D01*
X138986405Y-63096937D01*
X139059805Y-63023537D01*
X139177470Y-62885280D01*
X139303220Y-62677643D01*
X139394155Y-62452571D01*
X139447935Y-62215856D01*
X139450375Y-62177086D01*
X139462860Y-61978642D01*
X139463178Y-61973588D01*
X139439489Y-61731998D01*
X139413060Y-61631969D01*
X139378773Y-61502193D01*
X139378771Y-61502187D01*
X139377481Y-61497305D01*
X139374303Y-61490166D01*
X139280802Y-61280163D01*
X139278746Y-61275545D01*
X139145826Y-61072422D01*
X138982454Y-60893505D01*
X138951291Y-60829714D01*
X138949500Y-60808544D01*
X138949500Y-60701866D01*
X138942745Y-60639684D01*
X138891615Y-60503295D01*
X138804261Y-60386739D01*
X138687705Y-60299385D01*
X138551316Y-60248255D01*
X138489134Y-60241500D01*
X136592866Y-60241500D01*
X136530684Y-60248255D01*
X136394295Y-60299385D01*
X136277739Y-60386739D01*
X136190385Y-60503295D01*
X136139255Y-60639684D01*
X136132500Y-60701866D01*
X136132500Y-61631969D01*
X136112498Y-61700090D01*
X136095595Y-61721064D01*
X134946226Y-62870433D01*
X134883914Y-62904459D01*
X134813099Y-62899394D01*
X134756263Y-62856847D01*
X134731175Y-62784653D01*
X134658977Y-60041109D01*
X134658977Y-60041107D01*
X134656971Y-59964885D01*
X135153500Y-59964885D01*
X135157975Y-59980124D01*
X135159365Y-59981329D01*
X135166321Y-59982842D01*
X135169782Y-59982663D01*
X135261021Y-59973196D01*
X135274417Y-59970303D01*
X135421687Y-59921170D01*
X135434866Y-59914996D01*
X135566514Y-59833530D01*
X135577915Y-59824494D01*
X135687298Y-59714920D01*
X135696310Y-59703509D01*
X135777553Y-59571709D01*
X135783697Y-59558532D01*
X135832579Y-59411157D01*
X135835445Y-59397790D01*
X135844672Y-59307730D01*
X135845000Y-59301315D01*
X135845000Y-59294669D01*
X136133001Y-59294669D01*
X136133371Y-59301490D01*
X136138895Y-59352352D01*
X136142521Y-59367604D01*
X136187676Y-59488054D01*
X136196214Y-59503649D01*
X136272715Y-59605724D01*
X136285276Y-59618285D01*
X136387351Y-59694786D01*
X136402946Y-59703324D01*
X136523394Y-59748478D01*
X136538649Y-59752105D01*
X136589514Y-59757631D01*
X136596328Y-59758000D01*
X137268885Y-59758000D01*
X137284124Y-59753525D01*
X137285329Y-59752135D01*
X137287000Y-59744452D01*
X137287000Y-59739884D01*
X137795000Y-59739884D01*
X137799475Y-59755123D01*
X137800865Y-59756328D01*
X137808548Y-59757999D01*
X138485669Y-59757999D01*
X138492490Y-59757629D01*
X138543352Y-59752105D01*
X138558604Y-59748479D01*
X138679054Y-59703324D01*
X138694649Y-59694786D01*
X138796724Y-59618285D01*
X138809285Y-59605724D01*
X138885786Y-59503649D01*
X138894324Y-59488054D01*
X138939478Y-59367606D01*
X138943105Y-59352351D01*
X138948631Y-59301486D01*
X138949000Y-59294672D01*
X138949000Y-58470048D01*
X138969002Y-58401927D01*
X139022658Y-58355434D01*
X139092932Y-58345330D01*
X139157512Y-58374824D01*
X139197257Y-58439566D01*
X139215993Y-58514712D01*
X139217778Y-58520626D01*
X139353786Y-58902579D01*
X139356129Y-58908263D01*
X139528764Y-59275131D01*
X139531653Y-59280565D01*
X139739260Y-59628829D01*
X139742668Y-59633959D01*
X139983277Y-59960312D01*
X139987165Y-59965079D01*
X140258457Y-60266380D01*
X140262807Y-60270760D01*
X140562211Y-60544153D01*
X140566949Y-60548073D01*
X140891609Y-60790950D01*
X140896715Y-60794394D01*
X141243532Y-61004434D01*
X141248928Y-61007351D01*
X141614596Y-61182551D01*
X141620263Y-61184933D01*
X142001261Y-61323604D01*
X142007149Y-61325426D01*
X142399860Y-61426258D01*
X142405883Y-61427494D01*
X142806585Y-61489526D01*
X142812672Y-61490166D01*
X142977912Y-61499405D01*
X142993356Y-61495793D01*
X142996000Y-61485086D01*
X142996000Y-61482979D01*
X143504000Y-61482979D01*
X143508475Y-61498218D01*
X143508800Y-61498500D01*
X143518872Y-61500471D01*
X143628762Y-61495865D01*
X143634888Y-61495308D01*
X144036399Y-61438879D01*
X144042452Y-61437724D01*
X144436537Y-61342385D01*
X144442434Y-61340649D01*
X144825331Y-61207310D01*
X144831044Y-61205002D01*
X145199104Y-61034935D01*
X145204558Y-61032083D01*
X145554269Y-60826909D01*
X145559417Y-60823540D01*
X145887448Y-60585212D01*
X145892218Y-60581377D01*
X146195440Y-60312163D01*
X146199820Y-60307875D01*
X146475317Y-60010365D01*
X146479262Y-60005663D01*
X146724401Y-59682703D01*
X146727879Y-59677625D01*
X146940332Y-59332287D01*
X146943297Y-59326894D01*
X147121034Y-58962479D01*
X147123460Y-58956820D01*
X147264792Y-58576789D01*
X147266650Y-58570932D01*
X147370225Y-58178915D01*
X147371500Y-58172915D01*
X147436326Y-57772669D01*
X147437013Y-57766548D01*
X147457874Y-57434955D01*
X147458000Y-57430964D01*
X147458000Y-57272115D01*
X147453525Y-57256876D01*
X147452135Y-57255671D01*
X147444452Y-57254000D01*
X143522115Y-57254000D01*
X143506876Y-57258475D01*
X143505671Y-57259865D01*
X143504000Y-57267548D01*
X143504000Y-61482979D01*
X142996000Y-61482979D01*
X142996000Y-56727885D01*
X143504000Y-56727885D01*
X143508475Y-56743124D01*
X143509865Y-56744329D01*
X143517548Y-56746000D01*
X147439885Y-56746000D01*
X147455124Y-56741525D01*
X147456329Y-56740135D01*
X147458000Y-56732452D01*
X147458000Y-56597784D01*
X147457925Y-56594691D01*
X147443118Y-56291949D01*
X147442517Y-56285825D01*
X147383290Y-55884737D01*
X147382090Y-55878675D01*
X147284007Y-55485289D01*
X147282222Y-55479374D01*
X147146214Y-55097421D01*
X147143871Y-55091737D01*
X146971236Y-54724869D01*
X146968347Y-54719435D01*
X146760740Y-54371171D01*
X146757332Y-54366041D01*
X146516723Y-54039688D01*
X146512835Y-54034921D01*
X146241543Y-53733620D01*
X146237193Y-53729240D01*
X145937789Y-53455847D01*
X145933051Y-53451927D01*
X145608391Y-53209050D01*
X145603285Y-53205606D01*
X145256468Y-52995566D01*
X145251072Y-52992649D01*
X144885404Y-52817449D01*
X144879737Y-52815067D01*
X144498739Y-52676396D01*
X144492851Y-52674574D01*
X144100140Y-52573742D01*
X144094117Y-52572506D01*
X143693415Y-52510474D01*
X143687328Y-52509834D01*
X143522088Y-52500595D01*
X143506644Y-52504207D01*
X143504000Y-52514914D01*
X143504000Y-56727885D01*
X142996000Y-56727885D01*
X142996000Y-52517021D01*
X142991525Y-52501782D01*
X142991200Y-52501500D01*
X142981128Y-52499529D01*
X142871238Y-52504135D01*
X142865112Y-52504692D01*
X142463601Y-52561121D01*
X142457548Y-52562276D01*
X142063463Y-52657615D01*
X142057566Y-52659351D01*
X141674669Y-52792690D01*
X141668956Y-52794998D01*
X141300896Y-52965065D01*
X141295442Y-52967917D01*
X140945731Y-53173091D01*
X140940583Y-53176460D01*
X140612552Y-53414788D01*
X140607782Y-53418623D01*
X140304560Y-53687837D01*
X140300180Y-53692125D01*
X140024683Y-53989635D01*
X140020738Y-53994337D01*
X139775599Y-54317297D01*
X139772121Y-54322375D01*
X139559668Y-54667713D01*
X139556703Y-54673106D01*
X139378966Y-55037521D01*
X139376540Y-55043180D01*
X139235208Y-55423211D01*
X139233350Y-55429068D01*
X139129775Y-55821085D01*
X139128500Y-55827085D01*
X139063674Y-56227331D01*
X139062987Y-56233452D01*
X139055479Y-56352797D01*
X139031240Y-56419528D01*
X138974771Y-56462560D01*
X138904001Y-56468232D01*
X138841399Y-56434742D01*
X138828902Y-56420451D01*
X138809285Y-56394276D01*
X138796724Y-56381715D01*
X138694649Y-56305214D01*
X138679054Y-56296676D01*
X138558606Y-56251522D01*
X138543351Y-56247895D01*
X138492486Y-56242369D01*
X138485672Y-56242000D01*
X137813115Y-56242000D01*
X137797876Y-56246475D01*
X137796671Y-56247865D01*
X137795000Y-56255548D01*
X137795000Y-59739884D01*
X137287000Y-59739884D01*
X137287000Y-58272115D01*
X137282525Y-58256876D01*
X137281135Y-58255671D01*
X137273452Y-58254000D01*
X136151116Y-58254000D01*
X136135877Y-58258475D01*
X136134672Y-58259865D01*
X136133001Y-58267548D01*
X136133001Y-59294669D01*
X135845000Y-59294669D01*
X135845000Y-59272115D01*
X135840525Y-59256876D01*
X135839135Y-59255671D01*
X135831452Y-59254000D01*
X135171615Y-59254000D01*
X135156376Y-59258475D01*
X135155171Y-59259865D01*
X135153500Y-59267548D01*
X135153500Y-59964885D01*
X134656971Y-59964885D01*
X134645500Y-59529000D01*
X134645500Y-58727885D01*
X135153500Y-58727885D01*
X135157975Y-58743124D01*
X135159365Y-58744329D01*
X135167048Y-58746000D01*
X135826885Y-58746000D01*
X135842124Y-58741525D01*
X135843329Y-58740135D01*
X135845000Y-58732452D01*
X135845000Y-58698734D01*
X135844663Y-58692218D01*
X135835196Y-58600979D01*
X135832303Y-58587583D01*
X135783170Y-58440313D01*
X135776996Y-58427134D01*
X135695530Y-58295486D01*
X135686494Y-58284085D01*
X135576920Y-58174702D01*
X135565509Y-58165690D01*
X135433709Y-58084447D01*
X135420532Y-58078303D01*
X135273157Y-58029421D01*
X135259790Y-58026555D01*
X135170300Y-58017386D01*
X135156376Y-58021475D01*
X135155171Y-58022865D01*
X135153500Y-58030548D01*
X135153500Y-58727885D01*
X134645500Y-58727885D01*
X134645500Y-58035115D01*
X134638818Y-58012359D01*
X134608562Y-57965279D01*
X134603503Y-57933100D01*
X134598103Y-57727885D01*
X136133000Y-57727885D01*
X136137475Y-57743124D01*
X136138865Y-57744329D01*
X136146548Y-57746000D01*
X137268885Y-57746000D01*
X137284124Y-57741525D01*
X137285329Y-57740135D01*
X137287000Y-57732452D01*
X137287000Y-56260116D01*
X137282525Y-56244877D01*
X137281135Y-56243672D01*
X137273452Y-56242001D01*
X136596331Y-56242001D01*
X136589510Y-56242371D01*
X136538648Y-56247895D01*
X136523396Y-56251521D01*
X136402946Y-56296676D01*
X136387351Y-56305214D01*
X136285276Y-56381715D01*
X136272715Y-56394276D01*
X136196214Y-56496351D01*
X136187676Y-56511946D01*
X136142522Y-56632394D01*
X136138895Y-56647649D01*
X136133369Y-56698514D01*
X136133000Y-56705328D01*
X136133000Y-57727885D01*
X134598103Y-57727885D01*
X134534007Y-55292266D01*
X135300000Y-55292266D01*
X135300337Y-55298782D01*
X135309804Y-55390021D01*
X135312697Y-55403417D01*
X135361830Y-55550687D01*
X135368004Y-55563866D01*
X135449470Y-55695514D01*
X135458506Y-55706915D01*
X135568080Y-55816298D01*
X135579491Y-55825310D01*
X135711291Y-55906553D01*
X135724468Y-55912697D01*
X135871843Y-55961579D01*
X135885210Y-55964445D01*
X135974700Y-55973614D01*
X135988624Y-55969525D01*
X135989829Y-55968135D01*
X135991500Y-55960452D01*
X135991500Y-55263115D01*
X135987025Y-55247876D01*
X135985635Y-55246671D01*
X135977952Y-55245000D01*
X135318115Y-55245000D01*
X135302876Y-55249475D01*
X135301671Y-55250865D01*
X135300000Y-55258548D01*
X135300000Y-55292266D01*
X134534007Y-55292266D01*
X134500062Y-54002350D01*
X134500026Y-53997645D01*
X134501649Y-53852785D01*
X134504670Y-53583098D01*
X135179000Y-53583098D01*
X135179337Y-53589613D01*
X135189256Y-53685205D01*
X135192150Y-53698604D01*
X135243588Y-53852785D01*
X135249762Y-53865964D01*
X135335063Y-54003810D01*
X135344099Y-54015209D01*
X135443442Y-54114379D01*
X135477522Y-54176661D01*
X135472519Y-54247481D01*
X135453310Y-54281640D01*
X135448692Y-54287488D01*
X135367447Y-54419291D01*
X135361303Y-54432468D01*
X135312421Y-54579843D01*
X135309555Y-54593210D01*
X135300328Y-54683270D01*
X135300000Y-54689685D01*
X135300000Y-54718885D01*
X135304475Y-54734124D01*
X135305865Y-54735329D01*
X135313548Y-54737000D01*
X135973385Y-54737000D01*
X135988624Y-54732525D01*
X135989829Y-54731135D01*
X135991500Y-54723452D01*
X135991500Y-54026244D01*
X136001001Y-53993887D01*
X135999493Y-53993559D01*
X136008000Y-53954452D01*
X136008000Y-53358115D01*
X136003525Y-53342876D01*
X136002135Y-53341671D01*
X135994452Y-53340000D01*
X135197115Y-53340000D01*
X135181876Y-53344475D01*
X135180671Y-53345865D01*
X135179000Y-53353548D01*
X135179000Y-53583098D01*
X134504670Y-53583098D01*
X134513285Y-52813885D01*
X135179000Y-52813885D01*
X135183475Y-52829124D01*
X135184865Y-52830329D01*
X135192548Y-52832000D01*
X135989885Y-52832000D01*
X136005124Y-52827525D01*
X136006329Y-52826135D01*
X136008000Y-52818452D01*
X136008000Y-51964000D01*
X136028002Y-51895879D01*
X136081658Y-51849386D01*
X136134000Y-51838000D01*
X136390000Y-51838000D01*
X136458121Y-51858002D01*
X136504614Y-51911658D01*
X136516000Y-51964000D01*
X136516000Y-54275756D01*
X136506499Y-54308113D01*
X136508007Y-54308441D01*
X136499500Y-54347548D01*
X136499500Y-55955885D01*
X136503975Y-55971124D01*
X136505365Y-55972329D01*
X136512321Y-55973842D01*
X136515782Y-55973663D01*
X136607021Y-55964196D01*
X136620417Y-55961303D01*
X136767687Y-55912170D01*
X136780866Y-55905996D01*
X136912514Y-55824530D01*
X136923915Y-55815494D01*
X136943533Y-55795842D01*
X137005816Y-55761763D01*
X137076636Y-55766766D01*
X137121723Y-55795686D01*
X137123186Y-55797146D01*
X137147947Y-55821864D01*
X137292308Y-55910849D01*
X137299256Y-55913154D01*
X137299257Y-55913154D01*
X137446738Y-55962072D01*
X137446740Y-55962072D01*
X137453269Y-55964238D01*
X137553428Y-55974500D01*
X138087572Y-55974500D01*
X138090818Y-55974163D01*
X138090822Y-55974163D01*
X138124603Y-55970658D01*
X138188982Y-55963978D01*
X138349849Y-55910308D01*
X138494055Y-55821071D01*
X138613864Y-55701053D01*
X138702849Y-55556692D01*
X138738789Y-55448339D01*
X138754072Y-55402262D01*
X138754072Y-55402260D01*
X138756238Y-55395731D01*
X138766500Y-55295572D01*
X138766500Y-54686428D01*
X138755978Y-54585018D01*
X138708904Y-54443921D01*
X138706320Y-54372973D01*
X138742503Y-54311889D01*
X138793703Y-54285132D01*
X138793167Y-54283526D01*
X138954002Y-54229867D01*
X138954004Y-54229866D01*
X138960946Y-54227550D01*
X139111349Y-54134479D01*
X139236306Y-54009303D01*
X139282711Y-53934021D01*
X139325275Y-53864969D01*
X139325276Y-53864967D01*
X139329115Y-53858739D01*
X139384797Y-53690862D01*
X139395500Y-53586401D01*
X139395500Y-53449594D01*
X139415502Y-53381473D01*
X139432405Y-53360499D01*
X139523499Y-53269405D01*
X139585811Y-53235379D01*
X139612594Y-53232500D01*
X139668487Y-53232500D01*
X139674939Y-53231128D01*
X139674944Y-53231128D01*
X139778810Y-53209050D01*
X139855288Y-53192794D01*
X139899542Y-53173091D01*
X140023722Y-53117803D01*
X140023724Y-53117802D01*
X140029752Y-53115118D01*
X140184253Y-53002866D01*
X140190826Y-52995566D01*
X140307621Y-52865852D01*
X140307622Y-52865851D01*
X140312040Y-52860944D01*
X140407527Y-52695556D01*
X140466542Y-52513928D01*
X140467944Y-52500595D01*
X140485814Y-52330565D01*
X140486504Y-52324000D01*
X140466542Y-52134072D01*
X140407527Y-51952444D01*
X140312040Y-51787056D01*
X140268191Y-51738356D01*
X140188675Y-51650045D01*
X140188674Y-51650044D01*
X140184253Y-51645134D01*
X140029752Y-51532882D01*
X140023724Y-51530198D01*
X140023722Y-51530197D01*
X139861319Y-51457891D01*
X139861318Y-51457891D01*
X139855288Y-51455206D01*
X139779658Y-51439130D01*
X139744030Y-51431557D01*
X139681556Y-51397828D01*
X139647235Y-51335679D01*
X139644883Y-51295469D01*
X139649172Y-51253604D01*
X139649172Y-51253601D01*
X139649500Y-51250401D01*
X139649500Y-50881002D01*
X139653458Y-50849668D01*
X139656529Y-50837709D01*
X139656530Y-50837705D01*
X139658500Y-50830030D01*
X139658500Y-50247139D01*
X139678502Y-50179018D01*
X139732158Y-50132525D01*
X139758304Y-50123892D01*
X139775830Y-50120167D01*
X139775833Y-50120166D01*
X139782288Y-50118794D01*
X139788315Y-50116111D01*
X139788323Y-50116108D01*
X139827752Y-50098553D01*
X139898119Y-50089119D01*
X139962416Y-50119226D01*
X140000229Y-50179315D01*
X140005000Y-50213660D01*
X140005000Y-50408098D01*
X140005337Y-50414613D01*
X140015256Y-50510205D01*
X140018150Y-50523604D01*
X140069588Y-50677785D01*
X140075762Y-50690964D01*
X140161063Y-50828810D01*
X140170099Y-50840209D01*
X140284828Y-50954738D01*
X140296239Y-50963750D01*
X140434242Y-51048816D01*
X140447423Y-51054963D01*
X140601709Y-51106138D01*
X140615085Y-51109005D01*
X140709437Y-51118672D01*
X140715853Y-51119000D01*
X140815885Y-51119000D01*
X140831124Y-51114525D01*
X140832329Y-51113135D01*
X140834000Y-51105452D01*
X140834000Y-51100885D01*
X141342000Y-51100885D01*
X141346475Y-51116124D01*
X141347865Y-51117329D01*
X141355548Y-51119000D01*
X141460098Y-51119000D01*
X141466613Y-51118663D01*
X141562205Y-51108744D01*
X141575604Y-51105850D01*
X141729785Y-51054412D01*
X141742964Y-51048238D01*
X141880810Y-50962937D01*
X141892209Y-50953901D01*
X142006737Y-50839173D01*
X142013795Y-50830237D01*
X142071714Y-50789177D01*
X142142637Y-50785949D01*
X142204047Y-50821577D01*
X142210844Y-50829407D01*
X142214521Y-50835349D01*
X142339697Y-50960306D01*
X142345927Y-50964146D01*
X142483287Y-51048816D01*
X142490261Y-51053115D01*
X142570004Y-51079564D01*
X142651610Y-51106632D01*
X142651612Y-51106632D01*
X142658138Y-51108797D01*
X142664974Y-51109497D01*
X142664977Y-51109498D01*
X142708030Y-51113909D01*
X142762599Y-51119500D01*
X143135105Y-51119500D01*
X143513400Y-51119499D01*
X143619167Y-51108526D01*
X143778347Y-51055419D01*
X143780002Y-51054867D01*
X143780004Y-51054866D01*
X143786946Y-51052550D01*
X143937349Y-50959479D01*
X144062306Y-50834303D01*
X144069907Y-50821972D01*
X144122680Y-50774480D01*
X144192752Y-50763058D01*
X144228415Y-50772984D01*
X144243712Y-50779794D01*
X144337112Y-50799647D01*
X144424056Y-50818128D01*
X144424061Y-50818128D01*
X144430513Y-50819500D01*
X144621487Y-50819500D01*
X144627939Y-50818128D01*
X144627944Y-50818128D01*
X144714887Y-50799647D01*
X144808288Y-50779794D01*
X144814319Y-50777109D01*
X144976722Y-50704803D01*
X144976724Y-50704802D01*
X144982752Y-50702118D01*
X145137253Y-50589866D01*
X145141675Y-50584955D01*
X145260621Y-50452852D01*
X145260622Y-50452851D01*
X145265040Y-50447944D01*
X145360527Y-50282556D01*
X145419542Y-50100928D01*
X145439504Y-49911000D01*
X145435726Y-49875053D01*
X145420232Y-49727635D01*
X145420232Y-49727633D01*
X145419542Y-49721072D01*
X145360527Y-49539444D01*
X145348820Y-49519166D01*
X145268341Y-49379774D01*
X145265040Y-49374056D01*
X145237888Y-49343900D01*
X145141675Y-49237045D01*
X145141674Y-49237044D01*
X145137253Y-49232134D01*
X145038157Y-49160136D01*
X144988094Y-49123763D01*
X144988093Y-49123762D01*
X144982752Y-49119882D01*
X144976724Y-49117198D01*
X144976722Y-49117197D01*
X144814319Y-49044891D01*
X144814318Y-49044891D01*
X144808288Y-49042206D01*
X144714887Y-49022353D01*
X144627944Y-49003872D01*
X144627939Y-49003872D01*
X144621487Y-49002500D01*
X144430513Y-49002500D01*
X144424061Y-49003872D01*
X144424056Y-49003872D01*
X144337112Y-49022353D01*
X144243712Y-49042206D01*
X144237677Y-49044893D01*
X144228296Y-49049069D01*
X144157929Y-49058503D01*
X144093632Y-49028396D01*
X144069904Y-49000265D01*
X144065333Y-48992878D01*
X144065330Y-48992874D01*
X144061479Y-48986651D01*
X143936303Y-48861694D01*
X143817614Y-48788533D01*
X143791969Y-48772725D01*
X143791967Y-48772724D01*
X143785739Y-48768885D01*
X143705996Y-48742436D01*
X143624390Y-48715368D01*
X143624388Y-48715368D01*
X143617862Y-48713203D01*
X143611026Y-48712503D01*
X143611023Y-48712502D01*
X143567970Y-48708091D01*
X143513401Y-48702500D01*
X143140895Y-48702500D01*
X142762600Y-48702501D01*
X142656833Y-48713474D01*
X142648812Y-48716150D01*
X142495998Y-48767133D01*
X142495996Y-48767134D01*
X142489054Y-48769450D01*
X142338651Y-48862521D01*
X142213694Y-48987697D01*
X142210896Y-48992236D01*
X142153644Y-49032824D01*
X142082721Y-49036053D01*
X142021311Y-49000425D01*
X142013938Y-48991931D01*
X142005899Y-48981788D01*
X141891172Y-48867262D01*
X141879761Y-48858250D01*
X141741758Y-48773184D01*
X141728577Y-48767037D01*
X141574291Y-48715862D01*
X141560915Y-48712995D01*
X141466563Y-48703328D01*
X141460146Y-48703000D01*
X141360115Y-48703000D01*
X141344876Y-48707475D01*
X141343671Y-48708865D01*
X141342000Y-48716548D01*
X141342000Y-51100885D01*
X140834000Y-51100885D01*
X140834000Y-48721115D01*
X140829525Y-48705876D01*
X140828135Y-48704671D01*
X140820452Y-48703000D01*
X140715902Y-48703000D01*
X140709387Y-48703337D01*
X140613795Y-48713256D01*
X140600396Y-48716150D01*
X140446206Y-48767591D01*
X140433045Y-48773756D01*
X140426397Y-48777870D01*
X140357945Y-48796708D01*
X140290175Y-48775547D01*
X140250974Y-48733727D01*
X140239040Y-48713056D01*
X140229536Y-48702500D01*
X140115675Y-48576045D01*
X140115674Y-48576044D01*
X140111253Y-48571134D01*
X139956752Y-48458882D01*
X139950724Y-48456198D01*
X139950722Y-48456197D01*
X139788319Y-48383891D01*
X139788318Y-48383891D01*
X139782288Y-48381206D01*
X139688887Y-48361353D01*
X139601944Y-48342872D01*
X139601939Y-48342872D01*
X139595487Y-48341500D01*
X139404513Y-48341500D01*
X139398061Y-48342872D01*
X139398056Y-48342872D01*
X139311113Y-48361353D01*
X139217712Y-48381206D01*
X139211682Y-48383891D01*
X139211681Y-48383891D01*
X139049278Y-48456197D01*
X139049276Y-48456198D01*
X139043248Y-48458882D01*
X138888747Y-48571134D01*
X138884326Y-48576044D01*
X138884325Y-48576045D01*
X138770465Y-48702500D01*
X138760960Y-48713056D01*
X138725915Y-48773756D01*
X138672158Y-48866866D01*
X138665473Y-48878444D01*
X138606458Y-49060072D01*
X138605768Y-49066633D01*
X138605768Y-49066635D01*
X138589093Y-49225292D01*
X138562080Y-49290949D01*
X138552878Y-49301217D01*
X138548865Y-49305230D01*
X138546385Y-49308427D01*
X138538682Y-49317447D01*
X138508414Y-49349679D01*
X138504595Y-49356625D01*
X138504593Y-49356628D01*
X138498652Y-49367434D01*
X138487801Y-49383953D01*
X138475386Y-49399959D01*
X138472241Y-49407228D01*
X138472238Y-49407232D01*
X138457826Y-49440537D01*
X138452609Y-49451187D01*
X138438857Y-49476203D01*
X138388513Y-49526260D01*
X138328443Y-49541501D01*
X138190600Y-49541501D01*
X138084833Y-49552474D01*
X138076812Y-49555150D01*
X137923998Y-49606133D01*
X137923996Y-49606134D01*
X137917054Y-49608450D01*
X137766651Y-49701521D01*
X137641694Y-49826697D01*
X137638896Y-49831236D01*
X137581644Y-49871824D01*
X137510721Y-49875053D01*
X137449311Y-49839425D01*
X137441938Y-49830931D01*
X137433899Y-49820788D01*
X137319172Y-49706262D01*
X137307761Y-49697250D01*
X137169758Y-49612184D01*
X137156577Y-49606037D01*
X137002291Y-49554862D01*
X136988915Y-49551995D01*
X136894563Y-49542328D01*
X136888146Y-49542000D01*
X136788115Y-49542000D01*
X136772876Y-49546475D01*
X136771671Y-49547865D01*
X136770000Y-49555548D01*
X136770000Y-50878000D01*
X136749998Y-50946121D01*
X136696342Y-50992614D01*
X136644000Y-51004000D01*
X135451115Y-51004000D01*
X135435876Y-51008475D01*
X135434671Y-51009865D01*
X135433000Y-51017548D01*
X135433000Y-51247098D01*
X135433337Y-51253613D01*
X135443256Y-51349205D01*
X135446150Y-51362604D01*
X135497588Y-51516785D01*
X135503762Y-51529964D01*
X135589063Y-51667810D01*
X135598099Y-51679210D01*
X135657501Y-51738508D01*
X135691581Y-51800790D01*
X135686578Y-51871610D01*
X135644081Y-51928483D01*
X135621934Y-51941782D01*
X135607042Y-51948758D01*
X135469190Y-52034063D01*
X135457791Y-52043099D01*
X135343262Y-52157828D01*
X135334250Y-52169239D01*
X135249184Y-52307242D01*
X135243037Y-52320423D01*
X135191862Y-52474709D01*
X135188995Y-52488085D01*
X135179328Y-52582437D01*
X135179000Y-52588854D01*
X135179000Y-52813885D01*
X134513285Y-52813885D01*
X134522006Y-52035210D01*
X134527996Y-51500370D01*
X134527996Y-51500345D01*
X134528000Y-51500000D01*
X134528000Y-50477885D01*
X135433000Y-50477885D01*
X135437475Y-50493124D01*
X135438865Y-50494329D01*
X135446548Y-50496000D01*
X136243885Y-50496000D01*
X136259124Y-50491525D01*
X136260329Y-50490135D01*
X136262000Y-50482452D01*
X136262000Y-49560115D01*
X136257525Y-49544876D01*
X136256135Y-49543671D01*
X136248452Y-49542000D01*
X136143902Y-49542000D01*
X136137387Y-49542337D01*
X136041795Y-49552256D01*
X136028396Y-49555150D01*
X135874215Y-49606588D01*
X135861036Y-49612762D01*
X135723190Y-49698063D01*
X135711791Y-49707099D01*
X135597262Y-49821828D01*
X135588250Y-49833239D01*
X135503184Y-49971242D01*
X135497037Y-49984423D01*
X135445862Y-50138709D01*
X135442995Y-50152085D01*
X135433328Y-50246437D01*
X135433000Y-50252854D01*
X135433000Y-50477885D01*
X134528000Y-50477885D01*
X134528000Y-47626000D01*
X134548002Y-47557879D01*
X134601658Y-47511386D01*
X134654000Y-47500000D01*
X146172861Y-47500000D01*
X146240982Y-47520002D01*
G37*
%TD.AperFunction*%
%TD*%
M02*
