M48
; DRILL file {KiCad (6.0.10)} date Tue Sep  5 22:11:01 2023
; FORMAT={-:-/ absolute / inch / decimal}
; #@! TF.CreationDate,2023-09-05T22:11:01+02:00
; #@! TF.GenerationSoftware,Kicad,Pcbnew,(6.0.10)
; #@! TF.FileFunction,Plated,1,2,PTH
FMAT,2
INCH
; #@! TA.AperFunction,Plated,PTH,ViaDrill
T1C0.0157
; #@! TA.AperFunction,Plated,PTH,ComponentDrill
T2C0.0177
; #@! TA.AperFunction,Plated,PTH,ComponentDrill
T3C0.0276
; #@! TA.AperFunction,Plated,PTH,ComponentDrill
T4C0.0866
; #@! TA.AperFunction,Plated,PTH,ComponentDrill
T5C0.1457
%
G90
G05
T1
X4.57Y-2.61
X4.6063Y-2.6476
X4.7244Y-2.6378
X4.73Y-1.975
X4.73Y-2.21
X4.75Y-1.9
X4.795Y-2.24
X4.8228Y-2.4114
X5.04Y-1.7956
X5.12Y-1.785
X5.2067Y-2.3327
X5.23Y-2.0856
X5.23Y-2.115
X5.4Y-2.805
X5.44Y-2.805
X5.48Y-2.805
X5.4921Y-1.939
X5.495Y-2.06
X5.62Y-2.545
X5.66Y-2.545
X5.69Y-1.965
X5.7Y-2.545
X5.74Y-2.545
T2
X4.952Y-1.918
X4.952Y-1.9731
X4.9894Y-1.918
X4.9894Y-1.9731
X5.0269Y-1.918
X5.0623Y-1.918
X5.0623Y-1.9731
X5.0977Y-1.918
X5.0977Y-1.9731
X5.1331Y-1.9731
X5.1706Y-1.918
X5.1706Y-1.9731
X5.208Y-1.918
X5.208Y-1.9731
T4
X4.735Y-1.6732
X5.455Y-1.6732
X5.505Y-2.66
T3
G00X4.9816Y-1.8696
M15
G01X5.0209Y-1.8696
M16
G05
G00X4.9816Y-2.0216
M15
G01X5.0209Y-2.0216
M16
G05
G00X5.1391Y-1.8696
M15
G01X5.1784Y-1.8696
M16
G05
G00X5.1391Y-2.0216
M15
G01X5.1784Y-2.0216
M16
G05
T5
G00X4.5374Y-2.1988
M15
G01X4.5374Y-2.2894
M16
G05
G00X5.6398Y-2.1988
M15
G01X5.6398Y-2.2894
M16
G05
T0
M30
