%TF.GenerationSoftware,KiCad,Pcbnew,(6.0.10)*%
%TF.CreationDate,2023-09-05T22:10:59+02:00*%
%TF.ProjectId,Pump PCB,50756d70-2050-4434-922e-6b696361645f,rev?*%
%TF.SameCoordinates,Original*%
%TF.FileFunction,Copper,L2,Bot*%
%TF.FilePolarity,Positive*%
%FSLAX46Y46*%
G04 Gerber Fmt 4.6, Leading zero omitted, Abs format (unit mm)*
G04 Created by KiCad (PCBNEW (6.0.10)) date 2023-09-05 22:10:59*
%MOMM*%
%LPD*%
G01*
G04 APERTURE LIST*
%TA.AperFunction,ComponentPad*%
%ADD10C,4.400000*%
%TD*%
%TA.AperFunction,ComponentPad*%
%ADD11O,7.400000X8.000000*%
%TD*%
%TA.AperFunction,ComponentPad*%
%ADD12C,0.700000*%
%TD*%
%TA.AperFunction,ComponentPad*%
%ADD13O,2.000000X1.000000*%
%TD*%
%TA.AperFunction,ViaPad*%
%ADD14C,0.800000*%
%TD*%
%TA.AperFunction,Conductor*%
%ADD15C,0.200000*%
%TD*%
G04 APERTURE END LIST*
D10*
%TO.P,H1,1*%
%TO.N,N/C*%
X138557000Y-42500000D03*
%TD*%
%TO.P,H2,1*%
%TO.N,N/C*%
X120269000Y-42500000D03*
%TD*%
%TO.P,H3,1*%
%TO.N,N/C*%
X139827000Y-67564000D03*
%TD*%
D11*
%TO.P,H5,1*%
%TO.N,12V*%
X143250000Y-57000000D03*
%TD*%
%TO.P,H6,1*%
%TO.N,GND*%
X115250000Y-57000000D03*
%TD*%
D12*
%TO.P,J1,14*%
%TO.N,GND*%
X125782000Y-48718000D03*
%TO.P,J1,13*%
%TO.N,5V*%
X126732000Y-48718000D03*
%TO.P,J1,12*%
%TO.N,Net-(J1-Pad12)*%
X127682000Y-48718000D03*
%TO.P,J1,11*%
%TO.N,Net-(J1-Pad11)*%
X128582000Y-48718000D03*
%TO.P,J1,10*%
%TO.N,Net-(J1-Pad10)*%
X129482000Y-48718000D03*
%TO.P,J1,9*%
%TO.N,5V*%
X131332000Y-48718000D03*
%TO.P,J1,8*%
%TO.N,GND*%
X132282000Y-48718000D03*
%TO.P,J1,7*%
X132282000Y-50118000D03*
%TO.P,J1,6*%
%TO.N,5V*%
X131332000Y-50118000D03*
%TO.P,J1,5*%
%TO.N,Net-(J1-Pad5)*%
X130382000Y-50118000D03*
%TO.P,J1,4*%
%TO.N,Net-(J1-Pad4)*%
X129482000Y-50118000D03*
%TO.P,J1,3*%
%TO.N,Net-(J1-Pad3)*%
X128582000Y-50118000D03*
%TO.P,J1,2*%
%TO.N,5V*%
X126732000Y-50118000D03*
%TO.P,J1,1*%
%TO.N,GND*%
X125782000Y-50118000D03*
D13*
%TO.P,J1,0*%
%TO.N,Net-(J1-Pad0)*%
X131032000Y-47488000D03*
X127032000Y-47488000D03*
X131032000Y-51348000D03*
X127032000Y-51348000D03*
%TD*%
D14*
%TO.N,GND*%
X120142000Y-50165000D03*
X120650000Y-48260000D03*
X139573000Y-52324000D03*
X145796000Y-64643000D03*
X116078000Y-66294000D03*
X132842000Y-52974000D03*
X138176000Y-71247000D03*
X144780000Y-64643000D03*
X144526000Y-49911000D03*
X120142000Y-56134000D03*
X139192000Y-71247000D03*
X139500000Y-49250000D03*
X132250000Y-59250000D03*
X142748000Y-64643000D03*
X120000000Y-67000000D03*
X132842000Y-53721000D03*
X143764000Y-64643000D03*
X122500000Y-61250000D03*
X137160000Y-71247000D03*
X117000000Y-67250000D03*
X121793000Y-56896000D03*
X130048000Y-45339000D03*
%TO.N,Net-(J1-Pad12)*%
X128016000Y-45608000D03*
%TD*%
D15*
%TO.N,Net-(J1-Pad12)*%
X127766130Y-48504740D02*
X128415999Y-47854871D01*
X128415999Y-46007999D02*
X128016000Y-45608000D01*
X128415999Y-47854871D02*
X128415999Y-46007999D01*
%TD*%
%TA.AperFunction,Conductor*%
%TO.N,GND*%
G36*
X136875799Y-40163539D02*
G01*
X136922292Y-40217195D01*
X136932396Y-40287469D01*
X136902902Y-40352049D01*
X136884644Y-40369298D01*
X136773244Y-40455243D01*
X136540513Y-40684347D01*
X136538149Y-40687314D01*
X136538146Y-40687317D01*
X136521220Y-40708558D01*
X136336991Y-40939751D01*
X136165626Y-41217757D01*
X136028902Y-41514336D01*
X136027741Y-41517940D01*
X136027741Y-41517941D01*
X136019196Y-41544477D01*
X135928797Y-41825192D01*
X135928079Y-41828903D01*
X135928078Y-41828907D01*
X135867482Y-42142105D01*
X135867481Y-42142114D01*
X135866763Y-42145824D01*
X135866496Y-42149600D01*
X135866495Y-42149605D01*
X135851993Y-42354424D01*
X135843698Y-42471585D01*
X135859936Y-42797759D01*
X135860577Y-42801490D01*
X135860578Y-42801498D01*
X135875109Y-42886060D01*
X135915241Y-43119619D01*
X136008814Y-43432504D01*
X136139297Y-43731881D01*
X136141220Y-43735152D01*
X136141222Y-43735156D01*
X136183584Y-43807215D01*
X136304802Y-44013414D01*
X136307103Y-44016429D01*
X136500631Y-44270012D01*
X136500636Y-44270017D01*
X136502931Y-44273025D01*
X136564931Y-44336670D01*
X136623920Y-44397223D01*
X136730814Y-44506953D01*
X136803635Y-44565607D01*
X136982196Y-44709431D01*
X136982201Y-44709435D01*
X136985149Y-44711809D01*
X137262253Y-44884627D01*
X137558112Y-45022903D01*
X137561721Y-45024086D01*
X137822979Y-45109731D01*
X137868440Y-45124634D01*
X138188742Y-45188346D01*
X138192514Y-45188633D01*
X138192522Y-45188634D01*
X138510602Y-45212829D01*
X138510607Y-45212829D01*
X138514379Y-45213116D01*
X138840633Y-45198586D01*
X138900425Y-45188634D01*
X139159037Y-45145590D01*
X139159042Y-45145589D01*
X139162778Y-45144967D01*
X139476149Y-45053034D01*
X139479616Y-45051544D01*
X139479620Y-45051543D01*
X139772721Y-44925616D01*
X139772723Y-44925615D01*
X139776205Y-44924119D01*
X140058601Y-44760091D01*
X140319245Y-44563324D01*
X140554363Y-44336670D01*
X140760549Y-44083410D01*
X140934815Y-43807215D01*
X140957832Y-43758633D01*
X141073009Y-43515522D01*
X141074638Y-43512084D01*
X141101188Y-43432504D01*
X141176790Y-43205897D01*
X141176792Y-43205891D01*
X141177992Y-43202293D01*
X141243381Y-42882329D01*
X141249956Y-42801498D01*
X141269674Y-42559061D01*
X141269856Y-42556826D01*
X141270451Y-42500000D01*
X141268510Y-42467796D01*
X141251026Y-42177793D01*
X141251026Y-42177789D01*
X141250798Y-42174015D01*
X141245650Y-42145824D01*
X141204006Y-41917803D01*
X141211444Y-41847197D01*
X141255874Y-41791821D01*
X141323189Y-41769256D01*
X141392018Y-41786667D01*
X141405291Y-41795691D01*
X141562358Y-41917803D01*
X141691181Y-42017957D01*
X141695530Y-42021496D01*
X142351667Y-42580174D01*
X142355833Y-42583883D01*
X142986476Y-43171209D01*
X142990493Y-43175121D01*
X143317938Y-43508482D01*
X143561619Y-43756566D01*
X143594371Y-43789910D01*
X143598201Y-43793987D01*
X144174165Y-44435072D01*
X144177796Y-44439300D01*
X144724623Y-45105320D01*
X144728079Y-45109725D01*
X145244779Y-45799473D01*
X145248008Y-45803991D01*
X145565196Y-46269190D01*
X145733478Y-46515999D01*
X145736533Y-46520700D01*
X146189858Y-47253618D01*
X146192700Y-47258451D01*
X146612951Y-48010779D01*
X146615576Y-48015734D01*
X147001945Y-48786026D01*
X147004347Y-48791093D01*
X147356063Y-49577807D01*
X147358237Y-49582975D01*
X147674614Y-50384582D01*
X147676542Y-50389803D01*
X147943028Y-51164251D01*
X147956943Y-51204690D01*
X147958646Y-51210022D01*
X148164950Y-51909254D01*
X148202517Y-52036583D01*
X148203980Y-52041985D01*
X148309747Y-52469737D01*
X148410826Y-52878535D01*
X148412051Y-52884007D01*
X148581479Y-53728951D01*
X148582459Y-53734471D01*
X148714130Y-54586125D01*
X148714863Y-54591684D01*
X148737823Y-54801708D01*
X148806390Y-55428917D01*
X148808513Y-55448339D01*
X148808997Y-55453909D01*
X148863028Y-56291949D01*
X148864443Y-56313899D01*
X148864679Y-56319492D01*
X148873125Y-56744329D01*
X148881809Y-57181080D01*
X148881796Y-57186687D01*
X148875681Y-57434955D01*
X148864790Y-57877198D01*
X148860578Y-58048197D01*
X148860315Y-58053798D01*
X148800791Y-58913501D01*
X148800279Y-58919085D01*
X148702569Y-59775269D01*
X148701810Y-59780824D01*
X148566101Y-60631844D01*
X148565095Y-60637360D01*
X148391663Y-61481476D01*
X148390413Y-61486942D01*
X148179592Y-62322540D01*
X148178099Y-62327945D01*
X147930323Y-63153295D01*
X147928594Y-63158622D01*
X147715285Y-63769105D01*
X147644331Y-63972171D01*
X147642368Y-63977411D01*
X147405635Y-64568990D01*
X147322207Y-64777471D01*
X147320011Y-64782625D01*
X147255311Y-64925522D01*
X146964553Y-65567693D01*
X146962127Y-65572748D01*
X146572101Y-66341211D01*
X146569477Y-66346109D01*
X146145635Y-67096484D01*
X146142769Y-67101303D01*
X145739940Y-67745729D01*
X145686000Y-67832019D01*
X145682928Y-67836699D01*
X145610027Y-67942536D01*
X145194066Y-68546423D01*
X145190783Y-68550968D01*
X144670867Y-69238192D01*
X144667386Y-69242587D01*
X144187209Y-69821807D01*
X144117389Y-69906028D01*
X144113727Y-69910251D01*
X143666926Y-70402849D01*
X143534770Y-70548551D01*
X143530912Y-70552619D01*
X142924103Y-71164560D01*
X142920081Y-71168439D01*
X142663920Y-71404746D01*
X142460701Y-71592214D01*
X142397069Y-71623702D01*
X142374303Y-71625598D01*
X134177739Y-71562897D01*
X116186227Y-71425268D01*
X116118262Y-71404746D01*
X116100366Y-71390580D01*
X115652491Y-70964689D01*
X115648546Y-70960768D01*
X115055663Y-70344927D01*
X115051894Y-70340836D01*
X114829203Y-70088086D01*
X114486746Y-69699404D01*
X114483166Y-69695156D01*
X114383116Y-69570953D01*
X113946869Y-69029396D01*
X113943477Y-69024988D01*
X113437113Y-68336248D01*
X113433918Y-68331695D01*
X112958437Y-67621268D01*
X112955446Y-67616579D01*
X112906270Y-67535585D01*
X137113698Y-67535585D01*
X137129936Y-67861759D01*
X137130577Y-67865490D01*
X137130578Y-67865498D01*
X137145109Y-67950060D01*
X137185241Y-68183619D01*
X137278814Y-68496504D01*
X137280327Y-68499975D01*
X137280329Y-68499981D01*
X137302552Y-68550968D01*
X137409297Y-68795881D01*
X137411220Y-68799152D01*
X137411222Y-68799156D01*
X137453584Y-68871215D01*
X137574802Y-69077414D01*
X137577103Y-69080429D01*
X137770631Y-69334012D01*
X137770636Y-69334017D01*
X137772931Y-69337025D01*
X138000814Y-69570953D01*
X138073635Y-69629607D01*
X138252196Y-69773431D01*
X138252201Y-69773435D01*
X138255149Y-69775809D01*
X138532253Y-69948627D01*
X138828112Y-70086903D01*
X139138440Y-70188634D01*
X139458742Y-70252346D01*
X139462514Y-70252633D01*
X139462522Y-70252634D01*
X139780602Y-70276829D01*
X139780607Y-70276829D01*
X139784379Y-70277116D01*
X140110633Y-70262586D01*
X140170425Y-70252634D01*
X140429037Y-70209590D01*
X140429042Y-70209589D01*
X140432778Y-70208967D01*
X140746149Y-70117034D01*
X140749616Y-70115544D01*
X140749620Y-70115543D01*
X141042721Y-69989616D01*
X141042723Y-69989615D01*
X141046205Y-69988119D01*
X141328601Y-69824091D01*
X141589245Y-69627324D01*
X141824363Y-69400670D01*
X142030549Y-69147410D01*
X142106367Y-69027246D01*
X142202788Y-68874428D01*
X142202790Y-68874425D01*
X142204815Y-68871215D01*
X142344638Y-68576084D01*
X142345840Y-68572482D01*
X142446790Y-68269897D01*
X142446792Y-68269891D01*
X142447992Y-68266293D01*
X142513381Y-67946329D01*
X142519956Y-67865498D01*
X142539674Y-67623061D01*
X142539856Y-67620826D01*
X142540451Y-67564000D01*
X142538510Y-67531796D01*
X142521026Y-67241793D01*
X142521026Y-67241789D01*
X142520798Y-67238015D01*
X142515650Y-67209824D01*
X142462805Y-66920473D01*
X142462804Y-66920469D01*
X142462125Y-66916751D01*
X142454722Y-66892907D01*
X142366404Y-66608477D01*
X142365282Y-66604863D01*
X142231670Y-66306869D01*
X142063226Y-66027084D01*
X142060899Y-66024100D01*
X142060894Y-66024093D01*
X141864726Y-65772558D01*
X141864724Y-65772556D01*
X141862390Y-65769563D01*
X141632070Y-65538034D01*
X141375603Y-65335852D01*
X141096705Y-65165945D01*
X141093261Y-65164379D01*
X141093257Y-65164377D01*
X140982667Y-65114095D01*
X140799414Y-65030775D01*
X140488037Y-64932300D01*
X140270492Y-64891390D01*
X140170809Y-64872645D01*
X140170807Y-64872645D01*
X140167086Y-64871945D01*
X139841208Y-64850586D01*
X139837428Y-64850794D01*
X139837427Y-64850794D01*
X139739897Y-64856162D01*
X139515124Y-64868532D01*
X139511397Y-64869193D01*
X139511393Y-64869193D01*
X139354341Y-64897027D01*
X139193557Y-64925522D01*
X139189941Y-64926624D01*
X139189933Y-64926626D01*
X138884789Y-65019627D01*
X138881167Y-65020731D01*
X138582477Y-65152781D01*
X138557041Y-65167914D01*
X138305074Y-65317817D01*
X138305068Y-65317821D01*
X138301814Y-65319757D01*
X138043244Y-65519243D01*
X137810513Y-65748347D01*
X137808149Y-65751314D01*
X137808146Y-65751317D01*
X137791220Y-65772558D01*
X137606991Y-66003751D01*
X137435626Y-66281757D01*
X137298902Y-66578336D01*
X137297741Y-66581940D01*
X137297741Y-66581941D01*
X137289196Y-66608477D01*
X137198797Y-66889192D01*
X137198079Y-66892903D01*
X137198078Y-66892907D01*
X137137482Y-67206105D01*
X137137481Y-67206114D01*
X137136763Y-67209824D01*
X137113698Y-67535585D01*
X112906270Y-67535585D01*
X112530537Y-66916751D01*
X112511768Y-66885838D01*
X112508991Y-66881028D01*
X112435014Y-66746101D01*
X112098007Y-66131439D01*
X112095441Y-66126504D01*
X111717937Y-65359502D01*
X111715591Y-65354458D01*
X111632246Y-65164377D01*
X111372292Y-64571512D01*
X111370178Y-64566385D01*
X111061782Y-63769089D01*
X111059896Y-63763875D01*
X111041024Y-63707851D01*
X110786979Y-62953720D01*
X110785320Y-62948410D01*
X110548433Y-62127029D01*
X110547010Y-62121653D01*
X110359086Y-61342385D01*
X110346595Y-61290585D01*
X110345412Y-61285156D01*
X110330133Y-61206759D01*
X110209352Y-60587057D01*
X110181875Y-60446076D01*
X110180932Y-60440594D01*
X110054588Y-59595131D01*
X110053887Y-59589613D01*
X109964976Y-58739363D01*
X109964520Y-58733820D01*
X109913220Y-57880491D01*
X109913009Y-57874933D01*
X109906014Y-57434955D01*
X109905494Y-57402216D01*
X111042000Y-57402216D01*
X111042075Y-57405309D01*
X111056882Y-57708051D01*
X111057483Y-57714175D01*
X111116710Y-58115263D01*
X111117910Y-58121325D01*
X111215993Y-58514711D01*
X111217778Y-58520626D01*
X111353786Y-58902579D01*
X111356129Y-58908263D01*
X111528764Y-59275131D01*
X111531653Y-59280565D01*
X111739260Y-59628829D01*
X111742668Y-59633959D01*
X111983277Y-59960312D01*
X111987165Y-59965079D01*
X112258457Y-60266380D01*
X112262807Y-60270760D01*
X112562211Y-60544153D01*
X112566949Y-60548073D01*
X112891609Y-60790950D01*
X112896715Y-60794394D01*
X113243532Y-61004434D01*
X113248928Y-61007351D01*
X113614596Y-61182551D01*
X113620263Y-61184933D01*
X114001261Y-61323604D01*
X114007149Y-61325426D01*
X114399860Y-61426258D01*
X114405883Y-61427494D01*
X114806585Y-61489526D01*
X114812672Y-61490166D01*
X114977912Y-61499405D01*
X114993356Y-61495793D01*
X114996000Y-61485086D01*
X114996000Y-61482979D01*
X115504000Y-61482979D01*
X115508475Y-61498218D01*
X115508800Y-61498500D01*
X115518872Y-61500471D01*
X115628762Y-61495865D01*
X115634888Y-61495308D01*
X116036399Y-61438879D01*
X116042452Y-61437724D01*
X116436537Y-61342385D01*
X116442434Y-61340649D01*
X116825331Y-61207310D01*
X116831044Y-61205002D01*
X117199104Y-61034935D01*
X117204558Y-61032083D01*
X117554269Y-60826909D01*
X117559417Y-60823540D01*
X117887448Y-60585212D01*
X117892218Y-60581377D01*
X118195440Y-60312163D01*
X118199820Y-60307875D01*
X118475317Y-60010365D01*
X118479262Y-60005663D01*
X118724401Y-59682703D01*
X118727879Y-59677625D01*
X118940332Y-59332287D01*
X118943297Y-59326894D01*
X119121034Y-58962479D01*
X119123460Y-58956820D01*
X119264792Y-58576789D01*
X119266650Y-58570932D01*
X119370225Y-58178915D01*
X119371500Y-58172915D01*
X119436326Y-57772669D01*
X119437013Y-57766548D01*
X119457874Y-57434955D01*
X119458000Y-57430964D01*
X119458000Y-57272115D01*
X119453525Y-57256876D01*
X119452135Y-57255671D01*
X119444452Y-57254000D01*
X115522115Y-57254000D01*
X115506876Y-57258475D01*
X115505671Y-57259865D01*
X115504000Y-57267548D01*
X115504000Y-61482979D01*
X114996000Y-61482979D01*
X114996000Y-57272115D01*
X114991525Y-57256876D01*
X114990135Y-57255671D01*
X114982452Y-57254000D01*
X111060115Y-57254000D01*
X111044876Y-57258475D01*
X111043671Y-57259865D01*
X111042000Y-57267548D01*
X111042000Y-57402216D01*
X109905494Y-57402216D01*
X109901484Y-57150000D01*
X125264685Y-57150000D01*
X125283931Y-57517241D01*
X125341459Y-57880459D01*
X125436639Y-58235674D01*
X125437824Y-58238762D01*
X125437825Y-58238764D01*
X125487902Y-58369218D01*
X125568427Y-58578994D01*
X125735380Y-58906657D01*
X125737176Y-58909423D01*
X125737178Y-58909426D01*
X125741637Y-58916292D01*
X125935668Y-59215075D01*
X126167098Y-59500867D01*
X126427133Y-59760902D01*
X126712925Y-59992332D01*
X127021342Y-60192620D01*
X127024276Y-60194115D01*
X127024283Y-60194119D01*
X127256659Y-60312520D01*
X127349006Y-60359573D01*
X127692326Y-60491361D01*
X128047541Y-60586541D01*
X128240558Y-60617112D01*
X128407511Y-60643555D01*
X128407519Y-60643556D01*
X128410759Y-60644069D01*
X128778000Y-60663315D01*
X129145241Y-60644069D01*
X129148481Y-60643556D01*
X129148489Y-60643555D01*
X129315442Y-60617112D01*
X129508459Y-60586541D01*
X129863674Y-60491361D01*
X130206994Y-60359573D01*
X130299341Y-60312520D01*
X130531717Y-60194119D01*
X130531724Y-60194115D01*
X130534658Y-60192620D01*
X130843075Y-59992332D01*
X131128867Y-59760902D01*
X131388902Y-59500867D01*
X131620332Y-59215075D01*
X131814363Y-58916292D01*
X131818822Y-58909426D01*
X131818824Y-58909423D01*
X131820620Y-58906657D01*
X131987573Y-58578994D01*
X132068098Y-58369218D01*
X132118175Y-58238764D01*
X132118176Y-58238762D01*
X132119361Y-58235674D01*
X132214541Y-57880459D01*
X132272069Y-57517241D01*
X132278016Y-57403764D01*
X139041500Y-57403764D01*
X139041575Y-57405290D01*
X139041575Y-57405305D01*
X139043026Y-57434962D01*
X139056535Y-57711173D01*
X139116672Y-58118421D01*
X139216262Y-58517857D01*
X139217297Y-58520765D01*
X139217299Y-58520770D01*
X139238032Y-58578994D01*
X139354356Y-58905669D01*
X139529634Y-59278154D01*
X139531208Y-59280795D01*
X139531211Y-59280800D01*
X139560484Y-59329905D01*
X139740424Y-59631757D01*
X139984713Y-59963103D01*
X139986769Y-59965386D01*
X139986776Y-59965395D01*
X140258101Y-60266732D01*
X140258109Y-60266740D01*
X140260170Y-60269029D01*
X140564166Y-60546615D01*
X140893799Y-60793212D01*
X140896436Y-60794809D01*
X141243294Y-61004874D01*
X141243303Y-61004879D01*
X141245922Y-61006465D01*
X141617174Y-61184340D01*
X141620063Y-61185392D01*
X141620069Y-61185394D01*
X141901690Y-61287895D01*
X142004012Y-61325137D01*
X142294750Y-61399786D01*
X142399759Y-61426748D01*
X142399762Y-61426749D01*
X142402743Y-61427514D01*
X142809561Y-61490493D01*
X143220584Y-61513472D01*
X143223663Y-61513343D01*
X143223666Y-61513343D01*
X143530791Y-61500471D01*
X143631887Y-61496234D01*
X143634931Y-61495806D01*
X143634933Y-61495806D01*
X143855482Y-61464810D01*
X144039545Y-61438941D01*
X144439667Y-61342141D01*
X144828433Y-61206759D01*
X144900621Y-61173404D01*
X145199336Y-61035378D01*
X145199346Y-61035373D01*
X145202133Y-61034085D01*
X145557199Y-60825769D01*
X145807051Y-60644241D01*
X145887761Y-60585602D01*
X145887767Y-60585597D01*
X145890242Y-60583799D01*
X145934897Y-60544153D01*
X146048430Y-60443353D01*
X146198084Y-60310484D01*
X146200163Y-60308239D01*
X146200170Y-60308232D01*
X146475700Y-60010687D01*
X146475703Y-60010683D01*
X146477786Y-60008434D01*
X146569070Y-59888172D01*
X146724817Y-59682983D01*
X146724819Y-59682981D01*
X146726678Y-59680531D01*
X146942384Y-59329905D01*
X147122846Y-58959904D01*
X147138027Y-58919085D01*
X147265268Y-58576940D01*
X147266340Y-58574058D01*
X147371498Y-58176052D01*
X147437316Y-57769683D01*
X147437514Y-57766548D01*
X147449218Y-57580494D01*
X147458500Y-57432965D01*
X147458500Y-56596236D01*
X147458425Y-56594691D01*
X147444691Y-56313899D01*
X147443465Y-56288827D01*
X147383328Y-55881579D01*
X147283738Y-55482143D01*
X147270317Y-55444451D01*
X147146676Y-55097230D01*
X147145644Y-55094331D01*
X146970366Y-54721846D01*
X146941168Y-54672865D01*
X146761156Y-54370894D01*
X146759576Y-54368243D01*
X146515287Y-54036897D01*
X146513231Y-54034614D01*
X146513224Y-54034605D01*
X146241899Y-53733268D01*
X146241891Y-53733260D01*
X146239830Y-53730971D01*
X145935834Y-53453385D01*
X145606201Y-53206788D01*
X145590730Y-53197419D01*
X145256706Y-52995126D01*
X145256697Y-52995121D01*
X145254078Y-52993535D01*
X144882826Y-52815660D01*
X144879937Y-52814608D01*
X144879931Y-52814606D01*
X144498887Y-52675918D01*
X144498884Y-52675917D01*
X144495988Y-52674863D01*
X144102149Y-52573742D01*
X144100241Y-52573252D01*
X144100238Y-52573251D01*
X144097257Y-52572486D01*
X143690439Y-52509507D01*
X143279416Y-52486528D01*
X143276337Y-52486657D01*
X143276334Y-52486657D01*
X143006857Y-52497951D01*
X142868113Y-52503766D01*
X142865069Y-52504194D01*
X142865067Y-52504194D01*
X142820383Y-52510474D01*
X142460455Y-52561059D01*
X142060333Y-52657859D01*
X141671567Y-52793241D01*
X141668769Y-52794534D01*
X141300664Y-52964622D01*
X141300654Y-52964627D01*
X141297867Y-52965915D01*
X140942801Y-53174231D01*
X140895448Y-53208635D01*
X140612239Y-53414398D01*
X140612233Y-53414403D01*
X140609758Y-53416201D01*
X140607472Y-53418230D01*
X140607469Y-53418233D01*
X140523862Y-53492463D01*
X140301916Y-53689516D01*
X140299837Y-53691761D01*
X140299830Y-53691768D01*
X140069569Y-53940427D01*
X140022214Y-53991566D01*
X139773322Y-54319469D01*
X139744841Y-54365764D01*
X139605855Y-54591684D01*
X139557616Y-54670095D01*
X139377154Y-55040096D01*
X139376083Y-55042977D01*
X139376080Y-55042983D01*
X139361440Y-55082349D01*
X139233660Y-55425942D01*
X139128502Y-55823948D01*
X139062684Y-56230317D01*
X139062491Y-56233390D01*
X139062490Y-56233396D01*
X139057250Y-56316694D01*
X139041500Y-56567035D01*
X139041500Y-57403764D01*
X132278016Y-57403764D01*
X132291315Y-57150000D01*
X132272069Y-56782759D01*
X132265983Y-56744329D01*
X132245112Y-56612558D01*
X132214541Y-56419541D01*
X132119361Y-56064326D01*
X132075365Y-55949711D01*
X131988757Y-55724091D01*
X131987573Y-55721006D01*
X131864382Y-55479230D01*
X131822119Y-55396284D01*
X131822115Y-55396277D01*
X131820620Y-55393343D01*
X131620332Y-55084925D01*
X131388902Y-54799133D01*
X131128867Y-54539098D01*
X130843075Y-54307668D01*
X130534658Y-54107380D01*
X130531724Y-54105885D01*
X130531717Y-54105881D01*
X130209934Y-53941925D01*
X130206994Y-53940427D01*
X129863674Y-53808639D01*
X129508459Y-53713459D01*
X129315442Y-53682888D01*
X129148489Y-53656445D01*
X129148481Y-53656444D01*
X129145241Y-53655931D01*
X128778000Y-53636685D01*
X128410759Y-53655931D01*
X128407519Y-53656444D01*
X128407511Y-53656445D01*
X128240558Y-53682888D01*
X128047541Y-53713459D01*
X127692326Y-53808639D01*
X127349006Y-53940427D01*
X127346066Y-53941925D01*
X127024284Y-54105881D01*
X127024277Y-54105885D01*
X127021343Y-54107380D01*
X126712925Y-54307668D01*
X126427133Y-54539098D01*
X126167098Y-54799133D01*
X125935668Y-55084925D01*
X125735380Y-55393343D01*
X125733885Y-55396277D01*
X125733881Y-55396284D01*
X125691618Y-55479230D01*
X125568427Y-55721006D01*
X125567243Y-55724091D01*
X125480636Y-55949711D01*
X125436639Y-56064326D01*
X125341459Y-56419541D01*
X125310888Y-56612558D01*
X125290018Y-56744329D01*
X125283931Y-56782759D01*
X125264685Y-57150000D01*
X109901484Y-57150000D01*
X109899420Y-57020168D01*
X109899454Y-57014621D01*
X109907557Y-56727885D01*
X111042000Y-56727885D01*
X111046475Y-56743124D01*
X111047865Y-56744329D01*
X111055548Y-56746000D01*
X114977885Y-56746000D01*
X114993124Y-56741525D01*
X114994329Y-56740135D01*
X114996000Y-56732452D01*
X114996000Y-56727885D01*
X115504000Y-56727885D01*
X115508475Y-56743124D01*
X115509865Y-56744329D01*
X115517548Y-56746000D01*
X119439885Y-56746000D01*
X119455124Y-56741525D01*
X119456329Y-56740135D01*
X119458000Y-56732452D01*
X119458000Y-56597784D01*
X119457925Y-56594691D01*
X119443118Y-56291949D01*
X119442517Y-56285825D01*
X119383290Y-55884737D01*
X119382090Y-55878675D01*
X119284007Y-55485289D01*
X119282222Y-55479374D01*
X119146214Y-55097421D01*
X119143871Y-55091737D01*
X118971236Y-54724869D01*
X118968347Y-54719435D01*
X118760740Y-54371171D01*
X118757332Y-54366041D01*
X118516723Y-54039688D01*
X118512835Y-54034921D01*
X118241543Y-53733620D01*
X118237193Y-53729240D01*
X117937789Y-53455847D01*
X117933051Y-53451927D01*
X117608391Y-53209050D01*
X117603285Y-53205606D01*
X117256468Y-52995566D01*
X117251072Y-52992649D01*
X116885404Y-52817449D01*
X116879737Y-52815067D01*
X116498739Y-52676396D01*
X116492851Y-52674574D01*
X116100140Y-52573742D01*
X116094117Y-52572506D01*
X115693415Y-52510474D01*
X115687328Y-52509834D01*
X115522088Y-52500595D01*
X115506644Y-52504207D01*
X115504000Y-52514914D01*
X115504000Y-56727885D01*
X114996000Y-56727885D01*
X114996000Y-52517021D01*
X114991525Y-52501782D01*
X114991200Y-52501500D01*
X114981128Y-52499529D01*
X114871238Y-52504135D01*
X114865112Y-52504692D01*
X114463601Y-52561121D01*
X114457548Y-52562276D01*
X114063463Y-52657615D01*
X114057566Y-52659351D01*
X113674669Y-52792690D01*
X113668956Y-52794998D01*
X113300896Y-52965065D01*
X113295442Y-52967917D01*
X112945731Y-53173091D01*
X112940583Y-53176460D01*
X112612552Y-53414788D01*
X112607782Y-53418623D01*
X112304560Y-53687837D01*
X112300180Y-53692125D01*
X112024683Y-53989635D01*
X112020738Y-53994337D01*
X111775599Y-54317297D01*
X111772121Y-54322375D01*
X111559668Y-54667713D01*
X111556703Y-54673106D01*
X111378966Y-55037521D01*
X111376540Y-55043180D01*
X111235208Y-55423211D01*
X111233350Y-55429068D01*
X111129775Y-55821085D01*
X111128500Y-55827085D01*
X111063674Y-56227331D01*
X111062987Y-56233452D01*
X111042126Y-56565045D01*
X111042000Y-56569036D01*
X111042000Y-56727885D01*
X109907557Y-56727885D01*
X109923602Y-56160080D01*
X109923882Y-56154525D01*
X109976722Y-55425942D01*
X109985720Y-55301885D01*
X109986244Y-55296355D01*
X110085651Y-54447279D01*
X110086416Y-54441792D01*
X110097864Y-54371171D01*
X110201515Y-53731708D01*
X110223200Y-53597927D01*
X110224211Y-53592457D01*
X110398105Y-52755441D01*
X110399357Y-52750022D01*
X110462547Y-52501500D01*
X110610015Y-51921524D01*
X110611499Y-51916183D01*
X110611955Y-51914675D01*
X110858522Y-51097772D01*
X110860245Y-51092488D01*
X110864749Y-51079644D01*
X111143155Y-50285749D01*
X111145089Y-50280603D01*
X111207672Y-50124565D01*
X124919964Y-50124565D01*
X124937437Y-50290807D01*
X124940167Y-50303650D01*
X124991819Y-50462617D01*
X124997165Y-50474625D01*
X125013363Y-50502680D01*
X125023569Y-50512411D01*
X125031590Y-50509200D01*
X125409978Y-50130812D01*
X125417592Y-50116868D01*
X125417461Y-50115035D01*
X125413210Y-50108420D01*
X125035233Y-49730443D01*
X125022853Y-49723683D01*
X125015938Y-49728859D01*
X124997165Y-49761375D01*
X124991819Y-49773383D01*
X124940167Y-49932350D01*
X124937437Y-49945193D01*
X124919964Y-50111435D01*
X124919964Y-50124565D01*
X111207672Y-50124565D01*
X111463329Y-49487132D01*
X111465509Y-49482026D01*
X111681111Y-49006379D01*
X111808852Y-48724565D01*
X124919964Y-48724565D01*
X124937437Y-48890807D01*
X124940167Y-48903650D01*
X124991819Y-49062617D01*
X124997165Y-49074625D01*
X125013363Y-49102680D01*
X125023569Y-49112411D01*
X125031590Y-49109200D01*
X125409978Y-48730812D01*
X125417592Y-48716868D01*
X125417461Y-48715035D01*
X125413210Y-48708420D01*
X125035233Y-48330443D01*
X125022853Y-48323683D01*
X125015938Y-48328859D01*
X124997165Y-48361375D01*
X124991819Y-48373383D01*
X124940167Y-48532350D01*
X124937437Y-48545193D01*
X124919964Y-48711435D01*
X124919964Y-48724565D01*
X111808852Y-48724565D01*
X111818454Y-48703381D01*
X111820854Y-48698384D01*
X111898618Y-48545193D01*
X112196059Y-47959242D01*
X125386493Y-47959242D01*
X125388090Y-47964880D01*
X125852831Y-48429621D01*
X125886857Y-48491933D01*
X125886967Y-48538455D01*
X125887635Y-48538525D01*
X125868771Y-48718000D01*
X125869461Y-48724565D01*
X125876454Y-48791093D01*
X125886974Y-48891187D01*
X125886974Y-48891188D01*
X125887635Y-48897475D01*
X125886485Y-48897596D01*
X125881581Y-48961877D01*
X125852831Y-49006379D01*
X125454022Y-49405188D01*
X125446408Y-49419132D01*
X125446539Y-49420965D01*
X125450790Y-49427580D01*
X125852831Y-49829621D01*
X125886857Y-49891933D01*
X125886967Y-49938455D01*
X125887635Y-49938525D01*
X125868771Y-50118000D01*
X125869461Y-50124565D01*
X125886405Y-50285771D01*
X125886974Y-50291187D01*
X125886974Y-50291188D01*
X125887635Y-50297475D01*
X125886485Y-50297596D01*
X125881581Y-50361877D01*
X125852831Y-50406379D01*
X125393500Y-50865710D01*
X125386740Y-50878090D01*
X125390251Y-50882780D01*
X125490195Y-50927278D01*
X125544291Y-50973259D01*
X125564940Y-51041186D01*
X125559311Y-51079644D01*
X125539318Y-51144232D01*
X125518645Y-51340925D01*
X125536570Y-51537888D01*
X125592410Y-51727619D01*
X125595263Y-51733077D01*
X125595265Y-51733081D01*
X125642720Y-51823853D01*
X125684040Y-51902890D01*
X125807968Y-52057025D01*
X125812692Y-52060989D01*
X125819933Y-52067065D01*
X125959474Y-52184154D01*
X125964872Y-52187121D01*
X125964877Y-52187125D01*
X126108180Y-52265905D01*
X126132787Y-52279433D01*
X126138654Y-52281294D01*
X126138656Y-52281295D01*
X126315436Y-52337373D01*
X126321306Y-52339235D01*
X126475227Y-52356500D01*
X127581769Y-52356500D01*
X127584825Y-52356200D01*
X127584832Y-52356200D01*
X127643340Y-52350463D01*
X127728833Y-52342080D01*
X127734734Y-52340298D01*
X127734736Y-52340298D01*
X127808053Y-52318162D01*
X127918169Y-52284916D01*
X128092796Y-52192066D01*
X128179062Y-52121709D01*
X128241287Y-52070960D01*
X128241290Y-52070957D01*
X128246062Y-52067065D01*
X128271279Y-52036583D01*
X128368201Y-51919425D01*
X128368203Y-51919421D01*
X128372130Y-51914675D01*
X128466198Y-51740701D01*
X128524682Y-51551768D01*
X128545355Y-51355075D01*
X128532155Y-51210031D01*
X128527989Y-51164251D01*
X128527988Y-51164248D01*
X128527430Y-51158112D01*
X128521533Y-51138074D01*
X128521489Y-51067077D01*
X128559835Y-51007327D01*
X128624397Y-50977794D01*
X128642407Y-50976500D01*
X128672232Y-50976500D01*
X128678685Y-50975128D01*
X128678689Y-50975128D01*
X128771976Y-50955299D01*
X128848752Y-50938980D01*
X128874737Y-50927411D01*
X128980751Y-50880210D01*
X129051118Y-50870776D01*
X129083249Y-50880210D01*
X129189264Y-50927411D01*
X129215248Y-50938980D01*
X129292024Y-50955299D01*
X129385311Y-50975128D01*
X129385315Y-50975128D01*
X129391768Y-50976500D01*
X129420338Y-50976500D01*
X129488459Y-50996502D01*
X129534952Y-51050158D01*
X129545056Y-51120432D01*
X129542367Y-51132367D01*
X129541139Y-51138349D01*
X129539318Y-51144232D01*
X129518645Y-51340925D01*
X129536570Y-51537888D01*
X129592410Y-51727619D01*
X129595263Y-51733077D01*
X129595265Y-51733081D01*
X129642720Y-51823853D01*
X129684040Y-51902890D01*
X129807968Y-52057025D01*
X129812692Y-52060989D01*
X129819933Y-52067065D01*
X129959474Y-52184154D01*
X129964872Y-52187121D01*
X129964877Y-52187125D01*
X130108180Y-52265905D01*
X130132787Y-52279433D01*
X130138654Y-52281294D01*
X130138656Y-52281295D01*
X130315436Y-52337373D01*
X130321306Y-52339235D01*
X130475227Y-52356500D01*
X131581769Y-52356500D01*
X131584825Y-52356200D01*
X131584832Y-52356200D01*
X131643340Y-52350463D01*
X131728833Y-52342080D01*
X131734734Y-52340298D01*
X131734736Y-52340298D01*
X131808053Y-52318162D01*
X131918169Y-52284916D01*
X132092796Y-52192066D01*
X132179062Y-52121709D01*
X132241287Y-52070960D01*
X132241290Y-52070957D01*
X132246062Y-52067065D01*
X132271279Y-52036583D01*
X132368201Y-51919425D01*
X132368203Y-51919421D01*
X132372130Y-51914675D01*
X132466198Y-51740701D01*
X132524682Y-51551768D01*
X132545355Y-51355075D01*
X132532155Y-51210031D01*
X132527989Y-51164251D01*
X132527988Y-51164248D01*
X132527430Y-51158112D01*
X132519853Y-51132367D01*
X132503880Y-51078092D01*
X132503836Y-51007095D01*
X132542182Y-50947345D01*
X132573505Y-50927411D01*
X132666763Y-50885890D01*
X132677507Y-50876758D01*
X132675910Y-50871120D01*
X132211169Y-50406379D01*
X132177143Y-50344067D01*
X132177033Y-50297545D01*
X132176365Y-50297475D01*
X132177018Y-50291258D01*
X132177596Y-50285771D01*
X132194539Y-50124565D01*
X132195110Y-50119132D01*
X132646408Y-50119132D01*
X132646539Y-50120965D01*
X132650790Y-50127580D01*
X133028767Y-50505557D01*
X133041147Y-50512317D01*
X133048062Y-50507141D01*
X133066835Y-50474625D01*
X133072181Y-50462617D01*
X133123833Y-50303650D01*
X133126563Y-50290807D01*
X133144036Y-50124565D01*
X133144036Y-50111435D01*
X133126563Y-49945193D01*
X133123833Y-49932350D01*
X133072181Y-49773383D01*
X133066835Y-49761375D01*
X133050637Y-49733320D01*
X133040431Y-49723589D01*
X133032410Y-49726800D01*
X132654022Y-50105188D01*
X132646408Y-50119132D01*
X132195110Y-50119132D01*
X132195229Y-50118000D01*
X132177019Y-49944742D01*
X132176365Y-49938525D01*
X132177515Y-49938404D01*
X132182419Y-49874123D01*
X132211169Y-49829621D01*
X132609978Y-49430812D01*
X132617592Y-49416868D01*
X132617461Y-49415035D01*
X132613210Y-49408420D01*
X132211169Y-49006379D01*
X132177143Y-48944067D01*
X132177033Y-48897545D01*
X132176365Y-48897475D01*
X132177018Y-48891258D01*
X132187547Y-48791093D01*
X132194539Y-48724565D01*
X132195110Y-48719132D01*
X132646408Y-48719132D01*
X132646539Y-48720965D01*
X132650790Y-48727580D01*
X133028767Y-49105557D01*
X133041147Y-49112317D01*
X133048062Y-49107141D01*
X133066835Y-49074625D01*
X133072181Y-49062617D01*
X133123833Y-48903650D01*
X133126563Y-48890807D01*
X133144036Y-48724565D01*
X133144036Y-48711435D01*
X133126563Y-48545193D01*
X133123833Y-48532350D01*
X133072181Y-48373383D01*
X133066835Y-48361375D01*
X133050637Y-48333320D01*
X133040431Y-48323589D01*
X133032410Y-48326800D01*
X132654022Y-48705188D01*
X132646408Y-48719132D01*
X132195110Y-48719132D01*
X132195229Y-48718000D01*
X132177019Y-48544742D01*
X132176365Y-48538525D01*
X132177515Y-48538404D01*
X132182419Y-48474123D01*
X132211169Y-48429621D01*
X132670500Y-47970290D01*
X132677260Y-47957910D01*
X132673749Y-47953220D01*
X132573805Y-47908722D01*
X132519709Y-47862741D01*
X132499060Y-47794814D01*
X132504689Y-47756356D01*
X132510507Y-47737560D01*
X132524682Y-47691768D01*
X132545355Y-47495075D01*
X132527430Y-47298112D01*
X132515758Y-47258451D01*
X132473330Y-47114294D01*
X132471590Y-47108381D01*
X132461919Y-47089881D01*
X132382813Y-46938568D01*
X132379960Y-46933110D01*
X132256032Y-46778975D01*
X132249727Y-46773684D01*
X132233334Y-46759929D01*
X132104526Y-46651846D01*
X132099128Y-46648879D01*
X132099123Y-46648875D01*
X131936608Y-46559533D01*
X131936609Y-46559533D01*
X131931213Y-46556567D01*
X131925346Y-46554706D01*
X131925344Y-46554705D01*
X131748564Y-46498627D01*
X131748563Y-46498627D01*
X131742694Y-46496765D01*
X131588773Y-46479500D01*
X130482231Y-46479500D01*
X130479175Y-46479800D01*
X130479168Y-46479800D01*
X130420660Y-46485537D01*
X130335167Y-46493920D01*
X130329266Y-46495702D01*
X130329264Y-46495702D01*
X130262038Y-46515999D01*
X130145831Y-46551084D01*
X129971204Y-46643934D01*
X129884938Y-46714291D01*
X129822713Y-46765040D01*
X129822710Y-46765043D01*
X129817938Y-46768935D01*
X129814011Y-46773682D01*
X129814009Y-46773684D01*
X129695799Y-46916575D01*
X129695797Y-46916579D01*
X129691870Y-46921325D01*
X129597802Y-47095299D01*
X129539318Y-47284232D01*
X129518645Y-47480925D01*
X129536570Y-47677888D01*
X129538309Y-47683798D01*
X129538310Y-47683801D01*
X129542467Y-47697926D01*
X129542511Y-47768923D01*
X129504165Y-47828673D01*
X129439603Y-47858206D01*
X129421593Y-47859500D01*
X129391768Y-47859500D01*
X129385315Y-47860872D01*
X129385311Y-47860872D01*
X129303508Y-47878260D01*
X129215248Y-47897020D01*
X129209221Y-47899703D01*
X129209213Y-47899706D01*
X129201751Y-47903029D01*
X129131384Y-47912466D01*
X129067086Y-47882361D01*
X129029271Y-47822273D01*
X129024499Y-47787924D01*
X129024499Y-46056135D01*
X129025577Y-46039689D01*
X129028671Y-46016187D01*
X129029749Y-46007999D01*
X129024499Y-45968119D01*
X129024499Y-45968114D01*
X129008837Y-45849149D01*
X128987621Y-45797928D01*
X128947523Y-45701123D01*
X128944006Y-45696540D01*
X128927539Y-45628665D01*
X128928087Y-45621483D01*
X128928814Y-45614568D01*
X128928814Y-45614565D01*
X128929504Y-45608000D01*
X128909542Y-45418072D01*
X128850527Y-45236444D01*
X128755040Y-45071056D01*
X128737471Y-45051543D01*
X128631675Y-44934045D01*
X128631674Y-44934044D01*
X128627253Y-44929134D01*
X128472752Y-44816882D01*
X128466724Y-44814198D01*
X128466722Y-44814197D01*
X128304319Y-44741891D01*
X128304318Y-44741891D01*
X128298288Y-44739206D01*
X128178843Y-44713817D01*
X128117944Y-44700872D01*
X128117939Y-44700872D01*
X128111487Y-44699500D01*
X127920513Y-44699500D01*
X127914061Y-44700872D01*
X127914056Y-44700872D01*
X127853157Y-44713817D01*
X127733712Y-44739206D01*
X127727682Y-44741891D01*
X127727681Y-44741891D01*
X127565278Y-44814197D01*
X127565276Y-44814198D01*
X127559248Y-44816882D01*
X127404747Y-44929134D01*
X127400326Y-44934044D01*
X127400325Y-44934045D01*
X127294530Y-45051543D01*
X127276960Y-45071056D01*
X127181473Y-45236444D01*
X127122458Y-45418072D01*
X127102496Y-45608000D01*
X127103186Y-45614565D01*
X127112284Y-45701123D01*
X127122458Y-45797928D01*
X127181473Y-45979556D01*
X127184776Y-45985278D01*
X127184777Y-45985279D01*
X127202622Y-46016187D01*
X127276960Y-46144944D01*
X127281378Y-46149851D01*
X127281379Y-46149852D01*
X127388831Y-46269190D01*
X127419549Y-46333197D01*
X127410784Y-46403651D01*
X127365321Y-46458182D01*
X127295195Y-46479500D01*
X126482231Y-46479500D01*
X126479175Y-46479800D01*
X126479168Y-46479800D01*
X126420660Y-46485537D01*
X126335167Y-46493920D01*
X126329266Y-46495702D01*
X126329264Y-46495702D01*
X126262038Y-46515999D01*
X126145831Y-46551084D01*
X125971204Y-46643934D01*
X125884938Y-46714291D01*
X125822713Y-46765040D01*
X125822710Y-46765043D01*
X125817938Y-46768935D01*
X125814011Y-46773682D01*
X125814009Y-46773684D01*
X125695799Y-46916575D01*
X125695797Y-46916579D01*
X125691870Y-46921325D01*
X125597802Y-47095299D01*
X125539318Y-47284232D01*
X125518645Y-47480925D01*
X125536570Y-47677888D01*
X125538310Y-47683798D01*
X125538310Y-47683801D01*
X125560120Y-47757908D01*
X125560164Y-47828905D01*
X125521818Y-47888655D01*
X125490495Y-47908589D01*
X125397237Y-47950110D01*
X125386493Y-47959242D01*
X112196059Y-47959242D01*
X112207796Y-47936121D01*
X112210422Y-47931219D01*
X112230500Y-47895648D01*
X112630655Y-47186727D01*
X112633491Y-47181953D01*
X112675724Y-47114294D01*
X113086151Y-46456767D01*
X113089163Y-46452169D01*
X113573423Y-45747614D01*
X113576664Y-45743115D01*
X113816928Y-45424635D01*
X114091530Y-45060641D01*
X114094955Y-45056303D01*
X114551031Y-44504232D01*
X114639433Y-44397223D01*
X114643070Y-44393014D01*
X115216080Y-43758633D01*
X115219898Y-43754589D01*
X115820354Y-43146108D01*
X115824347Y-43142236D01*
X116451087Y-42560835D01*
X116455248Y-42557143D01*
X116911066Y-42170289D01*
X117107028Y-42003976D01*
X117111343Y-42000475D01*
X117217954Y-41917803D01*
X117429859Y-41753481D01*
X117495947Y-41727543D01*
X117565567Y-41741453D01*
X117616615Y-41790795D01*
X117632884Y-41859903D01*
X117630776Y-41876985D01*
X117579482Y-42142105D01*
X117579481Y-42142114D01*
X117578763Y-42145824D01*
X117578496Y-42149600D01*
X117578495Y-42149605D01*
X117563993Y-42354424D01*
X117555698Y-42471585D01*
X117571936Y-42797759D01*
X117572577Y-42801490D01*
X117572578Y-42801498D01*
X117587109Y-42886060D01*
X117627241Y-43119619D01*
X117720814Y-43432504D01*
X117851297Y-43731881D01*
X117853220Y-43735152D01*
X117853222Y-43735156D01*
X117895584Y-43807215D01*
X118016802Y-44013414D01*
X118019103Y-44016429D01*
X118212631Y-44270012D01*
X118212636Y-44270017D01*
X118214931Y-44273025D01*
X118276931Y-44336670D01*
X118335920Y-44397223D01*
X118442814Y-44506953D01*
X118515635Y-44565607D01*
X118694196Y-44709431D01*
X118694201Y-44709435D01*
X118697149Y-44711809D01*
X118974253Y-44884627D01*
X119270112Y-45022903D01*
X119273721Y-45024086D01*
X119534979Y-45109731D01*
X119580440Y-45124634D01*
X119900742Y-45188346D01*
X119904514Y-45188633D01*
X119904522Y-45188634D01*
X120222602Y-45212829D01*
X120222607Y-45212829D01*
X120226379Y-45213116D01*
X120552633Y-45198586D01*
X120612425Y-45188634D01*
X120871037Y-45145590D01*
X120871042Y-45145589D01*
X120874778Y-45144967D01*
X121188149Y-45053034D01*
X121191616Y-45051544D01*
X121191620Y-45051543D01*
X121484721Y-44925616D01*
X121484723Y-44925615D01*
X121488205Y-44924119D01*
X121770601Y-44760091D01*
X122031245Y-44563324D01*
X122266363Y-44336670D01*
X122472549Y-44083410D01*
X122646815Y-43807215D01*
X122669832Y-43758633D01*
X122785009Y-43515522D01*
X122786638Y-43512084D01*
X122813188Y-43432504D01*
X122888790Y-43205897D01*
X122888792Y-43205891D01*
X122889992Y-43202293D01*
X122955381Y-42882329D01*
X122961956Y-42801498D01*
X122981674Y-42559061D01*
X122981856Y-42556826D01*
X122982451Y-42500000D01*
X122980510Y-42467796D01*
X122963026Y-42177793D01*
X122963026Y-42177789D01*
X122962798Y-42174015D01*
X122957650Y-42145824D01*
X122904805Y-41856473D01*
X122904804Y-41856469D01*
X122904125Y-41852751D01*
X122902401Y-41847197D01*
X122808404Y-41544477D01*
X122807282Y-41540863D01*
X122673670Y-41242869D01*
X122505226Y-40963084D01*
X122502899Y-40960100D01*
X122502894Y-40960093D01*
X122306726Y-40708558D01*
X122306724Y-40708556D01*
X122304390Y-40705563D01*
X122074070Y-40474034D01*
X121940184Y-40368487D01*
X121899071Y-40310606D01*
X121895777Y-40239686D01*
X121931349Y-40178243D01*
X121994491Y-40145786D01*
X122018190Y-40143537D01*
X136807678Y-40143537D01*
X136875799Y-40163539D01*
G37*
%TD.AperFunction*%
%TD*%
M02*
