M48
; DRILL file {KiCad (6.0.10)} date Tue Sep  5 22:22:08 2023
; FORMAT={-:-/ absolute / inch / decimal}
; #@! TF.CreationDate,2023-09-05T22:22:08+02:00
; #@! TF.GenerationSoftware,Kicad,Pcbnew,(6.0.10)
; #@! TF.FileFunction,Plated,1,2,PTH
FMAT,2
INCH
; #@! TA.AperFunction,Plated,PTH,ViaDrill
T1C0.0157
; #@! TA.AperFunction,Plated,PTH,ComponentDrill
T2C0.0295
; #@! TA.AperFunction,Plated,PTH,ComponentDrill
T3C0.0394
; #@! TA.AperFunction,Plated,PTH,ComponentDrill
T4C0.0866
%
G90
G05
T1
X5.95Y-4.765
X5.95Y-5.1
X6.285Y-4.07
X6.31Y-4.365
X6.565Y-4.015
X6.615Y-4.155
X6.64Y-4.605
X6.69Y-4.775
X6.69Y-4.81
T2
X6.175Y-5.2
X6.175Y-5.2787
X6.175Y-5.3575
X6.215Y-4.16
X6.215Y-4.2387
X6.215Y-4.3175
X6.54Y-5.045
X6.54Y-5.1238
X6.54Y-5.2025
X6.54Y-5.2813
X6.54Y-5.36
X6.56Y-4.2838
X6.56Y-4.3625
X6.56Y-4.4413
X6.56Y-4.52
T3
X6.32Y-4.545
X6.32Y-4.6434
X6.32Y-4.885
X6.32Y-4.9834
T4
X5.85Y-4.03
X6.355Y-5.37
X6.76Y-4.03
T0
M30
