%TF.GenerationSoftware,KiCad,Pcbnew,(5.1.6)-1*%
%TF.CreationDate,2021-06-03T21:43:07+02:00*%
%TF.ProjectId,incubator_breakout,696e6375-6261-4746-9f72-5f627265616b,rev?*%
%TF.SameCoordinates,Original*%
%TF.FileFunction,Legend,Top*%
%TF.FilePolarity,Positive*%
%FSLAX46Y46*%
G04 Gerber Fmt 4.6, Leading zero omitted, Abs format (unit mm)*
G04 Created by KiCad (PCBNEW (5.1.6)-1) date 2021-06-03 21:43:07*
%MOMM*%
%LPD*%
G01*
G04 APERTURE LIST*
%ADD10C,0.200000*%
%ADD11C,0.120000*%
%ADD12C,0.150000*%
%ADD13C,0.254000*%
G04 APERTURE END LIST*
D10*
%TO.C,Q1*%
X170383000Y-124751000D02*
X167183000Y-124751000D01*
X167183000Y-124751000D02*
X167183000Y-119851000D01*
X167183000Y-119851000D02*
X170383000Y-119851000D01*
X170383000Y-119851000D02*
X170383000Y-124751000D01*
X172258000Y-124906000D02*
X170733000Y-124906000D01*
D11*
%TO.C,C6*%
X170553748Y-117654000D02*
X171076252Y-117654000D01*
X170553748Y-119074000D02*
X171076252Y-119074000D01*
%TO.C,C5*%
X160072000Y-131833252D02*
X160072000Y-131310748D01*
X161492000Y-131833252D02*
X161492000Y-131310748D01*
%TO.C,C4*%
X147820748Y-128830000D02*
X148343252Y-128830000D01*
X147820748Y-130250000D02*
X148343252Y-130250000D01*
%TO.C,C3*%
X148455748Y-120067000D02*
X148978252Y-120067000D01*
X148455748Y-121487000D02*
X148978252Y-121487000D01*
%TO.C,C2*%
X162821252Y-111835000D02*
X162298748Y-111835000D01*
X162821252Y-110415000D02*
X162298748Y-110415000D01*
%TO.C,C1*%
X161932252Y-106247000D02*
X161409748Y-106247000D01*
X161932252Y-104827000D02*
X161409748Y-104827000D01*
%TO.C,R1*%
X166752748Y-117654000D02*
X167275252Y-117654000D01*
X166752748Y-119074000D02*
X167275252Y-119074000D01*
%TO.C,J6*%
X157721000Y-104804000D02*
X157721000Y-104524000D01*
X157721000Y-104524000D02*
X159321000Y-104524000D01*
X159321000Y-104524000D02*
X159321000Y-103604000D01*
X159321000Y-103604000D02*
X151501000Y-103604000D01*
X151501000Y-103604000D02*
X151501000Y-111724000D01*
X151501000Y-111724000D02*
X159321000Y-111724000D01*
X159321000Y-111724000D02*
X159321000Y-110804000D01*
X159321000Y-110804000D02*
X157721000Y-110804000D01*
X157721000Y-110804000D02*
X157721000Y-110524000D01*
X151501000Y-106164000D02*
X155861000Y-106164000D01*
X155861000Y-106164000D02*
X155861000Y-109164000D01*
X155861000Y-109164000D02*
X151501000Y-109164000D01*
X157721000Y-103604000D02*
X157721000Y-104524000D01*
X157721000Y-111724000D02*
X157721000Y-110804000D01*
X155361000Y-104364000D02*
X153761000Y-104364000D01*
X153761000Y-104364000D02*
X153761000Y-105364000D01*
X153761000Y-105364000D02*
X155361000Y-105364000D01*
X155361000Y-105364000D02*
X155361000Y-104364000D01*
X155361000Y-110964000D02*
X153761000Y-110964000D01*
X153761000Y-110964000D02*
X153761000Y-109964000D01*
X153761000Y-109964000D02*
X155361000Y-109964000D01*
X155361000Y-109964000D02*
X155361000Y-110964000D01*
X153761000Y-105364000D02*
X151501000Y-105364000D01*
X153761000Y-104864000D02*
X151501000Y-104864000D01*
X157721000Y-104804000D02*
X158936000Y-104804000D01*
%TO.C,J5*%
X151218000Y-116693000D02*
X151218000Y-112883000D01*
X151218000Y-112883000D02*
X162938000Y-112883000D01*
X162938000Y-112883000D02*
X162938000Y-114303000D01*
X162938000Y-114303000D02*
X158438000Y-114303000D01*
X158438000Y-114303000D02*
X158438000Y-116693000D01*
X151218000Y-116693000D02*
X151218000Y-120503000D01*
X151218000Y-120503000D02*
X162938000Y-120503000D01*
X162938000Y-120503000D02*
X162938000Y-119083000D01*
X162938000Y-119083000D02*
X158438000Y-119083000D01*
X158438000Y-119083000D02*
X158438000Y-116693000D01*
X157328000Y-115193000D02*
X151828000Y-115193000D01*
X151828000Y-115193000D02*
X151828000Y-115693000D01*
X151828000Y-115693000D02*
X157328000Y-115693000D01*
X157328000Y-115693000D02*
X157328000Y-115193000D01*
X157328000Y-117693000D02*
X151828000Y-117693000D01*
X151828000Y-117693000D02*
X151828000Y-118193000D01*
X151828000Y-118193000D02*
X157328000Y-118193000D01*
X157328000Y-118193000D02*
X157328000Y-117693000D01*
X162028000Y-115443000D02*
X162628000Y-115143000D01*
X162628000Y-115143000D02*
X162628000Y-115743000D01*
X162628000Y-115743000D02*
X162028000Y-115443000D01*
%TO.C,J4*%
X166764000Y-115668000D02*
X166764000Y-115948000D01*
X166764000Y-115948000D02*
X165164000Y-115948000D01*
X165164000Y-115948000D02*
X165164000Y-116868000D01*
X165164000Y-116868000D02*
X172984000Y-116868000D01*
X172984000Y-116868000D02*
X172984000Y-106748000D01*
X172984000Y-106748000D02*
X165164000Y-106748000D01*
X165164000Y-106748000D02*
X165164000Y-107668000D01*
X165164000Y-107668000D02*
X166764000Y-107668000D01*
X166764000Y-107668000D02*
X166764000Y-107948000D01*
X172984000Y-114308000D02*
X168624000Y-114308000D01*
X168624000Y-114308000D02*
X168624000Y-109308000D01*
X168624000Y-109308000D02*
X172984000Y-109308000D01*
X166764000Y-116868000D02*
X166764000Y-115948000D01*
X166764000Y-106748000D02*
X166764000Y-107668000D01*
X169124000Y-116108000D02*
X170724000Y-116108000D01*
X170724000Y-116108000D02*
X170724000Y-115108000D01*
X170724000Y-115108000D02*
X169124000Y-115108000D01*
X169124000Y-115108000D02*
X169124000Y-116108000D01*
X169124000Y-107508000D02*
X170724000Y-107508000D01*
X170724000Y-107508000D02*
X170724000Y-108508000D01*
X170724000Y-108508000D02*
X169124000Y-108508000D01*
X169124000Y-108508000D02*
X169124000Y-107508000D01*
X170724000Y-115108000D02*
X172984000Y-115108000D01*
X170724000Y-115608000D02*
X172984000Y-115608000D01*
X166764000Y-115668000D02*
X165549000Y-115668000D01*
%TO.C,J1*%
X151218000Y-125329000D02*
X151218000Y-121519000D01*
X151218000Y-121519000D02*
X162938000Y-121519000D01*
X162938000Y-121519000D02*
X162938000Y-122939000D01*
X162938000Y-122939000D02*
X158438000Y-122939000D01*
X158438000Y-122939000D02*
X158438000Y-125329000D01*
X151218000Y-125329000D02*
X151218000Y-129139000D01*
X151218000Y-129139000D02*
X162938000Y-129139000D01*
X162938000Y-129139000D02*
X162938000Y-127719000D01*
X162938000Y-127719000D02*
X158438000Y-127719000D01*
X158438000Y-127719000D02*
X158438000Y-125329000D01*
X157328000Y-123829000D02*
X151828000Y-123829000D01*
X151828000Y-123829000D02*
X151828000Y-124329000D01*
X151828000Y-124329000D02*
X157328000Y-124329000D01*
X157328000Y-124329000D02*
X157328000Y-123829000D01*
X157328000Y-126329000D02*
X151828000Y-126329000D01*
X151828000Y-126329000D02*
X151828000Y-126829000D01*
X151828000Y-126829000D02*
X157328000Y-126829000D01*
X157328000Y-126829000D02*
X157328000Y-126329000D01*
X162028000Y-124079000D02*
X162628000Y-123779000D01*
X162628000Y-123779000D02*
X162628000Y-124379000D01*
X162628000Y-124379000D02*
X162028000Y-124079000D01*
%TO.C,J3*%
X166256000Y-137004000D02*
X165041000Y-137004000D01*
X170216000Y-136944000D02*
X172476000Y-136944000D01*
X170216000Y-136444000D02*
X172476000Y-136444000D01*
X168616000Y-127844000D02*
X168616000Y-126844000D01*
X170216000Y-127844000D02*
X168616000Y-127844000D01*
X170216000Y-126844000D02*
X170216000Y-127844000D01*
X168616000Y-126844000D02*
X170216000Y-126844000D01*
X168616000Y-136444000D02*
X168616000Y-137444000D01*
X170216000Y-136444000D02*
X168616000Y-136444000D01*
X170216000Y-137444000D02*
X170216000Y-136444000D01*
X168616000Y-137444000D02*
X170216000Y-137444000D01*
X166256000Y-126084000D02*
X166256000Y-127004000D01*
X166256000Y-138204000D02*
X166256000Y-137284000D01*
X168116000Y-128644000D02*
X172476000Y-128644000D01*
X168116000Y-135644000D02*
X168116000Y-128644000D01*
X172476000Y-135644000D02*
X168116000Y-135644000D01*
X166256000Y-127004000D02*
X166256000Y-127284000D01*
X164656000Y-127004000D02*
X166256000Y-127004000D01*
X164656000Y-126084000D02*
X164656000Y-127004000D01*
X172476000Y-126084000D02*
X164656000Y-126084000D01*
X172476000Y-138204000D02*
X172476000Y-126084000D01*
X164656000Y-138204000D02*
X172476000Y-138204000D01*
X164656000Y-137284000D02*
X164656000Y-138204000D01*
X166256000Y-137284000D02*
X164656000Y-137284000D01*
X166256000Y-137004000D02*
X166256000Y-137284000D01*
%TO.C,J2*%
X156705000Y-131220000D02*
X157920000Y-131220000D01*
X152745000Y-131280000D02*
X150485000Y-131280000D01*
X152745000Y-131780000D02*
X150485000Y-131780000D01*
X154345000Y-136380000D02*
X154345000Y-137380000D01*
X152745000Y-136380000D02*
X154345000Y-136380000D01*
X152745000Y-137380000D02*
X152745000Y-136380000D01*
X154345000Y-137380000D02*
X152745000Y-137380000D01*
X154345000Y-131780000D02*
X154345000Y-130780000D01*
X152745000Y-131780000D02*
X154345000Y-131780000D01*
X152745000Y-130780000D02*
X152745000Y-131780000D01*
X154345000Y-130780000D02*
X152745000Y-130780000D01*
X156705000Y-138140000D02*
X156705000Y-137220000D01*
X156705000Y-130020000D02*
X156705000Y-130940000D01*
X154845000Y-135580000D02*
X150485000Y-135580000D01*
X154845000Y-132580000D02*
X154845000Y-135580000D01*
X150485000Y-132580000D02*
X154845000Y-132580000D01*
X156705000Y-137220000D02*
X156705000Y-136940000D01*
X158305000Y-137220000D02*
X156705000Y-137220000D01*
X158305000Y-138140000D02*
X158305000Y-137220000D01*
X150485000Y-138140000D02*
X158305000Y-138140000D01*
X150485000Y-130020000D02*
X150485000Y-138140000D01*
X158305000Y-130020000D02*
X150485000Y-130020000D01*
X158305000Y-130940000D02*
X158305000Y-130020000D01*
X156705000Y-130940000D02*
X158305000Y-130940000D01*
X156705000Y-131220000D02*
X156705000Y-130940000D01*
%TO.C,R2*%
D12*
X161885333Y-110105780D02*
X161552000Y-109629590D01*
X161313904Y-110105780D02*
X161313904Y-109105780D01*
X161694857Y-109105780D01*
X161790095Y-109153400D01*
X161837714Y-109201019D01*
X161885333Y-109296257D01*
X161885333Y-109439114D01*
X161837714Y-109534352D01*
X161790095Y-109581971D01*
X161694857Y-109629590D01*
X161313904Y-109629590D01*
X162266285Y-109201019D02*
X162313904Y-109153400D01*
X162409142Y-109105780D01*
X162647238Y-109105780D01*
X162742476Y-109153400D01*
X162790095Y-109201019D01*
X162837714Y-109296257D01*
X162837714Y-109391495D01*
X162790095Y-109534352D01*
X162218666Y-110105780D01*
X162837714Y-110105780D01*
%TO.C,Q1*%
D13*
X168662047Y-122996476D02*
X168541095Y-122936000D01*
X168420142Y-122815047D01*
X168238714Y-122633619D01*
X168117761Y-122573142D01*
X167996809Y-122573142D01*
X168057285Y-122875523D02*
X167936333Y-122815047D01*
X167815380Y-122694095D01*
X167754904Y-122452190D01*
X167754904Y-122028857D01*
X167815380Y-121786952D01*
X167936333Y-121666000D01*
X168057285Y-121605523D01*
X168299190Y-121605523D01*
X168420142Y-121666000D01*
X168541095Y-121786952D01*
X168601571Y-122028857D01*
X168601571Y-122452190D01*
X168541095Y-122694095D01*
X168420142Y-122815047D01*
X168299190Y-122875523D01*
X168057285Y-122875523D01*
X169811095Y-122875523D02*
X169085380Y-122875523D01*
X169448238Y-122875523D02*
X169448238Y-121605523D01*
X169327285Y-121786952D01*
X169206333Y-121907904D01*
X169085380Y-121968380D01*
%TO.C,H3*%
D12*
X160655095Y-133650380D02*
X160655095Y-132650380D01*
X160655095Y-133126571D02*
X161226523Y-133126571D01*
X161226523Y-133650380D02*
X161226523Y-132650380D01*
X161607476Y-132650380D02*
X162226523Y-132650380D01*
X161893190Y-133031333D01*
X162036047Y-133031333D01*
X162131285Y-133078952D01*
X162178904Y-133126571D01*
X162226523Y-133221809D01*
X162226523Y-133459904D01*
X162178904Y-133555142D01*
X162131285Y-133602761D01*
X162036047Y-133650380D01*
X161750333Y-133650380D01*
X161655095Y-133602761D01*
X161607476Y-133555142D01*
%TO.C,H2*%
X147828095Y-99614380D02*
X147828095Y-98614380D01*
X147828095Y-99090571D02*
X148399523Y-99090571D01*
X148399523Y-99614380D02*
X148399523Y-98614380D01*
X148828095Y-98709619D02*
X148875714Y-98662000D01*
X148970952Y-98614380D01*
X149209047Y-98614380D01*
X149304285Y-98662000D01*
X149351904Y-98709619D01*
X149399523Y-98804857D01*
X149399523Y-98900095D01*
X149351904Y-99042952D01*
X148780476Y-99614380D01*
X149399523Y-99614380D01*
%TO.C,H1*%
X170942095Y-99614380D02*
X170942095Y-98614380D01*
X170942095Y-99090571D02*
X171513523Y-99090571D01*
X171513523Y-99614380D02*
X171513523Y-98614380D01*
X172513523Y-99614380D02*
X171942095Y-99614380D01*
X172227809Y-99614380D02*
X172227809Y-98614380D01*
X172132571Y-98757238D01*
X172037333Y-98852476D01*
X171942095Y-98900095D01*
%TO.C,C6*%
X170648333Y-117071142D02*
X170600714Y-117118761D01*
X170457857Y-117166380D01*
X170362619Y-117166380D01*
X170219761Y-117118761D01*
X170124523Y-117023523D01*
X170076904Y-116928285D01*
X170029285Y-116737809D01*
X170029285Y-116594952D01*
X170076904Y-116404476D01*
X170124523Y-116309238D01*
X170219761Y-116214000D01*
X170362619Y-116166380D01*
X170457857Y-116166380D01*
X170600714Y-116214000D01*
X170648333Y-116261619D01*
X171505476Y-116166380D02*
X171315000Y-116166380D01*
X171219761Y-116214000D01*
X171172142Y-116261619D01*
X171076904Y-116404476D01*
X171029285Y-116594952D01*
X171029285Y-116975904D01*
X171076904Y-117071142D01*
X171124523Y-117118761D01*
X171219761Y-117166380D01*
X171410238Y-117166380D01*
X171505476Y-117118761D01*
X171553095Y-117071142D01*
X171600714Y-116975904D01*
X171600714Y-116737809D01*
X171553095Y-116642571D01*
X171505476Y-116594952D01*
X171410238Y-116547333D01*
X171219761Y-116547333D01*
X171124523Y-116594952D01*
X171076904Y-116642571D01*
X171029285Y-116737809D01*
%TO.C,C5*%
X159489142Y-131738666D02*
X159536761Y-131786285D01*
X159584380Y-131929142D01*
X159584380Y-132024380D01*
X159536761Y-132167238D01*
X159441523Y-132262476D01*
X159346285Y-132310095D01*
X159155809Y-132357714D01*
X159012952Y-132357714D01*
X158822476Y-132310095D01*
X158727238Y-132262476D01*
X158632000Y-132167238D01*
X158584380Y-132024380D01*
X158584380Y-131929142D01*
X158632000Y-131786285D01*
X158679619Y-131738666D01*
X158584380Y-130833904D02*
X158584380Y-131310095D01*
X159060571Y-131357714D01*
X159012952Y-131310095D01*
X158965333Y-131214857D01*
X158965333Y-130976761D01*
X159012952Y-130881523D01*
X159060571Y-130833904D01*
X159155809Y-130786285D01*
X159393904Y-130786285D01*
X159489142Y-130833904D01*
X159536761Y-130881523D01*
X159584380Y-130976761D01*
X159584380Y-131214857D01*
X159536761Y-131310095D01*
X159489142Y-131357714D01*
%TO.C,C4*%
X147915333Y-128247142D02*
X147867714Y-128294761D01*
X147724857Y-128342380D01*
X147629619Y-128342380D01*
X147486761Y-128294761D01*
X147391523Y-128199523D01*
X147343904Y-128104285D01*
X147296285Y-127913809D01*
X147296285Y-127770952D01*
X147343904Y-127580476D01*
X147391523Y-127485238D01*
X147486761Y-127390000D01*
X147629619Y-127342380D01*
X147724857Y-127342380D01*
X147867714Y-127390000D01*
X147915333Y-127437619D01*
X148772476Y-127675714D02*
X148772476Y-128342380D01*
X148534380Y-127294761D02*
X148296285Y-128009047D01*
X148915333Y-128009047D01*
%TO.C,C3*%
X148550333Y-119484142D02*
X148502714Y-119531761D01*
X148359857Y-119579380D01*
X148264619Y-119579380D01*
X148121761Y-119531761D01*
X148026523Y-119436523D01*
X147978904Y-119341285D01*
X147931285Y-119150809D01*
X147931285Y-119007952D01*
X147978904Y-118817476D01*
X148026523Y-118722238D01*
X148121761Y-118627000D01*
X148264619Y-118579380D01*
X148359857Y-118579380D01*
X148502714Y-118627000D01*
X148550333Y-118674619D01*
X148883666Y-118579380D02*
X149502714Y-118579380D01*
X149169380Y-118960333D01*
X149312238Y-118960333D01*
X149407476Y-119007952D01*
X149455095Y-119055571D01*
X149502714Y-119150809D01*
X149502714Y-119388904D01*
X149455095Y-119484142D01*
X149407476Y-119531761D01*
X149312238Y-119579380D01*
X149026523Y-119579380D01*
X148931285Y-119531761D01*
X148883666Y-119484142D01*
%TO.C,C2*%
X162520333Y-109831142D02*
X162472714Y-109878761D01*
X162329857Y-109926380D01*
X162234619Y-109926380D01*
X162091761Y-109878761D01*
X161996523Y-109783523D01*
X161948904Y-109688285D01*
X161901285Y-109497809D01*
X161901285Y-109354952D01*
X161948904Y-109164476D01*
X161996523Y-109069238D01*
X162091761Y-108974000D01*
X162234619Y-108926380D01*
X162329857Y-108926380D01*
X162472714Y-108974000D01*
X162520333Y-109021619D01*
X162901285Y-109021619D02*
X162948904Y-108974000D01*
X163044142Y-108926380D01*
X163282238Y-108926380D01*
X163377476Y-108974000D01*
X163425095Y-109021619D01*
X163472714Y-109116857D01*
X163472714Y-109212095D01*
X163425095Y-109354952D01*
X162853666Y-109926380D01*
X163472714Y-109926380D01*
%TO.C,C1*%
X161504333Y-107544142D02*
X161456714Y-107591761D01*
X161313857Y-107639380D01*
X161218619Y-107639380D01*
X161075761Y-107591761D01*
X160980523Y-107496523D01*
X160932904Y-107401285D01*
X160885285Y-107210809D01*
X160885285Y-107067952D01*
X160932904Y-106877476D01*
X160980523Y-106782238D01*
X161075761Y-106687000D01*
X161218619Y-106639380D01*
X161313857Y-106639380D01*
X161456714Y-106687000D01*
X161504333Y-106734619D01*
X162456714Y-107639380D02*
X161885285Y-107639380D01*
X162171000Y-107639380D02*
X162171000Y-106639380D01*
X162075761Y-106782238D01*
X161980523Y-106877476D01*
X161885285Y-106925095D01*
%TO.C,R1*%
X166847333Y-117166380D02*
X166514000Y-116690190D01*
X166275904Y-117166380D02*
X166275904Y-116166380D01*
X166656857Y-116166380D01*
X166752095Y-116214000D01*
X166799714Y-116261619D01*
X166847333Y-116356857D01*
X166847333Y-116499714D01*
X166799714Y-116594952D01*
X166752095Y-116642571D01*
X166656857Y-116690190D01*
X166275904Y-116690190D01*
X167799714Y-117166380D02*
X167228285Y-117166380D01*
X167514000Y-117166380D02*
X167514000Y-116166380D01*
X167418761Y-116309238D01*
X167323523Y-116404476D01*
X167228285Y-116452095D01*
%TO.C,J6*%
X159863380Y-107997333D02*
X160577666Y-107997333D01*
X160720523Y-108044952D01*
X160815761Y-108140190D01*
X160863380Y-108283047D01*
X160863380Y-108378285D01*
X159863380Y-107092571D02*
X159863380Y-107283047D01*
X159911000Y-107378285D01*
X159958619Y-107425904D01*
X160101476Y-107521142D01*
X160291952Y-107568761D01*
X160672904Y-107568761D01*
X160768142Y-107521142D01*
X160815761Y-107473523D01*
X160863380Y-107378285D01*
X160863380Y-107187809D01*
X160815761Y-107092571D01*
X160768142Y-107044952D01*
X160672904Y-106997333D01*
X160434809Y-106997333D01*
X160339571Y-107044952D01*
X160291952Y-107092571D01*
X160244333Y-107187809D01*
X160244333Y-107378285D01*
X160291952Y-107473523D01*
X160339571Y-107521142D01*
X160434809Y-107568761D01*
%TO.C,J5*%
X163480380Y-117026333D02*
X164194666Y-117026333D01*
X164337523Y-117073952D01*
X164432761Y-117169190D01*
X164480380Y-117312047D01*
X164480380Y-117407285D01*
X163480380Y-116073952D02*
X163480380Y-116550142D01*
X163956571Y-116597761D01*
X163908952Y-116550142D01*
X163861333Y-116454904D01*
X163861333Y-116216809D01*
X163908952Y-116121571D01*
X163956571Y-116073952D01*
X164051809Y-116026333D01*
X164289904Y-116026333D01*
X164385142Y-116073952D01*
X164432761Y-116121571D01*
X164480380Y-116216809D01*
X164480380Y-116454904D01*
X164432761Y-116550142D01*
X164385142Y-116597761D01*
%TO.C,J4*%
X163526380Y-112141333D02*
X164240666Y-112141333D01*
X164383523Y-112188952D01*
X164478761Y-112284190D01*
X164526380Y-112427047D01*
X164526380Y-112522285D01*
X163859714Y-111236571D02*
X164526380Y-111236571D01*
X163478761Y-111474666D02*
X164193047Y-111712761D01*
X164193047Y-111093714D01*
%TO.C,J1*%
X163480380Y-125662333D02*
X164194666Y-125662333D01*
X164337523Y-125709952D01*
X164432761Y-125805190D01*
X164480380Y-125948047D01*
X164480380Y-126043285D01*
X164480380Y-124662333D02*
X164480380Y-125233761D01*
X164480380Y-124948047D02*
X163480380Y-124948047D01*
X163623238Y-125043285D01*
X163718476Y-125138523D01*
X163766095Y-125233761D01*
%TO.C,J3*%
X163018380Y-132477333D02*
X163732666Y-132477333D01*
X163875523Y-132524952D01*
X163970761Y-132620190D01*
X164018380Y-132763047D01*
X164018380Y-132858285D01*
X163018380Y-132096380D02*
X163018380Y-131477333D01*
X163399333Y-131810666D01*
X163399333Y-131667809D01*
X163446952Y-131572571D01*
X163494571Y-131524952D01*
X163589809Y-131477333D01*
X163827904Y-131477333D01*
X163923142Y-131524952D01*
X163970761Y-131572571D01*
X164018380Y-131667809D01*
X164018380Y-131953523D01*
X163970761Y-132048761D01*
X163923142Y-132096380D01*
%TO.C,J2*%
X158847380Y-134413333D02*
X159561666Y-134413333D01*
X159704523Y-134460952D01*
X159799761Y-134556190D01*
X159847380Y-134699047D01*
X159847380Y-134794285D01*
X158942619Y-133984761D02*
X158895000Y-133937142D01*
X158847380Y-133841904D01*
X158847380Y-133603809D01*
X158895000Y-133508571D01*
X158942619Y-133460952D01*
X159037857Y-133413333D01*
X159133095Y-133413333D01*
X159275952Y-133460952D01*
X159847380Y-134032380D01*
X159847380Y-133413333D01*
%TD*%
M02*
