M48
; DRILL file {KiCad (5.1.6)-1} date 06/03/21 21:43:09
; FORMAT={-:-/ absolute / inch / decimal}
; #@! TF.CreationDate,2021-06-03T21:43:09+02:00
; #@! TF.GenerationSoftware,Kicad,Pcbnew,(5.1.6)-1
FMAT,2
INCH
T1C0.0157
T2C0.0295
T3C0.0394
T4C0.0866
%
G90
G05
T1
X5.95Y-4.765
X5.95Y-5.1
X6.31Y-4.365
X6.63Y-4.6
X6.675Y-4.81
X6.81Y-4.8
T2
X6.56Y-4.2838
X6.56Y-4.3625
X6.56Y-4.4413
X6.56Y-4.52
X6.175Y-5.2
X6.175Y-5.2787
X6.175Y-5.3575
X6.215Y-4.16
X6.215Y-4.2387
X6.215Y-4.3175
X6.54Y-5.045
X6.54Y-5.1238
X6.54Y-5.2025
X6.54Y-5.2813
X6.54Y-5.36
T3
X6.32Y-4.545
X6.32Y-4.6434
X6.32Y-4.885
X6.32Y-4.9834
T4
X5.85Y-4.03
X6.76Y-4.03
X6.355Y-5.37
T0
M30
