M48
; DRILL file {KiCad (6.0.10)} date Thu Sep  7 19:24:19 2023
; FORMAT={-:-/ absolute / inch / decimal}
; #@! TF.CreationDate,2023-09-07T19:24:19+02:00
; #@! TF.GenerationSoftware,Kicad,Pcbnew,(6.0.10)
; #@! TF.FileFunction,Plated,1,2,PTH
FMAT,2
INCH
; #@! TA.AperFunction,Plated,PTH,ViaDrill
T1C0.0157
; #@! TA.AperFunction,Plated,PTH,ComponentDrill
T2C0.0236
; #@! TA.AperFunction,Plated,PTH,ComponentDrill
T3C0.0394
; #@! TA.AperFunction,Plated,PTH,ComponentDrill
T4C0.1693
%
G90
G05
T1
X4.705Y-3.45
X4.705Y-3.55
X4.705Y-3.65
X4.705Y-3.75
X4.705Y-3.85
X4.805Y-3.45
X4.805Y-3.55
X4.805Y-3.65
X4.805Y-3.75
X4.805Y-3.85
X4.805Y-4.425
X4.805Y-4.525
X4.805Y-4.625
X4.805Y-4.725
X4.805Y-4.825
X4.905Y-3.45
X4.905Y-3.55
X4.905Y-3.65
X4.905Y-3.75
X4.905Y-3.85
X4.905Y-4.425
X4.905Y-4.525
X4.905Y-4.625
X4.905Y-4.725
X4.905Y-4.825
X5.005Y-3.45
X5.005Y-3.55
X5.005Y-3.65
X5.005Y-3.75
X5.005Y-3.85
X5.005Y-4.425
X5.005Y-4.525
X5.005Y-4.625
X5.005Y-4.725
X5.005Y-4.825
X5.105Y-3.45
X5.105Y-3.55
X5.105Y-3.65
X5.105Y-3.75
X5.105Y-3.85
X5.105Y-4.425
X5.105Y-4.525
X5.105Y-4.625
X5.105Y-4.725
X5.105Y-4.825
X5.235Y-5.29
X5.235Y-5.33
X5.235Y-5.37
X5.275Y-5.29
X5.275Y-5.33
X5.275Y-5.37
X5.29Y-2.775
X5.29Y-2.815
X5.29Y-2.855
X5.315Y-5.29
X5.315Y-5.33
X5.315Y-5.37
X5.33Y-2.775
X5.33Y-2.815
X5.33Y-2.855
X5.37Y-2.775
X5.37Y-2.815
X5.37Y-2.855
X5.475Y-3.775
X5.475Y-3.815
X5.475Y-3.855
X5.477Y-4.283
X5.477Y-4.323
X5.477Y-4.363
X5.515Y-3.73
X5.515Y-3.775
X5.515Y-3.815
X5.515Y-3.855
X5.517Y-4.283
X5.517Y-4.323
X5.517Y-4.363
X5.5181Y-3.6763
X5.519Y-4.457
X5.52Y-3.625
X5.535Y-3.495
X5.535Y-3.535
X5.535Y-3.575
X5.555Y-3.775
X5.555Y-3.815
X5.555Y-3.855
X5.557Y-4.283
X5.557Y-4.323
X5.557Y-4.363
X5.575Y-3.495
X5.575Y-3.535
X5.575Y-3.575
X5.615Y-3.495
X5.615Y-3.535
X5.615Y-3.575
X5.705Y-4.005
X5.705Y-4.045
X5.705Y-4.085
X5.745Y-4.005
X5.745Y-4.045
X5.745Y-4.085
X5.78Y-5.65
X5.785Y-4.005
X5.785Y-4.045
X5.785Y-4.085
X5.83Y-5.65
X5.88Y-5.65
X5.905Y-4.435
X5.905Y-4.475
X5.905Y-4.515
X5.93Y-5.65
X5.945Y-4.435
X5.945Y-4.475
X5.945Y-4.5146
X5.975Y-3.62
X5.975Y-3.66
X5.975Y-3.7
X5.98Y-5.65
X5.985Y-4.435
X5.985Y-4.475
X5.985Y-4.515
X5.991Y-4.815
X5.991Y-4.855
X5.991Y-4.895
X6.015Y-3.62
X6.015Y-3.66
X6.015Y-3.701
X6.017Y-3.249
X6.017Y-3.289
X6.017Y-3.329
X6.025Y-4.025
X6.025Y-4.065
X6.025Y-4.105
X6.031Y-4.815
X6.031Y-4.855
X6.031Y-4.895
X6.055Y-2.425
X6.055Y-2.525
X6.055Y-2.625
X6.055Y-2.725
X6.055Y-2.825
X6.055Y-3.62
X6.055Y-3.66
X6.055Y-3.7
X6.055Y-5.1
X6.055Y-5.15
X6.055Y-5.2
X6.057Y-3.249
X6.057Y-3.289
X6.057Y-3.329
X6.065Y-4.025
X6.065Y-4.065
X6.065Y-4.105
X6.071Y-4.815
X6.071Y-4.855
X6.071Y-4.895
X6.095Y-3.015
X6.097Y-3.249
X6.097Y-3.289
X6.097Y-3.329
X6.105Y-4.025
X6.105Y-4.065
X6.105Y-4.105
X6.105Y-5.1
X6.105Y-5.15
X6.105Y-5.2
X6.13Y-5.7
X6.13Y-5.75
X6.135Y-5.359
X6.155Y-2.425
X6.155Y-2.525
X6.155Y-2.625
X6.155Y-2.725
X6.155Y-2.825
X6.155Y-3.385
X6.155Y-3.425
X6.155Y-3.465
X6.155Y-5.1
X6.155Y-5.15
X6.155Y-5.2
X6.157Y-4.687
X6.157Y-4.727
X6.157Y-4.767
X6.18Y-5.7
X6.18Y-5.75
X6.195Y-3.385
X6.195Y-3.425
X6.195Y-3.465
X6.197Y-4.687
X6.197Y-4.727
X6.197Y-4.7666
X6.2Y-3.245
X6.2Y-3.32
X6.2Y-3.2826
X6.205Y-5.1
X6.205Y-5.15
X6.205Y-5.2
X6.209Y-4.065
X6.23Y-5.7
X6.23Y-5.75
X6.235Y-3.385
X6.235Y-3.425
X6.235Y-3.465
X6.237Y-4.687
X6.237Y-4.727
X6.237Y-4.767
X6.255Y-2.425
X6.255Y-2.525
X6.255Y-2.625
X6.255Y-2.725
X6.255Y-2.825
X6.255Y-5.1
X6.255Y-5.15
X6.255Y-5.2
X6.271Y-5.355
X6.28Y-5.7
X6.28Y-5.75
X6.305Y-5.1
X6.305Y-5.15
X6.305Y-5.2
X6.307Y-4.023
X6.307Y-4.063
X6.307Y-4.103
X6.33Y-5.7
X6.33Y-5.75
X6.347Y-4.023
X6.347Y-4.063
X6.347Y-4.105
X6.355Y-2.425
X6.355Y-2.525
X6.355Y-2.625
X6.355Y-2.725
X6.355Y-2.825
X6.387Y-4.023
X6.387Y-4.063
X6.387Y-4.103
X6.425Y-4.935
X6.455Y-2.425
X6.455Y-2.525
X6.455Y-2.625
X6.455Y-2.725
X6.455Y-2.825
X6.48Y-5.065
X6.515Y-4.935
X6.515Y-5.065
X6.53Y-5.65
X6.56Y-5.11
X6.58Y-5.65
X6.63Y-4.065
X6.63Y-4.105
X6.63Y-4.145
X6.63Y-5.65
X6.665Y-5.045
X6.67Y-4.065
X6.67Y-4.105
X6.67Y-4.145
X6.68Y-5.65
X6.693Y-4.681
X6.693Y-4.721
X6.693Y-4.761
X6.71Y-4.065
X6.71Y-4.105
X6.71Y-4.145
X6.73Y-5.65
X6.733Y-4.681
X6.733Y-4.721
X6.733Y-4.761
X6.755Y-5.185
X6.773Y-4.681
X6.773Y-4.721
X6.773Y-4.761
X6.78Y-5.65
X6.789Y-4.285
X6.789Y-4.325
X6.789Y-4.365
X6.829Y-4.285
X6.829Y-4.325
X6.829Y-4.365
X6.837Y-3.501
X6.837Y-3.541
X6.837Y-3.581
X6.869Y-4.285
X6.869Y-4.325
X6.869Y-4.365
X6.877Y-3.501
X6.877Y-3.541
X6.877Y-3.581
X6.881Y-3.629
X6.8819Y-3.6763
X6.883Y-3.721
X6.917Y-3.501
X6.917Y-3.541
X6.917Y-3.581
X6.979Y-3.653
X6.979Y-3.693
X6.979Y-3.733
X7.019Y-3.653
X7.019Y-3.693
X7.0219Y-3.7326
X7.305Y-3.425
X7.305Y-3.525
X7.305Y-3.625
X7.305Y-3.725
X7.305Y-3.825
X7.335Y-4.425
X7.335Y-4.525
X7.335Y-4.625
X7.335Y-4.725
X7.335Y-4.825
X7.405Y-3.425
X7.405Y-3.525
X7.405Y-3.625
X7.405Y-3.725
X7.405Y-3.825
X7.435Y-4.425
X7.435Y-4.525
X7.435Y-4.625
X7.435Y-4.725
X7.435Y-4.825
X7.505Y-3.425
X7.505Y-3.525
X7.505Y-3.625
X7.505Y-3.725
X7.505Y-3.825
X7.535Y-4.425
X7.535Y-4.525
X7.535Y-4.625
X7.535Y-4.725
X7.535Y-4.825
X7.605Y-3.425
X7.605Y-3.525
X7.605Y-3.625
X7.605Y-3.725
X7.605Y-3.825
X7.635Y-4.425
X7.635Y-4.525
X7.635Y-4.625
X7.635Y-4.725
X7.635Y-4.825
X7.705Y-3.425
X7.705Y-3.525
X7.705Y-3.625
X7.705Y-3.725
X7.705Y-3.825
X7.735Y-4.425
X7.735Y-4.525
X7.735Y-4.625
X7.735Y-4.725
X7.735Y-4.825
X7.76Y-4.035
X7.76Y-4.075
X7.76Y-4.115
X7.8Y-4.035
X7.8Y-4.075
X7.8Y-4.115
X7.84Y-4.035
X7.84Y-4.075
X7.84Y-4.115
T3
X4.965Y-4.02
X4.965Y-4.1184
T4
X5.2146Y-5.0531
X5.2169Y-3.0846
X7.1831Y-5.06
X7.1854Y-3.0869
T2
G00X6.0349Y-5.5969
M15
G01X6.0349Y-5.6402
M16
G05
G00X6.0349Y-5.7713
M15
G01X6.0349Y-5.795
M16
G05
G00X6.3751Y-5.5969
M15
G01X6.3751Y-5.6402
M16
G05
G00X6.3751Y-5.7713
M15
G01X6.3751Y-5.795
M16
G05
T0
M30
