%TF.GenerationSoftware,KiCad,Pcbnew,(6.0.10)*%
%TF.CreationDate,2023-09-07T19:24:17+02:00*%
%TF.ProjectId,Sterilization stick,53746572-696c-4697-9a61-74696f6e2073,rev?*%
%TF.SameCoordinates,Original*%
%TF.FileFunction,Soldermask,Top*%
%TF.FilePolarity,Negative*%
%FSLAX46Y46*%
G04 Gerber Fmt 4.6, Leading zero omitted, Abs format (unit mm)*
G04 Created by KiCad (PCBNEW (6.0.10)) date 2023-09-07 19:24:17*
%MOMM*%
%LPD*%
G01*
G04 APERTURE LIST*
G04 Aperture macros list*
%AMRoundRect*
0 Rectangle with rounded corners*
0 $1 Rounding radius*
0 $2 $3 $4 $5 $6 $7 $8 $9 X,Y pos of 4 corners*
0 Add a 4 corners polygon primitive as box body*
4,1,4,$2,$3,$4,$5,$6,$7,$8,$9,$2,$3,0*
0 Add four circle primitives for the rounded corners*
1,1,$1+$1,$2,$3*
1,1,$1+$1,$4,$5*
1,1,$1+$1,$6,$7*
1,1,$1+$1,$8,$9*
0 Add four rect primitives between the rounded corners*
20,1,$1+$1,$2,$3,$4,$5,0*
20,1,$1+$1,$4,$5,$6,$7,0*
20,1,$1+$1,$6,$7,$8,$9,0*
20,1,$1+$1,$8,$9,$2,$3,0*%
G04 Aperture macros list end*
%ADD10RoundRect,0.050000X-0.300000X-0.575000X0.300000X-0.575000X0.300000X0.575000X-0.300000X0.575000X0*%
%ADD11RoundRect,0.050000X-0.265000X-0.700000X0.265000X-0.700000X0.265000X0.700000X-0.265000X0.700000X0*%
%ADD12RoundRect,0.050000X-0.345000X-1.550000X0.345000X-1.550000X0.345000X1.550000X-0.345000X1.550000X0*%
%ADD13RoundRect,0.268750X0.218750X0.256250X-0.218750X0.256250X-0.218750X-0.256250X0.218750X-0.256250X0*%
%ADD14RoundRect,0.300000X0.325000X0.450000X-0.325000X0.450000X-0.325000X-0.450000X0.325000X-0.450000X0*%
%ADD15C,0.750000*%
%ADD16RoundRect,0.050000X-0.300000X-1.225000X0.300000X-1.225000X0.300000X1.225000X-0.300000X1.225000X0*%
%ADD17RoundRect,0.050000X-0.150000X-1.225000X0.150000X-1.225000X0.150000X1.225000X-0.150000X1.225000X0*%
%ADD18RoundRect,0.197500X-0.172500X0.147500X-0.172500X-0.147500X0.172500X-0.147500X0.172500X0.147500X0*%
%ADD19RoundRect,0.050000X-1.400000X-1.525000X1.400000X-1.525000X1.400000X1.525000X-1.400000X1.525000X0*%
%ADD20RoundRect,0.300000X-0.325000X-0.450000X0.325000X-0.450000X0.325000X0.450000X-0.325000X0.450000X0*%
%ADD21RoundRect,0.197500X-0.147500X-0.172500X0.147500X-0.172500X0.147500X0.172500X-0.147500X0.172500X0*%
%ADD22RoundRect,0.268750X-0.218750X-0.256250X0.218750X-0.256250X0.218750X0.256250X-0.218750X0.256250X0*%
%ADD23RoundRect,0.287500X0.237500X-0.250000X0.237500X0.250000X-0.237500X0.250000X-0.237500X-0.250000X0*%
%ADD24RoundRect,0.050000X-0.900000X1.250000X-0.900000X-1.250000X0.900000X-1.250000X0.900000X1.250000X0*%
%ADD25RoundRect,0.300000X-0.375000X-0.625000X0.375000X-0.625000X0.375000X0.625000X-0.375000X0.625000X0*%
%ADD26RoundRect,0.300000X0.375000X0.625000X-0.375000X0.625000X-0.375000X-0.625000X0.375000X-0.625000X0*%
%ADD27RoundRect,0.300000X0.450000X-0.325000X0.450000X0.325000X-0.450000X0.325000X-0.450000X-0.325000X0*%
%ADD28RoundRect,0.268750X-0.256250X0.218750X-0.256250X-0.218750X0.256250X-0.218750X0.256250X0.218750X0*%
%ADD29RoundRect,0.300000X-0.450000X0.325000X-0.450000X-0.325000X0.450000X-0.325000X0.450000X0.325000X0*%
%ADD30RoundRect,0.268750X0.256250X-0.218750X0.256250X0.218750X-0.256250X0.218750X-0.256250X-0.218750X0*%
%ADD31RoundRect,0.050000X0.265000X0.700000X-0.265000X0.700000X-0.265000X-0.700000X0.265000X-0.700000X0*%
%ADD32RoundRect,0.050000X0.345000X1.550000X-0.345000X1.550000X-0.345000X-1.550000X0.345000X-1.550000X0*%
%ADD33C,7.600000*%
%ADD34RoundRect,0.300000X0.625000X-0.375000X0.625000X0.375000X-0.625000X0.375000X-0.625000X-0.375000X0*%
%ADD35RoundRect,0.050000X0.700000X-0.265000X0.700000X0.265000X-0.700000X0.265000X-0.700000X-0.265000X0*%
%ADD36RoundRect,0.050000X1.550000X-0.345000X1.550000X0.345000X-1.550000X0.345000X-1.550000X-0.345000X0*%
%ADD37RoundRect,0.300000X0.625000X-0.312500X0.625000X0.312500X-0.625000X0.312500X-0.625000X-0.312500X0*%
%ADD38RoundRect,0.300000X-0.312500X-0.625000X0.312500X-0.625000X0.312500X0.625000X-0.312500X0.625000X0*%
%ADD39RoundRect,0.300000X0.312500X0.625000X-0.312500X0.625000X-0.312500X-0.625000X0.312500X-0.625000X0*%
%ADD40RoundRect,0.300000X-0.750000X0.600000X-0.750000X-0.600000X0.750000X-0.600000X0.750000X0.600000X0*%
%ADD41O,2.100000X1.800000*%
G04 APERTURE END LIST*
D10*
%TO.C,IC1*%
X170241000Y-127020000D03*
X169291000Y-127020000D03*
X168341000Y-127020000D03*
X168341000Y-129520000D03*
X169291000Y-129520000D03*
X170241000Y-129520000D03*
%TD*%
D11*
%TO.C,LED2*%
X173515552Y-92528076D03*
X176085552Y-92528076D03*
X173515552Y-94228076D03*
X176085552Y-94228076D03*
D12*
X174800552Y-93378076D03*
%TD*%
D13*
%TO.C,C1*%
X168300500Y-131191000D03*
X166725500Y-131191000D03*
%TD*%
D14*
%TO.C,C2*%
X164474000Y-133223000D03*
X162424000Y-133223000D03*
%TD*%
D15*
%TO.C,USB1*%
X154717000Y-143242000D03*
X160497000Y-143242000D03*
D16*
X154382000Y-141297000D03*
X155157000Y-141297000D03*
D17*
X155857000Y-141297000D03*
X156357000Y-141297000D03*
X156857000Y-141297000D03*
X157357000Y-141297000D03*
X157857000Y-141297000D03*
X158357000Y-141297000D03*
X158857000Y-141297000D03*
X159357000Y-141297000D03*
D16*
X160057000Y-141297000D03*
X160832000Y-141297000D03*
%TD*%
D18*
%TO.C,R1*%
X171577000Y-129436000D03*
X171577000Y-130406000D03*
%TD*%
D19*
%TO.C,L1*%
X167135000Y-137414000D03*
X177035000Y-137414000D03*
%TD*%
D20*
%TO.C,C3*%
X175251000Y-120142000D03*
X177301000Y-120142000D03*
%TD*%
D21*
%TO.C,R3*%
X158392000Y-137046000D03*
X159362000Y-137046000D03*
%TD*%
D22*
%TO.C,C5*%
X175869500Y-118364000D03*
X177444500Y-118364000D03*
%TD*%
D20*
%TO.C,C4*%
X175251000Y-122174000D03*
X177301000Y-122174000D03*
%TD*%
D23*
%TO.C,R5*%
X166751000Y-128547500D03*
X166751000Y-126722500D03*
%TD*%
D21*
%TO.C,R2*%
X155852000Y-137046000D03*
X156822000Y-137046000D03*
%TD*%
D24*
%TO.C,D1*%
X173990000Y-125000000D03*
X173990000Y-129000000D03*
%TD*%
D25*
%TO.C,R6*%
X168145000Y-93472000D03*
X170945000Y-93472000D03*
%TD*%
D26*
%TO.C,R10*%
X176533000Y-98044000D03*
X173733000Y-98044000D03*
%TD*%
D22*
%TO.C,R4*%
X168503500Y-125349000D03*
X170078500Y-125349000D03*
%TD*%
%TO.C,C7*%
X128498500Y-110490000D03*
X130073500Y-110490000D03*
%TD*%
D27*
%TO.C,C8*%
X164211000Y-137550000D03*
X164211000Y-135500000D03*
%TD*%
D20*
%TO.C,C9*%
X128642000Y-108712000D03*
X130692000Y-108712000D03*
%TD*%
D28*
%TO.C,C10*%
X165481000Y-93573500D03*
X165481000Y-95148500D03*
%TD*%
D29*
%TO.C,C11*%
X163576000Y-93717000D03*
X163576000Y-95767000D03*
%TD*%
D27*
%TO.C,C12*%
X161925000Y-78495000D03*
X161925000Y-76445000D03*
%TD*%
D30*
%TO.C,C13*%
X158496000Y-78638500D03*
X158496000Y-77063500D03*
%TD*%
D14*
%TO.C,C14*%
X133486000Y-102108000D03*
X131436000Y-102108000D03*
%TD*%
D30*
%TO.C,C15*%
X160147000Y-78638500D03*
X160147000Y-77063500D03*
%TD*%
D27*
%TO.C,C16*%
X156718000Y-78495000D03*
X156718000Y-76445000D03*
%TD*%
D13*
%TO.C,C17*%
X133502500Y-104013000D03*
X131927500Y-104013000D03*
%TD*%
%TO.C,C6*%
X164363500Y-131318000D03*
X162788500Y-131318000D03*
%TD*%
D31*
%TO.C,LED1*%
X176085465Y-114228076D03*
X173515465Y-114228076D03*
X176085465Y-112528076D03*
X173515465Y-112528076D03*
D32*
X174800465Y-113378076D03*
%TD*%
D26*
%TO.C,R27*%
X178819000Y-108966000D03*
X176019000Y-108966000D03*
%TD*%
D33*
%TO.C,H1*%
X182449968Y-128524000D03*
%TD*%
%TO.C,H2*%
X132510032Y-78347968D03*
%TD*%
%TO.C,H3*%
X132449968Y-128347968D03*
%TD*%
%TO.C,H4*%
X182510032Y-78408032D03*
%TD*%
D31*
%TO.C,LED4*%
X141444536Y-94227924D03*
X138874536Y-94227924D03*
X141444536Y-92527924D03*
X138874536Y-92527924D03*
D32*
X140159536Y-93377924D03*
%TD*%
D26*
%TO.C,R31*%
X146815000Y-92329000D03*
X144015000Y-92329000D03*
%TD*%
D34*
%TO.C,R30*%
X161417000Y-85220000D03*
X161417000Y-82420000D03*
%TD*%
D31*
%TO.C,LED3*%
X158765088Y-84228000D03*
X156195088Y-84228000D03*
X158765088Y-82528000D03*
X156195088Y-82528000D03*
D32*
X157480088Y-83378000D03*
%TD*%
D31*
%TO.C,LED6*%
X158764913Y-124228000D03*
X156194913Y-124228000D03*
X158764913Y-122528000D03*
X156194913Y-122528000D03*
D32*
X157479913Y-123378000D03*
%TD*%
D35*
%TO.C,LED7*%
X156757000Y-104536000D03*
X156757000Y-101966000D03*
X158457000Y-104536000D03*
X158457000Y-101966000D03*
D36*
X157607000Y-103251000D03*
%TD*%
D34*
%TO.C,R33*%
X156591000Y-109985000D03*
X156591000Y-107185000D03*
%TD*%
%TO.C,R34*%
X161417000Y-125352000D03*
X161417000Y-122552000D03*
%TD*%
%TO.C,R35*%
X159004000Y-109985000D03*
X159004000Y-107185000D03*
%TD*%
D37*
%TO.C,R7*%
X144399000Y-115381500D03*
X144399000Y-112456500D03*
%TD*%
D31*
%TO.C,LED8*%
X138953000Y-136105000D03*
X136383000Y-136105000D03*
X138953000Y-134405000D03*
X136383000Y-134405000D03*
D32*
X137668000Y-135255000D03*
%TD*%
D38*
%TO.C,R11*%
X190180500Y-107569000D03*
X193105500Y-107569000D03*
%TD*%
D37*
%TO.C,R9*%
X143256000Y-73471500D03*
X143256000Y-70546500D03*
%TD*%
D31*
%TO.C,LED5*%
X141444448Y-114227924D03*
X138874448Y-114227924D03*
X141444448Y-112527924D03*
X138874448Y-112527924D03*
D32*
X140159448Y-113377924D03*
%TD*%
D39*
%TO.C,R8*%
X141797500Y-131191000D03*
X138872500Y-131191000D03*
%TD*%
D40*
%TO.C,J1*%
X126111000Y-102108000D03*
D41*
X126111000Y-104608000D03*
%TD*%
D11*
%TO.C,LED10*%
X193195000Y-102655000D03*
X195765000Y-102655000D03*
X193195000Y-104355000D03*
X195765000Y-104355000D03*
D12*
X194480000Y-103505000D03*
%TD*%
D31*
%TO.C,LED9*%
X140319282Y-72153645D03*
X137749282Y-72153645D03*
X140319282Y-70453645D03*
X137749282Y-70453645D03*
D32*
X139034282Y-71303645D03*
%TD*%
M02*
