%TF.GenerationSoftware,KiCad,Pcbnew,(6.0.10)*%
%TF.CreationDate,2023-09-07T19:24:17+02:00*%
%TF.ProjectId,Sterilization stick,53746572-696c-4697-9a61-74696f6e2073,rev?*%
%TF.SameCoordinates,Original*%
%TF.FileFunction,Legend,Top*%
%TF.FilePolarity,Positive*%
%FSLAX46Y46*%
G04 Gerber Fmt 4.6, Leading zero omitted, Abs format (unit mm)*
G04 Created by KiCad (PCBNEW (6.0.10)) date 2023-09-07 19:24:17*
%MOMM*%
%LPD*%
G01*
G04 APERTURE LIST*
%ADD10C,0.125000*%
%ADD11C,0.500000*%
%ADD12C,0.250000*%
%ADD13C,0.254000*%
%ADD14C,0.150000*%
%ADD15C,0.200000*%
%ADD16C,0.120000*%
G04 APERTURE END LIST*
D10*
X42817859Y-95707218D02*
X42705782Y-95819103D01*
X42597339Y-95923200D01*
X42505511Y-96008500D01*
X42405015Y-96099077D01*
X42296147Y-96194107D01*
X42179201Y-96292764D01*
X42054474Y-96394223D01*
X41922262Y-96497659D01*
X41782860Y-96602248D01*
X41686077Y-96672206D01*
X132373370Y-119380000D02*
X132368392Y-119174984D01*
X132353506Y-118968207D01*
X132328778Y-118759854D01*
X132294276Y-118550112D01*
X132250066Y-118339167D01*
X132196216Y-118127203D01*
X132132793Y-117914408D01*
X132059865Y-117700967D01*
X131977499Y-117487065D01*
X131885761Y-117272890D01*
X131784721Y-117058626D01*
X131674443Y-116844459D01*
X131554997Y-116630576D01*
X131426449Y-116417162D01*
X131358783Y-116310689D01*
X131288866Y-116204403D01*
X131216708Y-116098328D01*
X131142317Y-115992486D01*
X38763490Y-96626201D02*
X39348431Y-96041154D01*
X39348431Y-96041154D02*
X39465429Y-95992735D01*
X39582428Y-96041154D01*
X38627356Y-94044396D02*
X38553379Y-94079533D01*
X33854623Y-95886394D02*
X33961646Y-96003500D01*
X34080127Y-96125826D01*
X34195718Y-96240032D01*
X34333254Y-96370382D01*
X34436706Y-96464869D01*
X34549266Y-96564458D01*
X34670677Y-96668321D01*
X34800680Y-96775629D01*
X34939017Y-96885553D01*
X35085431Y-96997264D01*
X35239664Y-97109933D01*
X131142317Y-115992486D02*
X131029648Y-115838235D01*
X130917937Y-115691805D01*
X130808013Y-115553453D01*
X130700705Y-115423438D01*
X130596842Y-115302017D01*
X130497253Y-115189448D01*
X130402766Y-115085989D01*
X130314210Y-114991898D01*
X130194312Y-114868889D01*
X130092423Y-114768408D01*
X129989420Y-114670980D01*
X129918778Y-114607341D01*
X35239664Y-97109933D02*
X35345515Y-97184324D01*
X35451600Y-97256482D01*
X35557894Y-97326399D01*
X35664375Y-97394065D01*
X35771019Y-97459472D01*
X35984704Y-97583478D01*
X36198764Y-97698348D01*
X36413014Y-97804016D01*
X36627268Y-97900413D01*
X36841339Y-97987473D01*
X37055044Y-98065129D01*
X37268195Y-98133313D01*
X37480608Y-98191958D01*
X37692097Y-98240996D01*
X37902477Y-98280361D01*
X38111561Y-98309984D01*
X38319165Y-98329800D01*
X38525102Y-98339740D01*
X38627388Y-98340986D01*
X128774614Y-122438689D02*
X128677711Y-122299346D01*
X128579543Y-122151152D01*
X128481148Y-121994522D01*
X128383562Y-121829874D01*
X128287824Y-121657622D01*
X128194969Y-121478183D01*
X128106035Y-121291973D01*
X128022059Y-121099407D01*
X127944078Y-120900902D01*
X127873130Y-120696873D01*
X127810252Y-120487737D01*
X127756480Y-120273909D01*
X127712852Y-120055805D01*
X127680406Y-119833842D01*
X127660177Y-119608435D01*
X127653204Y-119380000D01*
X130236945Y-120545362D02*
X130414190Y-120531911D01*
X130583126Y-120492887D01*
X130741759Y-120430281D01*
X130888097Y-120346084D01*
X131020148Y-120242288D01*
X131135918Y-120120885D01*
X131233416Y-119983864D01*
X131310650Y-119833219D01*
X131365626Y-119670940D01*
X131396352Y-119499019D01*
X131402381Y-119380032D01*
X130442473Y-119519065D02*
X130658585Y-119303059D01*
X129739602Y-115189529D02*
X129851487Y-115301605D01*
X129955584Y-115410048D01*
X130040884Y-115501876D01*
X130131461Y-115602372D01*
X130226491Y-115711240D01*
X130325148Y-115828186D01*
X130426607Y-115952913D01*
X130530043Y-116085125D01*
X130634632Y-116224527D01*
X130704590Y-116321311D01*
X130676470Y-119753062D02*
X130559511Y-119801560D01*
X130442473Y-119753062D01*
X131039161Y-119390477D02*
X130676470Y-119753062D01*
X130658585Y-119243898D02*
X130073538Y-118658957D01*
X41686077Y-96672206D02*
X41546732Y-96769108D01*
X41398535Y-96867276D01*
X41241901Y-96965671D01*
X41077247Y-97063257D01*
X40904989Y-97158995D01*
X40725544Y-97251850D01*
X40539327Y-97340784D01*
X40346756Y-97424760D01*
X40148246Y-97502741D01*
X39944215Y-97573689D01*
X39735078Y-97636567D01*
X39521253Y-97690339D01*
X39303154Y-97733967D01*
X39081200Y-97766413D01*
X38855805Y-97786642D01*
X38627388Y-97793616D01*
X39630900Y-96158100D02*
X39582428Y-96275151D01*
X128774614Y-116321311D02*
X128879514Y-116177252D01*
X128983816Y-116040192D01*
X129086694Y-115910427D01*
X129187321Y-115788251D01*
X129284870Y-115673960D01*
X129378514Y-115567850D01*
X129467427Y-115470217D01*
X129577189Y-115353737D01*
X129675110Y-115253552D01*
X129739602Y-115189529D01*
X130190484Y-118376488D02*
X130307535Y-118424960D01*
X129560426Y-114607341D02*
X129467807Y-114691324D01*
X129354914Y-114799345D01*
X129246700Y-114907432D01*
X129121413Y-115037757D01*
X129029785Y-115136564D01*
X128932640Y-115244611D01*
X128830808Y-115361638D01*
X128725118Y-115487388D01*
X128616397Y-115621604D01*
X128505476Y-115764027D01*
X128393183Y-115914400D01*
X128336781Y-115992487D01*
X128076780Y-119380032D02*
X128111917Y-119454009D01*
X130073538Y-118424960D02*
X130190484Y-118376488D01*
X128111917Y-119306054D02*
X128076780Y-119380032D01*
X42014901Y-94304397D02*
X41909058Y-94230014D01*
X41802983Y-94157864D01*
X41696697Y-94087955D01*
X41590224Y-94020295D01*
X41483588Y-93954892D01*
X41269916Y-93830893D01*
X41055868Y-93716027D01*
X40841630Y-93610360D01*
X40627387Y-93513961D01*
X40413325Y-93426898D01*
X40199630Y-93349237D01*
X39986489Y-93281047D01*
X39774086Y-93222396D01*
X39562609Y-93173351D01*
X39352242Y-93133980D01*
X39143171Y-93104351D01*
X38935583Y-93084532D01*
X38729664Y-93074589D01*
X38627388Y-93073344D01*
X41686077Y-94742230D02*
X41830135Y-94847130D01*
X41967195Y-94951432D01*
X42096960Y-95054310D01*
X42219136Y-95154937D01*
X42333427Y-95252486D01*
X42439537Y-95346130D01*
X42537170Y-95435043D01*
X42653650Y-95544805D01*
X42753835Y-95642726D01*
X42817859Y-95707218D01*
X127105728Y-119380000D02*
X127110706Y-119585033D01*
X127125595Y-119791823D01*
X127150328Y-120000185D01*
X127184836Y-120209934D01*
X127229053Y-120420885D01*
X127282909Y-120632853D01*
X127346338Y-120845652D01*
X127419272Y-121059098D01*
X127501642Y-121273005D01*
X127593382Y-121487188D01*
X127694423Y-121701463D01*
X127804698Y-121915643D01*
X127924139Y-122129545D01*
X128052679Y-122342982D01*
X128120339Y-122449469D01*
X128190248Y-122555770D01*
X128262398Y-122661863D01*
X128336781Y-122767724D01*
X38627388Y-93620820D02*
X38855805Y-93627793D01*
X39081200Y-93648022D01*
X39303154Y-93680468D01*
X39521253Y-93724096D01*
X39735078Y-93777868D01*
X39944215Y-93840746D01*
X40148246Y-93911694D01*
X40346756Y-93989675D01*
X40539327Y-94073651D01*
X40725544Y-94162585D01*
X40904989Y-94255440D01*
X41077247Y-94351178D01*
X41241901Y-94448764D01*
X41398535Y-94547159D01*
X41546732Y-94645327D01*
X41686077Y-94742230D01*
X130658585Y-119303059D02*
X130658585Y-119243898D01*
X129739602Y-123570682D02*
X129627716Y-123458562D01*
X129523619Y-123350093D01*
X129438319Y-123258249D01*
X129347742Y-123157737D01*
X129252712Y-123048854D01*
X129154055Y-122931893D01*
X129052596Y-122807149D01*
X128949160Y-122674916D01*
X128844571Y-122535490D01*
X128774614Y-122438689D01*
X131142317Y-122767724D02*
X131216708Y-122661872D01*
X131288866Y-122555787D01*
X131358783Y-122449493D01*
X131426449Y-122343012D01*
X131491856Y-122236368D01*
X131615862Y-122022683D01*
X131730732Y-121808623D01*
X131836400Y-121594373D01*
X131932797Y-121380119D01*
X132019857Y-121166048D01*
X132097513Y-120952343D01*
X132165697Y-120739192D01*
X132224342Y-120526779D01*
X132273380Y-120315290D01*
X132312745Y-120104910D01*
X132342368Y-119895826D01*
X132362184Y-119688222D01*
X132372124Y-119482285D01*
X132373370Y-119380000D01*
X38627388Y-93073344D02*
X38422354Y-93078322D01*
X38215564Y-93093211D01*
X38007202Y-93117944D01*
X37797453Y-93152452D01*
X37586502Y-93196669D01*
X37374534Y-93250525D01*
X37161735Y-93313954D01*
X36948289Y-93386888D01*
X36734382Y-93469258D01*
X36520199Y-93560998D01*
X36305924Y-93662039D01*
X36091744Y-93772314D01*
X35877842Y-93891755D01*
X35664405Y-94020295D01*
X35557918Y-94087955D01*
X35451617Y-94157864D01*
X35345524Y-94230014D01*
X35239664Y-94304397D01*
X34436706Y-95707218D02*
X34548825Y-95595332D01*
X34657294Y-95491235D01*
X34749138Y-95405935D01*
X34849650Y-95315358D01*
X34958533Y-95220328D01*
X35075494Y-95121671D01*
X35200238Y-95020212D01*
X35332471Y-94916776D01*
X35471897Y-94812187D01*
X35568699Y-94742230D01*
X128336781Y-115992487D02*
X128262398Y-116098329D01*
X128190248Y-116204404D01*
X128120339Y-116310690D01*
X128052679Y-116417163D01*
X127987276Y-116523799D01*
X127863277Y-116737471D01*
X127748411Y-116951519D01*
X127642744Y-117165757D01*
X127546345Y-117380000D01*
X127459282Y-117594062D01*
X127381621Y-117807757D01*
X127313431Y-118020898D01*
X127254780Y-118233301D01*
X127205735Y-118444778D01*
X127166364Y-118655145D01*
X127136735Y-118864216D01*
X127116916Y-119071804D01*
X127106973Y-119277723D01*
X127105728Y-119380000D01*
X38254326Y-96644086D02*
X38205828Y-96527127D01*
X38254326Y-96410089D01*
X128336781Y-122767724D02*
X128449449Y-122921973D01*
X128561160Y-123068400D01*
X128671084Y-123206746D01*
X128778393Y-123336755D01*
X128882258Y-123458168D01*
X128981850Y-123570728D01*
X129076340Y-123674177D01*
X129164900Y-123768259D01*
X129284807Y-123891253D01*
X129386708Y-123991721D01*
X129489734Y-124089135D01*
X129560426Y-124152765D01*
X38704329Y-96626201D02*
X38763490Y-96626201D01*
X129560426Y-124152765D02*
X129680055Y-124213072D01*
X129810779Y-124210200D01*
X129918778Y-124152765D01*
X39792687Y-96204561D02*
X39781417Y-96049064D01*
X39756216Y-95914467D01*
X39716683Y-95770953D01*
X39662869Y-95618658D01*
X39613168Y-95498758D01*
X39555483Y-95374055D01*
X39489837Y-95244607D01*
X39416251Y-95110472D01*
X39334746Y-94971708D01*
X38627356Y-97369997D02*
X38804599Y-97356543D01*
X38973527Y-97317512D01*
X39132150Y-97254896D01*
X39278475Y-97170686D01*
X39410511Y-97066875D01*
X39526267Y-96945457D01*
X39623751Y-96808422D01*
X39700972Y-96657765D01*
X39755939Y-96495476D01*
X39786659Y-96323549D01*
X39792687Y-96204561D01*
X43400047Y-95886394D02*
X43460354Y-95766692D01*
X43457482Y-95635972D01*
X43400047Y-95528042D01*
X38488323Y-96410089D02*
X38704329Y-96626201D01*
X130442473Y-119753062D02*
X130393975Y-119636063D01*
X130442473Y-119519065D01*
X35568699Y-94742230D02*
X35708041Y-94645327D01*
X35856235Y-94547159D01*
X36012865Y-94448764D01*
X36177513Y-94351178D01*
X36349765Y-94255440D01*
X36529204Y-94162585D01*
X36715414Y-94073651D01*
X36907980Y-93989675D01*
X37106485Y-93911694D01*
X37310514Y-93840746D01*
X37519650Y-93777868D01*
X37733478Y-93724096D01*
X37951582Y-93680468D01*
X38173545Y-93648022D01*
X38398952Y-93627793D01*
X38627388Y-93620820D01*
X39582428Y-96275151D02*
X38850908Y-97006777D01*
X130307535Y-118424960D02*
X131039161Y-119156480D01*
X38850908Y-97006777D02*
X38733869Y-97055116D01*
X38616911Y-97006777D01*
X38627388Y-98340986D02*
X38832403Y-98336008D01*
X39039180Y-98321122D01*
X39247533Y-98296394D01*
X39457275Y-98261892D01*
X39668220Y-98217682D01*
X39880184Y-98163832D01*
X40092979Y-98100409D01*
X40306420Y-98027481D01*
X40520322Y-97945115D01*
X40734497Y-97853377D01*
X40948761Y-97752337D01*
X41162928Y-97642059D01*
X41376811Y-97522613D01*
X41590225Y-97394065D01*
X41696698Y-97326399D01*
X41802984Y-97256482D01*
X41909059Y-97184324D01*
X42014902Y-97109933D01*
X35239664Y-94304397D02*
X35085414Y-94417065D01*
X34938987Y-94528776D01*
X34800641Y-94638700D01*
X34670632Y-94746009D01*
X34549219Y-94849874D01*
X34436659Y-94949466D01*
X34333210Y-95043956D01*
X34239128Y-95132516D01*
X34116134Y-95252423D01*
X34015666Y-95354324D01*
X33918252Y-95457350D01*
X33854623Y-95528042D01*
X129004092Y-118672642D02*
X128896119Y-118739533D01*
X128757457Y-118829588D01*
X128626125Y-118918981D01*
X128503511Y-119005913D01*
X128391003Y-119088582D01*
X128289988Y-119165188D01*
X128181996Y-119249675D01*
X128111917Y-119306054D01*
X131402381Y-119380032D02*
X131388927Y-119202788D01*
X131349896Y-119033860D01*
X131287280Y-118875237D01*
X131203070Y-118728912D01*
X131099259Y-118596876D01*
X130977841Y-118481120D01*
X130840806Y-118383636D01*
X130690149Y-118306415D01*
X130527860Y-118251448D01*
X130355933Y-118220728D01*
X130236945Y-118214701D01*
X43400047Y-95528042D02*
X43316063Y-95435423D01*
X43208042Y-95322530D01*
X43099955Y-95214316D01*
X42969630Y-95089029D01*
X42870823Y-94997401D01*
X42762776Y-94900256D01*
X42645749Y-94798424D01*
X42519999Y-94692734D01*
X42385783Y-94584013D01*
X42243360Y-94473092D01*
X42092987Y-94360799D01*
X42014901Y-94304397D01*
X130073538Y-118658957D02*
X130025119Y-118541958D01*
X130073538Y-118424960D01*
X131826000Y-119380000D02*
X131819026Y-119608435D01*
X131798797Y-119833842D01*
X131766351Y-120055806D01*
X131722723Y-120273909D01*
X131668951Y-120487737D01*
X131606073Y-120696874D01*
X131535125Y-120900902D01*
X131457144Y-121099408D01*
X131373168Y-121291973D01*
X131284234Y-121478184D01*
X131191379Y-121657622D01*
X131095641Y-121829874D01*
X130998055Y-121994522D01*
X130899660Y-122151152D01*
X130801492Y-122299346D01*
X130704590Y-122438689D01*
X38627388Y-97793616D02*
X38398952Y-97786642D01*
X38173545Y-97766413D01*
X37951581Y-97733967D01*
X37733478Y-97690339D01*
X37519650Y-97636567D01*
X37310513Y-97573689D01*
X37106485Y-97502741D01*
X36907980Y-97424760D01*
X36715414Y-97340784D01*
X36529203Y-97251850D01*
X36349765Y-97158995D01*
X36177513Y-97063257D01*
X36012865Y-96965671D01*
X35856235Y-96867276D01*
X35708041Y-96769108D01*
X35568699Y-96672206D01*
X128111917Y-119454009D02*
X128222654Y-119542531D01*
X128339052Y-119632382D01*
X128446008Y-119712259D01*
X128563763Y-119797293D01*
X128690931Y-119885686D01*
X128826128Y-119975637D01*
X128931961Y-120043041D01*
X129004304Y-120087527D01*
X38254326Y-96410089D02*
X38371324Y-96361591D01*
X38488323Y-96410089D01*
X130704590Y-122438689D02*
X130599665Y-122582771D01*
X130495347Y-122719847D01*
X130392462Y-122849623D01*
X130291835Y-122971806D01*
X130194291Y-123086102D01*
X130100655Y-123192220D01*
X130011751Y-123289866D01*
X129902003Y-123406375D01*
X129804091Y-123506607D01*
X129739602Y-123570682D01*
X130704590Y-116321311D02*
X130801492Y-116460655D01*
X130899660Y-116608852D01*
X130998055Y-116765486D01*
X131095641Y-116930140D01*
X131191379Y-117102398D01*
X131284234Y-117281843D01*
X131373168Y-117468060D01*
X131457144Y-117660631D01*
X131535125Y-117859141D01*
X131606073Y-118063172D01*
X131668951Y-118272309D01*
X131722723Y-118486135D01*
X131766351Y-118704233D01*
X131798797Y-118926187D01*
X131819026Y-119151582D01*
X131826000Y-119380000D01*
X129918778Y-114607341D02*
X129799076Y-114547033D01*
X129668356Y-114549905D01*
X129560426Y-114607341D01*
X35568699Y-96672206D02*
X35424616Y-96567281D01*
X35287540Y-96462963D01*
X35157764Y-96360078D01*
X35035581Y-96259451D01*
X34921285Y-96161907D01*
X34815167Y-96068271D01*
X34717521Y-95979367D01*
X34601012Y-95869619D01*
X34500780Y-95771707D01*
X34436706Y-95707218D01*
X129004304Y-120087527D02*
X129143092Y-120169029D01*
X129277241Y-120242608D01*
X129406693Y-120308244D01*
X129531390Y-120365915D01*
X129651274Y-120415602D01*
X129803535Y-120469397D01*
X129947003Y-120508911D01*
X130081539Y-120534099D01*
X130207010Y-120544910D01*
X130236945Y-120545362D01*
X131039161Y-119156480D02*
X131087500Y-119273518D01*
X131039161Y-119390477D01*
X39582428Y-96041154D02*
X39630900Y-96158100D01*
X37462026Y-96204561D02*
X37475476Y-96381806D01*
X37514500Y-96550742D01*
X37577106Y-96709375D01*
X37661303Y-96855713D01*
X37765099Y-96987764D01*
X37886502Y-97103534D01*
X38023523Y-97201032D01*
X38174168Y-97278266D01*
X38336447Y-97333242D01*
X38508368Y-97363968D01*
X38627356Y-97369997D01*
X129918778Y-124152765D02*
X130035884Y-124045741D01*
X130158210Y-123927260D01*
X130272416Y-123811669D01*
X130402766Y-123674133D01*
X130497253Y-123570681D01*
X130596842Y-123458121D01*
X130700705Y-123336710D01*
X130808013Y-123206707D01*
X130917937Y-123068370D01*
X131029648Y-122921956D01*
X131142317Y-122767724D01*
X42014902Y-97109933D02*
X42169152Y-96997264D01*
X42315582Y-96885553D01*
X42453934Y-96775629D01*
X42583949Y-96668321D01*
X42705370Y-96564458D01*
X42817939Y-96464869D01*
X42921398Y-96370382D01*
X43015489Y-96281826D01*
X43138498Y-96161928D01*
X43238979Y-96060039D01*
X43336407Y-95957036D01*
X43400047Y-95886394D01*
X33854623Y-95528042D02*
X33794315Y-95647671D01*
X33797187Y-95778395D01*
X33854623Y-95886394D01*
X37919861Y-94971920D02*
X37838358Y-95110708D01*
X37764779Y-95244857D01*
X37699143Y-95374309D01*
X37641472Y-95499006D01*
X37591785Y-95618890D01*
X37537990Y-95771151D01*
X37498476Y-95914619D01*
X37473288Y-96049155D01*
X37462477Y-96174626D01*
X37462026Y-96204561D01*
X127653204Y-119380000D02*
X127660177Y-119151582D01*
X127680406Y-118926187D01*
X127712852Y-118704233D01*
X127756480Y-118486135D01*
X127810252Y-118272309D01*
X127873130Y-118063172D01*
X127944078Y-117859141D01*
X128022059Y-117660631D01*
X128106035Y-117468060D01*
X128194969Y-117281843D01*
X128287824Y-117102398D01*
X128383562Y-116930140D01*
X128481148Y-116765486D01*
X128579543Y-116608852D01*
X128677711Y-116460655D01*
X128774614Y-116321311D01*
X38553379Y-94079533D02*
X38464856Y-94190270D01*
X38375005Y-94306668D01*
X38295128Y-94413624D01*
X38210094Y-94531379D01*
X38121701Y-94658547D01*
X38031750Y-94793744D01*
X37964346Y-94899577D01*
X37919861Y-94971920D01*
X38701334Y-94079533D02*
X38627356Y-94044396D01*
X130236945Y-118214701D02*
X130081448Y-118225970D01*
X129946851Y-118251171D01*
X129803337Y-118290704D01*
X129651042Y-118344518D01*
X129531142Y-118394219D01*
X129406439Y-118451904D01*
X129276991Y-118517550D01*
X129142856Y-118591136D01*
X129004092Y-118672642D01*
X38616911Y-97006777D02*
X38254326Y-96644086D01*
X39334746Y-94971708D02*
X39267854Y-94863735D01*
X39177799Y-94725073D01*
X39088406Y-94593741D01*
X39001474Y-94471127D01*
X38918805Y-94358619D01*
X38842199Y-94257604D01*
X38757712Y-94149612D01*
X38701334Y-94079533D01*
D11*
X186096857Y-93965285D02*
X186096857Y-92774809D01*
X189096857Y-92774809D01*
X189096857Y-95274809D02*
X189096857Y-95751000D01*
X188954000Y-95989095D01*
X188668285Y-96227190D01*
X188096857Y-96346238D01*
X187096857Y-96346238D01*
X186525428Y-96227190D01*
X186239714Y-95989095D01*
X186096857Y-95751000D01*
X186096857Y-95274809D01*
X186239714Y-95036714D01*
X186525428Y-94798619D01*
X187096857Y-94679571D01*
X188096857Y-94679571D01*
X188668285Y-94798619D01*
X188954000Y-95036714D01*
X189096857Y-95274809D01*
X189096857Y-97893857D02*
X189096857Y-98370047D01*
X188954000Y-98608142D01*
X188668285Y-98846238D01*
X188096857Y-98965285D01*
X187096857Y-98965285D01*
X186525428Y-98846238D01*
X186239714Y-98608142D01*
X186096857Y-98370047D01*
X186096857Y-97893857D01*
X186239714Y-97655761D01*
X186525428Y-97417666D01*
X187096857Y-97298619D01*
X188096857Y-97298619D01*
X188668285Y-97417666D01*
X188954000Y-97655761D01*
X189096857Y-97893857D01*
X186096857Y-100036714D02*
X189096857Y-100036714D01*
X186096857Y-101465285D02*
X187811142Y-100393857D01*
X189096857Y-101465285D02*
X187382571Y-100036714D01*
X186954000Y-104322428D02*
X186954000Y-105512904D01*
X186096857Y-104084333D02*
X189096857Y-104917666D01*
X186096857Y-105751000D01*
X189096857Y-106346238D02*
X186096857Y-106941476D01*
X188239714Y-107417666D01*
X186096857Y-107893857D01*
X189096857Y-108489095D01*
X186954000Y-109322428D02*
X186954000Y-110512904D01*
X186096857Y-109084333D02*
X189096857Y-109917666D01*
X186096857Y-110751000D01*
X187525428Y-112060523D02*
X186096857Y-112060523D01*
X189096857Y-111227190D02*
X187525428Y-112060523D01*
X189096857Y-112893857D01*
X186382571Y-113727190D02*
X186239714Y-113846238D01*
X186096857Y-113727190D01*
X186239714Y-113608142D01*
X186382571Y-113727190D01*
X186096857Y-113727190D01*
X187239714Y-113727190D02*
X188954000Y-113608142D01*
X189096857Y-113727190D01*
X188954000Y-113846238D01*
X187239714Y-113727190D01*
X189096857Y-113727190D01*
X181409714Y-93131952D02*
X181266857Y-93489095D01*
X181266857Y-94084333D01*
X181409714Y-94322428D01*
X181552571Y-94441476D01*
X181838285Y-94560523D01*
X182124000Y-94560523D01*
X182409714Y-94441476D01*
X182552571Y-94322428D01*
X182695428Y-94084333D01*
X182838285Y-93608142D01*
X182981142Y-93370047D01*
X183124000Y-93251000D01*
X183409714Y-93131952D01*
X183695428Y-93131952D01*
X183981142Y-93251000D01*
X184124000Y-93370047D01*
X184266857Y-93608142D01*
X184266857Y-94203380D01*
X184124000Y-94560523D01*
X184266857Y-95274809D02*
X184266857Y-96703380D01*
X181266857Y-95989095D02*
X184266857Y-95989095D01*
X181266857Y-98965285D02*
X182695428Y-98131952D01*
X181266857Y-97536714D02*
X184266857Y-97536714D01*
X184266857Y-98489095D01*
X184124000Y-98727190D01*
X183981142Y-98846238D01*
X183695428Y-98965285D01*
X183266857Y-98965285D01*
X182981142Y-98846238D01*
X182838285Y-98727190D01*
X182695428Y-98489095D01*
X182695428Y-97536714D01*
X184266857Y-100512904D02*
X184266857Y-100989095D01*
X184124000Y-101227190D01*
X183838285Y-101465285D01*
X183266857Y-101584333D01*
X182266857Y-101584333D01*
X181695428Y-101465285D01*
X181409714Y-101227190D01*
X181266857Y-100989095D01*
X181266857Y-100512904D01*
X181409714Y-100274809D01*
X181695428Y-100036714D01*
X182266857Y-99917666D01*
X183266857Y-99917666D01*
X183838285Y-100036714D01*
X184124000Y-100274809D01*
X184266857Y-100512904D01*
X181266857Y-102655761D02*
X184266857Y-102655761D01*
X181266857Y-104084333D01*
X184266857Y-104084333D01*
X184124000Y-106584333D02*
X184266857Y-106346238D01*
X184266857Y-105989095D01*
X184124000Y-105631952D01*
X183838285Y-105393857D01*
X183552571Y-105274809D01*
X182981142Y-105155761D01*
X182552571Y-105155761D01*
X181981142Y-105274809D01*
X181695428Y-105393857D01*
X181409714Y-105631952D01*
X181266857Y-105989095D01*
X181266857Y-106227190D01*
X181409714Y-106584333D01*
X181552571Y-106703380D01*
X182552571Y-106703380D01*
X182552571Y-106227190D01*
X184266857Y-109679571D02*
X181838285Y-109679571D01*
X181552571Y-109798619D01*
X181409714Y-109917666D01*
X181266857Y-110155761D01*
X181266857Y-110631952D01*
X181409714Y-110870047D01*
X181552571Y-110989095D01*
X181838285Y-111108142D01*
X184266857Y-111108142D01*
X184266857Y-111941476D02*
X181266857Y-112774809D01*
X184266857Y-113608142D01*
X138547571Y-67173000D02*
X139738047Y-67173000D01*
X138309476Y-68030142D02*
X139142809Y-65030142D01*
X139976142Y-68030142D01*
X140452333Y-65030142D02*
X141285666Y-68030142D01*
X142119000Y-65030142D01*
X143428523Y-65030142D02*
X143904714Y-65030142D01*
X144142809Y-65173000D01*
X144380904Y-65458714D01*
X144499952Y-66030142D01*
X144499952Y-67030142D01*
X144380904Y-67601571D01*
X144142809Y-67887285D01*
X143904714Y-68030142D01*
X143428523Y-68030142D01*
X143190428Y-67887285D01*
X142952333Y-67601571D01*
X142833285Y-67030142D01*
X142833285Y-66030142D01*
X142952333Y-65458714D01*
X143190428Y-65173000D01*
X143428523Y-65030142D01*
X145571380Y-68030142D02*
X145571380Y-65030142D01*
X146761857Y-68030142D02*
X146761857Y-65030142D01*
X147357095Y-65030142D01*
X147714238Y-65173000D01*
X147952333Y-65458714D01*
X148071380Y-65744428D01*
X148190428Y-66315857D01*
X148190428Y-66744428D01*
X148071380Y-67315857D01*
X147952333Y-67601571D01*
X147714238Y-67887285D01*
X147357095Y-68030142D01*
X146761857Y-68030142D01*
X151166619Y-66458714D02*
X151999952Y-66458714D01*
X152357095Y-68030142D02*
X151166619Y-68030142D01*
X151166619Y-65030142D01*
X152357095Y-65030142D01*
X153904714Y-66601571D02*
X153904714Y-68030142D01*
X153071380Y-65030142D02*
X153904714Y-66601571D01*
X154738047Y-65030142D01*
X155571380Y-66458714D02*
X156404714Y-66458714D01*
X156761857Y-68030142D02*
X155571380Y-68030142D01*
X155571380Y-65030142D01*
X156761857Y-65030142D01*
X159738047Y-66458714D02*
X160571380Y-66458714D01*
X160928523Y-68030142D02*
X159738047Y-68030142D01*
X159738047Y-65030142D01*
X160928523Y-65030142D01*
X161761857Y-65030142D02*
X163428523Y-68030142D01*
X163428523Y-65030142D02*
X161761857Y-68030142D01*
X164380904Y-68030142D02*
X164380904Y-65030142D01*
X165333285Y-65030142D01*
X165571380Y-65173000D01*
X165690428Y-65315857D01*
X165809476Y-65601571D01*
X165809476Y-66030142D01*
X165690428Y-66315857D01*
X165571380Y-66458714D01*
X165333285Y-66601571D01*
X164380904Y-66601571D01*
X167357095Y-65030142D02*
X167833285Y-65030142D01*
X168071380Y-65173000D01*
X168309476Y-65458714D01*
X168428523Y-66030142D01*
X168428523Y-67030142D01*
X168309476Y-67601571D01*
X168071380Y-67887285D01*
X167833285Y-68030142D01*
X167357095Y-68030142D01*
X167119000Y-67887285D01*
X166880904Y-67601571D01*
X166761857Y-67030142D01*
X166761857Y-66030142D01*
X166880904Y-65458714D01*
X167119000Y-65173000D01*
X167357095Y-65030142D01*
X169380904Y-67887285D02*
X169738047Y-68030142D01*
X170333285Y-68030142D01*
X170571380Y-67887285D01*
X170690428Y-67744428D01*
X170809476Y-67458714D01*
X170809476Y-67173000D01*
X170690428Y-66887285D01*
X170571380Y-66744428D01*
X170333285Y-66601571D01*
X169857095Y-66458714D01*
X169619000Y-66315857D01*
X169499952Y-66173000D01*
X169380904Y-65887285D01*
X169380904Y-65601571D01*
X169499952Y-65315857D01*
X169619000Y-65173000D01*
X169857095Y-65030142D01*
X170452333Y-65030142D01*
X170809476Y-65173000D01*
X171880904Y-65030142D02*
X171880904Y-67458714D01*
X171999952Y-67744428D01*
X172119000Y-67887285D01*
X172357095Y-68030142D01*
X172833285Y-68030142D01*
X173071380Y-67887285D01*
X173190428Y-67744428D01*
X173309476Y-67458714D01*
X173309476Y-65030142D01*
X175928523Y-68030142D02*
X175095190Y-66601571D01*
X174499952Y-68030142D02*
X174499952Y-65030142D01*
X175452333Y-65030142D01*
X175690428Y-65173000D01*
X175809476Y-65315857D01*
X175928523Y-65601571D01*
X175928523Y-66030142D01*
X175809476Y-66315857D01*
X175690428Y-66458714D01*
X175452333Y-66601571D01*
X174499952Y-66601571D01*
X176999952Y-66458714D02*
X177833285Y-66458714D01*
X178190428Y-68030142D02*
X176999952Y-68030142D01*
X176999952Y-65030142D01*
X178190428Y-65030142D01*
X148249952Y-72717285D02*
X148607095Y-72860142D01*
X149202333Y-72860142D01*
X149440428Y-72717285D01*
X149559476Y-72574428D01*
X149678523Y-72288714D01*
X149678523Y-72003000D01*
X149559476Y-71717285D01*
X149440428Y-71574428D01*
X149202333Y-71431571D01*
X148726142Y-71288714D01*
X148488047Y-71145857D01*
X148369000Y-71003000D01*
X148249952Y-70717285D01*
X148249952Y-70431571D01*
X148369000Y-70145857D01*
X148488047Y-70003000D01*
X148726142Y-69860142D01*
X149321380Y-69860142D01*
X149678523Y-70003000D01*
X150392809Y-69860142D02*
X151821380Y-69860142D01*
X151107095Y-72860142D02*
X151107095Y-69860142D01*
X154083285Y-72860142D02*
X153249952Y-71431571D01*
X152654714Y-72860142D02*
X152654714Y-69860142D01*
X153607095Y-69860142D01*
X153845190Y-70003000D01*
X153964238Y-70145857D01*
X154083285Y-70431571D01*
X154083285Y-70860142D01*
X153964238Y-71145857D01*
X153845190Y-71288714D01*
X153607095Y-71431571D01*
X152654714Y-71431571D01*
X155630904Y-69860142D02*
X156107095Y-69860142D01*
X156345190Y-70003000D01*
X156583285Y-70288714D01*
X156702333Y-70860142D01*
X156702333Y-71860142D01*
X156583285Y-72431571D01*
X156345190Y-72717285D01*
X156107095Y-72860142D01*
X155630904Y-72860142D01*
X155392809Y-72717285D01*
X155154714Y-72431571D01*
X155035666Y-71860142D01*
X155035666Y-70860142D01*
X155154714Y-70288714D01*
X155392809Y-70003000D01*
X155630904Y-69860142D01*
X157773761Y-72860142D02*
X157773761Y-69860142D01*
X159202333Y-72860142D01*
X159202333Y-69860142D01*
X161702333Y-70003000D02*
X161464238Y-69860142D01*
X161107095Y-69860142D01*
X160749952Y-70003000D01*
X160511857Y-70288714D01*
X160392809Y-70574428D01*
X160273761Y-71145857D01*
X160273761Y-71574428D01*
X160392809Y-72145857D01*
X160511857Y-72431571D01*
X160749952Y-72717285D01*
X161107095Y-72860142D01*
X161345190Y-72860142D01*
X161702333Y-72717285D01*
X161821380Y-72574428D01*
X161821380Y-71574428D01*
X161345190Y-71574428D01*
X164797571Y-69860142D02*
X164797571Y-72288714D01*
X164916619Y-72574428D01*
X165035666Y-72717285D01*
X165273761Y-72860142D01*
X165749952Y-72860142D01*
X165988047Y-72717285D01*
X166107095Y-72574428D01*
X166226142Y-72288714D01*
X166226142Y-69860142D01*
X167059476Y-69860142D02*
X167892809Y-72860142D01*
X168726142Y-69860142D01*
X122053142Y-129643904D02*
X125053142Y-129048666D01*
X122910285Y-128572476D01*
X125053142Y-128096285D01*
X122053142Y-127501047D01*
X125053142Y-125477238D02*
X123481714Y-125477238D01*
X123196000Y-125596285D01*
X123053142Y-125834380D01*
X123053142Y-126310571D01*
X123196000Y-126548666D01*
X124910285Y-125477238D02*
X125053142Y-125715333D01*
X125053142Y-126310571D01*
X124910285Y-126548666D01*
X124624571Y-126667714D01*
X124338857Y-126667714D01*
X124053142Y-126548666D01*
X123910285Y-126310571D01*
X123910285Y-125715333D01*
X123767428Y-125477238D01*
X123053142Y-124643904D02*
X123053142Y-123691523D01*
X122053142Y-124286761D02*
X124624571Y-124286761D01*
X124910285Y-124167714D01*
X125053142Y-123929619D01*
X125053142Y-123691523D01*
X124910285Y-121905809D02*
X125053142Y-122143904D01*
X125053142Y-122620095D01*
X124910285Y-122858190D01*
X124624571Y-122977238D01*
X123481714Y-122977238D01*
X123196000Y-122858190D01*
X123053142Y-122620095D01*
X123053142Y-122143904D01*
X123196000Y-121905809D01*
X123481714Y-121786761D01*
X123767428Y-121786761D01*
X124053142Y-122977238D01*
X125053142Y-120715333D02*
X123053142Y-120715333D01*
X123624571Y-120715333D02*
X123338857Y-120596285D01*
X123196000Y-120477238D01*
X123053142Y-120239142D01*
X123053142Y-120001047D01*
X124910285Y-119286761D02*
X125053142Y-118929619D01*
X125053142Y-118334380D01*
X124910285Y-118096285D01*
X124767428Y-117977238D01*
X124481714Y-117858190D01*
X124196000Y-117858190D01*
X123910285Y-117977238D01*
X123767428Y-118096285D01*
X123624571Y-118334380D01*
X123481714Y-118810571D01*
X123338857Y-119048666D01*
X123196000Y-119167714D01*
X122910285Y-119286761D01*
X122624571Y-119286761D01*
X122338857Y-119167714D01*
X122196000Y-119048666D01*
X122053142Y-118810571D01*
X122053142Y-118215333D01*
X122196000Y-117858190D01*
X124910285Y-115715333D02*
X125053142Y-115953428D01*
X125053142Y-116429619D01*
X124910285Y-116667714D01*
X124767428Y-116786761D01*
X124481714Y-116905809D01*
X123624571Y-116905809D01*
X123338857Y-116786761D01*
X123196000Y-116667714D01*
X123053142Y-116429619D01*
X123053142Y-115953428D01*
X123196000Y-115715333D01*
X125053142Y-114286761D02*
X124910285Y-114524857D01*
X124767428Y-114643904D01*
X124481714Y-114762952D01*
X123624571Y-114762952D01*
X123338857Y-114643904D01*
X123196000Y-114524857D01*
X123053142Y-114286761D01*
X123053142Y-113929619D01*
X123196000Y-113691523D01*
X123338857Y-113572476D01*
X123624571Y-113453428D01*
X124481714Y-113453428D01*
X124767428Y-113572476D01*
X124910285Y-113691523D01*
X125053142Y-113929619D01*
X125053142Y-114286761D01*
X123053142Y-112382000D02*
X126053142Y-112382000D01*
X123196000Y-112382000D02*
X123053142Y-112143904D01*
X123053142Y-111667714D01*
X123196000Y-111429619D01*
X123338857Y-111310571D01*
X123624571Y-111191523D01*
X124481714Y-111191523D01*
X124767428Y-111310571D01*
X124910285Y-111429619D01*
X125053142Y-111667714D01*
X125053142Y-112143904D01*
X124910285Y-112382000D01*
X124910285Y-109167714D02*
X125053142Y-109405809D01*
X125053142Y-109882000D01*
X124910285Y-110120095D01*
X124624571Y-110239142D01*
X123481714Y-110239142D01*
X123196000Y-110120095D01*
X123053142Y-109882000D01*
X123053142Y-109405809D01*
X123196000Y-109167714D01*
X123481714Y-109048666D01*
X123767428Y-109048666D01*
X124053142Y-110239142D01*
X122053142Y-96548666D02*
X124481714Y-96548666D01*
X124767428Y-96429619D01*
X124910285Y-96310571D01*
X125053142Y-96072476D01*
X125053142Y-95596285D01*
X124910285Y-95358190D01*
X124767428Y-95239142D01*
X124481714Y-95120095D01*
X122053142Y-95120095D01*
X122053142Y-94286761D02*
X125053142Y-93453428D01*
X122053142Y-92620095D01*
X123481714Y-89048666D02*
X123624571Y-88691523D01*
X123767428Y-88572476D01*
X124053142Y-88453428D01*
X124481714Y-88453428D01*
X124767428Y-88572476D01*
X124910285Y-88691523D01*
X125053142Y-88929619D01*
X125053142Y-89882000D01*
X122053142Y-89882000D01*
X122053142Y-89048666D01*
X122196000Y-88810571D01*
X122338857Y-88691523D01*
X122624571Y-88572476D01*
X122910285Y-88572476D01*
X123196000Y-88691523D01*
X123338857Y-88810571D01*
X123481714Y-89048666D01*
X123481714Y-89882000D01*
X125053142Y-87024857D02*
X124910285Y-87262952D01*
X124624571Y-87382000D01*
X122053142Y-87382000D01*
X125053142Y-85001047D02*
X123481714Y-85001047D01*
X123196000Y-85120095D01*
X123053142Y-85358190D01*
X123053142Y-85834380D01*
X123196000Y-86072476D01*
X124910285Y-85001047D02*
X125053142Y-85239142D01*
X125053142Y-85834380D01*
X124910285Y-86072476D01*
X124624571Y-86191523D01*
X124338857Y-86191523D01*
X124053142Y-86072476D01*
X123910285Y-85834380D01*
X123910285Y-85239142D01*
X123767428Y-85001047D01*
X124910285Y-83929619D02*
X125053142Y-83691523D01*
X125053142Y-83215333D01*
X124910285Y-82977238D01*
X124624571Y-82858190D01*
X124481714Y-82858190D01*
X124196000Y-82977238D01*
X124053142Y-83215333D01*
X124053142Y-83572476D01*
X123910285Y-83810571D01*
X123624571Y-83929619D01*
X123481714Y-83929619D01*
X123196000Y-83810571D01*
X123053142Y-83572476D01*
X123053142Y-83215333D01*
X123196000Y-82977238D01*
X123053142Y-82143904D02*
X123053142Y-81191523D01*
X122053142Y-81786761D02*
X124624571Y-81786761D01*
X124910285Y-81667714D01*
X125053142Y-81429619D01*
X125053142Y-81191523D01*
X124910285Y-79405809D02*
X125053142Y-79643904D01*
X125053142Y-80120095D01*
X124910285Y-80358190D01*
X124624571Y-80477238D01*
X123481714Y-80477238D01*
X123196000Y-80358190D01*
X123053142Y-80120095D01*
X123053142Y-79643904D01*
X123196000Y-79405809D01*
X123481714Y-79286761D01*
X123767428Y-79286761D01*
X124053142Y-80477238D01*
X125053142Y-78215333D02*
X123053142Y-78215333D01*
X123624571Y-78215333D02*
X123338857Y-78096285D01*
X123196000Y-77977238D01*
X123053142Y-77739142D01*
X123053142Y-77501047D01*
X127883142Y-94822476D02*
X129883142Y-94227238D01*
X127883142Y-93632000D01*
X129883142Y-91370095D02*
X129883142Y-92798666D01*
X129883142Y-92084380D02*
X126883142Y-92084380D01*
X127311714Y-92322476D01*
X127597428Y-92560571D01*
X127740285Y-92798666D01*
X129597428Y-90298666D02*
X129740285Y-90179619D01*
X129883142Y-90298666D01*
X129740285Y-90417714D01*
X129597428Y-90298666D01*
X129883142Y-90298666D01*
X127168857Y-89227238D02*
X127026000Y-89108190D01*
X126883142Y-88870095D01*
X126883142Y-88274857D01*
X127026000Y-88036761D01*
X127168857Y-87917714D01*
X127454571Y-87798666D01*
X127740285Y-87798666D01*
X128168857Y-87917714D01*
X129883142Y-89346285D01*
X129883142Y-87798666D01*
D12*
%TO.C,IC1*%
X171124619Y-124118809D02*
X172124619Y-124118809D01*
X171219857Y-125166428D02*
X171172238Y-125118809D01*
X171124619Y-124975952D01*
X171124619Y-124880714D01*
X171172238Y-124737857D01*
X171267476Y-124642619D01*
X171362714Y-124595000D01*
X171553190Y-124547380D01*
X171696047Y-124547380D01*
X171886523Y-124595000D01*
X171981761Y-124642619D01*
X172077000Y-124737857D01*
X172124619Y-124880714D01*
X172124619Y-124975952D01*
X172077000Y-125118809D01*
X172029380Y-125166428D01*
X171124619Y-126118809D02*
X171124619Y-125547380D01*
X171124619Y-125833095D02*
X172124619Y-125833095D01*
X171981761Y-125737857D01*
X171886523Y-125642619D01*
X171838904Y-125547380D01*
D13*
%TO.C,LED2*%
X173379361Y-93952599D02*
X172774599Y-93952599D01*
X172774599Y-92682599D01*
X173802694Y-93287361D02*
X174226028Y-93287361D01*
X174407456Y-93952599D02*
X173802694Y-93952599D01*
X173802694Y-92682599D01*
X174407456Y-92682599D01*
X174951742Y-93952599D02*
X174951742Y-92682599D01*
X175254123Y-92682599D01*
X175435552Y-92743076D01*
X175556504Y-92864028D01*
X175616980Y-92984980D01*
X175677456Y-93226885D01*
X175677456Y-93408314D01*
X175616980Y-93650218D01*
X175556504Y-93771171D01*
X175435552Y-93892123D01*
X175254123Y-93952599D01*
X174951742Y-93952599D01*
X176161266Y-92803552D02*
X176221742Y-92743076D01*
X176342694Y-92682599D01*
X176645075Y-92682599D01*
X176766028Y-92743076D01*
X176826504Y-92803552D01*
X176886980Y-92924504D01*
X176886980Y-93045456D01*
X176826504Y-93226885D01*
X176100790Y-93952599D01*
X176886980Y-93952599D01*
D14*
%TO.C,C1*%
X166838333Y-130024142D02*
X166790714Y-130071761D01*
X166647857Y-130119380D01*
X166552619Y-130119380D01*
X166409761Y-130071761D01*
X166314523Y-129976523D01*
X166266904Y-129881285D01*
X166219285Y-129690809D01*
X166219285Y-129547952D01*
X166266904Y-129357476D01*
X166314523Y-129262238D01*
X166409761Y-129167000D01*
X166552619Y-129119380D01*
X166647857Y-129119380D01*
X166790714Y-129167000D01*
X166838333Y-129214619D01*
X167790714Y-130119380D02*
X167219285Y-130119380D01*
X167505000Y-130119380D02*
X167505000Y-129119380D01*
X167409761Y-129262238D01*
X167314523Y-129357476D01*
X167219285Y-129405095D01*
%TO.C,C2*%
X160488333Y-133834142D02*
X160440714Y-133881761D01*
X160297857Y-133929380D01*
X160202619Y-133929380D01*
X160059761Y-133881761D01*
X159964523Y-133786523D01*
X159916904Y-133691285D01*
X159869285Y-133500809D01*
X159869285Y-133357952D01*
X159916904Y-133167476D01*
X159964523Y-133072238D01*
X160059761Y-132977000D01*
X160202619Y-132929380D01*
X160297857Y-132929380D01*
X160440714Y-132977000D01*
X160488333Y-133024619D01*
X160869285Y-133024619D02*
X160916904Y-132977000D01*
X161012142Y-132929380D01*
X161250238Y-132929380D01*
X161345476Y-132977000D01*
X161393095Y-133024619D01*
X161440714Y-133119857D01*
X161440714Y-133215095D01*
X161393095Y-133357952D01*
X160821666Y-133929380D01*
X161440714Y-133929380D01*
%TO.C,USB1*%
X155868904Y-138517380D02*
X155868904Y-139326904D01*
X155916523Y-139422142D01*
X155964142Y-139469761D01*
X156059380Y-139517380D01*
X156249857Y-139517380D01*
X156345095Y-139469761D01*
X156392714Y-139422142D01*
X156440333Y-139326904D01*
X156440333Y-138517380D01*
X156868904Y-139469761D02*
X157011761Y-139517380D01*
X157249857Y-139517380D01*
X157345095Y-139469761D01*
X157392714Y-139422142D01*
X157440333Y-139326904D01*
X157440333Y-139231666D01*
X157392714Y-139136428D01*
X157345095Y-139088809D01*
X157249857Y-139041190D01*
X157059380Y-138993571D01*
X156964142Y-138945952D01*
X156916523Y-138898333D01*
X156868904Y-138803095D01*
X156868904Y-138707857D01*
X156916523Y-138612619D01*
X156964142Y-138565000D01*
X157059380Y-138517380D01*
X157297476Y-138517380D01*
X157440333Y-138565000D01*
X158202238Y-138993571D02*
X158345095Y-139041190D01*
X158392714Y-139088809D01*
X158440333Y-139184047D01*
X158440333Y-139326904D01*
X158392714Y-139422142D01*
X158345095Y-139469761D01*
X158249857Y-139517380D01*
X157868904Y-139517380D01*
X157868904Y-138517380D01*
X158202238Y-138517380D01*
X158297476Y-138565000D01*
X158345095Y-138612619D01*
X158392714Y-138707857D01*
X158392714Y-138803095D01*
X158345095Y-138898333D01*
X158297476Y-138945952D01*
X158202238Y-138993571D01*
X157868904Y-138993571D01*
X159392714Y-139517380D02*
X158821285Y-139517380D01*
X159107000Y-139517380D02*
X159107000Y-138517380D01*
X159011761Y-138660238D01*
X158916523Y-138755476D01*
X158821285Y-138803095D01*
%TO.C,R1*%
X173299380Y-131357666D02*
X172823190Y-131691000D01*
X173299380Y-131929095D02*
X172299380Y-131929095D01*
X172299380Y-131548142D01*
X172347000Y-131452904D01*
X172394619Y-131405285D01*
X172489857Y-131357666D01*
X172632714Y-131357666D01*
X172727952Y-131405285D01*
X172775571Y-131452904D01*
X172823190Y-131548142D01*
X172823190Y-131929095D01*
X173299380Y-130405285D02*
X173299380Y-130976714D01*
X173299380Y-130691000D02*
X172299380Y-130691000D01*
X172442238Y-130786238D01*
X172537476Y-130881476D01*
X172585095Y-130976714D01*
D13*
%TO.C,L1*%
X171873333Y-137988523D02*
X171268571Y-137988523D01*
X171268571Y-136718523D01*
X172961904Y-137988523D02*
X172236190Y-137988523D01*
X172599047Y-137988523D02*
X172599047Y-136718523D01*
X172478095Y-136899952D01*
X172357142Y-137020904D01*
X172236190Y-137081380D01*
D14*
%TO.C,C3*%
X179030333Y-120626142D02*
X178982714Y-120673761D01*
X178839857Y-120721380D01*
X178744619Y-120721380D01*
X178601761Y-120673761D01*
X178506523Y-120578523D01*
X178458904Y-120483285D01*
X178411285Y-120292809D01*
X178411285Y-120149952D01*
X178458904Y-119959476D01*
X178506523Y-119864238D01*
X178601761Y-119769000D01*
X178744619Y-119721380D01*
X178839857Y-119721380D01*
X178982714Y-119769000D01*
X179030333Y-119816619D01*
X179363666Y-119721380D02*
X179982714Y-119721380D01*
X179649380Y-120102333D01*
X179792238Y-120102333D01*
X179887476Y-120149952D01*
X179935095Y-120197571D01*
X179982714Y-120292809D01*
X179982714Y-120530904D01*
X179935095Y-120626142D01*
X179887476Y-120673761D01*
X179792238Y-120721380D01*
X179506523Y-120721380D01*
X179411285Y-120673761D01*
X179363666Y-120626142D01*
%TO.C,R3*%
X158710333Y-136469380D02*
X158377000Y-135993190D01*
X158138904Y-136469380D02*
X158138904Y-135469380D01*
X158519857Y-135469380D01*
X158615095Y-135517000D01*
X158662714Y-135564619D01*
X158710333Y-135659857D01*
X158710333Y-135802714D01*
X158662714Y-135897952D01*
X158615095Y-135945571D01*
X158519857Y-135993190D01*
X158138904Y-135993190D01*
X159043666Y-135469380D02*
X159662714Y-135469380D01*
X159329380Y-135850333D01*
X159472238Y-135850333D01*
X159567476Y-135897952D01*
X159615095Y-135945571D01*
X159662714Y-136040809D01*
X159662714Y-136278904D01*
X159615095Y-136374142D01*
X159567476Y-136421761D01*
X159472238Y-136469380D01*
X159186523Y-136469380D01*
X159091285Y-136421761D01*
X159043666Y-136374142D01*
%TO.C,C5*%
X179030333Y-118721142D02*
X178982714Y-118768761D01*
X178839857Y-118816380D01*
X178744619Y-118816380D01*
X178601761Y-118768761D01*
X178506523Y-118673523D01*
X178458904Y-118578285D01*
X178411285Y-118387809D01*
X178411285Y-118244952D01*
X178458904Y-118054476D01*
X178506523Y-117959238D01*
X178601761Y-117864000D01*
X178744619Y-117816380D01*
X178839857Y-117816380D01*
X178982714Y-117864000D01*
X179030333Y-117911619D01*
X179935095Y-117816380D02*
X179458904Y-117816380D01*
X179411285Y-118292571D01*
X179458904Y-118244952D01*
X179554142Y-118197333D01*
X179792238Y-118197333D01*
X179887476Y-118244952D01*
X179935095Y-118292571D01*
X179982714Y-118387809D01*
X179982714Y-118625904D01*
X179935095Y-118721142D01*
X179887476Y-118768761D01*
X179792238Y-118816380D01*
X179554142Y-118816380D01*
X179458904Y-118768761D01*
X179411285Y-118721142D01*
%TO.C,C4*%
X179030333Y-122531142D02*
X178982714Y-122578761D01*
X178839857Y-122626380D01*
X178744619Y-122626380D01*
X178601761Y-122578761D01*
X178506523Y-122483523D01*
X178458904Y-122388285D01*
X178411285Y-122197809D01*
X178411285Y-122054952D01*
X178458904Y-121864476D01*
X178506523Y-121769238D01*
X178601761Y-121674000D01*
X178744619Y-121626380D01*
X178839857Y-121626380D01*
X178982714Y-121674000D01*
X179030333Y-121721619D01*
X179887476Y-121959714D02*
X179887476Y-122626380D01*
X179649380Y-121578761D02*
X179411285Y-122293047D01*
X180030333Y-122293047D01*
%TO.C,R5*%
X165773380Y-127801666D02*
X165297190Y-128135000D01*
X165773380Y-128373095D02*
X164773380Y-128373095D01*
X164773380Y-127992142D01*
X164821000Y-127896904D01*
X164868619Y-127849285D01*
X164963857Y-127801666D01*
X165106714Y-127801666D01*
X165201952Y-127849285D01*
X165249571Y-127896904D01*
X165297190Y-127992142D01*
X165297190Y-128373095D01*
X164773380Y-126896904D02*
X164773380Y-127373095D01*
X165249571Y-127420714D01*
X165201952Y-127373095D01*
X165154333Y-127277857D01*
X165154333Y-127039761D01*
X165201952Y-126944523D01*
X165249571Y-126896904D01*
X165344809Y-126849285D01*
X165582904Y-126849285D01*
X165678142Y-126896904D01*
X165725761Y-126944523D01*
X165773380Y-127039761D01*
X165773380Y-127277857D01*
X165725761Y-127373095D01*
X165678142Y-127420714D01*
%TO.C,R2*%
X156170333Y-136469380D02*
X155837000Y-135993190D01*
X155598904Y-136469380D02*
X155598904Y-135469380D01*
X155979857Y-135469380D01*
X156075095Y-135517000D01*
X156122714Y-135564619D01*
X156170333Y-135659857D01*
X156170333Y-135802714D01*
X156122714Y-135897952D01*
X156075095Y-135945571D01*
X155979857Y-135993190D01*
X155598904Y-135993190D01*
X156551285Y-135564619D02*
X156598904Y-135517000D01*
X156694142Y-135469380D01*
X156932238Y-135469380D01*
X157027476Y-135517000D01*
X157075095Y-135564619D01*
X157122714Y-135659857D01*
X157122714Y-135755095D01*
X157075095Y-135897952D01*
X156503666Y-136469380D01*
X157122714Y-136469380D01*
%TO.C,D1*%
X176855380Y-127611095D02*
X175855380Y-127611095D01*
X175855380Y-127373000D01*
X175903000Y-127230142D01*
X175998238Y-127134904D01*
X176093476Y-127087285D01*
X176283952Y-127039666D01*
X176426809Y-127039666D01*
X176617285Y-127087285D01*
X176712523Y-127134904D01*
X176807761Y-127230142D01*
X176855380Y-127373000D01*
X176855380Y-127611095D01*
X176855380Y-126087285D02*
X176855380Y-126658714D01*
X176855380Y-126373000D02*
X175855380Y-126373000D01*
X175998238Y-126468238D01*
X176093476Y-126563476D01*
X176141095Y-126658714D01*
%TO.C,R6*%
X169378333Y-92104380D02*
X169045000Y-91628190D01*
X168806904Y-92104380D02*
X168806904Y-91104380D01*
X169187857Y-91104380D01*
X169283095Y-91152000D01*
X169330714Y-91199619D01*
X169378333Y-91294857D01*
X169378333Y-91437714D01*
X169330714Y-91532952D01*
X169283095Y-91580571D01*
X169187857Y-91628190D01*
X168806904Y-91628190D01*
X170235476Y-91104380D02*
X170045000Y-91104380D01*
X169949761Y-91152000D01*
X169902142Y-91199619D01*
X169806904Y-91342476D01*
X169759285Y-91532952D01*
X169759285Y-91913904D01*
X169806904Y-92009142D01*
X169854523Y-92056761D01*
X169949761Y-92104380D01*
X170140238Y-92104380D01*
X170235476Y-92056761D01*
X170283095Y-92009142D01*
X170330714Y-91913904D01*
X170330714Y-91675809D01*
X170283095Y-91580571D01*
X170235476Y-91532952D01*
X170140238Y-91485333D01*
X169949761Y-91485333D01*
X169854523Y-91532952D01*
X169806904Y-91580571D01*
X169759285Y-91675809D01*
%TO.C,R10*%
X174490142Y-100528380D02*
X174156809Y-100052190D01*
X173918714Y-100528380D02*
X173918714Y-99528380D01*
X174299666Y-99528380D01*
X174394904Y-99576000D01*
X174442523Y-99623619D01*
X174490142Y-99718857D01*
X174490142Y-99861714D01*
X174442523Y-99956952D01*
X174394904Y-100004571D01*
X174299666Y-100052190D01*
X173918714Y-100052190D01*
X175442523Y-100528380D02*
X174871095Y-100528380D01*
X175156809Y-100528380D02*
X175156809Y-99528380D01*
X175061571Y-99671238D01*
X174966333Y-99766476D01*
X174871095Y-99814095D01*
X176061571Y-99528380D02*
X176156809Y-99528380D01*
X176252047Y-99576000D01*
X176299666Y-99623619D01*
X176347285Y-99718857D01*
X176394904Y-99909333D01*
X176394904Y-100147428D01*
X176347285Y-100337904D01*
X176299666Y-100433142D01*
X176252047Y-100480761D01*
X176156809Y-100528380D01*
X176061571Y-100528380D01*
X175966333Y-100480761D01*
X175918714Y-100433142D01*
X175871095Y-100337904D01*
X175823476Y-100147428D01*
X175823476Y-99909333D01*
X175871095Y-99718857D01*
X175918714Y-99623619D01*
X175966333Y-99576000D01*
X176061571Y-99528380D01*
%TO.C,R4*%
X169124333Y-124277380D02*
X168791000Y-123801190D01*
X168552904Y-124277380D02*
X168552904Y-123277380D01*
X168933857Y-123277380D01*
X169029095Y-123325000D01*
X169076714Y-123372619D01*
X169124333Y-123467857D01*
X169124333Y-123610714D01*
X169076714Y-123705952D01*
X169029095Y-123753571D01*
X168933857Y-123801190D01*
X168552904Y-123801190D01*
X169981476Y-123610714D02*
X169981476Y-124277380D01*
X169743380Y-123229761D02*
X169505285Y-123944047D01*
X170124333Y-123944047D01*
%TO.C,C7*%
X132437142Y-110656666D02*
X132484761Y-110704285D01*
X132532380Y-110847142D01*
X132532380Y-110942380D01*
X132484761Y-111085238D01*
X132389523Y-111180476D01*
X132294285Y-111228095D01*
X132103809Y-111275714D01*
X131960952Y-111275714D01*
X131770476Y-111228095D01*
X131675238Y-111180476D01*
X131580000Y-111085238D01*
X131532380Y-110942380D01*
X131532380Y-110847142D01*
X131580000Y-110704285D01*
X131627619Y-110656666D01*
X131532380Y-110323333D02*
X131532380Y-109656666D01*
X132532380Y-110085238D01*
%TO.C,C8*%
X163917333Y-139422142D02*
X163869714Y-139469761D01*
X163726857Y-139517380D01*
X163631619Y-139517380D01*
X163488761Y-139469761D01*
X163393523Y-139374523D01*
X163345904Y-139279285D01*
X163298285Y-139088809D01*
X163298285Y-138945952D01*
X163345904Y-138755476D01*
X163393523Y-138660238D01*
X163488761Y-138565000D01*
X163631619Y-138517380D01*
X163726857Y-138517380D01*
X163869714Y-138565000D01*
X163917333Y-138612619D01*
X164488761Y-138945952D02*
X164393523Y-138898333D01*
X164345904Y-138850714D01*
X164298285Y-138755476D01*
X164298285Y-138707857D01*
X164345904Y-138612619D01*
X164393523Y-138565000D01*
X164488761Y-138517380D01*
X164679238Y-138517380D01*
X164774476Y-138565000D01*
X164822095Y-138612619D01*
X164869714Y-138707857D01*
X164869714Y-138755476D01*
X164822095Y-138850714D01*
X164774476Y-138898333D01*
X164679238Y-138945952D01*
X164488761Y-138945952D01*
X164393523Y-138993571D01*
X164345904Y-139041190D01*
X164298285Y-139136428D01*
X164298285Y-139326904D01*
X164345904Y-139422142D01*
X164393523Y-139469761D01*
X164488761Y-139517380D01*
X164679238Y-139517380D01*
X164774476Y-139469761D01*
X164822095Y-139422142D01*
X164869714Y-139326904D01*
X164869714Y-139136428D01*
X164822095Y-139041190D01*
X164774476Y-138993571D01*
X164679238Y-138945952D01*
%TO.C,C9*%
X132691142Y-109005666D02*
X132738761Y-109053285D01*
X132786380Y-109196142D01*
X132786380Y-109291380D01*
X132738761Y-109434238D01*
X132643523Y-109529476D01*
X132548285Y-109577095D01*
X132357809Y-109624714D01*
X132214952Y-109624714D01*
X132024476Y-109577095D01*
X131929238Y-109529476D01*
X131834000Y-109434238D01*
X131786380Y-109291380D01*
X131786380Y-109196142D01*
X131834000Y-109053285D01*
X131881619Y-109005666D01*
X132786380Y-108529476D02*
X132786380Y-108339000D01*
X132738761Y-108243761D01*
X132691142Y-108196142D01*
X132548285Y-108100904D01*
X132357809Y-108053285D01*
X131976857Y-108053285D01*
X131881619Y-108100904D01*
X131834000Y-108148523D01*
X131786380Y-108243761D01*
X131786380Y-108434238D01*
X131834000Y-108529476D01*
X131881619Y-108577095D01*
X131976857Y-108624714D01*
X132214952Y-108624714D01*
X132310190Y-108577095D01*
X132357809Y-108529476D01*
X132405428Y-108434238D01*
X132405428Y-108243761D01*
X132357809Y-108148523D01*
X132310190Y-108100904D01*
X132214952Y-108053285D01*
%TO.C,C10*%
X164838142Y-92432142D02*
X164790523Y-92479761D01*
X164647666Y-92527380D01*
X164552428Y-92527380D01*
X164409571Y-92479761D01*
X164314333Y-92384523D01*
X164266714Y-92289285D01*
X164219095Y-92098809D01*
X164219095Y-91955952D01*
X164266714Y-91765476D01*
X164314333Y-91670238D01*
X164409571Y-91575000D01*
X164552428Y-91527380D01*
X164647666Y-91527380D01*
X164790523Y-91575000D01*
X164838142Y-91622619D01*
X165790523Y-92527380D02*
X165219095Y-92527380D01*
X165504809Y-92527380D02*
X165504809Y-91527380D01*
X165409571Y-91670238D01*
X165314333Y-91765476D01*
X165219095Y-91813095D01*
X166409571Y-91527380D02*
X166504809Y-91527380D01*
X166600047Y-91575000D01*
X166647666Y-91622619D01*
X166695285Y-91717857D01*
X166742904Y-91908333D01*
X166742904Y-92146428D01*
X166695285Y-92336904D01*
X166647666Y-92432142D01*
X166600047Y-92479761D01*
X166504809Y-92527380D01*
X166409571Y-92527380D01*
X166314333Y-92479761D01*
X166266714Y-92432142D01*
X166219095Y-92336904D01*
X166171476Y-92146428D01*
X166171476Y-91908333D01*
X166219095Y-91717857D01*
X166266714Y-91622619D01*
X166314333Y-91575000D01*
X166409571Y-91527380D01*
%TO.C,C11*%
X162028142Y-95257857D02*
X162075761Y-95305476D01*
X162123380Y-95448333D01*
X162123380Y-95543571D01*
X162075761Y-95686428D01*
X161980523Y-95781666D01*
X161885285Y-95829285D01*
X161694809Y-95876904D01*
X161551952Y-95876904D01*
X161361476Y-95829285D01*
X161266238Y-95781666D01*
X161171000Y-95686428D01*
X161123380Y-95543571D01*
X161123380Y-95448333D01*
X161171000Y-95305476D01*
X161218619Y-95257857D01*
X162123380Y-94305476D02*
X162123380Y-94876904D01*
X162123380Y-94591190D02*
X161123380Y-94591190D01*
X161266238Y-94686428D01*
X161361476Y-94781666D01*
X161409095Y-94876904D01*
X162123380Y-93353095D02*
X162123380Y-93924523D01*
X162123380Y-93638809D02*
X161123380Y-93638809D01*
X161266238Y-93734047D01*
X161361476Y-93829285D01*
X161409095Y-93924523D01*
%TO.C,C12*%
X161536142Y-75033142D02*
X161488523Y-75080761D01*
X161345666Y-75128380D01*
X161250428Y-75128380D01*
X161107571Y-75080761D01*
X161012333Y-74985523D01*
X160964714Y-74890285D01*
X160917095Y-74699809D01*
X160917095Y-74556952D01*
X160964714Y-74366476D01*
X161012333Y-74271238D01*
X161107571Y-74176000D01*
X161250428Y-74128380D01*
X161345666Y-74128380D01*
X161488523Y-74176000D01*
X161536142Y-74223619D01*
X162488523Y-75128380D02*
X161917095Y-75128380D01*
X162202809Y-75128380D02*
X162202809Y-74128380D01*
X162107571Y-74271238D01*
X162012333Y-74366476D01*
X161917095Y-74414095D01*
X162869476Y-74223619D02*
X162917095Y-74176000D01*
X163012333Y-74128380D01*
X163250428Y-74128380D01*
X163345666Y-74176000D01*
X163393285Y-74223619D01*
X163440904Y-74318857D01*
X163440904Y-74414095D01*
X163393285Y-74556952D01*
X162821857Y-75128380D01*
X163440904Y-75128380D01*
%TO.C,C13*%
X158980142Y-75572857D02*
X159027761Y-75620476D01*
X159075380Y-75763333D01*
X159075380Y-75858571D01*
X159027761Y-76001428D01*
X158932523Y-76096666D01*
X158837285Y-76144285D01*
X158646809Y-76191904D01*
X158503952Y-76191904D01*
X158313476Y-76144285D01*
X158218238Y-76096666D01*
X158123000Y-76001428D01*
X158075380Y-75858571D01*
X158075380Y-75763333D01*
X158123000Y-75620476D01*
X158170619Y-75572857D01*
X159075380Y-74620476D02*
X159075380Y-75191904D01*
X159075380Y-74906190D02*
X158075380Y-74906190D01*
X158218238Y-75001428D01*
X158313476Y-75096666D01*
X158361095Y-75191904D01*
X158075380Y-74287142D02*
X158075380Y-73668095D01*
X158456333Y-74001428D01*
X158456333Y-73858571D01*
X158503952Y-73763333D01*
X158551571Y-73715714D01*
X158646809Y-73668095D01*
X158884904Y-73668095D01*
X158980142Y-73715714D01*
X159027761Y-73763333D01*
X159075380Y-73858571D01*
X159075380Y-74144285D01*
X159027761Y-74239523D01*
X158980142Y-74287142D01*
%TO.C,C14*%
X132072142Y-100687142D02*
X132024523Y-100734761D01*
X131881666Y-100782380D01*
X131786428Y-100782380D01*
X131643571Y-100734761D01*
X131548333Y-100639523D01*
X131500714Y-100544285D01*
X131453095Y-100353809D01*
X131453095Y-100210952D01*
X131500714Y-100020476D01*
X131548333Y-99925238D01*
X131643571Y-99830000D01*
X131786428Y-99782380D01*
X131881666Y-99782380D01*
X132024523Y-99830000D01*
X132072142Y-99877619D01*
X133024523Y-100782380D02*
X132453095Y-100782380D01*
X132738809Y-100782380D02*
X132738809Y-99782380D01*
X132643571Y-99925238D01*
X132548333Y-100020476D01*
X132453095Y-100068095D01*
X133881666Y-100115714D02*
X133881666Y-100782380D01*
X133643571Y-99734761D02*
X133405476Y-100449047D01*
X134024523Y-100449047D01*
%TO.C,C15*%
X160504142Y-75445857D02*
X160551761Y-75493476D01*
X160599380Y-75636333D01*
X160599380Y-75731571D01*
X160551761Y-75874428D01*
X160456523Y-75969666D01*
X160361285Y-76017285D01*
X160170809Y-76064904D01*
X160027952Y-76064904D01*
X159837476Y-76017285D01*
X159742238Y-75969666D01*
X159647000Y-75874428D01*
X159599380Y-75731571D01*
X159599380Y-75636333D01*
X159647000Y-75493476D01*
X159694619Y-75445857D01*
X160599380Y-74493476D02*
X160599380Y-75064904D01*
X160599380Y-74779190D02*
X159599380Y-74779190D01*
X159742238Y-74874428D01*
X159837476Y-74969666D01*
X159885095Y-75064904D01*
X159599380Y-73588714D02*
X159599380Y-74064904D01*
X160075571Y-74112523D01*
X160027952Y-74064904D01*
X159980333Y-73969666D01*
X159980333Y-73731571D01*
X160027952Y-73636333D01*
X160075571Y-73588714D01*
X160170809Y-73541095D01*
X160408904Y-73541095D01*
X160504142Y-73588714D01*
X160551761Y-73636333D01*
X160599380Y-73731571D01*
X160599380Y-73969666D01*
X160551761Y-74064904D01*
X160504142Y-74112523D01*
%TO.C,C16*%
X155821142Y-75160142D02*
X155773523Y-75207761D01*
X155630666Y-75255380D01*
X155535428Y-75255380D01*
X155392571Y-75207761D01*
X155297333Y-75112523D01*
X155249714Y-75017285D01*
X155202095Y-74826809D01*
X155202095Y-74683952D01*
X155249714Y-74493476D01*
X155297333Y-74398238D01*
X155392571Y-74303000D01*
X155535428Y-74255380D01*
X155630666Y-74255380D01*
X155773523Y-74303000D01*
X155821142Y-74350619D01*
X156773523Y-75255380D02*
X156202095Y-75255380D01*
X156487809Y-75255380D02*
X156487809Y-74255380D01*
X156392571Y-74398238D01*
X156297333Y-74493476D01*
X156202095Y-74541095D01*
X157630666Y-74255380D02*
X157440190Y-74255380D01*
X157344952Y-74303000D01*
X157297333Y-74350619D01*
X157202095Y-74493476D01*
X157154476Y-74683952D01*
X157154476Y-75064904D01*
X157202095Y-75160142D01*
X157249714Y-75207761D01*
X157344952Y-75255380D01*
X157535428Y-75255380D01*
X157630666Y-75207761D01*
X157678285Y-75160142D01*
X157725904Y-75064904D01*
X157725904Y-74826809D01*
X157678285Y-74731571D01*
X157630666Y-74683952D01*
X157535428Y-74636333D01*
X157344952Y-74636333D01*
X157249714Y-74683952D01*
X157202095Y-74731571D01*
X157154476Y-74826809D01*
%TO.C,C17*%
X132072142Y-106021142D02*
X132024523Y-106068761D01*
X131881666Y-106116380D01*
X131786428Y-106116380D01*
X131643571Y-106068761D01*
X131548333Y-105973523D01*
X131500714Y-105878285D01*
X131453095Y-105687809D01*
X131453095Y-105544952D01*
X131500714Y-105354476D01*
X131548333Y-105259238D01*
X131643571Y-105164000D01*
X131786428Y-105116380D01*
X131881666Y-105116380D01*
X132024523Y-105164000D01*
X132072142Y-105211619D01*
X133024523Y-106116380D02*
X132453095Y-106116380D01*
X132738809Y-106116380D02*
X132738809Y-105116380D01*
X132643571Y-105259238D01*
X132548333Y-105354476D01*
X132453095Y-105402095D01*
X133357857Y-105116380D02*
X134024523Y-105116380D01*
X133595952Y-106116380D01*
%TO.C,C6*%
X160488333Y-131598942D02*
X160440714Y-131646561D01*
X160297857Y-131694180D01*
X160202619Y-131694180D01*
X160059761Y-131646561D01*
X159964523Y-131551323D01*
X159916904Y-131456085D01*
X159869285Y-131265609D01*
X159869285Y-131122752D01*
X159916904Y-130932276D01*
X159964523Y-130837038D01*
X160059761Y-130741800D01*
X160202619Y-130694180D01*
X160297857Y-130694180D01*
X160440714Y-130741800D01*
X160488333Y-130789419D01*
X161345476Y-130694180D02*
X161155000Y-130694180D01*
X161059761Y-130741800D01*
X161012142Y-130789419D01*
X160916904Y-130932276D01*
X160869285Y-131122752D01*
X160869285Y-131503704D01*
X160916904Y-131598942D01*
X160964523Y-131646561D01*
X161059761Y-131694180D01*
X161250238Y-131694180D01*
X161345476Y-131646561D01*
X161393095Y-131598942D01*
X161440714Y-131503704D01*
X161440714Y-131265609D01*
X161393095Y-131170371D01*
X161345476Y-131122752D01*
X161250238Y-131075133D01*
X161059761Y-131075133D01*
X160964523Y-131122752D01*
X160916904Y-131170371D01*
X160869285Y-131265609D01*
D13*
%TO.C,LED1*%
X173379274Y-113952599D02*
X172774512Y-113952599D01*
X172774512Y-112682599D01*
X173802607Y-113287361D02*
X174225941Y-113287361D01*
X174407369Y-113952599D02*
X173802607Y-113952599D01*
X173802607Y-112682599D01*
X174407369Y-112682599D01*
X174951655Y-113952599D02*
X174951655Y-112682599D01*
X175254036Y-112682599D01*
X175435465Y-112743076D01*
X175556417Y-112864028D01*
X175616893Y-112984980D01*
X175677369Y-113226885D01*
X175677369Y-113408314D01*
X175616893Y-113650218D01*
X175556417Y-113771171D01*
X175435465Y-113892123D01*
X175254036Y-113952599D01*
X174951655Y-113952599D01*
X176886893Y-113952599D02*
X176161179Y-113952599D01*
X176524036Y-113952599D02*
X176524036Y-112682599D01*
X176403084Y-112864028D01*
X176282131Y-112984980D01*
X176161179Y-113045456D01*
D14*
%TO.C,R27*%
X180868580Y-109659657D02*
X180392390Y-109992990D01*
X180868580Y-110231085D02*
X179868580Y-110231085D01*
X179868580Y-109850133D01*
X179916200Y-109754895D01*
X179963819Y-109707276D01*
X180059057Y-109659657D01*
X180201914Y-109659657D01*
X180297152Y-109707276D01*
X180344771Y-109754895D01*
X180392390Y-109850133D01*
X180392390Y-110231085D01*
X179963819Y-109278704D02*
X179916200Y-109231085D01*
X179868580Y-109135847D01*
X179868580Y-108897752D01*
X179916200Y-108802514D01*
X179963819Y-108754895D01*
X180059057Y-108707276D01*
X180154295Y-108707276D01*
X180297152Y-108754895D01*
X180868580Y-109326323D01*
X180868580Y-108707276D01*
X179868580Y-108373942D02*
X179868580Y-107707276D01*
X180868580Y-108135847D01*
%TO.C,H1*%
X181688063Y-124226380D02*
X181688063Y-123226380D01*
X181688063Y-123702571D02*
X182259491Y-123702571D01*
X182259491Y-124226380D02*
X182259491Y-123226380D01*
X183259491Y-124226380D02*
X182688063Y-124226380D01*
X182973777Y-124226380D02*
X182973777Y-123226380D01*
X182878539Y-123369238D01*
X182783301Y-123464476D01*
X182688063Y-123512095D01*
%TO.C,H2*%
X131748127Y-74050348D02*
X131748127Y-73050348D01*
X131748127Y-73526539D02*
X132319555Y-73526539D01*
X132319555Y-74050348D02*
X132319555Y-73050348D01*
X132748127Y-73145587D02*
X132795746Y-73097968D01*
X132890984Y-73050348D01*
X133129079Y-73050348D01*
X133224317Y-73097968D01*
X133271936Y-73145587D01*
X133319555Y-73240825D01*
X133319555Y-73336063D01*
X133271936Y-73478920D01*
X132700508Y-74050348D01*
X133319555Y-74050348D01*
%TO.C,H3*%
X131688063Y-124050348D02*
X131688063Y-123050348D01*
X131688063Y-123526539D02*
X132259491Y-123526539D01*
X132259491Y-124050348D02*
X132259491Y-123050348D01*
X132640444Y-123050348D02*
X133259491Y-123050348D01*
X132926158Y-123431301D01*
X133069015Y-123431301D01*
X133164253Y-123478920D01*
X133211872Y-123526539D01*
X133259491Y-123621777D01*
X133259491Y-123859872D01*
X133211872Y-123955110D01*
X133164253Y-124002729D01*
X133069015Y-124050348D01*
X132783301Y-124050348D01*
X132688063Y-124002729D01*
X132640444Y-123955110D01*
%TO.C,H4*%
X181748127Y-74110412D02*
X181748127Y-73110412D01*
X181748127Y-73586603D02*
X182319555Y-73586603D01*
X182319555Y-74110412D02*
X182319555Y-73110412D01*
X183224317Y-73443746D02*
X183224317Y-74110412D01*
X182986222Y-73062793D02*
X182748127Y-73777079D01*
X183367174Y-73777079D01*
D13*
%TO.C,LED4*%
X138738345Y-93952447D02*
X138133583Y-93952447D01*
X138133583Y-92682447D01*
X139161678Y-93287209D02*
X139585012Y-93287209D01*
X139766440Y-93952447D02*
X139161678Y-93952447D01*
X139161678Y-92682447D01*
X139766440Y-92682447D01*
X140310726Y-93952447D02*
X140310726Y-92682447D01*
X140613107Y-92682447D01*
X140794536Y-92742924D01*
X140915488Y-92863876D01*
X140975964Y-92984828D01*
X141036440Y-93226733D01*
X141036440Y-93408162D01*
X140975964Y-93650066D01*
X140915488Y-93771019D01*
X140794536Y-93891971D01*
X140613107Y-93952447D01*
X140310726Y-93952447D01*
X142125012Y-93105781D02*
X142125012Y-93952447D01*
X141822631Y-92621971D02*
X141520250Y-93529114D01*
X142306440Y-93529114D01*
D14*
%TO.C,R31*%
X144772142Y-94601380D02*
X144438809Y-94125190D01*
X144200714Y-94601380D02*
X144200714Y-93601380D01*
X144581666Y-93601380D01*
X144676904Y-93649000D01*
X144724523Y-93696619D01*
X144772142Y-93791857D01*
X144772142Y-93934714D01*
X144724523Y-94029952D01*
X144676904Y-94077571D01*
X144581666Y-94125190D01*
X144200714Y-94125190D01*
X145105476Y-93601380D02*
X145724523Y-93601380D01*
X145391190Y-93982333D01*
X145534047Y-93982333D01*
X145629285Y-94029952D01*
X145676904Y-94077571D01*
X145724523Y-94172809D01*
X145724523Y-94410904D01*
X145676904Y-94506142D01*
X145629285Y-94553761D01*
X145534047Y-94601380D01*
X145248333Y-94601380D01*
X145153095Y-94553761D01*
X145105476Y-94506142D01*
X146676904Y-94601380D02*
X146105476Y-94601380D01*
X146391190Y-94601380D02*
X146391190Y-93601380D01*
X146295952Y-93744238D01*
X146200714Y-93839476D01*
X146105476Y-93887095D01*
%TO.C,R30*%
X163901380Y-84589857D02*
X163425190Y-84923190D01*
X163901380Y-85161285D02*
X162901380Y-85161285D01*
X162901380Y-84780333D01*
X162949000Y-84685095D01*
X162996619Y-84637476D01*
X163091857Y-84589857D01*
X163234714Y-84589857D01*
X163329952Y-84637476D01*
X163377571Y-84685095D01*
X163425190Y-84780333D01*
X163425190Y-85161285D01*
X162901380Y-84256523D02*
X162901380Y-83637476D01*
X163282333Y-83970809D01*
X163282333Y-83827952D01*
X163329952Y-83732714D01*
X163377571Y-83685095D01*
X163472809Y-83637476D01*
X163710904Y-83637476D01*
X163806142Y-83685095D01*
X163853761Y-83732714D01*
X163901380Y-83827952D01*
X163901380Y-84113666D01*
X163853761Y-84208904D01*
X163806142Y-84256523D01*
X162901380Y-83018428D02*
X162901380Y-82923190D01*
X162949000Y-82827952D01*
X162996619Y-82780333D01*
X163091857Y-82732714D01*
X163282333Y-82685095D01*
X163520428Y-82685095D01*
X163710904Y-82732714D01*
X163806142Y-82780333D01*
X163853761Y-82827952D01*
X163901380Y-82923190D01*
X163901380Y-83018428D01*
X163853761Y-83113666D01*
X163806142Y-83161285D01*
X163710904Y-83208904D01*
X163520428Y-83256523D01*
X163282333Y-83256523D01*
X163091857Y-83208904D01*
X162996619Y-83161285D01*
X162949000Y-83113666D01*
X162901380Y-83018428D01*
D13*
%TO.C,LED3*%
X156058897Y-83952523D02*
X155454135Y-83952523D01*
X155454135Y-82682523D01*
X156482230Y-83287285D02*
X156905564Y-83287285D01*
X157086992Y-83952523D02*
X156482230Y-83952523D01*
X156482230Y-82682523D01*
X157086992Y-82682523D01*
X157631278Y-83952523D02*
X157631278Y-82682523D01*
X157933659Y-82682523D01*
X158115088Y-82743000D01*
X158236040Y-82863952D01*
X158296516Y-82984904D01*
X158356992Y-83226809D01*
X158356992Y-83408238D01*
X158296516Y-83650142D01*
X158236040Y-83771095D01*
X158115088Y-83892047D01*
X157933659Y-83952523D01*
X157631278Y-83952523D01*
X158780326Y-82682523D02*
X159566516Y-82682523D01*
X159143183Y-83166333D01*
X159324611Y-83166333D01*
X159445564Y-83226809D01*
X159506040Y-83287285D01*
X159566516Y-83408238D01*
X159566516Y-83710619D01*
X159506040Y-83831571D01*
X159445564Y-83892047D01*
X159324611Y-83952523D01*
X158961754Y-83952523D01*
X158840802Y-83892047D01*
X158780326Y-83831571D01*
%TO.C,LED6*%
X156058722Y-123952523D02*
X155453960Y-123952523D01*
X155453960Y-122682523D01*
X156482055Y-123287285D02*
X156905389Y-123287285D01*
X157086817Y-123952523D02*
X156482055Y-123952523D01*
X156482055Y-122682523D01*
X157086817Y-122682523D01*
X157631103Y-123952523D02*
X157631103Y-122682523D01*
X157933484Y-122682523D01*
X158114913Y-122743000D01*
X158235865Y-122863952D01*
X158296341Y-122984904D01*
X158356817Y-123226809D01*
X158356817Y-123408238D01*
X158296341Y-123650142D01*
X158235865Y-123771095D01*
X158114913Y-123892047D01*
X157933484Y-123952523D01*
X157631103Y-123952523D01*
X159445389Y-122682523D02*
X159203484Y-122682523D01*
X159082532Y-122743000D01*
X159022055Y-122803476D01*
X158901103Y-122984904D01*
X158840627Y-123226809D01*
X158840627Y-123710619D01*
X158901103Y-123831571D01*
X158961579Y-123892047D01*
X159082532Y-123952523D01*
X159324436Y-123952523D01*
X159445389Y-123892047D01*
X159505865Y-123831571D01*
X159566341Y-123710619D01*
X159566341Y-123408238D01*
X159505865Y-123287285D01*
X159445389Y-123226809D01*
X159324436Y-123166333D01*
X159082532Y-123166333D01*
X158961579Y-123226809D01*
X158901103Y-123287285D01*
X158840627Y-123408238D01*
%TO.C,LED7*%
X158181523Y-104672190D02*
X158181523Y-105276952D01*
X156911523Y-105276952D01*
X157516285Y-104248857D02*
X157516285Y-103825523D01*
X158181523Y-103644095D02*
X158181523Y-104248857D01*
X156911523Y-104248857D01*
X156911523Y-103644095D01*
X158181523Y-103099809D02*
X156911523Y-103099809D01*
X156911523Y-102797428D01*
X156972000Y-102616000D01*
X157092952Y-102495047D01*
X157213904Y-102434571D01*
X157455809Y-102374095D01*
X157637238Y-102374095D01*
X157879142Y-102434571D01*
X158000095Y-102495047D01*
X158121047Y-102616000D01*
X158181523Y-102797428D01*
X158181523Y-103099809D01*
X156911523Y-101950761D02*
X156911523Y-101104095D01*
X158181523Y-101648380D01*
D14*
%TO.C,R33*%
X161361380Y-109227857D02*
X160885190Y-109561190D01*
X161361380Y-109799285D02*
X160361380Y-109799285D01*
X160361380Y-109418333D01*
X160409000Y-109323095D01*
X160456619Y-109275476D01*
X160551857Y-109227857D01*
X160694714Y-109227857D01*
X160789952Y-109275476D01*
X160837571Y-109323095D01*
X160885190Y-109418333D01*
X160885190Y-109799285D01*
X160361380Y-108894523D02*
X160361380Y-108275476D01*
X160742333Y-108608809D01*
X160742333Y-108465952D01*
X160789952Y-108370714D01*
X160837571Y-108323095D01*
X160932809Y-108275476D01*
X161170904Y-108275476D01*
X161266142Y-108323095D01*
X161313761Y-108370714D01*
X161361380Y-108465952D01*
X161361380Y-108751666D01*
X161313761Y-108846904D01*
X161266142Y-108894523D01*
X160361380Y-107942142D02*
X160361380Y-107323095D01*
X160742333Y-107656428D01*
X160742333Y-107513571D01*
X160789952Y-107418333D01*
X160837571Y-107370714D01*
X160932809Y-107323095D01*
X161170904Y-107323095D01*
X161266142Y-107370714D01*
X161313761Y-107418333D01*
X161361380Y-107513571D01*
X161361380Y-107799285D01*
X161313761Y-107894523D01*
X161266142Y-107942142D01*
%TO.C,R34*%
X160799542Y-127274580D02*
X160466209Y-126798390D01*
X160228114Y-127274580D02*
X160228114Y-126274580D01*
X160609066Y-126274580D01*
X160704304Y-126322200D01*
X160751923Y-126369819D01*
X160799542Y-126465057D01*
X160799542Y-126607914D01*
X160751923Y-126703152D01*
X160704304Y-126750771D01*
X160609066Y-126798390D01*
X160228114Y-126798390D01*
X161132876Y-126274580D02*
X161751923Y-126274580D01*
X161418590Y-126655533D01*
X161561447Y-126655533D01*
X161656685Y-126703152D01*
X161704304Y-126750771D01*
X161751923Y-126846009D01*
X161751923Y-127084104D01*
X161704304Y-127179342D01*
X161656685Y-127226961D01*
X161561447Y-127274580D01*
X161275733Y-127274580D01*
X161180495Y-127226961D01*
X161132876Y-127179342D01*
X162609066Y-126607914D02*
X162609066Y-127274580D01*
X162370971Y-126226961D02*
X162132876Y-126941247D01*
X162751923Y-126941247D01*
%TO.C,R35*%
X162885380Y-109227857D02*
X162409190Y-109561190D01*
X162885380Y-109799285D02*
X161885380Y-109799285D01*
X161885380Y-109418333D01*
X161933000Y-109323095D01*
X161980619Y-109275476D01*
X162075857Y-109227857D01*
X162218714Y-109227857D01*
X162313952Y-109275476D01*
X162361571Y-109323095D01*
X162409190Y-109418333D01*
X162409190Y-109799285D01*
X161885380Y-108894523D02*
X161885380Y-108275476D01*
X162266333Y-108608809D01*
X162266333Y-108465952D01*
X162313952Y-108370714D01*
X162361571Y-108323095D01*
X162456809Y-108275476D01*
X162694904Y-108275476D01*
X162790142Y-108323095D01*
X162837761Y-108370714D01*
X162885380Y-108465952D01*
X162885380Y-108751666D01*
X162837761Y-108846904D01*
X162790142Y-108894523D01*
X161885380Y-107370714D02*
X161885380Y-107846904D01*
X162361571Y-107894523D01*
X162313952Y-107846904D01*
X162266333Y-107751666D01*
X162266333Y-107513571D01*
X162313952Y-107418333D01*
X162361571Y-107370714D01*
X162456809Y-107323095D01*
X162694904Y-107323095D01*
X162790142Y-107370714D01*
X162837761Y-107418333D01*
X162885380Y-107513571D01*
X162885380Y-107751666D01*
X162837761Y-107846904D01*
X162790142Y-107894523D01*
%TO.C,R7*%
X146756380Y-113958666D02*
X146280190Y-114292000D01*
X146756380Y-114530095D02*
X145756380Y-114530095D01*
X145756380Y-114149142D01*
X145804000Y-114053904D01*
X145851619Y-114006285D01*
X145946857Y-113958666D01*
X146089714Y-113958666D01*
X146184952Y-114006285D01*
X146232571Y-114053904D01*
X146280190Y-114149142D01*
X146280190Y-114530095D01*
X145756380Y-113625333D02*
X145756380Y-112958666D01*
X146756380Y-113387238D01*
D13*
%TO.C,LED8*%
X136246809Y-135829523D02*
X135642047Y-135829523D01*
X135642047Y-134559523D01*
X136670142Y-135164285D02*
X137093476Y-135164285D01*
X137274904Y-135829523D02*
X136670142Y-135829523D01*
X136670142Y-134559523D01*
X137274904Y-134559523D01*
X137819190Y-135829523D02*
X137819190Y-134559523D01*
X138121571Y-134559523D01*
X138303000Y-134620000D01*
X138423952Y-134740952D01*
X138484428Y-134861904D01*
X138544904Y-135103809D01*
X138544904Y-135285238D01*
X138484428Y-135527142D01*
X138423952Y-135648095D01*
X138303000Y-135769047D01*
X138121571Y-135829523D01*
X137819190Y-135829523D01*
X139270619Y-135103809D02*
X139149666Y-135043333D01*
X139089190Y-134982857D01*
X139028714Y-134861904D01*
X139028714Y-134801428D01*
X139089190Y-134680476D01*
X139149666Y-134620000D01*
X139270619Y-134559523D01*
X139512523Y-134559523D01*
X139633476Y-134620000D01*
X139693952Y-134680476D01*
X139754428Y-134801428D01*
X139754428Y-134861904D01*
X139693952Y-134982857D01*
X139633476Y-135043333D01*
X139512523Y-135103809D01*
X139270619Y-135103809D01*
X139149666Y-135164285D01*
X139089190Y-135224761D01*
X139028714Y-135345714D01*
X139028714Y-135587619D01*
X139089190Y-135708571D01*
X139149666Y-135769047D01*
X139270619Y-135829523D01*
X139512523Y-135829523D01*
X139633476Y-135769047D01*
X139693952Y-135708571D01*
X139754428Y-135587619D01*
X139754428Y-135345714D01*
X139693952Y-135224761D01*
X139633476Y-135164285D01*
X139512523Y-135103809D01*
D14*
%TO.C,R11*%
X190746142Y-110053380D02*
X190412809Y-109577190D01*
X190174714Y-110053380D02*
X190174714Y-109053380D01*
X190555666Y-109053380D01*
X190650904Y-109101000D01*
X190698523Y-109148619D01*
X190746142Y-109243857D01*
X190746142Y-109386714D01*
X190698523Y-109481952D01*
X190650904Y-109529571D01*
X190555666Y-109577190D01*
X190174714Y-109577190D01*
X191698523Y-110053380D02*
X191127095Y-110053380D01*
X191412809Y-110053380D02*
X191412809Y-109053380D01*
X191317571Y-109196238D01*
X191222333Y-109291476D01*
X191127095Y-109339095D01*
X192650904Y-110053380D02*
X192079476Y-110053380D01*
X192365190Y-110053380D02*
X192365190Y-109053380D01*
X192269952Y-109196238D01*
X192174714Y-109291476D01*
X192079476Y-109339095D01*
%TO.C,R9*%
X145613380Y-72175666D02*
X145137190Y-72509000D01*
X145613380Y-72747095D02*
X144613380Y-72747095D01*
X144613380Y-72366142D01*
X144661000Y-72270904D01*
X144708619Y-72223285D01*
X144803857Y-72175666D01*
X144946714Y-72175666D01*
X145041952Y-72223285D01*
X145089571Y-72270904D01*
X145137190Y-72366142D01*
X145137190Y-72747095D01*
X145613380Y-71699476D02*
X145613380Y-71509000D01*
X145565761Y-71413761D01*
X145518142Y-71366142D01*
X145375285Y-71270904D01*
X145184809Y-71223285D01*
X144803857Y-71223285D01*
X144708619Y-71270904D01*
X144661000Y-71318523D01*
X144613380Y-71413761D01*
X144613380Y-71604238D01*
X144661000Y-71699476D01*
X144708619Y-71747095D01*
X144803857Y-71794714D01*
X145041952Y-71794714D01*
X145137190Y-71747095D01*
X145184809Y-71699476D01*
X145232428Y-71604238D01*
X145232428Y-71413761D01*
X145184809Y-71318523D01*
X145137190Y-71270904D01*
X145041952Y-71223285D01*
D13*
%TO.C,LED5*%
X138738257Y-113952447D02*
X138133495Y-113952447D01*
X138133495Y-112682447D01*
X139161590Y-113287209D02*
X139584924Y-113287209D01*
X139766352Y-113952447D02*
X139161590Y-113952447D01*
X139161590Y-112682447D01*
X139766352Y-112682447D01*
X140310638Y-113952447D02*
X140310638Y-112682447D01*
X140613019Y-112682447D01*
X140794448Y-112742924D01*
X140915400Y-112863876D01*
X140975876Y-112984828D01*
X141036352Y-113226733D01*
X141036352Y-113408162D01*
X140975876Y-113650066D01*
X140915400Y-113771019D01*
X140794448Y-113891971D01*
X140613019Y-113952447D01*
X140310638Y-113952447D01*
X142185400Y-112682447D02*
X141580638Y-112682447D01*
X141520162Y-113287209D01*
X141580638Y-113226733D01*
X141701590Y-113166257D01*
X142003971Y-113166257D01*
X142124924Y-113226733D01*
X142185400Y-113287209D01*
X142245876Y-113408162D01*
X142245876Y-113710543D01*
X142185400Y-113831495D01*
X142124924Y-113891971D01*
X142003971Y-113952447D01*
X141701590Y-113952447D01*
X141580638Y-113891971D01*
X141520162Y-113831495D01*
D14*
%TO.C,R8*%
X140168333Y-133463380D02*
X139835000Y-132987190D01*
X139596904Y-133463380D02*
X139596904Y-132463380D01*
X139977857Y-132463380D01*
X140073095Y-132511000D01*
X140120714Y-132558619D01*
X140168333Y-132653857D01*
X140168333Y-132796714D01*
X140120714Y-132891952D01*
X140073095Y-132939571D01*
X139977857Y-132987190D01*
X139596904Y-132987190D01*
X140739761Y-132891952D02*
X140644523Y-132844333D01*
X140596904Y-132796714D01*
X140549285Y-132701476D01*
X140549285Y-132653857D01*
X140596904Y-132558619D01*
X140644523Y-132511000D01*
X140739761Y-132463380D01*
X140930238Y-132463380D01*
X141025476Y-132511000D01*
X141073095Y-132558619D01*
X141120714Y-132653857D01*
X141120714Y-132701476D01*
X141073095Y-132796714D01*
X141025476Y-132844333D01*
X140930238Y-132891952D01*
X140739761Y-132891952D01*
X140644523Y-132939571D01*
X140596904Y-132987190D01*
X140549285Y-133082428D01*
X140549285Y-133272904D01*
X140596904Y-133368142D01*
X140644523Y-133415761D01*
X140739761Y-133463380D01*
X140930238Y-133463380D01*
X141025476Y-133415761D01*
X141073095Y-133368142D01*
X141120714Y-133272904D01*
X141120714Y-133082428D01*
X141073095Y-132987190D01*
X141025476Y-132939571D01*
X140930238Y-132891952D01*
%TO.C,J1*%
X125999380Y-98738333D02*
X126713666Y-98738333D01*
X126856523Y-98785952D01*
X126951761Y-98881190D01*
X126999380Y-99024047D01*
X126999380Y-99119285D01*
X126999380Y-97738333D02*
X126999380Y-98309761D01*
X126999380Y-98024047D02*
X125999380Y-98024047D01*
X126142238Y-98119285D01*
X126237476Y-98214523D01*
X126285095Y-98309761D01*
D13*
%TO.C,LED10*%
X192454047Y-104079523D02*
X191849285Y-104079523D01*
X191849285Y-102809523D01*
X192877380Y-103414285D02*
X193300714Y-103414285D01*
X193482142Y-104079523D02*
X192877380Y-104079523D01*
X192877380Y-102809523D01*
X193482142Y-102809523D01*
X194026428Y-104079523D02*
X194026428Y-102809523D01*
X194328809Y-102809523D01*
X194510238Y-102870000D01*
X194631190Y-102990952D01*
X194691666Y-103111904D01*
X194752142Y-103353809D01*
X194752142Y-103535238D01*
X194691666Y-103777142D01*
X194631190Y-103898095D01*
X194510238Y-104019047D01*
X194328809Y-104079523D01*
X194026428Y-104079523D01*
X195961666Y-104079523D02*
X195235952Y-104079523D01*
X195598809Y-104079523D02*
X195598809Y-102809523D01*
X195477857Y-102990952D01*
X195356904Y-103111904D01*
X195235952Y-103172380D01*
X196747857Y-102809523D02*
X196868809Y-102809523D01*
X196989761Y-102870000D01*
X197050238Y-102930476D01*
X197110714Y-103051428D01*
X197171190Y-103293333D01*
X197171190Y-103595714D01*
X197110714Y-103837619D01*
X197050238Y-103958571D01*
X196989761Y-104019047D01*
X196868809Y-104079523D01*
X196747857Y-104079523D01*
X196626904Y-104019047D01*
X196566428Y-103958571D01*
X196505952Y-103837619D01*
X196445476Y-103595714D01*
X196445476Y-103293333D01*
X196505952Y-103051428D01*
X196566428Y-102930476D01*
X196626904Y-102870000D01*
X196747857Y-102809523D01*
%TO.C,LED9*%
X137613091Y-71878168D02*
X137008329Y-71878168D01*
X137008329Y-70608168D01*
X138036424Y-71212930D02*
X138459758Y-71212930D01*
X138641186Y-71878168D02*
X138036424Y-71878168D01*
X138036424Y-70608168D01*
X138641186Y-70608168D01*
X139185472Y-71878168D02*
X139185472Y-70608168D01*
X139487853Y-70608168D01*
X139669282Y-70668645D01*
X139790234Y-70789597D01*
X139850710Y-70910549D01*
X139911186Y-71152454D01*
X139911186Y-71333883D01*
X139850710Y-71575787D01*
X139790234Y-71696740D01*
X139669282Y-71817692D01*
X139487853Y-71878168D01*
X139185472Y-71878168D01*
X140515948Y-71878168D02*
X140757853Y-71878168D01*
X140878805Y-71817692D01*
X140939282Y-71757216D01*
X141060234Y-71575787D01*
X141120710Y-71333883D01*
X141120710Y-70850073D01*
X141060234Y-70729121D01*
X140999758Y-70668645D01*
X140878805Y-70608168D01*
X140636901Y-70608168D01*
X140515948Y-70668645D01*
X140455472Y-70729121D01*
X140394996Y-70850073D01*
X140394996Y-71152454D01*
X140455472Y-71273406D01*
X140515948Y-71333883D01*
X140636901Y-71394359D01*
X140878805Y-71394359D01*
X140999758Y-71333883D01*
X141060234Y-71273406D01*
X141120710Y-71152454D01*
D15*
%TO.C,IC1*%
X170741000Y-128595000D02*
X167841000Y-128595000D01*
X170891000Y-126445000D02*
X170891000Y-127595000D01*
X167841000Y-128595000D02*
X167841000Y-127945000D01*
X167841000Y-127945000D02*
X170741000Y-127945000D01*
X170741000Y-127945000D02*
X170741000Y-128595000D01*
%TO.C,LED2*%
X172400552Y-92578076D02*
X172400552Y-92578076D01*
X172500552Y-92578076D02*
X172500552Y-92578076D01*
X172400552Y-92578076D02*
X172400552Y-92578076D01*
X172500552Y-92578076D02*
G75*
G03*
X172400552Y-92578076I-50000J0D01*
G01*
X172400552Y-92578076D02*
G75*
G03*
X172500552Y-92578076I50000J0D01*
G01*
X172400552Y-92578076D02*
G75*
G03*
X172500552Y-92578076I50000J0D01*
G01*
D16*
%TO.C,C1*%
X167675779Y-131701000D02*
X167350221Y-131701000D01*
X167675779Y-130681000D02*
X167350221Y-130681000D01*
%TO.C,C2*%
X163710252Y-133933000D02*
X163187748Y-133933000D01*
X163710252Y-132513000D02*
X163187748Y-132513000D01*
D15*
%TO.C,L1*%
X177835000Y-132414000D02*
X166335000Y-132414000D01*
X166335000Y-142414000D02*
X177835000Y-142414000D01*
D16*
%TO.C,C3*%
X176014748Y-119432000D02*
X176537252Y-119432000D01*
X176014748Y-120852000D02*
X176537252Y-120852000D01*
%TO.C,C5*%
X176494221Y-117854000D02*
X176819779Y-117854000D01*
X176494221Y-118874000D02*
X176819779Y-118874000D01*
%TO.C,C4*%
X176014748Y-121464000D02*
X176537252Y-121464000D01*
X176014748Y-122884000D02*
X176537252Y-122884000D01*
%TO.C,R5*%
X167273500Y-127889724D02*
X167273500Y-127380276D01*
X166228500Y-127889724D02*
X166228500Y-127380276D01*
%TO.C,D1*%
X175640000Y-123600000D02*
X175640000Y-129000000D01*
X172340000Y-123600000D02*
X172340000Y-129000000D01*
X175640000Y-123600000D02*
X172340000Y-123600000D01*
%TO.C,R6*%
X168942936Y-94382000D02*
X170147064Y-94382000D01*
X168942936Y-92562000D02*
X170147064Y-92562000D01*
%TO.C,R10*%
X175735064Y-97134000D02*
X174530936Y-97134000D01*
X175735064Y-98954000D02*
X174530936Y-98954000D01*
%TO.C,R4*%
X169128221Y-125859000D02*
X169453779Y-125859000D01*
X169128221Y-124839000D02*
X169453779Y-124839000D01*
%TO.C,C7*%
X129123221Y-111000000D02*
X129448779Y-111000000D01*
X129123221Y-109980000D02*
X129448779Y-109980000D01*
%TO.C,C8*%
X164921000Y-136786252D02*
X164921000Y-136263748D01*
X163501000Y-136786252D02*
X163501000Y-136263748D01*
%TO.C,C9*%
X129405748Y-109422000D02*
X129928252Y-109422000D01*
X129405748Y-108002000D02*
X129928252Y-108002000D01*
%TO.C,C10*%
X165991000Y-94198221D02*
X165991000Y-94523779D01*
X164971000Y-94198221D02*
X164971000Y-94523779D01*
%TO.C,C11*%
X162866000Y-94480748D02*
X162866000Y-95003252D01*
X164286000Y-94480748D02*
X164286000Y-95003252D01*
%TO.C,C12*%
X162635000Y-77731252D02*
X162635000Y-77208748D01*
X161215000Y-77731252D02*
X161215000Y-77208748D01*
%TO.C,C13*%
X159006000Y-78013779D02*
X159006000Y-77688221D01*
X157986000Y-78013779D02*
X157986000Y-77688221D01*
%TO.C,C14*%
X132722252Y-101398000D02*
X132199748Y-101398000D01*
X132722252Y-102818000D02*
X132199748Y-102818000D01*
%TO.C,C15*%
X159637000Y-78013779D02*
X159637000Y-77688221D01*
X160657000Y-78013779D02*
X160657000Y-77688221D01*
%TO.C,C16*%
X156008000Y-77731252D02*
X156008000Y-77208748D01*
X157428000Y-77731252D02*
X157428000Y-77208748D01*
%TO.C,C17*%
X132877779Y-104523000D02*
X132552221Y-104523000D01*
X132877779Y-103503000D02*
X132552221Y-103503000D01*
%TO.C,C6*%
X163738779Y-131828000D02*
X163413221Y-131828000D01*
X163738779Y-130808000D02*
X163413221Y-130808000D01*
D15*
%TO.C,LED1*%
X177200465Y-114178076D02*
X177200465Y-114178076D01*
X177100465Y-114178076D02*
X177100465Y-114178076D01*
X177200465Y-114178076D02*
X177200465Y-114178076D01*
X177100465Y-114178076D02*
G75*
G03*
X177200465Y-114178076I50000J0D01*
G01*
X177200465Y-114178076D02*
G75*
G03*
X177100465Y-114178076I-50000J0D01*
G01*
X177200465Y-114178076D02*
G75*
G03*
X177100465Y-114178076I-50000J0D01*
G01*
D16*
%TO.C,R27*%
X178021064Y-108056000D02*
X176816936Y-108056000D01*
X178021064Y-109876000D02*
X176816936Y-109876000D01*
D15*
%TO.C,LED4*%
X142559536Y-94177924D02*
X142559536Y-94177924D01*
X142459536Y-94177924D02*
X142459536Y-94177924D01*
X142559536Y-94177924D02*
X142559536Y-94177924D01*
X142459536Y-94177924D02*
G75*
G03*
X142559536Y-94177924I50000J0D01*
G01*
X142559536Y-94177924D02*
G75*
G03*
X142459536Y-94177924I-50000J0D01*
G01*
X142559536Y-94177924D02*
G75*
G03*
X142459536Y-94177924I-50000J0D01*
G01*
D16*
%TO.C,R31*%
X146017064Y-91419000D02*
X144812936Y-91419000D01*
X146017064Y-93239000D02*
X144812936Y-93239000D01*
%TO.C,R30*%
X160507000Y-84422064D02*
X160507000Y-83217936D01*
X162327000Y-84422064D02*
X162327000Y-83217936D01*
D15*
%TO.C,LED3*%
X159880088Y-84178000D02*
X159880088Y-84178000D01*
X159780088Y-84178000D02*
X159780088Y-84178000D01*
X159880088Y-84178000D02*
X159880088Y-84178000D01*
X159780088Y-84178000D02*
G75*
G03*
X159880088Y-84178000I50000J0D01*
G01*
X159880088Y-84178000D02*
G75*
G03*
X159780088Y-84178000I-50000J0D01*
G01*
X159880088Y-84178000D02*
G75*
G03*
X159780088Y-84178000I-50000J0D01*
G01*
%TO.C,LED6*%
X159779913Y-124178000D02*
X159779913Y-124178000D01*
X159879913Y-124178000D02*
X159879913Y-124178000D01*
X159879913Y-124178000D02*
X159879913Y-124178000D01*
X159879913Y-124178000D02*
G75*
G03*
X159779913Y-124178000I-50000J0D01*
G01*
X159779913Y-124178000D02*
G75*
G03*
X159879913Y-124178000I50000J0D01*
G01*
X159879913Y-124178000D02*
G75*
G03*
X159779913Y-124178000I-50000J0D01*
G01*
%TO.C,LED7*%
X156807000Y-105651000D02*
X156807000Y-105651000D01*
X156807000Y-105551000D02*
X156807000Y-105551000D01*
X156807000Y-105651000D02*
X156807000Y-105651000D01*
X156807000Y-105551000D02*
G75*
G03*
X156807000Y-105651000I0J-50000D01*
G01*
X156807000Y-105651000D02*
G75*
G03*
X156807000Y-105551000I0J50000D01*
G01*
X156807000Y-105651000D02*
G75*
G03*
X156807000Y-105551000I0J50000D01*
G01*
D16*
%TO.C,R33*%
X157501000Y-109187064D02*
X157501000Y-107982936D01*
X155681000Y-109187064D02*
X155681000Y-107982936D01*
%TO.C,R34*%
X162327000Y-124554064D02*
X162327000Y-123349936D01*
X160507000Y-124554064D02*
X160507000Y-123349936D01*
%TO.C,R35*%
X158094000Y-109187064D02*
X158094000Y-107982936D01*
X159914000Y-109187064D02*
X159914000Y-107982936D01*
%TO.C,R7*%
X143489000Y-114646064D02*
X143489000Y-113191936D01*
X145309000Y-114646064D02*
X145309000Y-113191936D01*
D15*
%TO.C,LED8*%
X140068000Y-136055000D02*
X140068000Y-136055000D01*
X139968000Y-136055000D02*
X139968000Y-136055000D01*
X140068000Y-136055000D02*
X140068000Y-136055000D01*
X140068000Y-136055000D02*
G75*
G03*
X139968000Y-136055000I-50000J0D01*
G01*
X140068000Y-136055000D02*
G75*
G03*
X139968000Y-136055000I-50000J0D01*
G01*
X139968000Y-136055000D02*
G75*
G03*
X140068000Y-136055000I50000J0D01*
G01*
D16*
%TO.C,R11*%
X190915936Y-106659000D02*
X192370064Y-106659000D01*
X190915936Y-108479000D02*
X192370064Y-108479000D01*
%TO.C,R9*%
X142346000Y-72736064D02*
X142346000Y-71281936D01*
X144166000Y-72736064D02*
X144166000Y-71281936D01*
D15*
%TO.C,LED5*%
X142459448Y-114177924D02*
X142459448Y-114177924D01*
X142559448Y-114177924D02*
X142559448Y-114177924D01*
X142559448Y-114177924D02*
X142559448Y-114177924D01*
X142559448Y-114177924D02*
G75*
G03*
X142459448Y-114177924I-50000J0D01*
G01*
X142459448Y-114177924D02*
G75*
G03*
X142559448Y-114177924I50000J0D01*
G01*
X142559448Y-114177924D02*
G75*
G03*
X142459448Y-114177924I-50000J0D01*
G01*
D16*
%TO.C,R8*%
X141062064Y-132101000D02*
X139607936Y-132101000D01*
X141062064Y-130281000D02*
X139607936Y-130281000D01*
%TO.C,J1*%
X130121000Y-107168000D02*
X130121000Y-105748000D01*
X119011000Y-104358000D02*
X119011000Y-104858000D01*
X118401000Y-99548000D02*
X130121000Y-99548000D01*
X119011000Y-102358000D02*
X124511000Y-102358000D01*
X130121000Y-99548000D02*
X130121000Y-100968000D01*
X124511000Y-101858000D02*
X119011000Y-101858000D01*
X124511000Y-104358000D02*
X119011000Y-104358000D01*
X118401000Y-103358000D02*
X118401000Y-107168000D01*
X118401000Y-103358000D02*
X118401000Y-99548000D01*
X119011000Y-101858000D02*
X119011000Y-102358000D01*
X128211000Y-102408000D02*
X127611000Y-102108000D01*
X118401000Y-107168000D02*
X130121000Y-107168000D01*
X127611000Y-102108000D02*
X128211000Y-101808000D01*
X128211000Y-101808000D02*
X128211000Y-102408000D01*
X130121000Y-105748000D02*
X125621000Y-105748000D01*
X130121000Y-100968000D02*
X125621000Y-100968000D01*
X124511000Y-104858000D02*
X124511000Y-104358000D01*
X119011000Y-104858000D02*
X124511000Y-104858000D01*
X124511000Y-102358000D02*
X124511000Y-101858000D01*
D15*
%TO.C,LED10*%
X192080000Y-102705000D02*
X192080000Y-102705000D01*
X192180000Y-102705000D02*
X192180000Y-102705000D01*
X192080000Y-102705000D02*
X192080000Y-102705000D01*
X192080000Y-102705000D02*
G75*
G03*
X192180000Y-102705000I50000J0D01*
G01*
X192080000Y-102705000D02*
G75*
G03*
X192180000Y-102705000I50000J0D01*
G01*
X192180000Y-102705000D02*
G75*
G03*
X192080000Y-102705000I-50000J0D01*
G01*
%TO.C,LED9*%
X141434282Y-72103645D02*
X141434282Y-72103645D01*
X141434282Y-72103645D02*
X141434282Y-72103645D01*
X141334282Y-72103645D02*
X141334282Y-72103645D01*
X141334282Y-72103645D02*
G75*
G03*
X141434282Y-72103645I50000J0D01*
G01*
X141434282Y-72103645D02*
G75*
G03*
X141334282Y-72103645I-50000J0D01*
G01*
X141434282Y-72103645D02*
G75*
G03*
X141334282Y-72103645I-50000J0D01*
G01*
%TD*%
M02*
