G04 #@! TF.GenerationSoftware,KiCad,Pcbnew,(5.1.10)-1*
G04 #@! TF.CreationDate,2022-02-25T15:53:37+01:00*
G04 #@! TF.ProjectId,led_defogger_PCB_with_UV_2022,6c65645f-6465-4666-9f67-6765725f5043,rev?*
G04 #@! TF.SameCoordinates,Original*
G04 #@! TF.FileFunction,Paste,Bot*
G04 #@! TF.FilePolarity,Positive*
%FSLAX46Y46*%
G04 Gerber Fmt 4.6, Leading zero omitted, Abs format (unit mm)*
G04 Created by KiCad (PCBNEW (5.1.10)-1) date 2022-02-25 15:53:37*
%MOMM*%
%LPD*%
G01*
G04 APERTURE LIST*
G04 APERTURE END LIST*
G36*
G01*
X204606200Y-86362800D02*
X204606200Y-83862800D01*
G75*
G02*
X204856200Y-83612800I250000J0D01*
G01*
X205956200Y-83612800D01*
G75*
G02*
X206206200Y-83862800I0J-250000D01*
G01*
X206206200Y-86362800D01*
G75*
G02*
X205956200Y-86612800I-250000J0D01*
G01*
X204856200Y-86612800D01*
G75*
G02*
X204606200Y-86362800I0J250000D01*
G01*
G37*
G36*
G01*
X197806200Y-86362800D02*
X197806200Y-83862800D01*
G75*
G02*
X198056200Y-83612800I250000J0D01*
G01*
X199156200Y-83612800D01*
G75*
G02*
X199406200Y-83862800I0J-250000D01*
G01*
X199406200Y-86362800D01*
G75*
G02*
X199156200Y-86612800I-250000J0D01*
G01*
X198056200Y-86612800D01*
G75*
G02*
X197806200Y-86362800I0J250000D01*
G01*
G37*
G36*
G01*
X202506200Y-85362800D02*
X202506200Y-80362800D01*
G75*
G02*
X202756200Y-80112800I250000J0D01*
G01*
X203256200Y-80112800D01*
G75*
G02*
X203506200Y-80362800I0J-250000D01*
G01*
X203506200Y-85362800D01*
G75*
G02*
X203256200Y-85612800I-250000J0D01*
G01*
X202756200Y-85612800D01*
G75*
G02*
X202506200Y-85362800I0J250000D01*
G01*
G37*
G36*
G01*
X200506200Y-85362800D02*
X200506200Y-80362800D01*
G75*
G02*
X200756200Y-80112800I250000J0D01*
G01*
X201256200Y-80112800D01*
G75*
G02*
X201506200Y-80362800I0J-250000D01*
G01*
X201506200Y-85362800D01*
G75*
G02*
X201256200Y-85612800I-250000J0D01*
G01*
X200756200Y-85612800D01*
G75*
G02*
X200506200Y-85362800I0J250000D01*
G01*
G37*
G36*
G01*
X187303600Y-111706400D02*
X187303600Y-114206400D01*
G75*
G02*
X187053600Y-114456400I-250000J0D01*
G01*
X185953600Y-114456400D01*
G75*
G02*
X185703600Y-114206400I0J250000D01*
G01*
X185703600Y-111706400D01*
G75*
G02*
X185953600Y-111456400I250000J0D01*
G01*
X187053600Y-111456400D01*
G75*
G02*
X187303600Y-111706400I0J-250000D01*
G01*
G37*
G36*
G01*
X202103600Y-111706400D02*
X202103600Y-114206400D01*
G75*
G02*
X201853600Y-114456400I-250000J0D01*
G01*
X200753600Y-114456400D01*
G75*
G02*
X200503600Y-114206400I0J250000D01*
G01*
X200503600Y-111706400D01*
G75*
G02*
X200753600Y-111456400I250000J0D01*
G01*
X201853600Y-111456400D01*
G75*
G02*
X202103600Y-111706400I0J-250000D01*
G01*
G37*
G36*
G01*
X189403600Y-112706400D02*
X189403600Y-117706400D01*
G75*
G02*
X189153600Y-117956400I-250000J0D01*
G01*
X188653600Y-117956400D01*
G75*
G02*
X188403600Y-117706400I0J250000D01*
G01*
X188403600Y-112706400D01*
G75*
G02*
X188653600Y-112456400I250000J0D01*
G01*
X189153600Y-112456400D01*
G75*
G02*
X189403600Y-112706400I0J-250000D01*
G01*
G37*
G36*
G01*
X191403600Y-112706400D02*
X191403600Y-117706400D01*
G75*
G02*
X191153600Y-117956400I-250000J0D01*
G01*
X190653600Y-117956400D01*
G75*
G02*
X190403600Y-117706400I0J250000D01*
G01*
X190403600Y-112706400D01*
G75*
G02*
X190653600Y-112456400I250000J0D01*
G01*
X191153600Y-112456400D01*
G75*
G02*
X191403600Y-112706400I0J-250000D01*
G01*
G37*
G36*
G01*
X193403600Y-112706400D02*
X193403600Y-117706400D01*
G75*
G02*
X193153600Y-117956400I-250000J0D01*
G01*
X192653600Y-117956400D01*
G75*
G02*
X192403600Y-117706400I0J250000D01*
G01*
X192403600Y-112706400D01*
G75*
G02*
X192653600Y-112456400I250000J0D01*
G01*
X193153600Y-112456400D01*
G75*
G02*
X193403600Y-112706400I0J-250000D01*
G01*
G37*
G36*
G01*
X195403600Y-112706400D02*
X195403600Y-117706400D01*
G75*
G02*
X195153600Y-117956400I-250000J0D01*
G01*
X194653600Y-117956400D01*
G75*
G02*
X194403600Y-117706400I0J250000D01*
G01*
X194403600Y-112706400D01*
G75*
G02*
X194653600Y-112456400I250000J0D01*
G01*
X195153600Y-112456400D01*
G75*
G02*
X195403600Y-112706400I0J-250000D01*
G01*
G37*
G36*
G01*
X197403600Y-112706400D02*
X197403600Y-117706400D01*
G75*
G02*
X197153600Y-117956400I-250000J0D01*
G01*
X196653600Y-117956400D01*
G75*
G02*
X196403600Y-117706400I0J250000D01*
G01*
X196403600Y-112706400D01*
G75*
G02*
X196653600Y-112456400I250000J0D01*
G01*
X197153600Y-112456400D01*
G75*
G02*
X197403600Y-112706400I0J-250000D01*
G01*
G37*
G36*
G01*
X199403600Y-112706400D02*
X199403600Y-117706400D01*
G75*
G02*
X199153600Y-117956400I-250000J0D01*
G01*
X198653600Y-117956400D01*
G75*
G02*
X198403600Y-117706400I0J250000D01*
G01*
X198403600Y-112706400D01*
G75*
G02*
X198653600Y-112456400I250000J0D01*
G01*
X199153600Y-112456400D01*
G75*
G02*
X199403600Y-112706400I0J-250000D01*
G01*
G37*
M02*
