G04 #@! TF.GenerationSoftware,KiCad,Pcbnew,(5.1.10)-1*
G04 #@! TF.CreationDate,2022-02-25T15:53:37+01:00*
G04 #@! TF.ProjectId,led_defogger_PCB_with_UV_2022,6c65645f-6465-4666-9f67-6765725f5043,rev?*
G04 #@! TF.SameCoordinates,Original*
G04 #@! TF.FileFunction,Paste,Top*
G04 #@! TF.FilePolarity,Positive*
%FSLAX46Y46*%
G04 Gerber Fmt 4.6, Leading zero omitted, Abs format (unit mm)*
G04 Created by KiCad (PCBNEW (5.1.10)-1) date 2022-02-25 15:53:37*
%MOMM*%
%LPD*%
G01*
G04 APERTURE LIST*
%ADD10R,1.525000X0.700000*%
%ADD11R,0.690000X3.100000*%
%ADD12R,0.530000X1.400000*%
%ADD13R,0.700000X1.525000*%
%ADD14R,2.300000X1.800000*%
G04 APERTURE END LIST*
D10*
X205099200Y-108178600D03*
X205099200Y-109448600D03*
X205099200Y-110718600D03*
X205099200Y-111988600D03*
X199675200Y-111988600D03*
X199675200Y-110718600D03*
X199675200Y-109448600D03*
X199675200Y-108178600D03*
D11*
X181737000Y-97586800D03*
D12*
X183022000Y-98436800D03*
X180452000Y-98436800D03*
X183022000Y-96736800D03*
X180452000Y-96736800D03*
D11*
X205613000Y-97536000D03*
D12*
X206898000Y-98386000D03*
X204328000Y-98386000D03*
X206898000Y-96686000D03*
X204328000Y-96686000D03*
D13*
X176524000Y-101431000D03*
X177794000Y-101431000D03*
X179064000Y-101431000D03*
X180334000Y-101431000D03*
X180334000Y-106855000D03*
X179064000Y-106855000D03*
X177794000Y-106855000D03*
X176524000Y-106855000D03*
D14*
X178816000Y-90731000D03*
X178816000Y-87831000D03*
G36*
G01*
X178171000Y-96636000D02*
X176921000Y-96636000D01*
G75*
G02*
X176671000Y-96386000I0J250000D01*
G01*
X176671000Y-95586000D01*
G75*
G02*
X176921000Y-95336000I250000J0D01*
G01*
X178171000Y-95336000D01*
G75*
G02*
X178421000Y-95586000I0J-250000D01*
G01*
X178421000Y-96386000D01*
G75*
G02*
X178171000Y-96636000I-250000J0D01*
G01*
G37*
G36*
G01*
X178171000Y-99736000D02*
X176921000Y-99736000D01*
G75*
G02*
X176671000Y-99486000I0J250000D01*
G01*
X176671000Y-98686000D01*
G75*
G02*
X176921000Y-98436000I250000J0D01*
G01*
X178171000Y-98436000D01*
G75*
G02*
X178421000Y-98686000I0J-250000D01*
G01*
X178421000Y-99486000D01*
G75*
G02*
X178171000Y-99736000I-250000J0D01*
G01*
G37*
G36*
G01*
X209815000Y-94160500D02*
X209815000Y-92910500D01*
G75*
G02*
X210065000Y-92660500I250000J0D01*
G01*
X210865000Y-92660500D01*
G75*
G02*
X211115000Y-92910500I0J-250000D01*
G01*
X211115000Y-94160500D01*
G75*
G02*
X210865000Y-94410500I-250000J0D01*
G01*
X210065000Y-94410500D01*
G75*
G02*
X209815000Y-94160500I0J250000D01*
G01*
G37*
G36*
G01*
X206715000Y-94160500D02*
X206715000Y-92910500D01*
G75*
G02*
X206965000Y-92660500I250000J0D01*
G01*
X207765000Y-92660500D01*
G75*
G02*
X208015000Y-92910500I0J-250000D01*
G01*
X208015000Y-94160500D01*
G75*
G02*
X207765000Y-94410500I-250000J0D01*
G01*
X206965000Y-94410500D01*
G75*
G02*
X206715000Y-94160500I0J250000D01*
G01*
G37*
G36*
G01*
X182846788Y-105007388D02*
X183626213Y-104557387D01*
G75*
G02*
X183967717Y-104648892I124999J-216505D01*
G01*
X184292718Y-105211811D01*
G75*
G02*
X184201213Y-105553316I-216505J-125000D01*
G01*
X183421788Y-106003317D01*
G75*
G02*
X183080283Y-105911811I-125000J216505D01*
G01*
X182755282Y-105348892D01*
G75*
G02*
X182846788Y-105007388I216505J124999D01*
G01*
G37*
G36*
G01*
X181821788Y-103232036D02*
X182601213Y-102782035D01*
G75*
G02*
X182942717Y-102873540I124999J-216505D01*
G01*
X183267718Y-103436459D01*
G75*
G02*
X183176213Y-103777964I-216505J-125000D01*
G01*
X182396788Y-104227965D01*
G75*
G02*
X182055283Y-104136459I-125000J216505D01*
G01*
X181730282Y-103573540D01*
G75*
G02*
X181821788Y-103232036I216505J124999D01*
G01*
G37*
G36*
G01*
X183621713Y-91021289D02*
X182842287Y-90571288D01*
G75*
G02*
X182750782Y-90229784I125000J216505D01*
G01*
X183075783Y-89666865D01*
G75*
G02*
X183417288Y-89575359I216505J-124999D01*
G01*
X184196713Y-90025360D01*
G75*
G02*
X184288218Y-90366864I-125000J-216505D01*
G01*
X183963217Y-90929783D01*
G75*
G02*
X183621713Y-91021289I-216505J124999D01*
G01*
G37*
G36*
G01*
X182596713Y-92796641D02*
X181817287Y-92346640D01*
G75*
G02*
X181725782Y-92005136I125000J216505D01*
G01*
X182050783Y-91442217D01*
G75*
G02*
X182392288Y-91350711I216505J-124999D01*
G01*
X183171713Y-91800712D01*
G75*
G02*
X183263218Y-92142216I-125000J-216505D01*
G01*
X182938217Y-92705135D01*
G75*
G02*
X182596713Y-92796641I-216505J124999D01*
G01*
G37*
G36*
G01*
X194506000Y-85540001D02*
X194506000Y-84639999D01*
G75*
G02*
X194755999Y-84390000I249999J0D01*
G01*
X195406001Y-84390000D01*
G75*
G02*
X195656000Y-84639999I0J-249999D01*
G01*
X195656000Y-85540001D01*
G75*
G02*
X195406001Y-85790000I-249999J0D01*
G01*
X194755999Y-85790000D01*
G75*
G02*
X194506000Y-85540001I0J249999D01*
G01*
G37*
G36*
G01*
X192456000Y-85540001D02*
X192456000Y-84639999D01*
G75*
G02*
X192705999Y-84390000I249999J0D01*
G01*
X193356001Y-84390000D01*
G75*
G02*
X193606000Y-84639999I0J-249999D01*
G01*
X193606000Y-85540001D01*
G75*
G02*
X193356001Y-85790000I-249999J0D01*
G01*
X192705999Y-85790000D01*
G75*
G02*
X192456000Y-85540001I0J249999D01*
G01*
G37*
G36*
G01*
X204432288Y-90911712D02*
X205211713Y-90461711D01*
G75*
G02*
X205553217Y-90553216I124999J-216505D01*
G01*
X205878218Y-91116135D01*
G75*
G02*
X205786713Y-91457640I-216505J-125000D01*
G01*
X205007288Y-91907641D01*
G75*
G02*
X204665783Y-91816135I-125000J216505D01*
G01*
X204340782Y-91253216D01*
G75*
G02*
X204432288Y-90911712I216505J124999D01*
G01*
G37*
G36*
G01*
X203407288Y-89136360D02*
X204186713Y-88686359D01*
G75*
G02*
X204528217Y-88777864I124999J-216505D01*
G01*
X204853218Y-89340783D01*
G75*
G02*
X204761713Y-89682288I-216505J-125000D01*
G01*
X203982288Y-90132289D01*
G75*
G02*
X203640783Y-90040783I-125000J216505D01*
G01*
X203315782Y-89477864D01*
G75*
G02*
X203407288Y-89136360I216505J124999D01*
G01*
G37*
G36*
G01*
X203982288Y-104558711D02*
X204761713Y-105008712D01*
G75*
G02*
X204853218Y-105350216I-125000J-216505D01*
G01*
X204528217Y-105913135D01*
G75*
G02*
X204186712Y-106004641I-216505J124999D01*
G01*
X203407287Y-105554640D01*
G75*
G02*
X203315782Y-105213136I125000J216505D01*
G01*
X203640783Y-104650217D01*
G75*
G02*
X203982288Y-104558711I216505J-124999D01*
G01*
G37*
G36*
G01*
X205007288Y-102783359D02*
X205786713Y-103233360D01*
G75*
G02*
X205878218Y-103574864I-125000J-216505D01*
G01*
X205553217Y-104137783D01*
G75*
G02*
X205211712Y-104229289I-216505J124999D01*
G01*
X204432287Y-103779288D01*
G75*
G02*
X204340782Y-103437784I125000J216505D01*
G01*
X204665783Y-102874865D01*
G75*
G02*
X205007288Y-102783359I216505J-124999D01*
G01*
G37*
G36*
G01*
X192980000Y-109785999D02*
X192980000Y-110686001D01*
G75*
G02*
X192730001Y-110936000I-249999J0D01*
G01*
X192079999Y-110936000D01*
G75*
G02*
X191830000Y-110686001I0J249999D01*
G01*
X191830000Y-109785999D01*
G75*
G02*
X192079999Y-109536000I249999J0D01*
G01*
X192730001Y-109536000D01*
G75*
G02*
X192980000Y-109785999I0J-249999D01*
G01*
G37*
G36*
G01*
X195030000Y-109785999D02*
X195030000Y-110686001D01*
G75*
G02*
X194780001Y-110936000I-249999J0D01*
G01*
X194129999Y-110936000D01*
G75*
G02*
X193880000Y-110686001I0J249999D01*
G01*
X193880000Y-109785999D01*
G75*
G02*
X194129999Y-109536000I249999J0D01*
G01*
X194780001Y-109536000D01*
G75*
G02*
X195030000Y-109785999I0J-249999D01*
G01*
G37*
G36*
G01*
X205682001Y-114434200D02*
X204781999Y-114434200D01*
G75*
G02*
X204532000Y-114184201I0J249999D01*
G01*
X204532000Y-113534199D01*
G75*
G02*
X204781999Y-113284200I249999J0D01*
G01*
X205682001Y-113284200D01*
G75*
G02*
X205932000Y-113534199I0J-249999D01*
G01*
X205932000Y-114184201D01*
G75*
G02*
X205682001Y-114434200I-249999J0D01*
G01*
G37*
G36*
G01*
X205682001Y-116484200D02*
X204781999Y-116484200D01*
G75*
G02*
X204532000Y-116234201I0J249999D01*
G01*
X204532000Y-115584199D01*
G75*
G02*
X204781999Y-115334200I249999J0D01*
G01*
X205682001Y-115334200D01*
G75*
G02*
X205932000Y-115584199I0J-249999D01*
G01*
X205932000Y-116234201D01*
G75*
G02*
X205682001Y-116484200I-249999J0D01*
G01*
G37*
G36*
G01*
X184627319Y-103799859D02*
X185038681Y-103562359D01*
G75*
G02*
X185363112Y-103649290I118750J-205681D01*
G01*
X185650612Y-104147254D01*
G75*
G02*
X185563681Y-104471685I-205681J-118750D01*
G01*
X185152319Y-104709185D01*
G75*
G02*
X184827888Y-104622254I-118750J205681D01*
G01*
X184540388Y-104124290D01*
G75*
G02*
X184627319Y-103799859I205681J118750D01*
G01*
G37*
G36*
G01*
X183752319Y-102284315D02*
X184163681Y-102046815D01*
G75*
G02*
X184488112Y-102133746I118750J-205681D01*
G01*
X184775612Y-102631710D01*
G75*
G02*
X184688681Y-102956141I-205681J-118750D01*
G01*
X184277319Y-103193641D01*
G75*
G02*
X183952888Y-103106710I-118750J205681D01*
G01*
X183665388Y-102608746D01*
G75*
G02*
X183752319Y-102284315I205681J118750D01*
G01*
G37*
G36*
G01*
X184347819Y-92382131D02*
X184759181Y-92619631D01*
G75*
G02*
X184846112Y-92944062I-118750J-205681D01*
G01*
X184558612Y-93442026D01*
G75*
G02*
X184234181Y-93528957I-205681J118750D01*
G01*
X183822819Y-93291457D01*
G75*
G02*
X183735888Y-92967026I118750J205681D01*
G01*
X184023388Y-92469062D01*
G75*
G02*
X184347819Y-92382131I205681J-118750D01*
G01*
G37*
G36*
G01*
X185222819Y-90866587D02*
X185634181Y-91104087D01*
G75*
G02*
X185721112Y-91428518I-118750J-205681D01*
G01*
X185433612Y-91926482D01*
G75*
G02*
X185109181Y-92013413I-205681J118750D01*
G01*
X184697819Y-91775913D01*
G75*
G02*
X184610888Y-91451482I118750J205681D01*
G01*
X184898388Y-90953518D01*
G75*
G02*
X185222819Y-90866587I205681J-118750D01*
G01*
G37*
G36*
G01*
X193706000Y-86757500D02*
X193706000Y-87232500D01*
G75*
G02*
X193468500Y-87470000I-237500J0D01*
G01*
X192893500Y-87470000D01*
G75*
G02*
X192656000Y-87232500I0J237500D01*
G01*
X192656000Y-86757500D01*
G75*
G02*
X192893500Y-86520000I237500J0D01*
G01*
X193468500Y-86520000D01*
G75*
G02*
X193706000Y-86757500I0J-237500D01*
G01*
G37*
G36*
G01*
X195456000Y-86757500D02*
X195456000Y-87232500D01*
G75*
G02*
X195218500Y-87470000I-237500J0D01*
G01*
X194643500Y-87470000D01*
G75*
G02*
X194406000Y-87232500I0J237500D01*
G01*
X194406000Y-86757500D01*
G75*
G02*
X194643500Y-86520000I237500J0D01*
G01*
X195218500Y-86520000D01*
G75*
G02*
X195456000Y-86757500I0J-237500D01*
G01*
G37*
G36*
G01*
X203047181Y-91149369D02*
X202635819Y-91386869D01*
G75*
G02*
X202311388Y-91299938I-118750J205681D01*
G01*
X202023888Y-90801974D01*
G75*
G02*
X202110819Y-90477543I205681J118750D01*
G01*
X202522181Y-90240043D01*
G75*
G02*
X202846612Y-90326974I118750J-205681D01*
G01*
X203134112Y-90824938D01*
G75*
G02*
X203047181Y-91149369I-205681J-118750D01*
G01*
G37*
G36*
G01*
X203922181Y-92664913D02*
X203510819Y-92902413D01*
G75*
G02*
X203186388Y-92815482I-118750J205681D01*
G01*
X202898888Y-92317518D01*
G75*
G02*
X202985819Y-91993087I205681J118750D01*
G01*
X203397181Y-91755587D01*
G75*
G02*
X203721612Y-91842518I118750J-205681D01*
G01*
X204009112Y-92340482D01*
G75*
G02*
X203922181Y-92664913I-205681J-118750D01*
G01*
G37*
G36*
G01*
X203326681Y-103066641D02*
X202915319Y-102829141D01*
G75*
G02*
X202828388Y-102504710I118750J205681D01*
G01*
X203115888Y-102006746D01*
G75*
G02*
X203440319Y-101919815I205681J-118750D01*
G01*
X203851681Y-102157315D01*
G75*
G02*
X203938612Y-102481746I-118750J-205681D01*
G01*
X203651112Y-102979710D01*
G75*
G02*
X203326681Y-103066641I-205681J118750D01*
G01*
G37*
G36*
G01*
X202451681Y-104582185D02*
X202040319Y-104344685D01*
G75*
G02*
X201953388Y-104020254I118750J205681D01*
G01*
X202240888Y-103522290D01*
G75*
G02*
X202565319Y-103435359I205681J-118750D01*
G01*
X202976681Y-103672859D01*
G75*
G02*
X203063612Y-103997290I-118750J-205681D01*
G01*
X202776112Y-104495254D01*
G75*
G02*
X202451681Y-104582185I-205681J118750D01*
G01*
G37*
G36*
G01*
X193771000Y-108568500D02*
X193771000Y-108093500D01*
G75*
G02*
X194008500Y-107856000I237500J0D01*
G01*
X194583500Y-107856000D01*
G75*
G02*
X194821000Y-108093500I0J-237500D01*
G01*
X194821000Y-108568500D01*
G75*
G02*
X194583500Y-108806000I-237500J0D01*
G01*
X194008500Y-108806000D01*
G75*
G02*
X193771000Y-108568500I0J237500D01*
G01*
G37*
G36*
G01*
X192021000Y-108568500D02*
X192021000Y-108093500D01*
G75*
G02*
X192258500Y-107856000I237500J0D01*
G01*
X192833500Y-107856000D01*
G75*
G02*
X193071000Y-108093500I0J-237500D01*
G01*
X193071000Y-108568500D01*
G75*
G02*
X192833500Y-108806000I-237500J0D01*
G01*
X192258500Y-108806000D01*
G75*
G02*
X192021000Y-108568500I0J237500D01*
G01*
G37*
G36*
G01*
X188220670Y-108633477D02*
X189295670Y-106771523D01*
G75*
G02*
X189637176Y-106680017I216506J-125000D01*
G01*
X190438250Y-107142517D01*
G75*
G02*
X190529756Y-107484023I-125000J-216506D01*
G01*
X189454756Y-109345977D01*
G75*
G02*
X189113250Y-109437483I-216506J125000D01*
G01*
X188312176Y-108974983D01*
G75*
G02*
X188220670Y-108633477I125000J216506D01*
G01*
G37*
G36*
G01*
X185644244Y-107145977D02*
X186719244Y-105284023D01*
G75*
G02*
X187060750Y-105192517I216506J-125000D01*
G01*
X187861824Y-105655017D01*
G75*
G02*
X187953330Y-105996523I-125000J-216506D01*
G01*
X186878330Y-107858477D01*
G75*
G02*
X186536824Y-107949983I-216506J125000D01*
G01*
X185735750Y-107487483D01*
G75*
G02*
X185644244Y-107145977I125000J216506D01*
G01*
G37*
G36*
G01*
X198488000Y-85920000D02*
X198488000Y-88070000D01*
G75*
G02*
X198238000Y-88320000I-250000J0D01*
G01*
X197313000Y-88320000D01*
G75*
G02*
X197063000Y-88070000I0J250000D01*
G01*
X197063000Y-85920000D01*
G75*
G02*
X197313000Y-85670000I250000J0D01*
G01*
X198238000Y-85670000D01*
G75*
G02*
X198488000Y-85920000I0J-250000D01*
G01*
G37*
G36*
G01*
X201463000Y-85920000D02*
X201463000Y-88070000D01*
G75*
G02*
X201213000Y-88320000I-250000J0D01*
G01*
X200288000Y-88320000D01*
G75*
G02*
X200038000Y-88070000I0J250000D01*
G01*
X200038000Y-85920000D01*
G75*
G02*
X200288000Y-85670000I250000J0D01*
G01*
X201213000Y-85670000D01*
G75*
G02*
X201463000Y-85920000I0J-250000D01*
G01*
G37*
G36*
G01*
X185991523Y-93743670D02*
X187853477Y-94818670D01*
G75*
G02*
X187944983Y-95160176I-125000J-216506D01*
G01*
X187482483Y-95961250D01*
G75*
G02*
X187140977Y-96052756I-216506J125000D01*
G01*
X185279023Y-94977756D01*
G75*
G02*
X185187517Y-94636250I125000J216506D01*
G01*
X185650017Y-93835176D01*
G75*
G02*
X185991523Y-93743670I216506J-125000D01*
G01*
G37*
G36*
G01*
X187479023Y-91167244D02*
X189340977Y-92242244D01*
G75*
G02*
X189432483Y-92583750I-125000J-216506D01*
G01*
X188969983Y-93384824D01*
G75*
G02*
X188628477Y-93476330I-216506J125000D01*
G01*
X186766523Y-92401330D01*
G75*
G02*
X186675017Y-92059824I125000J216506D01*
G01*
X187137517Y-91258750D01*
G75*
G02*
X187479023Y-91167244I216506J-125000D01*
G01*
G37*
G36*
G01*
X194565000Y-91065000D02*
X194565000Y-88915000D01*
G75*
G02*
X194815000Y-88665000I250000J0D01*
G01*
X195740000Y-88665000D01*
G75*
G02*
X195990000Y-88915000I0J-250000D01*
G01*
X195990000Y-91065000D01*
G75*
G02*
X195740000Y-91315000I-250000J0D01*
G01*
X194815000Y-91315000D01*
G75*
G02*
X194565000Y-91065000I0J250000D01*
G01*
G37*
G36*
G01*
X191590000Y-91065000D02*
X191590000Y-88915000D01*
G75*
G02*
X191840000Y-88665000I250000J0D01*
G01*
X192765000Y-88665000D01*
G75*
G02*
X193015000Y-88915000I0J-250000D01*
G01*
X193015000Y-91065000D01*
G75*
G02*
X192765000Y-91315000I-250000J0D01*
G01*
X191840000Y-91315000D01*
G75*
G02*
X191590000Y-91065000I0J250000D01*
G01*
G37*
G36*
G01*
X186716523Y-102978670D02*
X188578477Y-101903670D01*
G75*
G02*
X188919983Y-101995176I125000J-216506D01*
G01*
X189382483Y-102796250D01*
G75*
G02*
X189290977Y-103137756I-216506J-125000D01*
G01*
X187429023Y-104212756D01*
G75*
G02*
X187087517Y-104121250I-125000J216506D01*
G01*
X186625017Y-103320176D01*
G75*
G02*
X186716523Y-102978670I216506J125000D01*
G01*
G37*
G36*
G01*
X185229023Y-100402244D02*
X187090977Y-99327244D01*
G75*
G02*
X187432483Y-99418750I125000J-216506D01*
G01*
X187894983Y-100219824D01*
G75*
G02*
X187803477Y-100561330I-216506J-125000D01*
G01*
X185941523Y-101636330D01*
G75*
G02*
X185600017Y-101544824I-125000J216506D01*
G01*
X185137517Y-100743750D01*
G75*
G02*
X185229023Y-100402244I216506J125000D01*
G01*
G37*
G36*
G01*
X200663477Y-92171330D02*
X198801523Y-93246330D01*
G75*
G02*
X198460017Y-93154824I-125000J216506D01*
G01*
X197997517Y-92353750D01*
G75*
G02*
X198089023Y-92012244I216506J125000D01*
G01*
X199950977Y-90937244D01*
G75*
G02*
X200292483Y-91028750I125000J-216506D01*
G01*
X200754983Y-91829824D01*
G75*
G02*
X200663477Y-92171330I-216506J-125000D01*
G01*
G37*
G36*
G01*
X202150977Y-94747756D02*
X200289023Y-95822756D01*
G75*
G02*
X199947517Y-95731250I-125000J216506D01*
G01*
X199485017Y-94930176D01*
G75*
G02*
X199576523Y-94588670I216506J125000D01*
G01*
X201438477Y-93513670D01*
G75*
G02*
X201779983Y-93605176I125000J-216506D01*
G01*
X202242483Y-94406250D01*
G75*
G02*
X202150977Y-94747756I-216506J-125000D01*
G01*
G37*
G36*
G01*
X201618477Y-101386330D02*
X199756523Y-100311330D01*
G75*
G02*
X199665017Y-99969824I125000J216506D01*
G01*
X200127517Y-99168750D01*
G75*
G02*
X200469023Y-99077244I216506J-125000D01*
G01*
X202330977Y-100152244D01*
G75*
G02*
X202422483Y-100493750I-125000J-216506D01*
G01*
X201959983Y-101294824D01*
G75*
G02*
X201618477Y-101386330I-216506J125000D01*
G01*
G37*
G36*
G01*
X200130977Y-103962756D02*
X198269023Y-102887756D01*
G75*
G02*
X198177517Y-102546250I125000J216506D01*
G01*
X198640017Y-101745176D01*
G75*
G02*
X198981523Y-101653670I216506J-125000D01*
G01*
X200843477Y-102728670D01*
G75*
G02*
X200934983Y-103070176I-125000J-216506D01*
G01*
X200472483Y-103871250D01*
G75*
G02*
X200130977Y-103962756I-216506J125000D01*
G01*
G37*
G36*
G01*
X192895000Y-104295000D02*
X192895000Y-106445000D01*
G75*
G02*
X192645000Y-106695000I-250000J0D01*
G01*
X191720000Y-106695000D01*
G75*
G02*
X191470000Y-106445000I0J250000D01*
G01*
X191470000Y-104295000D01*
G75*
G02*
X191720000Y-104045000I250000J0D01*
G01*
X192645000Y-104045000D01*
G75*
G02*
X192895000Y-104295000I0J-250000D01*
G01*
G37*
G36*
G01*
X195870000Y-104295000D02*
X195870000Y-106445000D01*
G75*
G02*
X195620000Y-106695000I-250000J0D01*
G01*
X194695000Y-106695000D01*
G75*
G02*
X194445000Y-106445000I0J250000D01*
G01*
X194445000Y-104295000D01*
G75*
G02*
X194695000Y-104045000I250000J0D01*
G01*
X195620000Y-104045000D01*
G75*
G02*
X195870000Y-104295000I0J-250000D01*
G01*
G37*
G36*
G01*
X180601199Y-112667200D02*
X181501201Y-112667200D01*
G75*
G02*
X181751200Y-112917199I0J-249999D01*
G01*
X181751200Y-113567201D01*
G75*
G02*
X181501201Y-113817200I-249999J0D01*
G01*
X180601199Y-113817200D01*
G75*
G02*
X180351200Y-113567201I0J249999D01*
G01*
X180351200Y-112917199D01*
G75*
G02*
X180601199Y-112667200I249999J0D01*
G01*
G37*
G36*
G01*
X180601199Y-110617200D02*
X181501201Y-110617200D01*
G75*
G02*
X181751200Y-110867199I0J-249999D01*
G01*
X181751200Y-111517201D01*
G75*
G02*
X181501201Y-111767200I-249999J0D01*
G01*
X180601199Y-111767200D01*
G75*
G02*
X180351200Y-111517201I0J249999D01*
G01*
X180351200Y-110867199D01*
G75*
G02*
X180601199Y-110617200I249999J0D01*
G01*
G37*
G36*
G01*
X186240000Y-86163999D02*
X186240000Y-87064001D01*
G75*
G02*
X185990001Y-87314000I-249999J0D01*
G01*
X185339999Y-87314000D01*
G75*
G02*
X185090000Y-87064001I0J249999D01*
G01*
X185090000Y-86163999D01*
G75*
G02*
X185339999Y-85914000I249999J0D01*
G01*
X185990001Y-85914000D01*
G75*
G02*
X186240000Y-86163999I0J-249999D01*
G01*
G37*
G36*
G01*
X188290000Y-86163999D02*
X188290000Y-87064001D01*
G75*
G02*
X188040001Y-87314000I-249999J0D01*
G01*
X187389999Y-87314000D01*
G75*
G02*
X187140000Y-87064001I0J249999D01*
G01*
X187140000Y-86163999D01*
G75*
G02*
X187389999Y-85914000I249999J0D01*
G01*
X188040001Y-85914000D01*
G75*
G02*
X188290000Y-86163999I0J-249999D01*
G01*
G37*
G36*
G01*
X195141000Y-112972001D02*
X195141000Y-112071999D01*
G75*
G02*
X195390999Y-111822000I249999J0D01*
G01*
X196041001Y-111822000D01*
G75*
G02*
X196291000Y-112071999I0J-249999D01*
G01*
X196291000Y-112972001D01*
G75*
G02*
X196041001Y-113222000I-249999J0D01*
G01*
X195390999Y-113222000D01*
G75*
G02*
X195141000Y-112972001I0J249999D01*
G01*
G37*
G36*
G01*
X193091000Y-112972001D02*
X193091000Y-112071999D01*
G75*
G02*
X193340999Y-111822000I249999J0D01*
G01*
X193991001Y-111822000D01*
G75*
G02*
X194241000Y-112071999I0J-249999D01*
G01*
X194241000Y-112972001D01*
G75*
G02*
X193991001Y-113222000I-249999J0D01*
G01*
X193340999Y-113222000D01*
G75*
G02*
X193091000Y-112972001I0J249999D01*
G01*
G37*
G36*
G01*
X206539713Y-88666288D02*
X205760288Y-89116289D01*
G75*
G02*
X205418783Y-89024783I-125000J216505D01*
G01*
X205093782Y-88461864D01*
G75*
G02*
X205185288Y-88120360I216505J124999D01*
G01*
X205964713Y-87670359D01*
G75*
G02*
X206306217Y-87761865I124999J-216505D01*
G01*
X206631218Y-88324784D01*
G75*
G02*
X206539713Y-88666288I-216505J-124999D01*
G01*
G37*
G36*
G01*
X207564713Y-90441640D02*
X206785288Y-90891641D01*
G75*
G02*
X206443783Y-90800135I-125000J216505D01*
G01*
X206118782Y-90237216D01*
G75*
G02*
X206210288Y-89895712I216505J124999D01*
G01*
X206989713Y-89445711D01*
G75*
G02*
X207331217Y-89537217I124999J-216505D01*
G01*
X207656218Y-90100136D01*
G75*
G02*
X207564713Y-90441640I-216505J-124999D01*
G01*
G37*
G36*
G01*
X207067999Y-102939000D02*
X207968001Y-102939000D01*
G75*
G02*
X208218000Y-103188999I0J-249999D01*
G01*
X208218000Y-103839001D01*
G75*
G02*
X207968001Y-104089000I-249999J0D01*
G01*
X207067999Y-104089000D01*
G75*
G02*
X206818000Y-103839001I0J249999D01*
G01*
X206818000Y-103188999D01*
G75*
G02*
X207067999Y-102939000I249999J0D01*
G01*
G37*
G36*
G01*
X207067999Y-100889000D02*
X207968001Y-100889000D01*
G75*
G02*
X208218000Y-101138999I0J-249999D01*
G01*
X208218000Y-101789001D01*
G75*
G02*
X207968001Y-102039000I-249999J0D01*
G01*
X207067999Y-102039000D01*
G75*
G02*
X206818000Y-101789001I0J249999D01*
G01*
X206818000Y-101138999D01*
G75*
G02*
X207067999Y-100889000I249999J0D01*
G01*
G37*
G36*
G01*
X196018999Y-109797000D02*
X196919001Y-109797000D01*
G75*
G02*
X197169000Y-110046999I0J-249999D01*
G01*
X197169000Y-110697001D01*
G75*
G02*
X196919001Y-110947000I-249999J0D01*
G01*
X196018999Y-110947000D01*
G75*
G02*
X195769000Y-110697001I0J249999D01*
G01*
X195769000Y-110046999D01*
G75*
G02*
X196018999Y-109797000I249999J0D01*
G01*
G37*
G36*
G01*
X196018999Y-107747000D02*
X196919001Y-107747000D01*
G75*
G02*
X197169000Y-107996999I0J-249999D01*
G01*
X197169000Y-108647001D01*
G75*
G02*
X196919001Y-108897000I-249999J0D01*
G01*
X196018999Y-108897000D01*
G75*
G02*
X195769000Y-108647001I0J249999D01*
G01*
X195769000Y-107996999D01*
G75*
G02*
X196018999Y-107747000I249999J0D01*
G01*
G37*
M02*
