G04 #@! TF.GenerationSoftware,KiCad,Pcbnew,(5.1.10)-1*
G04 #@! TF.CreationDate,2022-02-25T15:53:37+01:00*
G04 #@! TF.ProjectId,led_defogger_PCB_with_UV_2022,6c65645f-6465-4666-9f67-6765725f5043,rev?*
G04 #@! TF.SameCoordinates,Original*
G04 #@! TF.FileFunction,Legend,Top*
G04 #@! TF.FilePolarity,Positive*
%FSLAX46Y46*%
G04 Gerber Fmt 4.6, Leading zero omitted, Abs format (unit mm)*
G04 Created by KiCad (PCBNEW (5.1.10)-1) date 2022-02-25 15:53:37*
%MOMM*%
%LPD*%
G01*
G04 APERTURE LIST*
%ADD10C,0.150000*%
%ADD11C,0.125000*%
%ADD12C,0.050000*%
%ADD13C,0.120000*%
%ADD14C,0.200000*%
%ADD15C,0.254000*%
G04 APERTURE END LIST*
D10*
X178435047Y-85923428D02*
X179196952Y-85923428D01*
X178816000Y-86304380D02*
X178816000Y-85542476D01*
D11*
X194322488Y-118774364D02*
X194411010Y-118663626D01*
X194411010Y-118663626D02*
X194500861Y-118547228D01*
X194500861Y-118547228D02*
X194580738Y-118440272D01*
X194580738Y-118440272D02*
X194665772Y-118322517D01*
X194665772Y-118322517D02*
X194754165Y-118195349D01*
X194754165Y-118195349D02*
X194844116Y-118060152D01*
X194844116Y-118060152D02*
X194911520Y-117954319D01*
X194911520Y-117954319D02*
X194956006Y-117881977D01*
X194621541Y-116443808D02*
X194504542Y-116492306D01*
X194504542Y-116492306D02*
X194387544Y-116443808D01*
X193541121Y-117882189D02*
X193608012Y-117990161D01*
X193608012Y-117990161D02*
X193698067Y-118128823D01*
X193698067Y-118128823D02*
X193787460Y-118260155D01*
X193787460Y-118260155D02*
X193874392Y-118382769D01*
X193874392Y-118382769D02*
X193957061Y-118495277D01*
X193957061Y-118495277D02*
X194033667Y-118596292D01*
X194033667Y-118596292D02*
X194118154Y-118704284D01*
X194118154Y-118704284D02*
X194174533Y-118774364D01*
X194956006Y-117881977D02*
X195037508Y-117743188D01*
X195037508Y-117743188D02*
X195111087Y-117609039D01*
X195111087Y-117609039D02*
X195176723Y-117479587D01*
X195176723Y-117479587D02*
X195234394Y-117354890D01*
X195234394Y-117354890D02*
X195284081Y-117235006D01*
X195284081Y-117235006D02*
X195337876Y-117082745D01*
X195337876Y-117082745D02*
X195377390Y-116939277D01*
X195377390Y-116939277D02*
X195402578Y-116804741D01*
X195402578Y-116804741D02*
X195413389Y-116679270D01*
X195413389Y-116679270D02*
X195413841Y-116649336D01*
X194248511Y-118809501D02*
X194322488Y-118774364D01*
X198439161Y-117146679D02*
X198327041Y-117258564D01*
X198327041Y-117258564D02*
X198218572Y-117362661D01*
X198218572Y-117362661D02*
X198126728Y-117447961D01*
X198126728Y-117447961D02*
X198026216Y-117538538D01*
X198026216Y-117538538D02*
X197917333Y-117633568D01*
X197917333Y-117633568D02*
X197800372Y-117732225D01*
X197800372Y-117732225D02*
X197675628Y-117833684D01*
X197675628Y-117833684D02*
X197543395Y-117937120D01*
X197543395Y-117937120D02*
X197403969Y-118041709D01*
X197403969Y-118041709D02*
X197307168Y-118111667D01*
X191189790Y-118111667D02*
X191045731Y-118006766D01*
X191045731Y-118006766D02*
X190908671Y-117902464D01*
X190908671Y-117902464D02*
X190778906Y-117799586D01*
X190778906Y-117799586D02*
X190656730Y-117698959D01*
X190656730Y-117698959D02*
X190542439Y-117601410D01*
X190542439Y-117601410D02*
X190436329Y-117507766D01*
X190436329Y-117507766D02*
X190338696Y-117418853D01*
X190338696Y-117418853D02*
X190222216Y-117309091D01*
X190222216Y-117309091D02*
X190122031Y-117211170D01*
X190122031Y-117211170D02*
X190058008Y-117146679D01*
X193293439Y-116578746D02*
X194024959Y-115847120D01*
X199021244Y-116967503D02*
X198914220Y-116850397D01*
X198914220Y-116850397D02*
X198795739Y-116728070D01*
X198795739Y-116728070D02*
X198680148Y-116613864D01*
X198680148Y-116613864D02*
X198542612Y-116483514D01*
X198542612Y-116483514D02*
X198439160Y-116389027D01*
X198439160Y-116389027D02*
X198326600Y-116289438D01*
X198326600Y-116289438D02*
X198205189Y-116185575D01*
X198205189Y-116185575D02*
X198075186Y-116078267D01*
X198075186Y-116078267D02*
X197936849Y-115968343D01*
X197936849Y-115968343D02*
X197790435Y-115856632D01*
X197790435Y-115856632D02*
X197636203Y-115743964D01*
X197636203Y-118549500D02*
X197790452Y-118436831D01*
X197790452Y-118436831D02*
X197936879Y-118325120D01*
X197936879Y-118325120D02*
X198075225Y-118215196D01*
X198075225Y-118215196D02*
X198205234Y-118107887D01*
X198205234Y-118107887D02*
X198326647Y-118004022D01*
X198326647Y-118004022D02*
X198439207Y-117904430D01*
X198439207Y-117904430D02*
X198542656Y-117809940D01*
X198542656Y-117809940D02*
X198636738Y-117721380D01*
X198636738Y-117721380D02*
X198759732Y-117601473D01*
X198759732Y-117601473D02*
X198860200Y-117499572D01*
X198860200Y-117499572D02*
X198957614Y-117396546D01*
X198957614Y-117396546D02*
X199021244Y-117325855D01*
X190860965Y-115743964D02*
X190706714Y-115856632D01*
X190706714Y-115856632D02*
X190560284Y-115968343D01*
X190560284Y-115968343D02*
X190421932Y-116078267D01*
X190421932Y-116078267D02*
X190291917Y-116185575D01*
X190291917Y-116185575D02*
X190170496Y-116289438D01*
X190170496Y-116289438D02*
X190057927Y-116389027D01*
X190057927Y-116389027D02*
X189954468Y-116483514D01*
X189954468Y-116483514D02*
X189860377Y-116572070D01*
X189860377Y-116572070D02*
X189737368Y-116691968D01*
X189737368Y-116691968D02*
X189636887Y-116793857D01*
X189636887Y-116793857D02*
X189539459Y-116896860D01*
X189539459Y-116896860D02*
X189475820Y-116967503D01*
X194248511Y-115483900D02*
X194071267Y-115497353D01*
X194071267Y-115497353D02*
X193902339Y-115536384D01*
X193902339Y-115536384D02*
X193743716Y-115599000D01*
X193743716Y-115599000D02*
X193597391Y-115683210D01*
X193597391Y-115683210D02*
X193465355Y-115787021D01*
X193465355Y-115787021D02*
X193349599Y-115908439D01*
X193349599Y-115908439D02*
X193252115Y-116045474D01*
X193252115Y-116045474D02*
X193174894Y-116196131D01*
X193174894Y-116196131D02*
X193119927Y-116358420D01*
X193119927Y-116358420D02*
X193089207Y-116530347D01*
X193089207Y-116530347D02*
X193083180Y-116649336D01*
X194171538Y-116227696D02*
X194112377Y-116227696D01*
X197636203Y-115743964D02*
X197530351Y-115669572D01*
X197530351Y-115669572D02*
X197424266Y-115597414D01*
X197424266Y-115597414D02*
X197317972Y-115527497D01*
X197317972Y-115527497D02*
X197211491Y-115459831D01*
X197211491Y-115459831D02*
X197104847Y-115394424D01*
X197104847Y-115394424D02*
X196891162Y-115270418D01*
X196891162Y-115270418D02*
X196677102Y-115155548D01*
X196677102Y-115155548D02*
X196462852Y-115049880D01*
X196462852Y-115049880D02*
X196248598Y-114953483D01*
X196248598Y-114953483D02*
X196034527Y-114866423D01*
X196034527Y-114866423D02*
X195820822Y-114788767D01*
X195820822Y-114788767D02*
X195607671Y-114720583D01*
X195607671Y-114720583D02*
X195395258Y-114661938D01*
X195395258Y-114661938D02*
X195183769Y-114612900D01*
X195183769Y-114612900D02*
X194973389Y-114573535D01*
X194973389Y-114573535D02*
X194764305Y-114543912D01*
X194764305Y-114543912D02*
X194556701Y-114524096D01*
X194556701Y-114524096D02*
X194350764Y-114514156D01*
X194350764Y-114514156D02*
X194248479Y-114512911D01*
X194248479Y-114512911D02*
X194043463Y-114517888D01*
X194043463Y-114517888D02*
X193836686Y-114532774D01*
X193836686Y-114532774D02*
X193628333Y-114557502D01*
X193628333Y-114557502D02*
X193418591Y-114592004D01*
X193418591Y-114592004D02*
X193207646Y-114636214D01*
X193207646Y-114636214D02*
X192995682Y-114690064D01*
X192995682Y-114690064D02*
X192782887Y-114753487D01*
X192782887Y-114753487D02*
X192569446Y-114826415D01*
X192569446Y-114826415D02*
X192355544Y-114908781D01*
X192355544Y-114908781D02*
X192141369Y-115000519D01*
X192141369Y-115000519D02*
X191927105Y-115101559D01*
X191927105Y-115101559D02*
X191712938Y-115211837D01*
X191712938Y-115211837D02*
X191499055Y-115331283D01*
X191499055Y-115331283D02*
X191285641Y-115459831D01*
X191285641Y-115459831D02*
X191179168Y-115527497D01*
X191179168Y-115527497D02*
X191072882Y-115597414D01*
X191072882Y-115597414D02*
X190966807Y-115669572D01*
X190966807Y-115669572D02*
X190860965Y-115743964D01*
X190058008Y-117146679D02*
X190170084Y-117034793D01*
X190170084Y-117034793D02*
X190278527Y-116930696D01*
X190278527Y-116930696D02*
X190370355Y-116845396D01*
X190370355Y-116845396D02*
X190470851Y-116754819D01*
X190470851Y-116754819D02*
X190579719Y-116659789D01*
X190579719Y-116659789D02*
X190696665Y-116561132D01*
X190696665Y-116561132D02*
X190821392Y-116459673D01*
X190821392Y-116459673D02*
X190953604Y-116356237D01*
X190953604Y-116356237D02*
X191093006Y-116251648D01*
X191093006Y-116251648D02*
X191189790Y-116181691D01*
X189475820Y-117325855D02*
X189559803Y-117418473D01*
X189559803Y-117418473D02*
X189667824Y-117531366D01*
X189667824Y-117531366D02*
X189775911Y-117639580D01*
X189775911Y-117639580D02*
X189906236Y-117764867D01*
X189906236Y-117764867D02*
X190005043Y-117856495D01*
X190005043Y-117856495D02*
X190113090Y-117953640D01*
X190113090Y-117953640D02*
X190230117Y-118055472D01*
X190230117Y-118055472D02*
X190355867Y-118161162D01*
X190355867Y-118161162D02*
X190490083Y-118269883D01*
X190490083Y-118269883D02*
X190632506Y-118380804D01*
X190632506Y-118380804D02*
X190782879Y-118493097D01*
X190782879Y-118493097D02*
X190860966Y-118549500D01*
X197307168Y-116181691D02*
X197451250Y-116286615D01*
X197451250Y-116286615D02*
X197588326Y-116390933D01*
X197588326Y-116390933D02*
X197718102Y-116493818D01*
X197718102Y-116493818D02*
X197840285Y-116594445D01*
X197840285Y-116594445D02*
X197954581Y-116691989D01*
X197954581Y-116691989D02*
X198060699Y-116785625D01*
X198060699Y-116785625D02*
X198158345Y-116874529D01*
X198158345Y-116874529D02*
X198274854Y-116984277D01*
X198274854Y-116984277D02*
X198375086Y-117082189D01*
X198375086Y-117082189D02*
X198439161Y-117146679D01*
X194248479Y-119233077D02*
X194020061Y-119226103D01*
X194020061Y-119226103D02*
X193794666Y-119205874D01*
X193794666Y-119205874D02*
X193572712Y-119173428D01*
X193572712Y-119173428D02*
X193354614Y-119129800D01*
X193354614Y-119129800D02*
X193140788Y-119076028D01*
X193140788Y-119076028D02*
X192931651Y-119013150D01*
X192931651Y-119013150D02*
X192727620Y-118942202D01*
X192727620Y-118942202D02*
X192529110Y-118864221D01*
X192529110Y-118864221D02*
X192336539Y-118780245D01*
X192336539Y-118780245D02*
X192150322Y-118691311D01*
X192150322Y-118691311D02*
X191970877Y-118598456D01*
X191970877Y-118598456D02*
X191798619Y-118502718D01*
X191798619Y-118502718D02*
X191633965Y-118405132D01*
X191633965Y-118405132D02*
X191477331Y-118306737D01*
X191477331Y-118306737D02*
X191329134Y-118208569D01*
X191329134Y-118208569D02*
X191189790Y-118111667D01*
X194024959Y-115847120D02*
X194141997Y-115798780D01*
X194141997Y-115798780D02*
X194258956Y-115847120D01*
X199021244Y-117325855D02*
X199081551Y-117206225D01*
X199081551Y-117206225D02*
X199078679Y-117075501D01*
X199078679Y-117075501D02*
X199021244Y-116967503D01*
X194621541Y-116209811D02*
X194670039Y-116326769D01*
X194670039Y-116326769D02*
X194621541Y-116443808D01*
X191189790Y-116181691D02*
X191329134Y-116084788D01*
X191329134Y-116084788D02*
X191477331Y-115986620D01*
X191477331Y-115986620D02*
X191633965Y-115888225D01*
X191633965Y-115888225D02*
X191798619Y-115790639D01*
X191798619Y-115790639D02*
X191970877Y-115694901D01*
X191970877Y-115694901D02*
X192150322Y-115602046D01*
X192150322Y-115602046D02*
X192336539Y-115513112D01*
X192336539Y-115513112D02*
X192529110Y-115429136D01*
X192529110Y-115429136D02*
X192727620Y-115351155D01*
X192727620Y-115351155D02*
X192931651Y-115280207D01*
X192931651Y-115280207D02*
X193140788Y-115217329D01*
X193140788Y-115217329D02*
X193354614Y-115163557D01*
X193354614Y-115163557D02*
X193572712Y-115119929D01*
X193572712Y-115119929D02*
X193794666Y-115087483D01*
X193794666Y-115087483D02*
X194020061Y-115067254D01*
X194020061Y-115067254D02*
X194248479Y-115060281D01*
X194248479Y-119780553D02*
X194453512Y-119775574D01*
X194453512Y-119775574D02*
X194660302Y-119760685D01*
X194660302Y-119760685D02*
X194868664Y-119735952D01*
X194868664Y-119735952D02*
X195078413Y-119701444D01*
X195078413Y-119701444D02*
X195289364Y-119657227D01*
X195289364Y-119657227D02*
X195501332Y-119603371D01*
X195501332Y-119603371D02*
X195714131Y-119539942D01*
X195714131Y-119539942D02*
X195927577Y-119467008D01*
X195927577Y-119467008D02*
X196141484Y-119384638D01*
X196141484Y-119384638D02*
X196355667Y-119292898D01*
X196355667Y-119292898D02*
X196569942Y-119191857D01*
X196569942Y-119191857D02*
X196784122Y-119081582D01*
X196784122Y-119081582D02*
X196998024Y-118962141D01*
X196998024Y-118962141D02*
X197211461Y-118833601D01*
X197211461Y-118833601D02*
X197317948Y-118765941D01*
X197317948Y-118765941D02*
X197424249Y-118696032D01*
X197424249Y-118696032D02*
X197530342Y-118623882D01*
X197530342Y-118623882D02*
X197636203Y-118549500D01*
X194387544Y-116443808D02*
X194171538Y-116227696D01*
X194112377Y-116227696D02*
X193527436Y-116812743D01*
X193527436Y-116812743D02*
X193410437Y-116861161D01*
X193410437Y-116861161D02*
X193293439Y-116812743D01*
X194248479Y-115060281D02*
X194476914Y-115067254D01*
X194476914Y-115067254D02*
X194702321Y-115087483D01*
X194702321Y-115087483D02*
X194924285Y-115119929D01*
X194924285Y-115119929D02*
X195142388Y-115163557D01*
X195142388Y-115163557D02*
X195356216Y-115217329D01*
X195356216Y-115217329D02*
X195565353Y-115280207D01*
X195565353Y-115280207D02*
X195769381Y-115351155D01*
X195769381Y-115351155D02*
X195967887Y-115429136D01*
X195967887Y-115429136D02*
X196160452Y-115513112D01*
X196160452Y-115513112D02*
X196346663Y-115602046D01*
X196346663Y-115602046D02*
X196526101Y-115694901D01*
X196526101Y-115694901D02*
X196698353Y-115790639D01*
X196698353Y-115790639D02*
X196863001Y-115888225D01*
X196863001Y-115888225D02*
X197019631Y-115986620D01*
X197019631Y-115986620D02*
X197167825Y-116084788D01*
X197167825Y-116084788D02*
X197307168Y-116181691D01*
X193293439Y-116812743D02*
X193244967Y-116695797D01*
X190860966Y-118549500D02*
X190966808Y-118623882D01*
X190966808Y-118623882D02*
X191072883Y-118696032D01*
X191072883Y-118696032D02*
X191179169Y-118765941D01*
X191179169Y-118765941D02*
X191285642Y-118833601D01*
X191285642Y-118833601D02*
X191392278Y-118899004D01*
X191392278Y-118899004D02*
X191605950Y-119023003D01*
X191605950Y-119023003D02*
X191819998Y-119137869D01*
X191819998Y-119137869D02*
X192034236Y-119243536D01*
X192034236Y-119243536D02*
X192248479Y-119339935D01*
X192248479Y-119339935D02*
X192462541Y-119426998D01*
X192462541Y-119426998D02*
X192676236Y-119504659D01*
X192676236Y-119504659D02*
X192889377Y-119572849D01*
X192889377Y-119572849D02*
X193101780Y-119631500D01*
X193101780Y-119631500D02*
X193313257Y-119680545D01*
X193313257Y-119680545D02*
X193523624Y-119719916D01*
X193523624Y-119719916D02*
X193732695Y-119749545D01*
X193732695Y-119749545D02*
X193940283Y-119769364D01*
X193940283Y-119769364D02*
X194146202Y-119779307D01*
X194146202Y-119779307D02*
X194248479Y-119780553D01*
X194174533Y-118774364D02*
X194248511Y-118809501D01*
X194258956Y-115847120D02*
X194621541Y-116209811D01*
X193083180Y-116649336D02*
X193094449Y-116804832D01*
X193094449Y-116804832D02*
X193119650Y-116939429D01*
X193119650Y-116939429D02*
X193159183Y-117082943D01*
X193159183Y-117082943D02*
X193212997Y-117235238D01*
X193212997Y-117235238D02*
X193262698Y-117355138D01*
X193262698Y-117355138D02*
X193320383Y-117479841D01*
X193320383Y-117479841D02*
X193386029Y-117609289D01*
X193386029Y-117609289D02*
X193459615Y-117743424D01*
X193459615Y-117743424D02*
X193541121Y-117882189D01*
X195413841Y-116649336D02*
X195400390Y-116472090D01*
X195400390Y-116472090D02*
X195361366Y-116303154D01*
X195361366Y-116303154D02*
X195298760Y-116144521D01*
X195298760Y-116144521D02*
X195214563Y-115998183D01*
X195214563Y-115998183D02*
X195110767Y-115866132D01*
X195110767Y-115866132D02*
X194989364Y-115750362D01*
X194989364Y-115750362D02*
X194852343Y-115652864D01*
X194852343Y-115652864D02*
X194701698Y-115575630D01*
X194701698Y-115575630D02*
X194539419Y-115520654D01*
X194539419Y-115520654D02*
X194367498Y-115489928D01*
X194367498Y-115489928D02*
X194248511Y-115483900D01*
X193244967Y-116695797D02*
X193293439Y-116578746D01*
X197307168Y-118111667D02*
X197167825Y-118208569D01*
X197167825Y-118208569D02*
X197019631Y-118306737D01*
X197019631Y-118306737D02*
X196863001Y-118405132D01*
X196863001Y-118405132D02*
X196698353Y-118502718D01*
X196698353Y-118502718D02*
X196526101Y-118598456D01*
X196526101Y-118598456D02*
X196346662Y-118691311D01*
X196346662Y-118691311D02*
X196160452Y-118780245D01*
X196160452Y-118780245D02*
X195967886Y-118864221D01*
X195967886Y-118864221D02*
X195769381Y-118942202D01*
X195769381Y-118942202D02*
X195565352Y-119013150D01*
X195565352Y-119013150D02*
X195356216Y-119076028D01*
X195356216Y-119076028D02*
X195142388Y-119129800D01*
X195142388Y-119129800D02*
X194924284Y-119173428D01*
X194924284Y-119173428D02*
X194702321Y-119205874D01*
X194702321Y-119205874D02*
X194476914Y-119226103D01*
X194476914Y-119226103D02*
X194248479Y-119233077D01*
X189475820Y-116967503D02*
X189415512Y-117087204D01*
X189415512Y-117087204D02*
X189418384Y-117217924D01*
X189418384Y-117217924D02*
X189475820Y-117325855D01*
D12*
X205913100Y-97629980D02*
G75*
G03*
X205913100Y-97629980I-12200000J0D01*
G01*
D13*
X202320000Y-97820000D02*
G75*
G03*
X202320000Y-97820000I-8500000J0D01*
G01*
D10*
X186095666Y-79780380D02*
X186333761Y-80780380D01*
X186524238Y-80066095D01*
X186714714Y-80780380D01*
X186952809Y-79780380D01*
X187762333Y-80780380D02*
X187762333Y-80256571D01*
X187714714Y-80161333D01*
X187619476Y-80113714D01*
X187429000Y-80113714D01*
X187333761Y-80161333D01*
X187762333Y-80732761D02*
X187667095Y-80780380D01*
X187429000Y-80780380D01*
X187333761Y-80732761D01*
X187286142Y-80637523D01*
X187286142Y-80542285D01*
X187333761Y-80447047D01*
X187429000Y-80399428D01*
X187667095Y-80399428D01*
X187762333Y-80351809D01*
X188095666Y-80113714D02*
X188476619Y-80113714D01*
X188238523Y-79780380D02*
X188238523Y-80637523D01*
X188286142Y-80732761D01*
X188381380Y-80780380D01*
X188476619Y-80780380D01*
X189190904Y-80732761D02*
X189095666Y-80780380D01*
X188905190Y-80780380D01*
X188809952Y-80732761D01*
X188762333Y-80637523D01*
X188762333Y-80256571D01*
X188809952Y-80161333D01*
X188905190Y-80113714D01*
X189095666Y-80113714D01*
X189190904Y-80161333D01*
X189238523Y-80256571D01*
X189238523Y-80351809D01*
X188762333Y-80447047D01*
X189667095Y-80780380D02*
X189667095Y-80113714D01*
X189667095Y-80304190D02*
X189714714Y-80208952D01*
X189762333Y-80161333D01*
X189857571Y-80113714D01*
X189952809Y-80113714D01*
X190238523Y-80732761D02*
X190381380Y-80780380D01*
X190619476Y-80780380D01*
X190714714Y-80732761D01*
X190762333Y-80685142D01*
X190809952Y-80589904D01*
X190809952Y-80494666D01*
X190762333Y-80399428D01*
X190714714Y-80351809D01*
X190619476Y-80304190D01*
X190429000Y-80256571D01*
X190333761Y-80208952D01*
X190286142Y-80161333D01*
X190238523Y-80066095D01*
X190238523Y-79970857D01*
X190286142Y-79875619D01*
X190333761Y-79828000D01*
X190429000Y-79780380D01*
X190667095Y-79780380D01*
X190809952Y-79828000D01*
X191667095Y-80732761D02*
X191571857Y-80780380D01*
X191381380Y-80780380D01*
X191286142Y-80732761D01*
X191238523Y-80685142D01*
X191190904Y-80589904D01*
X191190904Y-80304190D01*
X191238523Y-80208952D01*
X191286142Y-80161333D01*
X191381380Y-80113714D01*
X191571857Y-80113714D01*
X191667095Y-80161333D01*
X192238523Y-80780380D02*
X192143285Y-80732761D01*
X192095666Y-80685142D01*
X192048047Y-80589904D01*
X192048047Y-80304190D01*
X192095666Y-80208952D01*
X192143285Y-80161333D01*
X192238523Y-80113714D01*
X192381380Y-80113714D01*
X192476619Y-80161333D01*
X192524238Y-80208952D01*
X192571857Y-80304190D01*
X192571857Y-80589904D01*
X192524238Y-80685142D01*
X192476619Y-80732761D01*
X192381380Y-80780380D01*
X192238523Y-80780380D01*
X193000428Y-80113714D02*
X193000428Y-81113714D01*
X193000428Y-80161333D02*
X193095666Y-80113714D01*
X193286142Y-80113714D01*
X193381380Y-80161333D01*
X193429000Y-80208952D01*
X193476619Y-80304190D01*
X193476619Y-80589904D01*
X193429000Y-80685142D01*
X193381380Y-80732761D01*
X193286142Y-80780380D01*
X193095666Y-80780380D01*
X193000428Y-80732761D01*
X194286142Y-80732761D02*
X194190904Y-80780380D01*
X194000428Y-80780380D01*
X193905190Y-80732761D01*
X193857571Y-80637523D01*
X193857571Y-80256571D01*
X193905190Y-80161333D01*
X194000428Y-80113714D01*
X194190904Y-80113714D01*
X194286142Y-80161333D01*
X194333761Y-80256571D01*
X194333761Y-80351809D01*
X193857571Y-80447047D01*
X195524238Y-80780380D02*
X195524238Y-79780380D01*
X195762333Y-79780380D01*
X195905190Y-79828000D01*
X196000428Y-79923238D01*
X196048047Y-80018476D01*
X196095666Y-80208952D01*
X196095666Y-80351809D01*
X196048047Y-80542285D01*
X196000428Y-80637523D01*
X195905190Y-80732761D01*
X195762333Y-80780380D01*
X195524238Y-80780380D01*
X196905190Y-80732761D02*
X196809952Y-80780380D01*
X196619476Y-80780380D01*
X196524238Y-80732761D01*
X196476619Y-80637523D01*
X196476619Y-80256571D01*
X196524238Y-80161333D01*
X196619476Y-80113714D01*
X196809952Y-80113714D01*
X196905190Y-80161333D01*
X196952809Y-80256571D01*
X196952809Y-80351809D01*
X196476619Y-80447047D01*
X197238523Y-80113714D02*
X197619476Y-80113714D01*
X197381380Y-80780380D02*
X197381380Y-79923238D01*
X197429000Y-79828000D01*
X197524238Y-79780380D01*
X197619476Y-79780380D01*
X198095666Y-80780380D02*
X198000428Y-80732761D01*
X197952809Y-80685142D01*
X197905190Y-80589904D01*
X197905190Y-80304190D01*
X197952809Y-80208952D01*
X198000428Y-80161333D01*
X198095666Y-80113714D01*
X198238523Y-80113714D01*
X198333761Y-80161333D01*
X198381380Y-80208952D01*
X198429000Y-80304190D01*
X198429000Y-80589904D01*
X198381380Y-80685142D01*
X198333761Y-80732761D01*
X198238523Y-80780380D01*
X198095666Y-80780380D01*
X199286142Y-80113714D02*
X199286142Y-80923238D01*
X199238523Y-81018476D01*
X199190904Y-81066095D01*
X199095666Y-81113714D01*
X198952809Y-81113714D01*
X198857571Y-81066095D01*
X199286142Y-80732761D02*
X199190904Y-80780380D01*
X199000428Y-80780380D01*
X198905190Y-80732761D01*
X198857571Y-80685142D01*
X198809952Y-80589904D01*
X198809952Y-80304190D01*
X198857571Y-80208952D01*
X198905190Y-80161333D01*
X199000428Y-80113714D01*
X199190904Y-80113714D01*
X199286142Y-80161333D01*
X200190904Y-80113714D02*
X200190904Y-80923238D01*
X200143285Y-81018476D01*
X200095666Y-81066095D01*
X200000428Y-81113714D01*
X199857571Y-81113714D01*
X199762333Y-81066095D01*
X200190904Y-80732761D02*
X200095666Y-80780380D01*
X199905190Y-80780380D01*
X199809952Y-80732761D01*
X199762333Y-80685142D01*
X199714714Y-80589904D01*
X199714714Y-80304190D01*
X199762333Y-80208952D01*
X199809952Y-80161333D01*
X199905190Y-80113714D01*
X200095666Y-80113714D01*
X200190904Y-80161333D01*
X201048047Y-80732761D02*
X200952809Y-80780380D01*
X200762333Y-80780380D01*
X200667095Y-80732761D01*
X200619476Y-80637523D01*
X200619476Y-80256571D01*
X200667095Y-80161333D01*
X200762333Y-80113714D01*
X200952809Y-80113714D01*
X201048047Y-80161333D01*
X201095666Y-80256571D01*
X201095666Y-80351809D01*
X200619476Y-80447047D01*
X201524238Y-80780380D02*
X201524238Y-80113714D01*
X201524238Y-80304190D02*
X201571857Y-80208952D01*
X201619476Y-80161333D01*
X201714714Y-80113714D01*
X201809952Y-80113714D01*
X189262333Y-81430380D02*
X189262333Y-82239904D01*
X189309952Y-82335142D01*
X189357571Y-82382761D01*
X189452809Y-82430380D01*
X189643285Y-82430380D01*
X189738523Y-82382761D01*
X189786142Y-82335142D01*
X189833761Y-82239904D01*
X189833761Y-81430380D01*
X190167095Y-81430380D02*
X190500428Y-82430380D01*
X190833761Y-81430380D01*
X192071857Y-82430380D02*
X191976619Y-82382761D01*
X191929000Y-82335142D01*
X191881380Y-82239904D01*
X191881380Y-81954190D01*
X191929000Y-81858952D01*
X191976619Y-81811333D01*
X192071857Y-81763714D01*
X192214714Y-81763714D01*
X192309952Y-81811333D01*
X192357571Y-81858952D01*
X192405190Y-81954190D01*
X192405190Y-82239904D01*
X192357571Y-82335142D01*
X192309952Y-82382761D01*
X192214714Y-82430380D01*
X192071857Y-82430380D01*
X192833761Y-81763714D02*
X192833761Y-82763714D01*
X192833761Y-81811333D02*
X192929000Y-81763714D01*
X193119476Y-81763714D01*
X193214714Y-81811333D01*
X193262333Y-81858952D01*
X193309952Y-81954190D01*
X193309952Y-82239904D01*
X193262333Y-82335142D01*
X193214714Y-82382761D01*
X193119476Y-82430380D01*
X192929000Y-82430380D01*
X192833761Y-82382761D01*
X193595666Y-81763714D02*
X193976619Y-81763714D01*
X193738523Y-81430380D02*
X193738523Y-82287523D01*
X193786142Y-82382761D01*
X193881380Y-82430380D01*
X193976619Y-82430380D01*
X194309952Y-82430380D02*
X194309952Y-81763714D01*
X194309952Y-81430380D02*
X194262333Y-81478000D01*
X194309952Y-81525619D01*
X194357571Y-81478000D01*
X194309952Y-81430380D01*
X194309952Y-81525619D01*
X194929000Y-82430380D02*
X194833761Y-82382761D01*
X194786142Y-82335142D01*
X194738523Y-82239904D01*
X194738523Y-81954190D01*
X194786142Y-81858952D01*
X194833761Y-81811333D01*
X194929000Y-81763714D01*
X195071857Y-81763714D01*
X195167095Y-81811333D01*
X195214714Y-81858952D01*
X195262333Y-81954190D01*
X195262333Y-82239904D01*
X195214714Y-82335142D01*
X195167095Y-82382761D01*
X195071857Y-82430380D01*
X194929000Y-82430380D01*
X195690904Y-81763714D02*
X195690904Y-82430380D01*
X195690904Y-81858952D02*
X195738523Y-81811333D01*
X195833761Y-81763714D01*
X195976619Y-81763714D01*
X196071857Y-81811333D01*
X196119476Y-81906571D01*
X196119476Y-82430380D01*
X197262333Y-81763714D02*
X197500428Y-82430380D01*
X197738523Y-81763714D01*
X198024238Y-81430380D02*
X198643285Y-81430380D01*
X198309952Y-81811333D01*
X198452809Y-81811333D01*
X198548047Y-81858952D01*
X198595666Y-81906571D01*
X198643285Y-82001809D01*
X198643285Y-82239904D01*
X198595666Y-82335142D01*
X198548047Y-82382761D01*
X198452809Y-82430380D01*
X198167095Y-82430380D01*
X198071857Y-82382761D01*
X198024238Y-82335142D01*
D14*
X200787200Y-107633600D02*
X203987200Y-107633600D01*
X203987200Y-107633600D02*
X203987200Y-112533600D01*
X203987200Y-112533600D02*
X200787200Y-112533600D01*
X200787200Y-112533600D02*
X200787200Y-107633600D01*
X198912200Y-107478600D02*
X200437200Y-107478600D01*
X179437000Y-96786800D02*
G75*
G02*
X179337000Y-96786800I-50000J0D01*
G01*
X179337000Y-96786800D02*
G75*
G02*
X179437000Y-96786800I50000J0D01*
G01*
X179437000Y-96786800D02*
G75*
G02*
X179337000Y-96786800I-50000J0D01*
G01*
X179337000Y-96786800D02*
X179337000Y-96786800D01*
X179437000Y-96786800D02*
X179437000Y-96786800D01*
X179337000Y-96786800D02*
X179337000Y-96786800D01*
X203313000Y-96736000D02*
G75*
G02*
X203213000Y-96736000I-50000J0D01*
G01*
X203213000Y-96736000D02*
G75*
G02*
X203313000Y-96736000I50000J0D01*
G01*
X203313000Y-96736000D02*
G75*
G02*
X203213000Y-96736000I-50000J0D01*
G01*
X203213000Y-96736000D02*
X203213000Y-96736000D01*
X203313000Y-96736000D02*
X203313000Y-96736000D01*
X203213000Y-96736000D02*
X203213000Y-96736000D01*
X175979000Y-105743000D02*
X175979000Y-102543000D01*
X175979000Y-102543000D02*
X180879000Y-102543000D01*
X180879000Y-102543000D02*
X180879000Y-105743000D01*
X180879000Y-105743000D02*
X175979000Y-105743000D01*
X175824000Y-107618000D02*
X175824000Y-106093000D01*
X180241000Y-91031000D02*
X180241000Y-86931000D01*
X177391000Y-87531000D02*
X177391000Y-91031000D01*
D13*
X176636000Y-98263064D02*
X176636000Y-96808936D01*
X178456000Y-98263064D02*
X178456000Y-96808936D01*
X208187936Y-92625500D02*
X209642064Y-92625500D01*
X208187936Y-94445500D02*
X209642064Y-94445500D01*
X182265996Y-104521425D02*
X182527248Y-104973927D01*
X183495752Y-103811425D02*
X183757004Y-104263927D01*
X183491252Y-91767251D02*
X183752504Y-91314749D01*
X182261496Y-91057251D02*
X182522748Y-90604749D01*
X193794748Y-85800000D02*
X194317252Y-85800000D01*
X193794748Y-84380000D02*
X194317252Y-84380000D01*
X203851496Y-90425749D02*
X204112748Y-90878251D01*
X205081252Y-89715749D02*
X205342504Y-90168251D01*
X204112748Y-103812749D02*
X203851496Y-104265251D01*
X205342504Y-104522749D02*
X205081252Y-104975251D01*
X193691252Y-109526000D02*
X193168748Y-109526000D01*
X193691252Y-110946000D02*
X193168748Y-110946000D01*
X205942000Y-115145452D02*
X205942000Y-114622948D01*
X204522000Y-115145452D02*
X204522000Y-114622948D01*
X183191471Y-102307898D02*
X184421471Y-104438320D01*
X184464529Y-101572898D02*
X183191471Y-102307898D01*
X185694529Y-103703320D02*
X184464529Y-101572898D01*
X184921971Y-90392670D02*
X183691971Y-92523092D01*
X186195029Y-91127670D02*
X184921971Y-90392670D01*
X184965029Y-93258092D02*
X186195029Y-91127670D01*
X195716000Y-86260000D02*
X193256000Y-86260000D01*
X195716000Y-87730000D02*
X195716000Y-86260000D01*
X193256000Y-87730000D02*
X195716000Y-87730000D01*
X204483029Y-92641330D02*
X203253029Y-90510908D01*
X203209971Y-93376330D02*
X204483029Y-92641330D01*
X201979971Y-91245908D02*
X203209971Y-93376330D01*
X202752529Y-105056102D02*
X203982529Y-102925680D01*
X201479471Y-104321102D02*
X202752529Y-105056102D01*
X202709471Y-102190680D02*
X201479471Y-104321102D01*
X191761000Y-109066000D02*
X194221000Y-109066000D01*
X191761000Y-107596000D02*
X191761000Y-109066000D01*
X194221000Y-107596000D02*
X191761000Y-107596000D01*
X188245597Y-105836173D02*
X189288403Y-106438237D01*
X186885597Y-108191763D02*
X187928403Y-108793827D01*
X199865064Y-88355000D02*
X198660936Y-88355000D01*
X199865064Y-85635000D02*
X198660936Y-85635000D01*
X188788827Y-93768597D02*
X188186763Y-94811403D01*
X186433237Y-92408597D02*
X185831173Y-93451403D01*
X193187936Y-88630000D02*
X194392064Y-88630000D01*
X193187936Y-91350000D02*
X194392064Y-91350000D01*
X188136763Y-100568597D02*
X188738827Y-101611403D01*
X185781173Y-101928597D02*
X186383237Y-102971403D01*
X199243237Y-94581403D02*
X198641173Y-93538597D01*
X201598827Y-93221403D02*
X200996763Y-92178597D01*
X198821173Y-101361403D02*
X199423237Y-100318597D01*
X201176763Y-102721403D02*
X201778827Y-101678597D01*
X194272064Y-106730000D02*
X193067936Y-106730000D01*
X194272064Y-104010000D02*
X193067936Y-104010000D01*
X181761200Y-111955948D02*
X181761200Y-112478452D01*
X180341200Y-111955948D02*
X180341200Y-112478452D01*
X186951252Y-87324000D02*
X186428748Y-87324000D01*
X186951252Y-85904000D02*
X186428748Y-85904000D01*
X194429748Y-111812000D02*
X194952252Y-111812000D01*
X194429748Y-113232000D02*
X194952252Y-113232000D01*
X205890748Y-89862251D02*
X205629496Y-89409749D01*
X207120504Y-89152251D02*
X206859252Y-88699749D01*
X208228000Y-102227748D02*
X208228000Y-102750252D01*
X206808000Y-102227748D02*
X206808000Y-102750252D01*
X197179000Y-109085748D02*
X197179000Y-109608252D01*
X195759000Y-109085748D02*
X195759000Y-109608252D01*
D15*
X202266247Y-110779076D02*
X202145295Y-110718600D01*
X202024342Y-110597647D01*
X201842914Y-110416219D01*
X201721961Y-110355742D01*
X201601009Y-110355742D01*
X201661485Y-110658123D02*
X201540533Y-110597647D01*
X201419580Y-110476695D01*
X201359104Y-110234790D01*
X201359104Y-109811457D01*
X201419580Y-109569552D01*
X201540533Y-109448600D01*
X201661485Y-109388123D01*
X201903390Y-109388123D01*
X202024342Y-109448600D01*
X202145295Y-109569552D01*
X202205771Y-109811457D01*
X202205771Y-110234790D01*
X202145295Y-110476695D01*
X202024342Y-110597647D01*
X201903390Y-110658123D01*
X201661485Y-110658123D01*
X203415295Y-110658123D02*
X202689580Y-110658123D01*
X203052438Y-110658123D02*
X203052438Y-109388123D01*
X202931485Y-109569552D01*
X202810533Y-109690504D01*
X202689580Y-109750980D01*
X180315809Y-98161323D02*
X179711047Y-98161323D01*
X179711047Y-96891323D01*
X180739142Y-97496085D02*
X181162476Y-97496085D01*
X181343904Y-98161323D02*
X180739142Y-98161323D01*
X180739142Y-96891323D01*
X181343904Y-96891323D01*
X181888190Y-98161323D02*
X181888190Y-96891323D01*
X182190571Y-96891323D01*
X182372000Y-96951800D01*
X182492952Y-97072752D01*
X182553428Y-97193704D01*
X182613904Y-97435609D01*
X182613904Y-97617038D01*
X182553428Y-97858942D01*
X182492952Y-97979895D01*
X182372000Y-98100847D01*
X182190571Y-98161323D01*
X181888190Y-98161323D01*
X183097714Y-97012276D02*
X183158190Y-96951800D01*
X183279142Y-96891323D01*
X183581523Y-96891323D01*
X183702476Y-96951800D01*
X183762952Y-97012276D01*
X183823428Y-97133228D01*
X183823428Y-97254180D01*
X183762952Y-97435609D01*
X183037238Y-98161323D01*
X183823428Y-98161323D01*
X204191809Y-98110523D02*
X203587047Y-98110523D01*
X203587047Y-96840523D01*
X204615142Y-97445285D02*
X205038476Y-97445285D01*
X205219904Y-98110523D02*
X204615142Y-98110523D01*
X204615142Y-96840523D01*
X205219904Y-96840523D01*
X205764190Y-98110523D02*
X205764190Y-96840523D01*
X206066571Y-96840523D01*
X206248000Y-96901000D01*
X206368952Y-97021952D01*
X206429428Y-97142904D01*
X206489904Y-97384809D01*
X206489904Y-97566238D01*
X206429428Y-97808142D01*
X206368952Y-97929095D01*
X206248000Y-98050047D01*
X206066571Y-98110523D01*
X205764190Y-98110523D01*
X207699428Y-98110523D02*
X206973714Y-98110523D01*
X207336571Y-98110523D02*
X207336571Y-96840523D01*
X207215619Y-97021952D01*
X207094666Y-97142904D01*
X206973714Y-97203380D01*
X179003523Y-105382761D02*
X177733523Y-105382761D01*
X178882571Y-104052285D02*
X178943047Y-104112761D01*
X179003523Y-104294190D01*
X179003523Y-104415142D01*
X178943047Y-104596571D01*
X178822095Y-104717523D01*
X178701142Y-104778000D01*
X178459238Y-104838476D01*
X178277809Y-104838476D01*
X178035904Y-104778000D01*
X177914952Y-104717523D01*
X177794000Y-104596571D01*
X177733523Y-104415142D01*
X177733523Y-104294190D01*
X177794000Y-104112761D01*
X177854476Y-104052285D01*
X177733523Y-103628952D02*
X177733523Y-102842761D01*
X178217333Y-103266095D01*
X178217333Y-103084666D01*
X178277809Y-102963714D01*
X178338285Y-102903238D01*
X178459238Y-102842761D01*
X178761619Y-102842761D01*
X178882571Y-102903238D01*
X178943047Y-102963714D01*
X179003523Y-103084666D01*
X179003523Y-103447523D01*
X178943047Y-103568476D01*
X178882571Y-103628952D01*
X179269571Y-89492666D02*
X179330047Y-89553142D01*
X179390523Y-89734571D01*
X179390523Y-89855523D01*
X179330047Y-90036952D01*
X179209095Y-90157904D01*
X179088142Y-90218380D01*
X178846238Y-90278857D01*
X178664809Y-90278857D01*
X178422904Y-90218380D01*
X178301952Y-90157904D01*
X178181000Y-90036952D01*
X178120523Y-89855523D01*
X178120523Y-89734571D01*
X178181000Y-89553142D01*
X178241476Y-89492666D01*
X178120523Y-89069333D02*
X178120523Y-88222666D01*
X179390523Y-88766952D01*
D10*
X208940495Y-85110580D02*
X208940495Y-84110580D01*
X208940495Y-84586771D02*
X209511923Y-84586771D01*
X209511923Y-85110580D02*
X209511923Y-84110580D01*
X210416685Y-84443914D02*
X210416685Y-85110580D01*
X210178590Y-84062961D02*
X209940495Y-84777247D01*
X210559542Y-84777247D01*
X177012695Y-115031780D02*
X177012695Y-114031780D01*
X177012695Y-114507971D02*
X177584123Y-114507971D01*
X177584123Y-115031780D02*
X177584123Y-114031780D01*
X177965076Y-114031780D02*
X178584123Y-114031780D01*
X178250790Y-114412733D01*
X178393647Y-114412733D01*
X178488885Y-114460352D01*
X178536504Y-114507971D01*
X178584123Y-114603209D01*
X178584123Y-114841304D01*
X178536504Y-114936542D01*
X178488885Y-114984161D01*
X178393647Y-115031780D01*
X178107933Y-115031780D01*
X178012695Y-114984161D01*
X177965076Y-114936542D01*
X176987295Y-85313780D02*
X176987295Y-84313780D01*
X176987295Y-84789971D02*
X177558723Y-84789971D01*
X177558723Y-85313780D02*
X177558723Y-84313780D01*
X177987295Y-84409019D02*
X178034914Y-84361400D01*
X178130152Y-84313780D01*
X178368247Y-84313780D01*
X178463485Y-84361400D01*
X178511104Y-84409019D01*
X178558723Y-84504257D01*
X178558723Y-84599495D01*
X178511104Y-84742352D01*
X177939676Y-85313780D01*
X178558723Y-85313780D01*
X208889695Y-115209580D02*
X208889695Y-114209580D01*
X208889695Y-114685771D02*
X209461123Y-114685771D01*
X209461123Y-115209580D02*
X209461123Y-114209580D01*
X210461123Y-115209580D02*
X209889695Y-115209580D01*
X210175409Y-115209580D02*
X210175409Y-114209580D01*
X210080171Y-114352438D01*
X209984933Y-114447676D01*
X209889695Y-114495295D01*
X176178380Y-98178857D02*
X175702190Y-98512190D01*
X176178380Y-98750285D02*
X175178380Y-98750285D01*
X175178380Y-98369333D01*
X175226000Y-98274095D01*
X175273619Y-98226476D01*
X175368857Y-98178857D01*
X175511714Y-98178857D01*
X175606952Y-98226476D01*
X175654571Y-98274095D01*
X175702190Y-98369333D01*
X175702190Y-98750285D01*
X176178380Y-97226476D02*
X176178380Y-97797904D01*
X176178380Y-97512190D02*
X175178380Y-97512190D01*
X175321238Y-97607428D01*
X175416476Y-97702666D01*
X175464095Y-97797904D01*
X175606952Y-96655047D02*
X175559333Y-96750285D01*
X175511714Y-96797904D01*
X175416476Y-96845523D01*
X175368857Y-96845523D01*
X175273619Y-96797904D01*
X175226000Y-96750285D01*
X175178380Y-96655047D01*
X175178380Y-96464571D01*
X175226000Y-96369333D01*
X175273619Y-96321714D01*
X175368857Y-96274095D01*
X175416476Y-96274095D01*
X175511714Y-96321714D01*
X175559333Y-96369333D01*
X175606952Y-96464571D01*
X175606952Y-96655047D01*
X175654571Y-96750285D01*
X175702190Y-96797904D01*
X175797428Y-96845523D01*
X175987904Y-96845523D01*
X176083142Y-96797904D01*
X176130761Y-96750285D01*
X176178380Y-96655047D01*
X176178380Y-96464571D01*
X176130761Y-96369333D01*
X176083142Y-96321714D01*
X175987904Y-96274095D01*
X175797428Y-96274095D01*
X175702190Y-96321714D01*
X175654571Y-96369333D01*
X175606952Y-96464571D01*
X208748333Y-92167880D02*
X208415000Y-91691690D01*
X208176904Y-92167880D02*
X208176904Y-91167880D01*
X208557857Y-91167880D01*
X208653095Y-91215500D01*
X208700714Y-91263119D01*
X208748333Y-91358357D01*
X208748333Y-91501214D01*
X208700714Y-91596452D01*
X208653095Y-91644071D01*
X208557857Y-91691690D01*
X208176904Y-91691690D01*
X209224523Y-92167880D02*
X209415000Y-92167880D01*
X209510238Y-92120261D01*
X209557857Y-92072642D01*
X209653095Y-91929785D01*
X209700714Y-91739309D01*
X209700714Y-91358357D01*
X209653095Y-91263119D01*
X209605476Y-91215500D01*
X209510238Y-91167880D01*
X209319761Y-91167880D01*
X209224523Y-91215500D01*
X209176904Y-91263119D01*
X209129285Y-91358357D01*
X209129285Y-91596452D01*
X209176904Y-91691690D01*
X209224523Y-91739309D01*
X209319761Y-91786928D01*
X209510238Y-91786928D01*
X209605476Y-91739309D01*
X209653095Y-91691690D01*
X209700714Y-91596452D01*
X181279459Y-102948201D02*
X180752689Y-102702475D01*
X180784588Y-103233916D02*
X180284588Y-102367890D01*
X180614502Y-102177414D01*
X180720790Y-102171034D01*
X180785839Y-102188464D01*
X180874697Y-102247133D01*
X180946126Y-102370851D01*
X180952506Y-102477139D01*
X180935076Y-102542188D01*
X180876407Y-102631047D01*
X180546492Y-102821523D01*
X182104245Y-102472011D02*
X181609374Y-102757725D01*
X181856810Y-102614868D02*
X181356810Y-101748843D01*
X181345760Y-101920180D01*
X181310900Y-102050277D01*
X181252231Y-102139136D01*
X181892921Y-101439319D02*
X182470271Y-101105986D01*
X182599117Y-102186297D01*
X180954078Y-93669344D02*
X180903499Y-93090285D01*
X180459207Y-93383630D02*
X180959207Y-92517605D01*
X181289121Y-92708081D01*
X181347790Y-92796939D01*
X181365220Y-92861988D01*
X181358840Y-92968276D01*
X181287412Y-93091994D01*
X181198553Y-93150663D01*
X181133505Y-93168093D01*
X181027216Y-93161713D01*
X180697302Y-92971237D01*
X181778865Y-94145535D02*
X181283993Y-93859821D01*
X181531429Y-94002678D02*
X182031429Y-93136652D01*
X181877521Y-93212751D01*
X181747424Y-93247611D01*
X181641136Y-93241231D01*
X183021172Y-93708081D02*
X182856215Y-93612843D01*
X182749927Y-93606463D01*
X182684878Y-93623893D01*
X182530971Y-93699992D01*
X182394493Y-93841139D01*
X182204017Y-94171054D01*
X182197637Y-94277342D01*
X182215067Y-94342391D01*
X182273736Y-94431249D01*
X182438693Y-94526487D01*
X182544982Y-94532867D01*
X182610030Y-94515437D01*
X182698889Y-94456768D01*
X182817936Y-94250572D01*
X182824316Y-94144283D01*
X182806886Y-94079235D01*
X182748217Y-93990376D01*
X182583260Y-93895138D01*
X182476972Y-93888758D01*
X182411923Y-93906188D01*
X182323065Y-93964857D01*
X193413142Y-83892380D02*
X193079809Y-83416190D01*
X192841714Y-83892380D02*
X192841714Y-82892380D01*
X193222666Y-82892380D01*
X193317904Y-82940000D01*
X193365523Y-82987619D01*
X193413142Y-83082857D01*
X193413142Y-83225714D01*
X193365523Y-83320952D01*
X193317904Y-83368571D01*
X193222666Y-83416190D01*
X192841714Y-83416190D01*
X194365523Y-83892380D02*
X193794095Y-83892380D01*
X194079809Y-83892380D02*
X194079809Y-82892380D01*
X193984571Y-83035238D01*
X193889333Y-83130476D01*
X193794095Y-83178095D01*
X195270285Y-82892380D02*
X194794095Y-82892380D01*
X194746476Y-83368571D01*
X194794095Y-83320952D01*
X194889333Y-83273333D01*
X195127428Y-83273333D01*
X195222666Y-83320952D01*
X195270285Y-83368571D01*
X195317904Y-83463809D01*
X195317904Y-83701904D01*
X195270285Y-83797142D01*
X195222666Y-83844761D01*
X195127428Y-83892380D01*
X194889333Y-83892380D01*
X194794095Y-83844761D01*
X194746476Y-83797142D01*
X205773444Y-93366376D02*
X205246674Y-93120650D01*
X205278573Y-93652091D02*
X204778573Y-92786065D01*
X205108487Y-92595589D01*
X205214775Y-92589209D01*
X205279824Y-92606639D01*
X205368682Y-92665308D01*
X205440111Y-92789026D01*
X205446491Y-92895314D01*
X205429061Y-92960363D01*
X205370392Y-93049222D01*
X205040477Y-93239698D01*
X206598230Y-92890186D02*
X206103359Y-93175900D01*
X206350795Y-93033043D02*
X205850795Y-92167018D01*
X205839745Y-92338355D01*
X205804885Y-92468452D01*
X205746216Y-92557311D01*
X207007205Y-91884264D02*
X207340538Y-92461615D01*
X206610532Y-91673397D02*
X206761478Y-92411035D01*
X207297589Y-92101511D01*
X206096286Y-106001921D02*
X205517227Y-106052500D01*
X205810572Y-106496792D02*
X204944547Y-105996792D01*
X205135023Y-105666878D01*
X205223881Y-105608209D01*
X205288930Y-105590779D01*
X205395218Y-105597159D01*
X205518936Y-105668587D01*
X205577605Y-105757446D01*
X205595035Y-105822494D01*
X205588655Y-105928783D01*
X205398179Y-106258697D01*
X206572477Y-105177134D02*
X206286763Y-105672006D01*
X206429620Y-105424570D02*
X205563594Y-104924570D01*
X205639693Y-105078478D01*
X205674553Y-105208575D01*
X205668173Y-105314863D01*
X205873118Y-104388459D02*
X206182642Y-103852348D01*
X206345890Y-104331500D01*
X206417318Y-104207782D01*
X206506177Y-104149113D01*
X206571225Y-104131683D01*
X206677514Y-104138063D01*
X206883710Y-104257110D01*
X206942379Y-104345969D01*
X206959809Y-104411017D01*
X206953429Y-104517306D01*
X206810572Y-104764741D01*
X206721714Y-104823411D01*
X206656665Y-104840840D01*
X192787142Y-112338380D02*
X192453809Y-111862190D01*
X192215714Y-112338380D02*
X192215714Y-111338380D01*
X192596666Y-111338380D01*
X192691904Y-111386000D01*
X192739523Y-111433619D01*
X192787142Y-111528857D01*
X192787142Y-111671714D01*
X192739523Y-111766952D01*
X192691904Y-111814571D01*
X192596666Y-111862190D01*
X192215714Y-111862190D01*
X193739523Y-112338380D02*
X193168095Y-112338380D01*
X193453809Y-112338380D02*
X193453809Y-111338380D01*
X193358571Y-111481238D01*
X193263333Y-111576476D01*
X193168095Y-111624095D01*
X194120476Y-111433619D02*
X194168095Y-111386000D01*
X194263333Y-111338380D01*
X194501428Y-111338380D01*
X194596666Y-111386000D01*
X194644285Y-111433619D01*
X194691904Y-111528857D01*
X194691904Y-111624095D01*
X194644285Y-111766952D01*
X194072857Y-112338380D01*
X194691904Y-112338380D01*
X204034380Y-115527057D02*
X203558190Y-115860390D01*
X204034380Y-116098485D02*
X203034380Y-116098485D01*
X203034380Y-115717533D01*
X203082000Y-115622295D01*
X203129619Y-115574676D01*
X203224857Y-115527057D01*
X203367714Y-115527057D01*
X203462952Y-115574676D01*
X203510571Y-115622295D01*
X203558190Y-115717533D01*
X203558190Y-116098485D01*
X204034380Y-114574676D02*
X204034380Y-115146104D01*
X204034380Y-114860390D02*
X203034380Y-114860390D01*
X203177238Y-114955628D01*
X203272476Y-115050866D01*
X203320095Y-115146104D01*
X204034380Y-113622295D02*
X204034380Y-114193723D01*
X204034380Y-113908009D02*
X203034380Y-113908009D01*
X203177238Y-114003247D01*
X203272476Y-114098485D01*
X203320095Y-114193723D01*
X185514981Y-106170821D02*
X185014981Y-105304795D01*
X185221177Y-105185747D01*
X185368705Y-105155558D01*
X185498802Y-105190418D01*
X185587661Y-105249087D01*
X185724138Y-105390235D01*
X185795567Y-105513952D01*
X185849565Y-105702719D01*
X185855945Y-105809007D01*
X185821086Y-105939105D01*
X185721177Y-106051773D01*
X185514981Y-106170821D01*
X186252160Y-104590509D02*
X186087203Y-104685747D01*
X186028534Y-104774606D01*
X186011104Y-104839655D01*
X186000054Y-105010992D01*
X186054053Y-105199758D01*
X186244529Y-105529673D01*
X186333387Y-105588342D01*
X186398436Y-105605772D01*
X186504724Y-105599392D01*
X186669681Y-105504154D01*
X186728350Y-105415295D01*
X186745780Y-105350247D01*
X186739400Y-105243959D01*
X186620353Y-105037762D01*
X186531494Y-104979093D01*
X186466446Y-104961663D01*
X186360157Y-104968043D01*
X186195200Y-105063281D01*
X186136531Y-105152139D01*
X186119101Y-105217188D01*
X186125481Y-105323476D01*
X184987864Y-90104645D02*
X185487864Y-89238620D01*
X185694060Y-89357667D01*
X185793969Y-89470335D01*
X185828828Y-89600433D01*
X185822449Y-89706721D01*
X185768450Y-89895488D01*
X185697021Y-90019206D01*
X185560544Y-90160354D01*
X185471685Y-90219023D01*
X185341588Y-90253882D01*
X185194060Y-90223693D01*
X184987864Y-90104645D01*
X186766282Y-89976715D02*
X186353889Y-89738620D01*
X186074555Y-90127203D01*
X186139603Y-90109774D01*
X186245892Y-90116153D01*
X186452088Y-90235201D01*
X186510757Y-90324059D01*
X186528187Y-90389108D01*
X186521807Y-90495396D01*
X186402760Y-90701593D01*
X186313901Y-90760262D01*
X186248852Y-90777692D01*
X186142564Y-90771312D01*
X185936368Y-90652264D01*
X185877699Y-90563406D01*
X185860269Y-90498357D01*
X192222380Y-87733095D02*
X191222380Y-87733095D01*
X191222380Y-87495000D01*
X191270000Y-87352142D01*
X191365238Y-87256904D01*
X191460476Y-87209285D01*
X191650952Y-87161666D01*
X191793809Y-87161666D01*
X191984285Y-87209285D01*
X192079523Y-87256904D01*
X192174761Y-87352142D01*
X192222380Y-87495000D01*
X192222380Y-87733095D01*
X191555714Y-86304523D02*
X192222380Y-86304523D01*
X191174761Y-86542619D02*
X191889047Y-86780714D01*
X191889047Y-86161666D01*
X201333481Y-90132344D02*
X200833481Y-89266318D01*
X201039677Y-89147270D01*
X201187205Y-89117081D01*
X201317302Y-89151941D01*
X201406161Y-89210610D01*
X201542638Y-89351758D01*
X201614067Y-89475475D01*
X201668065Y-89664242D01*
X201674445Y-89770530D01*
X201639586Y-89900628D01*
X201539677Y-90013296D01*
X201333481Y-90132344D01*
X201617028Y-88813937D02*
X202153139Y-88504413D01*
X202054940Y-89000994D01*
X202178657Y-88929566D01*
X202284946Y-88923186D01*
X202349994Y-88940616D01*
X202438853Y-88999285D01*
X202557900Y-89205482D01*
X202564280Y-89311770D01*
X202546850Y-89376818D01*
X202488181Y-89465677D01*
X202240745Y-89608534D01*
X202134457Y-89614914D01*
X202069408Y-89597484D01*
X200810600Y-105432725D02*
X201310600Y-104566700D01*
X201516796Y-104685747D01*
X201616705Y-104798415D01*
X201651564Y-104928513D01*
X201645185Y-105034801D01*
X201591186Y-105223568D01*
X201519757Y-105347286D01*
X201383280Y-105488434D01*
X201294421Y-105547103D01*
X201164324Y-105581962D01*
X201016796Y-105551773D01*
X200810600Y-105432725D01*
X202087767Y-105125369D02*
X202152816Y-105107939D01*
X202259104Y-105114319D01*
X202465300Y-105233367D01*
X202523969Y-105322225D01*
X202541399Y-105387274D01*
X202535019Y-105493562D01*
X202487400Y-105576040D01*
X202374733Y-105675949D01*
X201594147Y-105885106D01*
X202130258Y-106194630D01*
X192682904Y-107353380D02*
X192682904Y-106353380D01*
X192921000Y-106353380D01*
X193063857Y-106401000D01*
X193159095Y-106496238D01*
X193206714Y-106591476D01*
X193254333Y-106781952D01*
X193254333Y-106924809D01*
X193206714Y-107115285D01*
X193159095Y-107210523D01*
X193063857Y-107305761D01*
X192921000Y-107353380D01*
X192682904Y-107353380D01*
X194206714Y-107353380D02*
X193635285Y-107353380D01*
X193921000Y-107353380D02*
X193921000Y-106353380D01*
X193825761Y-106496238D01*
X193730523Y-106591476D01*
X193635285Y-106639095D01*
X186516471Y-109573441D02*
X186465892Y-108994381D01*
X186021600Y-109287726D02*
X186521600Y-108421701D01*
X186851514Y-108612177D01*
X186910183Y-108701035D01*
X186927613Y-108766084D01*
X186921233Y-108872372D01*
X186849805Y-108996090D01*
X186760946Y-109054759D01*
X186695898Y-109072189D01*
X186589609Y-109065809D01*
X186259695Y-108875333D01*
X187297057Y-109364283D02*
X187238388Y-109275425D01*
X187220959Y-109210376D01*
X187227338Y-109104088D01*
X187251148Y-109062849D01*
X187340006Y-109004179D01*
X187405055Y-108986750D01*
X187511343Y-108993129D01*
X187676300Y-109088368D01*
X187734969Y-109177226D01*
X187752399Y-109242275D01*
X187746019Y-109348563D01*
X187722210Y-109389802D01*
X187633352Y-109448471D01*
X187568303Y-109465901D01*
X187462015Y-109459521D01*
X187297057Y-109364283D01*
X187190769Y-109357903D01*
X187125720Y-109375333D01*
X187036862Y-109434002D01*
X186941624Y-109598960D01*
X186935244Y-109705248D01*
X186952674Y-109770296D01*
X187011343Y-109859155D01*
X187176300Y-109954393D01*
X187282588Y-109960773D01*
X187347637Y-109943343D01*
X187436496Y-109884674D01*
X187531734Y-109719717D01*
X187538113Y-109613428D01*
X187520684Y-109548380D01*
X187462015Y-109459521D01*
X199096333Y-89727380D02*
X198763000Y-89251190D01*
X198524904Y-89727380D02*
X198524904Y-88727380D01*
X198905857Y-88727380D01*
X199001095Y-88775000D01*
X199048714Y-88822619D01*
X199096333Y-88917857D01*
X199096333Y-89060714D01*
X199048714Y-89155952D01*
X199001095Y-89203571D01*
X198905857Y-89251190D01*
X198524904Y-89251190D01*
X199429666Y-88727380D02*
X200096333Y-88727380D01*
X199667761Y-89727380D01*
X188939471Y-91198440D02*
X188888892Y-90619380D01*
X188444600Y-90912725D02*
X188944600Y-90046700D01*
X189274514Y-90237176D01*
X189333183Y-90326034D01*
X189350613Y-90391083D01*
X189344233Y-90497371D01*
X189272805Y-90621089D01*
X189183946Y-90679758D01*
X189118898Y-90697188D01*
X189012609Y-90690808D01*
X188682695Y-90500332D01*
X190181779Y-90760986D02*
X190016822Y-90665747D01*
X189910534Y-90659368D01*
X189845485Y-90676798D01*
X189691578Y-90752896D01*
X189555100Y-90894044D01*
X189364624Y-91223959D01*
X189358244Y-91330247D01*
X189375674Y-91395295D01*
X189434343Y-91484154D01*
X189599300Y-91579392D01*
X189705588Y-91585772D01*
X189770637Y-91568342D01*
X189859496Y-91509673D01*
X189978543Y-91303476D01*
X189984923Y-91197188D01*
X189967493Y-91132139D01*
X189908824Y-91043281D01*
X189743867Y-90948043D01*
X189637579Y-90941663D01*
X189572530Y-90959093D01*
X189483672Y-91017762D01*
X197683380Y-89320666D02*
X197207190Y-89654000D01*
X197683380Y-89892095D02*
X196683380Y-89892095D01*
X196683380Y-89511142D01*
X196731000Y-89415904D01*
X196778619Y-89368285D01*
X196873857Y-89320666D01*
X197016714Y-89320666D01*
X197111952Y-89368285D01*
X197159571Y-89415904D01*
X197207190Y-89511142D01*
X197207190Y-89892095D01*
X196683380Y-88415904D02*
X196683380Y-88892095D01*
X197159571Y-88939714D01*
X197111952Y-88892095D01*
X197064333Y-88796857D01*
X197064333Y-88558761D01*
X197111952Y-88463523D01*
X197159571Y-88415904D01*
X197254809Y-88368285D01*
X197492904Y-88368285D01*
X197588142Y-88415904D01*
X197635761Y-88463523D01*
X197683380Y-88558761D01*
X197683380Y-88796857D01*
X197635761Y-88892095D01*
X197588142Y-88939714D01*
X189351852Y-104895106D02*
X188825082Y-104649380D01*
X188856981Y-105180821D02*
X188356981Y-104314795D01*
X188686895Y-104124319D01*
X188793183Y-104117939D01*
X188858232Y-104135369D01*
X188947091Y-104194038D01*
X189018519Y-104317756D01*
X189024899Y-104424044D01*
X189007469Y-104489093D01*
X188948800Y-104577951D01*
X188618886Y-104768427D01*
X189760827Y-103889185D02*
X190094160Y-104466535D01*
X189364154Y-103678318D02*
X189515100Y-104415955D01*
X190051211Y-104106431D01*
X198121852Y-91485106D02*
X197595082Y-91239380D01*
X197626981Y-91770821D02*
X197126981Y-90904795D01*
X197456895Y-90714319D01*
X197563183Y-90707939D01*
X197628232Y-90725369D01*
X197717091Y-90784038D01*
X197788519Y-90907756D01*
X197794899Y-91014044D01*
X197777469Y-91079093D01*
X197718800Y-91167951D01*
X197388886Y-91358427D01*
X197910528Y-90452414D02*
X198446639Y-90142890D01*
X198348440Y-90639471D01*
X198472157Y-90568043D01*
X198578446Y-90561663D01*
X198643494Y-90579093D01*
X198732353Y-90637762D01*
X198851400Y-90843959D01*
X198857780Y-90950247D01*
X198840350Y-91015295D01*
X198781681Y-91104154D01*
X198534245Y-91247011D01*
X198427957Y-91253391D01*
X198362908Y-91235961D01*
X198633902Y-100750528D02*
X198054842Y-100801107D01*
X198348187Y-101245399D02*
X197482162Y-100745399D01*
X197672638Y-100415485D01*
X197761496Y-100356816D01*
X197826545Y-100339386D01*
X197932833Y-100345766D01*
X198056551Y-100417194D01*
X198115220Y-100506053D01*
X198132650Y-100571101D01*
X198126270Y-100677390D01*
X197935794Y-101007304D01*
X198040831Y-99968232D02*
X198023401Y-99903183D01*
X198029781Y-99796895D01*
X198148829Y-99590699D01*
X198237687Y-99532030D01*
X198302736Y-99514600D01*
X198409024Y-99520980D01*
X198491502Y-99568599D01*
X198591411Y-99681266D01*
X198800568Y-100461852D01*
X199110092Y-99925741D01*
X190952380Y-105957666D02*
X190476190Y-106291000D01*
X190952380Y-106529095D02*
X189952380Y-106529095D01*
X189952380Y-106148142D01*
X190000000Y-106052904D01*
X190047619Y-106005285D01*
X190142857Y-105957666D01*
X190285714Y-105957666D01*
X190380952Y-106005285D01*
X190428571Y-106052904D01*
X190476190Y-106148142D01*
X190476190Y-106529095D01*
X190952380Y-105005285D02*
X190952380Y-105576714D01*
X190952380Y-105291000D02*
X189952380Y-105291000D01*
X190095238Y-105386238D01*
X190190476Y-105481476D01*
X190238095Y-105576714D01*
X179668630Y-112171336D02*
X179716249Y-112218955D01*
X179763868Y-112361812D01*
X179763868Y-112457050D01*
X179716249Y-112599908D01*
X179621011Y-112695146D01*
X179525773Y-112742765D01*
X179335297Y-112790384D01*
X179192440Y-112790384D01*
X179001964Y-112742765D01*
X178906726Y-112695146D01*
X178811488Y-112599908D01*
X178763868Y-112457050D01*
X178763868Y-112361812D01*
X178811488Y-112218955D01*
X178859107Y-112171336D01*
X178763868Y-111314193D02*
X178763868Y-111504670D01*
X178811488Y-111599908D01*
X178859107Y-111647527D01*
X179001964Y-111742765D01*
X179192440Y-111790384D01*
X179573392Y-111790384D01*
X179668630Y-111742765D01*
X179716249Y-111695146D01*
X179763868Y-111599908D01*
X179763868Y-111409431D01*
X179716249Y-111314193D01*
X179668630Y-111266574D01*
X179573392Y-111218955D01*
X179335297Y-111218955D01*
X179240059Y-111266574D01*
X179192440Y-111314193D01*
X179144821Y-111409431D01*
X179144821Y-111599908D01*
X179192440Y-111695146D01*
X179240059Y-111742765D01*
X179335297Y-111790384D01*
X186523333Y-88621142D02*
X186475714Y-88668761D01*
X186332857Y-88716380D01*
X186237619Y-88716380D01*
X186094761Y-88668761D01*
X185999523Y-88573523D01*
X185951904Y-88478285D01*
X185904285Y-88287809D01*
X185904285Y-88144952D01*
X185951904Y-87954476D01*
X185999523Y-87859238D01*
X186094761Y-87764000D01*
X186237619Y-87716380D01*
X186332857Y-87716380D01*
X186475714Y-87764000D01*
X186523333Y-87811619D01*
X187428095Y-87716380D02*
X186951904Y-87716380D01*
X186904285Y-88192571D01*
X186951904Y-88144952D01*
X187047142Y-88097333D01*
X187285238Y-88097333D01*
X187380476Y-88144952D01*
X187428095Y-88192571D01*
X187475714Y-88287809D01*
X187475714Y-88525904D01*
X187428095Y-88621142D01*
X187380476Y-88668761D01*
X187285238Y-88716380D01*
X187047142Y-88716380D01*
X186951904Y-88668761D01*
X186904285Y-88621142D01*
X196873857Y-112228333D02*
X196826238Y-112180714D01*
X196778619Y-112037857D01*
X196778619Y-111942619D01*
X196826238Y-111799761D01*
X196921476Y-111704523D01*
X197016714Y-111656904D01*
X197207190Y-111609285D01*
X197350047Y-111609285D01*
X197540523Y-111656904D01*
X197635761Y-111704523D01*
X197731000Y-111799761D01*
X197778619Y-111942619D01*
X197778619Y-112037857D01*
X197731000Y-112180714D01*
X197683380Y-112228333D01*
X197445285Y-113085476D02*
X196778619Y-113085476D01*
X197826238Y-112847380D02*
X197111952Y-112609285D01*
X197111952Y-113228333D01*
X207498751Y-88619273D02*
X207433703Y-88601844D01*
X207321035Y-88501935D01*
X207273416Y-88419457D01*
X207243226Y-88271929D01*
X207278086Y-88141831D01*
X207336755Y-88052973D01*
X207477903Y-87916496D01*
X207601621Y-87845067D01*
X207790387Y-87791068D01*
X207896675Y-87784689D01*
X208026773Y-87819548D01*
X208139441Y-87919457D01*
X208187060Y-88001935D01*
X208217249Y-88149463D01*
X208199820Y-88214511D01*
X208448965Y-88455568D02*
X208758489Y-88991679D01*
X208261908Y-88893480D01*
X208333336Y-89017197D01*
X208339716Y-89123486D01*
X208322286Y-89188534D01*
X208263617Y-89277393D01*
X208057420Y-89396440D01*
X207951132Y-89402820D01*
X207886084Y-89385390D01*
X207797225Y-89326721D01*
X207654368Y-89079285D01*
X207647988Y-88972997D01*
X207665418Y-88907948D01*
X209525142Y-102655666D02*
X209572761Y-102703285D01*
X209620380Y-102846142D01*
X209620380Y-102941380D01*
X209572761Y-103084238D01*
X209477523Y-103179476D01*
X209382285Y-103227095D01*
X209191809Y-103274714D01*
X209048952Y-103274714D01*
X208858476Y-103227095D01*
X208763238Y-103179476D01*
X208668000Y-103084238D01*
X208620380Y-102941380D01*
X208620380Y-102846142D01*
X208668000Y-102703285D01*
X208715619Y-102655666D01*
X208715619Y-102274714D02*
X208668000Y-102227095D01*
X208620380Y-102131857D01*
X208620380Y-101893761D01*
X208668000Y-101798523D01*
X208715619Y-101750904D01*
X208810857Y-101703285D01*
X208906095Y-101703285D01*
X209048952Y-101750904D01*
X209620380Y-102322333D01*
X209620380Y-101703285D01*
X198476142Y-109513666D02*
X198523761Y-109561285D01*
X198571380Y-109704142D01*
X198571380Y-109799380D01*
X198523761Y-109942238D01*
X198428523Y-110037476D01*
X198333285Y-110085095D01*
X198142809Y-110132714D01*
X197999952Y-110132714D01*
X197809476Y-110085095D01*
X197714238Y-110037476D01*
X197619000Y-109942238D01*
X197571380Y-109799380D01*
X197571380Y-109704142D01*
X197619000Y-109561285D01*
X197666619Y-109513666D01*
X198571380Y-108561285D02*
X198571380Y-109132714D01*
X198571380Y-108847000D02*
X197571380Y-108847000D01*
X197714238Y-108942238D01*
X197809476Y-109037476D01*
X197857095Y-109132714D01*
M02*
