M48
; DRILL file {KiCad (5.1.10)-1} date 02/25/22 15:44:09
; FORMAT={-:-/ absolute / inch / decimal}
; #@! TF.CreationDate,2022-02-25T15:44:09+01:00
; #@! TF.GenerationSoftware,Kicad,Pcbnew,(5.1.10)-1
; #@! TF.FileFunction,Plated,1,2,PTH
FMAT,2
INCH
T1C0.0157
T2C0.0866
%
G90
G05
T1
X7.005Y-3.63
X7.04Y-3.63
X7.075Y-3.63
X7.1Y-4.145
X7.105Y-3.94
X7.105Y-4.295
X7.125Y-4.33
X7.1635Y-4.145
X7.185Y-3.94
X7.19Y-4.255
X7.22Y-4.285
X7.285Y-4.155
X7.3Y-3.475
X7.3451Y-3.8599
X7.375Y-4.355
X7.4Y-4.675
X7.405Y-4.385
X7.425Y-4.33
X7.43Y-4.415
X7.438Y-4.639
X7.44Y-4.675
X7.4525Y-4.3575
X7.475Y-4.38
X7.48Y-4.675
X7.485Y-4.075
X7.5159Y-4.5357
X7.52Y-4.265
X7.615Y-4.16
X7.769Y-4.31
X7.802Y-4.3955
X7.817Y-4.1937
X7.8221Y-4.445
X7.855Y-3.56
X7.912Y-3.271
X7.915Y-4.26
X7.915Y-4.31
X7.92Y-4.36
X7.93Y-3.885
X8.02Y-3.98
X8.02Y-4.495
X8.055Y-3.67
X8.0775Y-3.9485
X8.09Y-3.535
X8.0972Y-3.7572
X8.145Y-4.56
X8.17Y-4.125
X8.1715Y-3.51
X8.2137Y-3.4661
T2
X6.9951Y-4.3962
X6.996Y-3.2151
X8.253Y-3.2151
X8.253Y-4.3962
T0
M30
