G04 #@! TF.GenerationSoftware,KiCad,Pcbnew,(5.1.10)-1*
G04 #@! TF.CreationDate,2022-02-25T15:53:37+01:00*
G04 #@! TF.ProjectId,led_defogger_PCB_with_UV_2022,6c65645f-6465-4666-9f67-6765725f5043,rev?*
G04 #@! TF.SameCoordinates,Original*
G04 #@! TF.FileFunction,Soldermask,Top*
G04 #@! TF.FilePolarity,Negative*
%FSLAX46Y46*%
G04 Gerber Fmt 4.6, Leading zero omitted, Abs format (unit mm)*
G04 Created by KiCad (PCBNEW (5.1.10)-1) date 2022-02-25 15:53:37*
%MOMM*%
%LPD*%
G01*
G04 APERTURE LIST*
%ADD10R,1.525000X0.700000*%
%ADD11R,0.690000X3.100000*%
%ADD12R,0.530000X1.400000*%
%ADD13R,0.700000X1.525000*%
%ADD14R,2.300000X1.800000*%
%ADD15C,3.800000*%
%ADD16C,0.100000*%
G04 APERTURE END LIST*
D10*
X205099200Y-108178600D03*
X205099200Y-109448600D03*
X205099200Y-110718600D03*
X205099200Y-111988600D03*
X199675200Y-111988600D03*
X199675200Y-110718600D03*
X199675200Y-109448600D03*
X199675200Y-108178600D03*
D11*
X181737000Y-97586800D03*
D12*
X183022000Y-98436800D03*
X180452000Y-98436800D03*
X183022000Y-96736800D03*
X180452000Y-96736800D03*
D11*
X205613000Y-97536000D03*
D12*
X206898000Y-98386000D03*
X204328000Y-98386000D03*
X206898000Y-96686000D03*
X204328000Y-96686000D03*
D13*
X176524000Y-101431000D03*
X177794000Y-101431000D03*
X179064000Y-101431000D03*
X180334000Y-101431000D03*
X180334000Y-106855000D03*
X179064000Y-106855000D03*
X177794000Y-106855000D03*
X176524000Y-106855000D03*
D14*
X178816000Y-90731000D03*
X178816000Y-87831000D03*
D15*
X209626007Y-81663000D03*
X177675000Y-111663000D03*
X177699385Y-81663000D03*
X209626007Y-111663000D03*
G36*
G01*
X178171000Y-96636000D02*
X176921000Y-96636000D01*
G75*
G02*
X176671000Y-96386000I0J250000D01*
G01*
X176671000Y-95586000D01*
G75*
G02*
X176921000Y-95336000I250000J0D01*
G01*
X178171000Y-95336000D01*
G75*
G02*
X178421000Y-95586000I0J-250000D01*
G01*
X178421000Y-96386000D01*
G75*
G02*
X178171000Y-96636000I-250000J0D01*
G01*
G37*
G36*
G01*
X178171000Y-99736000D02*
X176921000Y-99736000D01*
G75*
G02*
X176671000Y-99486000I0J250000D01*
G01*
X176671000Y-98686000D01*
G75*
G02*
X176921000Y-98436000I250000J0D01*
G01*
X178171000Y-98436000D01*
G75*
G02*
X178421000Y-98686000I0J-250000D01*
G01*
X178421000Y-99486000D01*
G75*
G02*
X178171000Y-99736000I-250000J0D01*
G01*
G37*
G36*
G01*
X209815000Y-94160500D02*
X209815000Y-92910500D01*
G75*
G02*
X210065000Y-92660500I250000J0D01*
G01*
X210865000Y-92660500D01*
G75*
G02*
X211115000Y-92910500I0J-250000D01*
G01*
X211115000Y-94160500D01*
G75*
G02*
X210865000Y-94410500I-250000J0D01*
G01*
X210065000Y-94410500D01*
G75*
G02*
X209815000Y-94160500I0J250000D01*
G01*
G37*
G36*
G01*
X206715000Y-94160500D02*
X206715000Y-92910500D01*
G75*
G02*
X206965000Y-92660500I250000J0D01*
G01*
X207765000Y-92660500D01*
G75*
G02*
X208015000Y-92910500I0J-250000D01*
G01*
X208015000Y-94160500D01*
G75*
G02*
X207765000Y-94410500I-250000J0D01*
G01*
X206965000Y-94410500D01*
G75*
G02*
X206715000Y-94160500I0J250000D01*
G01*
G37*
G36*
G01*
X182846788Y-105007388D02*
X183626213Y-104557387D01*
G75*
G02*
X183967717Y-104648892I124999J-216505D01*
G01*
X184292718Y-105211811D01*
G75*
G02*
X184201213Y-105553316I-216505J-125000D01*
G01*
X183421788Y-106003317D01*
G75*
G02*
X183080283Y-105911811I-125000J216505D01*
G01*
X182755282Y-105348892D01*
G75*
G02*
X182846788Y-105007388I216505J124999D01*
G01*
G37*
G36*
G01*
X181821788Y-103232036D02*
X182601213Y-102782035D01*
G75*
G02*
X182942717Y-102873540I124999J-216505D01*
G01*
X183267718Y-103436459D01*
G75*
G02*
X183176213Y-103777964I-216505J-125000D01*
G01*
X182396788Y-104227965D01*
G75*
G02*
X182055283Y-104136459I-125000J216505D01*
G01*
X181730282Y-103573540D01*
G75*
G02*
X181821788Y-103232036I216505J124999D01*
G01*
G37*
G36*
G01*
X183621713Y-91021289D02*
X182842287Y-90571288D01*
G75*
G02*
X182750782Y-90229784I125000J216505D01*
G01*
X183075783Y-89666865D01*
G75*
G02*
X183417288Y-89575359I216505J-124999D01*
G01*
X184196713Y-90025360D01*
G75*
G02*
X184288218Y-90366864I-125000J-216505D01*
G01*
X183963217Y-90929783D01*
G75*
G02*
X183621713Y-91021289I-216505J124999D01*
G01*
G37*
G36*
G01*
X182596713Y-92796641D02*
X181817287Y-92346640D01*
G75*
G02*
X181725782Y-92005136I125000J216505D01*
G01*
X182050783Y-91442217D01*
G75*
G02*
X182392288Y-91350711I216505J-124999D01*
G01*
X183171713Y-91800712D01*
G75*
G02*
X183263218Y-92142216I-125000J-216505D01*
G01*
X182938217Y-92705135D01*
G75*
G02*
X182596713Y-92796641I-216505J124999D01*
G01*
G37*
G36*
G01*
X194506000Y-85540001D02*
X194506000Y-84639999D01*
G75*
G02*
X194755999Y-84390000I249999J0D01*
G01*
X195406001Y-84390000D01*
G75*
G02*
X195656000Y-84639999I0J-249999D01*
G01*
X195656000Y-85540001D01*
G75*
G02*
X195406001Y-85790000I-249999J0D01*
G01*
X194755999Y-85790000D01*
G75*
G02*
X194506000Y-85540001I0J249999D01*
G01*
G37*
G36*
G01*
X192456000Y-85540001D02*
X192456000Y-84639999D01*
G75*
G02*
X192705999Y-84390000I249999J0D01*
G01*
X193356001Y-84390000D01*
G75*
G02*
X193606000Y-84639999I0J-249999D01*
G01*
X193606000Y-85540001D01*
G75*
G02*
X193356001Y-85790000I-249999J0D01*
G01*
X192705999Y-85790000D01*
G75*
G02*
X192456000Y-85540001I0J249999D01*
G01*
G37*
G36*
G01*
X204432288Y-90911712D02*
X205211713Y-90461711D01*
G75*
G02*
X205553217Y-90553216I124999J-216505D01*
G01*
X205878218Y-91116135D01*
G75*
G02*
X205786713Y-91457640I-216505J-125000D01*
G01*
X205007288Y-91907641D01*
G75*
G02*
X204665783Y-91816135I-125000J216505D01*
G01*
X204340782Y-91253216D01*
G75*
G02*
X204432288Y-90911712I216505J124999D01*
G01*
G37*
G36*
G01*
X203407288Y-89136360D02*
X204186713Y-88686359D01*
G75*
G02*
X204528217Y-88777864I124999J-216505D01*
G01*
X204853218Y-89340783D01*
G75*
G02*
X204761713Y-89682288I-216505J-125000D01*
G01*
X203982288Y-90132289D01*
G75*
G02*
X203640783Y-90040783I-125000J216505D01*
G01*
X203315782Y-89477864D01*
G75*
G02*
X203407288Y-89136360I216505J124999D01*
G01*
G37*
G36*
G01*
X203982288Y-104558711D02*
X204761713Y-105008712D01*
G75*
G02*
X204853218Y-105350216I-125000J-216505D01*
G01*
X204528217Y-105913135D01*
G75*
G02*
X204186712Y-106004641I-216505J124999D01*
G01*
X203407287Y-105554640D01*
G75*
G02*
X203315782Y-105213136I125000J216505D01*
G01*
X203640783Y-104650217D01*
G75*
G02*
X203982288Y-104558711I216505J-124999D01*
G01*
G37*
G36*
G01*
X205007288Y-102783359D02*
X205786713Y-103233360D01*
G75*
G02*
X205878218Y-103574864I-125000J-216505D01*
G01*
X205553217Y-104137783D01*
G75*
G02*
X205211712Y-104229289I-216505J124999D01*
G01*
X204432287Y-103779288D01*
G75*
G02*
X204340782Y-103437784I125000J216505D01*
G01*
X204665783Y-102874865D01*
G75*
G02*
X205007288Y-102783359I216505J-124999D01*
G01*
G37*
G36*
G01*
X192980000Y-109785999D02*
X192980000Y-110686001D01*
G75*
G02*
X192730001Y-110936000I-249999J0D01*
G01*
X192079999Y-110936000D01*
G75*
G02*
X191830000Y-110686001I0J249999D01*
G01*
X191830000Y-109785999D01*
G75*
G02*
X192079999Y-109536000I249999J0D01*
G01*
X192730001Y-109536000D01*
G75*
G02*
X192980000Y-109785999I0J-249999D01*
G01*
G37*
G36*
G01*
X195030000Y-109785999D02*
X195030000Y-110686001D01*
G75*
G02*
X194780001Y-110936000I-249999J0D01*
G01*
X194129999Y-110936000D01*
G75*
G02*
X193880000Y-110686001I0J249999D01*
G01*
X193880000Y-109785999D01*
G75*
G02*
X194129999Y-109536000I249999J0D01*
G01*
X194780001Y-109536000D01*
G75*
G02*
X195030000Y-109785999I0J-249999D01*
G01*
G37*
G36*
G01*
X205682001Y-114434200D02*
X204781999Y-114434200D01*
G75*
G02*
X204532000Y-114184201I0J249999D01*
G01*
X204532000Y-113534199D01*
G75*
G02*
X204781999Y-113284200I249999J0D01*
G01*
X205682001Y-113284200D01*
G75*
G02*
X205932000Y-113534199I0J-249999D01*
G01*
X205932000Y-114184201D01*
G75*
G02*
X205682001Y-114434200I-249999J0D01*
G01*
G37*
G36*
G01*
X205682001Y-116484200D02*
X204781999Y-116484200D01*
G75*
G02*
X204532000Y-116234201I0J249999D01*
G01*
X204532000Y-115584199D01*
G75*
G02*
X204781999Y-115334200I249999J0D01*
G01*
X205682001Y-115334200D01*
G75*
G02*
X205932000Y-115584199I0J-249999D01*
G01*
X205932000Y-116234201D01*
G75*
G02*
X205682001Y-116484200I-249999J0D01*
G01*
G37*
G36*
G01*
X184627319Y-103799859D02*
X185038681Y-103562359D01*
G75*
G02*
X185363112Y-103649290I118750J-205681D01*
G01*
X185650612Y-104147254D01*
G75*
G02*
X185563681Y-104471685I-205681J-118750D01*
G01*
X185152319Y-104709185D01*
G75*
G02*
X184827888Y-104622254I-118750J205681D01*
G01*
X184540388Y-104124290D01*
G75*
G02*
X184627319Y-103799859I205681J118750D01*
G01*
G37*
G36*
G01*
X183752319Y-102284315D02*
X184163681Y-102046815D01*
G75*
G02*
X184488112Y-102133746I118750J-205681D01*
G01*
X184775612Y-102631710D01*
G75*
G02*
X184688681Y-102956141I-205681J-118750D01*
G01*
X184277319Y-103193641D01*
G75*
G02*
X183952888Y-103106710I-118750J205681D01*
G01*
X183665388Y-102608746D01*
G75*
G02*
X183752319Y-102284315I205681J118750D01*
G01*
G37*
G36*
G01*
X184347819Y-92382131D02*
X184759181Y-92619631D01*
G75*
G02*
X184846112Y-92944062I-118750J-205681D01*
G01*
X184558612Y-93442026D01*
G75*
G02*
X184234181Y-93528957I-205681J118750D01*
G01*
X183822819Y-93291457D01*
G75*
G02*
X183735888Y-92967026I118750J205681D01*
G01*
X184023388Y-92469062D01*
G75*
G02*
X184347819Y-92382131I205681J-118750D01*
G01*
G37*
G36*
G01*
X185222819Y-90866587D02*
X185634181Y-91104087D01*
G75*
G02*
X185721112Y-91428518I-118750J-205681D01*
G01*
X185433612Y-91926482D01*
G75*
G02*
X185109181Y-92013413I-205681J118750D01*
G01*
X184697819Y-91775913D01*
G75*
G02*
X184610888Y-91451482I118750J205681D01*
G01*
X184898388Y-90953518D01*
G75*
G02*
X185222819Y-90866587I205681J-118750D01*
G01*
G37*
G36*
G01*
X193706000Y-86757500D02*
X193706000Y-87232500D01*
G75*
G02*
X193468500Y-87470000I-237500J0D01*
G01*
X192893500Y-87470000D01*
G75*
G02*
X192656000Y-87232500I0J237500D01*
G01*
X192656000Y-86757500D01*
G75*
G02*
X192893500Y-86520000I237500J0D01*
G01*
X193468500Y-86520000D01*
G75*
G02*
X193706000Y-86757500I0J-237500D01*
G01*
G37*
G36*
G01*
X195456000Y-86757500D02*
X195456000Y-87232500D01*
G75*
G02*
X195218500Y-87470000I-237500J0D01*
G01*
X194643500Y-87470000D01*
G75*
G02*
X194406000Y-87232500I0J237500D01*
G01*
X194406000Y-86757500D01*
G75*
G02*
X194643500Y-86520000I237500J0D01*
G01*
X195218500Y-86520000D01*
G75*
G02*
X195456000Y-86757500I0J-237500D01*
G01*
G37*
G36*
G01*
X203047181Y-91149369D02*
X202635819Y-91386869D01*
G75*
G02*
X202311388Y-91299938I-118750J205681D01*
G01*
X202023888Y-90801974D01*
G75*
G02*
X202110819Y-90477543I205681J118750D01*
G01*
X202522181Y-90240043D01*
G75*
G02*
X202846612Y-90326974I118750J-205681D01*
G01*
X203134112Y-90824938D01*
G75*
G02*
X203047181Y-91149369I-205681J-118750D01*
G01*
G37*
G36*
G01*
X203922181Y-92664913D02*
X203510819Y-92902413D01*
G75*
G02*
X203186388Y-92815482I-118750J205681D01*
G01*
X202898888Y-92317518D01*
G75*
G02*
X202985819Y-91993087I205681J118750D01*
G01*
X203397181Y-91755587D01*
G75*
G02*
X203721612Y-91842518I118750J-205681D01*
G01*
X204009112Y-92340482D01*
G75*
G02*
X203922181Y-92664913I-205681J-118750D01*
G01*
G37*
G36*
G01*
X203326681Y-103066641D02*
X202915319Y-102829141D01*
G75*
G02*
X202828388Y-102504710I118750J205681D01*
G01*
X203115888Y-102006746D01*
G75*
G02*
X203440319Y-101919815I205681J-118750D01*
G01*
X203851681Y-102157315D01*
G75*
G02*
X203938612Y-102481746I-118750J-205681D01*
G01*
X203651112Y-102979710D01*
G75*
G02*
X203326681Y-103066641I-205681J118750D01*
G01*
G37*
G36*
G01*
X202451681Y-104582185D02*
X202040319Y-104344685D01*
G75*
G02*
X201953388Y-104020254I118750J205681D01*
G01*
X202240888Y-103522290D01*
G75*
G02*
X202565319Y-103435359I205681J-118750D01*
G01*
X202976681Y-103672859D01*
G75*
G02*
X203063612Y-103997290I-118750J-205681D01*
G01*
X202776112Y-104495254D01*
G75*
G02*
X202451681Y-104582185I-205681J118750D01*
G01*
G37*
G36*
G01*
X193771000Y-108568500D02*
X193771000Y-108093500D01*
G75*
G02*
X194008500Y-107856000I237500J0D01*
G01*
X194583500Y-107856000D01*
G75*
G02*
X194821000Y-108093500I0J-237500D01*
G01*
X194821000Y-108568500D01*
G75*
G02*
X194583500Y-108806000I-237500J0D01*
G01*
X194008500Y-108806000D01*
G75*
G02*
X193771000Y-108568500I0J237500D01*
G01*
G37*
G36*
G01*
X192021000Y-108568500D02*
X192021000Y-108093500D01*
G75*
G02*
X192258500Y-107856000I237500J0D01*
G01*
X192833500Y-107856000D01*
G75*
G02*
X193071000Y-108093500I0J-237500D01*
G01*
X193071000Y-108568500D01*
G75*
G02*
X192833500Y-108806000I-237500J0D01*
G01*
X192258500Y-108806000D01*
G75*
G02*
X192021000Y-108568500I0J237500D01*
G01*
G37*
G36*
G01*
X188220670Y-108633477D02*
X189295670Y-106771523D01*
G75*
G02*
X189637176Y-106680017I216506J-125000D01*
G01*
X190438250Y-107142517D01*
G75*
G02*
X190529756Y-107484023I-125000J-216506D01*
G01*
X189454756Y-109345977D01*
G75*
G02*
X189113250Y-109437483I-216506J125000D01*
G01*
X188312176Y-108974983D01*
G75*
G02*
X188220670Y-108633477I125000J216506D01*
G01*
G37*
G36*
G01*
X185644244Y-107145977D02*
X186719244Y-105284023D01*
G75*
G02*
X187060750Y-105192517I216506J-125000D01*
G01*
X187861824Y-105655017D01*
G75*
G02*
X187953330Y-105996523I-125000J-216506D01*
G01*
X186878330Y-107858477D01*
G75*
G02*
X186536824Y-107949983I-216506J125000D01*
G01*
X185735750Y-107487483D01*
G75*
G02*
X185644244Y-107145977I125000J216506D01*
G01*
G37*
G36*
G01*
X198488000Y-85920000D02*
X198488000Y-88070000D01*
G75*
G02*
X198238000Y-88320000I-250000J0D01*
G01*
X197313000Y-88320000D01*
G75*
G02*
X197063000Y-88070000I0J250000D01*
G01*
X197063000Y-85920000D01*
G75*
G02*
X197313000Y-85670000I250000J0D01*
G01*
X198238000Y-85670000D01*
G75*
G02*
X198488000Y-85920000I0J-250000D01*
G01*
G37*
G36*
G01*
X201463000Y-85920000D02*
X201463000Y-88070000D01*
G75*
G02*
X201213000Y-88320000I-250000J0D01*
G01*
X200288000Y-88320000D01*
G75*
G02*
X200038000Y-88070000I0J250000D01*
G01*
X200038000Y-85920000D01*
G75*
G02*
X200288000Y-85670000I250000J0D01*
G01*
X201213000Y-85670000D01*
G75*
G02*
X201463000Y-85920000I0J-250000D01*
G01*
G37*
G36*
G01*
X185991523Y-93743670D02*
X187853477Y-94818670D01*
G75*
G02*
X187944983Y-95160176I-125000J-216506D01*
G01*
X187482483Y-95961250D01*
G75*
G02*
X187140977Y-96052756I-216506J125000D01*
G01*
X185279023Y-94977756D01*
G75*
G02*
X185187517Y-94636250I125000J216506D01*
G01*
X185650017Y-93835176D01*
G75*
G02*
X185991523Y-93743670I216506J-125000D01*
G01*
G37*
G36*
G01*
X187479023Y-91167244D02*
X189340977Y-92242244D01*
G75*
G02*
X189432483Y-92583750I-125000J-216506D01*
G01*
X188969983Y-93384824D01*
G75*
G02*
X188628477Y-93476330I-216506J125000D01*
G01*
X186766523Y-92401330D01*
G75*
G02*
X186675017Y-92059824I125000J216506D01*
G01*
X187137517Y-91258750D01*
G75*
G02*
X187479023Y-91167244I216506J-125000D01*
G01*
G37*
G36*
G01*
X194565000Y-91065000D02*
X194565000Y-88915000D01*
G75*
G02*
X194815000Y-88665000I250000J0D01*
G01*
X195740000Y-88665000D01*
G75*
G02*
X195990000Y-88915000I0J-250000D01*
G01*
X195990000Y-91065000D01*
G75*
G02*
X195740000Y-91315000I-250000J0D01*
G01*
X194815000Y-91315000D01*
G75*
G02*
X194565000Y-91065000I0J250000D01*
G01*
G37*
G36*
G01*
X191590000Y-91065000D02*
X191590000Y-88915000D01*
G75*
G02*
X191840000Y-88665000I250000J0D01*
G01*
X192765000Y-88665000D01*
G75*
G02*
X193015000Y-88915000I0J-250000D01*
G01*
X193015000Y-91065000D01*
G75*
G02*
X192765000Y-91315000I-250000J0D01*
G01*
X191840000Y-91315000D01*
G75*
G02*
X191590000Y-91065000I0J250000D01*
G01*
G37*
G36*
G01*
X186716523Y-102978670D02*
X188578477Y-101903670D01*
G75*
G02*
X188919983Y-101995176I125000J-216506D01*
G01*
X189382483Y-102796250D01*
G75*
G02*
X189290977Y-103137756I-216506J-125000D01*
G01*
X187429023Y-104212756D01*
G75*
G02*
X187087517Y-104121250I-125000J216506D01*
G01*
X186625017Y-103320176D01*
G75*
G02*
X186716523Y-102978670I216506J125000D01*
G01*
G37*
G36*
G01*
X185229023Y-100402244D02*
X187090977Y-99327244D01*
G75*
G02*
X187432483Y-99418750I125000J-216506D01*
G01*
X187894983Y-100219824D01*
G75*
G02*
X187803477Y-100561330I-216506J-125000D01*
G01*
X185941523Y-101636330D01*
G75*
G02*
X185600017Y-101544824I-125000J216506D01*
G01*
X185137517Y-100743750D01*
G75*
G02*
X185229023Y-100402244I216506J125000D01*
G01*
G37*
G36*
G01*
X200663477Y-92171330D02*
X198801523Y-93246330D01*
G75*
G02*
X198460017Y-93154824I-125000J216506D01*
G01*
X197997517Y-92353750D01*
G75*
G02*
X198089023Y-92012244I216506J125000D01*
G01*
X199950977Y-90937244D01*
G75*
G02*
X200292483Y-91028750I125000J-216506D01*
G01*
X200754983Y-91829824D01*
G75*
G02*
X200663477Y-92171330I-216506J-125000D01*
G01*
G37*
G36*
G01*
X202150977Y-94747756D02*
X200289023Y-95822756D01*
G75*
G02*
X199947517Y-95731250I-125000J216506D01*
G01*
X199485017Y-94930176D01*
G75*
G02*
X199576523Y-94588670I216506J125000D01*
G01*
X201438477Y-93513670D01*
G75*
G02*
X201779983Y-93605176I125000J-216506D01*
G01*
X202242483Y-94406250D01*
G75*
G02*
X202150977Y-94747756I-216506J-125000D01*
G01*
G37*
G36*
G01*
X201618477Y-101386330D02*
X199756523Y-100311330D01*
G75*
G02*
X199665017Y-99969824I125000J216506D01*
G01*
X200127517Y-99168750D01*
G75*
G02*
X200469023Y-99077244I216506J-125000D01*
G01*
X202330977Y-100152244D01*
G75*
G02*
X202422483Y-100493750I-125000J-216506D01*
G01*
X201959983Y-101294824D01*
G75*
G02*
X201618477Y-101386330I-216506J125000D01*
G01*
G37*
G36*
G01*
X200130977Y-103962756D02*
X198269023Y-102887756D01*
G75*
G02*
X198177517Y-102546250I125000J216506D01*
G01*
X198640017Y-101745176D01*
G75*
G02*
X198981523Y-101653670I216506J-125000D01*
G01*
X200843477Y-102728670D01*
G75*
G02*
X200934983Y-103070176I-125000J-216506D01*
G01*
X200472483Y-103871250D01*
G75*
G02*
X200130977Y-103962756I-216506J125000D01*
G01*
G37*
G36*
G01*
X192895000Y-104295000D02*
X192895000Y-106445000D01*
G75*
G02*
X192645000Y-106695000I-250000J0D01*
G01*
X191720000Y-106695000D01*
G75*
G02*
X191470000Y-106445000I0J250000D01*
G01*
X191470000Y-104295000D01*
G75*
G02*
X191720000Y-104045000I250000J0D01*
G01*
X192645000Y-104045000D01*
G75*
G02*
X192895000Y-104295000I0J-250000D01*
G01*
G37*
G36*
G01*
X195870000Y-104295000D02*
X195870000Y-106445000D01*
G75*
G02*
X195620000Y-106695000I-250000J0D01*
G01*
X194695000Y-106695000D01*
G75*
G02*
X194445000Y-106445000I0J250000D01*
G01*
X194445000Y-104295000D01*
G75*
G02*
X194695000Y-104045000I250000J0D01*
G01*
X195620000Y-104045000D01*
G75*
G02*
X195870000Y-104295000I0J-250000D01*
G01*
G37*
G36*
G01*
X180601199Y-112667200D02*
X181501201Y-112667200D01*
G75*
G02*
X181751200Y-112917199I0J-249999D01*
G01*
X181751200Y-113567201D01*
G75*
G02*
X181501201Y-113817200I-249999J0D01*
G01*
X180601199Y-113817200D01*
G75*
G02*
X180351200Y-113567201I0J249999D01*
G01*
X180351200Y-112917199D01*
G75*
G02*
X180601199Y-112667200I249999J0D01*
G01*
G37*
G36*
G01*
X180601199Y-110617200D02*
X181501201Y-110617200D01*
G75*
G02*
X181751200Y-110867199I0J-249999D01*
G01*
X181751200Y-111517201D01*
G75*
G02*
X181501201Y-111767200I-249999J0D01*
G01*
X180601199Y-111767200D01*
G75*
G02*
X180351200Y-111517201I0J249999D01*
G01*
X180351200Y-110867199D01*
G75*
G02*
X180601199Y-110617200I249999J0D01*
G01*
G37*
G36*
G01*
X186240000Y-86163999D02*
X186240000Y-87064001D01*
G75*
G02*
X185990001Y-87314000I-249999J0D01*
G01*
X185339999Y-87314000D01*
G75*
G02*
X185090000Y-87064001I0J249999D01*
G01*
X185090000Y-86163999D01*
G75*
G02*
X185339999Y-85914000I249999J0D01*
G01*
X185990001Y-85914000D01*
G75*
G02*
X186240000Y-86163999I0J-249999D01*
G01*
G37*
G36*
G01*
X188290000Y-86163999D02*
X188290000Y-87064001D01*
G75*
G02*
X188040001Y-87314000I-249999J0D01*
G01*
X187389999Y-87314000D01*
G75*
G02*
X187140000Y-87064001I0J249999D01*
G01*
X187140000Y-86163999D01*
G75*
G02*
X187389999Y-85914000I249999J0D01*
G01*
X188040001Y-85914000D01*
G75*
G02*
X188290000Y-86163999I0J-249999D01*
G01*
G37*
G36*
G01*
X195141000Y-112972001D02*
X195141000Y-112071999D01*
G75*
G02*
X195390999Y-111822000I249999J0D01*
G01*
X196041001Y-111822000D01*
G75*
G02*
X196291000Y-112071999I0J-249999D01*
G01*
X196291000Y-112972001D01*
G75*
G02*
X196041001Y-113222000I-249999J0D01*
G01*
X195390999Y-113222000D01*
G75*
G02*
X195141000Y-112972001I0J249999D01*
G01*
G37*
G36*
G01*
X193091000Y-112972001D02*
X193091000Y-112071999D01*
G75*
G02*
X193340999Y-111822000I249999J0D01*
G01*
X193991001Y-111822000D01*
G75*
G02*
X194241000Y-112071999I0J-249999D01*
G01*
X194241000Y-112972001D01*
G75*
G02*
X193991001Y-113222000I-249999J0D01*
G01*
X193340999Y-113222000D01*
G75*
G02*
X193091000Y-112972001I0J249999D01*
G01*
G37*
G36*
G01*
X206539713Y-88666288D02*
X205760288Y-89116289D01*
G75*
G02*
X205418783Y-89024783I-125000J216505D01*
G01*
X205093782Y-88461864D01*
G75*
G02*
X205185288Y-88120360I216505J124999D01*
G01*
X205964713Y-87670359D01*
G75*
G02*
X206306217Y-87761865I124999J-216505D01*
G01*
X206631218Y-88324784D01*
G75*
G02*
X206539713Y-88666288I-216505J-124999D01*
G01*
G37*
G36*
G01*
X207564713Y-90441640D02*
X206785288Y-90891641D01*
G75*
G02*
X206443783Y-90800135I-125000J216505D01*
G01*
X206118782Y-90237216D01*
G75*
G02*
X206210288Y-89895712I216505J124999D01*
G01*
X206989713Y-89445711D01*
G75*
G02*
X207331217Y-89537217I124999J-216505D01*
G01*
X207656218Y-90100136D01*
G75*
G02*
X207564713Y-90441640I-216505J-124999D01*
G01*
G37*
G36*
G01*
X207067999Y-102939000D02*
X207968001Y-102939000D01*
G75*
G02*
X208218000Y-103188999I0J-249999D01*
G01*
X208218000Y-103839001D01*
G75*
G02*
X207968001Y-104089000I-249999J0D01*
G01*
X207067999Y-104089000D01*
G75*
G02*
X206818000Y-103839001I0J249999D01*
G01*
X206818000Y-103188999D01*
G75*
G02*
X207067999Y-102939000I249999J0D01*
G01*
G37*
G36*
G01*
X207067999Y-100889000D02*
X207968001Y-100889000D01*
G75*
G02*
X208218000Y-101138999I0J-249999D01*
G01*
X208218000Y-101789001D01*
G75*
G02*
X207968001Y-102039000I-249999J0D01*
G01*
X207067999Y-102039000D01*
G75*
G02*
X206818000Y-101789001I0J249999D01*
G01*
X206818000Y-101138999D01*
G75*
G02*
X207067999Y-100889000I249999J0D01*
G01*
G37*
G36*
G01*
X196018999Y-109797000D02*
X196919001Y-109797000D01*
G75*
G02*
X197169000Y-110046999I0J-249999D01*
G01*
X197169000Y-110697001D01*
G75*
G02*
X196919001Y-110947000I-249999J0D01*
G01*
X196018999Y-110947000D01*
G75*
G02*
X195769000Y-110697001I0J249999D01*
G01*
X195769000Y-110046999D01*
G75*
G02*
X196018999Y-109797000I249999J0D01*
G01*
G37*
G36*
G01*
X196018999Y-107747000D02*
X196919001Y-107747000D01*
G75*
G02*
X197169000Y-107996999I0J-249999D01*
G01*
X197169000Y-108647001D01*
G75*
G02*
X196919001Y-108897000I-249999J0D01*
G01*
X196018999Y-108897000D01*
G75*
G02*
X195769000Y-108647001I0J249999D01*
G01*
X195769000Y-107996999D01*
G75*
G02*
X196018999Y-107747000I249999J0D01*
G01*
G37*
D16*
G36*
X188222400Y-108632482D02*
G01*
X188222490Y-108634307D01*
X188202346Y-108678762D01*
X188191308Y-108726109D01*
X188189716Y-108774698D01*
X188197636Y-108822661D01*
X188214761Y-108868162D01*
X188240431Y-108909442D01*
X188273664Y-108944925D01*
X188313264Y-108973302D01*
X189114164Y-109435701D01*
X189158535Y-109455807D01*
X189205881Y-109466845D01*
X189254471Y-109468437D01*
X189302434Y-109460517D01*
X189347935Y-109443392D01*
X189389215Y-109417722D01*
X189424698Y-109384489D01*
X189453130Y-109344812D01*
X189454952Y-109343987D01*
X189456578Y-109345152D01*
X189456488Y-109346977D01*
X189418991Y-109411924D01*
X189418885Y-109412089D01*
X189396076Y-109443920D01*
X189395817Y-109444215D01*
X189371741Y-109466765D01*
X189371430Y-109467003D01*
X189343423Y-109484418D01*
X189343072Y-109484592D01*
X189312201Y-109496212D01*
X189311822Y-109496313D01*
X189279281Y-109501685D01*
X189278890Y-109501711D01*
X189245924Y-109500632D01*
X189245535Y-109500581D01*
X189213410Y-109493090D01*
X189213039Y-109492964D01*
X189177376Y-109476806D01*
X189177201Y-109476716D01*
X188246224Y-108939216D01*
X188246059Y-108939110D01*
X188214235Y-108916305D01*
X188213940Y-108916046D01*
X188191391Y-108891971D01*
X188191153Y-108891660D01*
X188173735Y-108863649D01*
X188173561Y-108863298D01*
X188161942Y-108832428D01*
X188161841Y-108832049D01*
X188156469Y-108799509D01*
X188156443Y-108799118D01*
X188157522Y-108766152D01*
X188157573Y-108765763D01*
X188165064Y-108733636D01*
X188165190Y-108733265D01*
X188181348Y-108697605D01*
X188181438Y-108697430D01*
X188218936Y-108632482D01*
X188220668Y-108631482D01*
X188222400Y-108632482D01*
G37*
G36*
X185645974Y-107144982D02*
G01*
X185646064Y-107146807D01*
X185625920Y-107191262D01*
X185614882Y-107238609D01*
X185613290Y-107287198D01*
X185621210Y-107335161D01*
X185638335Y-107380662D01*
X185664005Y-107421942D01*
X185697238Y-107457425D01*
X185736838Y-107485802D01*
X186537738Y-107948201D01*
X186582109Y-107968307D01*
X186629455Y-107979345D01*
X186678045Y-107980937D01*
X186726008Y-107973017D01*
X186771509Y-107955892D01*
X186812789Y-107930222D01*
X186848272Y-107896989D01*
X186876704Y-107857312D01*
X186878526Y-107856487D01*
X186880152Y-107857652D01*
X186880062Y-107859477D01*
X186842565Y-107924424D01*
X186842459Y-107924589D01*
X186819650Y-107956420D01*
X186819391Y-107956715D01*
X186795315Y-107979265D01*
X186795004Y-107979503D01*
X186766997Y-107996918D01*
X186766646Y-107997092D01*
X186735775Y-108008712D01*
X186735396Y-108008813D01*
X186702855Y-108014185D01*
X186702464Y-108014211D01*
X186669498Y-108013132D01*
X186669109Y-108013081D01*
X186636984Y-108005590D01*
X186636613Y-108005464D01*
X186600950Y-107989306D01*
X186600775Y-107989216D01*
X185669798Y-107451716D01*
X185669633Y-107451610D01*
X185637809Y-107428805D01*
X185637514Y-107428546D01*
X185614965Y-107404471D01*
X185614727Y-107404160D01*
X185597309Y-107376149D01*
X185597135Y-107375798D01*
X185585516Y-107344928D01*
X185585415Y-107344549D01*
X185580043Y-107312009D01*
X185580017Y-107311618D01*
X185581096Y-107278652D01*
X185581147Y-107278263D01*
X185588638Y-107246136D01*
X185588764Y-107245765D01*
X185604922Y-107210105D01*
X185605012Y-107209930D01*
X185642510Y-107144982D01*
X185644242Y-107143982D01*
X185645974Y-107144982D01*
G37*
G36*
X189504502Y-106616868D02*
G01*
X189504891Y-106616919D01*
X189537016Y-106624410D01*
X189537387Y-106624536D01*
X189573050Y-106640694D01*
X189573225Y-106640784D01*
X190504202Y-107178284D01*
X190504367Y-107178390D01*
X190536191Y-107201195D01*
X190536486Y-107201454D01*
X190559035Y-107225529D01*
X190559273Y-107225840D01*
X190576691Y-107253851D01*
X190576865Y-107254202D01*
X190588484Y-107285072D01*
X190588585Y-107285451D01*
X190593957Y-107317991D01*
X190593983Y-107318382D01*
X190592904Y-107351348D01*
X190592853Y-107351737D01*
X190585362Y-107383864D01*
X190585236Y-107384235D01*
X190569078Y-107419895D01*
X190568988Y-107420070D01*
X190531490Y-107485018D01*
X190529758Y-107486018D01*
X190528026Y-107485018D01*
X190527936Y-107483193D01*
X190548080Y-107438738D01*
X190559118Y-107391391D01*
X190560710Y-107342802D01*
X190552790Y-107294839D01*
X190535665Y-107249338D01*
X190509995Y-107208058D01*
X190476762Y-107172575D01*
X190437162Y-107144198D01*
X189636262Y-106681799D01*
X189591891Y-106661693D01*
X189544545Y-106650655D01*
X189495955Y-106649063D01*
X189447992Y-106656983D01*
X189402491Y-106674108D01*
X189361211Y-106699778D01*
X189325728Y-106733011D01*
X189297296Y-106772688D01*
X189295474Y-106773513D01*
X189293848Y-106772348D01*
X189293938Y-106770523D01*
X189331435Y-106705576D01*
X189331541Y-106705411D01*
X189354350Y-106673580D01*
X189354609Y-106673285D01*
X189378685Y-106650735D01*
X189378996Y-106650497D01*
X189407003Y-106633082D01*
X189407354Y-106632908D01*
X189438225Y-106621288D01*
X189438604Y-106621187D01*
X189471145Y-106615815D01*
X189471536Y-106615789D01*
X189504502Y-106616868D01*
G37*
G36*
X186928076Y-105129368D02*
G01*
X186928465Y-105129419D01*
X186960590Y-105136910D01*
X186960961Y-105137036D01*
X186996624Y-105153194D01*
X186996799Y-105153284D01*
X187927776Y-105690784D01*
X187927941Y-105690890D01*
X187959765Y-105713695D01*
X187960060Y-105713954D01*
X187982609Y-105738029D01*
X187982847Y-105738340D01*
X188000265Y-105766351D01*
X188000439Y-105766702D01*
X188012058Y-105797572D01*
X188012159Y-105797951D01*
X188017531Y-105830491D01*
X188017557Y-105830882D01*
X188016478Y-105863848D01*
X188016427Y-105864237D01*
X188008936Y-105896364D01*
X188008810Y-105896735D01*
X187992652Y-105932395D01*
X187992562Y-105932570D01*
X187955064Y-105997518D01*
X187953332Y-105998518D01*
X187951600Y-105997518D01*
X187951510Y-105995693D01*
X187971654Y-105951238D01*
X187982692Y-105903891D01*
X187984284Y-105855302D01*
X187976364Y-105807339D01*
X187959239Y-105761838D01*
X187933569Y-105720558D01*
X187900336Y-105685075D01*
X187860736Y-105656698D01*
X187059836Y-105194299D01*
X187015465Y-105174193D01*
X186968119Y-105163155D01*
X186919529Y-105161563D01*
X186871566Y-105169483D01*
X186826065Y-105186608D01*
X186784785Y-105212278D01*
X186749302Y-105245511D01*
X186720870Y-105285188D01*
X186719048Y-105286013D01*
X186717422Y-105284848D01*
X186717512Y-105283023D01*
X186755009Y-105218076D01*
X186755115Y-105217911D01*
X186777924Y-105186080D01*
X186778183Y-105185785D01*
X186802259Y-105163235D01*
X186802570Y-105162997D01*
X186830577Y-105145582D01*
X186830928Y-105145408D01*
X186861799Y-105133788D01*
X186862178Y-105133687D01*
X186894719Y-105128315D01*
X186895110Y-105128289D01*
X186928076Y-105129368D01*
G37*
G36*
X185192043Y-103506668D02*
G01*
X185225769Y-103512236D01*
X185226148Y-103512337D01*
X185258147Y-103524381D01*
X185258498Y-103524555D01*
X185287527Y-103542606D01*
X185287838Y-103542844D01*
X185312793Y-103566218D01*
X185313052Y-103566513D01*
X185336562Y-103599320D01*
X185336668Y-103599485D01*
X185571942Y-104006993D01*
X185572498Y-104007956D01*
X185593308Y-104044000D01*
X185604295Y-104063030D01*
X185637331Y-104120250D01*
X185639086Y-104123290D01*
X185646881Y-104136791D01*
X185680524Y-104195062D01*
X185680614Y-104195237D01*
X185697269Y-104231995D01*
X185697395Y-104232366D01*
X185705159Y-104265666D01*
X185705210Y-104266055D01*
X185706329Y-104300225D01*
X185706303Y-104300616D01*
X185700735Y-104334343D01*
X185700634Y-104334722D01*
X185688590Y-104366719D01*
X185688416Y-104367070D01*
X185670365Y-104396100D01*
X185670127Y-104396411D01*
X185646753Y-104421366D01*
X185646458Y-104421625D01*
X185613651Y-104445135D01*
X185613486Y-104445241D01*
X185104511Y-104739097D01*
X185104336Y-104739187D01*
X185067578Y-104755842D01*
X185067207Y-104755968D01*
X185033907Y-104763732D01*
X185033518Y-104763783D01*
X184999348Y-104764902D01*
X184998957Y-104764876D01*
X184965231Y-104759308D01*
X184964852Y-104759207D01*
X184932853Y-104747163D01*
X184932502Y-104746989D01*
X184903473Y-104728938D01*
X184903162Y-104728700D01*
X184878207Y-104705326D01*
X184877948Y-104705031D01*
X184854438Y-104672224D01*
X184854332Y-104672059D01*
X184609056Y-104247227D01*
X184594184Y-104221468D01*
X184571418Y-104182036D01*
X184551914Y-104148254D01*
X184545686Y-104137467D01*
X184510476Y-104076482D01*
X184510386Y-104076307D01*
X184493731Y-104039549D01*
X184493605Y-104039178D01*
X184485841Y-104005878D01*
X184485790Y-104005489D01*
X184485288Y-103990137D01*
X184511082Y-103990137D01*
X184512594Y-104036277D01*
X184523076Y-104081237D01*
X184542170Y-104123376D01*
X184549150Y-104135467D01*
X184555378Y-104146254D01*
X184574882Y-104180036D01*
X184597648Y-104219468D01*
X184612520Y-104245227D01*
X184829569Y-104621166D01*
X184856519Y-104658775D01*
X184890213Y-104690332D01*
X184929412Y-104714708D01*
X184972620Y-104730970D01*
X185018166Y-104738490D01*
X185064306Y-104736979D01*
X185109266Y-104726497D01*
X185151405Y-104707403D01*
X185562593Y-104470004D01*
X185600202Y-104443054D01*
X185631759Y-104409360D01*
X185656135Y-104370160D01*
X185672397Y-104326952D01*
X185679918Y-104281407D01*
X185678406Y-104235267D01*
X185667924Y-104190307D01*
X185648830Y-104148168D01*
X185643417Y-104138791D01*
X185635622Y-104125290D01*
X185633867Y-104122250D01*
X185600831Y-104065030D01*
X185589844Y-104046000D01*
X185569034Y-104009956D01*
X185568478Y-104008993D01*
X185361431Y-103650378D01*
X185334481Y-103612769D01*
X185300787Y-103581212D01*
X185261588Y-103556836D01*
X185218380Y-103540574D01*
X185172834Y-103533054D01*
X185126694Y-103534565D01*
X185081734Y-103545047D01*
X185039595Y-103564141D01*
X184628407Y-103801540D01*
X184590798Y-103828490D01*
X184559241Y-103862184D01*
X184534865Y-103901384D01*
X184518603Y-103944592D01*
X184511082Y-103990137D01*
X184485288Y-103990137D01*
X184484671Y-103971319D01*
X184484697Y-103970928D01*
X184490265Y-103937201D01*
X184490366Y-103936822D01*
X184502410Y-103904825D01*
X184502584Y-103904474D01*
X184520635Y-103875444D01*
X184520873Y-103875133D01*
X184544247Y-103850178D01*
X184544542Y-103849919D01*
X184577349Y-103826409D01*
X184577514Y-103826303D01*
X185086489Y-103532447D01*
X185086664Y-103532357D01*
X185123422Y-103515702D01*
X185123793Y-103515576D01*
X185157093Y-103507812D01*
X185157482Y-103507761D01*
X185191652Y-103506642D01*
X185192043Y-103506668D01*
G37*
G36*
X202446518Y-103380761D02*
G01*
X202446907Y-103380812D01*
X202480207Y-103388576D01*
X202480578Y-103388702D01*
X202517336Y-103405357D01*
X202517511Y-103405447D01*
X203026486Y-103699303D01*
X203026651Y-103699409D01*
X203059458Y-103722919D01*
X203059753Y-103723178D01*
X203083127Y-103748133D01*
X203083365Y-103748444D01*
X203101416Y-103777473D01*
X203101590Y-103777824D01*
X203113634Y-103809823D01*
X203113735Y-103810202D01*
X203119303Y-103843928D01*
X203119329Y-103844319D01*
X203118210Y-103878489D01*
X203118159Y-103878878D01*
X203110395Y-103912178D01*
X203110269Y-103912549D01*
X203093614Y-103949307D01*
X203093524Y-103949482D01*
X203063632Y-104001256D01*
X203059165Y-104008993D01*
X203058609Y-104009956D01*
X203054671Y-104016777D01*
X203052086Y-104021254D01*
X203037799Y-104046000D01*
X203026812Y-104065030D01*
X202749668Y-104545059D01*
X202749562Y-104545224D01*
X202726052Y-104578031D01*
X202725793Y-104578326D01*
X202700838Y-104601700D01*
X202700527Y-104601938D01*
X202671497Y-104619989D01*
X202671146Y-104620163D01*
X202639149Y-104632207D01*
X202638770Y-104632308D01*
X202605043Y-104637876D01*
X202604652Y-104637902D01*
X202570482Y-104636783D01*
X202570093Y-104636732D01*
X202536793Y-104628968D01*
X202536422Y-104628842D01*
X202499664Y-104612187D01*
X202499489Y-104612097D01*
X201990514Y-104318241D01*
X201990349Y-104318135D01*
X201957542Y-104294625D01*
X201957247Y-104294366D01*
X201933873Y-104269411D01*
X201933635Y-104269100D01*
X201915584Y-104240071D01*
X201915410Y-104239720D01*
X201903366Y-104207721D01*
X201903265Y-104207342D01*
X201897697Y-104173616D01*
X201897671Y-104173225D01*
X201898287Y-104154407D01*
X201924083Y-104154407D01*
X201931603Y-104199953D01*
X201947865Y-104243161D01*
X201972241Y-104282360D01*
X202003798Y-104316054D01*
X202041407Y-104343004D01*
X202452595Y-104580403D01*
X202494734Y-104599497D01*
X202539694Y-104609979D01*
X202585834Y-104611491D01*
X202631379Y-104603970D01*
X202674587Y-104587708D01*
X202713787Y-104563332D01*
X202747481Y-104531775D01*
X202774431Y-104494166D01*
X203023348Y-104063030D01*
X203034335Y-104044000D01*
X203048622Y-104019254D01*
X203051207Y-104014777D01*
X203055145Y-104007956D01*
X203055701Y-104006993D01*
X203060168Y-103999256D01*
X203061830Y-103996376D01*
X203080924Y-103954237D01*
X203091406Y-103909277D01*
X203092917Y-103863137D01*
X203085397Y-103817591D01*
X203069135Y-103774383D01*
X203044759Y-103735184D01*
X203013202Y-103701490D01*
X202975593Y-103674540D01*
X202564405Y-103437141D01*
X202522266Y-103418047D01*
X202477306Y-103407565D01*
X202431166Y-103406053D01*
X202385621Y-103413574D01*
X202342413Y-103429836D01*
X202303213Y-103454212D01*
X202269519Y-103485769D01*
X202242569Y-103523378D01*
X202004531Y-103935671D01*
X201988315Y-103963758D01*
X201979482Y-103979057D01*
X201976638Y-103983983D01*
X201968378Y-103998290D01*
X201955170Y-104021168D01*
X201936076Y-104063307D01*
X201925594Y-104108267D01*
X201924083Y-104154407D01*
X201898287Y-104154407D01*
X201898790Y-104139055D01*
X201898841Y-104138666D01*
X201906605Y-104105366D01*
X201906731Y-104104995D01*
X201923386Y-104068237D01*
X201923476Y-104068062D01*
X201964914Y-103996290D01*
X201973174Y-103981983D01*
X201976018Y-103977057D01*
X201984851Y-103961758D01*
X202001067Y-103933671D01*
X202267332Y-103472485D01*
X202267438Y-103472320D01*
X202290948Y-103439513D01*
X202291207Y-103439218D01*
X202316162Y-103415844D01*
X202316473Y-103415606D01*
X202345503Y-103397555D01*
X202345854Y-103397381D01*
X202377851Y-103385337D01*
X202378230Y-103385236D01*
X202411957Y-103379668D01*
X202412348Y-103379642D01*
X202446518Y-103380761D01*
G37*
G36*
X186718523Y-102978670D02*
G01*
X186717688Y-102980296D01*
X186678011Y-103008728D01*
X186644778Y-103044211D01*
X186619108Y-103085491D01*
X186601983Y-103130992D01*
X186594063Y-103178955D01*
X186595655Y-103227544D01*
X186606693Y-103274891D01*
X186626799Y-103319262D01*
X187089198Y-104120162D01*
X187117575Y-104159762D01*
X187153058Y-104192995D01*
X187194338Y-104218665D01*
X187239839Y-104235790D01*
X187287802Y-104243710D01*
X187336392Y-104242118D01*
X187383738Y-104231080D01*
X187428193Y-104210936D01*
X187430183Y-104211132D01*
X187431008Y-104212954D01*
X187430018Y-104214490D01*
X187365070Y-104251988D01*
X187364895Y-104252078D01*
X187329235Y-104268236D01*
X187328864Y-104268362D01*
X187296737Y-104275853D01*
X187296348Y-104275904D01*
X187263382Y-104276983D01*
X187262991Y-104276957D01*
X187230450Y-104271585D01*
X187230071Y-104271484D01*
X187199200Y-104259864D01*
X187198849Y-104259690D01*
X187170842Y-104242275D01*
X187170531Y-104242037D01*
X187146454Y-104219486D01*
X187146195Y-104219191D01*
X187123390Y-104187367D01*
X187123284Y-104187202D01*
X186585784Y-103256225D01*
X186585694Y-103256050D01*
X186569536Y-103220387D01*
X186569410Y-103220016D01*
X186561919Y-103187891D01*
X186561868Y-103187502D01*
X186560789Y-103154536D01*
X186560815Y-103154145D01*
X186566187Y-103121605D01*
X186566288Y-103121226D01*
X186577907Y-103090356D01*
X186578081Y-103090005D01*
X186595499Y-103061994D01*
X186595737Y-103061683D01*
X186618285Y-103037609D01*
X186618580Y-103037350D01*
X186650411Y-103014541D01*
X186650576Y-103014435D01*
X186715523Y-102976938D01*
X186717523Y-102976938D01*
X186718523Y-102978670D01*
G37*
G36*
X200844477Y-102726938D02*
G01*
X200909424Y-102764435D01*
X200909589Y-102764541D01*
X200941420Y-102787350D01*
X200941715Y-102787609D01*
X200964265Y-102811685D01*
X200964503Y-102811996D01*
X200981918Y-102840003D01*
X200982092Y-102840354D01*
X200993712Y-102871225D01*
X200993813Y-102871604D01*
X200999185Y-102904145D01*
X200999211Y-102904536D01*
X200998132Y-102937502D01*
X200998081Y-102937891D01*
X200990590Y-102970016D01*
X200990464Y-102970387D01*
X200974306Y-103006050D01*
X200974216Y-103006225D01*
X200436716Y-103937202D01*
X200436610Y-103937367D01*
X200413805Y-103969191D01*
X200413546Y-103969486D01*
X200389471Y-103992035D01*
X200389160Y-103992273D01*
X200361149Y-104009691D01*
X200360798Y-104009865D01*
X200329928Y-104021484D01*
X200329549Y-104021585D01*
X200297009Y-104026957D01*
X200296618Y-104026983D01*
X200263652Y-104025904D01*
X200263263Y-104025853D01*
X200231136Y-104018362D01*
X200230765Y-104018236D01*
X200195105Y-104002078D01*
X200194930Y-104001988D01*
X200129982Y-103964490D01*
X200128982Y-103962758D01*
X200129982Y-103961026D01*
X200131807Y-103960936D01*
X200176262Y-103981080D01*
X200223609Y-103992118D01*
X200272198Y-103993710D01*
X200320161Y-103985790D01*
X200365662Y-103968665D01*
X200406942Y-103942995D01*
X200442425Y-103909762D01*
X200470802Y-103870162D01*
X200933201Y-103069262D01*
X200953307Y-103024891D01*
X200964345Y-102977545D01*
X200965937Y-102928955D01*
X200958017Y-102880992D01*
X200940892Y-102835491D01*
X200915222Y-102794211D01*
X200881989Y-102758728D01*
X200842312Y-102730296D01*
X200841487Y-102728474D01*
X200842652Y-102726848D01*
X200844477Y-102726938D01*
G37*
G36*
X184317043Y-101991124D02*
G01*
X184350769Y-101996692D01*
X184351148Y-101996793D01*
X184383147Y-102008837D01*
X184383498Y-102009011D01*
X184412527Y-102027062D01*
X184412838Y-102027300D01*
X184437793Y-102050674D01*
X184438052Y-102050969D01*
X184461562Y-102083776D01*
X184461668Y-102083941D01*
X184728004Y-102545250D01*
X184753777Y-102589890D01*
X184764086Y-102607746D01*
X184805524Y-102679518D01*
X184805614Y-102679693D01*
X184822269Y-102716451D01*
X184822395Y-102716822D01*
X184830159Y-102750122D01*
X184830210Y-102750511D01*
X184831329Y-102784681D01*
X184831303Y-102785072D01*
X184825735Y-102818799D01*
X184825634Y-102819178D01*
X184813590Y-102851175D01*
X184813416Y-102851526D01*
X184795365Y-102880556D01*
X184795127Y-102880867D01*
X184771753Y-102905822D01*
X184771458Y-102906081D01*
X184738651Y-102929591D01*
X184738486Y-102929697D01*
X184229511Y-103223553D01*
X184229336Y-103223643D01*
X184192578Y-103240298D01*
X184192207Y-103240424D01*
X184158907Y-103248188D01*
X184158518Y-103248239D01*
X184124348Y-103249358D01*
X184123957Y-103249332D01*
X184090231Y-103243764D01*
X184089852Y-103243663D01*
X184057853Y-103231619D01*
X184057502Y-103231445D01*
X184028473Y-103213394D01*
X184028162Y-103213156D01*
X184003207Y-103189782D01*
X184002948Y-103189487D01*
X183979438Y-103156680D01*
X183979332Y-103156515D01*
X183752026Y-102762808D01*
X183685663Y-102647864D01*
X183676914Y-102632710D01*
X183665073Y-102612201D01*
X183635476Y-102560938D01*
X183635386Y-102560763D01*
X183618731Y-102524005D01*
X183618605Y-102523634D01*
X183610841Y-102490334D01*
X183610790Y-102489945D01*
X183610288Y-102474593D01*
X183636082Y-102474593D01*
X183637594Y-102520733D01*
X183648076Y-102565693D01*
X183667170Y-102607832D01*
X183668537Y-102610201D01*
X183680378Y-102630710D01*
X183689127Y-102645864D01*
X183755490Y-102760808D01*
X183954569Y-103105622D01*
X183981519Y-103143231D01*
X184015213Y-103174788D01*
X184054412Y-103199164D01*
X184097620Y-103215426D01*
X184143166Y-103222946D01*
X184189306Y-103221435D01*
X184234266Y-103210953D01*
X184276405Y-103191859D01*
X184687593Y-102954460D01*
X184725202Y-102927510D01*
X184756759Y-102893816D01*
X184781135Y-102854616D01*
X184797397Y-102811408D01*
X184804918Y-102765863D01*
X184803406Y-102719723D01*
X184792924Y-102674763D01*
X184773830Y-102632624D01*
X184760622Y-102609746D01*
X184750313Y-102591890D01*
X184724540Y-102547250D01*
X184486431Y-102134834D01*
X184459481Y-102097225D01*
X184425787Y-102065668D01*
X184386588Y-102041292D01*
X184343380Y-102025030D01*
X184297834Y-102017510D01*
X184251694Y-102019021D01*
X184206734Y-102029503D01*
X184164595Y-102048597D01*
X183753407Y-102285996D01*
X183715798Y-102312946D01*
X183684241Y-102346640D01*
X183659865Y-102385840D01*
X183643603Y-102429048D01*
X183636082Y-102474593D01*
X183610288Y-102474593D01*
X183609671Y-102455775D01*
X183609697Y-102455384D01*
X183615265Y-102421657D01*
X183615366Y-102421278D01*
X183627410Y-102389281D01*
X183627584Y-102388930D01*
X183645635Y-102359900D01*
X183645873Y-102359589D01*
X183669247Y-102334634D01*
X183669542Y-102334375D01*
X183702349Y-102310865D01*
X183702514Y-102310759D01*
X184211489Y-102016903D01*
X184211664Y-102016813D01*
X184248422Y-102000158D01*
X184248793Y-102000032D01*
X184282093Y-101992268D01*
X184282482Y-101992217D01*
X184316652Y-101991098D01*
X184317043Y-101991124D01*
G37*
G36*
X188744509Y-101839469D02*
G01*
X188777050Y-101844841D01*
X188777429Y-101844942D01*
X188808300Y-101856562D01*
X188808651Y-101856736D01*
X188836658Y-101874151D01*
X188836969Y-101874389D01*
X188861046Y-101896940D01*
X188861305Y-101897235D01*
X188884110Y-101929059D01*
X188884216Y-101929224D01*
X189421716Y-102860201D01*
X189421806Y-102860376D01*
X189437964Y-102896039D01*
X189438090Y-102896410D01*
X189445581Y-102928535D01*
X189445632Y-102928924D01*
X189446711Y-102961890D01*
X189446685Y-102962281D01*
X189441313Y-102994821D01*
X189441212Y-102995200D01*
X189429593Y-103026070D01*
X189429419Y-103026421D01*
X189412001Y-103054432D01*
X189411763Y-103054743D01*
X189389215Y-103078817D01*
X189388920Y-103079076D01*
X189357089Y-103101885D01*
X189356924Y-103101991D01*
X189291977Y-103139488D01*
X189289977Y-103139488D01*
X189288977Y-103137756D01*
X189289812Y-103136130D01*
X189329489Y-103107698D01*
X189362722Y-103072215D01*
X189388392Y-103030935D01*
X189405517Y-102985434D01*
X189413437Y-102937471D01*
X189411845Y-102888882D01*
X189400807Y-102841535D01*
X189380701Y-102797164D01*
X188918302Y-101996264D01*
X188889925Y-101956664D01*
X188854442Y-101923431D01*
X188813162Y-101897761D01*
X188767661Y-101880636D01*
X188719698Y-101872716D01*
X188671108Y-101874308D01*
X188623762Y-101885346D01*
X188579307Y-101905490D01*
X188577317Y-101905294D01*
X188576492Y-101903472D01*
X188577482Y-101901936D01*
X188642430Y-101864438D01*
X188642605Y-101864348D01*
X188678265Y-101848190D01*
X188678636Y-101848064D01*
X188710763Y-101840573D01*
X188711152Y-101840522D01*
X188744118Y-101839443D01*
X188744509Y-101839469D01*
G37*
G36*
X203321518Y-101865217D02*
G01*
X203321907Y-101865268D01*
X203355207Y-101873032D01*
X203355578Y-101873158D01*
X203392336Y-101889813D01*
X203392511Y-101889903D01*
X203901486Y-102183759D01*
X203901651Y-102183865D01*
X203934458Y-102207375D01*
X203934753Y-102207634D01*
X203958127Y-102232589D01*
X203958365Y-102232900D01*
X203976416Y-102261929D01*
X203976590Y-102262280D01*
X203988634Y-102294279D01*
X203988735Y-102294658D01*
X203994303Y-102328384D01*
X203994329Y-102328775D01*
X203993210Y-102362945D01*
X203993159Y-102363334D01*
X203985395Y-102396634D01*
X203985269Y-102397005D01*
X203968614Y-102433763D01*
X203968524Y-102433938D01*
X203927086Y-102505710D01*
X203903103Y-102547250D01*
X203624668Y-103029515D01*
X203624562Y-103029680D01*
X203601052Y-103062487D01*
X203600793Y-103062782D01*
X203575838Y-103086156D01*
X203575527Y-103086394D01*
X203546497Y-103104445D01*
X203546146Y-103104619D01*
X203514149Y-103116663D01*
X203513770Y-103116764D01*
X203480043Y-103122332D01*
X203479652Y-103122358D01*
X203445482Y-103121239D01*
X203445093Y-103121188D01*
X203411793Y-103113424D01*
X203411422Y-103113298D01*
X203374664Y-103096643D01*
X203374489Y-103096553D01*
X202865514Y-102802697D01*
X202865349Y-102802591D01*
X202832542Y-102779081D01*
X202832247Y-102778822D01*
X202808873Y-102753867D01*
X202808635Y-102753556D01*
X202790584Y-102724527D01*
X202790410Y-102724176D01*
X202778366Y-102692177D01*
X202778265Y-102691798D01*
X202772697Y-102658072D01*
X202772671Y-102657681D01*
X202773287Y-102638863D01*
X202799083Y-102638863D01*
X202806603Y-102684409D01*
X202822865Y-102727617D01*
X202847241Y-102766816D01*
X202878798Y-102800510D01*
X202916407Y-102827460D01*
X203327595Y-103064859D01*
X203369734Y-103083953D01*
X203414694Y-103094435D01*
X203460834Y-103095947D01*
X203506379Y-103088426D01*
X203549587Y-103072164D01*
X203588787Y-103047788D01*
X203622481Y-103016231D01*
X203649431Y-102978622D01*
X203899639Y-102545250D01*
X203923622Y-102503710D01*
X203936830Y-102480832D01*
X203955924Y-102438693D01*
X203966406Y-102393733D01*
X203967917Y-102347593D01*
X203960397Y-102302047D01*
X203944135Y-102258839D01*
X203919759Y-102219640D01*
X203888202Y-102185946D01*
X203850593Y-102158996D01*
X203439405Y-101921597D01*
X203397266Y-101902503D01*
X203352306Y-101892021D01*
X203306166Y-101890509D01*
X203260621Y-101898030D01*
X203217413Y-101914292D01*
X203178213Y-101938668D01*
X203144519Y-101970225D01*
X203117569Y-102007834D01*
X202843378Y-102482746D01*
X202830170Y-102505624D01*
X202811076Y-102547763D01*
X202800594Y-102592723D01*
X202799083Y-102638863D01*
X202773287Y-102638863D01*
X202773790Y-102623511D01*
X202773841Y-102623122D01*
X202781605Y-102589822D01*
X202781731Y-102589451D01*
X202798386Y-102552693D01*
X202798476Y-102552518D01*
X202839914Y-102480746D01*
X203142332Y-101956941D01*
X203142438Y-101956776D01*
X203165948Y-101923969D01*
X203166207Y-101923674D01*
X203191162Y-101900300D01*
X203191473Y-101900062D01*
X203220503Y-101882011D01*
X203220854Y-101881837D01*
X203252851Y-101869793D01*
X203253230Y-101869692D01*
X203286957Y-101864124D01*
X203287348Y-101864098D01*
X203321518Y-101865217D01*
G37*
G36*
X198848848Y-101590522D02*
G01*
X198849237Y-101590573D01*
X198881364Y-101598064D01*
X198881735Y-101598190D01*
X198917395Y-101614348D01*
X198917570Y-101614438D01*
X198982518Y-101651936D01*
X198983518Y-101653668D01*
X198982518Y-101655400D01*
X198980693Y-101655490D01*
X198936238Y-101635346D01*
X198888891Y-101624308D01*
X198840302Y-101622716D01*
X198792339Y-101630636D01*
X198746838Y-101647761D01*
X198705558Y-101673431D01*
X198670075Y-101706664D01*
X198641698Y-101746264D01*
X198179299Y-102547164D01*
X198159193Y-102591535D01*
X198148155Y-102638881D01*
X198146563Y-102687471D01*
X198154483Y-102735434D01*
X198171608Y-102780935D01*
X198197278Y-102822215D01*
X198230511Y-102857698D01*
X198270188Y-102886130D01*
X198271013Y-102887952D01*
X198269848Y-102889578D01*
X198268023Y-102889488D01*
X198203076Y-102851991D01*
X198202911Y-102851885D01*
X198171080Y-102829076D01*
X198170785Y-102828817D01*
X198148235Y-102804741D01*
X198147997Y-102804430D01*
X198130582Y-102776423D01*
X198130408Y-102776072D01*
X198118788Y-102745201D01*
X198118687Y-102744822D01*
X198113315Y-102712281D01*
X198113289Y-102711890D01*
X198114368Y-102678924D01*
X198114419Y-102678535D01*
X198121910Y-102646410D01*
X198122036Y-102646039D01*
X198138194Y-102610376D01*
X198138284Y-102610201D01*
X198675784Y-101679224D01*
X198675890Y-101679059D01*
X198698695Y-101647235D01*
X198698954Y-101646940D01*
X198723029Y-101624391D01*
X198723340Y-101624153D01*
X198751351Y-101606735D01*
X198751702Y-101606561D01*
X198782572Y-101594942D01*
X198782951Y-101594841D01*
X198815491Y-101589469D01*
X198815882Y-101589443D01*
X198848848Y-101590522D01*
G37*
G36*
X185231023Y-100402244D02*
G01*
X185230188Y-100403870D01*
X185190511Y-100432302D01*
X185157278Y-100467785D01*
X185131608Y-100509065D01*
X185114483Y-100554566D01*
X185106563Y-100602529D01*
X185108155Y-100651118D01*
X185119193Y-100698465D01*
X185139299Y-100742836D01*
X185601698Y-101543736D01*
X185630075Y-101583336D01*
X185665558Y-101616569D01*
X185706838Y-101642239D01*
X185752339Y-101659364D01*
X185800302Y-101667284D01*
X185848892Y-101665692D01*
X185896238Y-101654654D01*
X185940693Y-101634510D01*
X185942683Y-101634706D01*
X185943508Y-101636528D01*
X185942518Y-101638064D01*
X185877570Y-101675562D01*
X185877395Y-101675652D01*
X185841735Y-101691810D01*
X185841364Y-101691936D01*
X185809237Y-101699427D01*
X185808848Y-101699478D01*
X185775882Y-101700557D01*
X185775491Y-101700531D01*
X185742950Y-101695159D01*
X185742571Y-101695058D01*
X185711700Y-101683438D01*
X185711349Y-101683264D01*
X185683342Y-101665849D01*
X185683031Y-101665611D01*
X185658954Y-101643060D01*
X185658695Y-101642765D01*
X185635890Y-101610941D01*
X185635784Y-101610776D01*
X185098284Y-100679799D01*
X185098194Y-100679624D01*
X185082036Y-100643961D01*
X185081910Y-100643590D01*
X185074419Y-100611465D01*
X185074368Y-100611076D01*
X185073289Y-100578110D01*
X185073315Y-100577719D01*
X185078687Y-100545179D01*
X185078788Y-100544800D01*
X185090407Y-100513930D01*
X185090581Y-100513579D01*
X185107999Y-100485568D01*
X185108237Y-100485257D01*
X185130785Y-100461183D01*
X185131080Y-100460924D01*
X185162911Y-100438115D01*
X185163076Y-100438009D01*
X185228023Y-100400512D01*
X185230023Y-100400512D01*
X185231023Y-100402244D01*
G37*
G36*
X202331977Y-100150512D02*
G01*
X202396924Y-100188009D01*
X202397089Y-100188115D01*
X202428920Y-100210924D01*
X202429215Y-100211183D01*
X202451765Y-100235259D01*
X202452003Y-100235570D01*
X202469418Y-100263577D01*
X202469592Y-100263928D01*
X202481212Y-100294799D01*
X202481313Y-100295178D01*
X202486685Y-100327719D01*
X202486711Y-100328110D01*
X202485632Y-100361076D01*
X202485581Y-100361465D01*
X202478090Y-100393590D01*
X202477964Y-100393961D01*
X202461806Y-100429624D01*
X202461716Y-100429799D01*
X201924216Y-101360776D01*
X201924110Y-101360941D01*
X201901305Y-101392765D01*
X201901046Y-101393060D01*
X201876971Y-101415609D01*
X201876660Y-101415847D01*
X201848649Y-101433265D01*
X201848298Y-101433439D01*
X201817428Y-101445058D01*
X201817049Y-101445159D01*
X201784509Y-101450531D01*
X201784118Y-101450557D01*
X201751152Y-101449478D01*
X201750763Y-101449427D01*
X201718636Y-101441936D01*
X201718265Y-101441810D01*
X201682605Y-101425652D01*
X201682430Y-101425562D01*
X201617482Y-101388064D01*
X201616482Y-101386332D01*
X201617482Y-101384600D01*
X201619307Y-101384510D01*
X201663762Y-101404654D01*
X201711109Y-101415692D01*
X201759698Y-101417284D01*
X201807661Y-101409364D01*
X201853162Y-101392239D01*
X201894442Y-101366569D01*
X201929925Y-101333336D01*
X201958302Y-101293736D01*
X202420701Y-100492836D01*
X202440807Y-100448465D01*
X202451845Y-100401119D01*
X202453437Y-100352529D01*
X202445517Y-100304566D01*
X202428392Y-100259065D01*
X202402722Y-100217785D01*
X202369489Y-100182302D01*
X202329812Y-100153870D01*
X202328987Y-100152048D01*
X202330152Y-100150422D01*
X202331977Y-100150512D01*
G37*
G36*
X187257009Y-99263043D02*
G01*
X187289550Y-99268415D01*
X187289929Y-99268516D01*
X187320800Y-99280136D01*
X187321151Y-99280310D01*
X187349158Y-99297725D01*
X187349469Y-99297963D01*
X187373546Y-99320514D01*
X187373805Y-99320809D01*
X187396610Y-99352633D01*
X187396716Y-99352798D01*
X187934216Y-100283775D01*
X187934306Y-100283950D01*
X187950464Y-100319613D01*
X187950590Y-100319984D01*
X187958081Y-100352109D01*
X187958132Y-100352498D01*
X187959211Y-100385464D01*
X187959185Y-100385855D01*
X187953813Y-100418395D01*
X187953712Y-100418774D01*
X187942093Y-100449644D01*
X187941919Y-100449995D01*
X187924501Y-100478006D01*
X187924263Y-100478317D01*
X187901715Y-100502391D01*
X187901420Y-100502650D01*
X187869589Y-100525459D01*
X187869424Y-100525565D01*
X187804477Y-100563062D01*
X187802477Y-100563062D01*
X187801477Y-100561330D01*
X187802312Y-100559704D01*
X187841989Y-100531272D01*
X187875222Y-100495789D01*
X187900892Y-100454509D01*
X187918017Y-100409008D01*
X187925937Y-100361045D01*
X187924345Y-100312456D01*
X187913307Y-100265109D01*
X187893201Y-100220738D01*
X187430802Y-99419838D01*
X187402425Y-99380238D01*
X187366942Y-99347005D01*
X187325662Y-99321335D01*
X187280161Y-99304210D01*
X187232198Y-99296290D01*
X187183608Y-99297882D01*
X187136262Y-99308920D01*
X187091807Y-99329064D01*
X187089817Y-99328868D01*
X187088992Y-99327046D01*
X187089982Y-99325510D01*
X187154930Y-99288012D01*
X187155105Y-99287922D01*
X187190765Y-99271764D01*
X187191136Y-99271638D01*
X187223263Y-99264147D01*
X187223652Y-99264096D01*
X187256618Y-99263017D01*
X187257009Y-99263043D01*
G37*
G36*
X200336348Y-99014096D02*
G01*
X200336737Y-99014147D01*
X200368864Y-99021638D01*
X200369235Y-99021764D01*
X200404895Y-99037922D01*
X200405070Y-99038012D01*
X200470018Y-99075510D01*
X200471018Y-99077242D01*
X200470018Y-99078974D01*
X200468193Y-99079064D01*
X200423738Y-99058920D01*
X200376391Y-99047882D01*
X200327802Y-99046290D01*
X200279839Y-99054210D01*
X200234338Y-99071335D01*
X200193058Y-99097005D01*
X200157575Y-99130238D01*
X200129198Y-99169838D01*
X199666799Y-99970738D01*
X199646693Y-100015109D01*
X199635655Y-100062455D01*
X199634063Y-100111045D01*
X199641983Y-100159008D01*
X199659108Y-100204509D01*
X199684778Y-100245789D01*
X199718011Y-100281272D01*
X199757688Y-100309704D01*
X199758513Y-100311526D01*
X199757348Y-100313152D01*
X199755523Y-100313062D01*
X199690576Y-100275565D01*
X199690411Y-100275459D01*
X199658580Y-100252650D01*
X199658285Y-100252391D01*
X199635735Y-100228315D01*
X199635497Y-100228004D01*
X199618082Y-100199997D01*
X199617908Y-100199646D01*
X199606288Y-100168775D01*
X199606187Y-100168396D01*
X199600815Y-100135855D01*
X199600789Y-100135464D01*
X199601868Y-100102498D01*
X199601919Y-100102109D01*
X199609410Y-100069984D01*
X199609536Y-100069613D01*
X199625694Y-100033950D01*
X199625784Y-100033775D01*
X200163284Y-99102798D01*
X200163390Y-99102633D01*
X200186195Y-99070809D01*
X200186454Y-99070514D01*
X200210529Y-99047965D01*
X200210840Y-99047727D01*
X200238851Y-99030309D01*
X200239202Y-99030135D01*
X200270072Y-99018516D01*
X200270451Y-99018415D01*
X200302991Y-99013043D01*
X200303382Y-99013017D01*
X200336348Y-99014096D01*
G37*
G36*
X187854477Y-94816938D02*
G01*
X187919424Y-94854435D01*
X187919589Y-94854541D01*
X187951420Y-94877350D01*
X187951715Y-94877609D01*
X187974265Y-94901685D01*
X187974503Y-94901996D01*
X187991918Y-94930003D01*
X187992092Y-94930354D01*
X188003712Y-94961225D01*
X188003813Y-94961604D01*
X188009185Y-94994145D01*
X188009211Y-94994536D01*
X188008132Y-95027502D01*
X188008081Y-95027891D01*
X188000590Y-95060016D01*
X188000464Y-95060387D01*
X187984306Y-95096050D01*
X187984216Y-95096225D01*
X187446716Y-96027202D01*
X187446610Y-96027367D01*
X187423805Y-96059191D01*
X187423546Y-96059486D01*
X187399471Y-96082035D01*
X187399160Y-96082273D01*
X187371149Y-96099691D01*
X187370798Y-96099865D01*
X187339928Y-96111484D01*
X187339549Y-96111585D01*
X187307009Y-96116957D01*
X187306618Y-96116983D01*
X187273652Y-96115904D01*
X187273263Y-96115853D01*
X187241136Y-96108362D01*
X187240765Y-96108236D01*
X187205105Y-96092078D01*
X187204930Y-96091988D01*
X187139982Y-96054490D01*
X187138982Y-96052758D01*
X187139982Y-96051026D01*
X187141807Y-96050936D01*
X187186262Y-96071080D01*
X187233609Y-96082118D01*
X187282198Y-96083710D01*
X187330161Y-96075790D01*
X187375662Y-96058665D01*
X187416942Y-96032995D01*
X187452425Y-95999762D01*
X187480802Y-95960162D01*
X187943201Y-95159262D01*
X187963307Y-95114891D01*
X187974345Y-95067545D01*
X187975937Y-95018955D01*
X187968017Y-94970992D01*
X187950892Y-94925491D01*
X187925222Y-94884211D01*
X187891989Y-94848728D01*
X187852312Y-94820296D01*
X187851487Y-94818474D01*
X187852652Y-94816848D01*
X187854477Y-94816938D01*
G37*
G36*
X199578523Y-94588670D02*
G01*
X199577688Y-94590296D01*
X199538011Y-94618728D01*
X199504778Y-94654211D01*
X199479108Y-94695491D01*
X199461983Y-94740992D01*
X199454063Y-94788955D01*
X199455655Y-94837544D01*
X199466693Y-94884891D01*
X199486799Y-94929262D01*
X199949198Y-95730162D01*
X199977575Y-95769762D01*
X200013058Y-95802995D01*
X200054338Y-95828665D01*
X200099839Y-95845790D01*
X200147802Y-95853710D01*
X200196392Y-95852118D01*
X200243738Y-95841080D01*
X200288193Y-95820936D01*
X200290183Y-95821132D01*
X200291008Y-95822954D01*
X200290018Y-95824490D01*
X200225070Y-95861988D01*
X200224895Y-95862078D01*
X200189235Y-95878236D01*
X200188864Y-95878362D01*
X200156737Y-95885853D01*
X200156348Y-95885904D01*
X200123382Y-95886983D01*
X200122991Y-95886957D01*
X200090450Y-95881585D01*
X200090071Y-95881484D01*
X200059200Y-95869864D01*
X200058849Y-95869690D01*
X200030842Y-95852275D01*
X200030531Y-95852037D01*
X200006454Y-95829486D01*
X200006195Y-95829191D01*
X199983390Y-95797367D01*
X199983284Y-95797202D01*
X199445784Y-94866225D01*
X199445694Y-94866050D01*
X199429536Y-94830387D01*
X199429410Y-94830016D01*
X199421919Y-94797891D01*
X199421868Y-94797502D01*
X199420789Y-94764536D01*
X199420815Y-94764145D01*
X199426187Y-94731605D01*
X199426288Y-94731226D01*
X199437907Y-94700356D01*
X199438081Y-94700005D01*
X199455499Y-94671994D01*
X199455737Y-94671683D01*
X199478285Y-94647609D01*
X199478580Y-94647350D01*
X199510411Y-94624541D01*
X199510576Y-94624435D01*
X199575523Y-94586938D01*
X199577523Y-94586938D01*
X199578523Y-94588670D01*
G37*
G36*
X185858848Y-93680522D02*
G01*
X185859237Y-93680573D01*
X185891364Y-93688064D01*
X185891735Y-93688190D01*
X185927395Y-93704348D01*
X185927570Y-93704438D01*
X185992518Y-93741936D01*
X185993518Y-93743668D01*
X185992518Y-93745400D01*
X185990693Y-93745490D01*
X185946238Y-93725346D01*
X185898891Y-93714308D01*
X185850302Y-93712716D01*
X185802339Y-93720636D01*
X185756838Y-93737761D01*
X185715558Y-93763431D01*
X185680075Y-93796664D01*
X185651698Y-93836264D01*
X185189299Y-94637164D01*
X185169193Y-94681535D01*
X185158155Y-94728881D01*
X185156563Y-94777471D01*
X185164483Y-94825434D01*
X185181608Y-94870935D01*
X185207278Y-94912215D01*
X185240511Y-94947698D01*
X185280188Y-94976130D01*
X185281013Y-94977952D01*
X185279848Y-94979578D01*
X185278023Y-94979488D01*
X185213076Y-94941991D01*
X185212911Y-94941885D01*
X185181080Y-94919076D01*
X185180785Y-94918817D01*
X185158235Y-94894741D01*
X185157997Y-94894430D01*
X185140582Y-94866423D01*
X185140408Y-94866072D01*
X185128788Y-94835201D01*
X185128687Y-94834822D01*
X185123315Y-94802281D01*
X185123289Y-94801890D01*
X185124368Y-94768924D01*
X185124419Y-94768535D01*
X185131910Y-94736410D01*
X185132036Y-94736039D01*
X185148194Y-94700376D01*
X185148284Y-94700201D01*
X185685784Y-93769224D01*
X185685890Y-93769059D01*
X185708695Y-93737235D01*
X185708954Y-93736940D01*
X185733029Y-93714391D01*
X185733340Y-93714153D01*
X185761351Y-93696735D01*
X185761702Y-93696561D01*
X185792572Y-93684942D01*
X185792951Y-93684841D01*
X185825491Y-93679469D01*
X185825882Y-93679443D01*
X185858848Y-93680522D01*
G37*
G36*
X201604509Y-93449469D02*
G01*
X201637050Y-93454841D01*
X201637429Y-93454942D01*
X201668300Y-93466562D01*
X201668651Y-93466736D01*
X201696658Y-93484151D01*
X201696969Y-93484389D01*
X201721046Y-93506940D01*
X201721305Y-93507235D01*
X201744110Y-93539059D01*
X201744216Y-93539224D01*
X202281716Y-94470201D01*
X202281806Y-94470376D01*
X202297964Y-94506039D01*
X202298090Y-94506410D01*
X202305581Y-94538535D01*
X202305632Y-94538924D01*
X202306711Y-94571890D01*
X202306685Y-94572281D01*
X202301313Y-94604821D01*
X202301212Y-94605200D01*
X202289593Y-94636070D01*
X202289419Y-94636421D01*
X202272001Y-94664432D01*
X202271763Y-94664743D01*
X202249215Y-94688817D01*
X202248920Y-94689076D01*
X202217089Y-94711885D01*
X202216924Y-94711991D01*
X202151977Y-94749488D01*
X202149977Y-94749488D01*
X202148977Y-94747756D01*
X202149812Y-94746130D01*
X202189489Y-94717698D01*
X202222722Y-94682215D01*
X202248392Y-94640935D01*
X202265517Y-94595434D01*
X202273437Y-94547471D01*
X202271845Y-94498882D01*
X202260807Y-94451535D01*
X202240701Y-94407164D01*
X201778302Y-93606264D01*
X201749925Y-93566664D01*
X201714442Y-93533431D01*
X201673162Y-93507761D01*
X201627661Y-93490636D01*
X201579698Y-93482716D01*
X201531108Y-93484308D01*
X201483762Y-93495346D01*
X201439307Y-93515490D01*
X201437317Y-93515294D01*
X201436492Y-93513472D01*
X201437482Y-93511936D01*
X201502430Y-93474438D01*
X201502605Y-93474348D01*
X201538265Y-93458190D01*
X201538636Y-93458064D01*
X201570763Y-93450573D01*
X201571152Y-93450522D01*
X201604118Y-93449443D01*
X201604509Y-93449469D01*
G37*
G36*
X184229018Y-92327533D02*
G01*
X184229407Y-92327584D01*
X184262707Y-92335348D01*
X184263078Y-92335474D01*
X184299836Y-92352129D01*
X184300011Y-92352219D01*
X184808986Y-92646075D01*
X184809151Y-92646181D01*
X184841958Y-92669691D01*
X184842253Y-92669950D01*
X184865627Y-92694905D01*
X184865865Y-92695216D01*
X184883916Y-92724245D01*
X184884090Y-92724596D01*
X184896134Y-92756595D01*
X184896235Y-92756974D01*
X184901803Y-92790700D01*
X184901829Y-92791091D01*
X184900710Y-92825261D01*
X184900659Y-92825650D01*
X184892895Y-92858950D01*
X184892769Y-92859321D01*
X184876114Y-92896079D01*
X184876024Y-92896254D01*
X184846005Y-92948248D01*
X184844091Y-92951563D01*
X184834586Y-92968026D01*
X184532168Y-93491831D01*
X184532062Y-93491996D01*
X184508552Y-93524803D01*
X184508293Y-93525098D01*
X184483338Y-93548472D01*
X184483027Y-93548710D01*
X184453997Y-93566761D01*
X184453646Y-93566935D01*
X184421649Y-93578979D01*
X184421270Y-93579080D01*
X184387543Y-93584648D01*
X184387152Y-93584674D01*
X184352982Y-93583555D01*
X184352593Y-93583504D01*
X184319293Y-93575740D01*
X184318922Y-93575614D01*
X184282164Y-93558959D01*
X184281989Y-93558869D01*
X183773014Y-93265013D01*
X183772849Y-93264907D01*
X183740042Y-93241397D01*
X183739747Y-93241138D01*
X183716373Y-93216183D01*
X183716135Y-93215872D01*
X183698084Y-93186843D01*
X183697910Y-93186492D01*
X183685866Y-93154493D01*
X183685765Y-93154114D01*
X183680197Y-93120388D01*
X183680171Y-93119997D01*
X183680787Y-93101179D01*
X183706583Y-93101179D01*
X183714103Y-93146725D01*
X183730365Y-93189933D01*
X183754741Y-93229132D01*
X183786298Y-93262826D01*
X183823907Y-93289776D01*
X184235095Y-93527175D01*
X184277234Y-93546269D01*
X184322194Y-93556751D01*
X184368334Y-93558263D01*
X184413879Y-93550742D01*
X184457087Y-93534480D01*
X184496287Y-93510104D01*
X184529981Y-93478547D01*
X184556931Y-93440938D01*
X184831122Y-92966026D01*
X184840627Y-92949563D01*
X184842541Y-92946248D01*
X184844330Y-92943148D01*
X184863424Y-92901009D01*
X184873906Y-92856049D01*
X184875417Y-92809909D01*
X184867897Y-92764363D01*
X184851635Y-92721155D01*
X184827259Y-92681956D01*
X184795702Y-92648262D01*
X184758093Y-92621312D01*
X184346905Y-92383913D01*
X184304766Y-92364819D01*
X184259806Y-92354337D01*
X184213666Y-92352825D01*
X184168121Y-92360346D01*
X184124913Y-92376608D01*
X184085713Y-92400984D01*
X184052019Y-92432541D01*
X184025069Y-92470150D01*
X183817369Y-92829896D01*
X183807550Y-92846903D01*
X183798414Y-92862727D01*
X183796936Y-92865287D01*
X183784889Y-92886153D01*
X183774924Y-92903413D01*
X183770255Y-92911500D01*
X183750878Y-92945062D01*
X183744556Y-92956012D01*
X183737670Y-92967940D01*
X183718576Y-93010079D01*
X183708094Y-93055039D01*
X183706583Y-93101179D01*
X183680787Y-93101179D01*
X183681290Y-93085827D01*
X183681341Y-93085438D01*
X183689105Y-93052138D01*
X183689231Y-93051767D01*
X183705886Y-93015009D01*
X183705976Y-93014834D01*
X183741092Y-92954012D01*
X183747414Y-92943062D01*
X183766791Y-92909500D01*
X183771460Y-92901413D01*
X183781425Y-92884153D01*
X183793472Y-92863287D01*
X183794950Y-92860727D01*
X183804086Y-92844903D01*
X183813905Y-92827896D01*
X184049832Y-92419257D01*
X184049938Y-92419092D01*
X184073448Y-92386285D01*
X184073707Y-92385990D01*
X184098662Y-92362616D01*
X184098973Y-92362378D01*
X184128003Y-92344327D01*
X184128354Y-92344153D01*
X184160351Y-92332109D01*
X184160730Y-92332008D01*
X184194457Y-92326440D01*
X184194848Y-92326414D01*
X184229018Y-92327533D01*
G37*
G36*
X189341977Y-92240512D02*
G01*
X189406924Y-92278009D01*
X189407089Y-92278115D01*
X189438920Y-92300924D01*
X189439215Y-92301183D01*
X189461765Y-92325259D01*
X189462003Y-92325570D01*
X189479418Y-92353577D01*
X189479592Y-92353928D01*
X189491212Y-92384799D01*
X189491313Y-92385178D01*
X189496685Y-92417719D01*
X189496711Y-92418110D01*
X189495632Y-92451076D01*
X189495581Y-92451465D01*
X189488090Y-92483590D01*
X189487964Y-92483961D01*
X189471806Y-92519624D01*
X189471716Y-92519799D01*
X188934216Y-93450776D01*
X188934110Y-93450941D01*
X188911305Y-93482765D01*
X188911046Y-93483060D01*
X188886971Y-93505609D01*
X188886660Y-93505847D01*
X188858649Y-93523265D01*
X188858298Y-93523439D01*
X188827428Y-93535058D01*
X188827049Y-93535159D01*
X188794509Y-93540531D01*
X188794118Y-93540557D01*
X188761152Y-93539478D01*
X188760763Y-93539427D01*
X188728636Y-93531936D01*
X188728265Y-93531810D01*
X188692605Y-93515652D01*
X188692430Y-93515562D01*
X188627482Y-93478064D01*
X188626482Y-93476332D01*
X188627482Y-93474600D01*
X188629307Y-93474510D01*
X188673762Y-93494654D01*
X188721109Y-93505692D01*
X188769698Y-93507284D01*
X188817661Y-93499364D01*
X188863162Y-93482239D01*
X188904442Y-93456569D01*
X188939925Y-93423336D01*
X188968302Y-93383736D01*
X189430701Y-92582836D01*
X189450807Y-92538465D01*
X189461845Y-92491119D01*
X189463437Y-92442529D01*
X189455517Y-92394566D01*
X189438392Y-92349065D01*
X189412722Y-92307785D01*
X189379489Y-92272302D01*
X189339812Y-92243870D01*
X189338987Y-92242048D01*
X189340152Y-92240422D01*
X189341977Y-92240512D01*
G37*
G36*
X198091023Y-92012244D02*
G01*
X198090188Y-92013870D01*
X198050511Y-92042302D01*
X198017278Y-92077785D01*
X197991608Y-92119065D01*
X197974483Y-92164566D01*
X197966563Y-92212529D01*
X197968155Y-92261118D01*
X197979193Y-92308465D01*
X197999299Y-92352836D01*
X198461698Y-93153736D01*
X198490075Y-93193336D01*
X198525558Y-93226569D01*
X198566838Y-93252239D01*
X198612339Y-93269364D01*
X198660302Y-93277284D01*
X198708892Y-93275692D01*
X198756238Y-93264654D01*
X198800693Y-93244510D01*
X198802683Y-93244706D01*
X198803508Y-93246528D01*
X198802518Y-93248064D01*
X198737570Y-93285562D01*
X198737395Y-93285652D01*
X198701735Y-93301810D01*
X198701364Y-93301936D01*
X198669237Y-93309427D01*
X198668848Y-93309478D01*
X198635882Y-93310557D01*
X198635491Y-93310531D01*
X198602950Y-93305159D01*
X198602571Y-93305058D01*
X198571700Y-93293438D01*
X198571349Y-93293264D01*
X198543342Y-93275849D01*
X198543031Y-93275611D01*
X198518954Y-93253060D01*
X198518695Y-93252765D01*
X198495890Y-93220941D01*
X198495784Y-93220776D01*
X197958284Y-92289799D01*
X197958194Y-92289624D01*
X197942036Y-92253961D01*
X197941910Y-92253590D01*
X197934419Y-92221465D01*
X197934368Y-92221076D01*
X197933289Y-92188110D01*
X197933315Y-92187719D01*
X197938687Y-92155179D01*
X197938788Y-92154800D01*
X197950407Y-92123930D01*
X197950581Y-92123579D01*
X197967999Y-92095568D01*
X197968237Y-92095257D01*
X197990785Y-92071183D01*
X197991080Y-92070924D01*
X198022911Y-92048115D01*
X198023076Y-92048009D01*
X198088023Y-92010512D01*
X198090023Y-92010512D01*
X198091023Y-92012244D01*
G37*
G36*
X203550543Y-91699896D02*
G01*
X203584269Y-91705464D01*
X203584648Y-91705565D01*
X203616647Y-91717609D01*
X203616998Y-91717783D01*
X203646027Y-91735834D01*
X203646338Y-91736072D01*
X203671293Y-91759446D01*
X203671552Y-91759741D01*
X203695062Y-91792548D01*
X203695168Y-91792713D01*
X203984814Y-92294396D01*
X203997257Y-92315948D01*
X203997586Y-92316518D01*
X204007091Y-92332981D01*
X204008842Y-92336014D01*
X204009005Y-92336296D01*
X204039024Y-92388290D01*
X204039114Y-92388465D01*
X204055769Y-92425223D01*
X204055895Y-92425594D01*
X204063659Y-92458894D01*
X204063710Y-92459283D01*
X204064829Y-92493453D01*
X204064803Y-92493844D01*
X204059235Y-92527571D01*
X204059134Y-92527950D01*
X204047090Y-92559947D01*
X204046916Y-92560298D01*
X204028865Y-92589328D01*
X204028627Y-92589639D01*
X204005253Y-92614594D01*
X204004958Y-92614853D01*
X203972151Y-92638363D01*
X203971986Y-92638469D01*
X203463011Y-92932325D01*
X203462836Y-92932415D01*
X203426078Y-92949070D01*
X203425707Y-92949196D01*
X203392407Y-92956960D01*
X203392018Y-92957011D01*
X203357848Y-92958130D01*
X203357457Y-92958104D01*
X203323731Y-92952536D01*
X203323352Y-92952435D01*
X203291353Y-92940391D01*
X203291002Y-92940217D01*
X203261973Y-92922166D01*
X203261662Y-92921928D01*
X203236707Y-92898554D01*
X203236448Y-92898259D01*
X203212938Y-92865452D01*
X203212832Y-92865287D01*
X202956472Y-92421257D01*
X202944425Y-92400391D01*
X202934460Y-92383131D01*
X202918584Y-92355633D01*
X202913967Y-92347636D01*
X202910414Y-92341482D01*
X202904092Y-92330532D01*
X202868976Y-92269710D01*
X202868886Y-92269535D01*
X202852231Y-92232777D01*
X202852105Y-92232406D01*
X202844341Y-92199106D01*
X202844290Y-92198717D01*
X202843788Y-92183365D01*
X202869582Y-92183365D01*
X202871094Y-92229505D01*
X202881576Y-92274465D01*
X202900670Y-92316604D01*
X202907556Y-92328532D01*
X202913878Y-92339482D01*
X202917431Y-92345636D01*
X202922048Y-92353633D01*
X202937924Y-92381131D01*
X202947889Y-92398391D01*
X202959936Y-92419257D01*
X203188069Y-92814394D01*
X203215019Y-92852003D01*
X203248713Y-92883560D01*
X203287912Y-92907936D01*
X203331120Y-92924198D01*
X203376666Y-92931718D01*
X203422806Y-92930207D01*
X203467766Y-92919725D01*
X203509905Y-92900631D01*
X203921093Y-92663232D01*
X203958702Y-92636282D01*
X203990259Y-92602588D01*
X204014635Y-92563388D01*
X204030897Y-92520180D01*
X204038418Y-92474635D01*
X204036906Y-92428495D01*
X204026424Y-92383535D01*
X204007330Y-92341396D01*
X204005541Y-92338297D01*
X204005378Y-92338015D01*
X204005378Y-92338014D01*
X204003627Y-92334981D01*
X203994122Y-92318518D01*
X203993793Y-92317948D01*
X203981350Y-92296396D01*
X203719931Y-91843606D01*
X203692981Y-91805997D01*
X203659287Y-91774440D01*
X203620088Y-91750064D01*
X203576880Y-91733802D01*
X203531334Y-91726282D01*
X203485194Y-91727793D01*
X203440234Y-91738275D01*
X203398095Y-91757369D01*
X202986907Y-91994768D01*
X202949298Y-92021718D01*
X202917741Y-92055412D01*
X202893365Y-92094612D01*
X202877103Y-92137820D01*
X202869582Y-92183365D01*
X202843788Y-92183365D01*
X202843171Y-92164547D01*
X202843197Y-92164156D01*
X202848765Y-92130429D01*
X202848866Y-92130050D01*
X202860910Y-92098053D01*
X202861084Y-92097702D01*
X202879135Y-92068672D01*
X202879373Y-92068361D01*
X202902747Y-92043406D01*
X202903042Y-92043147D01*
X202935849Y-92019637D01*
X202936014Y-92019531D01*
X203444989Y-91725675D01*
X203445164Y-91725585D01*
X203481922Y-91708930D01*
X203482293Y-91708804D01*
X203515593Y-91701040D01*
X203515982Y-91700989D01*
X203550152Y-91699870D01*
X203550543Y-91699896D01*
G37*
G36*
X187346348Y-91104096D02*
G01*
X187346737Y-91104147D01*
X187378864Y-91111638D01*
X187379235Y-91111764D01*
X187414895Y-91127922D01*
X187415070Y-91128012D01*
X187480018Y-91165510D01*
X187481018Y-91167242D01*
X187480018Y-91168974D01*
X187478193Y-91169064D01*
X187433738Y-91148920D01*
X187386391Y-91137882D01*
X187337802Y-91136290D01*
X187289839Y-91144210D01*
X187244338Y-91161335D01*
X187203058Y-91187005D01*
X187167575Y-91220238D01*
X187139198Y-91259838D01*
X186676799Y-92060738D01*
X186656693Y-92105109D01*
X186645655Y-92152455D01*
X186644063Y-92201045D01*
X186651983Y-92249008D01*
X186669108Y-92294509D01*
X186694778Y-92335789D01*
X186728011Y-92371272D01*
X186767688Y-92399704D01*
X186768513Y-92401526D01*
X186767348Y-92403152D01*
X186765523Y-92403062D01*
X186700576Y-92365565D01*
X186700411Y-92365459D01*
X186668580Y-92342650D01*
X186668285Y-92342391D01*
X186645735Y-92318315D01*
X186645497Y-92318004D01*
X186628082Y-92289997D01*
X186627908Y-92289646D01*
X186616288Y-92258775D01*
X186616187Y-92258396D01*
X186610815Y-92225855D01*
X186610789Y-92225464D01*
X186611868Y-92192498D01*
X186611919Y-92192109D01*
X186619410Y-92159984D01*
X186619536Y-92159613D01*
X186635694Y-92123950D01*
X186635784Y-92123775D01*
X187173284Y-91192798D01*
X187173390Y-91192633D01*
X187196195Y-91160809D01*
X187196454Y-91160514D01*
X187220529Y-91137965D01*
X187220840Y-91137727D01*
X187248851Y-91120309D01*
X187249202Y-91120135D01*
X187280072Y-91108516D01*
X187280451Y-91108415D01*
X187312991Y-91103043D01*
X187313382Y-91103017D01*
X187346348Y-91104096D01*
G37*
G36*
X200117009Y-90873043D02*
G01*
X200149550Y-90878415D01*
X200149929Y-90878516D01*
X200180800Y-90890136D01*
X200181151Y-90890310D01*
X200209158Y-90907725D01*
X200209469Y-90907963D01*
X200233546Y-90930514D01*
X200233805Y-90930809D01*
X200256610Y-90962633D01*
X200256716Y-90962798D01*
X200794216Y-91893775D01*
X200794306Y-91893950D01*
X200810464Y-91929613D01*
X200810590Y-91929984D01*
X200818081Y-91962109D01*
X200818132Y-91962498D01*
X200819211Y-91995464D01*
X200819185Y-91995855D01*
X200813813Y-92028395D01*
X200813712Y-92028774D01*
X200802093Y-92059644D01*
X200801919Y-92059995D01*
X200784501Y-92088006D01*
X200784263Y-92088317D01*
X200761715Y-92112391D01*
X200761420Y-92112650D01*
X200729589Y-92135459D01*
X200729424Y-92135565D01*
X200664477Y-92173062D01*
X200662477Y-92173062D01*
X200661477Y-92171330D01*
X200662312Y-92169704D01*
X200701989Y-92141272D01*
X200735222Y-92105789D01*
X200760892Y-92064509D01*
X200778017Y-92019008D01*
X200785937Y-91971045D01*
X200784345Y-91922456D01*
X200773307Y-91875109D01*
X200753201Y-91830738D01*
X200290802Y-91029838D01*
X200262425Y-90990238D01*
X200226942Y-90957005D01*
X200185662Y-90931335D01*
X200140161Y-90914210D01*
X200092198Y-90906290D01*
X200043608Y-90907882D01*
X199996262Y-90918920D01*
X199951807Y-90939064D01*
X199949817Y-90938868D01*
X199948992Y-90937046D01*
X199949982Y-90935510D01*
X200014930Y-90898012D01*
X200015105Y-90897922D01*
X200050765Y-90881764D01*
X200051136Y-90881638D01*
X200083263Y-90874147D01*
X200083652Y-90874096D01*
X200116618Y-90873017D01*
X200117009Y-90873043D01*
G37*
G36*
X185104018Y-90811989D02*
G01*
X185104407Y-90812040D01*
X185137707Y-90819804D01*
X185138078Y-90819930D01*
X185174836Y-90836585D01*
X185175011Y-90836675D01*
X185683986Y-91130531D01*
X185684151Y-91130637D01*
X185716958Y-91154147D01*
X185717253Y-91154406D01*
X185740627Y-91179361D01*
X185740865Y-91179672D01*
X185758916Y-91208701D01*
X185759090Y-91209052D01*
X185771134Y-91241051D01*
X185771235Y-91241430D01*
X185776803Y-91275156D01*
X185776829Y-91275547D01*
X185775710Y-91309717D01*
X185775659Y-91310106D01*
X185767895Y-91343406D01*
X185767769Y-91343777D01*
X185751114Y-91380535D01*
X185751024Y-91380710D01*
X185721005Y-91432704D01*
X185719091Y-91436019D01*
X185709586Y-91452482D01*
X185706033Y-91458636D01*
X185407168Y-91976287D01*
X185407062Y-91976452D01*
X185383552Y-92009259D01*
X185383293Y-92009554D01*
X185358338Y-92032928D01*
X185358027Y-92033166D01*
X185328997Y-92051217D01*
X185328646Y-92051391D01*
X185296649Y-92063435D01*
X185296270Y-92063536D01*
X185262543Y-92069104D01*
X185262152Y-92069130D01*
X185227982Y-92068011D01*
X185227593Y-92067960D01*
X185194293Y-92060196D01*
X185193922Y-92060070D01*
X185157164Y-92043415D01*
X185156989Y-92043325D01*
X184648014Y-91749469D01*
X184647849Y-91749363D01*
X184615042Y-91725853D01*
X184614747Y-91725594D01*
X184591373Y-91700639D01*
X184591135Y-91700328D01*
X184573084Y-91671299D01*
X184572910Y-91670948D01*
X184560866Y-91638949D01*
X184560765Y-91638570D01*
X184555197Y-91604844D01*
X184555171Y-91604453D01*
X184555787Y-91585635D01*
X184581583Y-91585635D01*
X184589103Y-91631181D01*
X184605365Y-91674389D01*
X184629741Y-91713588D01*
X184661298Y-91747282D01*
X184698907Y-91774232D01*
X185110095Y-92011631D01*
X185152234Y-92030725D01*
X185197194Y-92041207D01*
X185243334Y-92042719D01*
X185288879Y-92035198D01*
X185332087Y-92018936D01*
X185371287Y-91994560D01*
X185404981Y-91963003D01*
X185431931Y-91925394D01*
X185702569Y-91456636D01*
X185706122Y-91450482D01*
X185715627Y-91434019D01*
X185717541Y-91430704D01*
X185719330Y-91427604D01*
X185738424Y-91385465D01*
X185748906Y-91340505D01*
X185750417Y-91294365D01*
X185742897Y-91248819D01*
X185726635Y-91205611D01*
X185702259Y-91166412D01*
X185670702Y-91132718D01*
X185633093Y-91105768D01*
X185221905Y-90868369D01*
X185179766Y-90849275D01*
X185134806Y-90838793D01*
X185088666Y-90837281D01*
X185043121Y-90844802D01*
X184999913Y-90861064D01*
X184960713Y-90885440D01*
X184927019Y-90916997D01*
X184900069Y-90954606D01*
X184673492Y-91347048D01*
X184671936Y-91349743D01*
X184659889Y-91370609D01*
X184649924Y-91387869D01*
X184625878Y-91429518D01*
X184619556Y-91440468D01*
X184612670Y-91452396D01*
X184593576Y-91494535D01*
X184583094Y-91539495D01*
X184581583Y-91585635D01*
X184555787Y-91585635D01*
X184556290Y-91570283D01*
X184556341Y-91569894D01*
X184564105Y-91536594D01*
X184564231Y-91536223D01*
X184580886Y-91499465D01*
X184580976Y-91499290D01*
X184616092Y-91438468D01*
X184622414Y-91427518D01*
X184646460Y-91385869D01*
X184656425Y-91368609D01*
X184668472Y-91347743D01*
X184670028Y-91345048D01*
X184924832Y-90903713D01*
X184924938Y-90903548D01*
X184948448Y-90870741D01*
X184948707Y-90870446D01*
X184973662Y-90847072D01*
X184973973Y-90846834D01*
X185003003Y-90828783D01*
X185003354Y-90828609D01*
X185035351Y-90816565D01*
X185035730Y-90816464D01*
X185069457Y-90810896D01*
X185069848Y-90810870D01*
X185104018Y-90811989D01*
G37*
G36*
X202675543Y-90184352D02*
G01*
X202709269Y-90189920D01*
X202709648Y-90190021D01*
X202741647Y-90202065D01*
X202741998Y-90202239D01*
X202771027Y-90220290D01*
X202771338Y-90220528D01*
X202796293Y-90243902D01*
X202796552Y-90244197D01*
X202820062Y-90277004D01*
X202820168Y-90277169D01*
X203121529Y-90799143D01*
X203122586Y-90800974D01*
X203132091Y-90817437D01*
X203134005Y-90820752D01*
X203164024Y-90872746D01*
X203164114Y-90872921D01*
X203180769Y-90909679D01*
X203180895Y-90910050D01*
X203188659Y-90943350D01*
X203188710Y-90943739D01*
X203189829Y-90977909D01*
X203189803Y-90978300D01*
X203184235Y-91012027D01*
X203184134Y-91012406D01*
X203172090Y-91044403D01*
X203171916Y-91044754D01*
X203153865Y-91073784D01*
X203153627Y-91074095D01*
X203130253Y-91099050D01*
X203129958Y-91099309D01*
X203097151Y-91122819D01*
X203096986Y-91122925D01*
X202588011Y-91416781D01*
X202587836Y-91416871D01*
X202551078Y-91433526D01*
X202550707Y-91433652D01*
X202517407Y-91441416D01*
X202517018Y-91441467D01*
X202482848Y-91442586D01*
X202482457Y-91442560D01*
X202448731Y-91436992D01*
X202448352Y-91436891D01*
X202416353Y-91424847D01*
X202416002Y-91424673D01*
X202386973Y-91406622D01*
X202386662Y-91406384D01*
X202361707Y-91383010D01*
X202361448Y-91382715D01*
X202337938Y-91349908D01*
X202337832Y-91349743D01*
X202082151Y-90906889D01*
X202081472Y-90905713D01*
X202069425Y-90884847D01*
X202067428Y-90881388D01*
X202059460Y-90867587D01*
X202035414Y-90825938D01*
X202029092Y-90814988D01*
X201993976Y-90754166D01*
X201993886Y-90753991D01*
X201977231Y-90717233D01*
X201977105Y-90716862D01*
X201969341Y-90683562D01*
X201969290Y-90683173D01*
X201968788Y-90667821D01*
X201994582Y-90667821D01*
X201996094Y-90713961D01*
X202006576Y-90758921D01*
X202025670Y-90801060D01*
X202032556Y-90812988D01*
X202038878Y-90823938D01*
X202062924Y-90865587D01*
X202070892Y-90879388D01*
X202072889Y-90882847D01*
X202084936Y-90903713D01*
X202085615Y-90904889D01*
X202313069Y-91298850D01*
X202340019Y-91336459D01*
X202373713Y-91368016D01*
X202412912Y-91392392D01*
X202456120Y-91408654D01*
X202501666Y-91416174D01*
X202547806Y-91414663D01*
X202592766Y-91404181D01*
X202634905Y-91385087D01*
X203046093Y-91147688D01*
X203083702Y-91120738D01*
X203115259Y-91087044D01*
X203139635Y-91047844D01*
X203155897Y-91004636D01*
X203163418Y-90959091D01*
X203161906Y-90912951D01*
X203151424Y-90867991D01*
X203132330Y-90825852D01*
X203130541Y-90822752D01*
X203128627Y-90819437D01*
X203119122Y-90802974D01*
X203118065Y-90801143D01*
X202844931Y-90328062D01*
X202817981Y-90290453D01*
X202784287Y-90258896D01*
X202745088Y-90234520D01*
X202701880Y-90218258D01*
X202656334Y-90210738D01*
X202610194Y-90212249D01*
X202565234Y-90222731D01*
X202523095Y-90241825D01*
X202111907Y-90479224D01*
X202074298Y-90506174D01*
X202042741Y-90539868D01*
X202018365Y-90579068D01*
X202002103Y-90622276D01*
X201994582Y-90667821D01*
X201968788Y-90667821D01*
X201968171Y-90649003D01*
X201968197Y-90648612D01*
X201973765Y-90614885D01*
X201973866Y-90614506D01*
X201985910Y-90582509D01*
X201986084Y-90582158D01*
X202004135Y-90553128D01*
X202004373Y-90552817D01*
X202027747Y-90527862D01*
X202028042Y-90527603D01*
X202060849Y-90504093D01*
X202061014Y-90503987D01*
X202569989Y-90210131D01*
X202570164Y-90210041D01*
X202606922Y-90193386D01*
X202607293Y-90193260D01*
X202640593Y-90185496D01*
X202640982Y-90185445D01*
X202675152Y-90184326D01*
X202675543Y-90184352D01*
G37*
M02*
